M48
;Layer_Color=9474304
;FILE_FORMAT=4:2
METRIC,LZ
;TYPE=PLATED
T01F00S00C0.30
T02F00S00C0.60
%
T01
X000262Y000914
X000681Y001034
X000945Y000879
X001212Y001151
X001646Y001227
X001587Y000963
X001657Y000879
X001847
X001857Y000734
X002162Y000815
X002423
X002725Y000988
X002941Y000886
X003205Y001019
X003467Y000988
X003569Y000663
X003729Y000815
X003607Y001318
X00317Y001334
X002617Y001326
X002187Y001295
X002626Y001852
X003668Y001847
X001595Y00176
X000579Y001554
X004148Y00127
X004242Y001186
X004585Y001217
X004569Y000963
X004879Y000853
X005204Y000885
X005202Y001028
X00511Y00112
X00555Y001013
X005466Y00081
X005707Y001511
X004696Y00173
X004209Y000734
X003988Y000813
T02
X002392Y00043
X002725Y000472
X003427Y000475
X003762Y00043
X004295Y00094
M30
