G04*
G04 #@! TF.GenerationSoftware,Altium Limited,Altium Designer,24.9.1 (31)*
G04*
G04 Layer_Color=128*
%FSLAX44Y44*%
%MOMM*%
G71*
G04*
G04 #@! TF.SameCoordinates,0EA0C4F9-9699-4FEE-9EE7-DB85143A2A43*
G04*
G04*
G04 #@! TF.FilePolarity,Positive*
G04*
G01*
G75*
%ADD34C,0.1270*%
D34*
X166140Y82550D02*
X169140D01*
X167640Y81050D02*
Y84050D01*
X181380Y82550D02*
X184380D01*
X182880Y81050D02*
Y84050D01*
X173760Y82550D02*
X176760D01*
X175260Y81050D02*
Y84050D01*
X7390Y30000D02*
X10390D01*
X8890Y28500D02*
Y31500D01*
X7390Y50000D02*
X10390D01*
X8890Y48500D02*
Y51500D01*
X131850Y25400D02*
X134850D01*
X133350Y23900D02*
Y26900D01*
X121690Y25400D02*
X124690D01*
X123190Y23900D02*
Y26900D01*
X162330Y54610D02*
X165330D01*
X163830Y53110D02*
Y56110D01*
X232180Y64770D02*
X235180D01*
X233680Y63270D02*
Y66270D01*
X214400Y54610D02*
X217400D01*
X215900Y53110D02*
Y56110D01*
X248690Y54610D02*
X251690D01*
X250190Y53110D02*
Y56110D01*
X248690Y10160D02*
X251690D01*
X250190Y8660D02*
Y11660D01*
X248690Y25400D02*
X251690D01*
X250190Y23900D02*
Y26900D01*
X215670Y25400D02*
X218670D01*
X217170Y23900D02*
Y26900D01*
X215670Y10160D02*
X218670D01*
X217170Y8660D02*
Y11660D01*
X273393Y57847D02*
X276393D01*
X274893Y56347D02*
Y59347D01*
X73430Y59690D02*
X76430D01*
X74930Y58190D02*
Y61190D01*
X332510Y49530D02*
X335510D01*
X334010Y48030D02*
Y51030D01*
X177570Y24130D02*
X180570D01*
X179070Y22630D02*
Y25630D01*
M02*
