G04*
G04 #@! TF.GenerationSoftware,Altium Limited,Altium Designer,24.9.1 (31)*
G04*
G04 Layer_Color=65535*
%FSLAX44Y44*%
%MOMM*%
G71*
G04*
G04 #@! TF.SameCoordinates,0EA0C4F9-9699-4FEE-9EE7-DB85143A2A43*
G04*
G04*
G04 #@! TF.FilePolarity,Positive*
G04*
G01*
G75*
%ADD10C,0.4000*%
%ADD11C,0.2540*%
%ADD12C,0.1500*%
%ADD13C,0.2000*%
G36*
X115400Y65993D02*
X114457D01*
Y71998D01*
X114445Y71987D01*
X114390Y71942D01*
X114323Y71876D01*
X114212Y71798D01*
X114090Y71698D01*
X113935Y71587D01*
X113757Y71465D01*
X113557Y71343D01*
X113546D01*
X113535Y71332D01*
X113469Y71287D01*
X113358Y71232D01*
X113224Y71165D01*
X113069Y71088D01*
X112902Y71010D01*
X112736Y70932D01*
X112570Y70866D01*
Y71776D01*
X112581D01*
X112603Y71798D01*
X112647Y71809D01*
X112703Y71842D01*
X112769Y71876D01*
X112847Y71920D01*
X113036Y72031D01*
X113258Y72153D01*
X113480Y72309D01*
X113713Y72486D01*
X113946Y72675D01*
X113957Y72686D01*
X113968Y72697D01*
X114001Y72730D01*
X114046Y72764D01*
X114146Y72875D01*
X114279Y73008D01*
X114412Y73163D01*
X114556Y73341D01*
X114678Y73519D01*
X114789Y73707D01*
X115400D01*
Y65993D01*
D02*
G37*
G36*
X108152Y73663D02*
X108252D01*
X108485Y73652D01*
X108729Y73618D01*
X108995Y73585D01*
X109240Y73530D01*
X109362Y73496D01*
X109462Y73463D01*
X109473D01*
X109484Y73452D01*
X109550Y73419D01*
X109650Y73374D01*
X109772Y73296D01*
X109906Y73197D01*
X110050Y73063D01*
X110183Y72908D01*
X110316Y72730D01*
Y72719D01*
X110327Y72708D01*
X110372Y72642D01*
X110416Y72531D01*
X110483Y72386D01*
X110538Y72220D01*
X110594Y72020D01*
X110627Y71809D01*
X110638Y71576D01*
Y71565D01*
Y71543D01*
Y71498D01*
X110627Y71443D01*
Y71365D01*
X110616Y71287D01*
X110572Y71099D01*
X110505Y70877D01*
X110416Y70644D01*
X110283Y70411D01*
X110194Y70300D01*
X110105Y70189D01*
X110094Y70177D01*
X110083Y70166D01*
X110050Y70133D01*
X110006Y70100D01*
X109950Y70055D01*
X109883Y70011D01*
X109795Y69956D01*
X109706Y69889D01*
X109595Y69833D01*
X109473Y69778D01*
X109340Y69711D01*
X109195Y69656D01*
X109029Y69611D01*
X108862Y69556D01*
X108673Y69523D01*
X108474Y69489D01*
X108496Y69478D01*
X108540Y69456D01*
X108607Y69412D01*
X108696Y69367D01*
X108896Y69245D01*
X108995Y69167D01*
X109084Y69101D01*
X109106Y69079D01*
X109162Y69023D01*
X109251Y68934D01*
X109362Y68823D01*
X109484Y68668D01*
X109628Y68501D01*
X109772Y68302D01*
X109928Y68080D01*
X111249Y65993D01*
X109983D01*
X108973Y67591D01*
Y67602D01*
X108951Y67625D01*
X108929Y67658D01*
X108896Y67702D01*
X108818Y67824D01*
X108718Y67980D01*
X108596Y68146D01*
X108474Y68324D01*
X108352Y68490D01*
X108241Y68646D01*
X108230Y68657D01*
X108196Y68701D01*
X108141Y68768D01*
X108063Y68846D01*
X107896Y69012D01*
X107808Y69090D01*
X107719Y69156D01*
X107708Y69167D01*
X107686Y69179D01*
X107641Y69201D01*
X107575Y69234D01*
X107508Y69267D01*
X107430Y69301D01*
X107253Y69356D01*
X107242D01*
X107219Y69367D01*
X107175D01*
X107120Y69378D01*
X107042Y69389D01*
X106953D01*
X106831Y69401D01*
X105521D01*
Y65993D01*
X104500D01*
Y73674D01*
X108063D01*
X108152Y73663D01*
D02*
G37*
G36*
X153784Y14006D02*
X153873Y13995D01*
X153984Y13984D01*
X154106Y13962D01*
X154228Y13939D01*
X154516Y13862D01*
X154805Y13751D01*
X154949Y13684D01*
X155094Y13606D01*
X155227Y13507D01*
X155349Y13396D01*
X155360Y13384D01*
X155382Y13373D01*
X155404Y13329D01*
X155449Y13285D01*
X155504Y13229D01*
X155560Y13151D01*
X155615Y13074D01*
X155682Y12974D01*
X155793Y12763D01*
X155904Y12497D01*
X155948Y12363D01*
X155970Y12208D01*
X155993Y12053D01*
X156004Y11886D01*
Y11864D01*
Y11808D01*
X155993Y11719D01*
X155982Y11597D01*
X155959Y11464D01*
X155915Y11309D01*
X155871Y11142D01*
X155804Y10976D01*
X155793Y10954D01*
X155771Y10898D01*
X155726Y10809D01*
X155660Y10687D01*
X155571Y10554D01*
X155460Y10388D01*
X155327Y10221D01*
X155171Y10032D01*
X155149Y10010D01*
X155094Y9944D01*
X155038Y9888D01*
X154983Y9833D01*
X154916Y9766D01*
X154827Y9677D01*
X154738Y9588D01*
X154627Y9488D01*
X154516Y9377D01*
X154383Y9255D01*
X154239Y9133D01*
X154083Y8989D01*
X153906Y8845D01*
X153728Y8689D01*
X153717Y8678D01*
X153695Y8656D01*
X153651Y8623D01*
X153595Y8578D01*
X153528Y8512D01*
X153451Y8445D01*
X153273Y8301D01*
X153084Y8134D01*
X152907Y7968D01*
X152752Y7824D01*
X152685Y7768D01*
X152629Y7713D01*
X152618Y7701D01*
X152585Y7668D01*
X152541Y7624D01*
X152485Y7557D01*
X152430Y7479D01*
X152363Y7402D01*
X152230Y7213D01*
X156015D01*
Y6303D01*
X150920D01*
Y6314D01*
Y6358D01*
Y6425D01*
X150931Y6514D01*
X150942Y6614D01*
X150964Y6725D01*
X150987Y6836D01*
X151031Y6958D01*
Y6969D01*
X151042Y6980D01*
X151064Y7046D01*
X151109Y7146D01*
X151175Y7280D01*
X151264Y7435D01*
X151375Y7613D01*
X151497Y7790D01*
X151653Y7979D01*
Y7990D01*
X151675Y8001D01*
X151730Y8068D01*
X151830Y8168D01*
X151974Y8312D01*
X152141Y8478D01*
X152352Y8678D01*
X152607Y8900D01*
X152885Y9133D01*
X152896Y9144D01*
X152940Y9178D01*
X153007Y9233D01*
X153084Y9300D01*
X153184Y9389D01*
X153307Y9488D01*
X153429Y9599D01*
X153573Y9722D01*
X153850Y9988D01*
X154128Y10254D01*
X154261Y10388D01*
X154383Y10521D01*
X154494Y10643D01*
X154583Y10765D01*
Y10776D01*
X154605Y10787D01*
X154627Y10820D01*
X154650Y10865D01*
X154727Y10987D01*
X154816Y11131D01*
X154894Y11309D01*
X154972Y11497D01*
X155016Y11708D01*
X155038Y11908D01*
Y11919D01*
Y11930D01*
X155027Y11997D01*
X155016Y12108D01*
X154983Y12230D01*
X154938Y12385D01*
X154860Y12541D01*
X154761Y12696D01*
X154627Y12852D01*
X154605Y12874D01*
X154550Y12918D01*
X154472Y12974D01*
X154350Y13052D01*
X154194Y13118D01*
X154017Y13185D01*
X153806Y13229D01*
X153573Y13240D01*
X153506D01*
X153462Y13229D01*
X153329Y13218D01*
X153173Y13185D01*
X153007Y13140D01*
X152818Y13063D01*
X152640Y12963D01*
X152474Y12830D01*
X152452Y12807D01*
X152407Y12752D01*
X152341Y12663D01*
X152274Y12530D01*
X152197Y12374D01*
X152130Y12175D01*
X152086Y11953D01*
X152063Y11697D01*
X151098Y11797D01*
Y11808D01*
X151109Y11842D01*
Y11897D01*
X151120Y11975D01*
X151142Y12064D01*
X151164Y12163D01*
X151198Y12286D01*
X151231Y12408D01*
X151320Y12674D01*
X151453Y12940D01*
X151531Y13074D01*
X151630Y13207D01*
X151730Y13329D01*
X151841Y13440D01*
X151852Y13451D01*
X151875Y13462D01*
X151908Y13496D01*
X151963Y13529D01*
X152030Y13573D01*
X152108Y13618D01*
X152197Y13673D01*
X152308Y13729D01*
X152430Y13784D01*
X152563Y13840D01*
X152707Y13884D01*
X152863Y13928D01*
X153029Y13962D01*
X153207Y13995D01*
X153395Y14006D01*
X153595Y14017D01*
X153706D01*
X153784Y14006D01*
D02*
G37*
G36*
X147357Y13973D02*
X147457D01*
X147690Y13962D01*
X147934Y13928D01*
X148201Y13895D01*
X148445Y13840D01*
X148567Y13806D01*
X148667Y13773D01*
X148678D01*
X148689Y13762D01*
X148756Y13729D01*
X148855Y13684D01*
X148978Y13606D01*
X149111Y13507D01*
X149255Y13373D01*
X149388Y13218D01*
X149522Y13040D01*
Y13029D01*
X149533Y13018D01*
X149577Y12952D01*
X149621Y12841D01*
X149688Y12696D01*
X149743Y12530D01*
X149799Y12330D01*
X149832Y12119D01*
X149843Y11886D01*
Y11875D01*
Y11853D01*
Y11808D01*
X149832Y11753D01*
Y11675D01*
X149821Y11597D01*
X149777Y11409D01*
X149710Y11187D01*
X149621Y10954D01*
X149488Y10721D01*
X149399Y10610D01*
X149311Y10499D01*
X149299Y10488D01*
X149288Y10476D01*
X149255Y10443D01*
X149211Y10410D01*
X149155Y10365D01*
X149089Y10321D01*
X149000Y10266D01*
X148911Y10199D01*
X148800Y10143D01*
X148678Y10088D01*
X148545Y10021D01*
X148400Y9966D01*
X148234Y9921D01*
X148067Y9866D01*
X147879Y9833D01*
X147679Y9799D01*
X147701Y9788D01*
X147746Y9766D01*
X147812Y9722D01*
X147901Y9677D01*
X148101Y9555D01*
X148201Y9477D01*
X148289Y9411D01*
X148312Y9389D01*
X148367Y9333D01*
X148456Y9244D01*
X148567Y9133D01*
X148689Y8978D01*
X148833Y8811D01*
X148978Y8612D01*
X149133Y8390D01*
X150454Y6303D01*
X149188D01*
X148178Y7901D01*
Y7912D01*
X148156Y7934D01*
X148134Y7968D01*
X148101Y8012D01*
X148023Y8134D01*
X147923Y8290D01*
X147801Y8456D01*
X147679Y8634D01*
X147557Y8800D01*
X147446Y8956D01*
X147435Y8967D01*
X147401Y9011D01*
X147346Y9078D01*
X147268Y9155D01*
X147102Y9322D01*
X147013Y9400D01*
X146924Y9466D01*
X146913Y9477D01*
X146891Y9488D01*
X146846Y9511D01*
X146780Y9544D01*
X146713Y9577D01*
X146636Y9611D01*
X146458Y9666D01*
X146447D01*
X146425Y9677D01*
X146380D01*
X146325Y9688D01*
X146247Y9699D01*
X146158D01*
X146036Y9711D01*
X144726D01*
Y6303D01*
X143705D01*
Y13984D01*
X147268D01*
X147357Y13973D01*
D02*
G37*
G36*
X260050Y8811D02*
Y8800D01*
Y8767D01*
Y8723D01*
Y8656D01*
X260039Y8567D01*
Y8478D01*
X260017Y8267D01*
X259995Y8023D01*
X259950Y7768D01*
X259884Y7535D01*
X259806Y7313D01*
Y7302D01*
X259795Y7291D01*
X259762Y7224D01*
X259706Y7135D01*
X259629Y7013D01*
X259517Y6891D01*
X259395Y6758D01*
X259240Y6625D01*
X259062Y6514D01*
X259040Y6503D01*
X258974Y6469D01*
X258874Y6425D01*
X258729Y6381D01*
X258552Y6325D01*
X258352Y6281D01*
X258130Y6247D01*
X257886Y6236D01*
X257786D01*
X257719Y6247D01*
X257631Y6258D01*
X257542Y6270D01*
X257309Y6314D01*
X257064Y6381D01*
X256809Y6480D01*
X256676Y6547D01*
X256554Y6625D01*
X256443Y6714D01*
X256332Y6813D01*
X256321Y6824D01*
X256310Y6836D01*
X256287Y6880D01*
X256254Y6924D01*
X256210Y6980D01*
X256165Y7058D01*
X256121Y7146D01*
X256066Y7246D01*
X256021Y7357D01*
X255977Y7491D01*
X255932Y7624D01*
X255888Y7779D01*
X255866Y7946D01*
X255832Y8134D01*
X255821Y8323D01*
Y8534D01*
X256743Y8667D01*
Y8656D01*
Y8634D01*
Y8589D01*
X256754Y8523D01*
X256765Y8456D01*
Y8378D01*
X256798Y8190D01*
X256831Y7990D01*
X256898Y7790D01*
X256965Y7613D01*
X257009Y7535D01*
X257064Y7468D01*
X257076Y7457D01*
X257120Y7424D01*
X257187Y7368D01*
X257275Y7313D01*
X257397Y7246D01*
X257531Y7202D01*
X257697Y7157D01*
X257875Y7146D01*
X257941D01*
X258008Y7157D01*
X258108Y7169D01*
X258208Y7191D01*
X258319Y7213D01*
X258430Y7257D01*
X258541Y7313D01*
X258552Y7324D01*
X258585Y7346D01*
X258629Y7391D01*
X258696Y7435D01*
X258752Y7513D01*
X258818Y7590D01*
X258874Y7679D01*
X258918Y7790D01*
Y7801D01*
X258940Y7846D01*
X258951Y7923D01*
X258974Y8023D01*
X258996Y8156D01*
X259007Y8323D01*
X259029Y8523D01*
Y8756D01*
Y14051D01*
X260050D01*
Y8811D01*
D02*
G37*
G36*
X264879Y6369D02*
X263935D01*
Y12374D01*
X263924Y12363D01*
X263869Y12319D01*
X263802Y12252D01*
X263691Y12175D01*
X263569Y12075D01*
X263414Y11964D01*
X263236Y11842D01*
X263036Y11719D01*
X263025D01*
X263014Y11708D01*
X262947Y11664D01*
X262836Y11609D01*
X262703Y11542D01*
X262548Y11464D01*
X262381Y11386D01*
X262215Y11309D01*
X262048Y11242D01*
Y12152D01*
X262059D01*
X262082Y12175D01*
X262126Y12186D01*
X262181Y12219D01*
X262248Y12252D01*
X262326Y12297D01*
X262514Y12408D01*
X262736Y12530D01*
X262959Y12685D01*
X263192Y12863D01*
X263425Y13052D01*
X263436Y13063D01*
X263447Y13074D01*
X263480Y13107D01*
X263524Y13140D01*
X263624Y13251D01*
X263758Y13384D01*
X263891Y13540D01*
X264035Y13717D01*
X264157Y13895D01*
X264268Y14084D01*
X264879D01*
Y6369D01*
D02*
G37*
G36*
X48992Y71273D02*
X49092Y71262D01*
X49214Y71250D01*
X49336Y71239D01*
X49480Y71206D01*
X49780Y71139D01*
X50113Y71040D01*
X50279Y70973D01*
X50435Y70895D01*
X50590Y70795D01*
X50745Y70695D01*
X50757Y70684D01*
X50779Y70673D01*
X50823Y70640D01*
X50879Y70584D01*
X50934Y70529D01*
X51012Y70451D01*
X51090Y70362D01*
X51178Y70274D01*
X51267Y70163D01*
X51356Y70030D01*
X51456Y69896D01*
X51545Y69752D01*
X51622Y69585D01*
X51711Y69419D01*
X51778Y69241D01*
X51844Y69042D01*
X50845Y68808D01*
Y68820D01*
X50834Y68842D01*
X50812Y68886D01*
X50790Y68942D01*
X50768Y69008D01*
X50734Y69097D01*
X50645Y69275D01*
X50535Y69475D01*
X50401Y69674D01*
X50235Y69863D01*
X50057Y70030D01*
X50035Y70052D01*
X49969Y70096D01*
X49858Y70152D01*
X49713Y70229D01*
X49524Y70296D01*
X49314Y70362D01*
X49058Y70407D01*
X48781Y70418D01*
X48692D01*
X48636Y70407D01*
X48559D01*
X48470Y70396D01*
X48259Y70362D01*
X48026Y70318D01*
X47782Y70240D01*
X47526Y70129D01*
X47293Y69985D01*
X47282D01*
X47271Y69963D01*
X47193Y69907D01*
X47094Y69819D01*
X46972Y69685D01*
X46827Y69519D01*
X46694Y69330D01*
X46572Y69097D01*
X46461Y68842D01*
Y68831D01*
X46450Y68808D01*
X46439Y68775D01*
X46428Y68720D01*
X46405Y68653D01*
X46383Y68575D01*
X46350Y68387D01*
X46305Y68165D01*
X46261Y67920D01*
X46239Y67654D01*
X46228Y67365D01*
Y67354D01*
Y67321D01*
Y67266D01*
Y67199D01*
X46239Y67121D01*
Y67021D01*
X46250Y66910D01*
X46261Y66788D01*
X46294Y66522D01*
X46350Y66233D01*
X46417Y65945D01*
X46505Y65656D01*
Y65645D01*
X46516Y65623D01*
X46539Y65589D01*
X46561Y65534D01*
X46627Y65401D01*
X46727Y65245D01*
X46849Y65068D01*
X47005Y64879D01*
X47182Y64713D01*
X47393Y64557D01*
X47404D01*
X47427Y64546D01*
X47460Y64524D01*
X47504Y64502D01*
X47560Y64480D01*
X47626Y64446D01*
X47782Y64380D01*
X47982Y64313D01*
X48204Y64258D01*
X48448Y64213D01*
X48703Y64202D01*
X48781D01*
X48847Y64213D01*
X48925D01*
X49003Y64224D01*
X49203Y64269D01*
X49436Y64324D01*
X49669Y64413D01*
X49913Y64535D01*
X50035Y64602D01*
X50146Y64690D01*
X50157Y64701D01*
X50168Y64713D01*
X50202Y64746D01*
X50246Y64779D01*
X50290Y64835D01*
X50346Y64901D01*
X50412Y64968D01*
X50468Y65057D01*
X50535Y65157D01*
X50612Y65268D01*
X50679Y65379D01*
X50745Y65512D01*
X50801Y65656D01*
X50856Y65812D01*
X50912Y65978D01*
X50956Y66156D01*
X51978Y65900D01*
Y65889D01*
X51966Y65845D01*
X51944Y65778D01*
X51911Y65689D01*
X51878Y65589D01*
X51833Y65467D01*
X51778Y65334D01*
X51711Y65190D01*
X51556Y64879D01*
X51356Y64568D01*
X51234Y64413D01*
X51112Y64258D01*
X50978Y64124D01*
X50823Y63991D01*
X50812Y63980D01*
X50790Y63958D01*
X50734Y63936D01*
X50679Y63891D01*
X50590Y63836D01*
X50501Y63780D01*
X50379Y63725D01*
X50257Y63669D01*
X50113Y63603D01*
X49957Y63547D01*
X49791Y63492D01*
X49613Y63436D01*
X49425Y63392D01*
X49225Y63370D01*
X49014Y63347D01*
X48792Y63336D01*
X48670D01*
X48581Y63347D01*
X48481D01*
X48359Y63358D01*
X48226Y63381D01*
X48070Y63403D01*
X47748Y63458D01*
X47415Y63547D01*
X47083Y63669D01*
X46927Y63747D01*
X46772Y63836D01*
X46761Y63847D01*
X46738Y63858D01*
X46694Y63891D01*
X46650Y63936D01*
X46583Y63980D01*
X46505Y64047D01*
X46417Y64124D01*
X46328Y64213D01*
X46239Y64313D01*
X46139Y64413D01*
X45939Y64668D01*
X45750Y64968D01*
X45584Y65301D01*
Y65312D01*
X45562Y65345D01*
X45551Y65401D01*
X45517Y65467D01*
X45495Y65556D01*
X45462Y65667D01*
X45417Y65789D01*
X45384Y65922D01*
X45351Y66067D01*
X45307Y66233D01*
X45251Y66577D01*
X45207Y66966D01*
X45184Y67365D01*
Y67377D01*
Y67421D01*
Y67488D01*
X45195Y67565D01*
Y67676D01*
X45207Y67787D01*
X45218Y67932D01*
X45240Y68076D01*
X45295Y68398D01*
X45373Y68753D01*
X45484Y69108D01*
X45640Y69452D01*
X45651Y69463D01*
X45662Y69497D01*
X45684Y69541D01*
X45728Y69597D01*
X45773Y69674D01*
X45828Y69763D01*
X45972Y69963D01*
X46161Y70185D01*
X46383Y70407D01*
X46638Y70629D01*
X46938Y70817D01*
X46949Y70829D01*
X46983Y70840D01*
X47027Y70862D01*
X47083Y70895D01*
X47171Y70929D01*
X47260Y70962D01*
X47371Y71006D01*
X47493Y71051D01*
X47626Y71095D01*
X47771Y71139D01*
X48081Y71206D01*
X48437Y71262D01*
X48803Y71284D01*
X48914D01*
X48992Y71273D01*
D02*
G37*
G36*
X56395Y63470D02*
X55452D01*
Y69475D01*
X55441Y69463D01*
X55385Y69419D01*
X55319Y69352D01*
X55208Y69275D01*
X55086Y69175D01*
X54930Y69064D01*
X54752Y68942D01*
X54553Y68820D01*
X54542D01*
X54531Y68808D01*
X54464Y68764D01*
X54353Y68709D01*
X54220Y68642D01*
X54064Y68564D01*
X53898Y68487D01*
X53731Y68409D01*
X53565Y68342D01*
Y69253D01*
X53576D01*
X53598Y69275D01*
X53643Y69286D01*
X53698Y69319D01*
X53765Y69352D01*
X53842Y69397D01*
X54031Y69508D01*
X54253Y69630D01*
X54475Y69785D01*
X54708Y69963D01*
X54941Y70152D01*
X54952Y70163D01*
X54963Y70174D01*
X54997Y70207D01*
X55041Y70240D01*
X55141Y70351D01*
X55274Y70484D01*
X55407Y70640D01*
X55552Y70817D01*
X55674Y70995D01*
X55785Y71184D01*
X56395D01*
Y63470D01*
D02*
G37*
G36*
X43686D02*
X42665D01*
Y71150D01*
X43686D01*
Y63470D01*
D02*
G37*
G36*
X275059Y75367D02*
X275159Y75356D01*
X275281Y75345D01*
X275403Y75334D01*
X275547Y75301D01*
X275847Y75234D01*
X276180Y75134D01*
X276346Y75068D01*
X276502Y74990D01*
X276657Y74890D01*
X276813Y74790D01*
X276824Y74779D01*
X276846Y74768D01*
X276890Y74735D01*
X276946Y74679D01*
X277001Y74623D01*
X277079Y74546D01*
X277157Y74457D01*
X277246Y74368D01*
X277334Y74257D01*
X277423Y74124D01*
X277523Y73991D01*
X277612Y73847D01*
X277689Y73680D01*
X277778Y73513D01*
X277845Y73336D01*
X277911Y73136D01*
X276913Y72903D01*
Y72914D01*
X276901Y72936D01*
X276879Y72981D01*
X276857Y73036D01*
X276835Y73103D01*
X276802Y73192D01*
X276713Y73369D01*
X276602Y73569D01*
X276469Y73769D01*
X276302Y73958D01*
X276124Y74124D01*
X276102Y74146D01*
X276036Y74191D01*
X275925Y74246D01*
X275780Y74324D01*
X275592Y74390D01*
X275381Y74457D01*
X275126Y74501D01*
X274848Y74513D01*
X274759D01*
X274704Y74501D01*
X274626D01*
X274537Y74490D01*
X274326Y74457D01*
X274093Y74413D01*
X273849Y74335D01*
X273594Y74224D01*
X273361Y74080D01*
X273349D01*
X273338Y74057D01*
X273261Y74002D01*
X273161Y73913D01*
X273039Y73780D01*
X272894Y73613D01*
X272761Y73425D01*
X272639Y73192D01*
X272528Y72936D01*
Y72925D01*
X272517Y72903D01*
X272506Y72870D01*
X272495Y72814D01*
X272473Y72748D01*
X272450Y72670D01*
X272417Y72481D01*
X272373Y72259D01*
X272328Y72015D01*
X272306Y71749D01*
X272295Y71460D01*
Y71449D01*
Y71416D01*
Y71360D01*
Y71294D01*
X272306Y71216D01*
Y71116D01*
X272317Y71005D01*
X272328Y70883D01*
X272362Y70616D01*
X272417Y70328D01*
X272484Y70039D01*
X272572Y69751D01*
Y69740D01*
X272584Y69717D01*
X272606Y69684D01*
X272628Y69629D01*
X272695Y69495D01*
X272794Y69340D01*
X272917Y69162D01*
X273072Y68974D01*
X273250Y68807D01*
X273461Y68652D01*
X273472D01*
X273494Y68641D01*
X273527Y68618D01*
X273571Y68596D01*
X273627Y68574D01*
X273694Y68541D01*
X273849Y68474D01*
X274049Y68408D01*
X274271Y68352D01*
X274515Y68308D01*
X274770Y68297D01*
X274848D01*
X274915Y68308D01*
X274992D01*
X275070Y68319D01*
X275270Y68363D01*
X275503Y68419D01*
X275736Y68507D01*
X275980Y68630D01*
X276102Y68696D01*
X276213Y68785D01*
X276224Y68796D01*
X276236Y68807D01*
X276269Y68840D01*
X276313Y68874D01*
X276358Y68929D01*
X276413Y68996D01*
X276480Y69062D01*
X276535Y69151D01*
X276602Y69251D01*
X276679Y69362D01*
X276746Y69473D01*
X276813Y69606D01*
X276868Y69751D01*
X276924Y69906D01*
X276979Y70073D01*
X277024Y70250D01*
X278045Y69995D01*
Y69984D01*
X278034Y69939D01*
X278011Y69873D01*
X277978Y69784D01*
X277945Y69684D01*
X277900Y69562D01*
X277845Y69429D01*
X277778Y69285D01*
X277623Y68974D01*
X277423Y68663D01*
X277301Y68507D01*
X277179Y68352D01*
X277046Y68219D01*
X276890Y68086D01*
X276879Y68075D01*
X276857Y68052D01*
X276802Y68030D01*
X276746Y67986D01*
X276657Y67930D01*
X276569Y67875D01*
X276446Y67819D01*
X276324Y67764D01*
X276180Y67697D01*
X276025Y67642D01*
X275858Y67586D01*
X275681Y67531D01*
X275492Y67486D01*
X275292Y67464D01*
X275081Y67442D01*
X274859Y67431D01*
X274737D01*
X274648Y67442D01*
X274548D01*
X274426Y67453D01*
X274293Y67475D01*
X274138Y67497D01*
X273816Y67553D01*
X273483Y67642D01*
X273150Y67764D01*
X272994Y67842D01*
X272839Y67930D01*
X272828Y67941D01*
X272806Y67952D01*
X272761Y67986D01*
X272717Y68030D01*
X272650Y68075D01*
X272572Y68141D01*
X272484Y68219D01*
X272395Y68308D01*
X272306Y68408D01*
X272206Y68507D01*
X272006Y68763D01*
X271818Y69062D01*
X271651Y69395D01*
Y69407D01*
X271629Y69440D01*
X271618Y69495D01*
X271585Y69562D01*
X271562Y69651D01*
X271529Y69762D01*
X271485Y69884D01*
X271451Y70017D01*
X271418Y70161D01*
X271374Y70328D01*
X271318Y70672D01*
X271274Y71060D01*
X271252Y71460D01*
Y71471D01*
Y71515D01*
Y71582D01*
X271263Y71660D01*
Y71771D01*
X271274Y71882D01*
X271285Y72026D01*
X271307Y72170D01*
X271363Y72492D01*
X271440Y72847D01*
X271551Y73203D01*
X271707Y73547D01*
X271718Y73558D01*
X271729Y73591D01*
X271751Y73636D01*
X271796Y73691D01*
X271840Y73769D01*
X271895Y73858D01*
X272040Y74057D01*
X272228Y74279D01*
X272450Y74501D01*
X272706Y74723D01*
X273005Y74912D01*
X273016Y74923D01*
X273050Y74934D01*
X273094Y74956D01*
X273150Y74990D01*
X273239Y75023D01*
X273327Y75056D01*
X273438Y75101D01*
X273560Y75145D01*
X273694Y75190D01*
X273838Y75234D01*
X274149Y75301D01*
X274504Y75356D01*
X274870Y75378D01*
X274981D01*
X275059Y75367D01*
D02*
G37*
G36*
X281641Y75267D02*
X281730Y75256D01*
X281841Y75245D01*
X281963Y75223D01*
X282085Y75201D01*
X282374Y75123D01*
X282662Y75012D01*
X282806Y74945D01*
X282951Y74868D01*
X283084Y74768D01*
X283206Y74657D01*
X283217Y74646D01*
X283239Y74635D01*
X283262Y74590D01*
X283306Y74546D01*
X283361Y74490D01*
X283417Y74413D01*
X283472Y74335D01*
X283539Y74235D01*
X283650Y74024D01*
X283761Y73758D01*
X283806Y73625D01*
X283828Y73469D01*
X283850Y73314D01*
X283861Y73147D01*
Y73125D01*
Y73070D01*
X283850Y72981D01*
X283839Y72859D01*
X283817Y72725D01*
X283772Y72570D01*
X283728Y72403D01*
X283661Y72237D01*
X283650Y72215D01*
X283628Y72159D01*
X283584Y72070D01*
X283517Y71948D01*
X283428Y71815D01*
X283317Y71649D01*
X283184Y71482D01*
X283029Y71294D01*
X283006Y71271D01*
X282951Y71205D01*
X282895Y71149D01*
X282840Y71094D01*
X282773Y71027D01*
X282684Y70938D01*
X282596Y70849D01*
X282485Y70750D01*
X282374Y70639D01*
X282241Y70517D01*
X282096Y70394D01*
X281941Y70250D01*
X281763Y70106D01*
X281586Y69950D01*
X281574Y69939D01*
X281552Y69917D01*
X281508Y69884D01*
X281452Y69840D01*
X281386Y69773D01*
X281308Y69706D01*
X281131Y69562D01*
X280942Y69395D01*
X280764Y69229D01*
X280609Y69085D01*
X280542Y69029D01*
X280487Y68974D01*
X280476Y68963D01*
X280442Y68929D01*
X280398Y68885D01*
X280342Y68818D01*
X280287Y68741D01*
X280220Y68663D01*
X280087Y68474D01*
X283872D01*
Y67564D01*
X278777D01*
Y67575D01*
Y67620D01*
Y67686D01*
X278788Y67775D01*
X278799Y67875D01*
X278822Y67986D01*
X278844Y68097D01*
X278888Y68219D01*
Y68230D01*
X278899Y68241D01*
X278922Y68308D01*
X278966Y68408D01*
X279033Y68541D01*
X279121Y68696D01*
X279232Y68874D01*
X279354Y69051D01*
X279510Y69240D01*
Y69251D01*
X279532Y69262D01*
X279588Y69329D01*
X279688Y69429D01*
X279832Y69573D01*
X279998Y69740D01*
X280209Y69939D01*
X280464Y70161D01*
X280742Y70394D01*
X280753Y70406D01*
X280798Y70439D01*
X280864Y70494D01*
X280942Y70561D01*
X281042Y70650D01*
X281164Y70750D01*
X281286Y70861D01*
X281430Y70983D01*
X281708Y71249D01*
X281985Y71515D01*
X282118Y71649D01*
X282241Y71782D01*
X282351Y71904D01*
X282440Y72026D01*
Y72037D01*
X282463Y72048D01*
X282485Y72082D01*
X282507Y72126D01*
X282585Y72248D01*
X282673Y72392D01*
X282751Y72570D01*
X282829Y72759D01*
X282873Y72970D01*
X282895Y73169D01*
Y73180D01*
Y73192D01*
X282884Y73258D01*
X282873Y73369D01*
X282840Y73491D01*
X282795Y73647D01*
X282718Y73802D01*
X282618Y73958D01*
X282485Y74113D01*
X282463Y74135D01*
X282407Y74180D01*
X282329Y74235D01*
X282207Y74313D01*
X282052Y74379D01*
X281874Y74446D01*
X281663Y74490D01*
X281430Y74501D01*
X281364D01*
X281319Y74490D01*
X281186Y74479D01*
X281031Y74446D01*
X280864Y74401D01*
X280675Y74324D01*
X280498Y74224D01*
X280331Y74091D01*
X280309Y74068D01*
X280265Y74013D01*
X280198Y73924D01*
X280131Y73791D01*
X280054Y73636D01*
X279987Y73436D01*
X279943Y73214D01*
X279921Y72958D01*
X278955Y73058D01*
Y73070D01*
X278966Y73103D01*
Y73158D01*
X278977Y73236D01*
X278999Y73325D01*
X279021Y73425D01*
X279055Y73547D01*
X279088Y73669D01*
X279177Y73935D01*
X279310Y74202D01*
X279388Y74335D01*
X279488Y74468D01*
X279588Y74590D01*
X279699Y74701D01*
X279710Y74712D01*
X279732Y74723D01*
X279765Y74757D01*
X279821Y74790D01*
X279887Y74834D01*
X279965Y74879D01*
X280054Y74934D01*
X280165Y74990D01*
X280287Y75045D01*
X280420Y75101D01*
X280564Y75145D01*
X280720Y75190D01*
X280886Y75223D01*
X281064Y75256D01*
X281253Y75267D01*
X281452Y75278D01*
X281563D01*
X281641Y75267D01*
D02*
G37*
G36*
X269753Y67564D02*
X268732D01*
Y75245D01*
X269753D01*
Y67564D01*
D02*
G37*
G36*
X148062Y72543D02*
X148162Y72531D01*
X148284Y72520D01*
X148406Y72509D01*
X148550Y72476D01*
X148850Y72409D01*
X149183Y72309D01*
X149349Y72243D01*
X149505Y72165D01*
X149660Y72065D01*
X149816Y71965D01*
X149827Y71954D01*
X149849Y71943D01*
X149893Y71910D01*
X149949Y71854D01*
X150004Y71799D01*
X150082Y71721D01*
X150160Y71632D01*
X150248Y71544D01*
X150337Y71433D01*
X150426Y71300D01*
X150526Y71166D01*
X150615Y71022D01*
X150693Y70855D01*
X150781Y70689D01*
X150848Y70511D01*
X150914Y70312D01*
X149916Y70079D01*
Y70090D01*
X149904Y70112D01*
X149882Y70156D01*
X149860Y70212D01*
X149838Y70278D01*
X149804Y70367D01*
X149716Y70545D01*
X149605Y70745D01*
X149472Y70944D01*
X149305Y71133D01*
X149127Y71300D01*
X149105Y71322D01*
X149039Y71366D01*
X148928Y71421D01*
X148783Y71499D01*
X148595Y71566D01*
X148384Y71632D01*
X148128Y71677D01*
X147851Y71688D01*
X147762D01*
X147707Y71677D01*
X147629D01*
X147540Y71666D01*
X147329Y71632D01*
X147096Y71588D01*
X146852Y71510D01*
X146597Y71399D01*
X146364Y71255D01*
X146353D01*
X146341Y71233D01*
X146264Y71177D01*
X146164Y71089D01*
X146042Y70955D01*
X145897Y70789D01*
X145764Y70600D01*
X145642Y70367D01*
X145531Y70112D01*
Y70101D01*
X145520Y70079D01*
X145509Y70045D01*
X145498Y69990D01*
X145476Y69923D01*
X145453Y69845D01*
X145420Y69657D01*
X145376Y69435D01*
X145331Y69191D01*
X145309Y68924D01*
X145298Y68636D01*
Y68624D01*
Y68591D01*
Y68536D01*
Y68469D01*
X145309Y68391D01*
Y68291D01*
X145320Y68180D01*
X145331Y68058D01*
X145365Y67792D01*
X145420Y67503D01*
X145487Y67215D01*
X145576Y66926D01*
Y66915D01*
X145587Y66893D01*
X145609Y66859D01*
X145631Y66804D01*
X145698Y66671D01*
X145798Y66515D01*
X145920Y66338D01*
X146075Y66149D01*
X146253Y65983D01*
X146463Y65827D01*
X146475D01*
X146497Y65816D01*
X146530Y65794D01*
X146574Y65772D01*
X146630Y65750D01*
X146697Y65716D01*
X146852Y65650D01*
X147052Y65583D01*
X147274Y65528D01*
X147518Y65483D01*
X147773Y65472D01*
X147851D01*
X147917Y65483D01*
X147995D01*
X148073Y65494D01*
X148273Y65539D01*
X148506Y65594D01*
X148739Y65683D01*
X148983Y65805D01*
X149105Y65872D01*
X149216Y65960D01*
X149227Y65971D01*
X149238Y65983D01*
X149272Y66016D01*
X149316Y66049D01*
X149361Y66105D01*
X149416Y66171D01*
X149483Y66238D01*
X149538Y66327D01*
X149605Y66427D01*
X149682Y66538D01*
X149749Y66649D01*
X149816Y66782D01*
X149871Y66926D01*
X149927Y67081D01*
X149982Y67248D01*
X150027Y67426D01*
X151048Y67170D01*
Y67159D01*
X151037Y67115D01*
X151014Y67048D01*
X150981Y66959D01*
X150948Y66859D01*
X150903Y66737D01*
X150848Y66604D01*
X150781Y66460D01*
X150626Y66149D01*
X150426Y65838D01*
X150304Y65683D01*
X150182Y65528D01*
X150049Y65394D01*
X149893Y65261D01*
X149882Y65250D01*
X149860Y65228D01*
X149804Y65206D01*
X149749Y65161D01*
X149660Y65106D01*
X149571Y65050D01*
X149449Y64995D01*
X149327Y64939D01*
X149183Y64873D01*
X149028Y64817D01*
X148861Y64762D01*
X148683Y64706D01*
X148495Y64662D01*
X148295Y64640D01*
X148084Y64617D01*
X147862Y64606D01*
X147740D01*
X147651Y64617D01*
X147551D01*
X147429Y64629D01*
X147296Y64651D01*
X147141Y64673D01*
X146819Y64728D01*
X146486Y64817D01*
X146153Y64939D01*
X145997Y65017D01*
X145842Y65106D01*
X145831Y65117D01*
X145809Y65128D01*
X145764Y65161D01*
X145720Y65206D01*
X145653Y65250D01*
X145576Y65317D01*
X145487Y65394D01*
X145398Y65483D01*
X145309Y65583D01*
X145209Y65683D01*
X145009Y65938D01*
X144821Y66238D01*
X144654Y66571D01*
Y66582D01*
X144632Y66615D01*
X144621Y66671D01*
X144588Y66737D01*
X144565Y66826D01*
X144532Y66937D01*
X144488Y67059D01*
X144454Y67193D01*
X144421Y67337D01*
X144377Y67503D01*
X144321Y67847D01*
X144277Y68236D01*
X144255Y68636D01*
Y68647D01*
Y68691D01*
Y68758D01*
X144266Y68835D01*
Y68946D01*
X144277Y69057D01*
X144288Y69202D01*
X144310Y69346D01*
X144366Y69668D01*
X144443Y70023D01*
X144554Y70378D01*
X144710Y70722D01*
X144721Y70733D01*
X144732Y70767D01*
X144754Y70811D01*
X144798Y70867D01*
X144843Y70944D01*
X144898Y71033D01*
X145043Y71233D01*
X145231Y71455D01*
X145453Y71677D01*
X145709Y71899D01*
X146008Y72087D01*
X146019Y72099D01*
X146053Y72110D01*
X146097Y72132D01*
X146153Y72165D01*
X146242Y72199D01*
X146330Y72232D01*
X146441Y72276D01*
X146563Y72321D01*
X146697Y72365D01*
X146841Y72409D01*
X147152Y72476D01*
X147507Y72531D01*
X147873Y72554D01*
X147984D01*
X148062Y72543D01*
D02*
G37*
G36*
X155465Y64739D02*
X154522D01*
Y70745D01*
X154511Y70733D01*
X154455Y70689D01*
X154389Y70622D01*
X154278Y70545D01*
X154156Y70445D01*
X154000Y70334D01*
X153823Y70212D01*
X153623Y70090D01*
X153612D01*
X153601Y70079D01*
X153534Y70034D01*
X153423Y69979D01*
X153290Y69912D01*
X153134Y69834D01*
X152968Y69757D01*
X152801Y69679D01*
X152635Y69612D01*
Y70522D01*
X152646D01*
X152668Y70545D01*
X152713Y70556D01*
X152768Y70589D01*
X152835Y70622D01*
X152912Y70667D01*
X153101Y70778D01*
X153323Y70900D01*
X153545Y71055D01*
X153778Y71233D01*
X154011Y71421D01*
X154022Y71433D01*
X154033Y71444D01*
X154067Y71477D01*
X154111Y71510D01*
X154211Y71621D01*
X154344Y71754D01*
X154478Y71910D01*
X154622Y72087D01*
X154744Y72265D01*
X154855Y72454D01*
X155465D01*
Y64739D01*
D02*
G37*
G36*
X106717Y15393D02*
X106817Y15381D01*
X106939Y15370D01*
X107061Y15359D01*
X107205Y15326D01*
X107505Y15259D01*
X107838Y15159D01*
X108005Y15093D01*
X108160Y15015D01*
X108315Y14915D01*
X108471Y14815D01*
X108482Y14804D01*
X108504Y14793D01*
X108548Y14760D01*
X108604Y14704D01*
X108659Y14649D01*
X108737Y14571D01*
X108815Y14482D01*
X108904Y14394D01*
X108993Y14283D01*
X109081Y14150D01*
X109181Y14016D01*
X109270Y13872D01*
X109348Y13706D01*
X109437Y13539D01*
X109503Y13361D01*
X109570Y13162D01*
X108571Y12929D01*
Y12940D01*
X108560Y12962D01*
X108537Y13006D01*
X108515Y13062D01*
X108493Y13128D01*
X108460Y13217D01*
X108371Y13395D01*
X108260Y13594D01*
X108127Y13794D01*
X107960Y13983D01*
X107783Y14150D01*
X107760Y14172D01*
X107694Y14216D01*
X107583Y14272D01*
X107438Y14349D01*
X107250Y14416D01*
X107039Y14482D01*
X106784Y14527D01*
X106506Y14538D01*
X106417D01*
X106362Y14527D01*
X106284D01*
X106195Y14516D01*
X105984Y14482D01*
X105751Y14438D01*
X105507Y14360D01*
X105252Y14249D01*
X105019Y14105D01*
X105008D01*
X104997Y14083D01*
X104919Y14027D01*
X104819Y13939D01*
X104697Y13805D01*
X104552Y13639D01*
X104419Y13450D01*
X104297Y13217D01*
X104186Y12962D01*
Y12951D01*
X104175Y12929D01*
X104164Y12895D01*
X104153Y12840D01*
X104131Y12773D01*
X104109Y12695D01*
X104075Y12507D01*
X104031Y12285D01*
X103987Y12040D01*
X103964Y11774D01*
X103953Y11486D01*
Y11474D01*
Y11441D01*
Y11386D01*
Y11319D01*
X103964Y11241D01*
Y11141D01*
X103975Y11030D01*
X103987Y10908D01*
X104020Y10642D01*
X104075Y10353D01*
X104142Y10065D01*
X104231Y9776D01*
Y9765D01*
X104242Y9743D01*
X104264Y9710D01*
X104286Y9654D01*
X104353Y9521D01*
X104453Y9365D01*
X104575Y9188D01*
X104730Y8999D01*
X104908Y8833D01*
X105119Y8677D01*
X105130D01*
X105152Y8666D01*
X105185Y8644D01*
X105230Y8622D01*
X105285Y8600D01*
X105352Y8566D01*
X105507Y8500D01*
X105707Y8433D01*
X105929Y8378D01*
X106173Y8333D01*
X106428Y8322D01*
X106506D01*
X106573Y8333D01*
X106650D01*
X106728Y8344D01*
X106928Y8389D01*
X107161Y8444D01*
X107394Y8533D01*
X107638Y8655D01*
X107760Y8722D01*
X107871Y8810D01*
X107882Y8821D01*
X107894Y8833D01*
X107927Y8866D01*
X107971Y8899D01*
X108016Y8955D01*
X108071Y9021D01*
X108138Y9088D01*
X108193Y9177D01*
X108260Y9277D01*
X108338Y9388D01*
X108404Y9499D01*
X108471Y9632D01*
X108526Y9776D01*
X108582Y9931D01*
X108637Y10098D01*
X108682Y10276D01*
X109703Y10020D01*
Y10009D01*
X109692Y9965D01*
X109670Y9898D01*
X109636Y9809D01*
X109603Y9710D01*
X109559Y9587D01*
X109503Y9454D01*
X109437Y9310D01*
X109281Y8999D01*
X109081Y8688D01*
X108959Y8533D01*
X108837Y8378D01*
X108704Y8244D01*
X108548Y8111D01*
X108537Y8100D01*
X108515Y8078D01*
X108460Y8056D01*
X108404Y8011D01*
X108315Y7956D01*
X108227Y7900D01*
X108104Y7845D01*
X107982Y7789D01*
X107838Y7723D01*
X107683Y7667D01*
X107516Y7612D01*
X107339Y7556D01*
X107150Y7512D01*
X106950Y7490D01*
X106739Y7467D01*
X106517Y7456D01*
X106395D01*
X106306Y7467D01*
X106206D01*
X106084Y7479D01*
X105951Y7501D01*
X105796Y7523D01*
X105474Y7578D01*
X105141Y7667D01*
X104808Y7789D01*
X104652Y7867D01*
X104497Y7956D01*
X104486Y7967D01*
X104464Y7978D01*
X104419Y8011D01*
X104375Y8056D01*
X104308Y8100D01*
X104231Y8167D01*
X104142Y8244D01*
X104053Y8333D01*
X103964Y8433D01*
X103864Y8533D01*
X103665Y8788D01*
X103476Y9088D01*
X103309Y9421D01*
Y9432D01*
X103287Y9465D01*
X103276Y9521D01*
X103243Y9587D01*
X103221Y9676D01*
X103187Y9787D01*
X103143Y9909D01*
X103110Y10043D01*
X103076Y10187D01*
X103032Y10353D01*
X102976Y10697D01*
X102932Y11086D01*
X102910Y11486D01*
Y11497D01*
Y11541D01*
Y11608D01*
X102921Y11685D01*
Y11796D01*
X102932Y11907D01*
X102943Y12052D01*
X102965Y12196D01*
X103021Y12518D01*
X103098Y12873D01*
X103209Y13228D01*
X103365Y13572D01*
X103376Y13583D01*
X103387Y13617D01*
X103409Y13661D01*
X103454Y13717D01*
X103498Y13794D01*
X103554Y13883D01*
X103698Y14083D01*
X103887Y14305D01*
X104109Y14527D01*
X104364Y14749D01*
X104663Y14937D01*
X104675Y14949D01*
X104708Y14960D01*
X104752Y14982D01*
X104808Y15015D01*
X104897Y15049D01*
X104985Y15082D01*
X105096Y15126D01*
X105218Y15171D01*
X105352Y15215D01*
X105496Y15259D01*
X105807Y15326D01*
X106162Y15381D01*
X106528Y15404D01*
X106639D01*
X106717Y15393D01*
D02*
G37*
G36*
X113299Y15293D02*
X113388Y15282D01*
X113499Y15271D01*
X113621Y15248D01*
X113743Y15226D01*
X114032Y15148D01*
X114320Y15037D01*
X114465Y14971D01*
X114609Y14893D01*
X114742Y14793D01*
X114864Y14682D01*
X114875Y14671D01*
X114898Y14660D01*
X114920Y14616D01*
X114964Y14571D01*
X115020Y14516D01*
X115075Y14438D01*
X115131Y14360D01*
X115197Y14260D01*
X115308Y14050D01*
X115419Y13783D01*
X115464Y13650D01*
X115486Y13495D01*
X115508Y13339D01*
X115519Y13173D01*
Y13151D01*
Y13095D01*
X115508Y13006D01*
X115497Y12884D01*
X115475Y12751D01*
X115430Y12595D01*
X115386Y12429D01*
X115319Y12263D01*
X115308Y12240D01*
X115286Y12185D01*
X115242Y12096D01*
X115175Y11974D01*
X115086Y11841D01*
X114975Y11674D01*
X114842Y11508D01*
X114687Y11319D01*
X114664Y11297D01*
X114609Y11230D01*
X114553Y11175D01*
X114498Y11119D01*
X114431Y11053D01*
X114343Y10964D01*
X114254Y10875D01*
X114143Y10775D01*
X114032Y10664D01*
X113899Y10542D01*
X113754Y10420D01*
X113599Y10276D01*
X113421Y10131D01*
X113244Y9976D01*
X113233Y9965D01*
X113210Y9943D01*
X113166Y9909D01*
X113111Y9865D01*
X113044Y9798D01*
X112966Y9732D01*
X112789Y9587D01*
X112600Y9421D01*
X112422Y9254D01*
X112267Y9110D01*
X112200Y9055D01*
X112145Y8999D01*
X112134Y8988D01*
X112100Y8955D01*
X112056Y8910D01*
X112001Y8844D01*
X111945Y8766D01*
X111878Y8688D01*
X111745Y8500D01*
X115530D01*
Y7589D01*
X110435D01*
Y7601D01*
Y7645D01*
Y7712D01*
X110447Y7800D01*
X110458Y7900D01*
X110480Y8011D01*
X110502Y8122D01*
X110546Y8244D01*
Y8256D01*
X110557Y8267D01*
X110580Y8333D01*
X110624Y8433D01*
X110691Y8566D01*
X110779Y8722D01*
X110891Y8899D01*
X111013Y9077D01*
X111168Y9265D01*
Y9277D01*
X111190Y9288D01*
X111246Y9354D01*
X111346Y9454D01*
X111490Y9599D01*
X111656Y9765D01*
X111867Y9965D01*
X112123Y10187D01*
X112400Y10420D01*
X112411Y10431D01*
X112456Y10464D01*
X112522Y10520D01*
X112600Y10586D01*
X112700Y10675D01*
X112822Y10775D01*
X112944Y10886D01*
X113088Y11008D01*
X113366Y11275D01*
X113643Y11541D01*
X113777Y11674D01*
X113899Y11807D01*
X114010Y11930D01*
X114098Y12052D01*
Y12063D01*
X114121Y12074D01*
X114143Y12107D01*
X114165Y12151D01*
X114243Y12274D01*
X114332Y12418D01*
X114409Y12595D01*
X114487Y12784D01*
X114531Y12995D01*
X114553Y13195D01*
Y13206D01*
Y13217D01*
X114542Y13284D01*
X114531Y13395D01*
X114498Y13517D01*
X114454Y13672D01*
X114376Y13828D01*
X114276Y13983D01*
X114143Y14138D01*
X114121Y14161D01*
X114065Y14205D01*
X113987Y14260D01*
X113865Y14338D01*
X113710Y14405D01*
X113532Y14471D01*
X113321Y14516D01*
X113088Y14527D01*
X113022D01*
X112977Y14516D01*
X112844Y14505D01*
X112689Y14471D01*
X112522Y14427D01*
X112333Y14349D01*
X112156Y14249D01*
X111989Y14116D01*
X111967Y14094D01*
X111923Y14038D01*
X111856Y13950D01*
X111790Y13816D01*
X111712Y13661D01*
X111645Y13461D01*
X111601Y13239D01*
X111579Y12984D01*
X110613Y13084D01*
Y13095D01*
X110624Y13128D01*
Y13184D01*
X110635Y13261D01*
X110657Y13350D01*
X110680Y13450D01*
X110713Y13572D01*
X110746Y13694D01*
X110835Y13961D01*
X110968Y14227D01*
X111046Y14360D01*
X111146Y14493D01*
X111246Y14616D01*
X111357Y14727D01*
X111368Y14738D01*
X111390Y14749D01*
X111423Y14782D01*
X111479Y14815D01*
X111545Y14860D01*
X111623Y14904D01*
X111712Y14960D01*
X111823Y15015D01*
X111945Y15071D01*
X112078Y15126D01*
X112222Y15171D01*
X112378Y15215D01*
X112544Y15248D01*
X112722Y15282D01*
X112911Y15293D01*
X113111Y15304D01*
X113222D01*
X113299Y15293D01*
D02*
G37*
%LPC*%
G36*
X107941Y72819D02*
X105521D01*
Y70277D01*
X107808D01*
X107941Y70289D01*
X108096Y70300D01*
X108274Y70311D01*
X108451Y70333D01*
X108629Y70366D01*
X108785Y70411D01*
X108807Y70422D01*
X108851Y70444D01*
X108918Y70477D01*
X109007Y70522D01*
X109106Y70588D01*
X109206Y70666D01*
X109306Y70766D01*
X109384Y70877D01*
X109395Y70888D01*
X109417Y70932D01*
X109451Y70999D01*
X109495Y71088D01*
X109528Y71188D01*
X109562Y71298D01*
X109584Y71432D01*
X109595Y71565D01*
Y71576D01*
Y71587D01*
X109584Y71654D01*
X109573Y71754D01*
X109550Y71887D01*
X109495Y72020D01*
X109428Y72175D01*
X109328Y72320D01*
X109195Y72464D01*
X109173Y72475D01*
X109117Y72519D01*
X109029Y72575D01*
X108884Y72642D01*
X108718Y72708D01*
X108496Y72764D01*
X108241Y72808D01*
X107941Y72819D01*
D02*
G37*
G36*
X147146Y13129D02*
X144726D01*
Y10587D01*
X147013D01*
X147146Y10598D01*
X147302Y10610D01*
X147479Y10621D01*
X147657Y10643D01*
X147834Y10676D01*
X147990Y10721D01*
X148012Y10732D01*
X148056Y10754D01*
X148123Y10787D01*
X148212Y10832D01*
X148312Y10898D01*
X148412Y10976D01*
X148511Y11076D01*
X148589Y11187D01*
X148600Y11198D01*
X148622Y11242D01*
X148656Y11309D01*
X148700Y11398D01*
X148733Y11497D01*
X148767Y11609D01*
X148789Y11742D01*
X148800Y11875D01*
Y11886D01*
Y11897D01*
X148789Y11964D01*
X148778Y12064D01*
X148756Y12197D01*
X148700Y12330D01*
X148633Y12485D01*
X148534Y12630D01*
X148400Y12774D01*
X148378Y12785D01*
X148323Y12830D01*
X148234Y12885D01*
X148090Y12952D01*
X147923Y13018D01*
X147701Y13074D01*
X147446Y13118D01*
X147146Y13129D01*
D02*
G37*
%LPD*%
D10*
X191103Y15496D02*
G03*
X191103Y15496I-1999J0D01*
G01*
D11*
X194503Y60809D02*
Y71097D01*
X209691D01*
X194503Y8597D02*
X210503D01*
X194503D02*
Y19185D01*
X249003Y32497D02*
Y47697D01*
D12*
X286500Y55100D02*
Y58250D01*
X315500D01*
X272846Y58034D02*
X275346D01*
X315500Y55100D02*
Y58250D01*
Y22000D02*
Y24900D01*
X286500Y22000D02*
X315500D01*
X286500D02*
Y24900D01*
X34500Y55100D02*
Y58250D01*
X63500D01*
X20846Y58034D02*
X23346D01*
X63500Y55100D02*
Y58250D01*
Y22000D02*
Y24900D01*
X34500Y22000D02*
X63500D01*
X34500D02*
Y24900D01*
D13*
X110000Y49750D02*
Y60250D01*
X150000Y19750D02*
Y30250D01*
M02*
