G04*
G04 #@! TF.GenerationSoftware,Altium Limited,Altium Designer,24.9.1 (31)*
G04*
G04 Layer_Color=32768*
%FSLAX44Y44*%
%MOMM*%
G71*
G04*
G04 #@! TF.SameCoordinates,0EA0C4F9-9699-4FEE-9EE7-DB85143A2A43*
G04*
G04*
G04 #@! TF.FilePolarity,Positive*
G04*
G01*
G75*
%ADD31C,0.1000*%
%ADD32C,0.0500*%
%ADD33C,0.0508*%
G36*
X247503Y54997D02*
X219503D01*
Y69997D01*
X247503D01*
Y54997D01*
D02*
G37*
G36*
X199703Y53248D02*
X184703D01*
Y56748D01*
X199703D01*
Y53248D01*
D02*
G37*
G36*
Y43248D02*
X184703D01*
Y46748D01*
X199703D01*
Y43248D01*
D02*
G37*
G36*
Y33245D02*
X184703D01*
Y36746D01*
X199703D01*
Y33245D01*
D02*
G37*
G36*
Y23245D02*
X184703D01*
Y26746D01*
X199703D01*
Y23245D01*
D02*
G37*
G36*
X247503Y9997D02*
X219503D01*
Y24997D01*
X247503D01*
Y9997D01*
D02*
G37*
G36*
X184702Y10596D02*
X184951Y10596D01*
X185302Y10244D01*
X185301Y9747D01*
X184949Y9396D01*
X184701Y9396D01*
X184452Y9396D01*
X184101Y9748D01*
X184102Y10245D01*
X184453Y10597D01*
X184702Y10596D01*
D02*
G37*
D31*
X140000Y48750D02*
Y61250D01*
Y48750D02*
X160000D01*
Y61250D01*
X140000D02*
X160000D01*
X100000Y18750D02*
Y31250D01*
Y18750D02*
X120000D01*
Y31250D01*
X100000D02*
X120000D01*
D32*
X303500Y40000D02*
G03*
X303500Y40000I-2500J0D01*
G01*
X51500D02*
G03*
X51500Y40000I-2500J0D01*
G01*
X297500D02*
X304500D01*
X301000Y36500D02*
Y43500D01*
X282500Y62000D02*
X319500D01*
X282500Y56850D02*
Y62000D01*
X268900Y56850D02*
X282500D01*
X268900Y23150D02*
Y56850D01*
Y23150D02*
X282500D01*
Y18000D02*
Y23150D01*
Y18000D02*
X319500D01*
Y23150D01*
X333100D01*
Y56850D01*
X319500D02*
X333100D01*
X319500D02*
Y62000D01*
X45500Y40000D02*
X52500D01*
X49000Y36500D02*
Y43500D01*
X30500Y62000D02*
X67500D01*
X30500Y56850D02*
Y62000D01*
X16900Y56850D02*
X30500D01*
X16900Y23150D02*
Y56850D01*
Y23150D02*
X30500D01*
Y18000D02*
Y23150D01*
Y18000D02*
X67500D01*
Y23150D01*
X81100D01*
Y56850D01*
X67500D02*
X81100D01*
X67500D02*
Y62000D01*
X92750Y45000D02*
X127250D01*
X92750D02*
Y65000D01*
X127250D01*
Y45000D02*
Y65000D01*
X132750Y15000D02*
X167250D01*
X132750D02*
Y35000D01*
X167250D01*
Y15000D02*
Y35000D01*
D33*
X194703Y9997D02*
X247703D01*
Y69997D01*
X194703D02*
X247703D01*
X194703Y9997D02*
Y69997D01*
M02*
