G04*
G04 #@! TF.GenerationSoftware,Altium Limited,Altium Designer,24.9.1 (31)*
G04*
G04 Layer_Color=8388736*
%FSLAX44Y44*%
%MOMM*%
G71*
G04*
G04 #@! TF.SameCoordinates,0EA0C4F9-9699-4FEE-9EE7-DB85143A2A43*
G04*
G04*
G04 #@! TF.FilePolarity,Negative*
G04*
G01*
G75*
%ADD19R,4.4016X2.6016*%
%ADD20R,2.6016X0.8016*%
G04:AMPARAMS|DCode=21|XSize=1.2032mm|YSize=0.9732mm|CornerRadius=0.2903mm|HoleSize=0mm|Usage=FLASHONLY|Rotation=0.000|XOffset=0mm|YOffset=0mm|HoleType=Round|Shape=RoundedRectangle|*
%AMROUNDEDRECTD21*
21,1,1.2032,0.3927,0,0,0.0*
21,1,0.6227,0.9732,0,0,0.0*
1,1,0.5805,0.3114,-0.1964*
1,1,0.5805,-0.3114,-0.1964*
1,1,0.5805,-0.3114,0.1964*
1,1,0.5805,0.3114,0.1964*
%
%ADD21ROUNDEDRECTD21*%
%ADD22R,1.1532X1.6532*%
%ADD23R,1.1632X1.5932*%
%ADD24C,0.7032*%
%ADD25C,0.8032*%
D19*
X233503Y17497D02*
D03*
Y62497D02*
D03*
D20*
X190503Y54998D02*
D03*
Y44998D02*
D03*
Y34996D02*
D03*
Y24996D02*
D03*
D21*
X327000Y49000D02*
D03*
Y31000D02*
D03*
X275000Y49000D02*
D03*
Y31000D02*
D03*
X75000Y49000D02*
D03*
Y31000D02*
D03*
X23000Y49000D02*
D03*
Y31000D02*
D03*
D22*
X120000Y55000D02*
D03*
X100000D02*
D03*
X160000Y25000D02*
D03*
X140000D02*
D03*
D23*
X157900Y55000D02*
D03*
X142100D02*
D03*
X117900Y25000D02*
D03*
X102100D02*
D03*
D24*
X167640Y82550D02*
D03*
X182880D02*
D03*
X175260D02*
D03*
D25*
X8890Y30000D02*
D03*
Y50000D02*
D03*
X133350Y25400D02*
D03*
X123190D02*
D03*
X163830Y54610D02*
D03*
X233680Y64770D02*
D03*
X215900Y54610D02*
D03*
X250190D02*
D03*
Y10160D02*
D03*
Y25400D02*
D03*
X217170D02*
D03*
Y10160D02*
D03*
X274893Y57847D02*
D03*
X74930Y59690D02*
D03*
X334010Y49530D02*
D03*
X179070Y24130D02*
D03*
M02*
