G04*
G04 #@! TF.GenerationSoftware,Altium Limited,Altium Designer,24.9.1 (31)*
G04*
G04 Layer_Color=0*
%FSLAX44Y44*%
%MOMM*%
G71*
G04*
G04 #@! TF.SameCoordinates,04FD8115-AAF2-45E8-BBFE-61AFBE82ED08*
G04*
G04*
G04 #@! TF.FilePolarity,Positive*
G04*
G01*
G75*
G36*
X310812Y694335D02*
Y694324D01*
Y694290D01*
Y694246D01*
Y694179D01*
X310800Y694091D01*
Y694002D01*
X310778Y693791D01*
X310756Y693547D01*
X310712Y693291D01*
X310645Y693058D01*
X310567Y692836D01*
Y692825D01*
X310556Y692814D01*
X310523Y692748D01*
X310467Y692659D01*
X310390Y692537D01*
X310279Y692415D01*
X310157Y692281D01*
X310001Y692148D01*
X309824Y692037D01*
X309801Y692026D01*
X309735Y691993D01*
X309635Y691948D01*
X309491Y691904D01*
X309313Y691849D01*
X309113Y691804D01*
X308891Y691771D01*
X308647Y691760D01*
X308547D01*
X308480Y691771D01*
X308392Y691782D01*
X308303Y691793D01*
X308070Y691837D01*
X307826Y691904D01*
X307570Y692004D01*
X307437Y692070D01*
X307315Y692148D01*
X307204Y692237D01*
X307093Y692337D01*
X307082Y692348D01*
X307071Y692359D01*
X307049Y692403D01*
X307015Y692448D01*
X306971Y692503D01*
X306927Y692581D01*
X306882Y692670D01*
X306827Y692770D01*
X306782Y692881D01*
X306738Y693014D01*
X306693Y693147D01*
X306649Y693303D01*
X306627Y693469D01*
X306594Y693658D01*
X306583Y693846D01*
Y694057D01*
X307504Y694191D01*
Y694179D01*
Y694157D01*
Y694113D01*
X307515Y694046D01*
X307526Y693980D01*
Y693902D01*
X307559Y693713D01*
X307593Y693513D01*
X307659Y693314D01*
X307726Y693136D01*
X307770Y693058D01*
X307826Y692992D01*
X307837Y692981D01*
X307881Y692947D01*
X307948Y692892D01*
X308036Y692836D01*
X308159Y692770D01*
X308292Y692725D01*
X308458Y692681D01*
X308636Y692670D01*
X308703D01*
X308769Y692681D01*
X308869Y692692D01*
X308969Y692714D01*
X309080Y692737D01*
X309191Y692781D01*
X309302Y692836D01*
X309313Y692848D01*
X309346Y692870D01*
X309391Y692914D01*
X309457Y692959D01*
X309513Y693036D01*
X309579Y693114D01*
X309635Y693203D01*
X309679Y693314D01*
Y693325D01*
X309701Y693369D01*
X309713Y693447D01*
X309735Y693547D01*
X309757Y693680D01*
X309768Y693846D01*
X309790Y694046D01*
Y694279D01*
Y699574D01*
X310812D01*
Y694335D01*
D02*
G37*
G36*
X316051Y694601D02*
X317094D01*
Y693735D01*
X316051D01*
Y691893D01*
X315107D01*
Y693735D01*
X311766D01*
Y694601D01*
X315285Y699574D01*
X316051D01*
Y694601D01*
D02*
G37*
%LPC*%
G36*
X315107Y698042D02*
X312687Y694601D01*
X315107D01*
Y698042D01*
D02*
G37*
%LPD*%
M02*
