G04*
G04 #@! TF.GenerationSoftware,Altium Limited,Altium Designer,24.9.1 (31)*
G04*
G04 Layer_Physical_Order=2*
G04 Layer_Color=16711680*
%FSLAX44Y44*%
%MOMM*%
G71*
G04*
G04 #@! TF.SameCoordinates,04FD8115-AAF2-45E8-BBFE-61AFBE82ED08*
G04*
G04*
G04 #@! TF.FilePolarity,Positive*
G04*
G01*
G75*
%ADD11C,0.4000*%
%ADD83C,1.0000*%
%ADD84C,0.3000*%
%ADD85C,0.6500*%
%ADD88R,1.5300X1.5300*%
%ADD89C,1.5300*%
%ADD90O,1.7000X2.9000*%
%ADD91R,2.4000X2.4000*%
%ADD92C,2.4000*%
%ADD93C,1.8600*%
%ADD94C,1.0000*%
%ADD95C,0.6000*%
G36*
X474455Y845267D02*
X478774Y844110D01*
X482827Y842220D01*
X486490Y839655D01*
X489652Y836493D01*
X492217Y832830D01*
X494107Y828777D01*
X495264Y824457D01*
X495671Y819814D01*
X495671Y30192D01*
X495264Y25548D01*
X494107Y21229D01*
X492217Y17176D01*
X489652Y13513D01*
X486490Y10351D01*
X482827Y7786D01*
X478774Y5896D01*
X474455Y4739D01*
X469811Y4332D01*
X30189Y4332D01*
X25545Y4739D01*
X21226Y5896D01*
X17173Y7786D01*
X13510Y10351D01*
X10348Y13513D01*
X7783Y17176D01*
X5893Y21229D01*
X4736Y25548D01*
X4330Y30192D01*
X4330Y812076D01*
X9330Y815690D01*
X12645D01*
X16160Y819205D01*
Y820802D01*
X23139Y827780D01*
X24281Y830538D01*
X31012Y837269D01*
X76526D01*
X77655Y836140D01*
X82625D01*
X86140Y839655D01*
Y844625D01*
X86574Y845673D01*
X214869D01*
X216711Y840673D01*
X208877Y832839D01*
X208218Y831248D01*
X207000Y830030D01*
Y828307D01*
X206341Y826716D01*
X207000Y825125D01*
Y823402D01*
X208218Y822184D01*
X208877Y820593D01*
X209450Y818873D01*
X206557Y813948D01*
X205000D01*
X203153Y813183D01*
X202515D01*
X202063Y812732D01*
X200216Y811967D01*
X199452Y810120D01*
X199000Y809668D01*
Y809030D01*
X198235Y807183D01*
X199000Y805336D01*
Y804698D01*
X199452Y804246D01*
X200216Y802400D01*
X202063Y801635D01*
X202515Y801183D01*
X203153D01*
X205000Y800418D01*
X212071D01*
X216854Y802400D01*
X232292Y817838D01*
X378345D01*
X395717Y800466D01*
X397563Y799702D01*
X398015Y799250D01*
X398653D01*
X400500Y798485D01*
X402347Y799250D01*
X402985D01*
X403437Y799702D01*
X405284Y800466D01*
X410103Y800255D01*
X412341Y798974D01*
Y793699D01*
X413000Y792107D01*
Y790385D01*
X414218Y789167D01*
X414877Y787576D01*
X416468Y786917D01*
X417686Y785699D01*
X419409D01*
X421000Y785040D01*
X422591Y785699D01*
X424314D01*
X425532Y786917D01*
X427123Y787576D01*
X427782Y789167D01*
X429000Y790385D01*
Y792107D01*
X429659Y793699D01*
Y804750D01*
X427123Y810873D01*
X397323Y840673D01*
X399165Y845673D01*
X469811D01*
X474455Y845267D01*
D02*
G37*
%LPC*%
G36*
X296560Y707523D02*
X266560D01*
Y677523D01*
X296560D01*
Y707523D01*
D02*
G37*
G36*
X197480Y691920D02*
X188678Y688275D01*
X185032Y679473D01*
Y667473D01*
X188678Y658671D01*
X197480Y655025D01*
X206282Y658671D01*
X209927Y667473D01*
Y679473D01*
X206282Y688275D01*
X197480Y691920D01*
D02*
G37*
G36*
X149480D02*
X140679Y688275D01*
X137033Y679473D01*
Y667473D01*
X140679Y658671D01*
X149480Y655025D01*
X158282Y658671D01*
X161928Y667473D01*
Y679473D01*
X158282Y688275D01*
X149480Y691920D01*
D02*
G37*
G36*
X101481D02*
X92679Y688275D01*
X89033Y679473D01*
Y667473D01*
X92679Y658671D01*
X101481Y655025D01*
X110282Y658671D01*
X113928Y667473D01*
Y679473D01*
X110282Y688275D01*
X101481Y691920D01*
D02*
G37*
G36*
X284046Y603273D02*
X279075D01*
X275560Y599758D01*
Y594788D01*
X276689Y593658D01*
Y576953D01*
X278116Y573509D01*
X286623Y565002D01*
X290067Y563576D01*
X331884D01*
X333013Y562446D01*
X337984D01*
X341498Y565961D01*
Y570932D01*
X343952Y573929D01*
X345170Y575146D01*
X346761Y575806D01*
X347420Y577397D01*
X348638Y578615D01*
Y580337D01*
X349297Y581929D01*
X348638Y583520D01*
Y585242D01*
X347420Y586460D01*
X346761Y588051D01*
X345170Y588711D01*
X343952Y589929D01*
X342229D01*
X340638Y590588D01*
X295782D01*
X295530Y590692D01*
X293976Y590048D01*
X293367Y590033D01*
X292217D01*
X288183Y593070D01*
X287560Y594788D01*
Y599758D01*
X284046Y603273D01*
D02*
G37*
G36*
X284425Y505110D02*
X279455D01*
X275940Y501595D01*
Y496625D01*
X276528Y496037D01*
Y477513D01*
X276528Y477513D01*
X278113Y473686D01*
X295880Y455919D01*
Y455088D01*
X299395Y451573D01*
X304366D01*
X304909Y452116D01*
X338232D01*
X338865Y451483D01*
X343836D01*
X347350Y454998D01*
Y459968D01*
X343836Y463483D01*
X340788D01*
X337812Y466014D01*
X337090Y467748D01*
Y471598D01*
X335186Y473503D01*
X337090Y475408D01*
Y480378D01*
X333576Y483893D01*
X328605D01*
X327476Y482764D01*
X295335D01*
X294206Y483893D01*
X289235D01*
X287352Y484673D01*
Y496037D01*
X287940Y496625D01*
Y501595D01*
X284425Y505110D01*
D02*
G37*
G36*
X381411Y514123D02*
X372589D01*
X366350Y507884D01*
Y499062D01*
X371952Y493459D01*
X372313Y490773D01*
X371952Y488087D01*
X366350Y482484D01*
Y473661D01*
X371952Y468059D01*
X372313Y465373D01*
X371952Y462687D01*
X366350Y457084D01*
Y448261D01*
X371952Y442659D01*
X372313Y439973D01*
X371952Y437286D01*
X366350Y431684D01*
Y422862D01*
X371952Y417259D01*
X372313Y414573D01*
X371952Y411886D01*
X366350Y406284D01*
Y397462D01*
X372589Y391223D01*
X381411D01*
X387650Y397462D01*
Y406284D01*
X382048Y411886D01*
X381687Y414573D01*
X382048Y417259D01*
X387650Y422862D01*
Y431684D01*
X382048Y437286D01*
X381687Y439973D01*
X382048Y442659D01*
X387650Y448261D01*
Y457084D01*
X382048Y462687D01*
X381687Y465373D01*
X382048Y468059D01*
X387650Y473661D01*
Y482484D01*
X382048Y488087D01*
X381687Y490773D01*
X382048Y493459D01*
X387650Y499062D01*
Y507884D01*
X381411Y514123D01*
D02*
G37*
G36*
X133650Y539523D02*
X112350D01*
Y518223D01*
X116416D01*
X117689Y513223D01*
X112350Y507884D01*
Y499062D01*
X117952Y493459D01*
X118313Y490773D01*
X117952Y488087D01*
X112350Y482484D01*
Y473661D01*
X117952Y468059D01*
X118313Y465373D01*
X117952Y462687D01*
X112350Y457084D01*
Y448261D01*
X117952Y442659D01*
X118313Y439973D01*
X117952Y437286D01*
X112350Y431684D01*
Y422862D01*
X117952Y417259D01*
X118313Y414573D01*
X117952Y411886D01*
X112350Y406284D01*
Y397462D01*
X117952Y391859D01*
X118313Y389173D01*
X117952Y386487D01*
X112350Y380884D01*
Y372062D01*
X117952Y366459D01*
X118313Y363773D01*
X117952Y361087D01*
X112350Y355484D01*
Y346661D01*
X117952Y341059D01*
X118313Y338373D01*
X117952Y335686D01*
X112350Y330084D01*
Y321261D01*
X117952Y315659D01*
X118313Y312973D01*
X117952Y310287D01*
X112350Y304684D01*
Y299732D01*
X107350Y297660D01*
X106098Y298912D01*
X106078Y298933D01*
X101107D01*
X97592Y295418D01*
X97592Y295389D01*
Y290448D01*
X101107Y286933D01*
X102704D01*
X105688Y283949D01*
X108756Y282678D01*
X112350Y279284D01*
Y270462D01*
X110860Y266864D01*
X98485D01*
X97356Y267993D01*
X92385D01*
X88870Y264478D01*
Y259508D01*
X92385Y255993D01*
X97356D01*
X98485Y257122D01*
X111009D01*
X112350Y253884D01*
Y245061D01*
X117952Y239459D01*
X118313Y236773D01*
X117952Y234086D01*
X112350Y228484D01*
Y219662D01*
X118589Y213423D01*
X127411D01*
X133650Y219662D01*
Y228484D01*
X128048Y234086D01*
X127687Y236773D01*
X128048Y239459D01*
X133650Y245061D01*
Y247130D01*
X138269Y249044D01*
X149084Y238229D01*
X152528Y236802D01*
X191586D01*
X192715Y235673D01*
X197686D01*
X201200Y239188D01*
Y244158D01*
X198605Y246753D01*
X201200Y249348D01*
Y254318D01*
X198605Y256913D01*
X201200Y259508D01*
Y264478D01*
X197686Y267993D01*
X192715D01*
X192127Y267405D01*
X162714D01*
X162126Y267993D01*
X157155D01*
X156811Y267649D01*
X151811Y269720D01*
Y275709D01*
X150384Y279153D01*
X138700Y290837D01*
X136576Y291717D01*
X133650Y295861D01*
Y304684D01*
X128048Y310287D01*
X127687Y312973D01*
X128048Y315659D01*
X133650Y321261D01*
Y330084D01*
X128048Y335686D01*
X127687Y338373D01*
X128048Y341059D01*
X133650Y346661D01*
Y355484D01*
X128048Y361087D01*
X127687Y363773D01*
X128048Y366459D01*
X133650Y372062D01*
Y380884D01*
X128048Y386487D01*
X127687Y389173D01*
X128048Y391859D01*
X133650Y397462D01*
Y406284D01*
X128048Y411886D01*
X127687Y414573D01*
X128048Y417259D01*
X133650Y422862D01*
Y431684D01*
X128048Y437286D01*
X127687Y439973D01*
X128048Y442659D01*
X133650Y448261D01*
Y457084D01*
X128048Y462687D01*
X127687Y465373D01*
X128048Y468059D01*
X133650Y473661D01*
Y482484D01*
X128048Y488087D01*
X127687Y490773D01*
X128048Y493459D01*
X133650Y499062D01*
Y507884D01*
X128311Y513223D01*
X129584Y518223D01*
X133650D01*
Y539523D01*
D02*
G37*
G36*
X471715Y318873D02*
X461525D01*
X454320Y311668D01*
Y301478D01*
X458556Y297243D01*
X461210Y293873D01*
X458556Y290503D01*
X454320Y286268D01*
Y276078D01*
X461525Y268873D01*
X471715D01*
X478920Y276078D01*
Y286268D01*
X474685Y290503D01*
X472030Y293873D01*
X474685Y297243D01*
X478920Y301478D01*
Y311668D01*
X471715Y318873D01*
D02*
G37*
G36*
X37715D02*
X27525D01*
X20320Y311668D01*
Y301478D01*
X24556Y297243D01*
X27210Y293873D01*
X24556Y290503D01*
X20320Y286268D01*
Y276078D01*
X27525Y268873D01*
X37715D01*
X44920Y276078D01*
Y286268D01*
X40685Y290503D01*
X38030Y293873D01*
X40685Y297243D01*
X44920Y301478D01*
Y311668D01*
X37715Y318873D01*
D02*
G37*
G36*
X471715Y242673D02*
X461525D01*
X454320Y235468D01*
Y225278D01*
X461525Y218073D01*
X471715D01*
X478920Y225278D01*
Y235468D01*
X471715Y242673D01*
D02*
G37*
G36*
X37715D02*
X27525D01*
X20320Y235468D01*
Y225278D01*
X27525Y218073D01*
X37715D01*
X44920Y225278D01*
Y235468D01*
X37715Y242673D01*
D02*
G37*
G36*
X455495Y202300D02*
X445305D01*
X441070Y198065D01*
X437700Y195410D01*
X434330Y198065D01*
X430095Y202300D01*
X419905D01*
X412700Y195095D01*
Y184905D01*
X419905Y177700D01*
X430095D01*
X434330Y181935D01*
X437700Y184590D01*
X441070Y181935D01*
X445305Y177700D01*
X455495D01*
X462700Y184905D01*
Y195095D01*
X455495Y202300D01*
D02*
G37*
G36*
X80095D02*
X69905D01*
X65670Y198065D01*
X62300Y195410D01*
X58930Y198065D01*
X54695Y202300D01*
X44505D01*
X37300Y195095D01*
Y184905D01*
X44505Y177700D01*
X54695D01*
X58930Y181935D01*
X62300Y184590D01*
X65670Y181935D01*
X69905Y177700D01*
X80095D01*
X87300Y184905D01*
Y195095D01*
X80095Y202300D01*
D02*
G37*
G36*
X455495Y167300D02*
X445305D01*
X441070Y163065D01*
X437700Y160410D01*
X434330Y163065D01*
X430095Y167300D01*
X419905D01*
X412700Y160095D01*
Y149905D01*
X419905Y142700D01*
X430095D01*
X434330Y146935D01*
X437700Y149590D01*
X441070Y146935D01*
X445305Y142700D01*
X455495D01*
X462700Y149905D01*
Y160095D01*
X455495Y167300D01*
D02*
G37*
G36*
X80095D02*
X69905D01*
X65670Y163065D01*
X62300Y160410D01*
X58930Y163065D01*
X54695Y167300D01*
X44505D01*
X37300Y160095D01*
Y149905D01*
X44505Y142700D01*
X54695D01*
X58930Y146935D01*
X62300Y149590D01*
X65670Y146935D01*
X69905Y142700D01*
X80095D01*
X87300Y149905D01*
Y160095D01*
X80095Y167300D01*
D02*
G37*
G36*
X455495Y132300D02*
X445305D01*
X441070Y128065D01*
X437700Y125410D01*
X434330Y128065D01*
X430095Y132300D01*
X419905D01*
X412700Y125095D01*
Y114905D01*
X419905Y107700D01*
X430095D01*
X434330Y111935D01*
X437700Y114590D01*
X441070Y111935D01*
X445305Y107700D01*
X455495D01*
X462700Y114905D01*
Y125095D01*
X455495Y132300D01*
D02*
G37*
G36*
X80095D02*
X69905D01*
X65670Y128065D01*
X62300Y125410D01*
X58930Y128065D01*
X54695Y132300D01*
X44505D01*
X37300Y125095D01*
Y114905D01*
X44505Y107700D01*
X54695D01*
X58930Y111935D01*
X62300Y114590D01*
X65670Y111935D01*
X69905Y107700D01*
X80095D01*
X87300Y114905D01*
Y125095D01*
X80095Y132300D01*
D02*
G37*
G36*
X381411Y361723D02*
X372589D01*
X366350Y355484D01*
Y346661D01*
X371952Y341059D01*
X372313Y338373D01*
X371952Y335686D01*
X366350Y330084D01*
Y321261D01*
X371952Y315659D01*
X372313Y312973D01*
X371952Y310287D01*
X366350Y304684D01*
Y295861D01*
X371952Y290259D01*
X372313Y287573D01*
X371952Y284886D01*
X366350Y279284D01*
Y270462D01*
X371952Y264859D01*
X372313Y262173D01*
X371952Y259487D01*
X366350Y253884D01*
Y245061D01*
X371952Y239459D01*
X372313Y236773D01*
X371952Y234086D01*
X366350Y228484D01*
Y219662D01*
X371952Y214059D01*
X372313Y211373D01*
X371952Y208687D01*
X366350Y203084D01*
Y194261D01*
X371952Y188659D01*
X372313Y185973D01*
X371952Y183286D01*
X366350Y177684D01*
Y168862D01*
X371952Y163259D01*
X372313Y160573D01*
X371952Y157886D01*
X366350Y152284D01*
Y143462D01*
X371952Y137859D01*
X372313Y135173D01*
X371952Y132486D01*
X366350Y126884D01*
Y118062D01*
X371952Y112459D01*
X372313Y109773D01*
X371952Y107086D01*
X366350Y101484D01*
Y92662D01*
X371952Y87059D01*
X372313Y84373D01*
X371952Y81686D01*
X366350Y76084D01*
Y67262D01*
X372589Y61023D01*
X381411D01*
X387650Y67262D01*
Y76084D01*
X382048Y81686D01*
X381687Y84373D01*
X382048Y87059D01*
X387650Y92662D01*
Y101484D01*
X382048Y107086D01*
X381687Y109773D01*
X382048Y112459D01*
X387650Y118062D01*
Y126884D01*
X382048Y132486D01*
X381687Y135173D01*
X382048Y137859D01*
X387650Y143462D01*
Y152284D01*
X382048Y157886D01*
X381687Y160573D01*
X382048Y163259D01*
X387650Y168862D01*
Y177684D01*
X382048Y183286D01*
X381687Y185973D01*
X382048Y188659D01*
X387650Y194261D01*
Y203084D01*
X382048Y208687D01*
X381687Y211373D01*
X382048Y214059D01*
X387650Y219662D01*
Y228484D01*
X382048Y234086D01*
X381687Y236773D01*
X382048Y239459D01*
X387650Y245061D01*
Y253884D01*
X382048Y259487D01*
X381687Y262173D01*
X382048Y264859D01*
X387650Y270462D01*
Y279284D01*
X382048Y284886D01*
X381687Y287573D01*
X382048Y290259D01*
X387650Y295861D01*
Y304684D01*
X382048Y310287D01*
X381687Y312973D01*
X382048Y315659D01*
X387650Y321261D01*
Y330084D01*
X382048Y335686D01*
X381687Y338373D01*
X382048Y341059D01*
X387650Y346661D01*
Y355484D01*
X381411Y361723D01*
D02*
G37*
G36*
X127411Y183923D02*
X118589D01*
X112350Y177684D01*
Y168862D01*
X117952Y163259D01*
X118313Y160573D01*
X117952Y157886D01*
X112350Y152284D01*
Y143462D01*
X117952Y137859D01*
X118313Y135173D01*
X117952Y132486D01*
X112350Y126884D01*
Y118062D01*
X117952Y112459D01*
X118313Y109773D01*
X117952Y107086D01*
X112350Y101484D01*
Y92662D01*
X117952Y87059D01*
X118313Y84373D01*
X117952Y81686D01*
X112350Y76084D01*
Y67262D01*
X118589Y61023D01*
X127411D01*
X133650Y67262D01*
Y76084D01*
X128048Y81686D01*
X127687Y84373D01*
X128048Y87059D01*
X133650Y92662D01*
Y101484D01*
X128048Y107086D01*
X127687Y109773D01*
X128048Y112459D01*
X133650Y118062D01*
Y126884D01*
X128048Y132486D01*
X127687Y135173D01*
X128048Y137859D01*
X133650Y143462D01*
Y152284D01*
X128048Y157886D01*
X127687Y160573D01*
X128048Y163259D01*
X133650Y168862D01*
Y177684D01*
X127411Y183923D01*
D02*
G37*
%LPD*%
D11*
X281940Y477513D02*
Y496570D01*
Y477513D02*
X301880Y457573D01*
X301925Y457528D01*
X341305D02*
X341350Y457483D01*
X301925Y457528D02*
X341305D01*
X159640Y261993D02*
X195200D01*
D83*
X224137Y835853D02*
X389897D01*
X421000Y793699D02*
Y804750D01*
X389897Y835853D02*
X421000Y804750D01*
X215000Y826716D02*
X224137Y835853D01*
X295530Y582033D02*
X295635Y581929D01*
X340638D01*
D84*
X19694Y831225D02*
Y832840D01*
X10160Y821690D02*
X19694Y831225D01*
X28995Y842140D02*
X80140D01*
X19694Y832840D02*
X28995Y842140D01*
X302632Y469461D02*
X330742D01*
X331090Y469113D01*
X302283Y469810D02*
X302632Y469461D01*
X281560Y576953D02*
Y597273D01*
X290067Y568446D02*
X335498D01*
X281560Y576953D02*
X290067Y568446D01*
X291720Y477893D02*
X331090D01*
X94870Y261993D02*
X132208D01*
X152528Y241673D01*
X195200D01*
X103592Y292933D02*
X109132Y287393D01*
X135256D01*
X146940Y275709D01*
Y260215D02*
Y275709D01*
X155322Y251833D02*
X195200D01*
X146940Y260215D02*
X155322Y251833D01*
D85*
X229490Y824603D02*
X381147D01*
X400500Y805250D01*
X205000Y807183D02*
X212071D01*
X229490Y824603D01*
D88*
X123000Y528873D02*
D03*
D89*
Y503473D02*
D03*
Y478073D02*
D03*
Y452673D02*
D03*
Y427273D02*
D03*
Y401873D02*
D03*
Y376473D02*
D03*
Y351073D02*
D03*
Y325673D02*
D03*
Y300273D02*
D03*
Y274873D02*
D03*
Y249473D02*
D03*
Y224073D02*
D03*
Y198673D02*
D03*
Y173273D02*
D03*
Y147873D02*
D03*
Y122473D02*
D03*
Y97073D02*
D03*
Y71673D02*
D03*
X377000D02*
D03*
Y97073D02*
D03*
Y122473D02*
D03*
Y147873D02*
D03*
Y173273D02*
D03*
Y198673D02*
D03*
Y224073D02*
D03*
Y249473D02*
D03*
Y274873D02*
D03*
Y300273D02*
D03*
Y325673D02*
D03*
Y351073D02*
D03*
Y376473D02*
D03*
Y401873D02*
D03*
Y427273D02*
D03*
Y452673D02*
D03*
Y478073D02*
D03*
Y503473D02*
D03*
Y528873D02*
D03*
D90*
X197480Y673473D02*
D03*
X149480D02*
D03*
X101481D02*
D03*
D91*
X281560Y692523D02*
D03*
D92*
X331560D02*
D03*
D93*
X466620Y306573D02*
D03*
Y281173D02*
D03*
Y255773D02*
D03*
Y230373D02*
D03*
X32620D02*
D03*
Y255773D02*
D03*
Y281173D02*
D03*
Y306573D02*
D03*
X425000Y190000D02*
D03*
X450400D02*
D03*
X475800D02*
D03*
X425000Y120000D02*
D03*
X450400D02*
D03*
X475800D02*
D03*
X425000Y155000D02*
D03*
X450400D02*
D03*
X475800D02*
D03*
X75000Y190000D02*
D03*
X49600D02*
D03*
X24200D02*
D03*
X75000Y155000D02*
D03*
X49600D02*
D03*
X24200D02*
D03*
X75000Y120000D02*
D03*
X49600D02*
D03*
X24200D02*
D03*
D94*
X153897Y131291D02*
D03*
X153060Y330200D02*
D03*
X402590Y572770D02*
D03*
X250000Y811530D02*
D03*
X85000Y60000D02*
D03*
X437770Y215800D02*
D03*
X101600Y793299D02*
D03*
X422000Y826701D02*
D03*
X194564Y768096D02*
D03*
X167386D02*
D03*
X138176D02*
D03*
X421000Y793699D02*
D03*
X296418Y779018D02*
D03*
X304546Y272796D02*
D03*
X337312Y501650D02*
D03*
Y548386D02*
D03*
X60590Y787300D02*
D03*
X32590D02*
D03*
Y832300D02*
D03*
X60590D02*
D03*
X323850Y803910D02*
D03*
X181610D02*
D03*
Y820420D02*
D03*
X215000Y826716D02*
D03*
X439030Y832700D02*
D03*
X467030D02*
D03*
X439030Y787700D02*
D03*
X467030D02*
D03*
X253620Y80383D02*
D03*
Y60063D02*
D03*
X249810Y295013D02*
D03*
Y274693D02*
D03*
X295530Y582033D02*
D03*
X340638Y581929D02*
D03*
X459620Y559833D02*
D03*
X374620Y559828D02*
D03*
X61850Y215800D02*
D03*
X82170Y333113D02*
D03*
X96140Y279773D02*
D03*
X338820Y103243D02*
D03*
X153060D02*
D03*
Y302633D02*
D03*
X338820D02*
D03*
X417450Y300093D02*
D03*
X407290Y287393D02*
D03*
X459360Y371743D02*
D03*
X202820Y500753D02*
D03*
Y463923D02*
D03*
X216560Y447413D02*
D03*
X459360Y478263D02*
D03*
X304420Y813173D02*
D03*
X373000Y790313D02*
D03*
X209170Y424553D02*
D03*
X290450D02*
D03*
Y343273D02*
D03*
X209170D02*
D03*
X290450Y383913D02*
D03*
X209170D02*
D03*
X249814Y423526D02*
D03*
X249810Y343273D02*
D03*
Y385172D02*
D03*
X270130Y363593D02*
D03*
Y404233D02*
D03*
X229490Y363593D02*
D03*
Y404233D02*
D03*
X233300Y188333D02*
D03*
Y147693D02*
D03*
X273940Y188333D02*
D03*
Y147693D02*
D03*
X253620Y169272D02*
D03*
Y127373D02*
D03*
X253624Y207626D02*
D03*
X212980Y168013D02*
D03*
X294260D02*
D03*
X212980Y127373D02*
D03*
X294260D02*
D03*
Y208653D02*
D03*
X212980D02*
D03*
X108100Y573143D02*
D03*
Y602353D02*
D03*
D95*
X281940Y499110D02*
D03*
X10160Y821690D02*
D03*
X80140Y842140D02*
D03*
X400500Y805250D02*
D03*
X205000Y807183D02*
D03*
X273940Y470273D02*
D03*
X341350Y457483D02*
D03*
X331090Y469113D02*
D03*
X301880Y457573D02*
D03*
X302283Y469810D02*
D03*
X259620Y455383D02*
D03*
X281560Y597273D02*
D03*
X335498Y568446D02*
D03*
X254890Y475353D02*
D03*
X244730Y485513D02*
D03*
X254890D02*
D03*
X244730Y475353D02*
D03*
X331090Y477893D02*
D03*
X291720D02*
D03*
X94870Y261993D02*
D03*
X103592Y292933D02*
D03*
X195200Y261993D02*
D03*
X159640D02*
D03*
X195200Y241673D02*
D03*
Y251833D02*
D03*
M02*
