G04*
G04 #@! TF.GenerationSoftware,Altium Limited,Altium Designer,24.9.1 (31)*
G04*
G04 Layer_Physical_Order=1*
G04 Layer_Color=255*
%FSLAX44Y44*%
%MOMM*%
G71*
G04*
G04 #@! TF.SameCoordinates,04FD8115-AAF2-45E8-BBFE-61AFBE82ED08*
G04*
G04*
G04 #@! TF.FilePolarity,Positive*
G04*
G01*
G75*
%ADD11C,0.4000*%
%ADD12C,0.2000*%
%ADD20R,0.9600X1.3900*%
%ADD21R,10.1220X10.0200*%
%ADD22R,1.5110X3.3000*%
%ADD23R,2.0000X2.0000*%
%ADD24R,1.4500X0.9500*%
%ADD25R,2.5000X0.7000*%
%ADD26R,4.3000X2.5000*%
G04:AMPARAMS|DCode=27|XSize=2.601mm|YSize=2.9997mm|CornerRadius=0.6372mm|HoleSize=0mm|Usage=FLASHONLY|Rotation=180.000|XOffset=0mm|YOffset=0mm|HoleType=Round|Shape=RoundedRectangle|*
%AMROUNDEDRECTD27*
21,1,2.6010,1.7253,0,0,180.0*
21,1,1.3265,2.9997,0,0,180.0*
1,1,1.2745,-0.6632,0.8626*
1,1,1.2745,0.6632,0.8626*
1,1,1.2745,0.6632,-0.8626*
1,1,1.2745,-0.6632,-0.8626*
%
%ADD27ROUNDEDRECTD27*%
G04:AMPARAMS|DCode=28|XSize=0.65mm|YSize=2.032mm|CornerRadius=0.1593mm|HoleSize=0mm|Usage=FLASHONLY|Rotation=180.000|XOffset=0mm|YOffset=0mm|HoleType=Round|Shape=RoundedRectangle|*
%AMROUNDEDRECTD28*
21,1,0.6500,1.7135,0,0,180.0*
21,1,0.3315,2.0320,0,0,180.0*
1,1,0.3185,-0.1658,0.8568*
1,1,0.3185,0.1658,0.8568*
1,1,0.3185,0.1658,-0.8568*
1,1,0.3185,-0.1658,-0.8568*
%
%ADD28ROUNDEDRECTD28*%
%ADD29O,1.1400X3.2261*%
%ADD30R,0.6720X1.5750*%
%ADD31R,1.3900X0.9600*%
%ADD32R,1.4000X1.0000*%
%ADD33R,1.0000X1.4000*%
%ADD34R,0.9500X1.4500*%
%ADD35O,0.3033X0.1200*%
%ADD36O,0.1200X0.3033*%
%ADD37O,0.1200X0.3034*%
%ADD38O,0.1200X0.3033*%
%ADD39O,0.3033X0.1200*%
%ADD40O,0.3033X0.1200*%
%ADD41O,0.3033X0.1200*%
%ADD42O,0.1200X0.3033*%
%ADD43R,0.8000X0.9000*%
%ADD79R,1.7000X1.7000*%
%ADD80R,0.5050X0.2000*%
%ADD81R,0.2000X0.5050*%
%ADD82C,1.5000*%
%ADD83C,1.0000*%
%ADD84C,0.3000*%
%ADD85C,0.6500*%
%ADD86C,0.7000*%
%ADD87C,0.5000*%
%ADD88R,1.5300X1.5300*%
%ADD89C,1.5300*%
%ADD90O,1.7000X2.9000*%
%ADD91R,2.4000X2.4000*%
%ADD92C,2.4000*%
%ADD93C,1.8600*%
%ADD94C,1.0000*%
%ADD95C,0.6000*%
G36*
X391816Y812346D02*
X392332Y812132D01*
X394500Y807735D01*
Y802765D01*
X395003Y802262D01*
Y788496D01*
X400162D01*
Y691291D01*
X384141Y675269D01*
X379141Y677341D01*
Y749703D01*
X384520D01*
Y765203D01*
X365390D01*
X360390Y768510D01*
Y769703D01*
X360390Y770203D01*
Y785203D01*
X358211D01*
Y795673D01*
X360340D01*
Y810673D01*
X346340D01*
Y795673D01*
X348470D01*
Y785203D01*
X339890D01*
Y770203D01*
X339890Y769703D01*
Y765203D01*
X339890Y764703D01*
Y749703D01*
X360390D01*
Y749703D01*
X364020D01*
Y749703D01*
X369399D01*
Y672950D01*
X304943Y608494D01*
X297685D01*
X293699Y610943D01*
X293699Y613494D01*
Y636943D01*
X292495D01*
Y677523D01*
X296560D01*
Y707523D01*
X266560D01*
Y677523D01*
X269765D01*
Y636943D01*
X267699D01*
Y610943D01*
X279091D01*
X281088Y606004D01*
X279075Y603273D01*
X275560Y599758D01*
Y594788D01*
X272585Y590692D01*
X188375D01*
Y619280D01*
X186739Y623231D01*
X190978Y626063D01*
X201134Y615906D01*
X209170Y612578D01*
X223701D01*
Y610943D01*
X249701D01*
Y636943D01*
X223701D01*
Y635308D01*
X213878D01*
X198780Y650406D01*
X200133Y656124D01*
X206282Y658671D01*
X209927Y667473D01*
Y679473D01*
X206282Y688275D01*
X197480Y691920D01*
X188678Y688275D01*
X185032Y679473D01*
Y671224D01*
X180033Y669153D01*
X172517Y676669D01*
X164480Y679998D01*
X161710D01*
X158282Y688275D01*
X149480Y691920D01*
X140679Y688275D01*
X137033Y679473D01*
Y667473D01*
X140679Y658671D01*
X148219Y655548D01*
X147224Y650548D01*
X117358D01*
X113228Y654677D01*
Y665784D01*
X113928Y667473D01*
Y679473D01*
X110282Y688275D01*
X101481Y691920D01*
X92679Y688275D01*
X89033Y679473D01*
Y667473D01*
X90498Y663936D01*
Y649970D01*
X93827Y641934D01*
X104614Y631147D01*
X112650Y627818D01*
X152400D01*
X162864Y617353D01*
X160793Y612353D01*
X148490D01*
Y607224D01*
X143100D01*
Y612603D01*
X127600D01*
Y592103D01*
X143100D01*
Y597482D01*
X148490D01*
Y592353D01*
X160645D01*
X164490Y592353D01*
X165645Y587831D01*
Y587078D01*
X162470Y583393D01*
X146970D01*
Y583393D01*
X143100D01*
Y583393D01*
X127600D01*
Y562893D01*
X133180D01*
Y539523D01*
X112350D01*
Y518223D01*
X116416D01*
X117689Y513223D01*
X112350Y507884D01*
Y502303D01*
X107350Y500231D01*
X56651Y550930D01*
Y700755D01*
X71488Y715592D01*
X217628D01*
X221072Y717019D01*
X278064Y774012D01*
X279491Y777456D01*
X283342Y776775D01*
X286658D01*
X290173Y778230D01*
X291628Y781745D01*
Y798880D01*
X291385Y799467D01*
Y818511D01*
X300499Y827625D01*
X348821D01*
X355840Y820606D01*
Y815673D01*
X369840D01*
Y827250D01*
X374840Y829322D01*
X391816Y812346D01*
D02*
G37*
G36*
X474455Y845267D02*
X478774Y844110D01*
X482827Y842220D01*
X486490Y839655D01*
X489652Y836493D01*
X492217Y832830D01*
X494107Y828777D01*
X495264Y824457D01*
X495671Y819814D01*
Y808350D01*
X490671Y806279D01*
X481975Y814975D01*
X477000Y817036D01*
X477000Y817036D01*
X432138D01*
X432138Y817036D01*
X431003Y816565D01*
X426389Y819267D01*
X426003Y819906D01*
Y821498D01*
X396440D01*
X377265Y840673D01*
X379336Y845673D01*
X469811D01*
X474455Y845267D01*
D02*
G37*
G36*
X286390Y832650D02*
X279837Y826096D01*
X277855Y821313D01*
Y804652D01*
X276658Y803851D01*
X273342D01*
X270000Y802467D01*
X266658Y803851D01*
X263342D01*
X260000Y802467D01*
X256658Y803851D01*
X253342D01*
X250000Y802467D01*
X246658Y803851D01*
X243342D01*
X240000Y802467D01*
X236658Y803851D01*
X233342D01*
X230000Y802467D01*
X226658Y803851D01*
X223342D01*
X221765Y804905D01*
Y822167D01*
X223000Y823402D01*
Y830030D01*
X220760Y832269D01*
X222832Y837269D01*
X284477D01*
X286390Y832650D01*
D02*
G37*
G36*
X207000Y824202D02*
Y823402D01*
X208235Y822167D01*
Y818020D01*
X205000Y813948D01*
X203153Y813183D01*
X202515D01*
X202063Y812732D01*
X200216Y811967D01*
X199452Y810120D01*
X199000Y809668D01*
Y809030D01*
X198235Y807183D01*
Y792765D01*
X147712D01*
X123265Y817212D01*
X122783Y823802D01*
X126606Y827625D01*
X203577D01*
X207000Y824202D01*
D02*
G37*
G36*
X140126Y781216D02*
X144910Y779235D01*
X199411D01*
X199827Y778230D01*
X203342Y776775D01*
X206658D01*
X210000Y778159D01*
X213342Y776775D01*
X213423D01*
X215494Y771775D01*
X199053Y755334D01*
X119032D01*
X117119Y759953D01*
X127396Y770230D01*
X128823Y773675D01*
Y785449D01*
X133823Y787520D01*
X140126Y781216D01*
D02*
G37*
G36*
X74140Y844625D02*
Y839655D01*
X77290Y836504D01*
X76775Y831504D01*
X73997D01*
Y818504D01*
Y808504D01*
Y798502D01*
X104997D01*
Y798502D01*
X109997Y799292D01*
X119081Y790209D01*
Y775692D01*
X104723Y761334D01*
X54210D01*
X50766Y759907D01*
X19270Y728412D01*
X14651Y730325D01*
Y817696D01*
X16160Y819205D01*
Y824175D01*
X12645Y827690D01*
X10904D01*
X7718Y832690D01*
X7783Y832830D01*
X10348Y836493D01*
X13510Y839655D01*
X17173Y842220D01*
X21226Y844110D01*
X25545Y845267D01*
X30189Y845673D01*
X73706D01*
X74140Y844625D01*
D02*
G37*
G36*
X481535Y795516D02*
Y609077D01*
X462942Y590485D01*
X459879D01*
X459620Y590592D01*
X438570D01*
Y591638D01*
X433524D01*
X432609Y592094D01*
X431783Y592714D01*
X431735Y592776D01*
X429876Y595895D01*
X429826Y596056D01*
X429799Y596638D01*
X429818Y596754D01*
X429800Y596833D01*
X429840Y596904D01*
X429892Y597346D01*
X429869Y597425D01*
X429906Y597498D01*
X429937Y597942D01*
X429911Y598019D01*
X429944Y598092D01*
X429955Y598537D01*
X429940Y598577D01*
X429956Y598615D01*
Y617157D01*
X429940Y617196D01*
X429955Y617235D01*
X429944Y617680D01*
X429911Y617754D01*
X429937Y617830D01*
X429906Y618275D01*
X429869Y618348D01*
X429892Y618426D01*
X429840Y618869D01*
X429800Y618940D01*
X429818Y619019D01*
X429746Y619458D01*
X429702Y619529D01*
X429717Y619610D01*
X429623Y620046D01*
X429577Y620112D01*
X429588Y620192D01*
X429475Y620623D01*
X429425Y620688D01*
X429433Y620769D01*
X429299Y621194D01*
X429246Y621256D01*
X429250Y621338D01*
X429096Y621756D01*
X429041Y621817D01*
X429040Y621899D01*
X428867Y622309D01*
X428810Y622366D01*
X428806Y622446D01*
X428614Y622848D01*
X428553Y622904D01*
X428545Y622986D01*
X428334Y623378D01*
X428271Y623430D01*
X428259Y623511D01*
X428030Y623893D01*
X427965Y623941D01*
X427949Y624021D01*
X427703Y624392D01*
X427635Y624438D01*
X427616Y624516D01*
X427352Y624876D01*
X427282Y624918D01*
X427259Y624997D01*
X426979Y625343D01*
X426907Y625382D01*
X426880Y625460D01*
X426584Y625793D01*
X426511Y625828D01*
X426481Y625904D01*
X426170Y626222D01*
X426095Y626254D01*
X426061Y626328D01*
X425735Y626632D01*
X425659Y626661D01*
X425621Y626733D01*
X425282Y627021D01*
X425204Y627046D01*
X425163Y627117D01*
X424810Y627389D01*
X424731Y627410D01*
X424687Y627479D01*
X424322Y627734D01*
X424242Y627752D01*
X424195Y627818D01*
X423818Y628056D01*
X423738Y628070D01*
X423688Y628134D01*
X423300Y628354D01*
X423220Y628364D01*
X423167Y628425D01*
X422770Y628626D01*
X422688Y628633D01*
X422631Y628693D01*
X422225Y628875D01*
X422144Y628877D01*
X422086Y628933D01*
X421672Y629097D01*
X421589Y629095D01*
X421527Y629150D01*
X421106Y629294D01*
X421025Y629288D01*
X420961Y629339D01*
X420533Y629463D01*
X420451Y629454D01*
X420385Y629502D01*
X419952Y629605D01*
X419872Y629592D01*
X419804Y629637D01*
X419366Y629720D01*
X419286Y629703D01*
X419216Y629745D01*
X418775Y629807D01*
X418695Y629787D01*
X418623Y629825D01*
X418180Y629867D01*
X418102Y629843D01*
X418028Y629877D01*
X417583Y629898D01*
X417506Y629871D01*
X417431Y629902D01*
X416986D01*
X416910Y629871D01*
X416834Y629898D01*
X416389Y629877D01*
X416315Y629843D01*
X416237Y629867D01*
X415794Y629825D01*
X415721Y629787D01*
X415642Y629807D01*
X415201Y629745D01*
X415131Y629703D01*
X415051Y629720D01*
X414613Y629637D01*
X414545Y629592D01*
X414465Y629605D01*
X414032Y629502D01*
X413965Y629454D01*
X413884Y629463D01*
X413456Y629339D01*
X413392Y629288D01*
X413311Y629294D01*
X412890Y629150D01*
X412828Y629095D01*
X412745Y629097D01*
X412331Y628933D01*
X412273Y628877D01*
X412192Y628875D01*
X411786Y628693D01*
X411729Y628633D01*
X411647Y628626D01*
X411250Y628425D01*
X411197Y628364D01*
X411117Y628354D01*
X410729Y628134D01*
X410679Y628070D01*
X410599Y628056D01*
X410222Y627818D01*
X410175Y627752D01*
X410095Y627734D01*
X409730Y627479D01*
X409686Y627410D01*
X409607Y627389D01*
X409254Y627117D01*
X409213Y627046D01*
X409135Y627021D01*
X408796Y626733D01*
X408758Y626661D01*
X408682Y626632D01*
X408356Y626328D01*
X408322Y626254D01*
X408247Y626222D01*
X407936Y625904D01*
X407906Y625828D01*
X407833Y625793D01*
X407537Y625460D01*
X407510Y625382D01*
X407438Y625343D01*
X407158Y624997D01*
X407135Y624918D01*
X407065Y624876D01*
X406801Y624516D01*
X406782Y624438D01*
X406714Y624392D01*
X406468Y624021D01*
X406452Y623941D01*
X406387Y623893D01*
X406158Y623511D01*
X406146Y623430D01*
X406083Y623378D01*
X405872Y622986D01*
X405864Y622904D01*
X405803Y622848D01*
X405611Y622446D01*
X405607Y622366D01*
X405550Y622309D01*
X405377Y621899D01*
X405376Y621817D01*
X405321Y621756D01*
X405167Y621338D01*
X405171Y621256D01*
X405118Y621194D01*
X404984Y620769D01*
X404469Y619789D01*
X403000Y618147D01*
X402616Y617815D01*
X400579Y616547D01*
X394456Y614011D01*
X394456Y614010D01*
X371034Y590588D01*
X340638D01*
X339047Y589929D01*
X337324D01*
X336106Y588711D01*
X334515Y588051D01*
X333856Y586460D01*
X332638Y585242D01*
Y583520D01*
X331979Y581929D01*
X332638Y580337D01*
Y578615D01*
X332901Y575693D01*
X330379Y573409D01*
X325379Y575311D01*
Y592016D01*
X414944Y681581D01*
X417480Y687704D01*
Y785613D01*
X417686Y785699D01*
X424314D01*
X429000Y790385D01*
Y797012D01*
X429399Y799017D01*
X432311Y800224D01*
X435052Y802964D01*
X474086D01*
X481535Y795516D01*
D02*
G37*
G36*
X417876Y626634D02*
X418320Y626592D01*
X418761Y626530D01*
X419198Y626446D01*
X419631Y626343D01*
X420059Y626219D01*
X420481Y626076D01*
X420895Y625913D01*
X421302Y625730D01*
X421699Y625529D01*
X422086Y625309D01*
X422463Y625072D01*
X422828Y624817D01*
X423181Y624545D01*
X423521Y624257D01*
X423847Y623953D01*
X424158Y623634D01*
X424454Y623302D01*
X424734Y622955D01*
X424997Y622596D01*
X425244Y622225D01*
X425473Y621843D01*
X425683Y621450D01*
X425875Y621048D01*
X426048Y620638D01*
X426201Y620220D01*
X426335Y619795D01*
X426449Y619364D01*
X426542Y618929D01*
X426615Y618489D01*
X426667Y618047D01*
X426698Y617603D01*
X426709Y617157D01*
Y598615D01*
X426698Y598170D01*
X426667Y597726D01*
X426615Y597283D01*
X426542Y596844D01*
X426449Y596408D01*
X426335Y595978D01*
X426201Y595553D01*
X426048Y595135D01*
X425875Y594724D01*
X425683Y594322D01*
X425473Y593930D01*
X425244Y593548D01*
X424997Y593176D01*
X424734Y592817D01*
X424454Y592471D01*
X424158Y592138D01*
X423847Y591819D01*
X423521Y591516D01*
X423181Y591228D01*
X422828Y590956D01*
X422463Y590701D01*
X422086Y590463D01*
X421699Y590244D01*
X421302Y590042D01*
X420509Y589860D01*
Y572887D01*
X413909D01*
Y589860D01*
X413115Y590042D01*
X412718Y590244D01*
X412330Y590463D01*
X411954Y590701D01*
X411589Y590956D01*
X411236Y591228D01*
X410896Y591516D01*
X410570Y591819D01*
X410259Y592138D01*
X409963Y592471D01*
X409683Y592817D01*
X409420Y593176D01*
X409173Y593548D01*
X408944Y593930D01*
X408734Y594322D01*
X408542Y594724D01*
X408369Y595135D01*
X408216Y595553D01*
X408082Y595978D01*
X407968Y596408D01*
X407875Y596844D01*
X407802Y597283D01*
X407750Y597726D01*
X407719Y598170D01*
X407708Y598615D01*
Y617157D01*
X407719Y617603D01*
X407750Y618047D01*
X407802Y618489D01*
X407875Y618929D01*
X407968Y619364D01*
X408082Y619795D01*
X408216Y620220D01*
X408369Y620638D01*
X408542Y621048D01*
X408734Y621450D01*
X408944Y621843D01*
X409173Y622225D01*
X409420Y622596D01*
X409683Y622955D01*
X409963Y623302D01*
X410259Y623634D01*
X410570Y623953D01*
X410896Y624257D01*
X411236Y624545D01*
X411589Y624817D01*
X411954Y625072D01*
X412330Y625309D01*
X412718Y625529D01*
X413115Y625730D01*
X413522Y625913D01*
X413936Y626076D01*
X414358Y626219D01*
X414786Y626343D01*
X415219Y626446D01*
X415656Y626530D01*
X416097Y626592D01*
X416541Y626634D01*
X416986Y626655D01*
X417431D01*
X417876Y626634D01*
D02*
G37*
G36*
X401979Y595098D02*
X402454Y595011D01*
X404981Y594134D01*
X405377Y593874D01*
X405550Y593463D01*
X405607Y593407D01*
X405611Y593326D01*
X405803Y592924D01*
X405864Y592869D01*
X405872Y592787D01*
X406083Y592394D01*
X406146Y592343D01*
X406158Y592262D01*
X406387Y591880D01*
X406452Y591831D01*
X406468Y591751D01*
X406714Y591380D01*
X406782Y591335D01*
X406801Y591256D01*
X407065Y590897D01*
X407135Y590854D01*
X407158Y590776D01*
X407438Y590429D01*
X407510Y590390D01*
X407537Y590313D01*
X407833Y589980D01*
X407906Y589944D01*
X407936Y589869D01*
X408247Y589550D01*
X408322Y589518D01*
X408356Y589444D01*
X408682Y589141D01*
X408758Y589112D01*
X408796Y589039D01*
X409135Y588751D01*
X409213Y588726D01*
X409254Y588655D01*
X409607Y588383D01*
X409686Y588362D01*
X409730Y588293D01*
X410095Y588038D01*
X410175Y588021D01*
X410222Y587954D01*
X410599Y587717D01*
X410662Y587706D01*
Y572887D01*
X411613Y570591D01*
X413909Y569639D01*
X418272D01*
X420343Y564639D01*
X392033Y536330D01*
X390448Y532503D01*
X390448Y532503D01*
Y512157D01*
X385448Y510086D01*
X381411Y514123D01*
X372859D01*
X358821Y528160D01*
Y556633D01*
X357394Y560077D01*
X349202Y568270D01*
X351273Y573269D01*
X374620D01*
X375103Y573469D01*
X376570D01*
X378162Y574129D01*
X384570D01*
Y579633D01*
X399854Y594916D01*
X401122Y595124D01*
X401979Y595098D01*
D02*
G37*
G36*
X459728Y573166D02*
X466141D01*
X479021Y560286D01*
Y318638D01*
X474021Y316567D01*
X473588Y317000D01*
X469067Y318873D01*
X464174D01*
X459653Y317000D01*
X456193Y313540D01*
X456178Y313503D01*
X450705Y312401D01*
X448020Y314353D01*
Y318853D01*
X448020Y319353D01*
Y334353D01*
X427520D01*
Y334353D01*
X422620D01*
Y334353D01*
X412395D01*
X411500Y334724D01*
X408388D01*
X389921Y353191D01*
X389058Y358722D01*
X389678Y360149D01*
X404152Y374622D01*
X411260D01*
Y371493D01*
X431260D01*
Y385493D01*
X431260Y388993D01*
X431260Y393622D01*
X449110D01*
Y391243D01*
X469610D01*
Y406743D01*
X449110D01*
Y403364D01*
X431260D01*
Y406493D01*
X413235D01*
X411170Y406611D01*
X408351Y410288D01*
Y474378D01*
X411260Y478173D01*
X431260D01*
Y492173D01*
X431260Y495673D01*
X431260Y500302D01*
X449110D01*
Y497763D01*
X469610D01*
Y513263D01*
X449110D01*
Y510044D01*
X431260D01*
Y513173D01*
X411260D01*
Y499173D01*
X411260Y495673D01*
X411260Y491044D01*
X409220D01*
X406272Y489823D01*
X401272Y491646D01*
Y530261D01*
X436037Y565026D01*
X436359Y565804D01*
X438570Y569888D01*
X438570D01*
X442168Y573274D01*
X459468D01*
X459728Y573166D01*
D02*
G37*
G36*
X240620Y492123D02*
X239620Y492118D01*
X238620Y493118D01*
Y497173D01*
X240620D01*
Y492123D01*
D02*
G37*
G36*
X260619Y493119D02*
X259619Y492118D01*
X258619Y492124D01*
Y497174D01*
X260619D01*
Y493119D01*
D02*
G37*
G36*
X237875Y490374D02*
X237870Y489374D01*
X232820D01*
Y491374D01*
X236875D01*
X237875Y490374D01*
D02*
G37*
G36*
X266420Y489374D02*
X261370D01*
X261365Y490374D01*
X262365Y491373D01*
X266420D01*
Y489374D01*
D02*
G37*
G36*
X308061Y577587D02*
Y487446D01*
X303061Y485375D01*
X295002Y493434D01*
X292114Y494631D01*
X287940Y496625D01*
Y501595D01*
X284425Y505110D01*
X283594D01*
X278147Y510557D01*
X274320Y512142D01*
X274320Y512142D01*
X232327D01*
X228501Y510557D01*
X228501Y510557D01*
X219757Y501813D01*
X211810D01*
Y481913D01*
Y462863D01*
X227410D01*
Y462863D01*
X232199Y464170D01*
X235291Y462534D01*
Y457363D01*
X230860D01*
Y437463D01*
X246460D01*
Y440971D01*
X290690D01*
X290690Y440971D01*
X294517Y442556D01*
X303061Y451100D01*
X305196Y450815D01*
X308061Y448197D01*
Y313998D01*
X286640D01*
X278604Y310669D01*
X272299Y304365D01*
X264655D01*
Y295766D01*
X263845Y293810D01*
Y284865D01*
X264655Y282909D01*
Y273018D01*
X258414Y266777D01*
X234965D01*
Y282909D01*
X235775Y284865D01*
Y293810D01*
X234965Y295766D01*
Y304365D01*
X227321D01*
X221017Y310669D01*
X212980Y313998D01*
X188575D01*
Y573093D01*
X188763Y573374D01*
X295530D01*
X297122Y574033D01*
X298844D01*
X300062Y575251D01*
X301653Y575910D01*
X302312Y577501D01*
X303061Y578250D01*
X308061Y577587D01*
D02*
G37*
G36*
X333013Y562446D02*
X337984D01*
X339113Y563576D01*
X340119D01*
X349080Y554615D01*
Y526143D01*
X350506Y522699D01*
X366350Y506855D01*
Y499062D01*
X371952Y493459D01*
X372313Y490773D01*
X371952Y488087D01*
X366809Y482944D01*
X357850D01*
Y485483D01*
X337350D01*
Y485483D01*
X333576Y483893D01*
X328605D01*
X325379Y485229D01*
Y563834D01*
X330379Y565080D01*
X333013Y562446D01*
D02*
G37*
G36*
X258266Y489017D02*
X258370Y488769D01*
Y482372D01*
Y474374D01*
X254510Y471623D01*
X244731D01*
X240870Y474374D01*
Y482372D01*
Y488771D01*
X240974Y489018D01*
X241223Y489123D01*
X258016D01*
X258266Y489017D01*
D02*
G37*
G36*
X237876Y470374D02*
X236876Y469374D01*
X232821D01*
Y471373D01*
X237871D01*
X237876Y470374D01*
D02*
G37*
G36*
X266420Y469373D02*
X262365D01*
X261365Y470373D01*
X261370Y471373D01*
X266420D01*
Y469373D01*
D02*
G37*
G36*
X240620Y468624D02*
Y463574D01*
X238620D01*
Y467629D01*
X239620Y468629D01*
X240620Y468624D01*
D02*
G37*
G36*
X260620Y467628D02*
Y463573D01*
X258620D01*
Y468623D01*
X259620Y468628D01*
X260620Y467628D01*
D02*
G37*
G36*
X294992Y458338D02*
X288449Y451795D01*
X246460D01*
Y457363D01*
X250131Y460573D01*
X259620D01*
Y461851D01*
X262365Y466126D01*
X266420D01*
X268716Y467077D01*
X269667Y469373D01*
X269667Y471373D01*
X269482Y473619D01*
X271246Y476022D01*
X276845Y476485D01*
X294992Y458338D01*
D02*
G37*
G36*
X409398Y402075D02*
X411260Y401132D01*
Y392493D01*
X411260Y388993D01*
X411260Y384364D01*
X402134D01*
X398690Y382937D01*
X384217Y368464D01*
X372330D01*
X367855Y369897D01*
X367711Y373083D01*
Y382678D01*
X370425Y385392D01*
X386970D01*
X390414Y386819D01*
X406260Y402665D01*
X409398Y402075D01*
D02*
G37*
G36*
X98890Y331095D02*
Y318777D01*
X97500Y314353D01*
X93890Y314353D01*
X77100D01*
X72100Y314594D01*
Y318853D01*
X72100Y319353D01*
Y334353D01*
X51600D01*
Y330574D01*
X48414Y329254D01*
X37164Y318004D01*
X35067Y318873D01*
X30174D01*
X25653Y317000D01*
X22193Y313540D01*
X20320Y309020D01*
Y304126D01*
X22193Y299606D01*
X25040Y296758D01*
X25383Y293873D01*
X25040Y290987D01*
X22193Y288140D01*
X20320Y283619D01*
Y278726D01*
X22193Y274205D01*
X25653Y270746D01*
X30174Y268873D01*
X35067D01*
X39588Y270746D01*
X43048Y274205D01*
X43282Y274772D01*
X48535Y275627D01*
X51600Y273133D01*
Y268633D01*
X51600Y268133D01*
Y253133D01*
X72100D01*
Y253133D01*
X77000D01*
Y253133D01*
X87064D01*
X88977Y248514D01*
X83776Y243312D01*
X71800D01*
Y245700D01*
X51900D01*
Y243312D01*
X42263D01*
X42263Y243312D01*
X38437Y241727D01*
X35067Y242673D01*
X30174D01*
X25653Y240800D01*
X22193Y237340D01*
X20320Y232819D01*
Y227926D01*
X22193Y223405D01*
X25653Y219946D01*
X30174Y218073D01*
X35067D01*
X39588Y219946D01*
X43048Y223405D01*
X44920Y227926D01*
Y232488D01*
X51900D01*
Y230100D01*
X71800D01*
Y232488D01*
X86017D01*
X86017Y232488D01*
X89844Y234073D01*
X106187Y250415D01*
X111088Y248532D01*
X111527Y244888D01*
X92696Y226057D01*
X91270Y222613D01*
Y218808D01*
X74762Y202300D01*
X72553D01*
X68033Y200427D01*
X65185Y197580D01*
X62300Y197237D01*
X59415Y197580D01*
X56567Y200427D01*
X52047Y202300D01*
X47153D01*
X42633Y200427D01*
X39173Y196967D01*
X37300Y192447D01*
Y187553D01*
X39173Y183033D01*
X40941Y181264D01*
Y163736D01*
X39173Y161967D01*
X37300Y157447D01*
Y152553D01*
X39173Y148033D01*
X40941Y146264D01*
Y128736D01*
X39173Y126967D01*
X37300Y122447D01*
Y117553D01*
X39173Y113033D01*
X40491Y111714D01*
Y56253D01*
X43027Y50130D01*
X83825Y9332D01*
X81754Y4332D01*
X30189D01*
X25545Y4739D01*
X21226Y5896D01*
X17173Y7786D01*
X13510Y10351D01*
X10348Y13513D01*
X7783Y17176D01*
X5893Y21229D01*
X4736Y25548D01*
X4330Y30192D01*
X4330Y418584D01*
X9330Y420655D01*
X98890Y331095D01*
D02*
G37*
G36*
X427520Y318612D02*
Y314353D01*
X427520Y313853D01*
Y298853D01*
X448020D01*
Y301702D01*
X455324D01*
X456193Y299606D01*
X459040Y296758D01*
X459383Y293873D01*
X459040Y290987D01*
X456193Y288140D01*
X455324Y286044D01*
X448020D01*
Y288633D01*
X427520D01*
Y273633D01*
X427520Y273133D01*
Y268874D01*
X422520Y268633D01*
X410015D01*
X409120Y269004D01*
X408438D01*
X400731Y276710D01*
Y314428D01*
X401542Y317010D01*
X405211Y318853D01*
X422520D01*
X427520Y318612D01*
D02*
G37*
G36*
X333816Y398429D02*
X337260Y397002D01*
X337350D01*
Y394103D01*
X357850D01*
Y394103D01*
X358242Y394057D01*
X360066Y388810D01*
X359396Y388140D01*
X357970Y384696D01*
Y371960D01*
X350506Y364497D01*
X349080Y361053D01*
Y297543D01*
X350506Y294099D01*
X366350Y278255D01*
Y270462D01*
X365154Y267575D01*
X354752D01*
X324520Y297807D01*
Y299096D01*
X325985Y302633D01*
X325379Y304096D01*
Y399794D01*
X330379Y401866D01*
X333816Y398429D01*
D02*
G37*
G36*
X165845Y559291D02*
Y302633D01*
Y271344D01*
X162125Y267993D01*
X157155D01*
X156567Y267405D01*
X134916D01*
X133650Y270462D01*
Y279014D01*
X141494Y286859D01*
X142921Y290303D01*
Y560598D01*
X146970Y562893D01*
X162470D01*
X165845Y559291D01*
D02*
G37*
G36*
X51600Y308529D02*
Y298853D01*
X72100D01*
Y298853D01*
X77000D01*
Y298853D01*
X89605D01*
X90500Y298482D01*
X91155D01*
X97592Y292045D01*
Y290448D01*
X101107Y286933D01*
X106077D01*
X109592Y290448D01*
Y291548D01*
X114592Y293619D01*
X117952Y290259D01*
X118313Y287573D01*
X117952Y284886D01*
X112350Y279284D01*
Y270462D01*
X108855Y266885D01*
X106284Y265820D01*
X101664Y264149D01*
X100870Y264478D01*
X97500Y267848D01*
Y268633D01*
X77100D01*
X72100Y268874D01*
Y273133D01*
X72100Y273633D01*
Y288633D01*
X51600D01*
Y286044D01*
X43916D01*
X43048Y288140D01*
X40201Y290987D01*
X39858Y293873D01*
X40201Y296758D01*
X43048Y299606D01*
X44920Y304126D01*
Y309020D01*
X46600Y310647D01*
X51600Y308529D01*
D02*
G37*
G36*
X315693Y291326D02*
X345316Y261704D01*
X343245Y256704D01*
X270719D01*
X268648Y261704D01*
X272309Y265365D01*
X285765D01*
Y282909D01*
X286575Y284865D01*
Y286495D01*
X291348Y291268D01*
X314620D01*
X315557Y291656D01*
X315693Y291326D01*
D02*
G37*
G36*
X456123Y274374D02*
X456193Y274205D01*
X459653Y270746D01*
X464174Y268873D01*
X469067D01*
X473588Y270746D01*
X474021Y271179D01*
X479021Y269108D01*
Y242438D01*
X474021Y240367D01*
X473588Y240800D01*
X469067Y242673D01*
X464174D01*
X461122Y241409D01*
X460804Y241727D01*
X456977Y243312D01*
X456977Y243312D01*
X447720D01*
Y245700D01*
X427820D01*
Y243312D01*
X414575D01*
X409373Y248514D01*
X411287Y253133D01*
X422620D01*
Y253133D01*
X427520D01*
Y253133D01*
X448020D01*
Y268133D01*
X448020Y268633D01*
Y273133D01*
X450705Y275318D01*
X456123Y274374D01*
D02*
G37*
G36*
X408506Y234073D02*
X408506Y234073D01*
X412333Y232488D01*
X412333Y232488D01*
X427820D01*
Y230100D01*
X447720D01*
Y232488D01*
X454320D01*
Y227926D01*
X456193Y223405D01*
X458040Y221558D01*
X457312Y216090D01*
X457185Y215881D01*
X453617Y214403D01*
X444727Y205513D01*
X442191Y199390D01*
Y199186D01*
X440586Y197580D01*
X437700Y197237D01*
X434814Y197580D01*
X431967Y200427D01*
X427447Y202300D01*
X422553D01*
X420679Y201524D01*
X420086Y202117D01*
X416642Y203544D01*
X387191D01*
X382048Y208687D01*
X381687Y211373D01*
X382048Y214059D01*
X387650Y219662D01*
Y228484D01*
X382048Y234086D01*
X381687Y236773D01*
X382048Y239459D01*
X387650Y245061D01*
Y247858D01*
X392650Y249930D01*
X408506Y234073D01*
D02*
G37*
G36*
X112350Y146027D02*
Y143462D01*
X117952Y137859D01*
X118313Y135173D01*
X117952Y132486D01*
X112350Y126884D01*
Y118062D01*
X117952Y112459D01*
X118313Y109773D01*
X117952Y107086D01*
X112350Y101484D01*
Y92662D01*
X117952Y87059D01*
X118313Y84373D01*
X117952Y81686D01*
X116690Y80424D01*
X114964Y79709D01*
X114249Y77983D01*
X112350Y76084D01*
Y73399D01*
X111635Y71673D01*
X112350Y69946D01*
Y67262D01*
X114249Y65363D01*
X114964Y63637D01*
X151868Y26732D01*
X151851Y26145D01*
X150724Y21732D01*
X95917D01*
X57809Y59840D01*
Y110815D01*
X59415Y112420D01*
X62300Y112763D01*
X65185Y112420D01*
X68033Y109573D01*
X72553Y107700D01*
X77447D01*
X81967Y109573D01*
X85427Y113033D01*
X87300Y117553D01*
Y122447D01*
X85659Y126407D01*
X107350Y148098D01*
X112350Y146027D01*
D02*
G37*
G36*
X157155Y255993D02*
X162125D01*
X165845Y252642D01*
Y97103D01*
X167360Y93445D01*
Y93293D01*
X167423D01*
X169174Y89066D01*
X196042Y62199D01*
X204078Y58870D01*
X217665D01*
Y51028D01*
X217665Y50735D01*
X216958Y46028D01*
X164718D01*
X131036Y79709D01*
X129310Y80424D01*
X128048Y81686D01*
X127687Y84373D01*
X128048Y87059D01*
X133650Y92662D01*
Y101484D01*
X128048Y107086D01*
X127687Y109773D01*
X128048Y112459D01*
X133650Y118062D01*
Y126884D01*
X128048Y132486D01*
X127687Y135173D01*
X128048Y137859D01*
X133650Y143462D01*
Y152284D01*
X128048Y157886D01*
X127687Y160573D01*
X128048Y163259D01*
X133650Y168862D01*
Y177684D01*
X127411Y183923D01*
X118589D01*
X112350Y177684D01*
Y168862D01*
X113343Y167868D01*
X77679Y132204D01*
X77447Y132300D01*
X72553D01*
X68033Y130427D01*
X65185Y127580D01*
X62656Y127280D01*
X58259Y129930D01*
Y145070D01*
X62656Y147720D01*
X65185Y147420D01*
X68033Y144573D01*
X72553Y142700D01*
X77447D01*
X81967Y144573D01*
X85427Y148033D01*
X87300Y152553D01*
Y157447D01*
X86432Y159543D01*
X108474Y181586D01*
X109901Y185030D01*
Y204465D01*
X118859Y213423D01*
X127411D01*
X133650Y219662D01*
Y228484D01*
X128048Y234086D01*
X127687Y236773D01*
X128048Y239459D01*
X133650Y245061D01*
Y253884D01*
X134767Y256581D01*
X156567D01*
X157155Y255993D01*
D02*
G37*
G36*
X364483Y222982D02*
X366350Y222209D01*
Y219662D01*
X371952Y214059D01*
X372313Y211373D01*
X371952Y208687D01*
X366350Y203084D01*
Y194261D01*
X371952Y188659D01*
X372313Y185973D01*
X371952Y183286D01*
X366350Y177684D01*
Y168862D01*
X371952Y163259D01*
X372313Y160573D01*
X371952Y157886D01*
X366350Y152284D01*
Y143462D01*
X371952Y137859D01*
X372313Y135173D01*
X371952Y132486D01*
X366350Y126884D01*
Y118062D01*
X371952Y112459D01*
X372313Y109773D01*
X371952Y107086D01*
X366350Y101484D01*
Y92662D01*
X371952Y87059D01*
X372313Y84373D01*
X371952Y81686D01*
X366350Y76084D01*
Y67262D01*
X372589Y61023D01*
X381411D01*
X387650Y67262D01*
Y76084D01*
X382048Y81686D01*
X381687Y84373D01*
X382048Y87059D01*
X387650Y92662D01*
Y101484D01*
X382048Y107086D01*
X381687Y109773D01*
X382048Y112459D01*
X387650Y118062D01*
Y123264D01*
X392650Y125335D01*
X401429Y116556D01*
X404873Y115129D01*
X413704D01*
X414573Y113033D01*
X418033Y109573D01*
X422553Y107700D01*
X427447D01*
X431967Y109573D01*
X434814Y112420D01*
X436779Y112653D01*
X441361Y109519D01*
Y54310D01*
X408783Y21732D01*
X275606D01*
X274480Y26145D01*
X274462Y26732D01*
X287002Y39272D01*
X290330Y47308D01*
Y70102D01*
X290385Y70235D01*
Y71865D01*
X310398Y91878D01*
X316720D01*
X320137Y93293D01*
X324520D01*
Y95109D01*
X324757Y95206D01*
X328085Y103243D01*
X324757Y111279D01*
X324520Y111377D01*
Y113193D01*
X320137D01*
X316720Y114608D01*
X305690D01*
X297654Y111279D01*
X276110Y89735D01*
X268465D01*
Y81136D01*
X267655Y79180D01*
Y70312D01*
X267600Y70180D01*
Y52016D01*
X261613Y46028D01*
X239483D01*
X238775Y50735D01*
X238775Y51028D01*
Y68279D01*
X239585Y70235D01*
X238775Y72191D01*
Y89735D01*
X217665D01*
Y81600D01*
X208786D01*
X188575Y101810D01*
Y232741D01*
X192715Y235673D01*
X197686D01*
X198815Y236802D01*
X350663D01*
X364483Y222982D01*
D02*
G37*
G36*
X495671Y208384D02*
X495671Y30192D01*
X495264Y25548D01*
X494107Y21229D01*
X492217Y17176D01*
X489652Y13513D01*
X486490Y10351D01*
X482827Y7786D01*
X478774Y5896D01*
X474455Y4739D01*
X469811Y4332D01*
X422947D01*
X420876Y9332D01*
X456143Y44600D01*
X458679Y50723D01*
X458679Y50723D01*
Y110885D01*
X460827Y113033D01*
X462700Y117553D01*
Y122447D01*
X460827Y126967D01*
X459059Y128736D01*
Y146264D01*
X460827Y148033D01*
X462700Y152553D01*
Y157447D01*
X460827Y161967D01*
X459059Y163736D01*
Y181264D01*
X460827Y183033D01*
X462700Y187553D01*
Y192447D01*
X461483Y195385D01*
X464684Y199590D01*
X464728Y199621D01*
X476250D01*
X482373Y202157D01*
X490671Y210455D01*
X495671Y208384D01*
D02*
G37*
D11*
X219610Y494013D02*
X232327Y506730D01*
X274320D01*
X219610Y491863D02*
Y494013D01*
X274320Y506730D02*
X281940Y499110D01*
X239930Y446143D02*
X240170Y446383D01*
X412333Y237900D02*
X456977D01*
X388070Y262163D02*
X412333Y237900D01*
X456977D02*
X464504Y230373D01*
X466620D01*
X34736D02*
X42263Y237900D01*
X32620Y230373D02*
X34736D01*
X86017Y237900D02*
X110110Y261993D01*
X42263Y237900D02*
X86017D01*
X432210Y568853D02*
Y580763D01*
X385327Y466090D02*
X395860Y476623D01*
X358457Y466090D02*
X385327D01*
X350100Y457733D02*
X358457Y466090D01*
X347600Y457733D02*
X350100D01*
X240170Y446383D02*
X290690D01*
X301880Y457573D01*
X395860Y532503D02*
X432210Y568853D01*
X347600Y421853D02*
Y457733D01*
X395860Y476623D02*
Y532503D01*
X275210Y275920D02*
Y284865D01*
X260655Y261365D02*
X275210Y275920D01*
X319520Y295153D02*
X352510Y262163D01*
X195200Y261993D02*
X195828Y261365D01*
X352510Y262163D02*
X388070D01*
X195828Y261365D02*
X260655D01*
X110110Y261993D02*
X159640D01*
D12*
X239620Y446453D02*
Y466098D01*
X263895Y482372D02*
X277081D01*
X254890Y475103D02*
Y475353D01*
Y475103D02*
X257120Y472873D01*
X273656Y470273D02*
X273940D01*
X269555Y474373D02*
X273656Y470273D01*
X255870Y474373D02*
X263895D01*
X269555D01*
X277081Y482372D02*
X301880Y457573D01*
X263895Y490373D02*
X291940D01*
X301880Y470213D02*
X302283Y469810D01*
X301880Y470213D02*
Y480433D01*
X259620Y455383D02*
Y466098D01*
X291940Y490373D02*
X301880Y480433D01*
X243751Y474373D02*
X244730Y475353D01*
X235345Y474373D02*
X243751D01*
X254890Y475353D02*
X255870Y474373D01*
X242120Y482372D02*
X244730Y484982D01*
Y485513D01*
X235345Y482372D02*
X242120D01*
X239620Y446453D02*
X239930Y446143D01*
X284511Y486372D02*
X290113Y480770D01*
X291720Y477893D02*
Y478975D01*
X290113Y480583D02*
X291720Y478975D01*
X290113Y480583D02*
Y480770D01*
X263895Y486372D02*
X284511D01*
X220950Y445503D02*
X222860Y447413D01*
X223410Y486372D02*
X235345D01*
X219610Y490172D02*
X223410Y486372D01*
X219610Y490172D02*
Y491863D01*
Y474574D02*
X223410Y478374D01*
X219610Y472813D02*
Y474574D01*
X223410Y478374D02*
X235345D01*
D20*
X159360Y130810D02*
D03*
X175160D02*
D03*
Y103243D02*
D03*
X159360D02*
D03*
Y330200D02*
D03*
X175160D02*
D03*
X238660Y447413D02*
D03*
X222860D02*
D03*
X332520Y302633D02*
D03*
X316720D02*
D03*
X159360D02*
D03*
X175160D02*
D03*
X219610Y472813D02*
D03*
X203810D02*
D03*
Y491863D02*
D03*
X219610D02*
D03*
X316720Y103243D02*
D03*
X332520D02*
D03*
D21*
X253620Y169272D02*
D03*
X249810Y383902D02*
D03*
D22*
X279020Y70235D02*
D03*
X228220D02*
D03*
X253620D02*
D03*
X249810Y284865D02*
D03*
X224410D02*
D03*
X275210D02*
D03*
D23*
X236701Y623943D02*
D03*
X280699D02*
D03*
D24*
X61850Y280883D02*
D03*
Y260883D02*
D03*
X87250D02*
D03*
Y280883D02*
D03*
X459360Y485513D02*
D03*
Y505513D02*
D03*
Y378993D02*
D03*
Y398993D02*
D03*
X412370Y326603D02*
D03*
Y306603D02*
D03*
X437770D02*
D03*
Y326603D02*
D03*
Y280883D02*
D03*
Y260883D02*
D03*
X412370D02*
D03*
Y280883D02*
D03*
X347600Y477733D02*
D03*
Y457733D02*
D03*
X350140Y757453D02*
D03*
Y777453D02*
D03*
X374270D02*
D03*
Y757453D02*
D03*
X347600Y401853D02*
D03*
Y421853D02*
D03*
X61850Y306603D02*
D03*
Y326603D02*
D03*
X87250D02*
D03*
Y306603D02*
D03*
D25*
X410503Y794996D02*
D03*
Y804995D02*
D03*
Y814998D02*
D03*
Y824998D02*
D03*
X89497Y795002D02*
D03*
Y805002D02*
D03*
Y815005D02*
D03*
Y825004D02*
D03*
D26*
X453503Y832497D02*
D03*
Y787497D02*
D03*
X46497Y832503D02*
D03*
Y787503D02*
D03*
D27*
X318504Y812055D02*
D03*
X181496D02*
D03*
D28*
X255000Y790313D02*
D03*
X265000D02*
D03*
X275000D02*
D03*
X285000D02*
D03*
X295000D02*
D03*
X205000D02*
D03*
X215000D02*
D03*
X225000D02*
D03*
X235000D02*
D03*
X245000D02*
D03*
D29*
X417209Y607887D02*
D03*
D30*
X432210Y580763D02*
D03*
X402210D02*
D03*
D31*
X374620Y566129D02*
D03*
Y581929D02*
D03*
X459620Y566133D02*
D03*
Y581933D02*
D03*
X61850Y237900D02*
D03*
Y222100D02*
D03*
X437770Y237900D02*
D03*
Y222100D02*
D03*
D32*
X421260Y486173D02*
D03*
Y505173D02*
D03*
Y379493D02*
D03*
Y398493D02*
D03*
D33*
X175490Y602353D02*
D03*
X156490D02*
D03*
D34*
X174720Y573143D02*
D03*
X154720D02*
D03*
X135350Y602353D02*
D03*
X115350D02*
D03*
X135350Y573143D02*
D03*
X115350D02*
D03*
D35*
X263895Y470373D02*
D03*
D36*
X239620Y494648D02*
D03*
D37*
X259618D02*
D03*
D38*
X239620Y466098D02*
D03*
D39*
X235345Y470373D02*
D03*
D40*
Y490373D02*
D03*
D41*
X263895D02*
D03*
D42*
X259620Y466098D02*
D03*
D43*
X372340Y803173D02*
D03*
X353340D02*
D03*
X362840Y823173D02*
D03*
D79*
X249620Y480373D02*
D03*
D80*
X263895Y486372D02*
D03*
Y482372D02*
D03*
Y478374D02*
D03*
Y474373D02*
D03*
X235345D02*
D03*
Y478374D02*
D03*
Y482372D02*
D03*
Y486372D02*
D03*
D81*
X255620Y466098D02*
D03*
X251619D02*
D03*
X247621D02*
D03*
X243621D02*
D03*
Y494648D02*
D03*
X247621D02*
D03*
X251619D02*
D03*
X255620D02*
D03*
D82*
X157107Y639183D02*
X177010Y619280D01*
Y573393D02*
Y582033D01*
X112650Y639183D02*
X157107D01*
X177010Y582033D02*
Y619280D01*
X123000Y71673D02*
X160010Y34663D01*
X266320D01*
X305690Y103243D02*
X316720D01*
X177210Y302633D02*
Y573093D01*
X277872Y293865D02*
X286640Y302633D01*
X275210Y293810D02*
X275265Y293865D01*
X277872D01*
X275210Y284865D02*
Y293810D01*
X286640Y302633D02*
X314620D01*
X279075Y79235D02*
X281682D01*
X305690Y103243D01*
X279020Y79180D02*
X279075Y79235D01*
X279020Y70235D02*
Y79180D01*
X278965Y70180D02*
X279020Y70235D01*
X221748Y293865D02*
X224355D01*
X212980Y302633D02*
X221748Y293865D01*
X177210Y302633D02*
X212980D01*
X224355Y293865D02*
X224410Y293810D01*
Y284865D02*
Y293810D01*
X278965Y47308D02*
Y70180D01*
X266320Y34663D02*
X278965Y47308D01*
X281130Y692092D02*
X281560Y692523D01*
X280699Y623943D02*
X281130Y624373D01*
Y692092D01*
X149480Y669556D02*
X150404Y668633D01*
X149480Y669556D02*
Y673473D01*
X209170Y623943D02*
X236701D01*
X164480Y668633D02*
X209170Y623943D01*
X150404Y668633D02*
X164480D01*
X177210Y97103D02*
Y302633D01*
X204078Y70235D02*
X228220D01*
X177210Y97103D02*
X204078Y70235D01*
X101481Y673473D02*
X101863Y673090D01*
Y649970D02*
Y673090D01*
Y649970D02*
X112650Y639183D01*
D83*
X374820Y582129D02*
X376570D01*
X374620Y581929D02*
X374820Y582129D01*
X376570D02*
Y583879D01*
X400579Y607887D01*
X417209D01*
X450400Y155000D02*
Y190000D01*
Y120000D02*
Y155000D01*
X450020Y119620D02*
X450400Y120000D01*
X450020Y50723D02*
Y119620D01*
X450850Y190450D02*
Y199390D01*
X450400Y190000D02*
X450850Y190450D01*
Y199390D02*
X459740Y208280D01*
X476250D01*
X487680Y219710D01*
Y563873D01*
X469927Y581626D02*
X487680Y563873D01*
X49600Y155000D02*
Y190000D01*
Y120000D02*
Y155000D01*
X49150Y119550D02*
X49600Y120000D01*
X433380Y581933D02*
X459620D01*
X469394Y581825D02*
X469927Y581626D01*
X459728Y581825D02*
X469394D01*
X408821Y687704D02*
Y793500D01*
X316720Y595603D02*
X408821Y687704D01*
X340638Y581929D02*
X374620D01*
X178280Y582033D02*
X295530D01*
X177010Y580763D02*
X178280Y582033D01*
X316720Y302633D02*
Y595603D01*
X49150Y56253D02*
X92330Y13073D01*
X412370D02*
X450020Y50723D01*
X92330Y13073D02*
X412370D01*
X49150Y56253D02*
Y119550D01*
D84*
X404873Y120000D02*
X425000D01*
X377000Y147873D02*
X404873Y120000D01*
X377000Y198673D02*
X416642D01*
X425000Y190000D02*
Y190315D01*
X416642Y198673D02*
X425000Y190315D01*
X377000Y173273D02*
X406727D01*
X425000Y155000D01*
X96140Y216790D02*
Y222613D01*
X123000Y249473D01*
X77985Y192985D02*
Y198635D01*
X75000Y190000D02*
X77985Y192985D01*
Y198635D02*
X96140Y216790D01*
X75000Y122636D02*
X123000Y170636D01*
X75000Y120000D02*
Y122636D01*
X123000Y170636D02*
Y173273D01*
X75000Y155000D02*
X105030Y185030D01*
Y206483D01*
X80140Y842140D02*
X368910D01*
X395260Y815790D01*
X404125D02*
X406716Y813199D01*
X395260Y815790D02*
X404125D01*
X15780Y432513D02*
Y718033D01*
Y432513D02*
X122620Y325673D01*
X15780Y718033D02*
X54210Y756463D01*
X106740D01*
X123952Y773675D01*
X111379Y804799D02*
X123952Y792226D01*
Y773675D02*
Y792226D01*
X89590Y804799D02*
X111379D01*
X9780Y427093D02*
Y821310D01*
X10160Y821690D01*
X103760Y314063D02*
X115197Y302626D01*
X9780Y427093D02*
X103760Y333113D01*
X115197Y302626D02*
X120267D01*
X103760Y314063D02*
Y333113D01*
X120267Y302626D02*
X122620Y300273D01*
X203556Y744463D02*
X234620Y775528D01*
X207084Y738463D02*
X244620Y775999D01*
X45780Y705258D02*
X66985Y726463D01*
X39780Y707743D02*
X64500Y732463D01*
X213900Y726463D02*
X264848Y777410D01*
X33780Y710229D02*
X62014Y738463D01*
X201070Y750463D02*
X224620Y774013D01*
X264620Y790313D02*
X264848Y790086D01*
X51780Y702773D02*
X69470Y720463D01*
X64500Y732463D02*
X210470D01*
X21780Y715548D02*
X56695Y750463D01*
X69470Y720463D02*
X217628D01*
X59180Y744463D02*
X203556D01*
X56695Y750463D02*
X201070D01*
X217628Y720463D02*
X274620Y777456D01*
X210470Y732463D02*
X254620Y776613D01*
X66985Y726463D02*
X213900D01*
X27780Y713063D02*
X59180Y744463D01*
X62014Y738463D02*
X207084D01*
X403480Y480433D02*
X409220Y486173D01*
X386970Y390263D02*
X403480Y406773D01*
Y480433D01*
X331090Y408043D02*
Y469113D01*
X353950Y526143D02*
Y556633D01*
X342137Y568446D02*
X353950Y556633D01*
Y526143D02*
X376620Y503473D01*
X335498Y568446D02*
X342137D01*
X306960Y603623D02*
X374270Y670933D01*
X287099Y603623D02*
X306960D01*
X281560Y598085D02*
X287099Y603623D01*
X281560Y597273D02*
Y598085D01*
X374270Y670933D02*
Y757453D01*
X353340Y780653D02*
Y803173D01*
X350140Y777453D02*
X353340Y780653D01*
X350140Y757453D02*
X374270D01*
X409220Y486173D02*
X421260D01*
X331090Y477893D02*
X347440D01*
X347600Y401873D02*
X376620D01*
X337260D02*
X347600D01*
X331090Y408043D02*
X337260Y401873D01*
X421260Y505173D02*
X459020D01*
X459360Y505513D01*
X458860Y398493D02*
X459360Y398993D01*
X421260Y398493D02*
X458860D01*
X386234Y363593D02*
X402134Y379493D01*
X367920Y363593D02*
X386234D01*
X361570Y357243D02*
X367920Y363593D01*
X353950Y361053D02*
X362840Y369943D01*
X353950Y297543D02*
X376620Y274873D01*
X353950Y297543D02*
Y361053D01*
X361570Y315323D02*
Y357243D01*
Y315323D02*
X376620Y300273D01*
X362840Y384696D02*
X368408Y390263D01*
X362840Y369943D02*
Y384696D01*
X402134Y379493D02*
X421260D01*
X368408Y390263D02*
X386970D01*
X347440Y477893D02*
X347600Y477733D01*
X346670Y478073D02*
X376620D01*
X346330Y477733D02*
X346670Y478073D01*
X437800Y306573D02*
X466620D01*
X437770Y306603D02*
X437800Y306573D01*
X438060Y281173D02*
X466620D01*
X437770Y280883D02*
X438060Y281173D01*
X85440Y261993D02*
X87250D01*
X94870D01*
X61850Y260883D02*
X87250D01*
X32620Y281173D02*
X61560D01*
X61850Y280883D01*
Y306603D02*
X87250D01*
X90500Y303353D02*
X93172D01*
X87250Y306603D02*
X90500Y303353D01*
X93172D02*
X103592Y292933D01*
X32620Y306573D02*
X51858Y325810D01*
X57028D02*
X57660Y326443D01*
X51858Y325810D02*
X57028D01*
X84330Y260883D02*
X85440Y261993D01*
X412370Y326603D02*
X437770D01*
X377947Y349747D02*
X386477D01*
X406370Y329853D01*
X411500D02*
X414910Y326443D01*
X406370Y329853D02*
X411500D01*
X376620Y351073D02*
X377947Y349747D01*
X412370Y260883D02*
X437770D01*
X406420Y264133D02*
X409120D01*
X395860Y274693D02*
X406420Y264133D01*
X395860Y274693D02*
Y316603D01*
X409120Y264133D02*
X412370Y260883D01*
X195200Y241673D02*
X352680D01*
X367927Y226426D01*
X374267D02*
X376620Y224073D01*
X367927Y226426D02*
X374267D01*
X254620Y776613D02*
Y790313D01*
X244620Y775999D02*
Y790313D01*
X234620Y775528D02*
Y790313D01*
X224620Y774013D02*
Y790313D01*
X264848Y777410D02*
Y790086D01*
X274620Y777456D02*
Y790313D01*
X195200Y251833D02*
X368713D01*
X374267Y251826D02*
X376620Y249473D01*
X368719Y251826D02*
X374267D01*
X368713Y251833D02*
X368719Y251826D01*
X105030Y206483D02*
X122620Y224073D01*
X21780Y451913D02*
Y715548D01*
Y451913D02*
X122620Y351073D01*
X27780Y471313D02*
X122620Y376473D01*
X27780Y471313D02*
Y713063D01*
X135350Y573143D02*
X138050Y570443D01*
X33780Y490713D02*
X122620Y401873D01*
X138050Y290303D02*
Y570443D01*
X33780Y490713D02*
Y710229D01*
X122620Y274873D02*
X138050Y290303D01*
X388770Y323693D02*
X395860Y316603D01*
X376620Y325673D02*
X378600Y323693D01*
X388770D01*
X135350Y573143D02*
X154720D01*
X135350Y602353D02*
X156490D01*
X39780Y704443D02*
Y707743D01*
X51780Y548913D02*
Y702773D01*
X45780Y699525D02*
Y705258D01*
X39780Y510113D02*
Y704443D01*
X45780Y529513D02*
Y699525D01*
X39780Y510113D02*
X122620Y427273D01*
X51780Y548913D02*
X122620Y478073D01*
X45780Y529513D02*
X122620Y452673D01*
D85*
X144910Y786000D02*
X205000D01*
X116109Y814801D02*
X144910Y786000D01*
X89590Y814801D02*
X116109D01*
X123804Y834390D02*
X206379D01*
X89590Y824801D02*
X114216D01*
X123804Y834390D01*
X206379D02*
X214053Y826716D01*
X215000D01*
Y790313D02*
Y826716D01*
X205000Y786000D02*
Y790313D01*
Y807183D01*
X351623Y834390D02*
X361590Y824423D01*
X284620Y821313D02*
X297697Y834390D01*
X351623D01*
X361590Y824423D02*
X362090D01*
X362840Y823673D01*
Y823173D02*
Y823673D01*
X284620Y790313D02*
Y821313D01*
D86*
X465640Y583233D02*
X488570Y606163D01*
X432138Y810000D02*
X477000D01*
X488570Y798430D01*
X427337Y805199D02*
X432138Y810000D01*
X419030Y805199D02*
X427337D01*
X488570Y606163D02*
Y798430D01*
D87*
X373635Y778088D02*
X374270Y777453D01*
X373635Y778088D02*
Y789678D01*
X372340Y803173D02*
X372670Y802843D01*
Y790643D02*
Y802843D01*
Y790643D02*
X373635Y789678D01*
D88*
X123000Y528873D02*
D03*
D89*
Y503473D02*
D03*
Y478073D02*
D03*
Y452673D02*
D03*
Y427273D02*
D03*
Y401873D02*
D03*
Y376473D02*
D03*
Y351073D02*
D03*
Y325673D02*
D03*
Y300273D02*
D03*
Y274873D02*
D03*
Y249473D02*
D03*
Y224073D02*
D03*
Y198673D02*
D03*
Y173273D02*
D03*
Y147873D02*
D03*
Y122473D02*
D03*
Y97073D02*
D03*
Y71673D02*
D03*
X377000D02*
D03*
Y97073D02*
D03*
Y122473D02*
D03*
Y147873D02*
D03*
Y173273D02*
D03*
Y198673D02*
D03*
Y224073D02*
D03*
Y249473D02*
D03*
Y274873D02*
D03*
Y300273D02*
D03*
Y325673D02*
D03*
Y351073D02*
D03*
Y376473D02*
D03*
Y401873D02*
D03*
Y427273D02*
D03*
Y452673D02*
D03*
Y478073D02*
D03*
Y503473D02*
D03*
Y528873D02*
D03*
D90*
X197480Y673473D02*
D03*
X149480D02*
D03*
X101481D02*
D03*
D91*
X281560Y692523D02*
D03*
D92*
X331560D02*
D03*
D93*
X466620Y306573D02*
D03*
Y281173D02*
D03*
Y255773D02*
D03*
Y230373D02*
D03*
X32620D02*
D03*
Y255773D02*
D03*
Y281173D02*
D03*
Y306573D02*
D03*
X425000Y190000D02*
D03*
X450400D02*
D03*
X475800D02*
D03*
X425000Y120000D02*
D03*
X450400D02*
D03*
X475800D02*
D03*
X425000Y155000D02*
D03*
X450400D02*
D03*
X475800D02*
D03*
X75000Y190000D02*
D03*
X49600D02*
D03*
X24200D02*
D03*
X75000Y155000D02*
D03*
X49600D02*
D03*
X24200D02*
D03*
X75000Y120000D02*
D03*
X49600D02*
D03*
X24200D02*
D03*
D94*
X153897Y131291D02*
D03*
X153060Y330200D02*
D03*
X402590Y572770D02*
D03*
X250000Y811530D02*
D03*
X85000Y60000D02*
D03*
X437770Y215800D02*
D03*
X101600Y793299D02*
D03*
X422000Y826701D02*
D03*
X194564Y768096D02*
D03*
X167386D02*
D03*
X138176D02*
D03*
X421000Y793699D02*
D03*
X296418Y779018D02*
D03*
X304546Y272796D02*
D03*
X337312Y501650D02*
D03*
Y548386D02*
D03*
X60590Y787300D02*
D03*
X32590D02*
D03*
Y832300D02*
D03*
X60590D02*
D03*
X323850Y803910D02*
D03*
X181610D02*
D03*
Y820420D02*
D03*
X215000Y826716D02*
D03*
X439030Y832700D02*
D03*
X467030D02*
D03*
X439030Y787700D02*
D03*
X467030D02*
D03*
X253620Y80383D02*
D03*
Y60063D02*
D03*
X249810Y295013D02*
D03*
Y274693D02*
D03*
X295530Y582033D02*
D03*
X340638Y581929D02*
D03*
X459620Y559833D02*
D03*
X374620Y559828D02*
D03*
X61850Y215800D02*
D03*
X82170Y333113D02*
D03*
X96140Y279773D02*
D03*
X338820Y103243D02*
D03*
X153060D02*
D03*
Y302633D02*
D03*
X338820D02*
D03*
X417450Y300093D02*
D03*
X407290Y287393D02*
D03*
X459360Y371743D02*
D03*
X202820Y500753D02*
D03*
Y463923D02*
D03*
X216560Y447413D02*
D03*
X459360Y478263D02*
D03*
X304420Y813173D02*
D03*
X373000Y790313D02*
D03*
X209170Y424553D02*
D03*
X290450D02*
D03*
Y343273D02*
D03*
X209170D02*
D03*
X290450Y383913D02*
D03*
X209170D02*
D03*
X249814Y423526D02*
D03*
X249810Y343273D02*
D03*
Y385172D02*
D03*
X270130Y363593D02*
D03*
Y404233D02*
D03*
X229490Y363593D02*
D03*
Y404233D02*
D03*
X233300Y188333D02*
D03*
Y147693D02*
D03*
X273940Y188333D02*
D03*
Y147693D02*
D03*
X253620Y169272D02*
D03*
Y127373D02*
D03*
X253624Y207626D02*
D03*
X212980Y168013D02*
D03*
X294260D02*
D03*
X212980Y127373D02*
D03*
X294260D02*
D03*
Y208653D02*
D03*
X212980D02*
D03*
X108100Y573143D02*
D03*
Y602353D02*
D03*
D95*
X281940Y499110D02*
D03*
X10160Y821690D02*
D03*
X80140Y842140D02*
D03*
X400500Y805250D02*
D03*
X205000Y807183D02*
D03*
X273940Y470273D02*
D03*
X341350Y457483D02*
D03*
X331090Y469113D02*
D03*
X301880Y457573D02*
D03*
X302283Y469810D02*
D03*
X259620Y455383D02*
D03*
X281560Y597273D02*
D03*
X335498Y568446D02*
D03*
X254890Y475353D02*
D03*
X244730Y485513D02*
D03*
X254890D02*
D03*
X244730Y475353D02*
D03*
X331090Y477893D02*
D03*
X291720D02*
D03*
X94870Y261993D02*
D03*
X103592Y292933D02*
D03*
X195200Y261993D02*
D03*
X159640D02*
D03*
X195200Y241673D02*
D03*
Y251833D02*
D03*
M02*
