G04*
G04 #@! TF.GenerationSoftware,Altium Limited,Altium Designer,24.9.1 (31)*
G04*
G04 Layer_Color=8388736*
%FSLAX44Y44*%
%MOMM*%
G71*
G04*
G04 #@! TF.SameCoordinates,04FD8115-AAF2-45E8-BBFE-61AFBE82ED08*
G04*
G04*
G04 #@! TF.FilePolarity,Positive*
G04*
G01*
G75*
%ADD11C,0.4000*%
%ADD13C,0.1500*%
%ADD84C,0.3000*%
%ADD96C,0.6000*%
G36*
X152325Y684767D02*
X173729D01*
Y684745D01*
X173762D01*
Y660346D01*
X172754D01*
X171243Y660362D01*
X149247D01*
Y660773D01*
X125481D01*
Y684773D01*
X149285D01*
Y684839D01*
X152325D01*
Y684767D01*
D02*
G37*
G36*
X243625Y622930D02*
X235525D01*
Y624955D01*
X243625D01*
Y622930D01*
D02*
G37*
G36*
X278838Y625068D02*
X281600D01*
Y623043D01*
X278838D01*
Y617193D01*
X276813D01*
Y623043D01*
X273500D01*
Y625068D01*
X276813D01*
Y630693D01*
X278838D01*
Y625068D01*
D02*
G37*
%LPC*%
G36*
X170723Y681728D02*
X152325D01*
Y663401D01*
X170723D01*
Y681728D01*
D02*
G37*
%LPD*%
D11*
X411103Y785496D02*
G03*
X411103Y785496I-1999J0D01*
G01*
X92895Y834504D02*
G03*
X92895Y834504I-1999J0D01*
G01*
D13*
X260370Y498374D02*
G03*
X260370Y498374I-749J0D01*
G01*
D84*
X403711Y577174D02*
G03*
X403711Y577174I-1501J0D01*
G01*
D96*
X231474Y62592D02*
G03*
X231474Y62592I-3000J0D01*
G01*
X227664Y277222D02*
G03*
X227664Y277222I-3000J0D01*
G01*
M02*
