G04*
G04 #@! TF.GenerationSoftware,Altium Limited,Altium Designer,24.9.1 (31)*
G04*
G04 Layer_Color=16711935*
%FSLAX44Y44*%
%MOMM*%
G71*
G04*
G04 #@! TF.SameCoordinates,04FD8115-AAF2-45E8-BBFE-61AFBE82ED08*
G04*
G04*
G04 #@! TF.FilePolarity,Negative*
G04*
G01*
G75*
%ADD71R,1.7332X1.7332*%
%ADD72C,1.7332*%
%ADD73O,1.8000X3.0000*%
%ADD74R,2.6032X2.6032*%
%ADD75C,2.6032*%
%ADD76C,2.0632*%
%ADD77C,1.2032*%
%ADD78C,0.8032*%
D71*
X123000Y528873D02*
D03*
D72*
Y503473D02*
D03*
Y478073D02*
D03*
Y452673D02*
D03*
Y427273D02*
D03*
Y401873D02*
D03*
Y376473D02*
D03*
Y351073D02*
D03*
Y325673D02*
D03*
Y300273D02*
D03*
Y274873D02*
D03*
Y249473D02*
D03*
Y224073D02*
D03*
Y198673D02*
D03*
Y173273D02*
D03*
Y147873D02*
D03*
Y122473D02*
D03*
Y97073D02*
D03*
Y71673D02*
D03*
X377000D02*
D03*
Y97073D02*
D03*
Y122473D02*
D03*
Y147873D02*
D03*
Y173273D02*
D03*
Y198673D02*
D03*
Y224073D02*
D03*
Y249473D02*
D03*
Y274873D02*
D03*
Y300273D02*
D03*
Y325673D02*
D03*
Y351073D02*
D03*
Y376473D02*
D03*
Y401873D02*
D03*
Y427273D02*
D03*
Y452673D02*
D03*
Y478073D02*
D03*
Y503473D02*
D03*
Y528873D02*
D03*
D73*
X197480Y673473D02*
D03*
X149480D02*
D03*
X101481D02*
D03*
D74*
X281560Y692523D02*
D03*
D75*
X331560D02*
D03*
D76*
X466620Y306573D02*
D03*
Y281173D02*
D03*
Y255773D02*
D03*
Y230373D02*
D03*
X32620D02*
D03*
Y255773D02*
D03*
Y281173D02*
D03*
Y306573D02*
D03*
X425000Y190000D02*
D03*
X450400D02*
D03*
X475800D02*
D03*
X425000Y120000D02*
D03*
X450400D02*
D03*
X475800D02*
D03*
X425000Y155000D02*
D03*
X450400D02*
D03*
X475800D02*
D03*
X75000Y190000D02*
D03*
X49600D02*
D03*
X24200D02*
D03*
X75000Y155000D02*
D03*
X49600D02*
D03*
X24200D02*
D03*
X75000Y120000D02*
D03*
X49600D02*
D03*
X24200D02*
D03*
D77*
X153897Y131291D02*
D03*
X153060Y330200D02*
D03*
X402590Y572770D02*
D03*
X250000Y811530D02*
D03*
X85000Y60000D02*
D03*
X437770Y215800D02*
D03*
X101600Y793299D02*
D03*
X422000Y826701D02*
D03*
X194564Y768096D02*
D03*
X167386D02*
D03*
X138176D02*
D03*
X421000Y793699D02*
D03*
X296418Y779018D02*
D03*
X304546Y272796D02*
D03*
X337312Y501650D02*
D03*
Y548386D02*
D03*
X60590Y787300D02*
D03*
X32590D02*
D03*
Y832300D02*
D03*
X60590D02*
D03*
X323850Y803910D02*
D03*
X181610D02*
D03*
Y820420D02*
D03*
X215000Y826716D02*
D03*
X439030Y832700D02*
D03*
X467030D02*
D03*
X439030Y787700D02*
D03*
X467030D02*
D03*
X253620Y80383D02*
D03*
Y60063D02*
D03*
X249810Y295013D02*
D03*
Y274693D02*
D03*
X295530Y582033D02*
D03*
X340638Y581929D02*
D03*
X459620Y559833D02*
D03*
X374620Y559828D02*
D03*
X61850Y215800D02*
D03*
X82170Y333113D02*
D03*
X96140Y279773D02*
D03*
X338820Y103243D02*
D03*
X153060D02*
D03*
Y302633D02*
D03*
X338820D02*
D03*
X417450Y300093D02*
D03*
X407290Y287393D02*
D03*
X459360Y371743D02*
D03*
X202820Y500753D02*
D03*
Y463923D02*
D03*
X216560Y447413D02*
D03*
X459360Y478263D02*
D03*
X304420Y813173D02*
D03*
X373000Y790313D02*
D03*
X209170Y424553D02*
D03*
X290450D02*
D03*
Y343273D02*
D03*
X209170D02*
D03*
X290450Y383913D02*
D03*
X209170D02*
D03*
X249814Y423526D02*
D03*
X249810Y343273D02*
D03*
Y385172D02*
D03*
X270130Y363593D02*
D03*
Y404233D02*
D03*
X229490Y363593D02*
D03*
Y404233D02*
D03*
X233300Y188333D02*
D03*
Y147693D02*
D03*
X273940Y188333D02*
D03*
Y147693D02*
D03*
X253620Y169272D02*
D03*
Y127373D02*
D03*
X253624Y207626D02*
D03*
X212980Y168013D02*
D03*
X294260D02*
D03*
X212980Y127373D02*
D03*
X294260D02*
D03*
Y208653D02*
D03*
X212980D02*
D03*
X108100Y573143D02*
D03*
Y602353D02*
D03*
D78*
X281940Y499110D02*
D03*
X10160Y821690D02*
D03*
X80140Y842140D02*
D03*
X400500Y805250D02*
D03*
X205000Y807183D02*
D03*
X273940Y470273D02*
D03*
X341350Y457483D02*
D03*
X331090Y469113D02*
D03*
X301880Y457573D02*
D03*
X302283Y469810D02*
D03*
X259620Y455383D02*
D03*
X281560Y597273D02*
D03*
X335498Y568446D02*
D03*
X254890Y475353D02*
D03*
X244730Y485513D02*
D03*
X254890D02*
D03*
X244730Y475353D02*
D03*
X331090Y477893D02*
D03*
X291720D02*
D03*
X94870Y261993D02*
D03*
X103592Y292933D02*
D03*
X195200Y261993D02*
D03*
X159640D02*
D03*
X195200Y241673D02*
D03*
Y251833D02*
D03*
M02*
