M48
;Layer_Color=9474304
;FILE_FORMAT=4:2
METRIC,LZ
;TYPE=PLATED
T01F00S00C0.30
T02F00S00C0.50
T03F00S00C0.60
T04F00S00C1.02
T06F00S00C1.28
T07F00S00C2.10
%
T01
X001596Y00262
X001952
Y002518
Y002417
X002596Y004554
X002549Y004754
Y004855
X002447
Y004754
X002739Y004703
X002917Y004779
X003023Y004698
X003019Y004576
X003414Y004575
X003311Y004691
Y004779
X002819Y004991
X001036Y002929
X000949Y00262
X000801Y008421
X000102Y008217
X00205Y008072
X004005Y008053
X003355Y005684
X002816Y005973
T02
X00085Y0006
X0025Y008115
T03
X001531Y001032
X001539Y001313
X00213Y001274
X002536
X002943
X003388Y001032
X002536Y000804
Y000601
X002333Y001477
Y001883
X002536Y001693
X002536Y002076
X002739Y001883
Y001477
X002943Y00168
Y002087
X003045Y002728
X002498Y002747
Y00295
Y003433
X002905
Y003839
Y004246
X002701Y004042
X002498Y003852
X002498Y004235
X002295Y004042
X002092Y004246
X002166Y004474
X002028Y004639
Y005008
X002092Y003839
Y003433
X002295Y003636
X002701
X003388Y003026
X004175Y003001
X004073Y002874
X004378Y002158
X004594Y003717
Y004783
X003373Y005017
X001531Y003302
Y003026
X00213Y002087
Y00168
X000619Y002158
X000961Y002798
X000822Y003331
X001081Y005731
Y006024
X001382Y007681
X001016Y007933
X000606Y007873
X000326
Y008323
X000606
X001816Y008204
Y008039
X001946Y007681
X001674
X00215Y008267
X003044Y008132
X003238Y008039
X002964Y00779
X00373Y007903
X00421Y007937
X00439Y007877
X00467
Y008327
X00439
X00422Y008267
X004026Y005728
X003746Y005598
X003373Y005484
X003406Y005819
X002955Y00582
X004596Y005598
T04
X00123Y000717
Y000971
Y001225
X00377
Y000971
Y000717
Y001479
Y001733
Y001987
Y002241
Y002495
Y002749
Y003003
Y003257
Y003511
Y003765
Y004019
Y004273
Y004527
Y004781
Y005035
Y005289
X00123
Y005035
Y004781
Y004527
Y004273
Y004019
Y003765
Y003511
Y003257
Y003003
Y002749
Y002495
Y002241
Y001987
Y001733
Y001479
T06
X000242Y0012
X000496
X00075
X00425
X004504
X004758
Y00155
X004504
X00425
Y0019
X004504
X004758
X004666Y002304
Y002558
Y002812
Y003066
X000326
Y002812
Y002558
Y002304
X000242Y0019
X000496
X00075
Y00155
X000496
X000242
T07
X002816Y006925
X003316
M30
