G04*
G04 #@! TF.GenerationSoftware,Altium Limited,Altium Designer,24.9.1 (31)*
G04*
G04 Layer_Color=32896*
%FSLAX44Y44*%
%MOMM*%
G71*
G04*
G04 #@! TF.SameCoordinates,04FD8115-AAF2-45E8-BBFE-61AFBE82ED08*
G04*
G04*
G04 #@! TF.FilePolarity,Positive*
G04*
G01*
G75*
%ADD98C,0.0500*%
D98*
X153060Y139310D02*
X181460D01*
Y122310D02*
Y139310D01*
X153060Y122310D02*
X181460D01*
X153060D02*
Y139310D01*
Y94743D02*
Y111743D01*
Y94743D02*
X181460D01*
Y111743D01*
X153060D02*
X181460D01*
X153060Y338700D02*
X181460D01*
Y321700D02*
Y338700D01*
X153060Y321700D02*
X181460D01*
X153060D02*
Y338700D01*
X216560Y438913D02*
X244960D01*
X216560D02*
Y455913D01*
X244960D01*
Y438913D02*
Y455913D01*
X366120Y559828D02*
Y588228D01*
X383120D01*
Y559828D02*
Y588228D01*
X366120Y559828D02*
X383120D01*
X451120Y559833D02*
Y588233D01*
X468120D01*
Y559833D02*
Y588233D01*
X451120Y559833D02*
X468120D01*
X409760Y514673D02*
X432760D01*
X409760Y476673D02*
Y514673D01*
Y476673D02*
X432760D01*
Y514673D01*
X409760Y407993D02*
X432760D01*
X409760Y369993D02*
Y407993D01*
Y369993D02*
X432760D01*
Y407993D01*
X310420Y294133D02*
X338820D01*
X310420D02*
Y311133D01*
X338820D01*
Y294133D02*
Y311133D01*
X70350Y215800D02*
Y244200D01*
X53350Y215800D02*
X70350D01*
X53350D02*
Y244200D01*
X70350D01*
X446270Y215800D02*
Y244200D01*
X429270Y215800D02*
X446270D01*
X429270D02*
Y244200D01*
X446270D01*
X153060Y311133D02*
X181460D01*
Y294133D02*
Y311133D01*
X153060Y294133D02*
X181460D01*
X153060D02*
Y311133D01*
X146990Y590853D02*
Y613853D01*
Y590853D02*
X184990D01*
Y613853D01*
X146990D02*
X184990D01*
X228370Y459123D02*
X270870D01*
X228370D02*
Y501623D01*
X270870D01*
Y459123D02*
Y501623D01*
X197510Y464313D02*
Y481313D01*
Y464313D02*
X225910D01*
Y481313D01*
X197510D02*
X225910D01*
Y483363D02*
Y500363D01*
X197510D02*
X225910D01*
X197510Y483363D02*
Y500363D01*
Y483363D02*
X225910D01*
X338820Y94743D02*
Y111743D01*
X310420D02*
X338820D01*
X310420Y94743D02*
Y111743D01*
Y94743D02*
X338820D01*
M02*
