G04*
G04 #@! TF.GenerationSoftware,Altium Limited,Altium Designer,24.9.1 (31)*
G04*
G04 Layer_Color=128*
%FSLAX44Y44*%
%MOMM*%
G71*
G04*
G04 #@! TF.SameCoordinates,04FD8115-AAF2-45E8-BBFE-61AFBE82ED08*
G04*
G04*
G04 #@! TF.FilePolarity,Positive*
G04*
G01*
G75*
%ADD17C,0.1270*%
D17*
X117900Y528873D02*
X128100D01*
X123000Y523773D02*
Y533973D01*
X117900Y503473D02*
X128100D01*
X123000Y498373D02*
Y508573D01*
X117900Y478073D02*
X128100D01*
X123000Y472973D02*
Y483173D01*
X117900Y452673D02*
X128100D01*
X123000Y447573D02*
Y457773D01*
X117900Y427273D02*
X128100D01*
X123000Y422173D02*
Y432373D01*
X117900Y401873D02*
X128100D01*
X123000Y396773D02*
Y406973D01*
X117900Y376473D02*
X128100D01*
X123000Y371373D02*
Y381573D01*
X117900Y351073D02*
X128100D01*
X123000Y345973D02*
Y356173D01*
X117900Y325673D02*
X128100D01*
X123000Y320573D02*
Y330773D01*
X117900Y300273D02*
X128100D01*
X123000Y295173D02*
Y305373D01*
X117900Y274873D02*
X128100D01*
X123000Y269773D02*
Y279973D01*
X117900Y249473D02*
X128100D01*
X123000Y244373D02*
Y254573D01*
X117900Y224073D02*
X128100D01*
X123000Y218973D02*
Y229173D01*
X117900Y198673D02*
X128100D01*
X123000Y193573D02*
Y203773D01*
X117900Y173273D02*
X128100D01*
X123000Y168173D02*
Y178373D01*
X117900Y147873D02*
X128100D01*
X123000Y142773D02*
Y152973D01*
X117900Y122473D02*
X128100D01*
X123000Y117373D02*
Y127573D01*
X117900Y97073D02*
X128100D01*
X123000Y91973D02*
Y102173D01*
X117900Y71673D02*
X128100D01*
X123000Y66573D02*
Y76773D01*
X371900Y71673D02*
X382100D01*
X377000Y66573D02*
Y76773D01*
X371900Y97073D02*
X382100D01*
X377000Y91973D02*
Y102173D01*
X371900Y122473D02*
X382100D01*
X377000Y117373D02*
Y127573D01*
X371900Y147873D02*
X382100D01*
X377000Y142773D02*
Y152973D01*
X371900Y173273D02*
X382100D01*
X377000Y168173D02*
Y178373D01*
X371900Y198673D02*
X382100D01*
X377000Y193573D02*
Y203773D01*
X371900Y224073D02*
X382100D01*
X377000Y218973D02*
Y229173D01*
X371900Y249473D02*
X382100D01*
X377000Y244373D02*
Y254573D01*
X371900Y274873D02*
X382100D01*
X377000Y269773D02*
Y279973D01*
X371900Y300273D02*
X382100D01*
X377000Y295173D02*
Y305373D01*
X371900Y325673D02*
X382100D01*
X377000Y320573D02*
Y330773D01*
X371900Y351073D02*
X382100D01*
X377000Y345973D02*
Y356173D01*
X371900Y376473D02*
X382100D01*
X377000Y371373D02*
Y381573D01*
X371900Y401873D02*
X382100D01*
X377000Y396773D02*
Y406973D01*
X371900Y427273D02*
X382100D01*
X377000Y422173D02*
Y432373D01*
X371900Y452673D02*
X382100D01*
X377000Y447573D02*
Y457773D01*
X371900Y478073D02*
X382100D01*
X377000Y472973D02*
Y483173D01*
X371900Y503473D02*
X382100D01*
X377000Y498373D02*
Y508573D01*
X371900Y528873D02*
X382100D01*
X377000Y523773D02*
Y533973D01*
X191980Y673473D02*
X202980D01*
X197480Y667973D02*
Y678973D01*
X143980Y673473D02*
X154980D01*
X149480Y667973D02*
Y678973D01*
X95981Y673473D02*
X106981D01*
X101481Y667973D02*
Y678973D01*
X271060Y692523D02*
X292060D01*
X281560Y682023D02*
Y703023D01*
X321060Y692523D02*
X342060D01*
X331560Y682023D02*
Y703023D01*
X460220Y306573D02*
X473020D01*
X466620Y300173D02*
Y312973D01*
X460220Y281173D02*
X473020D01*
X466620Y274773D02*
Y287573D01*
X460220Y255773D02*
X473020D01*
X466620Y249373D02*
Y262173D01*
X460220Y230373D02*
X473020D01*
X466620Y223973D02*
Y236773D01*
X26220Y230373D02*
X39020D01*
X32620Y223973D02*
Y236773D01*
X26220Y255773D02*
X39020D01*
X32620Y249373D02*
Y262173D01*
X26220Y281173D02*
X39020D01*
X32620Y274773D02*
Y287573D01*
X26220Y306573D02*
X39020D01*
X32620Y300173D02*
Y312973D01*
X418600Y190000D02*
X431400D01*
X425000Y183600D02*
Y196400D01*
X444000Y190000D02*
X456800D01*
X450400Y183600D02*
Y196400D01*
X469400Y190000D02*
X482200D01*
X475800Y183600D02*
Y196400D01*
X418600Y120000D02*
X431400D01*
X425000Y113600D02*
Y126400D01*
X444000Y120000D02*
X456800D01*
X450400Y113600D02*
Y126400D01*
X469400Y120000D02*
X482200D01*
X475800Y113600D02*
Y126400D01*
X418600Y155000D02*
X431400D01*
X425000Y148600D02*
Y161400D01*
X444000Y155000D02*
X456800D01*
X450400Y148600D02*
Y161400D01*
X469400Y155000D02*
X482200D01*
X475800Y148600D02*
Y161400D01*
X68600Y190000D02*
X81400D01*
X75000Y183600D02*
Y196400D01*
X43200Y190000D02*
X56000D01*
X49600Y183600D02*
Y196400D01*
X17800Y190000D02*
X30600D01*
X24200Y183600D02*
Y196400D01*
X68600Y155000D02*
X81400D01*
X75000Y148600D02*
Y161400D01*
X43200Y155000D02*
X56000D01*
X49600Y148600D02*
Y161400D01*
X17800Y155000D02*
X30600D01*
X24200Y148600D02*
Y161400D01*
X68600Y120000D02*
X81400D01*
X75000Y113600D02*
Y126400D01*
X43200Y120000D02*
X56000D01*
X49600Y113600D02*
Y126400D01*
X17800Y120000D02*
X30600D01*
X24200Y113600D02*
Y126400D01*
X150898Y131291D02*
X156897D01*
X153897Y128291D02*
Y134291D01*
X150060Y330200D02*
X156060D01*
X153060Y327200D02*
Y333200D01*
X280440Y499110D02*
X283440D01*
X281940Y497610D02*
Y500610D01*
X399590Y572770D02*
X405590D01*
X402590Y569770D02*
Y575770D01*
X247500Y811530D02*
X252500D01*
X250000Y809030D02*
Y814030D01*
X82500Y60000D02*
X87500D01*
X85000Y57500D02*
Y62500D01*
X434770Y215800D02*
X440770D01*
X437770Y212800D02*
Y218800D01*
X8660Y821690D02*
X11660D01*
X10160Y820190D02*
Y823190D01*
X78640Y842140D02*
X81640D01*
X80140Y840640D02*
Y843640D01*
X98600Y793299D02*
X104600D01*
X101600Y790299D02*
Y796299D01*
X419000Y826701D02*
X425000D01*
X422000Y823701D02*
Y829701D01*
X191564Y768096D02*
X197564D01*
X194564Y765096D02*
Y771096D01*
X164386Y768096D02*
X170386D01*
X167386Y765096D02*
Y771096D01*
X135176Y768096D02*
X141176D01*
X138176Y765096D02*
Y771096D01*
X399000Y805250D02*
X402000D01*
X400500Y803750D02*
Y806750D01*
X418000Y793699D02*
X424000D01*
X421000Y790699D02*
Y796699D01*
X203500Y807183D02*
X206500D01*
X205000Y805683D02*
Y808683D01*
X293418Y779018D02*
X299418D01*
X296418Y776018D02*
Y782018D01*
X272440Y470273D02*
X275440D01*
X273940Y468773D02*
Y471773D01*
X301546Y272796D02*
X307546D01*
X304546Y269796D02*
Y275796D01*
X334312Y501650D02*
X340312D01*
X337312Y498650D02*
Y504650D01*
X334312Y548386D02*
X340312D01*
X337312Y545386D02*
Y551386D01*
X57590Y787300D02*
X63590D01*
X60590Y784300D02*
Y790300D01*
X29590Y787300D02*
X35590D01*
X32590Y784300D02*
Y790300D01*
X29590Y832300D02*
X35590D01*
X32590Y829300D02*
Y835300D01*
X57590Y832300D02*
X63590D01*
X60590Y829300D02*
Y835300D01*
X320850Y803910D02*
X326850D01*
X323850Y800910D02*
Y806910D01*
X178610Y803910D02*
X184610D01*
X181610Y800910D02*
Y806910D01*
X178610Y820420D02*
X184610D01*
X181610Y817420D02*
Y823420D01*
X212000Y826716D02*
X218000D01*
X215000Y823716D02*
Y829716D01*
X436030Y832700D02*
X442030D01*
X439030Y829700D02*
Y835700D01*
X464030Y832700D02*
X470030D01*
X467030Y829700D02*
Y835700D01*
X436030Y787700D02*
X442030D01*
X439030Y784700D02*
Y790700D01*
X464030Y787700D02*
X470030D01*
X467030Y784700D02*
Y790700D01*
X339850Y457483D02*
X342850D01*
X341350Y455983D02*
Y458983D01*
X329590Y469113D02*
X332590D01*
X331090Y467613D02*
Y470613D01*
X300380Y457573D02*
X303380D01*
X301880Y456073D02*
Y459073D01*
X300783Y469810D02*
X303783D01*
X302283Y468310D02*
Y471310D01*
X258120Y455383D02*
X261120D01*
X259620Y453883D02*
Y456883D01*
X250620Y80383D02*
X256620D01*
X253620Y77383D02*
Y83383D01*
X250620Y60063D02*
X256620D01*
X253620Y57063D02*
Y63063D01*
X246810Y295013D02*
X252810D01*
X249810Y292013D02*
Y298013D01*
X246810Y274693D02*
X252810D01*
X249810Y271693D02*
Y277693D01*
X280060Y597273D02*
X283060D01*
X281560Y595773D02*
Y598773D01*
X292530Y582033D02*
X298530D01*
X295530Y579033D02*
Y585033D01*
X333998Y568446D02*
X336998D01*
X335498Y566946D02*
Y569946D01*
X337638Y581929D02*
X343638D01*
X340638Y578929D02*
Y584929D01*
X456620Y559833D02*
X462620D01*
X459620Y556833D02*
Y562833D01*
X371620Y559828D02*
X377620D01*
X374620Y556829D02*
Y562828D01*
X253390Y475353D02*
X256390D01*
X254890Y473853D02*
Y476853D01*
X243230Y485513D02*
X246230D01*
X244730Y484013D02*
Y487013D01*
X253390Y485513D02*
X256390D01*
X254890Y484013D02*
Y487013D01*
X243230Y475353D02*
X246230D01*
X244730Y473853D02*
Y476853D01*
X58850Y215800D02*
X64850D01*
X61850Y212800D02*
Y218800D01*
X79170Y333113D02*
X85170D01*
X82170Y330113D02*
Y336113D01*
X93140Y279773D02*
X99140D01*
X96140Y276773D02*
Y282773D01*
X335820Y103243D02*
X341820D01*
X338820Y100243D02*
Y106243D01*
X150060Y103243D02*
X156060D01*
X153060Y100243D02*
Y106243D01*
X150060Y302633D02*
X156060D01*
X153060Y299633D02*
Y305633D01*
X335820Y302633D02*
X341820D01*
X338820Y299633D02*
Y305633D01*
X414450Y300093D02*
X420450D01*
X417450Y297093D02*
Y303093D01*
X404290Y287393D02*
X410290D01*
X407290Y284393D02*
Y290393D01*
X456360Y371743D02*
X462360D01*
X459360Y368743D02*
Y374743D01*
X199820Y500753D02*
X205820D01*
X202820Y497753D02*
Y503753D01*
X199820Y463923D02*
X205820D01*
X202820Y460923D02*
Y466923D01*
X213560Y447413D02*
X219560D01*
X216560Y444413D02*
Y450413D01*
X456360Y478263D02*
X462360D01*
X459360Y475263D02*
Y481263D01*
X301420Y813173D02*
X307420D01*
X304420Y810173D02*
Y816173D01*
X370000Y790313D02*
X376000D01*
X373000Y787313D02*
Y793313D01*
X329590Y477893D02*
X332590D01*
X331090Y476393D02*
Y479393D01*
X290220Y477893D02*
X293220D01*
X291720Y476393D02*
Y479393D01*
X93370Y261993D02*
X96370D01*
X94870Y260493D02*
Y263493D01*
X102092Y292933D02*
X105092D01*
X103592Y291433D02*
Y294433D01*
X193700Y261993D02*
X196700D01*
X195200Y260493D02*
Y263493D01*
X158140Y261993D02*
X161140D01*
X159640Y260493D02*
Y263493D01*
X193700Y241673D02*
X196700D01*
X195200Y240173D02*
Y243173D01*
X193700Y251833D02*
X196700D01*
X195200Y250333D02*
Y253333D01*
X206170Y424553D02*
X212170D01*
X209170Y421553D02*
Y427553D01*
X287450Y424553D02*
X293450D01*
X290450Y421553D02*
Y427553D01*
X287450Y343273D02*
X293450D01*
X290450Y340273D02*
Y346273D01*
X206170Y343273D02*
X212170D01*
X209170Y340273D02*
Y346273D01*
X287450Y383913D02*
X293450D01*
X290450Y380913D02*
Y386913D01*
X206170Y383913D02*
X212170D01*
X209170Y380913D02*
Y386913D01*
X246814Y423526D02*
X252814D01*
X249814Y420526D02*
Y426526D01*
X246810Y343273D02*
X252810D01*
X249810Y340273D02*
Y346273D01*
X246810Y385172D02*
X252810D01*
X249810Y382172D02*
Y388172D01*
X267130Y363593D02*
X273130D01*
X270130Y360593D02*
Y366593D01*
X267130Y404233D02*
X273130D01*
X270130Y401233D02*
Y407233D01*
X226490Y363593D02*
X232490D01*
X229490Y360593D02*
Y366593D01*
X226490Y404233D02*
X232490D01*
X229490Y401233D02*
Y407233D01*
X230300Y188333D02*
X236300D01*
X233300Y185333D02*
Y191333D01*
X230300Y147693D02*
X236300D01*
X233300Y144693D02*
Y150693D01*
X270940Y188333D02*
X276940D01*
X273940Y185333D02*
Y191333D01*
X270940Y147693D02*
X276940D01*
X273940Y144693D02*
Y150693D01*
X250620Y169272D02*
X256620D01*
X253620Y166272D02*
Y172272D01*
X250620Y127373D02*
X256620D01*
X253620Y124373D02*
Y130373D01*
X250624Y207626D02*
X256624D01*
X253624Y204626D02*
Y210626D01*
X209980Y168013D02*
X215980D01*
X212980Y165013D02*
Y171013D01*
X291260Y168013D02*
X297260D01*
X294260Y165013D02*
Y171013D01*
X209980Y127373D02*
X215980D01*
X212980Y124373D02*
Y130373D01*
X291260Y127373D02*
X297260D01*
X294260Y124373D02*
Y130373D01*
X291260Y208653D02*
X297260D01*
X294260Y205653D02*
Y211653D01*
X209980Y208653D02*
X215980D01*
X212980Y205653D02*
Y211653D01*
X105100Y573143D02*
X111100D01*
X108100Y570143D02*
Y576143D01*
X105100Y602353D02*
X111100D01*
X108100Y599353D02*
Y605353D01*
M02*
