G04*
G04 #@! TF.GenerationSoftware,Altium Limited,Altium Designer,24.9.1 (31)*
G04*
G04 Layer_Color=255*
%FSLAX44Y44*%
%MOMM*%
G71*
G04*
G04 #@! TF.SameCoordinates,04FD8115-AAF2-45E8-BBFE-61AFBE82ED08*
G04*
G04*
G04 #@! TF.FilePolarity,Positive*
G04*
G01*
G75*
%ADD20R,0.9600X1.3900*%
%ADD21R,10.1220X10.0200*%
%ADD22R,1.5110X3.3000*%
%ADD23R,2.0000X2.0000*%
%ADD24R,1.4500X0.9500*%
%ADD25R,2.5000X0.7000*%
%ADD26R,4.3000X2.5000*%
G04:AMPARAMS|DCode=27|XSize=2.601mm|YSize=2.9997mm|CornerRadius=0.6372mm|HoleSize=0mm|Usage=FLASHONLY|Rotation=180.000|XOffset=0mm|YOffset=0mm|HoleType=Round|Shape=RoundedRectangle|*
%AMROUNDEDRECTD27*
21,1,2.6010,1.7253,0,0,180.0*
21,1,1.3265,2.9997,0,0,180.0*
1,1,1.2745,-0.6632,0.8626*
1,1,1.2745,0.6632,0.8626*
1,1,1.2745,0.6632,-0.8626*
1,1,1.2745,-0.6632,-0.8626*
%
%ADD27ROUNDEDRECTD27*%
G04:AMPARAMS|DCode=28|XSize=0.65mm|YSize=2.032mm|CornerRadius=0.1593mm|HoleSize=0mm|Usage=FLASHONLY|Rotation=180.000|XOffset=0mm|YOffset=0mm|HoleType=Round|Shape=RoundedRectangle|*
%AMROUNDEDRECTD28*
21,1,0.6500,1.7135,0,0,180.0*
21,1,0.3315,2.0320,0,0,180.0*
1,1,0.3185,-0.1658,0.8568*
1,1,0.3185,0.1658,0.8568*
1,1,0.3185,0.1658,-0.8568*
1,1,0.3185,-0.1658,-0.8568*
%
%ADD28ROUNDEDRECTD28*%
%ADD29O,1.1400X3.2261*%
%ADD30R,0.6720X1.5750*%
%ADD31R,1.3900X0.9600*%
%ADD32R,1.4000X1.0000*%
%ADD33R,1.0000X1.4000*%
%ADD34R,0.9500X1.4500*%
%ADD35O,0.3033X0.1200*%
%ADD36O,0.1200X0.3033*%
%ADD37O,0.1200X0.3034*%
%ADD38O,0.1200X0.3033*%
%ADD39O,0.3033X0.1200*%
%ADD40O,0.3033X0.1200*%
%ADD41O,0.3033X0.1200*%
%ADD42O,0.1200X0.3033*%
%ADD43R,0.8000X0.9000*%
%ADD79R,1.7000X1.7000*%
%ADD80R,0.5050X0.2000*%
%ADD81R,0.2000X0.5050*%
%ADD88R,1.5300X1.5300*%
%ADD89C,1.5300*%
%ADD90O,1.7000X2.9000*%
%ADD91R,2.4000X2.4000*%
%ADD92C,2.4000*%
%ADD93C,1.8600*%
D20*
X159360Y130810D02*
D03*
X175160D02*
D03*
Y103243D02*
D03*
X159360D02*
D03*
Y330200D02*
D03*
X175160D02*
D03*
X238660Y447413D02*
D03*
X222860D02*
D03*
X332520Y302633D02*
D03*
X316720D02*
D03*
X159360D02*
D03*
X175160D02*
D03*
X219610Y472813D02*
D03*
X203810D02*
D03*
Y491863D02*
D03*
X219610D02*
D03*
X316720Y103243D02*
D03*
X332520D02*
D03*
D21*
X253620Y169272D02*
D03*
X249810Y383902D02*
D03*
D22*
X279020Y70235D02*
D03*
X228220D02*
D03*
X253620D02*
D03*
X249810Y284865D02*
D03*
X224410D02*
D03*
X275210D02*
D03*
D23*
X236701Y623943D02*
D03*
X280699D02*
D03*
D24*
X61850Y280883D02*
D03*
Y260883D02*
D03*
X87250D02*
D03*
Y280883D02*
D03*
X459360Y485513D02*
D03*
Y505513D02*
D03*
Y378993D02*
D03*
Y398993D02*
D03*
X412370Y326603D02*
D03*
Y306603D02*
D03*
X437770D02*
D03*
Y326603D02*
D03*
Y280883D02*
D03*
Y260883D02*
D03*
X412370D02*
D03*
Y280883D02*
D03*
X347600Y477733D02*
D03*
Y457733D02*
D03*
X350140Y757453D02*
D03*
Y777453D02*
D03*
X374270D02*
D03*
Y757453D02*
D03*
X347600Y401853D02*
D03*
Y421853D02*
D03*
X61850Y306603D02*
D03*
Y326603D02*
D03*
X87250D02*
D03*
Y306603D02*
D03*
D25*
X410503Y794996D02*
D03*
Y804995D02*
D03*
Y814998D02*
D03*
Y824998D02*
D03*
X89497Y795002D02*
D03*
Y805002D02*
D03*
Y815005D02*
D03*
Y825004D02*
D03*
D26*
X453503Y832497D02*
D03*
Y787497D02*
D03*
X46497Y832503D02*
D03*
Y787503D02*
D03*
D27*
X318504Y812055D02*
D03*
X181496D02*
D03*
D28*
X255000Y790313D02*
D03*
X265000D02*
D03*
X275000D02*
D03*
X285000D02*
D03*
X295000D02*
D03*
X205000D02*
D03*
X215000D02*
D03*
X225000D02*
D03*
X235000D02*
D03*
X245000D02*
D03*
D29*
X417209Y607887D02*
D03*
D30*
X432210Y580763D02*
D03*
X402210D02*
D03*
D31*
X374620Y566129D02*
D03*
Y581929D02*
D03*
X459620Y566133D02*
D03*
Y581933D02*
D03*
X61850Y237900D02*
D03*
Y222100D02*
D03*
X437770Y237900D02*
D03*
Y222100D02*
D03*
D32*
X421260Y486173D02*
D03*
Y505173D02*
D03*
Y379493D02*
D03*
Y398493D02*
D03*
D33*
X175490Y602353D02*
D03*
X156490D02*
D03*
D34*
X174720Y573143D02*
D03*
X154720D02*
D03*
X135350Y602353D02*
D03*
X115350D02*
D03*
X135350Y573143D02*
D03*
X115350D02*
D03*
D35*
X263895Y470373D02*
D03*
D36*
X239620Y494648D02*
D03*
D37*
X259618D02*
D03*
D38*
X239620Y466098D02*
D03*
D39*
X235345Y470373D02*
D03*
D40*
Y490373D02*
D03*
D41*
X263895D02*
D03*
D42*
X259620Y466098D02*
D03*
D43*
X372340Y803173D02*
D03*
X353340D02*
D03*
X362840Y823173D02*
D03*
D79*
X249620Y480373D02*
D03*
D80*
X263895Y486372D02*
D03*
Y482372D02*
D03*
Y478374D02*
D03*
Y474373D02*
D03*
X235345D02*
D03*
Y478374D02*
D03*
Y482372D02*
D03*
Y486372D02*
D03*
D81*
X255620Y466098D02*
D03*
X251619D02*
D03*
X247621D02*
D03*
X243621D02*
D03*
Y494648D02*
D03*
X247621D02*
D03*
X251619D02*
D03*
X255620D02*
D03*
D88*
X123000Y528873D02*
D03*
D89*
Y503473D02*
D03*
Y478073D02*
D03*
Y452673D02*
D03*
Y427273D02*
D03*
Y401873D02*
D03*
Y376473D02*
D03*
Y351073D02*
D03*
Y325673D02*
D03*
Y300273D02*
D03*
Y274873D02*
D03*
Y249473D02*
D03*
Y224073D02*
D03*
Y198673D02*
D03*
Y173273D02*
D03*
Y147873D02*
D03*
Y122473D02*
D03*
Y97073D02*
D03*
Y71673D02*
D03*
X377000D02*
D03*
Y97073D02*
D03*
Y122473D02*
D03*
Y147873D02*
D03*
Y173273D02*
D03*
Y198673D02*
D03*
Y224073D02*
D03*
Y249473D02*
D03*
Y274873D02*
D03*
Y300273D02*
D03*
Y325673D02*
D03*
Y351073D02*
D03*
Y376473D02*
D03*
Y401873D02*
D03*
Y427273D02*
D03*
Y452673D02*
D03*
Y478073D02*
D03*
Y503473D02*
D03*
Y528873D02*
D03*
D90*
X197480Y673473D02*
D03*
X149480D02*
D03*
X101481D02*
D03*
D91*
X281560Y692523D02*
D03*
D92*
X331560D02*
D03*
D93*
X466620Y306573D02*
D03*
Y281173D02*
D03*
Y255773D02*
D03*
Y230373D02*
D03*
X32620D02*
D03*
Y255773D02*
D03*
Y281173D02*
D03*
Y306573D02*
D03*
X425000Y190000D02*
D03*
X450400D02*
D03*
X475800D02*
D03*
X425000Y120000D02*
D03*
X450400D02*
D03*
X475800D02*
D03*
X425000Y155000D02*
D03*
X450400D02*
D03*
X475800D02*
D03*
X75000Y190000D02*
D03*
X49600D02*
D03*
X24200D02*
D03*
X75000Y155000D02*
D03*
X49600D02*
D03*
X24200D02*
D03*
X75000Y120000D02*
D03*
X49600D02*
D03*
X24200D02*
D03*
M02*
