G04*
G04 #@! TF.GenerationSoftware,Altium Limited,Altium Designer,24.9.1 (31)*
G04*
G04 Layer_Color=8388736*
%FSLAX44Y44*%
%MOMM*%
G71*
G04*
G04 #@! TF.SameCoordinates,04FD8115-AAF2-45E8-BBFE-61AFBE82ED08*
G04*
G04*
G04 #@! TF.FilePolarity,Negative*
G04*
G01*
G75*
%ADD44R,1.1632X1.5932*%
%ADD45R,10.2236X10.1216*%
%ADD46R,1.6126X3.4016*%
%ADD47R,2.1016X2.1016*%
%ADD48R,1.6532X1.1532*%
%ADD49R,2.6016X0.8016*%
%ADD50R,4.4016X2.6016*%
G04:AMPARAMS|DCode=51|XSize=2.8042mm|YSize=3.2029mm|CornerRadius=0.7388mm|HoleSize=0mm|Usage=FLASHONLY|Rotation=180.000|XOffset=0mm|YOffset=0mm|HoleType=Round|Shape=RoundedRectangle|*
%AMROUNDEDRECTD51*
21,1,2.8042,1.7253,0,0,180.0*
21,1,1.3265,3.2029,0,0,180.0*
1,1,1.4777,-0.6632,0.8626*
1,1,1.4777,0.6632,0.8626*
1,1,1.4777,0.6632,-0.8626*
1,1,1.4777,-0.6632,-0.8626*
%
%ADD51ROUNDEDRECTD51*%
G04:AMPARAMS|DCode=52|XSize=0.8532mm|YSize=2.2352mm|CornerRadius=0.2609mm|HoleSize=0mm|Usage=FLASHONLY|Rotation=180.000|XOffset=0mm|YOffset=0mm|HoleType=Round|Shape=RoundedRectangle|*
%AMROUNDEDRECTD52*
21,1,0.8532,1.7135,0,0,180.0*
21,1,0.3315,2.2352,0,0,180.0*
1,1,0.5217,-0.1658,0.8568*
1,1,0.5217,0.1658,0.8568*
1,1,0.5217,0.1658,-0.8568*
1,1,0.5217,-0.1658,-0.8568*
%
%ADD52ROUNDEDRECTD52*%
%ADD53O,1.3432X3.4293*%
%ADD54R,0.7736X1.6766*%
%ADD55R,1.5932X1.1632*%
%ADD56R,1.6032X1.2032*%
%ADD57R,1.2032X1.6032*%
%ADD58R,1.1532X1.6532*%
%ADD59O,0.5065X0.3232*%
%ADD60O,0.3232X0.5065*%
%ADD61O,0.3232X0.5066*%
%ADD62O,0.3232X0.5065*%
%ADD63O,0.5065X0.3232*%
%ADD64O,0.5065X0.3232*%
%ADD65O,0.5065X0.3232*%
%ADD66R,1.8016X1.8016*%
%ADD67R,0.6066X0.3016*%
%ADD68O,0.3232X0.5065*%
%ADD69R,0.3016X0.6066*%
%ADD70R,1.0032X1.1032*%
%ADD71R,1.7332X1.7332*%
%ADD72C,1.7332*%
%ADD73O,1.8000X3.0000*%
%ADD74R,2.6032X2.6032*%
%ADD75C,2.6032*%
%ADD76C,2.0632*%
%ADD77C,1.2032*%
%ADD78C,0.8032*%
G36*
X240623Y469134D02*
X240672Y469129D01*
X240719Y469124D01*
X240721Y469124D01*
X240722Y469124D01*
X240770Y469109D01*
X240815Y469095D01*
X240816Y469095D01*
X240818Y469094D01*
X240861Y469071D01*
X240903Y469048D01*
X240904Y469047D01*
X240906Y469047D01*
X240943Y469016D01*
X240981Y468985D01*
X240982Y468984D01*
X240983Y468983D01*
X241014Y468945D01*
X241044Y468907D01*
X241045Y468906D01*
X241046Y468905D01*
X241069Y468862D01*
X241091Y468819D01*
X241092Y468818D01*
X241092Y468817D01*
X241107Y468769D01*
X241120Y468723D01*
X241121Y468722D01*
X241121Y468721D01*
X241126Y468671D01*
X241130Y468624D01*
Y463574D01*
X241120Y463474D01*
X241091Y463378D01*
X241044Y463290D01*
X240981Y463213D01*
X240903Y463149D01*
X240815Y463102D01*
X240719Y463073D01*
X240620Y463063D01*
X238620D01*
X238520Y463073D01*
X238424Y463102D01*
X238336Y463149D01*
X238259Y463213D01*
X238195Y463290D01*
X238148Y463378D01*
X238119Y463474D01*
X238109Y463574D01*
Y467628D01*
X238109Y467629D01*
X238119Y467728D01*
X238119Y467728D01*
Y467728D01*
X238134Y467778D01*
X238148Y467824D01*
X238148Y467824D01*
X238148Y467824D01*
X238169Y467863D01*
X238195Y467912D01*
X238195Y467912D01*
X238195Y467912D01*
X238213Y467934D01*
X238259Y467990D01*
X239259Y468990D01*
X239260Y468991D01*
X239261Y468992D01*
X239299Y469023D01*
X239336Y469054D01*
X239337Y469054D01*
X239338Y469055D01*
X239381Y469078D01*
X239424Y469101D01*
X239426Y469101D01*
X239427Y469102D01*
X239475Y469116D01*
X239520Y469130D01*
X239521Y469130D01*
X239523Y469130D01*
X239573Y469135D01*
X239620Y469140D01*
X239621Y469140D01*
X239622Y469140D01*
X240623Y469134D01*
D02*
G37*
G36*
X237917Y471879D02*
X237968Y471875D01*
X237969Y471874D01*
X237970Y471874D01*
X238015Y471860D01*
X238064Y471846D01*
X238065Y471845D01*
X238066Y471845D01*
X238107Y471823D01*
X238152Y471799D01*
X238153Y471798D01*
X238154Y471798D01*
X238190Y471769D01*
X238230Y471736D01*
X238231Y471735D01*
X238232Y471734D01*
X238263Y471697D01*
X238294Y471659D01*
X238294Y471658D01*
X238295Y471657D01*
X238318Y471614D01*
X238341Y471571D01*
X238342Y471570D01*
X238342Y471569D01*
X238356Y471524D01*
X238371Y471476D01*
X238371Y471474D01*
X238371Y471473D01*
X238376Y471426D01*
X238381Y471376D01*
X238386Y470377D01*
X238386Y470375D01*
X238387Y470374D01*
X238382Y470325D01*
X238377Y470277D01*
X238377Y470276D01*
X238377Y470274D01*
X238363Y470228D01*
X238349Y470181D01*
X238348Y470180D01*
X238348Y470178D01*
X238324Y470134D01*
X238302Y470093D01*
X238301Y470092D01*
X238300Y470090D01*
X238270Y470053D01*
X238239Y470015D01*
X238238Y470014D01*
X238237Y470013D01*
X237237Y469013D01*
X237237Y469013D01*
X237159Y468950D01*
X237159Y468950D01*
X237159Y468950D01*
X237110Y468923D01*
X237071Y468903D01*
X237071Y468903D01*
X237071Y468903D01*
X237025Y468889D01*
X236975Y468873D01*
X236975D01*
X236975Y468873D01*
X236925Y468868D01*
X236876Y468864D01*
X232821D01*
X232721Y468873D01*
X232625Y468903D01*
X232537Y468950D01*
X232460Y469013D01*
X232396Y469091D01*
X232349Y469179D01*
X232320Y469275D01*
X232310Y469374D01*
Y471373D01*
X232320Y471473D01*
X232349Y471569D01*
X232396Y471657D01*
X232460Y471734D01*
X232537Y471798D01*
X232625Y471845D01*
X232721Y471874D01*
X232821Y471884D01*
X237871D01*
X237917Y471879D01*
D02*
G37*
G36*
X236902Y491881D02*
X236975Y491874D01*
X237070Y491845D01*
X237071Y491845D01*
D01*
X237159Y491798D01*
X237208Y491757D01*
X237236Y491735D01*
X237236Y491735D01*
X237236Y491735D01*
X238236Y490734D01*
X238237Y490734D01*
X238237Y490733D01*
X238267Y490697D01*
X238299Y490657D01*
X238300Y490656D01*
X238301Y490655D01*
X238322Y490615D01*
X238347Y490569D01*
X238347Y490568D01*
X238347Y490567D01*
X238361Y490519D01*
X238375Y490473D01*
X238376Y490472D01*
X238376Y490471D01*
X238381Y490422D01*
X238385Y490373D01*
X238385Y490372D01*
X238385Y490371D01*
X238380Y489371D01*
X238375Y489322D01*
X238371Y489274D01*
X238370Y489273D01*
X238370Y489272D01*
X238356Y489225D01*
X238342Y489179D01*
X238341Y489178D01*
X238341Y489176D01*
X238318Y489134D01*
X238294Y489090D01*
X238294Y489089D01*
X238293Y489088D01*
X238263Y489052D01*
X238231Y489013D01*
X238230Y489012D01*
X238229Y489011D01*
X238194Y488982D01*
X238154Y488949D01*
X238152Y488949D01*
X238151Y488948D01*
X238112Y488927D01*
X238065Y488902D01*
X238064Y488902D01*
X238063Y488901D01*
X238020Y488889D01*
X237970Y488873D01*
X237968Y488873D01*
X237967Y488873D01*
X237922Y488869D01*
X237870Y488863D01*
X232820D01*
X232720Y488873D01*
X232625Y488902D01*
X232536Y488949D01*
X232459Y489013D01*
X232395Y489090D01*
X232348Y489179D01*
X232319Y489274D01*
X232309Y489374D01*
Y491374D01*
X232319Y491473D01*
X232348Y491569D01*
X232395Y491657D01*
X232459Y491735D01*
X232536Y491798D01*
X232625Y491845D01*
X232720Y491874D01*
X232820Y491884D01*
X236875D01*
X236875D01*
X236875D01*
X236902Y491881D01*
D02*
G37*
G36*
X240719Y497674D02*
X240815Y497645D01*
X240903Y497597D01*
X240981Y497534D01*
X241044Y497457D01*
X241091Y497368D01*
X241120Y497272D01*
X241130Y497173D01*
Y492123D01*
X241126Y492076D01*
X241121Y492026D01*
X241121Y492025D01*
X241120Y492024D01*
X241107Y491978D01*
X241092Y491930D01*
X241092Y491929D01*
X241091Y491928D01*
X241069Y491887D01*
X241046Y491842D01*
X241045Y491841D01*
X241044Y491840D01*
X241014Y491803D01*
X240983Y491764D01*
X240982Y491763D01*
X240981Y491762D01*
X240944Y491732D01*
X240905Y491700D01*
X240904Y491700D01*
X240903Y491699D01*
X240861Y491676D01*
X240818Y491653D01*
X240816Y491652D01*
X240815Y491652D01*
X240769Y491638D01*
X240722Y491623D01*
X240721Y491623D01*
X240719Y491623D01*
X240672Y491618D01*
X240622Y491613D01*
X239622Y491608D01*
X239621Y491608D01*
X239620Y491608D01*
X239573Y491612D01*
X239523Y491617D01*
X239521Y491617D01*
X239520Y491617D01*
X239476Y491631D01*
X239427Y491646D01*
X239426Y491646D01*
X239424Y491646D01*
X239384Y491668D01*
X239338Y491692D01*
X239337Y491693D01*
X239336Y491694D01*
X239300Y491724D01*
X239261Y491755D01*
X239260Y491756D01*
X239259Y491757D01*
X238259Y492757D01*
X238259Y492757D01*
X238230Y492792D01*
X238195Y492835D01*
X238148Y492923D01*
X238119Y493018D01*
X238109Y493118D01*
X238109Y493118D01*
Y497173D01*
X238119Y497272D01*
X238148Y497368D01*
X238195Y497457D01*
X238259Y497534D01*
X238336Y497597D01*
X238424Y497645D01*
X238520Y497674D01*
X238620Y497683D01*
X240620D01*
X240719Y497674D01*
D02*
G37*
G36*
X417443Y627156D02*
X417455Y627157D01*
X417900Y627136D01*
X417911Y627134D01*
X417923Y627134D01*
X418366Y627092D01*
X418378Y627090D01*
X418390Y627090D01*
X418831Y627027D01*
X418843Y627024D01*
X418854Y627023D01*
X419292Y626940D01*
X419303Y626937D01*
X419315Y626935D01*
X419748Y626832D01*
X419759Y626828D01*
X419771Y626826D01*
X420199Y626702D01*
X420210Y626698D01*
X420221Y626695D01*
X420643Y626552D01*
X420654Y626547D01*
X420665Y626544D01*
X421080Y626380D01*
X421090Y626375D01*
X421101Y626371D01*
X421507Y626189D01*
X421518Y626183D01*
X421529Y626179D01*
X421926Y625977D01*
X421936Y625971D01*
X421947Y625966D01*
X422334Y625746D01*
X422344Y625740D01*
X422355Y625734D01*
X422731Y625497D01*
X422741Y625489D01*
X422751Y625484D01*
X423116Y625229D01*
X423125Y625221D01*
X423135Y625215D01*
X423488Y624943D01*
X423497Y624935D01*
X423506Y624928D01*
X423846Y624640D01*
X423854Y624632D01*
X423863Y624624D01*
X424189Y624321D01*
X424197Y624312D01*
X424206Y624304D01*
X424517Y623986D01*
X424525Y623977D01*
X424533Y623969D01*
X424830Y623635D01*
X424837Y623626D01*
X424845Y623618D01*
X425125Y623271D01*
X425131Y623261D01*
X425139Y623252D01*
X425403Y622893D01*
X425409Y622883D01*
X425416Y622874D01*
X425662Y622503D01*
X425668Y622493D01*
X425675Y622483D01*
X425904Y622101D01*
X425909Y622090D01*
X425915Y622080D01*
X426126Y621688D01*
X426131Y621677D01*
X426137Y621667D01*
X426329Y621265D01*
X426333Y621254D01*
X426338Y621243D01*
X426511Y620833D01*
X426515Y620822D01*
X426520Y620811D01*
X426673Y620393D01*
X426676Y620381D01*
X426681Y620370D01*
X426814Y619945D01*
X426817Y619934D01*
X426821Y619923D01*
X426934Y619492D01*
X426936Y619481D01*
X426940Y619470D01*
X427033Y619034D01*
X427035Y619022D01*
X427038Y619011D01*
X427110Y618571D01*
X427111Y618559D01*
X427114Y618548D01*
X427166Y618106D01*
X427166Y618094D01*
X427168Y618082D01*
X427199Y617638D01*
X427199Y617626D01*
X427200Y617615D01*
X427211Y617169D01*
X427211Y617163D01*
X427211Y617157D01*
Y598615D01*
X427211Y598609D01*
X427211Y598603D01*
X427200Y598158D01*
X427199Y598146D01*
X427199Y598135D01*
X427168Y597691D01*
X427166Y597679D01*
X427166Y597667D01*
X427114Y597225D01*
X427111Y597213D01*
X427110Y597201D01*
X427038Y596762D01*
X427035Y596750D01*
X427033Y596738D01*
X426940Y596303D01*
X426936Y596292D01*
X426934Y596280D01*
X426821Y595850D01*
X426817Y595839D01*
X426814Y595827D01*
X426681Y595402D01*
X426676Y595391D01*
X426673Y595380D01*
X426520Y594962D01*
X426515Y594951D01*
X426511Y594940D01*
X426338Y594529D01*
X426333Y594519D01*
X426329Y594508D01*
X426137Y594106D01*
X426131Y594096D01*
X426126Y594085D01*
X425915Y593692D01*
X425909Y593682D01*
X425904Y593672D01*
X425675Y593289D01*
X425668Y593280D01*
X425662Y593270D01*
X425416Y592898D01*
X425409Y592889D01*
X425403Y592879D01*
X425139Y592520D01*
X425131Y592511D01*
X425125Y592501D01*
X424845Y592155D01*
X424837Y592147D01*
X424830Y592137D01*
X424533Y591804D01*
X424525Y591796D01*
X424517Y591787D01*
X424206Y591468D01*
X424197Y591461D01*
X424189Y591452D01*
X423863Y591148D01*
X423854Y591141D01*
X423846Y591132D01*
X423506Y590844D01*
X423497Y590838D01*
X423488Y590830D01*
X423135Y590558D01*
X423125Y590551D01*
X423116Y590544D01*
X422751Y590289D01*
X422741Y590283D01*
X422731Y590276D01*
X422355Y590038D01*
X422344Y590033D01*
X422334Y590026D01*
X421947Y589807D01*
X421936Y589802D01*
X421926Y589795D01*
X421529Y589594D01*
X421518Y589590D01*
X421508Y589584D01*
X421472Y589572D01*
X421437Y589558D01*
X421426Y589556D01*
X421414Y589552D01*
X421011Y589460D01*
Y572887D01*
X421002Y572789D01*
X420973Y572694D01*
X420927Y572607D01*
X420864Y572531D01*
X420788Y572469D01*
X420701Y572422D01*
X420607Y572394D01*
X420509Y572384D01*
X413909D01*
X413811Y572394D01*
X413716Y572422D01*
X413630Y572469D01*
X413553Y572531D01*
X413491Y572607D01*
X413445Y572694D01*
X413416Y572789D01*
X413406Y572887D01*
Y589460D01*
X413003Y589552D01*
X412992Y589556D01*
X412980Y589558D01*
X412945Y589572D01*
X412909Y589584D01*
X412899Y589590D01*
X412888Y589594D01*
X412491Y589795D01*
X412481Y589802D01*
X412470Y589807D01*
X412083Y590026D01*
X412073Y590033D01*
X412062Y590038D01*
X411686Y590276D01*
X411676Y590283D01*
X411666Y590289D01*
X411301Y590544D01*
X411292Y590551D01*
X411282Y590558D01*
X410929Y590830D01*
X410920Y590838D01*
X410911Y590844D01*
X410571Y591132D01*
X410563Y591141D01*
X410553Y591148D01*
X410228Y591452D01*
X410220Y591461D01*
X410211Y591468D01*
X409899Y591787D01*
X409892Y591796D01*
X409883Y591804D01*
X409587Y592137D01*
X409580Y592147D01*
X409572Y592155D01*
X409292Y592501D01*
X409286Y592511D01*
X409278Y592520D01*
X409014Y592879D01*
X409008Y592889D01*
X409001Y592898D01*
X408755Y593270D01*
X408749Y593280D01*
X408742Y593289D01*
X408513Y593672D01*
X408508Y593682D01*
X408502Y593692D01*
X408291Y594085D01*
X408286Y594096D01*
X408280Y594106D01*
X408088Y594508D01*
X408084Y594519D01*
X408079Y594529D01*
X407906Y594939D01*
X407902Y594951D01*
X407897Y594962D01*
X407744Y595380D01*
X407741Y595391D01*
X407736Y595402D01*
X407603Y595827D01*
X407600Y595839D01*
X407596Y595850D01*
X407482Y596280D01*
X407481Y596292D01*
X407477Y596303D01*
X407384Y596738D01*
X407382Y596750D01*
X407379Y596762D01*
X407307Y597201D01*
X407306Y597213D01*
X407303Y597225D01*
X407251Y597667D01*
X407251Y597679D01*
X407249Y597691D01*
X407218Y598135D01*
X407218Y598146D01*
X407217Y598158D01*
X407206Y598603D01*
X407206Y598609D01*
X407206Y598615D01*
Y617157D01*
X407206Y617163D01*
X407206Y617169D01*
X407217Y617615D01*
X407218Y617626D01*
X407218Y617638D01*
X407249Y618082D01*
X407251Y618094D01*
X407251Y618106D01*
X407303Y618548D01*
X407306Y618559D01*
X407307Y618571D01*
X407379Y619011D01*
X407382Y619022D01*
X407384Y619034D01*
X407477Y619470D01*
X407481Y619481D01*
X407482Y619492D01*
X407596Y619923D01*
X407600Y619934D01*
X407603Y619945D01*
X407736Y620370D01*
X407741Y620381D01*
X407744Y620393D01*
X407897Y620811D01*
X407902Y620822D01*
X407906Y620833D01*
X408079Y621243D01*
X408084Y621254D01*
X408088Y621265D01*
X408280Y621667D01*
X408286Y621677D01*
X408291Y621688D01*
X408502Y622080D01*
X408508Y622090D01*
X408513Y622101D01*
X408742Y622483D01*
X408749Y622493D01*
X408755Y622503D01*
X409001Y622874D01*
X409008Y622883D01*
X409014Y622893D01*
X409278Y623252D01*
X409286Y623261D01*
X409292Y623271D01*
X409572Y623618D01*
X409580Y623626D01*
X409587Y623635D01*
X409883Y623969D01*
X409892Y623977D01*
X409899Y623986D01*
X410211Y624304D01*
X410220Y624312D01*
X410228Y624321D01*
X410553Y624624D01*
X410563Y624632D01*
X410571Y624640D01*
X410911Y624928D01*
X410920Y624935D01*
X410929Y624943D01*
X411282Y625215D01*
X411292Y625221D01*
X411301Y625229D01*
X411666Y625484D01*
X411676Y625490D01*
X411686Y625497D01*
X412062Y625734D01*
X412073Y625740D01*
X412083Y625746D01*
X412470Y625966D01*
X412481Y625971D01*
X412491Y625977D01*
X412888Y626179D01*
X412899Y626183D01*
X412910Y626189D01*
X413316Y626371D01*
X413327Y626375D01*
X413337Y626380D01*
X413752Y626544D01*
X413763Y626547D01*
X413774Y626552D01*
X414196Y626695D01*
X414207Y626698D01*
X414218Y626702D01*
X414646Y626826D01*
X414658Y626828D01*
X414669Y626832D01*
X415102Y626935D01*
X415114Y626937D01*
X415125Y626940D01*
X415563Y627023D01*
X415574Y627024D01*
X415586Y627027D01*
X416027Y627090D01*
X416039Y627090D01*
X416050Y627092D01*
X416494Y627134D01*
X416506Y627134D01*
X416517Y627136D01*
X416962Y627157D01*
X416974Y627156D01*
X416986Y627157D01*
X417431D01*
X417443Y627156D01*
D02*
G37*
G36*
X260718Y497675D02*
X260814Y497646D01*
X260902Y497598D01*
X260980Y497535D01*
X261043Y497458D01*
X261090Y497369D01*
X261119Y497274D01*
X261129Y497174D01*
Y493119D01*
X261124Y493070D01*
X261119Y493019D01*
X261119Y493019D01*
Y493019D01*
X261104Y492970D01*
X261090Y492924D01*
X261090Y492924D01*
X261090Y492924D01*
X261070Y492885D01*
X261043Y492836D01*
X261043Y492835D01*
X261043Y492835D01*
X261008Y492792D01*
X260980Y492758D01*
X260980Y492758D01*
X260980Y492758D01*
X260980Y492758D01*
X259980Y491757D01*
X259979Y491756D01*
X259978Y491755D01*
X259941Y491725D01*
X259903Y491693D01*
X259901Y491693D01*
X259900Y491692D01*
X259857Y491669D01*
X259814Y491646D01*
X259813Y491646D01*
X259811Y491645D01*
X259763Y491631D01*
X259719Y491617D01*
X259717Y491617D01*
X259715Y491617D01*
X259666Y491612D01*
X259619Y491607D01*
X259617Y491608D01*
X259616Y491607D01*
X258616Y491613D01*
X258567Y491618D01*
X258519Y491623D01*
X258518Y491623D01*
X258517Y491624D01*
X258469Y491638D01*
X258424Y491652D01*
X258422Y491653D01*
X258421Y491653D01*
X258379Y491676D01*
X258335Y491699D01*
X258334Y491700D01*
X258333Y491701D01*
X258296Y491731D01*
X258258Y491763D01*
X258257Y491764D01*
X258256Y491765D01*
X258225Y491803D01*
X258195Y491840D01*
X258194Y491841D01*
X258193Y491843D01*
X258170Y491886D01*
X258147Y491928D01*
X258147Y491930D01*
X258146Y491931D01*
X258132Y491979D01*
X258118Y492024D01*
X258118Y492025D01*
X258118Y492027D01*
X258113Y492077D01*
X258109Y492124D01*
Y497174D01*
X258118Y497274D01*
X258147Y497369D01*
X258195Y497458D01*
X258258Y497535D01*
X258335Y497598D01*
X258424Y497646D01*
X258519Y497675D01*
X258619Y497684D01*
X260619D01*
X260718Y497675D01*
D02*
G37*
G36*
X266520Y491874D02*
X266615Y491844D01*
X266704Y491797D01*
X266781Y491734D01*
X266845Y491656D01*
X266892Y491568D01*
X266921Y491472D01*
X266931Y491373D01*
Y489374D01*
X266921Y489274D01*
X266892Y489178D01*
X266845Y489090D01*
X266781Y489013D01*
X266704Y488949D01*
X266615Y488902D01*
X266520Y488873D01*
X266420Y488863D01*
X261370D01*
X261323Y488868D01*
X261273Y488872D01*
X261272Y488873D01*
X261271Y488873D01*
X261225Y488887D01*
X261177Y488901D01*
X261176Y488902D01*
X261175Y488902D01*
X261133Y488924D01*
X261089Y488948D01*
X261088Y488949D01*
X261087Y488949D01*
X261050Y488979D01*
X261011Y489011D01*
X261010Y489012D01*
X261009Y489013D01*
X260979Y489050D01*
X260947Y489088D01*
X260946Y489089D01*
X260946Y489090D01*
X260924Y489132D01*
X260900Y489176D01*
X260899Y489177D01*
X260898Y489178D01*
X260885Y489223D01*
X260870Y489272D01*
X260870Y489273D01*
X260869Y489274D01*
X260865Y489321D01*
X260860Y489371D01*
X260854Y490371D01*
X260855Y490373D01*
X260854Y490374D01*
X260859Y490420D01*
X260864Y490471D01*
X260864Y490472D01*
X260864Y490473D01*
X260878Y490518D01*
X260892Y490567D01*
X260893Y490568D01*
X260893Y490569D01*
X260916Y490611D01*
X260939Y490655D01*
X260940Y490656D01*
X260941Y490657D01*
X260970Y490694D01*
X261002Y490733D01*
X261003Y490734D01*
X261004Y490735D01*
X262004Y491734D01*
X262004Y491734D01*
X262004Y491734D01*
D01*
X262082Y491797D01*
X262133Y491825D01*
X262170Y491844D01*
X262170Y491844D01*
X262170Y491844D01*
X262197Y491853D01*
X262265Y491874D01*
X262266Y491874D01*
X262266D01*
X262287Y491876D01*
X262365Y491883D01*
X266420D01*
X266520Y491874D01*
D02*
G37*
G36*
X259667Y469134D02*
X259717Y469129D01*
X259719Y469129D01*
X259720Y469129D01*
X259764Y469115D01*
X259813Y469101D01*
X259814Y469100D01*
X259816Y469100D01*
X259856Y469078D01*
X259902Y469054D01*
X259903Y469053D01*
X259904Y469053D01*
X259940Y469023D01*
X259979Y468991D01*
X259980Y468990D01*
X259981Y468989D01*
X260981Y467989D01*
X260981Y467989D01*
X261010Y467954D01*
X261045Y467912D01*
X261092Y467823D01*
X261121Y467728D01*
X261131Y467628D01*
X261131Y467628D01*
Y463573D01*
X261121Y463474D01*
X261092Y463378D01*
X261045Y463289D01*
X260981Y463212D01*
X260904Y463149D01*
X260816Y463102D01*
X260720Y463072D01*
X260620Y463063D01*
X258620D01*
X258521Y463072D01*
X258425Y463102D01*
X258337Y463149D01*
X258259Y463212D01*
X258196Y463289D01*
X258149Y463378D01*
X258120Y463474D01*
X258110Y463573D01*
Y468623D01*
X258114Y468670D01*
X258119Y468720D01*
X258120Y468721D01*
X258120Y468723D01*
X258133Y468768D01*
X258148Y468816D01*
X258148Y468817D01*
X258149Y468818D01*
X258171Y468860D01*
X258194Y468904D01*
X258195Y468906D01*
X258196Y468907D01*
X258226Y468943D01*
X258258Y468982D01*
X258258Y468983D01*
X258259Y468984D01*
X258296Y469014D01*
X258335Y469046D01*
X258336Y469047D01*
X258337Y469048D01*
X258379Y469070D01*
X258423Y469094D01*
X258424Y469094D01*
X258425Y469095D01*
X258471Y469109D01*
X258518Y469123D01*
X258519Y469123D01*
X258521Y469124D01*
X258568Y469128D01*
X258618Y469134D01*
X259618Y469139D01*
X259619Y469138D01*
X259620Y469139D01*
X259667Y469134D01*
D02*
G37*
G36*
X266520Y471874D02*
X266615Y471844D01*
X266704Y471797D01*
X266781Y471734D01*
X266845Y471656D01*
X266892Y471568D01*
X266921Y471473D01*
X266931Y471373D01*
Y469373D01*
X266921Y469273D01*
X266892Y469178D01*
X266845Y469089D01*
X266781Y469012D01*
X266704Y468949D01*
X266615Y468901D01*
X266520Y468872D01*
X266420Y468862D01*
X262365D01*
X262265Y468872D01*
X262170Y468901D01*
X262081Y468949D01*
X262004Y469012D01*
X261004Y470012D01*
X261003Y470013D01*
X261002Y470014D01*
X260971Y470052D01*
X260940Y470089D01*
X260940Y470090D01*
X260939Y470092D01*
X260917Y470134D01*
X260893Y470178D01*
X260893Y470179D01*
X260892Y470180D01*
X260879Y470227D01*
X260864Y470273D01*
X260864Y470275D01*
X260864Y470276D01*
X260859Y470323D01*
X260854Y470373D01*
X260855Y470374D01*
X260854Y470376D01*
X260860Y471376D01*
X260865Y471426D01*
X260869Y471473D01*
X260870Y471474D01*
X260870Y471475D01*
X260885Y471524D01*
X260898Y471568D01*
X260899Y471569D01*
X260900Y471571D01*
X260924Y471615D01*
X260946Y471656D01*
X260946Y471657D01*
X260947Y471659D01*
X260979Y471697D01*
X261009Y471734D01*
X261010Y471735D01*
X261011Y471736D01*
X261050Y471768D01*
X261087Y471797D01*
X261088Y471798D01*
X261089Y471799D01*
X261133Y471822D01*
X261175Y471844D01*
X261176Y471845D01*
X261177Y471846D01*
X261225Y471860D01*
X261271Y471874D01*
X261272Y471874D01*
X261273Y471874D01*
X261323Y471879D01*
X261370Y471883D01*
X266420D01*
X266520Y471874D01*
D02*
G37*
D44*
X159360Y130810D02*
D03*
X175160D02*
D03*
Y103243D02*
D03*
X159360D02*
D03*
Y330200D02*
D03*
X175160D02*
D03*
X238660Y447413D02*
D03*
X222860D02*
D03*
X332520Y302633D02*
D03*
X316720D02*
D03*
X159360D02*
D03*
X175160D02*
D03*
X219610Y472813D02*
D03*
X203810D02*
D03*
Y491863D02*
D03*
X219610D02*
D03*
X316720Y103243D02*
D03*
X332520D02*
D03*
D45*
X253620Y169272D02*
D03*
X249810Y383902D02*
D03*
D46*
X279020Y70235D02*
D03*
X228220D02*
D03*
X253620D02*
D03*
X249810Y284865D02*
D03*
X224410D02*
D03*
X275210D02*
D03*
D47*
X236701Y623943D02*
D03*
X280699D02*
D03*
D48*
X61850Y280883D02*
D03*
Y260883D02*
D03*
X87250D02*
D03*
Y280883D02*
D03*
X459360Y485513D02*
D03*
Y505513D02*
D03*
Y378993D02*
D03*
Y398993D02*
D03*
X412370Y326603D02*
D03*
Y306603D02*
D03*
X437770D02*
D03*
Y326603D02*
D03*
Y280883D02*
D03*
Y260883D02*
D03*
X412370D02*
D03*
Y280883D02*
D03*
X347600Y477733D02*
D03*
Y457733D02*
D03*
X350140Y757453D02*
D03*
Y777453D02*
D03*
X374270D02*
D03*
Y757453D02*
D03*
X347600Y401853D02*
D03*
Y421853D02*
D03*
X61850Y306603D02*
D03*
Y326603D02*
D03*
X87250D02*
D03*
Y306603D02*
D03*
D49*
X410503Y794996D02*
D03*
Y804995D02*
D03*
Y814998D02*
D03*
Y824998D02*
D03*
X89497Y795002D02*
D03*
Y805002D02*
D03*
Y815005D02*
D03*
Y825004D02*
D03*
D50*
X453503Y832497D02*
D03*
Y787497D02*
D03*
X46497Y832503D02*
D03*
Y787503D02*
D03*
D51*
X318504Y812055D02*
D03*
X181496D02*
D03*
D52*
X255000Y790313D02*
D03*
X265000D02*
D03*
X275000D02*
D03*
X285000D02*
D03*
X295000D02*
D03*
X205000D02*
D03*
X215000D02*
D03*
X225000D02*
D03*
X235000D02*
D03*
X245000D02*
D03*
D53*
X417209Y607887D02*
D03*
D54*
X432210Y580763D02*
D03*
X402210D02*
D03*
D55*
X374620Y566129D02*
D03*
Y581929D02*
D03*
X459620Y566133D02*
D03*
Y581933D02*
D03*
X61850Y237900D02*
D03*
Y222100D02*
D03*
X437770Y237900D02*
D03*
Y222100D02*
D03*
D56*
X421260Y486173D02*
D03*
Y505173D02*
D03*
Y379493D02*
D03*
Y398493D02*
D03*
D57*
X175490Y602353D02*
D03*
X156490D02*
D03*
D58*
X174720Y573143D02*
D03*
X154720D02*
D03*
X135350Y602353D02*
D03*
X115350D02*
D03*
X135350Y573143D02*
D03*
X115350D02*
D03*
D59*
X263895Y470373D02*
D03*
D60*
X239620Y494648D02*
D03*
D61*
X259618D02*
D03*
D62*
X239620Y466098D02*
D03*
D63*
X235345Y470373D02*
D03*
D64*
Y490373D02*
D03*
D65*
X263895D02*
D03*
D66*
X249620Y480373D02*
D03*
D67*
X263895Y486372D02*
D03*
Y482372D02*
D03*
Y478374D02*
D03*
Y474373D02*
D03*
X235345D02*
D03*
Y478374D02*
D03*
Y482372D02*
D03*
Y486372D02*
D03*
D68*
X259620Y466098D02*
D03*
D69*
X255620D02*
D03*
X251619D02*
D03*
X247621D02*
D03*
X243621D02*
D03*
Y494648D02*
D03*
X247621D02*
D03*
X251619D02*
D03*
X255620D02*
D03*
D70*
X372340Y803173D02*
D03*
X353340D02*
D03*
X362840Y823173D02*
D03*
D71*
X123000Y528873D02*
D03*
D72*
Y503473D02*
D03*
Y478073D02*
D03*
Y452673D02*
D03*
Y427273D02*
D03*
Y401873D02*
D03*
Y376473D02*
D03*
Y351073D02*
D03*
Y325673D02*
D03*
Y300273D02*
D03*
Y274873D02*
D03*
Y249473D02*
D03*
Y224073D02*
D03*
Y198673D02*
D03*
Y173273D02*
D03*
Y147873D02*
D03*
Y122473D02*
D03*
Y97073D02*
D03*
Y71673D02*
D03*
X377000D02*
D03*
Y97073D02*
D03*
Y122473D02*
D03*
Y147873D02*
D03*
Y173273D02*
D03*
Y198673D02*
D03*
Y224073D02*
D03*
Y249473D02*
D03*
Y274873D02*
D03*
Y300273D02*
D03*
Y325673D02*
D03*
Y351073D02*
D03*
Y376473D02*
D03*
Y401873D02*
D03*
Y427273D02*
D03*
Y452673D02*
D03*
Y478073D02*
D03*
Y503473D02*
D03*
Y528873D02*
D03*
D73*
X197480Y673473D02*
D03*
X149480D02*
D03*
X101481D02*
D03*
D74*
X281560Y692523D02*
D03*
D75*
X331560D02*
D03*
D76*
X466620Y306573D02*
D03*
Y281173D02*
D03*
Y255773D02*
D03*
Y230373D02*
D03*
X32620D02*
D03*
Y255773D02*
D03*
Y281173D02*
D03*
Y306573D02*
D03*
X425000Y190000D02*
D03*
X450400D02*
D03*
X475800D02*
D03*
X425000Y120000D02*
D03*
X450400D02*
D03*
X475800D02*
D03*
X425000Y155000D02*
D03*
X450400D02*
D03*
X475800D02*
D03*
X75000Y190000D02*
D03*
X49600D02*
D03*
X24200D02*
D03*
X75000Y155000D02*
D03*
X49600D02*
D03*
X24200D02*
D03*
X75000Y120000D02*
D03*
X49600D02*
D03*
X24200D02*
D03*
D77*
X153897Y131291D02*
D03*
X153060Y330200D02*
D03*
X402590Y572770D02*
D03*
X250000Y811530D02*
D03*
X85000Y60000D02*
D03*
X437770Y215800D02*
D03*
X101600Y793299D02*
D03*
X422000Y826701D02*
D03*
X194564Y768096D02*
D03*
X167386D02*
D03*
X138176D02*
D03*
X421000Y793699D02*
D03*
X296418Y779018D02*
D03*
X304546Y272796D02*
D03*
X337312Y501650D02*
D03*
Y548386D02*
D03*
X60590Y787300D02*
D03*
X32590D02*
D03*
Y832300D02*
D03*
X60590D02*
D03*
X323850Y803910D02*
D03*
X181610D02*
D03*
Y820420D02*
D03*
X215000Y826716D02*
D03*
X439030Y832700D02*
D03*
X467030D02*
D03*
X439030Y787700D02*
D03*
X467030D02*
D03*
X253620Y80383D02*
D03*
Y60063D02*
D03*
X249810Y295013D02*
D03*
Y274693D02*
D03*
X295530Y582033D02*
D03*
X340638Y581929D02*
D03*
X459620Y559833D02*
D03*
X374620Y559828D02*
D03*
X61850Y215800D02*
D03*
X82170Y333113D02*
D03*
X96140Y279773D02*
D03*
X338820Y103243D02*
D03*
X153060D02*
D03*
Y302633D02*
D03*
X338820D02*
D03*
X417450Y300093D02*
D03*
X407290Y287393D02*
D03*
X459360Y371743D02*
D03*
X202820Y500753D02*
D03*
Y463923D02*
D03*
X216560Y447413D02*
D03*
X459360Y478263D02*
D03*
X304420Y813173D02*
D03*
X373000Y790313D02*
D03*
X209170Y424553D02*
D03*
X290450D02*
D03*
Y343273D02*
D03*
X209170D02*
D03*
X290450Y383913D02*
D03*
X209170D02*
D03*
X249814Y423526D02*
D03*
X249810Y343273D02*
D03*
Y385172D02*
D03*
X270130Y363593D02*
D03*
Y404233D02*
D03*
X229490Y363593D02*
D03*
Y404233D02*
D03*
X233300Y188333D02*
D03*
Y147693D02*
D03*
X273940Y188333D02*
D03*
Y147693D02*
D03*
X253620Y169272D02*
D03*
Y127373D02*
D03*
X253624Y207626D02*
D03*
X212980Y168013D02*
D03*
X294260D02*
D03*
X212980Y127373D02*
D03*
X294260D02*
D03*
Y208653D02*
D03*
X212980D02*
D03*
X108100Y573143D02*
D03*
Y602353D02*
D03*
D78*
X281940Y499110D02*
D03*
X10160Y821690D02*
D03*
X80140Y842140D02*
D03*
X400500Y805250D02*
D03*
X205000Y807183D02*
D03*
X273940Y470273D02*
D03*
X341350Y457483D02*
D03*
X331090Y469113D02*
D03*
X301880Y457573D02*
D03*
X302283Y469810D02*
D03*
X259620Y455383D02*
D03*
X281560Y597273D02*
D03*
X335498Y568446D02*
D03*
X254890Y475353D02*
D03*
X244730Y485513D02*
D03*
X254890D02*
D03*
X244730Y475353D02*
D03*
X331090Y477893D02*
D03*
X291720D02*
D03*
X94870Y261993D02*
D03*
X103592Y292933D02*
D03*
X195200Y261993D02*
D03*
X159640D02*
D03*
X195200Y241673D02*
D03*
Y251833D02*
D03*
M02*
