G04*
G04 #@! TF.GenerationSoftware,Altium Limited,Altium Designer,24.9.1 (31)*
G04*
G04 Layer_Color=16711935*
%FSLAX44Y44*%
%MOMM*%
G71*
G04*
G04 #@! TF.SameCoordinates,04FD8115-AAF2-45E8-BBFE-61AFBE82ED08*
G04*
G04*
G04 #@! TF.FilePolarity,Positive*
G04*
G01*
G75*
%ADD12C,0.2000*%
%ADD14C,0.1000*%
%ADD17C,0.1270*%
D12*
X105300Y530073D02*
G03*
X105300Y530073I-1000J0D01*
G01*
D14*
X55600Y260633D02*
X68100D01*
Y281133D01*
X55600D02*
X68100D01*
X55600Y260633D02*
Y281133D01*
X81000D02*
X93500D01*
X81000Y260633D02*
Y281133D01*
Y260633D02*
X93500D01*
Y281133D01*
X453110Y505763D02*
X465610D01*
X453110Y485263D02*
Y505763D01*
Y485263D02*
X465610D01*
Y505763D01*
X453110Y399243D02*
X465610D01*
X453110Y378743D02*
Y399243D01*
Y378743D02*
X465610D01*
Y399243D01*
X406120Y306353D02*
X418620D01*
Y326853D01*
X406120D02*
X418620D01*
X406120Y306353D02*
Y326853D01*
X431520D02*
X444020D01*
X431520Y306353D02*
Y326853D01*
Y306353D02*
X444020D01*
Y326853D01*
X431520Y260633D02*
X444020D01*
Y281133D01*
X431520D02*
X444020D01*
X431520Y260633D02*
Y281133D01*
X406120D02*
X418620D01*
X406120Y260633D02*
Y281133D01*
Y260633D02*
X418620D01*
Y281133D01*
X154470Y566893D02*
Y579393D01*
Y566893D02*
X174970D01*
Y579393D01*
X154470D02*
X174970D01*
X115100Y596103D02*
Y608603D01*
Y596103D02*
X135600D01*
Y608603D01*
X115100D02*
X135600D01*
X115100Y566893D02*
Y579393D01*
Y566893D02*
X135600D01*
Y579393D01*
X115100D02*
X135600D01*
X377840Y806173D02*
Y820173D01*
X347840Y806173D02*
Y820173D01*
X377840D01*
X347840Y806173D02*
X377840D01*
X353850Y457483D02*
Y477983D01*
X341350Y457483D02*
X353850D01*
X341350D02*
Y477983D01*
X353850D01*
X343890Y757203D02*
Y777703D01*
X356390D01*
Y757203D02*
Y777703D01*
X343890Y757203D02*
X356390D01*
X380520D02*
Y777703D01*
X368020Y757203D02*
X380520D01*
X368020D02*
Y777703D01*
X380520D01*
X341350Y401603D02*
Y422103D01*
X353850D01*
Y401603D02*
Y422103D01*
X341350Y401603D02*
X353850D01*
X55600Y306353D02*
Y326853D01*
X68100D01*
Y306353D02*
Y326853D01*
X55600Y306353D02*
X68100D01*
X93500D02*
Y326853D01*
X81000Y306353D02*
X93500D01*
X81000D02*
Y326853D01*
X93500D01*
D17*
X110500Y59373D02*
Y541373D01*
X389500Y59373D02*
Y541373D01*
X110500D02*
X389500D01*
X110500Y59373D02*
X209300D01*
X290600D01*
X389500D01*
M02*
