M48
;Layer_Color=9474304
;FILE_FORMAT=4:2
METRIC,LZ
T02F00S00C5.08
%
G90
G05
T02
G00X003222Y-000253
M15
G01X003274Y-000248
G01X003318Y-000241
G01X003368Y-000227
G01X00341Y-000212
G01X003457Y-00019
G01X003496Y-000168
G01X003539Y-000138
G01X003572Y-000109
G01X003609Y-000072
G01X003638Y-000039
G01X003668Y000004
G01X00369Y000043
G01X003712Y00009
G01X003727Y000132
G01X003741Y000182
G01X003748Y000226
G01X003754Y0003
G01X003753Y000522
G01X003748Y000574
G01X003741Y000618
G01X003727Y000668
G01X003712Y00071
G01X00369Y000757
G01X003668Y000796
G01X003638Y000839
G01X003609Y000872
G01X003572Y000909
G01X003539Y000938
G01X003496Y000968
G01X003457Y00099
G01X00341Y001012
G01X003368Y001027
G01X003318Y001041
G01X003274Y001048
G01X0032Y001054
G01X000278Y001053
G01X000226Y001048
G01X000182Y001041
G01X000132Y001027
G01X00009Y001012
G01X000043Y00099
G01X000004Y000968
G01X-000039Y000938
G01X-000072Y000909
G01X-000109Y000872
G01X-000138Y000839
G01X-000168Y000796
G01X-00019Y000757
G01X-000212Y00071
G01X-000227Y000668
G01X-000241Y000618
G01X-000248Y000574
G01X-000254Y0005
G01X-000253Y000278
G01X-000248Y000226
G01X-000241Y000182
G01X-000227Y000132
G01X-000212Y00009
G01X-00019Y000043
G01X-000168Y000004
G01X-000138Y-000039
G01X-000109Y-000072
G01X-000072Y-000109
G01X-000039Y-000138
G01X000004Y-000168
G01X000043Y-00019
G01X00009Y-000212
G01X000132Y-000227
G01X000182Y-000241
G01X000226Y-000248
G01X0003Y-000254
G01X003222Y-000253
M16
M17
M30
