G04*
G04 #@! TF.GenerationSoftware,Altium Limited,Altium Designer,24.9.1 (31)*
G04*
G04 Layer_Physical_Order=1*
G04 Layer_Color=255*
%FSLAX44Y44*%
%MOMM*%
G71*
G04*
G04 #@! TF.SameCoordinates,0EA0C4F9-9699-4FEE-9EE7-DB85143A2A43*
G04*
G04*
G04 #@! TF.FilePolarity,Positive*
G04*
G01*
G75*
%ADD10C,0.4000*%
%ADD14R,4.3000X2.5000*%
%ADD15R,2.5000X0.7000*%
G04:AMPARAMS|DCode=16|XSize=1mm|YSize=0.77mm|CornerRadius=0.1887mm|HoleSize=0mm|Usage=FLASHONLY|Rotation=0.000|XOffset=0mm|YOffset=0mm|HoleType=Round|Shape=RoundedRectangle|*
%AMROUNDEDRECTD16*
21,1,1.0000,0.3927,0,0,0.0*
21,1,0.6227,0.7700,0,0,0.0*
1,1,0.3773,0.3114,-0.1964*
1,1,0.3773,-0.3114,-0.1964*
1,1,0.3773,-0.3114,0.1964*
1,1,0.3773,0.3114,0.1964*
%
%ADD16ROUNDEDRECTD16*%
%ADD17R,0.9500X1.4500*%
%ADD18R,0.9600X1.3900*%
%ADD26C,0.5000*%
%ADD27C,0.5000*%
%ADD28C,0.6000*%
G36*
X182957Y76550D02*
X185343D01*
X187028Y77248D01*
X187116Y77116D01*
X188439Y76232D01*
X190000Y75922D01*
X319822Y75922D01*
X322175Y75716D01*
X322386Y75458D01*
X321181Y72918D01*
X270510D01*
X268364Y72491D01*
X266545Y71275D01*
X258925Y63655D01*
X257709Y61836D01*
X257282Y59690D01*
Y52429D01*
X254958Y50105D01*
X206003D01*
Y61498D01*
X188039D01*
Y63069D01*
X187612Y65215D01*
X186397Y67034D01*
X179616Y73815D01*
X179268Y74048D01*
X179249Y76842D01*
X179878Y77246D01*
X180334Y77360D01*
X180844Y77425D01*
X182957Y76550D01*
D02*
G37*
G36*
X175316Y62254D02*
X175003Y61498D01*
X175003D01*
Y49603D01*
X172265D01*
X170119Y49176D01*
X168300Y47961D01*
X165317Y44978D01*
X152410D01*
X149900Y45050D01*
Y64242D01*
X173328D01*
X175316Y62254D01*
D02*
G37*
G36*
X337046Y55073D02*
X337292Y54153D01*
Y37283D01*
X336617Y36608D01*
X331655D01*
X331630Y36625D01*
X330113Y36926D01*
X324078D01*
X324078Y57000D01*
X324039Y57198D01*
X324059Y57400D01*
X324001Y57985D01*
X323884Y58369D01*
X323845Y58769D01*
X323726Y59162D01*
X323709Y59409D01*
X324286Y60708D01*
X324519Y61006D01*
X325376Y61702D01*
X330417D01*
X337046Y55073D01*
D02*
G37*
G36*
X152250Y16302D02*
X149936Y13988D01*
X112000D01*
X109900Y15050D01*
Y26758D01*
X110008Y27300D01*
Y32227D01*
X111543Y33762D01*
X152250D01*
Y16302D01*
D02*
G37*
G36*
X24688Y72665D02*
X19852Y68773D01*
X19656Y68539D01*
X19402Y68370D01*
X17747Y66714D01*
X16531Y64895D01*
X16104Y62749D01*
Y51870D01*
X15924Y50964D01*
Y47036D01*
X16226Y45520D01*
X17084Y44234D01*
X18370Y43376D01*
X19886Y43074D01*
X25922D01*
Y36926D01*
X19886D01*
X18370Y36625D01*
X17084Y35766D01*
X16226Y34480D01*
X15924Y32964D01*
Y29037D01*
X16226Y27520D01*
X17084Y26235D01*
X17902Y25688D01*
Y18910D01*
X18290Y16959D01*
X19395Y15305D01*
X27871Y6830D01*
X26728Y4380D01*
X25501Y4487D01*
X21140Y5656D01*
X17047Y7565D01*
X13348Y10155D01*
X10155Y13348D01*
X7565Y17047D01*
X5656Y21140D01*
X4487Y25501D01*
X4078Y30178D01*
Y49822D01*
X4487Y54499D01*
X5656Y58860D01*
X7565Y62953D01*
X10155Y66652D01*
X13348Y69845D01*
X17047Y72435D01*
X21140Y74344D01*
X23513Y74980D01*
X24688Y72665D01*
D02*
G37*
G36*
X267924Y29716D02*
Y29037D01*
X268225Y27520D01*
X269084Y26235D01*
X270370Y25375D01*
X271887Y25074D01*
X277368D01*
X277941Y22600D01*
X277999Y22015D01*
X278116Y21630D01*
X278155Y21231D01*
X278326Y20668D01*
X278515Y20314D01*
X278631Y19930D01*
X278909Y19411D01*
X279164Y19100D01*
X279353Y18746D01*
X279726Y18291D01*
X280037Y18037D01*
X280291Y17726D01*
X280746Y17353D01*
X281100Y17164D01*
X281411Y16909D01*
X281929Y16631D01*
X282314Y16515D01*
X282668Y16326D01*
X283231Y16155D01*
X283630Y16116D01*
X284015Y15999D01*
X284600Y15941D01*
X284802Y15961D01*
X285000Y15922D01*
X317000D01*
X317199Y15961D01*
X317400Y15941D01*
X317985Y15999D01*
X318369Y16116D01*
X318769Y16155D01*
X319332Y16326D01*
X319686Y16515D01*
X320070Y16631D01*
X320589Y16909D01*
X320900Y17164D01*
X321254Y17353D01*
X321709Y17726D01*
X321963Y18037D01*
X322274Y18291D01*
X322647Y18746D01*
X322836Y19100D01*
X323091Y19411D01*
X323368Y19929D01*
X323485Y20314D01*
X323674Y20668D01*
X323845Y21231D01*
X323884Y21631D01*
X324001Y22015D01*
X324059Y22600D01*
X324632Y25074D01*
X330113D01*
X331630Y25375D01*
X331655Y25392D01*
X338940D01*
X341086Y25819D01*
X342905Y27035D01*
X343284Y27413D01*
X345586Y26340D01*
X345512Y25501D01*
X344344Y21140D01*
X342435Y17047D01*
X339845Y13348D01*
X336652Y10155D01*
X332953Y7565D01*
X328860Y5656D01*
X324498Y4487D01*
X319822Y4078D01*
X158038Y4078D01*
X156986Y6618D01*
X161441Y11074D01*
X162546Y12728D01*
X162934Y14678D01*
Y14750D01*
X167750D01*
Y24112D01*
X168910D01*
X170861Y24500D01*
X172515Y25605D01*
X175405Y28496D01*
X206003D01*
Y31400D01*
X266240D01*
X267924Y29716D01*
D02*
G37*
D10*
X33020Y8890D02*
X152048D01*
X23000Y18910D02*
X33020Y8890D01*
X152048D02*
X157836Y14678D01*
X160000Y25000D02*
Y26460D01*
X162750Y29210D02*
X168910D01*
X174356Y34656D02*
X190163D01*
X160000Y26460D02*
X162750Y29210D01*
X168910D02*
X174356Y34656D01*
X190163D02*
X192003Y36495D01*
X157836Y22836D02*
X160000Y25000D01*
X157836Y14678D02*
Y22836D01*
X23000Y18910D02*
Y31000D01*
X192003Y36495D02*
X203343D01*
X203346Y36498D01*
X268352D01*
X273850Y31000D01*
X275000D01*
D14*
X233503Y17497D02*
D03*
Y62497D02*
D03*
D15*
X190503Y54998D02*
D03*
Y44998D02*
D03*
Y34996D02*
D03*
Y24996D02*
D03*
D16*
X327000Y49000D02*
D03*
Y31000D02*
D03*
X275000Y49000D02*
D03*
Y31000D02*
D03*
X75000Y49000D02*
D03*
Y31000D02*
D03*
X23000Y49000D02*
D03*
Y31000D02*
D03*
D17*
X120000Y55000D02*
D03*
X100000D02*
D03*
X160000Y25000D02*
D03*
X140000D02*
D03*
D18*
X157900Y55000D02*
D03*
X142100D02*
D03*
X117900Y25000D02*
D03*
X102100D02*
D03*
D26*
X23367Y64405D02*
X30135Y69850D01*
X87630D01*
X21712Y62749D02*
X23367Y64405D01*
X21712Y50350D02*
Y62749D01*
Y50350D02*
X23000Y49000D01*
X274946Y49054D02*
X275000Y49000D01*
X274946Y49054D02*
Y57794D01*
X274893Y57847D02*
X274946Y57794D01*
X74965Y49035D02*
Y59655D01*
X74930Y59690D02*
X74965Y59655D01*
Y49035D02*
X75000Y49000D01*
X100000Y55000D02*
X100643Y59750D01*
X87630Y69850D02*
X100643Y59750D01*
X175651Y69850D02*
X182432Y63069D01*
X147320Y69850D02*
X175651D01*
X143463Y65993D02*
X147320Y69850D01*
X142100Y57939D02*
X143463Y59302D01*
Y65993D01*
X142100Y55000D02*
Y57939D01*
X183432Y54998D02*
X190503D01*
X182432Y55998D02*
X183432Y54998D01*
X182432Y55998D02*
Y63069D01*
X138372Y55000D02*
X141311Y57939D01*
X120000Y55000D02*
X138372D01*
X102100Y25000D02*
X104400Y27300D01*
Y34550D02*
X109220Y39370D01*
X104400Y27300D02*
Y34550D01*
X109220Y39370D02*
X167640D01*
X172265Y43995D01*
X177574D01*
X177576Y43998D01*
X189503D02*
X190503Y44998D01*
X177576Y43998D02*
X189503D01*
X76150Y31000D02*
X82150Y25000D01*
X75000Y31000D02*
X76150D01*
X82150Y25000D02*
X102100D01*
X262890Y50106D02*
Y59690D01*
X270510Y67310D02*
X332740D01*
X262890Y59690D02*
X270510Y67310D01*
X191004Y44497D02*
X257281D01*
X262890Y50106D01*
X190503Y44998D02*
X191004Y44497D01*
X338940Y31000D02*
X342900Y34960D01*
X341126Y58924D02*
X342074Y57976D01*
X342900Y34960D02*
Y54892D01*
X332740Y67310D02*
X341126Y58924D01*
X342074Y57976D02*
X342900Y54892D01*
X327000Y31000D02*
X338940D01*
D27*
X167640Y82550D02*
D03*
X182880D02*
D03*
X175260D02*
D03*
D28*
X8890Y30000D02*
D03*
Y50000D02*
D03*
X133350Y25400D02*
D03*
X123190D02*
D03*
X163830Y54610D02*
D03*
X233680Y64770D02*
D03*
X215900Y54610D02*
D03*
X250190D02*
D03*
Y10160D02*
D03*
Y25400D02*
D03*
X217170D02*
D03*
Y10160D02*
D03*
X274893Y57847D02*
D03*
X74930Y59690D02*
D03*
X334010Y49530D02*
D03*
X179070Y24130D02*
D03*
M02*
