G04*
G04 #@! TF.GenerationSoftware,Altium Limited,Altium Designer,24.9.1 (31)*
G04*
G04 Layer_Physical_Order=2*
G04 Layer_Color=16711680*
%FSLAX44Y44*%
%MOMM*%
G71*
G04*
G04 #@! TF.SameCoordinates,0EA0C4F9-9699-4FEE-9EE7-DB85143A2A43*
G04*
G04*
G04 #@! TF.FilePolarity,Positive*
G04*
G01*
G75*
%ADD26C,0.5000*%
%ADD27C,0.5000*%
%ADD28C,0.6000*%
G36*
X324498Y75512D02*
X328860Y74344D01*
X332953Y72435D01*
X336652Y69845D01*
X339845Y66652D01*
X342435Y62953D01*
X344344Y58860D01*
X345512Y54499D01*
X345922Y49822D01*
Y30178D01*
X345512Y25501D01*
X344344Y21140D01*
X342435Y17047D01*
X339845Y13348D01*
X336652Y10155D01*
X332953Y7565D01*
X328860Y5656D01*
X324498Y4487D01*
X319822Y4078D01*
X30178Y4078D01*
X25501Y4487D01*
X21140Y5656D01*
X17047Y7565D01*
X13348Y10155D01*
X10155Y13348D01*
X7565Y17047D01*
X5656Y21140D01*
X4487Y25501D01*
X4078Y30178D01*
Y49822D01*
X4487Y54499D01*
X5656Y58860D01*
X7565Y62953D01*
X10155Y66652D01*
X13348Y69845D01*
X17047Y72435D01*
X21140Y74344D01*
X25501Y75512D01*
X30178Y75922D01*
X79912D01*
X80884Y73575D01*
X72478Y65169D01*
X71531Y64777D01*
X69843Y63089D01*
X67336Y63672D01*
X67332Y63674D01*
X66769Y63845D01*
X66369Y63884D01*
X65985Y64001D01*
X65400Y64059D01*
X65198Y64039D01*
X65000Y64078D01*
X33000D01*
X32802Y64039D01*
X32600Y64059D01*
X32015Y64001D01*
X31631Y63885D01*
X31231Y63845D01*
X30668Y63674D01*
X30314Y63485D01*
X29929Y63368D01*
X29411Y63091D01*
X29100Y62836D01*
X28746Y62647D01*
X28291Y62274D01*
X28036Y61963D01*
X27726Y61708D01*
X27353Y61254D01*
X27164Y60900D01*
X26909Y60589D01*
X26632Y60071D01*
X26515Y59686D01*
X26326Y59332D01*
X26155Y58769D01*
X26116Y58369D01*
X25999Y57985D01*
X25941Y57400D01*
X25961Y57198D01*
X25922Y57000D01*
Y23000D01*
X25961Y22802D01*
X25941Y22600D01*
X25999Y22015D01*
X26116Y21631D01*
X26155Y21231D01*
X26326Y20668D01*
X26515Y20314D01*
X26632Y19929D01*
X26909Y19411D01*
X27164Y19100D01*
X27353Y18746D01*
X27726Y18291D01*
X28036Y18037D01*
X28291Y17726D01*
X28746Y17353D01*
X29100Y17164D01*
X29411Y16909D01*
X29929Y16631D01*
X30314Y16515D01*
X30668Y16326D01*
X31231Y16155D01*
X31631Y16115D01*
X32015Y15999D01*
X32600Y15941D01*
X32801Y15961D01*
X33000Y15922D01*
X65000D01*
X65198Y15961D01*
X65400Y15941D01*
X65985Y15999D01*
X66369Y16115D01*
X66769Y16155D01*
X67332Y16326D01*
X67686Y16515D01*
X68070Y16631D01*
X68589Y16909D01*
X68900Y17164D01*
X69254Y17353D01*
X69709Y17726D01*
X69963Y18037D01*
X70274Y18291D01*
X70647Y18746D01*
X70836Y19100D01*
X71091Y19411D01*
X71368Y19929D01*
X71485Y20314D01*
X71674Y20668D01*
X71845Y21231D01*
X71884Y21630D01*
X72001Y22015D01*
X72059Y22600D01*
X72039Y22801D01*
X72078Y23000D01*
Y52582D01*
X73737Y53690D01*
X76123D01*
X78329Y54603D01*
X80017Y56291D01*
X80409Y57238D01*
X91063Y67892D01*
X256917D01*
X269414Y55396D01*
X269806Y54449D01*
X271494Y52761D01*
X273699Y51847D01*
X276086D01*
X277922Y50621D01*
Y23000D01*
X277961Y22801D01*
X277941Y22600D01*
X277999Y22015D01*
X278116Y21630D01*
X278155Y21231D01*
X278326Y20668D01*
X278515Y20314D01*
X278631Y19930D01*
X278909Y19411D01*
X279164Y19100D01*
X279353Y18746D01*
X279726Y18291D01*
X280037Y18037D01*
X280291Y17726D01*
X280746Y17353D01*
X281100Y17164D01*
X281411Y16909D01*
X281929Y16631D01*
X282314Y16515D01*
X282668Y16326D01*
X283231Y16155D01*
X283630Y16116D01*
X284015Y15999D01*
X284600Y15941D01*
X284802Y15961D01*
X285000Y15922D01*
X317000D01*
X317199Y15961D01*
X317400Y15941D01*
X317985Y15999D01*
X318369Y16116D01*
X318769Y16155D01*
X319332Y16326D01*
X319686Y16515D01*
X320070Y16631D01*
X320589Y16909D01*
X320900Y17164D01*
X321254Y17353D01*
X321709Y17726D01*
X321963Y18037D01*
X322274Y18291D01*
X322647Y18746D01*
X322836Y19100D01*
X323091Y19411D01*
X323368Y19929D01*
X323485Y20314D01*
X323674Y20668D01*
X323845Y21231D01*
X323884Y21631D01*
X324001Y22015D01*
X324059Y22600D01*
X324039Y22802D01*
X324078Y23000D01*
X324078Y57000D01*
X324039Y57198D01*
X324059Y57400D01*
X324001Y57985D01*
X323884Y58369D01*
X323845Y58769D01*
X323674Y59332D01*
X323485Y59686D01*
X323368Y60071D01*
X323091Y60589D01*
X322836Y60900D01*
X322647Y61254D01*
X322274Y61709D01*
X321963Y61964D01*
X321708Y62274D01*
X321254Y62647D01*
X320900Y62836D01*
X320589Y63091D01*
X320071Y63368D01*
X319686Y63485D01*
X319332Y63674D01*
X318769Y63845D01*
X318369Y63885D01*
X317985Y64001D01*
X317400Y64059D01*
X317198Y64039D01*
X317000Y64078D01*
X285000D01*
X284802Y64039D01*
X284600Y64059D01*
X284015Y64001D01*
X283631Y63885D01*
X283231Y63845D01*
X282668Y63674D01*
X282314Y63485D01*
X281929Y63368D01*
X281411Y63091D01*
X281100Y62836D01*
X280746Y62647D01*
X280291Y62274D01*
X278291Y62934D01*
X277344Y63326D01*
X267096Y73575D01*
X268068Y75922D01*
X319822D01*
X324498Y75512D01*
D02*
G37*
D26*
X259240Y73500D02*
X274893Y57847D01*
X88740Y73500D02*
X259240D01*
X74930Y59690D02*
X88740Y73500D01*
D27*
X167640Y82550D02*
D03*
X182880D02*
D03*
X175260D02*
D03*
D28*
X8890Y30000D02*
D03*
Y50000D02*
D03*
X133350Y25400D02*
D03*
X123190D02*
D03*
X163830Y54610D02*
D03*
X233680Y64770D02*
D03*
X215900Y54610D02*
D03*
X250190D02*
D03*
Y10160D02*
D03*
Y25400D02*
D03*
X217170D02*
D03*
Y10160D02*
D03*
X274893Y57847D02*
D03*
X74930Y59690D02*
D03*
X334010Y49530D02*
D03*
X179070Y24130D02*
D03*
M02*
