G04*
G04 #@! TF.GenerationSoftware,Altium Limited,Altium Designer,24.9.1 (31)*
G04*
G04 Layer_Color=32896*
%FSLAX44Y44*%
%MOMM*%
G71*
G04*
G04 #@! TF.SameCoordinates,439E70C9-0D6D-49E2-BCB5-F9E3050201B8*
G04*
G04*
G04 #@! TF.FilePolarity,Positive*
G04*
G01*
G75*
%ADD28C,0.0250*%
D28*
X319250Y28500D02*
Y33500D01*
X324000D01*
Y28500D02*
Y33500D01*
X319250Y28500D02*
X324000D01*
X319250Y46500D02*
Y51500D01*
X324000D01*
Y46500D02*
Y51500D01*
X319250Y46500D02*
X324000D01*
X282750D02*
Y51500D01*
X278000Y46500D02*
X282750D01*
X278000D02*
Y51500D01*
X282750D01*
Y28500D02*
Y33500D01*
X278000Y28500D02*
X282750D01*
X278000D02*
Y33500D01*
X282750D01*
X287500Y23000D02*
X314500D01*
X287500D02*
Y57000D01*
X314500D01*
Y23000D02*
Y57000D01*
X67250Y28500D02*
Y33500D01*
X72000D01*
Y28500D02*
Y33500D01*
X67250Y28500D02*
X72000D01*
X67250Y46500D02*
Y51500D01*
X72000D01*
Y46500D02*
Y51500D01*
X67250Y46500D02*
X72000D01*
X30750D02*
Y51500D01*
X26000Y46500D02*
X30750D01*
X26000D02*
Y51500D01*
X30750D01*
Y28500D02*
Y33500D01*
X26000Y28500D02*
X30750D01*
X26000D02*
Y33500D01*
X30750D01*
X35500Y23000D02*
X62500D01*
X35500D02*
Y57000D01*
X62500D01*
Y23000D02*
Y57000D01*
M02*
