G04*
G04 #@! TF.GenerationSoftware,Altium Limited,Altium Designer,24.9.1 (31)*
G04*
G04 Layer_Color=2752767*
%FSLAX44Y44*%
%MOMM*%
G71*
G04*
G04 #@! TF.SameCoordinates,7DCFF066-EA26-49B3-B75A-539F59D7DBC6*
G04*
G04*
G04 #@! TF.FilePolarity,Positive*
G04*
G01*
G75*
%ADD61C,0.1270*%
D61*
X419100Y113538D02*
Y123698D01*
X429260D01*
Y113538D01*
X419100D01*
X515093Y97711D02*
Y107871D01*
X525253D01*
Y97711D01*
X515093D01*
X515302Y83452D02*
Y93612D01*
X525462D01*
Y83452D01*
X515302D01*
X160624Y82804D02*
Y92964D01*
X170784D01*
Y82804D01*
X160624D01*
X153601Y91270D02*
Y101430D01*
X163761D01*
Y91270D01*
X153601D01*
X116078Y109982D02*
Y120142D01*
X126238D01*
Y109982D01*
X116078D01*
X89408Y82804D02*
Y92964D01*
X99568D01*
Y82804D01*
X89408D01*
X272542Y42164D02*
X267462Y52324D01*
X277622D01*
X272542Y42164D01*
X311912Y128270D02*
Y138430D01*
X322072D01*
Y128270D01*
X311912D01*
X315468Y96774D02*
Y106934D01*
X325628D01*
Y96774D01*
X315468D01*
X179578Y82804D02*
Y92964D01*
X189738D01*
Y82804D01*
X179578D01*
X565658Y146050D02*
Y156210D01*
X575818D01*
Y146050D01*
X565658D01*
X464566Y167894D02*
Y178054D01*
X474726D01*
Y167894D01*
X464566D01*
X361696Y179578D02*
Y189738D01*
X371856D01*
Y179578D01*
X361696D01*
X257556Y180086D02*
Y190246D01*
X267716D01*
Y180086D01*
X257556D01*
X154432Y170942D02*
Y181102D01*
X164592D01*
Y170942D01*
X154432D01*
X52832Y150368D02*
Y160528D01*
X62992D01*
Y150368D01*
X52832D01*
X541528Y75946D02*
Y86106D01*
X551688D01*
Y75946D01*
X541528D01*
X342657Y42429D02*
X337577Y52589D01*
X347737D01*
X342657Y42429D01*
X180594Y68326D02*
Y78486D01*
X190754D01*
Y68326D01*
X180594D01*
X415798D02*
Y78486D01*
X425958D01*
Y68326D01*
X415798D01*
X505968Y106934D02*
Y117094D01*
X516128D01*
Y106934D01*
X505968D01*
X549910Y96266D02*
Y106426D01*
X560070D01*
Y96266D01*
X549910D01*
X451866Y91186D02*
Y101346D01*
X462026D01*
Y91186D01*
X451866D01*
X409702Y121920D02*
Y132080D01*
X419862D01*
Y121920D01*
X409702D01*
X482854Y80264D02*
Y90424D01*
X493014D01*
Y80264D01*
X482854D01*
X341630Y93726D02*
Y103886D01*
X351790D01*
Y93726D01*
X341630D01*
X429514Y88900D02*
X424434Y99060D01*
X434594D01*
X429514Y88900D01*
X267462Y93726D02*
Y103886D01*
X277622D01*
Y93726D01*
X267462D01*
X256597Y127565D02*
Y137725D01*
X266757D01*
Y127565D01*
X256597D01*
X211074Y76454D02*
Y86614D01*
X221234D01*
Y76454D01*
X211074D01*
X237236D02*
Y86614D01*
X247396D01*
Y76454D01*
X237236D01*
X351790Y61214D02*
Y71374D01*
X361950D01*
Y61214D01*
X351790D01*
X393700Y76200D02*
Y86360D01*
X403860D01*
Y76200D01*
X393700D01*
X367792Y76454D02*
Y86614D01*
X377952D01*
Y76454D01*
X367792D01*
X289052Y83566D02*
Y93726D01*
X299212D01*
Y83566D01*
X289052D01*
X239153Y37948D02*
X234073Y48108D01*
X244233D01*
X239153Y37948D01*
X376161D02*
X371081Y48108D01*
X381241D01*
X376161Y37948D01*
X453390Y116586D02*
Y126746D01*
X463550D01*
Y116586D01*
X453390D01*
X355600Y126746D02*
Y136906D01*
X365760D01*
Y126746D01*
X355600D01*
X213614Y124460D02*
Y134620D01*
X223774D01*
Y124460D01*
X213614D01*
X159512Y117602D02*
Y127762D01*
X169672D01*
Y117602D01*
X159512D01*
X21082Y86360D02*
Y96520D01*
X31242D01*
Y86360D01*
X21082D01*
X62992Y98298D02*
Y108458D01*
X73152D01*
Y98298D01*
X62992D01*
M02*
