G04*
G04 #@! TF.GenerationSoftware,Altium Limited,Altium Designer,24.9.1 (31)*
G04*
G04 Layer_Color=0*
%FSLAX44Y44*%
%MOMM*%
G71*
G04*
G04 #@! TF.SameCoordinates,7DCFF066-EA26-49B3-B75A-539F59D7DBC6*
G04*
G04*
G04 #@! TF.FilePolarity,Positive*
G04*
G01*
G75*
G36*
X563408Y125875D02*
X561753Y120102D01*
X561767Y120110D01*
X561833Y120137D01*
X561915Y120183D01*
X562043Y120227D01*
X562188Y120289D01*
X562368Y120353D01*
X562572Y120422D01*
X562798Y120484D01*
X562809Y120481D01*
X562822Y120488D01*
X562899Y120513D01*
X563021Y120535D01*
X563167Y120563D01*
X563338Y120595D01*
X563519Y120624D01*
X563701Y120652D01*
X563879Y120670D01*
X563628Y119796D01*
X563618Y119798D01*
X563590Y119783D01*
X563544Y119785D01*
X563482Y119768D01*
X563409Y119754D01*
X563322Y119733D01*
X563110Y119679D01*
X562863Y119622D01*
X562606Y119534D01*
X562333Y119428D01*
X562057Y119311D01*
X562044Y119303D01*
X562030Y119295D01*
X561989Y119273D01*
X561937Y119253D01*
X561810Y119174D01*
X561646Y119082D01*
X561475Y118970D01*
X561287Y118839D01*
X561121Y118702D01*
X560962Y118551D01*
X560375Y118719D01*
X562501Y126135D01*
X563408Y125875D01*
D02*
G37*
G36*
X569224Y124288D02*
X569422Y124254D01*
X569631Y124217D01*
X569847Y124167D01*
X569964Y124133D01*
X570047Y124098D01*
X570143Y124071D01*
X570257Y124026D01*
X570379Y123968D01*
X570522Y123904D01*
X570816Y123762D01*
X571112Y123585D01*
X571398Y123376D01*
X571526Y123258D01*
X571651Y123130D01*
X571659Y123116D01*
X571677Y123099D01*
X571711Y123055D01*
X571741Y123000D01*
X571793Y122939D01*
X571849Y122854D01*
X571913Y122755D01*
X571974Y122645D01*
X572032Y122524D01*
X572100Y122401D01*
X572222Y122100D01*
X572321Y121760D01*
X572389Y121394D01*
X572386Y121383D01*
X572398Y121345D01*
X572393Y121289D01*
X572407Y121216D01*
X572404Y121124D01*
X572405Y121008D01*
X572415Y120879D01*
X572410Y120742D01*
X572402Y120594D01*
X572399Y120421D01*
X572357Y120075D01*
X572293Y119690D01*
X572204Y119299D01*
X572201Y119289D01*
X572189Y119246D01*
X572170Y119182D01*
X572138Y119110D01*
X572108Y119004D01*
X572066Y118900D01*
X572016Y118764D01*
X571955Y118632D01*
X571813Y118338D01*
X571640Y118018D01*
X571436Y117707D01*
X571191Y117419D01*
X571178Y117411D01*
X571158Y117382D01*
X571124Y117346D01*
X571066Y117305D01*
X571002Y117242D01*
X570924Y117172D01*
X570731Y117020D01*
X570488Y116859D01*
X570213Y116706D01*
X569907Y116563D01*
X569567Y116465D01*
X569553Y116457D01*
X569518Y116455D01*
X569469Y116446D01*
X569407Y116430D01*
X569312Y116422D01*
X569217Y116414D01*
X569099Y116402D01*
X568969Y116393D01*
X568829Y116387D01*
X568678Y116384D01*
X568361Y116406D01*
X568004Y116451D01*
X567646Y116530D01*
X567539Y116561D01*
X567467Y116593D01*
X567374Y116631D01*
X567260Y116676D01*
X567146Y116720D01*
X567016Y116792D01*
X566746Y116938D01*
X566454Y117126D01*
X566312Y117236D01*
X566184Y117354D01*
X566063Y117492D01*
X565941Y117631D01*
X565933Y117645D01*
X565915Y117662D01*
X565881Y117706D01*
X565843Y117775D01*
X565805Y117843D01*
X565752Y117939D01*
X565702Y118046D01*
X565641Y118156D01*
X565586Y118287D01*
X565537Y118440D01*
X565478Y118595D01*
X565432Y118758D01*
X565404Y118940D01*
X565364Y119124D01*
X565349Y119314D01*
X565340Y119524D01*
X566365Y119473D01*
X566362Y119462D01*
X566366Y119438D01*
X566375Y119389D01*
X566381Y119329D01*
X566384Y119259D01*
X566392Y119165D01*
X566428Y118969D01*
X566480Y118747D01*
X566553Y118518D01*
X566661Y118291D01*
X566786Y118082D01*
X566801Y118054D01*
X566853Y117993D01*
X566944Y117909D01*
X567061Y117795D01*
X567224Y117679D01*
X567409Y117557D01*
X567642Y117444D01*
X567906Y117357D01*
X567991Y117332D01*
X568047Y117327D01*
X568122Y117306D01*
X568210Y117292D01*
X568422Y117266D01*
X568659Y117245D01*
X568915Y117252D01*
X569191Y117288D01*
X569455Y117363D01*
X569465Y117360D01*
X569482Y117378D01*
X569572Y117410D01*
X569693Y117468D01*
X569847Y117562D01*
X570031Y117682D01*
X570211Y117827D01*
X570393Y118017D01*
X570570Y118232D01*
X570573Y118243D01*
X570590Y118261D01*
X570610Y118290D01*
X570636Y118340D01*
X570676Y118398D01*
X570718Y118467D01*
X570802Y118639D01*
X570906Y118840D01*
X571016Y119063D01*
X571111Y119313D01*
X571201Y119587D01*
X571204Y119598D01*
X571213Y119630D01*
X571229Y119683D01*
X571247Y119747D01*
X571258Y119825D01*
X571285Y119921D01*
X571305Y120031D01*
X571328Y120151D01*
X571370Y120416D01*
X571396Y120709D01*
X571411Y121005D01*
X571405Y121307D01*
X571409Y121317D01*
X571404Y121342D01*
X571392Y121380D01*
X571386Y121439D01*
X571358Y121586D01*
X571305Y121763D01*
X571237Y121967D01*
X571139Y122191D01*
X571015Y122400D01*
X570855Y122608D01*
X570844Y122611D01*
X570826Y122628D01*
X570800Y122658D01*
X570763Y122692D01*
X570716Y122728D01*
X570661Y122779D01*
X570530Y122886D01*
X570357Y123005D01*
X570159Y123119D01*
X569936Y123229D01*
X569694Y123310D01*
X569619Y123332D01*
X569552Y123339D01*
X569477Y123361D01*
X569399Y123371D01*
X569195Y123384D01*
X568956Y123395D01*
X568707Y123374D01*
X568439Y123324D01*
X568303Y123293D01*
X568172Y123238D01*
X568158Y123231D01*
X568144Y123223D01*
X568103Y123200D01*
X568051Y123181D01*
X567994Y123139D01*
X567922Y123091D01*
X567839Y123045D01*
X567762Y122975D01*
X567670Y122897D01*
X567565Y122812D01*
X567470Y122724D01*
X567369Y122614D01*
X567276Y122491D01*
X567180Y122357D01*
X567081Y122212D01*
X566989Y122053D01*
X566078Y122580D01*
X566081Y122591D01*
X566104Y122631D01*
X566144Y122688D01*
X566200Y122765D01*
X566260Y122851D01*
X566336Y122957D01*
X566426Y123069D01*
X566530Y123190D01*
X566765Y123446D01*
X567043Y123689D01*
X567203Y123805D01*
X567363Y123921D01*
X567528Y124012D01*
X567714Y124097D01*
X567728Y124105D01*
X567755Y124120D01*
X567814Y124126D01*
X567880Y124153D01*
X567981Y124182D01*
X568081Y124211D01*
X568214Y124231D01*
X568347Y124251D01*
X568504Y124275D01*
X568669Y124285D01*
X568844Y124293D01*
X569030Y124297D01*
X569224Y124288D01*
D02*
G37*
G36*
X575700Y122350D02*
X573583Y114966D01*
X572601Y115248D01*
X574718Y122632D01*
X575700Y122350D01*
D02*
G37*
G36*
X527224Y134741D02*
X527222Y134730D01*
X527211Y134687D01*
X527196Y134622D01*
X527165Y134538D01*
X527131Y134444D01*
X527084Y134341D01*
X527037Y134238D01*
X526965Y134129D01*
X526963Y134118D01*
X526950Y134110D01*
X526913Y134050D01*
X526846Y133963D01*
X526751Y133849D01*
X526629Y133718D01*
X526480Y133571D01*
X526320Y133426D01*
X526126Y133278D01*
X526123Y133268D01*
X526099Y133262D01*
X526030Y133210D01*
X525909Y133136D01*
X525736Y133028D01*
X525535Y132905D01*
X525284Y132759D01*
X524985Y132601D01*
X524661Y132438D01*
X524648Y132430D01*
X524597Y132408D01*
X524519Y132369D01*
X524428Y132322D01*
X524311Y132259D01*
X524169Y132190D01*
X524024Y132110D01*
X523856Y132024D01*
X523525Y131829D01*
X523193Y131633D01*
X523033Y131534D01*
X522883Y131433D01*
X522747Y131340D01*
X522633Y131241D01*
X522630Y131230D01*
X522606Y131225D01*
X522577Y131197D01*
X522545Y131159D01*
X522441Y131058D01*
X522322Y130938D01*
X522205Y130783D01*
X522086Y130618D01*
X521995Y130422D01*
X521927Y130233D01*
X521925Y130222D01*
X521922Y130212D01*
X521917Y130144D01*
X521903Y130034D01*
X521907Y129907D01*
X521914Y129746D01*
X521954Y129577D01*
X522016Y129402D01*
X522110Y129221D01*
X522126Y129194D01*
X522170Y129138D01*
X522233Y129066D01*
X522334Y128962D01*
X522470Y128862D01*
X522627Y128756D01*
X522822Y128664D01*
X523046Y128600D01*
X523111Y128585D01*
X523157Y128585D01*
X523289Y128565D01*
X523448Y128562D01*
X523620Y128567D01*
X523822Y128599D01*
X524018Y128656D01*
X524210Y128747D01*
X524237Y128763D01*
X524293Y128807D01*
X524378Y128878D01*
X524474Y128993D01*
X524585Y129126D01*
X524696Y129305D01*
X524790Y129511D01*
X524870Y129754D01*
X525787Y129435D01*
X525785Y129424D01*
X525766Y129394D01*
X525754Y129340D01*
X525725Y129267D01*
X525683Y129186D01*
X525638Y129094D01*
X525578Y128982D01*
X525517Y128871D01*
X525369Y128632D01*
X525179Y128404D01*
X525072Y128292D01*
X524944Y128186D01*
X524819Y128090D01*
X524686Y128007D01*
X524672Y127999D01*
X524648Y127993D01*
X524608Y127969D01*
X524546Y127949D01*
X524471Y127921D01*
X524385Y127896D01*
X524286Y127862D01*
X524166Y127833D01*
X524034Y127808D01*
X523892Y127784D01*
X523741Y127774D01*
X523579Y127767D01*
X523410Y127773D01*
X523229Y127781D01*
X523043Y127814D01*
X522846Y127849D01*
X522738Y127874D01*
X522665Y127903D01*
X522581Y127934D01*
X522476Y127971D01*
X522362Y128020D01*
X522248Y128070D01*
X521985Y128212D01*
X521730Y128386D01*
X521605Y128484D01*
X521482Y128593D01*
X521376Y128721D01*
X521282Y128857D01*
X521274Y128871D01*
X521255Y128886D01*
X521244Y128935D01*
X521211Y128988D01*
X521169Y129055D01*
X521133Y129143D01*
X521097Y129232D01*
X521055Y129344D01*
X520996Y129575D01*
X520949Y129860D01*
X520937Y130000D01*
X520951Y130156D01*
X520965Y130312D01*
X520992Y130477D01*
X520997Y130499D01*
X521010Y130553D01*
X521041Y130637D01*
X521080Y130753D01*
X521133Y130877D01*
X521212Y131018D01*
X521293Y131170D01*
X521396Y131317D01*
X521412Y131336D01*
X521446Y131385D01*
X521510Y131461D01*
X521603Y131565D01*
X521720Y131674D01*
X521866Y131810D01*
X522034Y131941D01*
X522229Y132089D01*
X522256Y132106D01*
X522325Y132158D01*
X522392Y132199D01*
X522458Y132240D01*
X522539Y132290D01*
X522645Y132356D01*
X522752Y132422D01*
X522883Y132494D01*
X523017Y132576D01*
X523175Y132664D01*
X523343Y132750D01*
X523528Y132855D01*
X523734Y132954D01*
X523942Y133064D01*
X523955Y133073D01*
X523982Y133089D01*
X524033Y133111D01*
X524097Y133142D01*
X524178Y133191D01*
X524268Y133238D01*
X524474Y133338D01*
X524696Y133456D01*
X524907Y133578D01*
X525092Y133682D01*
X525169Y133721D01*
X525236Y133762D01*
X525250Y133771D01*
X525290Y133795D01*
X525343Y133828D01*
X525412Y133880D01*
X525484Y133943D01*
X525567Y134003D01*
X525740Y134157D01*
X522057Y135027D01*
X522266Y135913D01*
X527224Y134741D01*
D02*
G37*
G36*
X530439Y134061D02*
X530639Y134036D01*
X530849Y134009D01*
X531068Y133969D01*
X531187Y133941D01*
X531271Y133910D01*
X531368Y133887D01*
X531484Y133848D01*
X531609Y133796D01*
X531755Y133738D01*
X532055Y133610D01*
X532359Y133447D01*
X532655Y133252D01*
X532788Y133140D01*
X532919Y133018D01*
X532927Y133005D01*
X532946Y132989D01*
X532982Y132946D01*
X533015Y132893D01*
X533069Y132835D01*
X533130Y132752D01*
X533198Y132656D01*
X533264Y132549D01*
X533328Y132431D01*
X533402Y132311D01*
X533538Y132017D01*
X533652Y131682D01*
X533738Y131319D01*
X533735Y131308D01*
X533749Y131271D01*
X533747Y131214D01*
X533764Y131142D01*
X533765Y131050D01*
X533772Y130935D01*
X533787Y130806D01*
X533789Y130668D01*
X533788Y130520D01*
X533793Y130348D01*
X533768Y130000D01*
X533722Y129612D01*
X533652Y129218D01*
X533649Y129207D01*
X533639Y129164D01*
X533624Y129099D01*
X533595Y129026D01*
X533569Y128918D01*
X533533Y128813D01*
X533489Y128675D01*
X533434Y128540D01*
X533306Y128239D01*
X533149Y127911D01*
X532959Y127591D01*
X532729Y127292D01*
X532715Y127284D01*
X532697Y127254D01*
X532665Y127216D01*
X532609Y127172D01*
X532548Y127107D01*
X532474Y127033D01*
X532287Y126872D01*
X532052Y126699D01*
X531785Y126534D01*
X531486Y126377D01*
X531151Y126262D01*
X531137Y126254D01*
X531102Y126251D01*
X531054Y126239D01*
X530993Y126220D01*
X530898Y126208D01*
X530804Y126196D01*
X530686Y126178D01*
X530557Y126163D01*
X530417Y126150D01*
X530267Y126140D01*
X529949Y126147D01*
X529590Y126175D01*
X529229Y126237D01*
X529121Y126263D01*
X529048Y126292D01*
X528953Y126325D01*
X528837Y126364D01*
X528721Y126403D01*
X528588Y126469D01*
X528311Y126603D01*
X528010Y126776D01*
X527864Y126880D01*
X527730Y126991D01*
X527602Y127124D01*
X527474Y127257D01*
X527466Y127270D01*
X527446Y127286D01*
X527411Y127329D01*
X527370Y127395D01*
X527328Y127462D01*
X527271Y127556D01*
X527215Y127660D01*
X527150Y127767D01*
X527089Y127895D01*
X527033Y128045D01*
X526966Y128198D01*
X526913Y128359D01*
X526876Y128539D01*
X526828Y128721D01*
X526804Y128909D01*
X526785Y129119D01*
X527811Y129116D01*
X527808Y129105D01*
X527814Y129081D01*
X527825Y129033D01*
X527834Y128974D01*
X527840Y128904D01*
X527852Y128810D01*
X527898Y128617D01*
X527960Y128397D01*
X528044Y128171D01*
X528162Y127949D01*
X528297Y127747D01*
X528313Y127720D01*
X528368Y127661D01*
X528463Y127582D01*
X528586Y127473D01*
X528754Y127365D01*
X528944Y127252D01*
X529182Y127149D01*
X529450Y127075D01*
X529536Y127055D01*
X529593Y127052D01*
X529668Y127035D01*
X529757Y127025D01*
X529970Y127009D01*
X530207Y126999D01*
X530463Y127018D01*
X530737Y127067D01*
X530997Y127154D01*
X531007Y127151D01*
X531023Y127170D01*
X531112Y127207D01*
X531229Y127270D01*
X531379Y127372D01*
X531558Y127500D01*
X531731Y127653D01*
X531903Y127852D01*
X532070Y128075D01*
X532072Y128086D01*
X532088Y128105D01*
X532107Y128135D01*
X532130Y128186D01*
X532167Y128246D01*
X532207Y128316D01*
X532282Y128492D01*
X532377Y128698D01*
X532476Y128926D01*
X532559Y129180D01*
X532636Y129458D01*
X532639Y129469D01*
X532646Y129501D01*
X532659Y129555D01*
X532675Y129620D01*
X532682Y129698D01*
X532705Y129796D01*
X532719Y129906D01*
X532737Y130028D01*
X532766Y130294D01*
X532778Y130588D01*
X532780Y130884D01*
X532759Y131186D01*
X532762Y131196D01*
X532756Y131221D01*
X532742Y131258D01*
X532733Y131317D01*
X532699Y131462D01*
X532638Y131636D01*
X532560Y131837D01*
X532452Y132057D01*
X532318Y132260D01*
X532148Y132459D01*
X532137Y132462D01*
X532118Y132478D01*
X532091Y132507D01*
X532053Y132539D01*
X532004Y132573D01*
X531947Y132621D01*
X531811Y132721D01*
X531632Y132832D01*
X531428Y132937D01*
X531201Y133037D01*
X530955Y133106D01*
X530880Y133124D01*
X530812Y133129D01*
X530737Y133146D01*
X530658Y133153D01*
X530454Y133156D01*
X530214Y133156D01*
X529967Y133123D01*
X529701Y133060D01*
X529567Y133024D01*
X529439Y132963D01*
X529425Y132955D01*
X529412Y132946D01*
X529372Y132922D01*
X529321Y132899D01*
X529265Y132856D01*
X529196Y132804D01*
X529115Y132754D01*
X529041Y132680D01*
X528953Y132598D01*
X528852Y132508D01*
X528762Y132416D01*
X528666Y132301D01*
X528579Y132174D01*
X528489Y132035D01*
X528397Y131886D01*
X528313Y131723D01*
X527378Y132207D01*
X527380Y132218D01*
X527401Y132258D01*
X527438Y132318D01*
X527491Y132397D01*
X527547Y132486D01*
X527618Y132595D01*
X527702Y132712D01*
X527800Y132837D01*
X528023Y133104D01*
X528289Y133360D01*
X528444Y133483D01*
X528598Y133606D01*
X528759Y133705D01*
X528940Y133799D01*
X528954Y133807D01*
X528980Y133824D01*
X529040Y133833D01*
X529104Y133863D01*
X529203Y133897D01*
X529302Y133930D01*
X529434Y133956D01*
X529565Y133982D01*
X529721Y134014D01*
X529885Y134032D01*
X530060Y134048D01*
X530246Y134061D01*
X530439Y134061D01*
D02*
G37*
G36*
X537000Y132430D02*
X535233Y124955D01*
X534239Y125190D01*
X536006Y132665D01*
X537000Y132430D01*
D02*
G37*
G36*
X464599Y147382D02*
X464789Y147370D01*
X464999Y147344D01*
X465097Y147327D01*
X465160Y147304D01*
X465246Y147278D01*
X465342Y147249D01*
X465448Y147208D01*
X465564Y147165D01*
X465815Y147052D01*
X466068Y146894D01*
X466199Y146804D01*
X466316Y146704D01*
X466430Y146582D01*
X466544Y146460D01*
X466552Y146447D01*
X466570Y146422D01*
X466597Y146383D01*
X466622Y146334D01*
X466667Y146269D01*
X466708Y146183D01*
X466760Y146095D01*
X466808Y145985D01*
X466854Y145864D01*
X466900Y145743D01*
X466974Y145459D01*
X467018Y145136D01*
X467021Y144966D01*
X467012Y144787D01*
X466062Y144832D01*
X466064Y144843D01*
X466057Y144867D01*
X466054Y144913D01*
X466052Y144969D01*
X466053Y145037D01*
X466045Y145117D01*
X466020Y145291D01*
X465978Y145501D01*
X465913Y145704D01*
X465835Y145899D01*
X465731Y146075D01*
X465711Y146090D01*
X465675Y146142D01*
X465597Y146212D01*
X465498Y146286D01*
X465378Y146375D01*
X465224Y146459D01*
X465046Y146535D01*
X464851Y146581D01*
X464786Y146593D01*
X464740Y146590D01*
X464618Y146600D01*
X464459Y146595D01*
X464274Y146571D01*
X464075Y146528D01*
X463870Y146452D01*
X463668Y146330D01*
X463642Y146312D01*
X463576Y146256D01*
X463493Y146169D01*
X463382Y146054D01*
X463265Y145906D01*
X463167Y145731D01*
X463073Y145523D01*
X463008Y145286D01*
X463006Y145275D01*
X463003Y145253D01*
X462997Y145220D01*
X463000Y145175D01*
X462989Y145053D01*
X462997Y144905D01*
X463009Y144722D01*
X463055Y144534D01*
X463133Y144339D01*
X463246Y144150D01*
X463264Y144124D01*
X463311Y144071D01*
X463386Y143990D01*
X463493Y143892D01*
X463632Y143788D01*
X463806Y143689D01*
X464006Y143609D01*
X464232Y143546D01*
X464330Y143529D01*
X464408Y143526D01*
X464509Y143519D01*
X464622Y143522D01*
X464757Y143520D01*
X464905Y143528D01*
X464650Y142728D01*
X464595Y142737D01*
X464553Y142756D01*
X464411Y142781D01*
X464287Y142781D01*
X464141Y142784D01*
X463971Y142781D01*
X463776Y142759D01*
X463587Y142714D01*
X463384Y142649D01*
X463373Y142650D01*
X463360Y142641D01*
X463298Y142607D01*
X463208Y142545D01*
X463103Y142462D01*
X462990Y142335D01*
X462884Y142185D01*
X462797Y142009D01*
X462755Y141904D01*
X462734Y141784D01*
X462732Y141773D01*
X462730Y141762D01*
X462718Y141696D01*
X462725Y141605D01*
X462725Y141481D01*
X462745Y141342D01*
X462775Y141190D01*
X462837Y141032D01*
X462934Y140880D01*
X462943Y140867D01*
X462990Y140813D01*
X463056Y140745D01*
X463143Y140662D01*
X463264Y140584D01*
X463408Y140502D01*
X463575Y140427D01*
X463769Y140381D01*
X463857Y140366D01*
X463959Y140370D01*
X464094Y140369D01*
X464244Y140387D01*
X464396Y140416D01*
X464564Y140477D01*
X464726Y140561D01*
X464739Y140569D01*
X464792Y140616D01*
X464871Y140681D01*
X464967Y140777D01*
X465069Y140905D01*
X465177Y141067D01*
X465279Y141262D01*
X465366Y141495D01*
X466265Y141166D01*
X466264Y141155D01*
X466247Y141124D01*
X466228Y141082D01*
X466205Y141018D01*
X466170Y140946D01*
X466122Y140864D01*
X466019Y140668D01*
X465867Y140448D01*
X465693Y140230D01*
X465488Y140030D01*
X465244Y139860D01*
X465231Y139851D01*
X465207Y139844D01*
X465170Y139827D01*
X465121Y139802D01*
X465058Y139768D01*
X464974Y139738D01*
X464890Y139708D01*
X464782Y139671D01*
X464548Y139623D01*
X464281Y139580D01*
X463976Y139578D01*
X463819Y139583D01*
X463546Y139632D01*
X463428Y139664D01*
X463289Y139712D01*
X463120Y139775D01*
X462933Y139865D01*
X462748Y139966D01*
X462567Y140088D01*
X462556Y140090D01*
X462547Y140103D01*
X462488Y140147D01*
X462401Y140231D01*
X462305Y140326D01*
X462194Y140459D01*
X462084Y140603D01*
X461978Y140768D01*
X461898Y140951D01*
X461891Y140975D01*
X461868Y141036D01*
X461842Y141142D01*
X461809Y141272D01*
X461779Y141424D01*
X461765Y141595D01*
X461765Y141787D01*
X461787Y141975D01*
X461791Y141996D01*
X461803Y142062D01*
X461829Y142148D01*
X461872Y142264D01*
X461931Y142400D01*
X462012Y142543D01*
X462105Y142685D01*
X462220Y142822D01*
X462235Y142842D01*
X462275Y142880D01*
X462355Y142945D01*
X462458Y143017D01*
X462584Y143095D01*
X462735Y143181D01*
X462905Y143252D01*
X463109Y143318D01*
X463098Y143320D01*
X463078Y143335D01*
X463047Y143351D01*
X463005Y143370D01*
X462893Y143435D01*
X462752Y143528D01*
X462592Y143646D01*
X462437Y143787D01*
X462298Y143958D01*
X462174Y144149D01*
X462167Y144173D01*
X462135Y144247D01*
X462089Y144367D01*
X462049Y144521D01*
X462015Y144708D01*
X461986Y144927D01*
X461985Y145175D01*
X462021Y145439D01*
X462023Y145450D01*
X462029Y145483D01*
X462038Y145538D01*
X462061Y145601D01*
X462088Y145687D01*
X462127Y145781D01*
X462168Y145887D01*
X462211Y146003D01*
X462346Y146250D01*
X462436Y146380D01*
X462525Y146500D01*
X462638Y146626D01*
X462762Y146751D01*
X462896Y146873D01*
X463051Y146981D01*
X463064Y146990D01*
X463089Y147008D01*
X463139Y147033D01*
X463201Y147067D01*
X463277Y147110D01*
X463374Y147149D01*
X463484Y147197D01*
X463614Y147230D01*
X463746Y147274D01*
X463900Y147315D01*
X464051Y147344D01*
X464225Y147369D01*
X464408Y147382D01*
X464599Y147382D01*
D02*
G37*
G36*
X470959Y146249D02*
X471171Y146234D01*
X471391Y146206D01*
X471511Y146184D01*
X471597Y146158D01*
X471695Y146140D01*
X471814Y146108D01*
X471941Y146063D01*
X472090Y146013D01*
X472397Y145902D01*
X472709Y145757D01*
X473016Y145578D01*
X473155Y145474D01*
X473293Y145360D01*
X473302Y145347D01*
X473321Y145332D01*
X473359Y145291D01*
X473395Y145240D01*
X473453Y145184D01*
X473518Y145105D01*
X473592Y145013D01*
X473663Y144910D01*
X473733Y144796D01*
X473814Y144680D01*
X473966Y144394D01*
X474099Y144066D01*
X474205Y143709D01*
X474203Y143698D01*
X474219Y143661D01*
X474220Y143605D01*
X474241Y143533D01*
X474248Y143442D01*
X474261Y143327D01*
X474283Y143199D01*
X474292Y143062D01*
X474300Y142914D01*
X474314Y142742D01*
X474309Y142394D01*
X474284Y142003D01*
X474236Y141606D01*
X474234Y141595D01*
X474226Y141552D01*
X474215Y141486D01*
X474190Y141412D01*
X474171Y141302D01*
X474140Y141195D01*
X474104Y141055D01*
X474057Y140917D01*
X473946Y140609D01*
X473807Y140273D01*
X473635Y139943D01*
X473422Y139632D01*
X473409Y139623D01*
X473393Y139592D01*
X473363Y139552D01*
X473309Y139505D01*
X473252Y139436D01*
X473182Y139359D01*
X473005Y139187D01*
X472780Y139002D01*
X472523Y138822D01*
X472232Y138648D01*
X471904Y138515D01*
X471891Y138506D01*
X471857Y138501D01*
X471809Y138487D01*
X471749Y138464D01*
X471655Y138447D01*
X471562Y138430D01*
X471445Y138405D01*
X471317Y138383D01*
X471178Y138363D01*
X471028Y138344D01*
X470710Y138333D01*
X470351Y138341D01*
X469987Y138383D01*
X469877Y138403D01*
X469803Y138427D01*
X469706Y138456D01*
X469588Y138488D01*
X469470Y138520D01*
X469334Y138579D01*
X469050Y138697D01*
X468740Y138853D01*
X468588Y138948D01*
X468448Y139052D01*
X468313Y139178D01*
X468177Y139303D01*
X468168Y139316D01*
X468148Y139331D01*
X468111Y139371D01*
X468066Y139436D01*
X468021Y139500D01*
X467958Y139590D01*
X467897Y139691D01*
X467825Y139794D01*
X467757Y139919D01*
X467693Y140066D01*
X467618Y140215D01*
X467556Y140372D01*
X467509Y140550D01*
X467450Y140729D01*
X467416Y140916D01*
X467386Y141124D01*
X468410Y141178D01*
X468408Y141167D01*
X468415Y141144D01*
X468429Y141096D01*
X468441Y141038D01*
X468451Y140968D01*
X468469Y140875D01*
X468525Y140684D01*
X468599Y140468D01*
X468695Y140248D01*
X468826Y140033D01*
X468972Y139838D01*
X468990Y139812D01*
X469047Y139757D01*
X469147Y139683D01*
X469275Y139581D01*
X469450Y139482D01*
X469646Y139380D01*
X469889Y139291D01*
X470160Y139232D01*
X470248Y139216D01*
X470304Y139217D01*
X470381Y139204D01*
X470470Y139199D01*
X470684Y139195D01*
X470921Y139198D01*
X471175Y139231D01*
X471446Y139296D01*
X471701Y139397D01*
X471711Y139395D01*
X471726Y139415D01*
X471813Y139456D01*
X471926Y139526D01*
X472070Y139636D01*
X472241Y139774D01*
X472406Y139937D01*
X472566Y140145D01*
X472721Y140377D01*
X472723Y140388D01*
X472737Y140407D01*
X472754Y140438D01*
X472775Y140491D01*
X472808Y140553D01*
X472844Y140625D01*
X472910Y140805D01*
X472992Y141016D01*
X473079Y141249D01*
X473147Y141507D01*
X473209Y141789D01*
X473211Y141800D01*
X473217Y141833D01*
X473227Y141888D01*
X473238Y141953D01*
X473241Y142031D01*
X473258Y142130D01*
X473267Y142241D01*
X473277Y142363D01*
X473291Y142631D01*
X473287Y142925D01*
X473272Y143221D01*
X473236Y143521D01*
X473237Y143532D01*
X473230Y143555D01*
X473214Y143592D01*
X473202Y143651D01*
X473160Y143793D01*
X473089Y143964D01*
X473000Y144160D01*
X472880Y144373D01*
X472734Y144568D01*
X472554Y144758D01*
X472543Y144760D01*
X472523Y144775D01*
X472494Y144803D01*
X472454Y144832D01*
X472404Y144864D01*
X472344Y144908D01*
X472203Y145001D01*
X472018Y145102D01*
X471809Y145195D01*
X471576Y145282D01*
X471327Y145338D01*
X471250Y145351D01*
X471183Y145352D01*
X471106Y145366D01*
X471028Y145368D01*
X470823Y145360D01*
X470584Y145346D01*
X470339Y145299D01*
X470077Y145222D01*
X469945Y145178D01*
X469821Y145110D01*
X469808Y145101D01*
X469795Y145092D01*
X469756Y145065D01*
X469707Y145040D01*
X469653Y144993D01*
X469587Y144937D01*
X469510Y144883D01*
X469439Y144806D01*
X469356Y144719D01*
X469260Y144623D01*
X469175Y144526D01*
X469086Y144406D01*
X469007Y144274D01*
X468925Y144131D01*
X468841Y143977D01*
X468766Y143809D01*
X467805Y144240D01*
X467807Y144251D01*
X467826Y144293D01*
X467859Y144354D01*
X467908Y144436D01*
X467958Y144528D01*
X468023Y144641D01*
X468101Y144762D01*
X468192Y144893D01*
X468400Y145171D01*
X468651Y145442D01*
X468798Y145574D01*
X468946Y145705D01*
X469100Y145813D01*
X469277Y145917D01*
X469290Y145926D01*
X469315Y145944D01*
X469374Y145956D01*
X469436Y145990D01*
X469533Y146029D01*
X469631Y146068D01*
X469760Y146102D01*
X469890Y146135D01*
X470044Y146175D01*
X470207Y146202D01*
X470381Y146228D01*
X470565Y146251D01*
X470759Y146262D01*
X470959Y146249D01*
D02*
G37*
G36*
X477400Y145000D02*
X476053Y137438D01*
X475048Y137617D01*
X476395Y145179D01*
X477400Y145000D01*
D02*
G37*
G36*
X424618Y152845D02*
X424375Y151019D01*
X427686Y150577D01*
X427572Y149719D01*
X423426Y145255D01*
X422667Y145357D01*
X423325Y150286D01*
X422291Y150424D01*
X422405Y151282D01*
X423439Y151144D01*
X423683Y152970D01*
X424618Y152845D01*
D02*
G37*
G36*
X431211Y152067D02*
X431423Y152061D01*
X431644Y152042D01*
X431765Y152026D01*
X431852Y152003D01*
X431951Y151990D01*
X432071Y151963D01*
X432200Y151924D01*
X432351Y151881D01*
X432662Y151783D01*
X432981Y151651D01*
X433295Y151486D01*
X433438Y151389D01*
X433581Y151280D01*
X433590Y151268D01*
X433611Y151254D01*
X433650Y151215D01*
X433689Y151165D01*
X433749Y151112D01*
X433817Y151036D01*
X433895Y150947D01*
X433971Y150847D01*
X434046Y150737D01*
X434132Y150624D01*
X434296Y150345D01*
X434443Y150023D01*
X434564Y149671D01*
X434563Y149660D01*
X434580Y149624D01*
X434584Y149567D01*
X434608Y149497D01*
X434618Y149406D01*
X434637Y149291D01*
X434665Y149165D01*
X434680Y149028D01*
X434694Y148881D01*
X434716Y148710D01*
X434725Y148361D01*
X434718Y147971D01*
X434687Y147571D01*
X434686Y147560D01*
X434680Y147516D01*
X434671Y147450D01*
X434650Y147375D01*
X434635Y147265D01*
X434609Y147156D01*
X434579Y147015D01*
X434538Y146875D01*
X434441Y146563D01*
X434317Y146221D01*
X434160Y145884D01*
X433960Y145563D01*
X433948Y145554D01*
X433932Y145522D01*
X433904Y145481D01*
X433853Y145432D01*
X433799Y145361D01*
X433732Y145280D01*
X433563Y145101D01*
X433346Y144906D01*
X433097Y144715D01*
X432814Y144529D01*
X432492Y144382D01*
X432480Y144372D01*
X432445Y144366D01*
X432398Y144349D01*
X432339Y144324D01*
X432247Y144303D01*
X432154Y144281D01*
X432038Y144252D01*
X431911Y144224D01*
X431773Y144198D01*
X431624Y144173D01*
X431308Y144148D01*
X430948Y144140D01*
X430582Y144166D01*
X430472Y144181D01*
X430397Y144202D01*
X430299Y144226D01*
X430180Y144254D01*
X430060Y144281D01*
X429921Y144333D01*
X429633Y144438D01*
X429316Y144581D01*
X429160Y144670D01*
X429016Y144767D01*
X428876Y144887D01*
X428735Y145006D01*
X428725Y145019D01*
X428705Y145033D01*
X428665Y145071D01*
X428617Y145134D01*
X428570Y145196D01*
X428503Y145283D01*
X428438Y145382D01*
X428361Y145482D01*
X428288Y145603D01*
X428218Y145747D01*
X428136Y145892D01*
X428067Y146047D01*
X428012Y146222D01*
X427946Y146399D01*
X427904Y146584D01*
X427864Y146791D01*
X428885Y146890D01*
X428884Y146879D01*
X428892Y146855D01*
X428908Y146808D01*
X428923Y146750D01*
X428936Y146681D01*
X428957Y146589D01*
X429022Y146401D01*
X429105Y146189D01*
X429211Y145973D01*
X429351Y145764D01*
X429505Y145575D01*
X429524Y145550D01*
X429584Y145498D01*
X429687Y145428D01*
X429819Y145332D01*
X429998Y145241D01*
X430198Y145147D01*
X430445Y145069D01*
X430719Y145021D01*
X430807Y145010D01*
X430863Y145013D01*
X430940Y145003D01*
X431030Y145002D01*
X431243Y145007D01*
X431480Y145021D01*
X431732Y145065D01*
X432000Y145142D01*
X432250Y145254D01*
X432261Y145252D01*
X432275Y145273D01*
X432360Y145318D01*
X432470Y145392D01*
X432609Y145508D01*
X432774Y145654D01*
X432931Y145824D01*
X433083Y146039D01*
X433227Y146277D01*
X433228Y146288D01*
X433242Y146308D01*
X433257Y146340D01*
X433276Y146394D01*
X433307Y146457D01*
X433339Y146531D01*
X433397Y146713D01*
X433470Y146927D01*
X433547Y147164D01*
X433604Y147425D01*
X433653Y147709D01*
X433655Y147720D01*
X433659Y147753D01*
X433666Y147808D01*
X433675Y147874D01*
X433674Y147953D01*
X433688Y148052D01*
X433691Y148163D01*
X433696Y148286D01*
X433699Y148554D01*
X433682Y148848D01*
X433654Y149143D01*
X433604Y149440D01*
X433605Y149452D01*
X433597Y149475D01*
X433580Y149511D01*
X433565Y149569D01*
X433517Y149710D01*
X433438Y149877D01*
X433341Y150069D01*
X433212Y150277D01*
X433058Y150465D01*
X432869Y150647D01*
X432858Y150649D01*
X432838Y150663D01*
X432808Y150689D01*
X432766Y150717D01*
X432714Y150746D01*
X432653Y150788D01*
X432508Y150875D01*
X432318Y150967D01*
X432106Y151051D01*
X431869Y151128D01*
X431618Y151172D01*
X431541Y151183D01*
X431473Y151180D01*
X431396Y151191D01*
X431318Y151190D01*
X431114Y151173D01*
X430876Y151148D01*
X430633Y151091D01*
X430375Y151002D01*
X430245Y150953D01*
X430123Y150879D01*
X430111Y150870D01*
X430098Y150860D01*
X430061Y150831D01*
X430012Y150804D01*
X429961Y150755D01*
X429897Y150697D01*
X429822Y150639D01*
X429756Y150559D01*
X429676Y150469D01*
X429585Y150369D01*
X429504Y150267D01*
X429420Y150144D01*
X429346Y150009D01*
X429271Y149862D01*
X429193Y149704D01*
X429126Y149534D01*
X428148Y149922D01*
X428149Y149933D01*
X428166Y149976D01*
X428197Y150039D01*
X428242Y150122D01*
X428288Y150217D01*
X428348Y150332D01*
X428420Y150457D01*
X428506Y150591D01*
X428701Y150879D01*
X428940Y151160D01*
X429081Y151298D01*
X429223Y151436D01*
X429373Y151550D01*
X429544Y151662D01*
X429557Y151671D01*
X429582Y151691D01*
X429640Y151705D01*
X429701Y151742D01*
X429796Y151785D01*
X429891Y151828D01*
X430020Y151867D01*
X430148Y151906D01*
X430300Y151953D01*
X430461Y151987D01*
X430634Y152021D01*
X430817Y152052D01*
X431010Y152071D01*
X431211Y152067D01*
D02*
G37*
G36*
X437700Y151100D02*
X436684Y143486D01*
X435672Y143622D01*
X436688Y151235D01*
X437700Y151100D01*
D02*
G37*
G36*
X365003Y158381D02*
X365103Y158373D01*
X365179Y158356D01*
X365267Y158339D01*
X365366Y158320D01*
X365487Y158300D01*
X365606Y158258D01*
X365878Y158170D01*
X366147Y158050D01*
X366286Y157973D01*
X366424Y157884D01*
X366550Y157786D01*
X366675Y157676D01*
X366685Y157664D01*
X366707Y157652D01*
X366726Y157606D01*
X366767Y157558D01*
X366818Y157499D01*
X366868Y157428D01*
X366928Y157334D01*
X366976Y157231D01*
X367035Y157126D01*
X367092Y156999D01*
X367194Y156725D01*
X367270Y156407D01*
X367291Y156238D01*
X367299Y156060D01*
X366309Y156056D01*
X366309Y156067D01*
X366311Y156090D01*
X366302Y156124D01*
X366296Y156180D01*
X366272Y156304D01*
X366240Y156473D01*
X366186Y156644D01*
X366111Y156839D01*
X366013Y157014D01*
X365892Y157178D01*
X365871Y157191D01*
X365830Y157239D01*
X365745Y157301D01*
X365629Y157376D01*
X365501Y157453D01*
X365339Y157521D01*
X365154Y157579D01*
X364945Y157606D01*
X364878Y157611D01*
X364833Y157603D01*
X364700Y157602D01*
X364541Y157570D01*
X364349Y157528D01*
X364154Y157454D01*
X363945Y157336D01*
X363851Y157265D01*
X363755Y157183D01*
X363743Y157173D01*
X363731Y157163D01*
X363707Y157131D01*
X363671Y157101D01*
X363585Y156985D01*
X363484Y156836D01*
X363393Y156654D01*
X363298Y156427D01*
X363222Y156155D01*
X363189Y156013D01*
X363177Y155858D01*
X363176Y155847D01*
X363174Y155824D01*
X363171Y155780D01*
X363178Y155724D01*
X363173Y155658D01*
X363178Y155579D01*
X363198Y155400D01*
X363238Y155185D01*
X363299Y154969D01*
X363395Y154762D01*
X363536Y154562D01*
X363535Y154551D01*
X363556Y154538D01*
X363607Y154479D01*
X363701Y154394D01*
X363828Y154295D01*
X363999Y154204D01*
X364192Y154112D01*
X364420Y154039D01*
X364552Y154007D01*
X364762Y153991D01*
X364851Y153995D01*
X364963Y153998D01*
X365098Y154021D01*
X365233Y154045D01*
X365382Y154089D01*
X365530Y154145D01*
X365542Y154155D01*
X365588Y154174D01*
X365659Y154224D01*
X365751Y154273D01*
X365846Y154344D01*
X365942Y154437D01*
X366049Y154529D01*
X366136Y154645D01*
X367012Y154456D01*
X365974Y150572D01*
X362166Y150858D01*
X362234Y151754D01*
X365300Y151524D01*
X365865Y153563D01*
X365853Y153553D01*
X365830Y153543D01*
X365795Y153524D01*
X365737Y153495D01*
X365669Y153466D01*
X365588Y153428D01*
X365404Y153353D01*
X365176Y153281D01*
X364927Y153222D01*
X364657Y153186D01*
X364522Y153174D01*
X364279Y153192D01*
X364213Y153209D01*
X364126Y153226D01*
X364027Y153245D01*
X363918Y153275D01*
X363798Y153318D01*
X363539Y153415D01*
X363399Y153481D01*
X363261Y153569D01*
X363123Y153658D01*
X362986Y153757D01*
X362861Y153878D01*
X362737Y154010D01*
X362727Y154022D01*
X362707Y154045D01*
X362676Y154081D01*
X362636Y154140D01*
X362586Y154221D01*
X362537Y154303D01*
X362478Y154408D01*
X362420Y154523D01*
X362374Y154649D01*
X362317Y154787D01*
X362273Y154946D01*
X362230Y155105D01*
X362198Y155275D01*
X362179Y155465D01*
X362171Y155655D01*
X362175Y155855D01*
X362176Y155866D01*
X362178Y155899D01*
X362182Y155955D01*
X362199Y156031D01*
X362217Y156119D01*
X362236Y156218D01*
X362267Y156338D01*
X362298Y156458D01*
X362386Y156741D01*
X362519Y157031D01*
X362597Y157181D01*
X362697Y157319D01*
X362797Y157467D01*
X362919Y157603D01*
X362930Y157613D01*
X362955Y157644D01*
X363003Y157685D01*
X363062Y157736D01*
X363145Y157797D01*
X363240Y157879D01*
X363356Y157948D01*
X363485Y158027D01*
X363624Y158106D01*
X363785Y158172D01*
X363957Y158237D01*
X364140Y158301D01*
X364332Y158342D01*
X364546Y158371D01*
X364770Y158387D01*
X365003Y158381D01*
D02*
G37*
G36*
X371500Y157892D02*
X371622Y157883D01*
X371710Y157865D01*
X371809Y157858D01*
X371930Y157838D01*
X372061Y157806D01*
X372215Y157772D01*
X372531Y157692D01*
X372857Y157579D01*
X373180Y157432D01*
X373329Y157343D01*
X373477Y157243D01*
X373487Y157231D01*
X373509Y157218D01*
X373550Y157182D01*
X373591Y157134D01*
X373655Y157085D01*
X373727Y157012D01*
X373810Y156928D01*
X373892Y156833D01*
X373973Y156727D01*
X374065Y156620D01*
X374245Y156350D01*
X374411Y156037D01*
X374552Y155693D01*
X374551Y155681D01*
X374571Y155647D01*
X374577Y155590D01*
X374606Y155521D01*
X374621Y155431D01*
X374646Y155318D01*
X374681Y155193D01*
X374704Y155058D01*
X374727Y154911D01*
X374758Y154742D01*
X374788Y154395D01*
X374803Y154004D01*
X374795Y153604D01*
X374795Y153593D01*
X374791Y153548D01*
X374786Y153482D01*
X374769Y153405D01*
X374761Y153295D01*
X374742Y153185D01*
X374720Y153042D01*
X374687Y152900D01*
X374607Y152583D01*
X374503Y152234D01*
X374366Y151889D01*
X374185Y151557D01*
X374173Y151547D01*
X374160Y151515D01*
X374134Y151472D01*
X374086Y151420D01*
X374036Y151346D01*
X373974Y151261D01*
X373815Y151073D01*
X373610Y150866D01*
X373372Y150661D01*
X373101Y150459D01*
X372788Y150293D01*
X372776Y150283D01*
X372742Y150274D01*
X372696Y150255D01*
X372638Y150226D01*
X372547Y150200D01*
X372456Y150173D01*
X372342Y150137D01*
X372217Y150102D01*
X372081Y150068D01*
X371933Y150034D01*
X371618Y149991D01*
X371260Y149963D01*
X370893Y149968D01*
X370783Y149976D01*
X370706Y149993D01*
X370607Y150012D01*
X370486Y150032D01*
X370365Y150052D01*
X370224Y150096D01*
X369930Y150185D01*
X369605Y150310D01*
X369444Y150389D01*
X369295Y150478D01*
X369148Y150589D01*
X369000Y150700D01*
X368990Y150712D01*
X368969Y150725D01*
X368927Y150761D01*
X368876Y150821D01*
X368825Y150880D01*
X368753Y150964D01*
X368682Y151058D01*
X368600Y151153D01*
X368520Y151271D01*
X368442Y151410D01*
X368352Y151550D01*
X368274Y151701D01*
X368209Y151873D01*
X368133Y152045D01*
X368080Y152228D01*
X368028Y152432D01*
X369042Y152589D01*
X369041Y152578D01*
X369051Y152555D01*
X369070Y152509D01*
X369087Y152452D01*
X369105Y152384D01*
X369131Y152293D01*
X369206Y152109D01*
X369302Y151902D01*
X369420Y151693D01*
X369572Y151492D01*
X369737Y151313D01*
X369757Y151289D01*
X369820Y151240D01*
X369927Y151176D01*
X370065Y151088D01*
X370248Y151007D01*
X370453Y150925D01*
X370704Y150862D01*
X370980Y150830D01*
X371069Y150823D01*
X371125Y150830D01*
X371203Y150824D01*
X371292Y150829D01*
X371505Y150846D01*
X371740Y150873D01*
X371990Y150932D01*
X372253Y151023D01*
X372496Y151150D01*
X372507Y151149D01*
X372520Y151170D01*
X372601Y151220D01*
X372708Y151301D01*
X372839Y151425D01*
X372996Y151580D01*
X373143Y151758D01*
X373282Y151981D01*
X373412Y152227D01*
X373413Y152239D01*
X373425Y152260D01*
X373439Y152292D01*
X373454Y152347D01*
X373481Y152411D01*
X373509Y152487D01*
X373557Y152673D01*
X373618Y152891D01*
X373680Y153131D01*
X373722Y153395D01*
X373755Y153682D01*
X373756Y153693D01*
X373758Y153726D01*
X373762Y153782D01*
X373767Y153848D01*
X373762Y153926D01*
X373770Y154026D01*
X373767Y154138D01*
X373765Y154260D01*
X373752Y154528D01*
X373718Y154820D01*
X373673Y155113D01*
X373606Y155407D01*
X373607Y155419D01*
X373598Y155442D01*
X373578Y155476D01*
X373560Y155533D01*
X373504Y155671D01*
X373416Y155834D01*
X373307Y156020D01*
X373167Y156220D01*
X373002Y156399D01*
X372803Y156570D01*
X372792Y156571D01*
X372771Y156583D01*
X372739Y156608D01*
X372697Y156634D01*
X372643Y156660D01*
X372579Y156698D01*
X372429Y156776D01*
X372235Y156857D01*
X372018Y156929D01*
X371777Y156992D01*
X371524Y157022D01*
X371446Y157028D01*
X371379Y157022D01*
X371302Y157028D01*
X371223Y157022D01*
X371021Y156993D01*
X370784Y156955D01*
X370545Y156884D01*
X370292Y156781D01*
X370166Y156724D01*
X370048Y156643D01*
X370036Y156633D01*
X370024Y156623D01*
X369989Y156592D01*
X369942Y156562D01*
X369893Y156510D01*
X369833Y156448D01*
X369762Y156387D01*
X369700Y156302D01*
X369626Y156208D01*
X369540Y156103D01*
X369465Y155997D01*
X369389Y155869D01*
X369323Y155730D01*
X369256Y155579D01*
X369188Y155417D01*
X369130Y155243D01*
X368131Y155574D01*
X368132Y155585D01*
X368147Y155629D01*
X368174Y155694D01*
X368214Y155779D01*
X368254Y155877D01*
X368308Y155995D01*
X368373Y156124D01*
X368450Y156263D01*
X368628Y156561D01*
X368851Y156856D01*
X368984Y157002D01*
X369118Y157148D01*
X369261Y157270D01*
X369426Y157392D01*
X369437Y157402D01*
X369461Y157422D01*
X369518Y157440D01*
X369577Y157480D01*
X369670Y157529D01*
X369762Y157578D01*
X369888Y157624D01*
X370014Y157670D01*
X370163Y157726D01*
X370322Y157769D01*
X370492Y157812D01*
X370674Y157854D01*
X370865Y157884D01*
X371066Y157892D01*
X371278Y157898D01*
X371500Y157892D01*
D02*
G37*
G36*
X377600Y157300D02*
X377024Y149641D01*
X376006Y149717D01*
X376582Y157376D01*
X377600Y157300D01*
D02*
G37*
G36*
X270583Y159347D02*
X270683Y159349D01*
X270805Y159342D01*
X270939Y159324D01*
X271095Y159306D01*
X271418Y159260D01*
X271754Y159181D01*
X272090Y159069D01*
X272248Y158996D01*
X272406Y158912D01*
X272417Y158901D01*
X272440Y158891D01*
X272485Y158859D01*
X272531Y158816D01*
X272599Y158773D01*
X272678Y158709D01*
X272769Y158634D01*
X272861Y158548D01*
X272952Y158451D01*
X273055Y158354D01*
X273263Y158105D01*
X273460Y157811D01*
X273636Y157483D01*
X273637Y157472D01*
X273660Y157439D01*
X273673Y157384D01*
X273708Y157318D01*
X273733Y157230D01*
X273769Y157120D01*
X273817Y157000D01*
X273855Y156867D01*
X273892Y156724D01*
X273941Y156559D01*
X274007Y156217D01*
X274063Y155830D01*
X274097Y155431D01*
X274097Y155420D01*
X274099Y155375D01*
X274101Y155309D01*
X274092Y155231D01*
X274095Y155120D01*
X274087Y155009D01*
X274081Y154864D01*
X274063Y154719D01*
X274017Y154396D01*
X273950Y154038D01*
X273849Y153680D01*
X273704Y153332D01*
X273693Y153320D01*
X273683Y153287D01*
X273662Y153242D01*
X273620Y153185D01*
X273577Y153106D01*
X273525Y153015D01*
X273386Y152811D01*
X273204Y152584D01*
X272989Y152355D01*
X272740Y152126D01*
X272446Y151928D01*
X272436Y151917D01*
X272403Y151905D01*
X272359Y151881D01*
X272304Y151847D01*
X272217Y151811D01*
X272129Y151775D01*
X272019Y151727D01*
X271899Y151679D01*
X271767Y151631D01*
X271624Y151582D01*
X271315Y151506D01*
X270962Y151440D01*
X270596Y151407D01*
X270485Y151404D01*
X270407Y151413D01*
X270307Y151421D01*
X270185Y151428D01*
X270063Y151436D01*
X269917Y151465D01*
X269616Y151522D01*
X269280Y151612D01*
X269111Y151674D01*
X268954Y151747D01*
X268796Y151842D01*
X268637Y151938D01*
X268626Y151948D01*
X268603Y151959D01*
X268558Y151991D01*
X268501Y152044D01*
X268444Y152098D01*
X268364Y152174D01*
X268284Y152260D01*
X268192Y152346D01*
X268100Y152455D01*
X268007Y152585D01*
X267903Y152715D01*
X267810Y152857D01*
X267728Y153021D01*
X267634Y153185D01*
X267562Y153360D01*
X267490Y153558D01*
X268481Y153821D01*
X268482Y153810D01*
X268493Y153788D01*
X268517Y153744D01*
X268541Y153689D01*
X268565Y153623D01*
X268601Y153535D01*
X268695Y153361D01*
X268812Y153164D01*
X268951Y152969D01*
X269123Y152785D01*
X269305Y152624D01*
X269328Y152602D01*
X269396Y152560D01*
X269509Y152507D01*
X269655Y152434D01*
X269846Y152373D01*
X270059Y152313D01*
X270315Y152276D01*
X270593Y152273D01*
X270682Y152276D01*
X270737Y152289D01*
X270814Y152291D01*
X270903Y152305D01*
X271113Y152344D01*
X271344Y152395D01*
X271586Y152480D01*
X271838Y152599D01*
X272067Y152750D01*
X272078Y152750D01*
X272088Y152773D01*
X272164Y152831D01*
X272262Y152922D01*
X272380Y153059D01*
X272519Y153230D01*
X272646Y153422D01*
X272762Y153659D01*
X272865Y153917D01*
X272865Y153928D01*
X272875Y153951D01*
X272885Y153985D01*
X272895Y154040D01*
X272915Y154108D01*
X272935Y154186D01*
X272962Y154376D01*
X273000Y154599D01*
X273037Y154844D01*
X273052Y155111D01*
X273054Y155400D01*
X273054Y155411D01*
X273053Y155444D01*
X273051Y155500D01*
X273049Y155566D01*
X273036Y155644D01*
X273033Y155744D01*
X273018Y155854D01*
X273004Y155976D01*
X272962Y156241D01*
X272899Y156528D01*
X272823Y156814D01*
X272726Y157100D01*
X272726Y157112D01*
X272714Y157133D01*
X272691Y157166D01*
X272667Y157221D01*
X272596Y157352D01*
X272492Y157504D01*
X272365Y157678D01*
X272204Y157862D01*
X272021Y158023D01*
X271806Y158172D01*
X271795Y158172D01*
X271772Y158182D01*
X271738Y158204D01*
X271693Y158225D01*
X271637Y158245D01*
X271570Y158277D01*
X271412Y158338D01*
X271211Y158399D01*
X270987Y158448D01*
X270742Y158485D01*
X270486Y158489D01*
X270408Y158486D01*
X270342Y158473D01*
X270264Y158471D01*
X270187Y158457D01*
X269989Y158407D01*
X269757Y158345D01*
X269527Y158249D01*
X269287Y158120D01*
X269167Y158050D01*
X269058Y157958D01*
X269048Y157946D01*
X269037Y157935D01*
X269004Y157900D01*
X268961Y157866D01*
X268918Y157809D01*
X268865Y157741D01*
X268800Y157672D01*
X268747Y157582D01*
X268684Y157480D01*
X268609Y157367D01*
X268546Y157254D01*
X268484Y157119D01*
X268432Y156973D01*
X268381Y156816D01*
X268331Y156648D01*
X268292Y156469D01*
X267264Y156694D01*
X267263Y156705D01*
X267273Y156750D01*
X267293Y156817D01*
X267324Y156907D01*
X267354Y157008D01*
X267395Y157131D01*
X267446Y157266D01*
X267509Y157412D01*
X267655Y157727D01*
X267845Y158044D01*
X267963Y158203D01*
X268080Y158362D01*
X268209Y158499D01*
X268361Y158637D01*
X268372Y158648D01*
X268393Y158671D01*
X268448Y158695D01*
X268502Y158741D01*
X268589Y158799D01*
X268676Y158857D01*
X268797Y158916D01*
X268917Y158975D01*
X269059Y159046D01*
X269213Y159106D01*
X269378Y159166D01*
X269554Y159227D01*
X269741Y159277D01*
X269940Y159305D01*
X270150Y159334D01*
X270372Y159351D01*
X270494Y159355D01*
X270583Y159347D01*
D02*
G37*
G36*
X276728Y151722D02*
X275707Y151692D01*
X275479Y159370D01*
X276500Y159400D01*
X276728Y151722D01*
D02*
G37*
G36*
X265184Y159053D02*
X265184Y159020D01*
X265186Y158975D01*
X265177Y158909D01*
X265179Y158820D01*
X265172Y158708D01*
X265164Y158586D01*
X265157Y158453D01*
X265139Y158297D01*
X265122Y158141D01*
X265094Y157951D01*
X265066Y157761D01*
X265039Y157561D01*
X265001Y157338D01*
X264904Y156879D01*
X264904Y156868D01*
X264894Y156824D01*
X264874Y156756D01*
X264844Y156655D01*
X264814Y156544D01*
X264773Y156409D01*
X264734Y156252D01*
X264672Y156084D01*
X264611Y155893D01*
X264550Y155703D01*
X264396Y155276D01*
X264210Y154827D01*
X264001Y154376D01*
X263990Y154365D01*
X263969Y154320D01*
X263938Y154263D01*
X263896Y154173D01*
X263843Y154072D01*
X263769Y153947D01*
X263696Y153812D01*
X263611Y153665D01*
X263410Y153337D01*
X263198Y152998D01*
X262953Y152646D01*
X262696Y152316D01*
X266457Y152428D01*
X266484Y151518D01*
X261514Y151371D01*
X261492Y152114D01*
X261502Y152126D01*
X261524Y152148D01*
X261567Y152194D01*
X261609Y152262D01*
X261674Y152342D01*
X261760Y152433D01*
X261845Y152547D01*
X261941Y152683D01*
X262037Y152819D01*
X262155Y152978D01*
X262271Y153159D01*
X262388Y153340D01*
X262515Y153544D01*
X262642Y153758D01*
X262768Y153995D01*
X262895Y154232D01*
X262905Y154244D01*
X262926Y154289D01*
X262958Y154356D01*
X263010Y154458D01*
X263062Y154581D01*
X263125Y154717D01*
X263198Y154874D01*
X263270Y155054D01*
X263353Y155256D01*
X263447Y155459D01*
X263529Y155684D01*
X263611Y155919D01*
X263774Y156402D01*
X263925Y156917D01*
X263925Y156928D01*
X263935Y156962D01*
X263945Y157017D01*
X263965Y157085D01*
X263985Y157174D01*
X264003Y157286D01*
X264033Y157409D01*
X264051Y157542D01*
X264080Y157699D01*
X264108Y157866D01*
X264153Y158223D01*
X264197Y158613D01*
X264218Y159036D01*
X265183Y159064D01*
X265184Y159053D01*
D02*
G37*
G36*
X324667Y159911D02*
X324722Y159898D01*
X324811Y159896D01*
X324910Y159882D01*
X325021Y159856D01*
X325153Y159819D01*
X325285Y159782D01*
X325439Y159733D01*
X325593Y159673D01*
X325746Y159601D01*
X325910Y159508D01*
X326062Y159403D01*
X326214Y159288D01*
X326366Y159150D01*
X326505Y158990D01*
X326516Y158979D01*
X326537Y158945D01*
X326569Y158900D01*
X326611Y158821D01*
X326675Y158719D01*
X326727Y158606D01*
X326789Y158460D01*
X326851Y158303D01*
X326923Y158112D01*
X326984Y157899D01*
X327032Y157664D01*
X327080Y157408D01*
X327127Y157118D01*
X327151Y156806D01*
X327163Y156472D01*
X327164Y156117D01*
X327164Y156106D01*
X327163Y156095D01*
X327162Y156061D01*
X327161Y156017D01*
X327147Y155906D01*
X327142Y155751D01*
X327126Y155574D01*
X327097Y155364D01*
X327068Y155132D01*
X327027Y154877D01*
X326975Y154623D01*
X326912Y154348D01*
X326837Y154083D01*
X326752Y153820D01*
X326644Y153567D01*
X326526Y153326D01*
X326397Y153097D01*
X326247Y152902D01*
X326235Y152891D01*
X326213Y152869D01*
X326167Y152826D01*
X326109Y152761D01*
X326041Y152697D01*
X325950Y152633D01*
X325836Y152547D01*
X325723Y152473D01*
X325588Y152399D01*
X325441Y152315D01*
X325273Y152253D01*
X325104Y152180D01*
X324914Y152131D01*
X324713Y152092D01*
X324501Y152076D01*
X324279Y152072D01*
X324190Y152074D01*
X324124Y152087D01*
X324046Y152090D01*
X323958Y152103D01*
X323748Y152154D01*
X323517Y152216D01*
X323275Y152312D01*
X323035Y152453D01*
X322916Y152534D01*
X322807Y152626D01*
X322797Y152638D01*
X322786Y152649D01*
X322753Y152683D01*
X322721Y152718D01*
X322667Y152775D01*
X322625Y152843D01*
X322508Y153001D01*
X322391Y153205D01*
X322288Y153452D01*
X322196Y153733D01*
X322139Y154045D01*
X323084Y154095D01*
X323084Y154084D01*
X323094Y154072D01*
X323104Y154005D01*
X323134Y153905D01*
X323175Y153781D01*
X323215Y153647D01*
X323278Y153512D01*
X323352Y153387D01*
X323427Y153285D01*
X323448Y153262D01*
X323491Y153217D01*
X323567Y153148D01*
X323675Y153067D01*
X323818Y152996D01*
X323971Y152925D01*
X324158Y152875D01*
X324357Y152847D01*
X324435Y152844D01*
X324524Y152853D01*
X324625Y152872D01*
X324759Y152901D01*
X324893Y152942D01*
X325028Y152993D01*
X325164Y153078D01*
X325186Y153089D01*
X325243Y153131D01*
X325323Y153207D01*
X325426Y153315D01*
X325541Y153444D01*
X325668Y153596D01*
X325785Y153793D01*
X325902Y154011D01*
X325902Y154022D01*
X325914Y154044D01*
X325926Y154077D01*
X325950Y154121D01*
X325963Y154187D01*
X325987Y154264D01*
X326012Y154352D01*
X326038Y154462D01*
X326075Y154584D01*
X326101Y154716D01*
X326127Y154860D01*
X326143Y155015D01*
X326170Y155191D01*
X326187Y155369D01*
X326204Y155568D01*
X326210Y155768D01*
X326198Y155757D01*
X326152Y155692D01*
X326072Y155605D01*
X325969Y155497D01*
X325854Y155367D01*
X325706Y155250D01*
X325547Y155132D01*
X325366Y155027D01*
X325355Y155027D01*
X325344Y155016D01*
X325276Y154985D01*
X325175Y154955D01*
X325040Y154903D01*
X324884Y154863D01*
X324705Y154835D01*
X324515Y154808D01*
X324315Y154802D01*
X324227Y154805D01*
X324160Y154818D01*
X324072Y154832D01*
X323984Y154846D01*
X323873Y154871D01*
X323763Y154908D01*
X323511Y154993D01*
X323379Y155052D01*
X323248Y155134D01*
X323117Y155216D01*
X322976Y155309D01*
X322846Y155423D01*
X322728Y155549D01*
X322717Y155561D01*
X322695Y155583D01*
X322663Y155618D01*
X322631Y155674D01*
X322578Y155753D01*
X322525Y155833D01*
X322472Y155934D01*
X322409Y156047D01*
X322346Y156171D01*
X322295Y156306D01*
X322244Y156463D01*
X322193Y156620D01*
X322165Y156787D01*
X322137Y156977D01*
X322120Y157166D01*
X322115Y157366D01*
X322116Y157377D01*
X322116Y157400D01*
X322117Y157433D01*
X322119Y157488D01*
X322132Y157555D01*
X322134Y157621D01*
X322172Y157798D01*
X322212Y158007D01*
X322274Y158228D01*
X322359Y158469D01*
X322477Y158699D01*
X322477Y158710D01*
X322489Y158721D01*
X322512Y158754D01*
X322535Y158797D01*
X322605Y158906D01*
X322709Y159048D01*
X322836Y159199D01*
X322985Y159350D01*
X323167Y159500D01*
X323359Y159628D01*
X323370Y159628D01*
X323382Y159638D01*
X323416Y159660D01*
X323461Y159669D01*
X323573Y159721D01*
X323719Y159773D01*
X323910Y159834D01*
X324122Y159872D01*
X324356Y159909D01*
X324612Y159913D01*
X324667Y159911D01*
D02*
G37*
G36*
X331402Y159711D02*
X331490Y159698D01*
X331590Y159695D01*
X331712Y159680D01*
X331844Y159654D01*
X331999Y159627D01*
X332319Y159562D01*
X332649Y159463D01*
X332978Y159331D01*
X333131Y159249D01*
X333284Y159156D01*
X333295Y159144D01*
X333317Y159132D01*
X333360Y159098D01*
X333403Y159052D01*
X333468Y159006D01*
X333544Y158937D01*
X333630Y158857D01*
X333717Y158765D01*
X333802Y158663D01*
X333899Y158560D01*
X334091Y158299D01*
X334271Y157994D01*
X334428Y157656D01*
X334427Y157645D01*
X334449Y157611D01*
X334458Y157555D01*
X334489Y157487D01*
X334509Y157398D01*
X334539Y157286D01*
X334580Y157163D01*
X334609Y157029D01*
X334638Y156883D01*
X334677Y156716D01*
X334723Y156370D01*
X334756Y155981D01*
X334766Y155580D01*
X334766Y155569D01*
X334764Y155525D01*
X334762Y155458D01*
X334749Y155381D01*
X334746Y155270D01*
X334731Y155160D01*
X334716Y155016D01*
X334689Y154872D01*
X334624Y154552D01*
X334536Y154199D01*
X334415Y153847D01*
X334249Y153508D01*
X334238Y153497D01*
X334226Y153464D01*
X334202Y153421D01*
X334156Y153366D01*
X334109Y153290D01*
X334051Y153203D01*
X333901Y153008D01*
X333706Y152791D01*
X333477Y152576D01*
X333216Y152362D01*
X332910Y152182D01*
X332899Y152171D01*
X332865Y152161D01*
X332820Y152140D01*
X332764Y152109D01*
X332674Y152078D01*
X332584Y152047D01*
X332472Y152006D01*
X332349Y151965D01*
X332214Y151925D01*
X332069Y151885D01*
X331756Y151828D01*
X331399Y151783D01*
X331033Y151771D01*
X330922Y151775D01*
X330844Y151788D01*
X330745Y151802D01*
X330623Y151817D01*
X330502Y151832D01*
X330358Y151869D01*
X330061Y151945D01*
X329731Y152054D01*
X329566Y152126D01*
X329413Y152208D01*
X329261Y152312D01*
X329109Y152417D01*
X329098Y152428D01*
X329076Y152440D01*
X329033Y152475D01*
X328979Y152532D01*
X328925Y152589D01*
X328849Y152669D01*
X328774Y152760D01*
X328688Y152851D01*
X328603Y152965D01*
X328518Y153101D01*
X328422Y153237D01*
X328338Y153384D01*
X328265Y153552D01*
X328181Y153722D01*
X328120Y153901D01*
X328059Y154103D01*
X329065Y154306D01*
X329064Y154295D01*
X329075Y154272D01*
X329096Y154227D01*
X329116Y154171D01*
X329136Y154104D01*
X329167Y154014D01*
X329250Y153834D01*
X329356Y153631D01*
X329483Y153427D01*
X329644Y153234D01*
X329816Y153062D01*
X329838Y153039D01*
X329903Y152993D01*
X330012Y152934D01*
X330154Y152852D01*
X330341Y152780D01*
X330550Y152707D01*
X330803Y152655D01*
X331081Y152636D01*
X331169Y152633D01*
X331225Y152643D01*
X331303Y152640D01*
X331392Y152649D01*
X331604Y152676D01*
X331838Y152713D01*
X332084Y152784D01*
X332343Y152887D01*
X332580Y153025D01*
X332591Y153024D01*
X332603Y153046D01*
X332682Y153099D01*
X332785Y153185D01*
X332911Y153315D01*
X333060Y153477D01*
X333199Y153661D01*
X333328Y153891D01*
X333446Y154143D01*
X333447Y154154D01*
X333458Y154176D01*
X333470Y154209D01*
X333483Y154264D01*
X333507Y154330D01*
X333532Y154407D01*
X333571Y154594D01*
X333622Y154815D01*
X333673Y155058D01*
X333703Y155323D01*
X333723Y155611D01*
X333723Y155623D01*
X333724Y155656D01*
X333726Y155711D01*
X333728Y155778D01*
X333719Y155856D01*
X333722Y155956D01*
X333714Y156067D01*
X333707Y156189D01*
X333681Y156457D01*
X333634Y156747D01*
X333577Y157037D01*
X333496Y157328D01*
X333497Y157339D01*
X333486Y157362D01*
X333465Y157396D01*
X333444Y157452D01*
X333382Y157587D01*
X333287Y157745D01*
X333170Y157927D01*
X333020Y158120D01*
X332848Y158291D01*
X332641Y158453D01*
X332630Y158453D01*
X332608Y158465D01*
X332576Y158488D01*
X332532Y158512D01*
X332477Y158536D01*
X332412Y158571D01*
X332258Y158642D01*
X332061Y158715D01*
X331840Y158777D01*
X331598Y158828D01*
X331343Y158847D01*
X331265Y158849D01*
X331198Y158840D01*
X331120Y158842D01*
X331042Y158834D01*
X330841Y158795D01*
X330607Y158747D01*
X330371Y158665D01*
X330123Y158550D01*
X329999Y158487D01*
X329886Y158401D01*
X329874Y158391D01*
X329863Y158380D01*
X329829Y158348D01*
X329783Y158316D01*
X329737Y158262D01*
X329680Y158197D01*
X329611Y158132D01*
X329553Y158045D01*
X329484Y157947D01*
X329403Y157838D01*
X329333Y157729D01*
X329262Y157598D01*
X329203Y157456D01*
X329142Y157302D01*
X329082Y157137D01*
X329032Y156961D01*
X328019Y157247D01*
X328020Y157258D01*
X328032Y157302D01*
X328056Y157368D01*
X328092Y157455D01*
X328128Y157554D01*
X328176Y157675D01*
X328236Y157806D01*
X328307Y157949D01*
X328471Y158255D01*
X328680Y158559D01*
X328807Y158711D01*
X328933Y158863D01*
X329071Y158992D01*
X329230Y159121D01*
X329241Y159131D01*
X329264Y159153D01*
X329320Y159173D01*
X329377Y159216D01*
X329467Y159269D01*
X329558Y159322D01*
X329682Y159374D01*
X329805Y159425D01*
X329951Y159488D01*
X330108Y159539D01*
X330276Y159589D01*
X330456Y159639D01*
X330645Y159678D01*
X330846Y159694D01*
X331057Y159710D01*
X331280Y159715D01*
X331402Y159711D01*
D02*
G37*
G36*
X337400Y159400D02*
X337172Y151722D01*
X336151Y151753D01*
X336379Y159430D01*
X337400Y159400D01*
D02*
G37*
G36*
X230613Y157094D02*
X230747Y157081D01*
X230904Y157071D01*
X231229Y157039D01*
X231568Y156975D01*
X231909Y156877D01*
X232069Y156811D01*
X232231Y156734D01*
X232243Y156724D01*
X232266Y156714D01*
X232313Y156684D01*
X232360Y156643D01*
X232430Y156604D01*
X232512Y156543D01*
X232606Y156472D01*
X232701Y156390D01*
X232797Y156297D01*
X232904Y156205D01*
X233122Y155965D01*
X233332Y155680D01*
X233523Y155360D01*
X233524Y155349D01*
X233548Y155317D01*
X233563Y155262D01*
X233601Y155198D01*
X233630Y155112D01*
X233671Y155003D01*
X233725Y154885D01*
X233768Y154754D01*
X233811Y154613D01*
X233868Y154450D01*
X233948Y154111D01*
X234021Y153727D01*
X234072Y153330D01*
X234073Y153319D01*
X234076Y153274D01*
X234081Y153208D01*
X234076Y153130D01*
X234084Y153019D01*
X234081Y152908D01*
X234081Y152763D01*
X234069Y152617D01*
X234037Y152292D01*
X233986Y151932D01*
X233901Y151570D01*
X233771Y151215D01*
X233761Y151203D01*
X233752Y151170D01*
X233734Y151124D01*
X233693Y151065D01*
X233655Y150984D01*
X233606Y150892D01*
X233477Y150682D01*
X233305Y150447D01*
X233100Y150209D01*
X232861Y149969D01*
X232576Y149759D01*
X232566Y149747D01*
X232534Y149733D01*
X232491Y149708D01*
X232438Y149671D01*
X232352Y149631D01*
X232266Y149591D01*
X232158Y149539D01*
X232040Y149486D01*
X231910Y149431D01*
X231770Y149377D01*
X231465Y149288D01*
X231114Y149206D01*
X230751Y149157D01*
X230640Y149149D01*
X230562Y149154D01*
X230461Y149158D01*
X230339Y149160D01*
X230216Y149162D01*
X230070Y149185D01*
X229766Y149229D01*
X229426Y149305D01*
X229256Y149359D01*
X229095Y149425D01*
X228933Y149513D01*
X228770Y149602D01*
X228758Y149612D01*
X228735Y149621D01*
X228689Y149651D01*
X228629Y149703D01*
X228570Y149754D01*
X228487Y149826D01*
X228403Y149909D01*
X228308Y149991D01*
X228211Y150095D01*
X228113Y150221D01*
X228003Y150347D01*
X227904Y150484D01*
X227815Y150644D01*
X227714Y150804D01*
X227634Y150976D01*
X227553Y151171D01*
X228532Y151476D01*
X228533Y151465D01*
X228546Y151444D01*
X228571Y151401D01*
X228598Y151347D01*
X228625Y151283D01*
X228664Y151196D01*
X228766Y151026D01*
X228891Y150835D01*
X229039Y150645D01*
X229219Y150469D01*
X229408Y150316D01*
X229432Y150296D01*
X229501Y150256D01*
X229616Y150209D01*
X229766Y150142D01*
X229959Y150090D01*
X230174Y150039D01*
X230432Y150013D01*
X230709Y150022D01*
X230798Y150029D01*
X230852Y150044D01*
X230930Y150050D01*
X231018Y150067D01*
X231226Y150116D01*
X231455Y150177D01*
X231693Y150273D01*
X231939Y150402D01*
X232161Y150563D01*
X232172Y150564D01*
X232181Y150587D01*
X232255Y150648D01*
X232348Y150744D01*
X232460Y150885D01*
X232592Y151062D01*
X232711Y151260D01*
X232815Y151501D01*
X232908Y151764D01*
X232907Y151775D01*
X232916Y151798D01*
X232925Y151832D01*
X232932Y151888D01*
X232949Y151956D01*
X232966Y152036D01*
X232985Y152226D01*
X233013Y152451D01*
X233039Y152697D01*
X233042Y152965D01*
X233032Y153253D01*
X233031Y153265D01*
X233029Y153298D01*
X233025Y153353D01*
X233020Y153420D01*
X233003Y153496D01*
X232996Y153596D01*
X232976Y153706D01*
X232956Y153827D01*
X232904Y154090D01*
X232827Y154374D01*
X232740Y154657D01*
X232630Y154938D01*
X232629Y154949D01*
X232616Y154970D01*
X232592Y155002D01*
X232566Y155056D01*
X232489Y155184D01*
X232379Y155331D01*
X232244Y155499D01*
X232075Y155676D01*
X231886Y155829D01*
X231664Y155969D01*
X231653Y155968D01*
X231630Y155977D01*
X231595Y155997D01*
X231549Y156016D01*
X231492Y156034D01*
X231423Y156062D01*
X231263Y156117D01*
X231059Y156169D01*
X230834Y156208D01*
X230587Y156235D01*
X230332Y156227D01*
X230254Y156222D01*
X230189Y156206D01*
X230111Y156200D01*
X230034Y156183D01*
X229838Y156124D01*
X229610Y156052D01*
X229384Y155946D01*
X229149Y155806D01*
X229032Y155731D01*
X228928Y155634D01*
X228918Y155623D01*
X228908Y155611D01*
X228877Y155575D01*
X228835Y155539D01*
X228795Y155480D01*
X228744Y155409D01*
X228683Y155338D01*
X228634Y155246D01*
X228575Y155141D01*
X228506Y155025D01*
X228447Y154909D01*
X228391Y154771D01*
X228346Y154623D01*
X228302Y154464D01*
X228259Y154294D01*
X228228Y154114D01*
X227190Y154294D01*
X227190Y154305D01*
X227197Y154350D01*
X227215Y154418D01*
X227241Y154509D01*
X227267Y154611D01*
X227302Y154736D01*
X227348Y154873D01*
X227404Y155022D01*
X227536Y155343D01*
X227713Y155667D01*
X227823Y155831D01*
X227934Y155995D01*
X228057Y156138D01*
X228202Y156282D01*
X228212Y156294D01*
X228232Y156318D01*
X228286Y156344D01*
X228338Y156392D01*
X228423Y156454D01*
X228507Y156516D01*
X228625Y156580D01*
X228743Y156645D01*
X228882Y156722D01*
X229033Y156788D01*
X229195Y156856D01*
X229368Y156924D01*
X229553Y156982D01*
X229750Y157019D01*
X229959Y157057D01*
X230180Y157084D01*
X230301Y157093D01*
X230391Y157088D01*
X230490Y157096D01*
X230613Y157094D01*
D02*
G37*
G36*
X236863Y149740D02*
X235844Y149665D01*
X235282Y157325D01*
X236300Y157400D01*
X236863Y149740D01*
D02*
G37*
G36*
X223815Y156606D02*
X223916Y156602D01*
X224027Y156599D01*
X224151Y156586D01*
X224286Y156562D01*
X224590Y156507D01*
X224749Y156463D01*
X224897Y156418D01*
X225058Y156352D01*
X225220Y156275D01*
X225371Y156186D01*
X225513Y156074D01*
X225525Y156063D01*
X225548Y156043D01*
X225584Y156012D01*
X225632Y155960D01*
X225681Y155897D01*
X225753Y155824D01*
X225815Y155740D01*
X225890Y155634D01*
X225964Y155528D01*
X226029Y155399D01*
X226161Y155131D01*
X226217Y154968D01*
X226262Y154804D01*
X226298Y154629D01*
X226322Y154452D01*
X226322Y154441D01*
X226324Y154419D01*
X226327Y154375D01*
X226320Y154330D01*
X226324Y154263D01*
X226319Y154185D01*
X226310Y154006D01*
X226280Y153804D01*
X226229Y153600D01*
X226144Y153382D01*
X226037Y153174D01*
X226038Y153163D01*
X226017Y153150D01*
X225976Y153091D01*
X225894Y152996D01*
X225781Y152877D01*
X225634Y152755D01*
X225455Y152619D01*
X225252Y152504D01*
X225003Y152408D01*
X225014Y152409D01*
X225026Y152398D01*
X225060Y152390D01*
X225106Y152371D01*
X225208Y152334D01*
X225346Y152277D01*
X225497Y152199D01*
X225649Y152099D01*
X225790Y151987D01*
X225922Y151863D01*
X225935Y151842D01*
X225971Y151800D01*
X226022Y151715D01*
X226074Y151607D01*
X226140Y151468D01*
X226197Y151305D01*
X226244Y151119D01*
X226269Y150920D01*
X226270Y150909D01*
X226272Y150887D01*
X226275Y150843D01*
X226269Y150776D01*
X226263Y150709D01*
X226258Y150619D01*
X226228Y150428D01*
X226178Y150201D01*
X226084Y149961D01*
X226026Y149834D01*
X225958Y149707D01*
X225866Y149589D01*
X225775Y149471D01*
X225765Y149459D01*
X225743Y149446D01*
X225713Y149410D01*
X225671Y149374D01*
X225619Y149326D01*
X225544Y149276D01*
X225460Y149214D01*
X225375Y149152D01*
X225269Y149088D01*
X225151Y149024D01*
X225021Y148970D01*
X224881Y148915D01*
X224576Y148826D01*
X224399Y148802D01*
X224223Y148778D01*
X224123Y148771D01*
X224056Y148777D01*
X223967Y148781D01*
X223866Y148785D01*
X223755Y148788D01*
X223642Y148813D01*
X223371Y148860D01*
X223098Y148940D01*
X222960Y148997D01*
X222822Y149065D01*
X222693Y149155D01*
X222564Y149246D01*
X222552Y149256D01*
X222540Y149267D01*
X222504Y149297D01*
X222457Y149338D01*
X222408Y149402D01*
X222347Y149464D01*
X222225Y149622D01*
X222098Y149824D01*
X221981Y150060D01*
X221883Y150331D01*
X221861Y150474D01*
X221839Y150628D01*
X221838Y150640D01*
X221837Y150651D01*
X221833Y150717D01*
X221836Y150817D01*
X221849Y150941D01*
X221871Y151098D01*
X221915Y151257D01*
X221970Y151417D01*
X222059Y151580D01*
X222068Y151602D01*
X222109Y151650D01*
X222171Y151721D01*
X222253Y151816D01*
X222367Y151925D01*
X222504Y152035D01*
X222662Y152147D01*
X222855Y152250D01*
X222844Y152249D01*
X222821Y152259D01*
X222787Y152267D01*
X222741Y152286D01*
X222604Y152332D01*
X222444Y152398D01*
X222269Y152497D01*
X222083Y152605D01*
X221906Y152748D01*
X221738Y152914D01*
X221737Y152925D01*
X221725Y152935D01*
X221676Y152998D01*
X221602Y153104D01*
X221525Y153243D01*
X221445Y153415D01*
X221363Y153621D01*
X221302Y153850D01*
X221272Y154104D01*
X221271Y154115D01*
X221269Y154148D01*
X221265Y154204D01*
X221271Y154271D01*
X221276Y154349D01*
X221280Y154450D01*
X221294Y154562D01*
X221318Y154686D01*
X221377Y154946D01*
X221422Y155094D01*
X221490Y155233D01*
X221557Y155382D01*
X221635Y155522D01*
X221736Y155663D01*
X221848Y155805D01*
X221859Y155816D01*
X221879Y155840D01*
X221910Y155876D01*
X221963Y155913D01*
X222036Y155974D01*
X222110Y156035D01*
X222205Y156098D01*
X222311Y156172D01*
X222428Y156248D01*
X222568Y156314D01*
X222719Y156380D01*
X222870Y156447D01*
X223044Y156493D01*
X223230Y156540D01*
X223417Y156576D01*
X223626Y156603D01*
X223737Y156611D01*
X223815Y156606D01*
D02*
G37*
G36*
X164142Y149585D02*
X164380Y149561D01*
X164634Y149505D01*
X164892Y149416D01*
X165023Y149355D01*
X165145Y149282D01*
X165158Y149273D01*
X165170Y149263D01*
X165208Y149234D01*
X165245Y149206D01*
X165296Y149157D01*
X165360Y149098D01*
X165491Y148959D01*
X165627Y148775D01*
X165769Y148548D01*
X165894Y148285D01*
X166003Y147974D01*
X165111Y147777D01*
X165109Y147788D01*
X165095Y147809D01*
X165093Y147830D01*
X165076Y147873D01*
X165026Y147990D01*
X164965Y148116D01*
X164889Y148263D01*
X164792Y148406D01*
X164685Y148538D01*
X164558Y148644D01*
X164546Y148653D01*
X164498Y148681D01*
X164415Y148714D01*
X164321Y148747D01*
X164192Y148785D01*
X164044Y148810D01*
X163874Y148821D01*
X163697Y148809D01*
X163620Y148799D01*
X163544Y148777D01*
X163447Y148753D01*
X163328Y148715D01*
X163212Y148666D01*
X163086Y148604D01*
X162973Y148522D01*
X162964Y148510D01*
X162923Y148482D01*
X162863Y148429D01*
X162805Y148354D01*
X162728Y148265D01*
X162651Y148166D01*
X162577Y148055D01*
X162505Y147922D01*
X162495Y147909D01*
X162481Y147851D01*
X162447Y147769D01*
X162416Y147664D01*
X162379Y147524D01*
X162344Y147363D01*
X162313Y147180D01*
X162284Y146974D01*
X162285Y146963D01*
X162276Y146951D01*
X162280Y146918D01*
X162275Y146872D01*
X162268Y146759D01*
X162254Y146612D01*
X162255Y146433D01*
X162258Y146243D01*
X162275Y146032D01*
X162294Y145811D01*
X162295Y145800D01*
X162299Y145767D01*
X162307Y145712D01*
X162319Y145624D01*
X162327Y145647D01*
X162363Y145708D01*
X162419Y145794D01*
X162481Y145914D01*
X162577Y146039D01*
X162693Y146178D01*
X162831Y146319D01*
X162992Y146453D01*
X163012Y146467D01*
X163074Y146509D01*
X163167Y146566D01*
X163282Y146626D01*
X163440Y146703D01*
X163610Y146770D01*
X163804Y146830D01*
X164011Y146869D01*
X164099Y146881D01*
X164167Y146878D01*
X164256Y146879D01*
X164346Y146880D01*
X164459Y146873D01*
X164573Y146854D01*
X164837Y146811D01*
X164976Y146774D01*
X165117Y146725D01*
X165270Y146667D01*
X165415Y146586D01*
X165561Y146504D01*
X165698Y146399D01*
X165710Y146390D01*
X165735Y146371D01*
X165762Y146341D01*
X165813Y146292D01*
X165878Y146222D01*
X165944Y146152D01*
X166012Y146061D01*
X166081Y145958D01*
X166164Y145846D01*
X166236Y145721D01*
X166312Y145574D01*
X166387Y145428D01*
X166455Y145258D01*
X166502Y145073D01*
X166549Y144889D01*
X166588Y144682D01*
X166589Y144671D01*
X166595Y144627D01*
X166602Y144572D01*
X166602Y144493D01*
X166604Y144393D01*
X166609Y144270D01*
X166603Y144146D01*
X166589Y143999D01*
X166550Y143703D01*
X166516Y143541D01*
X166472Y143367D01*
X166415Y143203D01*
X166336Y143047D01*
X166257Y142879D01*
X166154Y142731D01*
X166144Y142719D01*
X166125Y142694D01*
X166096Y142656D01*
X166047Y142605D01*
X165989Y142541D01*
X165909Y142464D01*
X165829Y142397D01*
X165729Y142305D01*
X165628Y142225D01*
X165503Y142152D01*
X165222Y141991D01*
X165074Y141927D01*
X164902Y141870D01*
X164729Y141825D01*
X164544Y141789D01*
X164467Y141778D01*
X164410Y141782D01*
X164355Y141775D01*
X164277Y141776D01*
X164085Y141784D01*
X163870Y141800D01*
X163629Y141846D01*
X163385Y141914D01*
X163136Y142015D01*
X163125Y142014D01*
X163111Y142034D01*
X163075Y142052D01*
X163027Y142079D01*
X162905Y142152D01*
X162746Y142254D01*
X162581Y142400D01*
X162389Y142576D01*
X162215Y142788D01*
X162048Y143035D01*
X162047Y143046D01*
X162033Y143066D01*
X162005Y143107D01*
X161976Y143159D01*
X161943Y143233D01*
X161897Y143328D01*
X161860Y143435D01*
X161811Y143552D01*
X161759Y143690D01*
X161704Y143851D01*
X161659Y144024D01*
X161612Y144208D01*
X161562Y144414D01*
X161510Y144631D01*
X161467Y144872D01*
X161433Y145125D01*
X161432Y145136D01*
X161425Y145191D01*
X161414Y145268D01*
X161401Y145367D01*
X161396Y145490D01*
X161377Y145633D01*
X161366Y145799D01*
Y145967D01*
X161349Y146346D01*
X161351Y146749D01*
X161378Y147133D01*
X161408Y147328D01*
X161441Y147500D01*
X161440Y147511D01*
X161448Y147535D01*
X161464Y147582D01*
X161477Y147650D01*
X161501Y147721D01*
X161534Y147815D01*
X161619Y148017D01*
X161723Y148243D01*
X161847Y148484D01*
X162018Y148719D01*
X162213Y148936D01*
X162224Y148937D01*
X162243Y148962D01*
X162273Y148988D01*
X162314Y149016D01*
X162376Y149058D01*
X162436Y149111D01*
X162518Y149167D01*
X162601Y149212D01*
X162799Y149327D01*
X163041Y149438D01*
X163311Y149519D01*
X163616Y149582D01*
X163704Y149594D01*
X163760Y149590D01*
X163837Y149600D01*
X163927Y149601D01*
X164142Y149585D01*
D02*
G37*
G36*
X170476Y150452D02*
X170633Y150451D01*
X170959Y150439D01*
X171301Y150395D01*
X171647Y150318D01*
X171812Y150261D01*
X171978Y150194D01*
X171990Y150184D01*
X172013Y150176D01*
X172062Y150149D01*
X172112Y150111D01*
X172184Y150076D01*
X172270Y150020D01*
X172368Y149955D01*
X172468Y149878D01*
X172569Y149791D01*
X172681Y149705D01*
X172913Y149479D01*
X173140Y149207D01*
X173349Y148898D01*
X173350Y148888D01*
X173377Y148857D01*
X173395Y148804D01*
X173437Y148742D01*
X173470Y148657D01*
X173518Y148552D01*
X173578Y148436D01*
X173629Y148309D01*
X173681Y148170D01*
X173747Y148011D01*
X173848Y147677D01*
X173943Y147298D01*
X174018Y146905D01*
X174019Y146894D01*
X174025Y146850D01*
X174034Y146784D01*
X174033Y146705D01*
X174048Y146595D01*
X174051Y146484D01*
X174060Y146339D01*
X174057Y146194D01*
X174044Y145867D01*
X174014Y145505D01*
X173951Y145138D01*
X173843Y144776D01*
X173833Y144764D01*
X173827Y144729D01*
X173810Y144682D01*
X173774Y144622D01*
X173740Y144539D01*
X173697Y144443D01*
X173580Y144226D01*
X173422Y143981D01*
X173232Y143732D01*
X173008Y143478D01*
X172736Y143251D01*
X172726Y143239D01*
X172695Y143223D01*
X172654Y143195D01*
X172603Y143155D01*
X172520Y143110D01*
X172436Y143066D01*
X172332Y143007D01*
X172217Y142947D01*
X172090Y142885D01*
X171953Y142822D01*
X171654Y142715D01*
X171309Y142613D01*
X170949Y142543D01*
X170839Y142528D01*
X170761Y142529D01*
X170660Y142526D01*
X170538Y142521D01*
X170415Y142516D01*
X170268Y142530D01*
X169962Y142556D01*
X169619Y142611D01*
X169445Y142655D01*
X169280Y142712D01*
X169113Y142790D01*
X168946Y142869D01*
X168934Y142878D01*
X168910Y142886D01*
X168862Y142914D01*
X168799Y142961D01*
X168737Y143009D01*
X168650Y143076D01*
X168561Y143153D01*
X168461Y143230D01*
X168358Y143328D01*
X168253Y143448D01*
X168136Y143567D01*
X168029Y143698D01*
X167930Y143853D01*
X167820Y144006D01*
X167731Y144174D01*
X167638Y144363D01*
X168597Y144726D01*
X168599Y144715D01*
X168613Y144694D01*
X168641Y144653D01*
X168670Y144601D01*
X168701Y144538D01*
X168746Y144455D01*
X168857Y144290D01*
X168994Y144107D01*
X169152Y143926D01*
X169342Y143762D01*
X169540Y143620D01*
X169565Y143601D01*
X169637Y143566D01*
X169754Y143525D01*
X169908Y143467D01*
X170103Y143426D01*
X170321Y143388D01*
X170580Y143378D01*
X170857Y143404D01*
X170945Y143415D01*
X170998Y143434D01*
X171075Y143444D01*
X171162Y143467D01*
X171367Y143528D01*
X171592Y143603D01*
X171823Y143712D01*
X172062Y143856D01*
X172274Y144030D01*
X172285Y144031D01*
X172293Y144054D01*
X172362Y144120D01*
X172450Y144221D01*
X172553Y144369D01*
X172674Y144553D01*
X172781Y144758D01*
X172871Y145005D01*
X172948Y145273D01*
X172946Y145284D01*
X172954Y145307D01*
X172961Y145342D01*
X172965Y145398D01*
X172978Y145467D01*
X172990Y145547D01*
X172998Y145739D01*
X173012Y145964D01*
X173024Y146212D01*
X173011Y146479D01*
X172984Y146767D01*
X172982Y146778D01*
X172978Y146811D01*
X172970Y146866D01*
X172962Y146932D01*
X172940Y147008D01*
X172927Y147107D01*
X172901Y147215D01*
X172874Y147335D01*
X172806Y147594D01*
X172713Y147873D01*
X172609Y148150D01*
X172482Y148425D01*
X172481Y148436D01*
X172467Y148456D01*
X172441Y148486D01*
X172411Y148538D01*
X172328Y148661D01*
X172208Y148802D01*
X172064Y148962D01*
X171884Y149129D01*
X171686Y149270D01*
X171457Y149396D01*
X171446Y149395D01*
X171422Y149403D01*
X171387Y149421D01*
X171339Y149437D01*
X171282Y149451D01*
X171211Y149476D01*
X171048Y149521D01*
X170842Y149561D01*
X170614Y149586D01*
X170366Y149598D01*
X170112Y149575D01*
X170035Y149565D01*
X169970Y149545D01*
X169893Y149535D01*
X169818Y149514D01*
X169625Y149443D01*
X169402Y149357D01*
X169182Y149239D01*
X168956Y149085D01*
X168844Y149003D01*
X168746Y148900D01*
X168736Y148888D01*
X168727Y148875D01*
X168698Y148838D01*
X168659Y148799D01*
X168622Y148738D01*
X168576Y148665D01*
X168519Y148590D01*
X168475Y148495D01*
X168423Y148387D01*
X168360Y148266D01*
X168309Y148148D01*
X168260Y148007D01*
X168225Y147857D01*
X168190Y147695D01*
X168157Y147523D01*
X168137Y147341D01*
X167091Y147459D01*
X167089Y147470D01*
X167094Y147515D01*
X167107Y147584D01*
X167129Y147677D01*
X167148Y147780D01*
X167176Y147907D01*
X167214Y148046D01*
X167261Y148198D01*
X167374Y148527D01*
X167531Y148861D01*
X167631Y149031D01*
X167731Y149202D01*
X167846Y149351D01*
X167982Y149504D01*
X167992Y149516D01*
X168011Y149541D01*
X168063Y149571D01*
X168112Y149622D01*
X168193Y149689D01*
X168274Y149755D01*
X168387Y149827D01*
X168501Y149898D01*
X168635Y149983D01*
X168782Y150058D01*
X168939Y150135D01*
X169108Y150214D01*
X169289Y150283D01*
X169484Y150331D01*
X169690Y150381D01*
X169909Y150422D01*
X170030Y150438D01*
X170120Y150439D01*
X170219Y150452D01*
X170341Y150457D01*
X170476Y150452D01*
D02*
G37*
G36*
X177016Y143486D02*
X176004Y143351D01*
X174988Y150965D01*
X176000Y151100D01*
X177016Y143486D01*
D02*
G37*
G36*
X137860Y137440D02*
X136855Y137260D01*
X135495Y144819D01*
X136500Y145000D01*
X137860Y137440D01*
D02*
G37*
G36*
X131838Y144082D02*
X132188Y144021D01*
X132354Y143972D01*
X132523Y143912D01*
X132536Y143903D01*
X132560Y143896D01*
X132609Y143871D01*
X132661Y143835D01*
X132734Y143804D01*
X132822Y143752D01*
X132923Y143691D01*
X133027Y143619D01*
X133132Y143537D01*
X133248Y143456D01*
X133490Y143240D01*
X133728Y142979D01*
X133951Y142681D01*
X133953Y142670D01*
X133981Y142641D01*
X134002Y142588D01*
X134046Y142528D01*
X134084Y142445D01*
X134136Y142342D01*
X134202Y142229D01*
X134258Y142104D01*
X134316Y141968D01*
X134389Y141812D01*
X134505Y141483D01*
X134618Y141109D01*
X134710Y140719D01*
X134712Y140708D01*
X134720Y140665D01*
X134732Y140599D01*
X134735Y140521D01*
X134754Y140412D01*
X134763Y140300D01*
X134778Y140156D01*
X134781Y140010D01*
X134784Y139684D01*
X134770Y139320D01*
X134724Y138951D01*
X134632Y138585D01*
X134623Y138572D01*
X134618Y138537D01*
X134604Y138490D01*
X134570Y138427D01*
X134540Y138343D01*
X134501Y138246D01*
X134394Y138024D01*
X134248Y137772D01*
X134069Y137514D01*
X133857Y137250D01*
X133595Y137011D01*
X133586Y136998D01*
X133556Y136982D01*
X133516Y136952D01*
X133467Y136909D01*
X133386Y136861D01*
X133304Y136812D01*
X133203Y136749D01*
X133090Y136684D01*
X132967Y136616D01*
X132833Y136547D01*
X132539Y136426D01*
X132199Y136309D01*
X131843Y136222D01*
X131733Y136203D01*
X131655Y136200D01*
X131555Y136193D01*
X131433Y136182D01*
X131310Y136172D01*
X131163Y136179D01*
X130856Y136191D01*
X130510Y136231D01*
X130335Y136267D01*
X130168Y136316D01*
X129997Y136386D01*
X129827Y136457D01*
X129814Y136466D01*
X129790Y136473D01*
X129740Y136498D01*
X129676Y136543D01*
X129612Y136588D01*
X129521Y136650D01*
X129429Y136724D01*
X129326Y136796D01*
X129219Y136889D01*
X129108Y137005D01*
X128986Y137118D01*
X128873Y137244D01*
X128767Y137394D01*
X128650Y137542D01*
X128553Y137705D01*
X128452Y137890D01*
X129394Y138297D01*
X129396Y138286D01*
X129411Y138266D01*
X129441Y138226D01*
X129472Y138175D01*
X129506Y138114D01*
X129555Y138032D01*
X129673Y137873D01*
X129818Y137696D01*
X129985Y137523D01*
X130182Y137367D01*
X130386Y137235D01*
X130412Y137217D01*
X130485Y137185D01*
X130604Y137150D01*
X130760Y137099D01*
X130958Y137067D01*
X131177Y137039D01*
X131436Y137040D01*
X131711Y137078D01*
X131798Y137094D01*
X131851Y137115D01*
X131928Y137128D01*
X132013Y137155D01*
X132215Y137225D01*
X132436Y137310D01*
X132663Y137430D01*
X132894Y137584D01*
X133098Y137768D01*
X133109Y137770D01*
X133116Y137794D01*
X133183Y137862D01*
X133265Y137967D01*
X133362Y138120D01*
X133475Y138309D01*
X133572Y138518D01*
X133651Y138769D01*
X133715Y139040D01*
X133713Y139051D01*
X133720Y139075D01*
X133725Y139110D01*
X133726Y139166D01*
X133736Y139236D01*
X133744Y139316D01*
X133744Y139508D01*
X133748Y139734D01*
X133749Y139982D01*
X133723Y140249D01*
X133683Y140535D01*
X133681Y140546D01*
X133675Y140578D01*
X133666Y140633D01*
X133654Y140698D01*
X133629Y140773D01*
X133611Y140871D01*
X133581Y140978D01*
X133548Y141097D01*
X133468Y141353D01*
X133363Y141627D01*
X133246Y141899D01*
X133107Y142168D01*
X133105Y142179D01*
X133091Y142199D01*
X133063Y142227D01*
X133031Y142278D01*
X132942Y142397D01*
X132816Y142533D01*
X132665Y142686D01*
X132478Y142844D01*
X132274Y142976D01*
X132039Y143092D01*
X132028Y143090D01*
X132004Y143097D01*
X131967Y143113D01*
X131920Y143127D01*
X131861Y143139D01*
X131790Y143160D01*
X131625Y143198D01*
X131417Y143228D01*
X131188Y143244D01*
X130940Y143244D01*
X130687Y143210D01*
X130610Y143196D01*
X130547Y143173D01*
X130470Y143160D01*
X130396Y143135D01*
X130207Y143056D01*
X129987Y142960D01*
X129774Y142831D01*
X129555Y142668D01*
X129447Y142580D01*
X129353Y142473D01*
X129344Y142461D01*
X129335Y142448D01*
X129308Y142409D01*
X129271Y142368D01*
X129237Y142306D01*
X129194Y142231D01*
X129140Y142153D01*
X129101Y142056D01*
X129053Y141946D01*
X128997Y141823D01*
X128951Y141702D01*
X128909Y141559D01*
X128880Y141407D01*
X128853Y141244D01*
X128827Y141071D01*
X128815Y140888D01*
X127765Y140958D01*
X127763Y140969D01*
X127766Y141015D01*
X127776Y141084D01*
X127793Y141178D01*
X127808Y141282D01*
X127830Y141410D01*
X127861Y141551D01*
X127901Y141705D01*
X127999Y142038D01*
X128141Y142379D01*
X128233Y142554D01*
X128326Y142729D01*
X128434Y142883D01*
X128563Y143042D01*
X128572Y143055D01*
X128590Y143081D01*
X128640Y143112D01*
X128687Y143166D01*
X128765Y143236D01*
X128842Y143306D01*
X128953Y143383D01*
X129063Y143459D01*
X129193Y143550D01*
X129336Y143632D01*
X129490Y143716D01*
X129655Y143802D01*
X129833Y143879D01*
X130026Y143937D01*
X130230Y143996D01*
X130446Y144046D01*
X130566Y144068D01*
X130656Y144073D01*
X130754Y144090D01*
X130876Y144101D01*
X131011Y144103D01*
X131168Y144108D01*
X131495Y144111D01*
X131838Y144082D01*
D02*
G37*
G36*
X124979Y136826D02*
X124987Y136838D01*
X125034Y136892D01*
X125088Y136969D01*
X125183Y137065D01*
X125286Y137185D01*
X125419Y137322D01*
X125572Y137474D01*
X125747Y137629D01*
X125758Y137631D01*
X125767Y137644D01*
X125825Y137700D01*
X125924Y137774D01*
X126044Y137863D01*
X126183Y137967D01*
X126333Y138073D01*
X126483Y138179D01*
X126635Y138274D01*
X126796Y137378D01*
X126785Y137376D01*
X126768Y137350D01*
X126726Y137332D01*
X126677Y137289D01*
X126617Y137245D01*
X126549Y137187D01*
X126383Y137044D01*
X126186Y136885D01*
X125995Y136693D01*
X125797Y136476D01*
X125601Y136250D01*
X125592Y136237D01*
X125583Y136224D01*
X125556Y136185D01*
X125518Y136145D01*
X125440Y136018D01*
X125332Y135863D01*
X125229Y135686D01*
X125118Y135486D01*
X125029Y135290D01*
X124953Y135084D01*
X124353Y134976D01*
X122986Y142569D01*
X123915Y142736D01*
X124979Y136826D01*
D02*
G37*
G36*
X118503Y141852D02*
X118627Y141852D01*
X118764Y141843D01*
X118903Y141823D01*
X119053Y141804D01*
X119206Y141764D01*
X119362Y141713D01*
X119520Y141652D01*
X119682Y141568D01*
X119834Y141471D01*
X119978Y141362D01*
X119991Y141353D01*
X120019Y141324D01*
X120061Y141275D01*
X120132Y141198D01*
X120204Y141109D01*
X120282Y140988D01*
X120386Y140849D01*
X120483Y140686D01*
X120584Y140501D01*
X120691Y140283D01*
X120802Y140044D01*
X120907Y139770D01*
X121017Y139474D01*
X121109Y139152D01*
X121196Y138795D01*
X121275Y138415D01*
X121277Y138404D01*
X121285Y138360D01*
X121299Y138284D01*
X121315Y138196D01*
X121325Y138074D01*
X121349Y137943D01*
X121363Y137799D01*
X121382Y137633D01*
X121410Y137289D01*
X121420Y136918D01*
X121420Y136546D01*
X121406Y136374D01*
X121391Y136203D01*
X121393Y136192D01*
X121386Y136168D01*
X121372Y136120D01*
X121360Y136062D01*
X121352Y135981D01*
X121322Y135897D01*
X121268Y135696D01*
X121194Y135479D01*
X121090Y135246D01*
X120963Y135009D01*
X120798Y134799D01*
X120787Y134797D01*
X120780Y134773D01*
X120751Y134745D01*
X120712Y134716D01*
X120665Y134662D01*
X120605Y134618D01*
X120457Y134501D01*
X120274Y134389D01*
X120058Y134271D01*
X119793Y134178D01*
X119502Y134103D01*
X119404Y134086D01*
X119282Y134075D01*
X119136Y134071D01*
X118966Y134075D01*
X118783Y134087D01*
X118588Y134108D01*
X118397Y134164D01*
X118386Y134162D01*
X118374Y134171D01*
X118313Y134194D01*
X118216Y134233D01*
X118093Y134290D01*
X117953Y134377D01*
X117800Y134474D01*
X117654Y134594D01*
X117505Y134736D01*
X117490Y134756D01*
X117437Y134803D01*
X117375Y134894D01*
X117273Y135022D01*
X117178Y135174D01*
X117057Y135344D01*
X116941Y135549D01*
X116833Y135777D01*
X116831Y135788D01*
X116816Y135808D01*
X116799Y135839D01*
X116778Y135891D01*
X116756Y135955D01*
X116731Y136030D01*
X116691Y136124D01*
X116661Y136231D01*
X116617Y136347D01*
X116583Y136476D01*
X116544Y136628D01*
X116495Y136777D01*
X116453Y136949D01*
X116421Y137124D01*
X116375Y137319D01*
X116337Y137526D01*
X116335Y137537D01*
X116328Y137581D01*
X116314Y137657D01*
X116298Y137745D01*
X116287Y137867D01*
X116264Y137998D01*
X116249Y138142D01*
X116233Y138297D01*
X116203Y138652D01*
X116192Y139023D01*
X116195Y139384D01*
X116209Y139556D01*
X116234Y139730D01*
X116232Y139740D01*
X116239Y139764D01*
X116253Y139812D01*
X116265Y139871D01*
X116273Y139951D01*
X116303Y140035D01*
X116357Y140237D01*
X116431Y140453D01*
X116534Y140697D01*
X116662Y140923D01*
X116826Y141144D01*
X116837Y141146D01*
X116844Y141170D01*
X116872Y141198D01*
X116912Y141228D01*
X116961Y141270D01*
X117008Y141324D01*
X117158Y141430D01*
X117341Y141541D01*
X117556Y141659D01*
X117822Y141752D01*
X118112Y141827D01*
X118222Y141847D01*
X118300Y141849D01*
X118390Y141854D01*
X118503Y141852D01*
D02*
G37*
G36*
X40417Y114966D02*
X39436Y114685D01*
X37318Y122069D01*
X38300Y122350D01*
X40417Y114966D01*
D02*
G37*
G36*
X34109Y120940D02*
X34279Y120908D01*
X34453Y120866D01*
X34467Y120858D01*
X34491Y120854D01*
X34543Y120834D01*
X34598Y120803D01*
X34674Y120779D01*
X34767Y120737D01*
X34874Y120686D01*
X34984Y120625D01*
X35097Y120554D01*
X35220Y120485D01*
X35483Y120295D01*
X35747Y120059D01*
X35999Y119785D01*
X36002Y119774D01*
X36032Y119748D01*
X36058Y119698D01*
X36109Y119643D01*
X36154Y119564D01*
X36217Y119466D01*
X36293Y119361D01*
X36362Y119242D01*
X36434Y119113D01*
X36522Y118965D01*
X36671Y118650D01*
X36820Y118288D01*
X36952Y117910D01*
X36955Y117900D01*
X36967Y117857D01*
X36985Y117793D01*
X36996Y117715D01*
X37027Y117609D01*
X37047Y117499D01*
X37076Y117357D01*
X37094Y117212D01*
X37130Y116888D01*
X37153Y116525D01*
X37144Y116153D01*
X37090Y115779D01*
X37082Y115765D01*
X37081Y115730D01*
X37071Y115681D01*
X37044Y115616D01*
X37023Y115529D01*
X36994Y115428D01*
X36910Y115196D01*
X36790Y114931D01*
X36638Y114656D01*
X36454Y114373D01*
X36218Y114109D01*
X36210Y114095D01*
X36181Y114075D01*
X36144Y114042D01*
X36100Y113994D01*
X36024Y113938D01*
X35948Y113881D01*
X35853Y113808D01*
X35748Y113732D01*
X35633Y113652D01*
X35506Y113570D01*
X35226Y113420D01*
X34899Y113269D01*
X34553Y113146D01*
X34447Y113116D01*
X34369Y113105D01*
X34270Y113088D01*
X34149Y113065D01*
X34029Y113042D01*
X33881Y113035D01*
X33575Y113016D01*
X33227Y113020D01*
X33049Y113038D01*
X32878Y113070D01*
X32701Y113123D01*
X32524Y113177D01*
X32510Y113184D01*
X32486Y113189D01*
X32434Y113209D01*
X32366Y113247D01*
X32297Y113285D01*
X32201Y113338D01*
X32102Y113402D01*
X31992Y113463D01*
X31876Y113545D01*
X31754Y113649D01*
X31621Y113749D01*
X31496Y113863D01*
X31375Y114002D01*
X31244Y114137D01*
X31131Y114290D01*
X31012Y114464D01*
X31908Y114963D01*
X31911Y114952D01*
X31928Y114934D01*
X31961Y114897D01*
X31998Y114850D01*
X32038Y114792D01*
X32094Y114716D01*
X32229Y114570D01*
X32390Y114408D01*
X32573Y114253D01*
X32785Y114118D01*
X33002Y114007D01*
X33030Y113991D01*
X33106Y113967D01*
X33228Y113944D01*
X33388Y113909D01*
X33588Y113897D01*
X33809Y113891D01*
X34066Y113919D01*
X34336Y113985D01*
X34422Y114009D01*
X34472Y114035D01*
X34546Y114057D01*
X34629Y114092D01*
X34822Y114182D01*
X35034Y114289D01*
X35247Y114431D01*
X35462Y114608D01*
X35647Y114811D01*
X35657Y114814D01*
X35662Y114838D01*
X35721Y114913D01*
X35793Y115026D01*
X35873Y115188D01*
X35966Y115388D01*
X36042Y115606D01*
X36095Y115863D01*
X36132Y116139D01*
X36129Y116150D01*
X36133Y116174D01*
X36135Y116210D01*
X36130Y116266D01*
X36133Y116336D01*
X36133Y116417D01*
X36113Y116608D01*
X36095Y116833D01*
X36070Y117080D01*
X36018Y117342D01*
X35949Y117623D01*
X35946Y117633D01*
X35937Y117666D01*
X35921Y117719D01*
X35903Y117783D01*
X35871Y117854D01*
X35843Y117950D01*
X35802Y118054D01*
X35758Y118168D01*
X35652Y118415D01*
X35519Y118678D01*
X35376Y118937D01*
X35211Y119189D01*
X35208Y119200D01*
X35191Y119218D01*
X35161Y119244D01*
X35124Y119291D01*
X35023Y119401D01*
X34884Y119523D01*
X34718Y119660D01*
X34517Y119799D01*
X34300Y119910D01*
X34055Y120001D01*
X34044Y119998D01*
X34019Y120002D01*
X33981Y120015D01*
X33932Y120024D01*
X33873Y120030D01*
X33800Y120043D01*
X33632Y120065D01*
X33422Y120074D01*
X33193Y120066D01*
X32946Y120041D01*
X32698Y119981D01*
X32623Y119960D01*
X32562Y119931D01*
X32487Y119909D01*
X32416Y119878D01*
X32236Y119780D01*
X32027Y119662D01*
X31827Y119513D01*
X31626Y119328D01*
X31527Y119230D01*
X31445Y119114D01*
X31437Y119101D01*
X31430Y119087D01*
X31407Y119046D01*
X31374Y119001D01*
X31346Y118936D01*
X31311Y118856D01*
X31265Y118774D01*
X31237Y118673D01*
X31200Y118559D01*
X31156Y118431D01*
X31123Y118306D01*
X31095Y118159D01*
X31082Y118005D01*
X31071Y117841D01*
X31064Y117665D01*
X31070Y117482D01*
X30018Y117446D01*
X30015Y117457D01*
X30013Y117503D01*
X30016Y117573D01*
X30024Y117668D01*
X30028Y117773D01*
X30038Y117902D01*
X30054Y118046D01*
X30078Y118203D01*
X30142Y118544D01*
X30248Y118898D01*
X30323Y119081D01*
X30398Y119264D01*
X30489Y119429D01*
X30601Y119600D01*
X30609Y119614D01*
X30624Y119641D01*
X30672Y119678D01*
X30713Y119736D01*
X30783Y119813D01*
X30853Y119891D01*
X30955Y119978D01*
X31057Y120065D01*
X31177Y120169D01*
X31311Y120265D01*
X31456Y120365D01*
X31611Y120467D01*
X31781Y120561D01*
X31967Y120638D01*
X32163Y120717D01*
X32373Y120789D01*
X32491Y120823D01*
X32579Y120837D01*
X32675Y120864D01*
X32796Y120887D01*
X32930Y120903D01*
X33085Y120924D01*
X33410Y120959D01*
X33755Y120966D01*
X34109Y120940D01*
D02*
G37*
G36*
X27664Y113053D02*
X27671Y113067D01*
X27712Y113125D01*
X27758Y113207D01*
X27843Y113312D01*
X27933Y113442D01*
X28052Y113592D01*
X28189Y113758D01*
X28347Y113930D01*
X28358Y113933D01*
X28366Y113947D01*
X28417Y114008D01*
X28509Y114092D01*
X28619Y114193D01*
X28746Y114310D01*
X28885Y114431D01*
X29024Y114552D01*
X29165Y114662D01*
X29416Y113787D01*
X29406Y113784D01*
X29390Y113756D01*
X29351Y113733D01*
X29307Y113686D01*
X29252Y113636D01*
X29189Y113571D01*
X29039Y113413D01*
X28859Y113234D01*
X28688Y113024D01*
X28513Y112789D01*
X28341Y112543D01*
X28333Y112529D01*
X28326Y112515D01*
X28303Y112474D01*
X28270Y112430D01*
X28204Y112296D01*
X28113Y112131D01*
X28028Y111945D01*
X27938Y111735D01*
X27869Y111530D01*
X27815Y111318D01*
X27228Y111150D01*
X25101Y118565D01*
X26008Y118825D01*
X27664Y113053D01*
D02*
G37*
G36*
X22906Y117924D02*
X22919Y117882D01*
X22937Y117818D01*
X22951Y117729D01*
X22968Y117630D01*
X22977Y117517D01*
X22986Y117405D01*
X22977Y117275D01*
X22980Y117264D01*
X22973Y117251D01*
X22970Y117181D01*
X22955Y117072D01*
X22927Y116926D01*
X22885Y116752D01*
X22827Y116551D01*
X22759Y116346D01*
X22661Y116122D01*
X22664Y116111D01*
X22646Y116095D01*
X22611Y116015D01*
X22543Y115892D01*
X22444Y115713D01*
X22329Y115507D01*
X22182Y115257D01*
X21998Y114973D01*
X21795Y114673D01*
X21788Y114659D01*
X21754Y114615D01*
X21705Y114543D01*
X21649Y114458D01*
X21577Y114345D01*
X21488Y114215D01*
X21401Y114075D01*
X21296Y113918D01*
X21102Y113585D01*
X20909Y113252D01*
X20818Y113088D01*
X20737Y112926D01*
X20664Y112778D01*
X20612Y112636D01*
X20615Y112626D01*
X20597Y112609D01*
X20585Y112571D01*
X20576Y112522D01*
X20535Y112383D01*
X20489Y112220D01*
X20464Y112028D01*
X20441Y111825D01*
X20456Y111610D01*
X20490Y111412D01*
X20493Y111401D01*
X20496Y111390D01*
X20525Y111329D01*
X20566Y111226D01*
X20632Y111118D01*
X20718Y110981D01*
X20835Y110853D01*
X20974Y110731D01*
X21145Y110618D01*
X21172Y110603D01*
X21238Y110575D01*
X21328Y110543D01*
X21467Y110503D01*
X21634Y110481D01*
X21823Y110466D01*
X22038Y110482D01*
X22266Y110535D01*
X22330Y110554D01*
X22369Y110576D01*
X22494Y110624D01*
X22634Y110699D01*
X22782Y110787D01*
X22942Y110914D01*
X23085Y111059D01*
X23209Y111233D01*
X23224Y111260D01*
X23251Y111326D01*
X23291Y111430D01*
X23318Y111576D01*
X23350Y111747D01*
X23359Y111957D01*
X23340Y112183D01*
X23291Y112434D01*
X24247Y112605D01*
X24250Y112594D01*
X24249Y112559D01*
X24264Y112506D01*
X24275Y112428D01*
X24278Y112336D01*
X24284Y112234D01*
X24286Y112108D01*
X24287Y111981D01*
X24276Y111700D01*
X24221Y111408D01*
X24183Y111258D01*
X24124Y111103D01*
X24061Y110958D01*
X23985Y110821D01*
X23977Y110807D01*
X23959Y110790D01*
X23936Y110749D01*
X23892Y110702D01*
X23840Y110640D01*
X23778Y110576D01*
X23708Y110499D01*
X23617Y110415D01*
X23514Y110328D01*
X23402Y110238D01*
X23275Y110155D01*
X23138Y110070D01*
X22987Y109992D01*
X22826Y109911D01*
X22647Y109848D01*
X22458Y109782D01*
X22352Y109752D01*
X22274Y109741D01*
X22185Y109727D01*
X22076Y109707D01*
X21952Y109695D01*
X21829Y109683D01*
X21530Y109678D01*
X21222Y109705D01*
X21065Y109729D01*
X20905Y109764D01*
X20749Y109823D01*
X20601Y109896D01*
X20587Y109904D01*
X20563Y109909D01*
X20529Y109945D01*
X20475Y109976D01*
X20406Y110014D01*
X20331Y110073D01*
X20256Y110132D01*
X20165Y110210D01*
X20000Y110382D01*
X19820Y110608D01*
X19741Y110723D01*
X19676Y110867D01*
X19612Y111010D01*
X19556Y111167D01*
X19549Y111188D01*
X19534Y111242D01*
X19520Y111330D01*
X19497Y111451D01*
X19482Y111585D01*
X19482Y111746D01*
X19479Y111918D01*
X19497Y112097D01*
X19501Y112121D01*
X19507Y112181D01*
X19526Y112278D01*
X19556Y112414D01*
X19605Y112567D01*
X19665Y112757D01*
X19748Y112954D01*
X19845Y113178D01*
X19860Y113206D01*
X19895Y113285D01*
X19933Y113354D01*
X19971Y113422D01*
X20017Y113505D01*
X20078Y113615D01*
X20139Y113724D01*
X20218Y113851D01*
X20294Y113988D01*
X20388Y114142D01*
X20493Y114299D01*
X20603Y114481D01*
X20734Y114669D01*
X20862Y114867D01*
X20869Y114881D01*
X20885Y114908D01*
X20918Y114952D01*
X20959Y115010D01*
X21005Y115093D01*
X21061Y115178D01*
X21192Y115366D01*
X21328Y115578D01*
X21453Y115787D01*
X21562Y115969D01*
X21611Y116040D01*
X21649Y116109D01*
X21656Y116123D01*
X21679Y116164D01*
X21710Y116219D01*
X21745Y116298D01*
X21777Y116388D01*
X21819Y116481D01*
X21895Y116699D01*
X18257Y115656D01*
X18006Y116531D01*
X22903Y117935D01*
X22906Y117924D01*
D02*
G37*
G36*
X78352Y124956D02*
X77358Y124721D01*
X75591Y132196D01*
X76585Y132431D01*
X78352Y124956D01*
D02*
G37*
G36*
X71980Y131262D02*
X72332Y131220D01*
X72501Y131180D01*
X72673Y131130D01*
X72686Y131121D01*
X72710Y131116D01*
X72761Y131093D01*
X72814Y131060D01*
X72889Y131032D01*
X72980Y130986D01*
X73085Y130930D01*
X73191Y130864D01*
X73301Y130788D01*
X73421Y130713D01*
X73674Y130511D01*
X73927Y130263D01*
X74165Y129977D01*
X74168Y129966D01*
X74197Y129939D01*
X74221Y129887D01*
X74268Y129830D01*
X74311Y129749D01*
X74369Y129649D01*
X74440Y129540D01*
X74503Y129418D01*
X74569Y129285D01*
X74650Y129133D01*
X74783Y128811D01*
X74916Y128443D01*
X75029Y128060D01*
X75032Y128049D01*
X75042Y128006D01*
X75057Y127941D01*
X75064Y127863D01*
X75090Y127755D01*
X75105Y127644D01*
X75127Y127501D01*
X75139Y127355D01*
X75159Y127029D01*
X75165Y126666D01*
X75139Y126295D01*
X75066Y125924D01*
X75058Y125911D01*
X75055Y125876D01*
X75044Y125828D01*
X75013Y125763D01*
X74988Y125677D01*
X74954Y125578D01*
X74860Y125351D01*
X74727Y125091D01*
X74562Y124824D01*
X74365Y124549D01*
X74117Y124297D01*
X74108Y124283D01*
X74078Y124265D01*
X74040Y124233D01*
X73994Y124188D01*
X73915Y124135D01*
X73837Y124082D01*
X73739Y124014D01*
X73630Y123942D01*
X73511Y123868D01*
X73380Y123792D01*
X73093Y123656D01*
X72761Y123520D01*
X72409Y123414D01*
X72301Y123389D01*
X72223Y123381D01*
X72123Y123369D01*
X72002Y123352D01*
X71880Y123335D01*
X71732Y123334D01*
X71425Y123330D01*
X71078Y123350D01*
X70901Y123377D01*
X70732Y123417D01*
X70558Y123478D01*
X70384Y123540D01*
X70370Y123548D01*
X70346Y123554D01*
X70295Y123576D01*
X70228Y123617D01*
X70161Y123658D01*
X70068Y123716D01*
X69972Y123785D01*
X69865Y123851D01*
X69753Y123938D01*
X69636Y124047D01*
X69508Y124154D01*
X69389Y124274D01*
X69275Y124418D01*
X69150Y124560D01*
X69044Y124717D01*
X68934Y124896D01*
X69852Y125353D01*
X69855Y125342D01*
X69871Y125323D01*
X69902Y125285D01*
X69937Y125236D01*
X69974Y125176D01*
X70027Y125098D01*
X70154Y124945D01*
X70308Y124776D01*
X70483Y124613D01*
X70689Y124467D01*
X70900Y124346D01*
X70927Y124330D01*
X71002Y124302D01*
X71122Y124273D01*
X71281Y124231D01*
X71480Y124209D01*
X71700Y124193D01*
X71959Y124209D01*
X72232Y124262D01*
X72318Y124282D01*
X72369Y124306D01*
X72445Y124324D01*
X72529Y124355D01*
X72726Y124436D01*
X72943Y124533D01*
X73163Y124664D01*
X73386Y124831D01*
X73580Y125025D01*
X73590Y125028D01*
X73596Y125052D01*
X73659Y125124D01*
X73736Y125233D01*
X73824Y125391D01*
X73926Y125586D01*
X74012Y125800D01*
X74077Y126055D01*
X74127Y126329D01*
X74124Y126340D01*
X74130Y126364D01*
X74133Y126399D01*
X74131Y126456D01*
X74137Y126526D01*
X74141Y126606D01*
X74130Y126798D01*
X74122Y127024D01*
X74109Y127272D01*
X74069Y127536D01*
X74014Y127820D01*
X74011Y127830D01*
X74004Y127863D01*
X73991Y127917D01*
X73976Y127982D01*
X73947Y128055D01*
X73924Y128152D01*
X73888Y128257D01*
X73849Y128374D01*
X73755Y128625D01*
X73635Y128893D01*
X73503Y129159D01*
X73351Y129419D01*
X73348Y129430D01*
X73332Y129449D01*
X73303Y129476D01*
X73268Y129525D01*
X73173Y129640D01*
X73040Y129768D01*
X72880Y129913D01*
X72686Y130061D01*
X72475Y130182D01*
X72234Y130284D01*
X72223Y130282D01*
X72199Y130288D01*
X72161Y130302D01*
X72113Y130313D01*
X72054Y130322D01*
X71981Y130339D01*
X71815Y130368D01*
X71605Y130387D01*
X71376Y130390D01*
X71128Y130377D01*
X70877Y130329D01*
X70802Y130311D01*
X70739Y130285D01*
X70664Y130267D01*
X70591Y130238D01*
X70406Y130149D01*
X70192Y130041D01*
X69986Y129901D01*
X69776Y129726D01*
X69673Y129633D01*
X69585Y129522D01*
X69577Y129508D01*
X69569Y129495D01*
X69544Y129455D01*
X69509Y129412D01*
X69478Y129348D01*
X69439Y129270D01*
X69390Y129190D01*
X69356Y129091D01*
X69314Y128979D01*
X69264Y128853D01*
X69225Y128729D01*
X69191Y128584D01*
X69170Y128431D01*
X69152Y128267D01*
X69136Y128092D01*
X69134Y127909D01*
X68081Y127923D01*
X68079Y127934D01*
X68079Y127979D01*
X68086Y128049D01*
X68098Y128143D01*
X68107Y128248D01*
X68122Y128377D01*
X68145Y128520D01*
X68177Y128675D01*
X68257Y129014D01*
X68380Y129362D01*
X68463Y129541D01*
X68546Y129721D01*
X68645Y129881D01*
X68766Y130046D01*
X68774Y130060D01*
X68790Y130086D01*
X68839Y130121D01*
X68883Y130177D01*
X68957Y130251D01*
X69030Y130326D01*
X69136Y130408D01*
X69242Y130490D01*
X69367Y130588D01*
X69506Y130677D01*
X69655Y130770D01*
X69815Y130865D01*
X69989Y130951D01*
X70178Y131019D01*
X70378Y131089D01*
X70592Y131151D01*
X70711Y131179D01*
X70799Y131189D01*
X70897Y131212D01*
X71018Y131229D01*
X71153Y131238D01*
X71309Y131252D01*
X71635Y131272D01*
X71980Y131262D01*
D02*
G37*
G36*
X65522Y123645D02*
X65531Y123659D01*
X65574Y123715D01*
X65624Y123795D01*
X65714Y123896D01*
X65810Y124021D01*
X65936Y124165D01*
X66080Y124325D01*
X66247Y124489D01*
X66258Y124492D01*
X66266Y124505D01*
X66320Y124564D01*
X66416Y124643D01*
X66530Y124739D01*
X66663Y124850D01*
X66807Y124964D01*
X66952Y125078D01*
X67098Y125181D01*
X67308Y124295D01*
X67297Y124293D01*
X67281Y124266D01*
X67240Y124245D01*
X67193Y124200D01*
X67136Y124152D01*
X67071Y124091D01*
X66913Y123940D01*
X66725Y123770D01*
X66545Y123567D01*
X66359Y123341D01*
X66175Y123104D01*
X66167Y123090D01*
X66159Y123077D01*
X66134Y123037D01*
X66098Y122994D01*
X66027Y122863D01*
X65928Y122703D01*
X65834Y122521D01*
X65734Y122315D01*
X65656Y122114D01*
X65592Y121905D01*
X64998Y121765D01*
X63223Y129272D01*
X64141Y129489D01*
X65522Y123645D01*
D02*
G37*
G36*
X59711Y122271D02*
X59719Y122285D01*
X59763Y122341D01*
X59812Y122421D01*
X59903Y122522D01*
X59998Y122647D01*
X60124Y122791D01*
X60269Y122951D01*
X60435Y123116D01*
X60446Y123118D01*
X60454Y123132D01*
X60509Y123190D01*
X60604Y123270D01*
X60718Y123365D01*
X60852Y123476D01*
X60996Y123590D01*
X61140Y123704D01*
X61287Y123807D01*
X61496Y122922D01*
X61485Y122919D01*
X61469Y122892D01*
X61428Y122871D01*
X61382Y122826D01*
X61325Y122778D01*
X61259Y122717D01*
X61101Y122566D01*
X60913Y122396D01*
X60733Y122194D01*
X60547Y121967D01*
X60364Y121730D01*
X60355Y121717D01*
X60347Y121703D01*
X60322Y121663D01*
X60287Y121621D01*
X60215Y121490D01*
X60116Y121329D01*
X60022Y121147D01*
X59923Y120941D01*
X59845Y120740D01*
X59780Y120531D01*
X59186Y120391D01*
X57411Y127898D01*
X58330Y128115D01*
X59711Y122271D01*
D02*
G37*
%LPC*%
G36*
X424260Y150161D02*
X423805Y146750D01*
X426659Y149841D01*
X424260Y150161D01*
D02*
G37*
G36*
X324544Y159137D02*
X324499Y159128D01*
X324388Y159120D01*
X324243Y159091D01*
X324086Y159029D01*
X323906Y158957D01*
X323725Y158840D01*
X323634Y158776D01*
X323554Y158689D01*
X323553Y158678D01*
X323531Y158668D01*
X323484Y158603D01*
X323414Y158494D01*
X323321Y158352D01*
X323238Y158166D01*
X323165Y157946D01*
X323113Y157692D01*
X323082Y157393D01*
X323082Y157382D01*
X323081Y157360D01*
X323080Y157315D01*
X323089Y157260D01*
X323087Y157193D01*
X323096Y157115D01*
X323124Y156937D01*
X323162Y156735D01*
X323234Y156522D01*
X323339Y156319D01*
X323478Y156126D01*
X323499Y156104D01*
X323553Y156046D01*
X323640Y155977D01*
X323759Y155885D01*
X323912Y155792D01*
X324087Y155720D01*
X324296Y155658D01*
X324529Y155629D01*
X324595Y155627D01*
X324640Y155637D01*
X324751Y155645D01*
X324908Y155673D01*
X325076Y155724D01*
X325267Y155807D01*
X325448Y155913D01*
X325630Y156063D01*
X325653Y156084D01*
X325699Y156138D01*
X325779Y156236D01*
X325861Y156378D01*
X325944Y156542D01*
X326028Y156750D01*
X326079Y156982D01*
X326109Y157248D01*
X326110Y157270D01*
X326112Y157325D01*
X326104Y157425D01*
X326096Y157548D01*
X326078Y157693D01*
X326038Y157849D01*
X325999Y158017D01*
X325937Y158186D01*
X325927Y158208D01*
X325895Y158265D01*
X325853Y158343D01*
X325789Y158445D01*
X325715Y158547D01*
X325619Y158673D01*
X325511Y158776D01*
X325380Y158879D01*
X325359Y158891D01*
X325315Y158915D01*
X325238Y158961D01*
X325140Y158998D01*
X325030Y159045D01*
X324898Y159094D01*
X324755Y159120D01*
X324600Y159136D01*
X324544Y159137D01*
D02*
G37*
G36*
X223839Y155828D02*
X223683Y155828D01*
X223617Y155823D01*
X223573Y155809D01*
X223441Y155788D01*
X223289Y155743D01*
X223116Y155675D01*
X222932Y155595D01*
X222763Y155471D01*
X222597Y155314D01*
X222576Y155290D01*
X222536Y155232D01*
X222466Y155126D01*
X222397Y154999D01*
X222331Y154838D01*
X222267Y154644D01*
X222239Y154420D01*
X222234Y154186D01*
X222235Y154175D01*
X222237Y154152D01*
X222239Y154119D01*
X222254Y154076D01*
X222274Y153955D01*
X222319Y153791D01*
X222387Y153629D01*
X222478Y153447D01*
X222602Y153267D01*
X222770Y153101D01*
X222794Y153080D01*
X222853Y153040D01*
X222958Y152970D01*
X223097Y152891D01*
X223269Y152826D01*
X223474Y152763D01*
X223699Y152735D01*
X223944Y152731D01*
X224010Y152736D01*
X224054Y152750D01*
X224175Y152770D01*
X224327Y152815D01*
X224500Y152883D01*
X224672Y152973D01*
X224852Y153098D01*
X225007Y153254D01*
X225028Y153278D01*
X225068Y153336D01*
X225127Y153441D01*
X225196Y153568D01*
X225272Y153741D01*
X225325Y153934D01*
X225354Y154148D01*
X225359Y154382D01*
X225357Y154404D01*
X225354Y154448D01*
X225337Y154525D01*
X225319Y154624D01*
X225287Y154744D01*
X225245Y154874D01*
X225191Y155004D01*
X225125Y155144D01*
X225113Y155154D01*
X225086Y155208D01*
X225037Y155271D01*
X224965Y155343D01*
X224880Y155437D01*
X224773Y155530D01*
X224656Y155610D01*
X224517Y155689D01*
X224494Y155698D01*
X224448Y155717D01*
X224368Y155745D01*
X224266Y155771D01*
X224142Y155795D01*
X223995Y155817D01*
X223839Y155828D01*
D02*
G37*
G36*
X224167Y151968D02*
X223967Y151965D01*
X223945Y151963D01*
X223879Y151947D01*
X223780Y151929D01*
X223649Y151897D01*
X223508Y151842D01*
X223368Y151776D01*
X223220Y151676D01*
X223095Y151556D01*
X223085Y151544D01*
X223045Y151485D01*
X222994Y151414D01*
X222935Y151310D01*
X222878Y151183D01*
X222833Y151035D01*
X222801Y150866D01*
X222803Y150688D01*
X222804Y150677D01*
X222805Y150666D01*
X222809Y150600D01*
X222839Y150502D01*
X222870Y150381D01*
X222924Y150252D01*
X223001Y150113D01*
X223100Y149975D01*
X223232Y149840D01*
X223244Y149830D01*
X223303Y149790D01*
X223384Y149740D01*
X223489Y149681D01*
X223627Y149625D01*
X223775Y149580D01*
X223955Y149549D01*
X224144Y149551D01*
X224233Y149558D01*
X224331Y149587D01*
X224462Y149619D01*
X224602Y149674D01*
X224753Y149741D01*
X224891Y149840D01*
X225026Y149972D01*
X225036Y149984D01*
X225077Y150032D01*
X225127Y150113D01*
X225175Y150217D01*
X225232Y150344D01*
X225277Y150491D01*
X225310Y150650D01*
X225308Y150828D01*
X225307Y150839D01*
X225306Y150850D01*
X225290Y150915D01*
X225272Y151014D01*
X225241Y151134D01*
X225186Y151275D01*
X225120Y151415D01*
X225020Y151563D01*
X224900Y151688D01*
X224888Y151698D01*
X224829Y151739D01*
X224748Y151788D01*
X224644Y151836D01*
X224506Y151893D01*
X224347Y151937D01*
X224167Y151968D01*
D02*
G37*
G36*
X164125Y146022D02*
X163890Y146013D01*
X163825Y146004D01*
X163782Y145987D01*
X163662Y145960D01*
X163524Y145908D01*
X163355Y145829D01*
X163189Y145729D01*
X163028Y145595D01*
X162883Y145419D01*
X162864Y145394D01*
X162829Y145323D01*
X162776Y145215D01*
X162707Y145060D01*
X162654Y144874D01*
X162616Y144656D01*
X162605Y144397D01*
X162622Y144108D01*
X162623Y144097D01*
X162626Y144075D01*
X162632Y144031D01*
X162650Y143977D01*
X162661Y143900D01*
X162682Y143825D01*
X162738Y143653D01*
X162810Y143450D01*
X162917Y143240D01*
X163055Y143046D01*
X163223Y142878D01*
X163224Y142867D01*
X163248Y142859D01*
X163310Y142811D01*
X163408Y142746D01*
X163541Y142674D01*
X163705Y142617D01*
X163892Y142564D01*
X164097Y142535D01*
X164210Y142528D01*
X164386Y142551D01*
X164428Y142568D01*
X164548Y142596D01*
X164685Y142659D01*
X164854Y142737D01*
X165028Y142861D01*
X165199Y143007D01*
X165275Y143107D01*
X165351Y143207D01*
X165350Y143218D01*
X165370Y143231D01*
X165388Y143267D01*
X165405Y143303D01*
X165468Y143424D01*
X165524Y143588D01*
X165587Y143787D01*
X165634Y144028D01*
X165642Y144298D01*
X165626Y144587D01*
X165625Y144598D01*
X165622Y144620D01*
X165617Y144653D01*
X165599Y144707D01*
X165590Y144773D01*
X165570Y144837D01*
X165515Y144998D01*
X165435Y145177D01*
X165343Y145367D01*
X165206Y145550D01*
X165040Y145707D01*
X165015Y145726D01*
X164954Y145763D01*
X164845Y145827D01*
X164713Y145887D01*
X164537Y145954D01*
X164339Y146005D01*
X164125Y146022D01*
D02*
G37*
G36*
X118483Y141082D02*
X118372Y141073D01*
X118250Y141062D01*
X118185Y141050D01*
X118143Y141032D01*
X118038Y140990D01*
X117893Y140919D01*
X117742Y140813D01*
X117576Y140670D01*
X117501Y140589D01*
X117429Y140486D01*
X117357Y140383D01*
X117290Y140258D01*
X117292Y140247D01*
X117274Y140221D01*
X117258Y140184D01*
X117246Y140126D01*
X117216Y140042D01*
X117201Y139937D01*
X117177Y139820D01*
X117156Y139681D01*
X117153Y139511D01*
X117141Y139329D01*
X117135Y139113D01*
X117141Y138889D01*
X117167Y138623D01*
X117194Y138346D01*
X117227Y138036D01*
X117288Y137697D01*
X117290Y137686D01*
X117292Y137676D01*
X117302Y137621D01*
X117319Y137523D01*
X117354Y137394D01*
X117379Y137251D01*
X117422Y137079D01*
X117466Y136895D01*
X117525Y136691D01*
X117655Y136286D01*
X117725Y136084D01*
X117804Y135896D01*
X117881Y135718D01*
X117978Y135555D01*
X118071Y135414D01*
X118171Y135296D01*
X118173Y135285D01*
X118197Y135278D01*
X118225Y135249D01*
X118265Y135212D01*
X118381Y135131D01*
X118523Y135032D01*
X118707Y134953D01*
X118910Y134888D01*
X119016Y134862D01*
X119131Y134849D01*
X119253Y134859D01*
X119376Y134870D01*
X119441Y134882D01*
X119483Y134901D01*
X119599Y134944D01*
X119735Y135002D01*
X119887Y135097D01*
X120044Y135227D01*
X120120Y135309D01*
X120196Y135390D01*
X120256Y135491D01*
X120315Y135603D01*
X120313Y135614D01*
X120331Y135640D01*
X120345Y135687D01*
X120368Y135748D01*
X120385Y135841D01*
X120411Y135947D01*
X120422Y136073D01*
X120440Y136223D01*
X120455Y136395D01*
X120465Y136589D01*
X120471Y136804D01*
X120463Y137039D01*
X120448Y137307D01*
X120419Y137595D01*
X120375Y137903D01*
X120325Y138244D01*
X120321Y138266D01*
X120311Y138320D01*
X120293Y138419D01*
X120259Y138548D01*
X120233Y138690D01*
X120191Y138863D01*
X120147Y139046D01*
X120089Y139239D01*
X119958Y139655D01*
X119888Y139857D01*
X119809Y140046D01*
X119732Y140224D01*
X119635Y140386D01*
X119542Y140528D01*
X119442Y140645D01*
X119440Y140656D01*
X119416Y140663D01*
X119348Y140730D01*
X119232Y140810D01*
X119092Y140898D01*
X118908Y140978D01*
X118705Y141042D01*
X118483Y141082D01*
D02*
G37*
%LPD*%
M02*
