G04*
G04 #@! TF.GenerationSoftware,Altium Limited,Altium Designer,24.9.1 (31)*
G04*
G04 Layer_Color=16711935*
%FSLAX44Y44*%
%MOMM*%
G71*
G04*
G04 #@! TF.SameCoordinates,7DCFF066-EA26-49B3-B75A-539F59D7DBC6*
G04*
G04*
G04 #@! TF.FilePolarity,Positive*
G04*
G01*
G75*
%ADD59C,0.1000*%
D59*
X542126Y75284D02*
Y87784D01*
X521626D02*
X542126D01*
X521626Y75284D02*
Y87784D01*
Y75284D02*
X542126D01*
X482436Y83666D02*
Y96166D01*
X461936D02*
X482436D01*
X461936Y83666D02*
Y96166D01*
Y83666D02*
X482436D01*
X392530Y106610D02*
X405030D01*
X392530Y86110D02*
Y106610D01*
Y86110D02*
X405030D01*
Y106610D01*
X261901Y93730D02*
X274401D01*
Y114230D01*
X261901D02*
X274401D01*
X261901Y93730D02*
Y114230D01*
X288027D02*
X300527D01*
X288027Y93730D02*
Y114230D01*
Y93730D02*
X300527D01*
Y114230D01*
X209650Y106610D02*
X222150D01*
X209650Y86110D02*
Y106610D01*
Y86110D02*
X222150D01*
Y106610D01*
X235776D02*
X248276D01*
X235776Y86110D02*
Y106610D01*
Y86110D02*
X248276D01*
Y106610D01*
X366404D02*
X378904D01*
X366404Y86110D02*
Y106610D01*
Y86110D02*
X378904D01*
Y106610D01*
X340279Y114230D02*
X352779D01*
X340279Y93730D02*
Y114230D01*
Y93730D02*
X352779D01*
Y114230D01*
X314153Y93730D02*
X326653D01*
Y114230D01*
X314153D02*
X326653D01*
X314153Y93730D02*
Y114230D01*
X152490Y87730D02*
Y100230D01*
X131990D02*
X152490D01*
X131990Y87730D02*
Y100230D01*
Y87730D02*
X152490D01*
X70522Y75284D02*
X91022D01*
X70522D02*
Y87784D01*
X91022D01*
Y75284D02*
Y87784D01*
M02*
