G04*
G04 #@! TF.GenerationSoftware,Altium Limited,Altium Designer,24.9.1 (31)*
G04*
G04 Layer_Color=16711935*
%FSLAX44Y44*%
%MOMM*%
G71*
G04*
G04 #@! TF.SameCoordinates,7DCFF066-EA26-49B3-B75A-539F59D7DBC6*
G04*
G04*
G04 #@! TF.FilePolarity,Negative*
G04*
G01*
G75*
%ADD47C,0.8032*%
%ADD48C,1.2032*%
D47*
X424180Y118618D02*
D03*
X520173Y102791D02*
D03*
X520382Y88532D02*
D03*
X165704Y87884D02*
D03*
X158680Y96350D02*
D03*
X121158Y115062D02*
D03*
X94488Y87884D02*
D03*
X316992Y133350D02*
D03*
X320548Y101854D02*
D03*
X184658Y87884D02*
D03*
X570738Y151130D02*
D03*
X469646Y172974D02*
D03*
X366776Y184658D02*
D03*
X262636Y185166D02*
D03*
X159512Y176022D02*
D03*
X57912Y155448D02*
D03*
X546608Y81026D02*
D03*
X185674Y73406D02*
D03*
X420878D02*
D03*
X511048Y112014D02*
D03*
X554990Y101346D02*
D03*
X456946Y96266D02*
D03*
X414782Y127000D02*
D03*
X487934Y85344D02*
D03*
X346710Y98806D02*
D03*
X272542D02*
D03*
X261677Y132645D02*
D03*
X216154Y81534D02*
D03*
X242316D02*
D03*
X356870Y66294D02*
D03*
X398780Y81280D02*
D03*
X372872Y81534D02*
D03*
X294132Y88646D02*
D03*
X458470Y121666D02*
D03*
X360680Y131826D02*
D03*
X218694Y129540D02*
D03*
X164592Y122682D02*
D03*
X26162Y91440D02*
D03*
X68072Y103378D02*
D03*
D48*
X272542Y47244D02*
D03*
X342657Y47509D02*
D03*
X429514Y93980D02*
D03*
X239153Y43028D02*
D03*
X376161D02*
D03*
M02*
