G04*
G04 #@! TF.GenerationSoftware,Altium Limited,Altium Designer,24.9.1 (31)*
G04*
G04 Layer_Color=32896*
%FSLAX44Y44*%
%MOMM*%
G71*
G04*
G04 #@! TF.SameCoordinates,7DCFF066-EA26-49B3-B75A-539F59D7DBC6*
G04*
G04*
G04 #@! TF.FilePolarity,Positive*
G04*
G01*
G75*
%ADD58C,0.0250*%
D58*
X586979Y138101D02*
X591785Y136723D01*
X586979Y138101D02*
X588288Y142667D01*
X593094Y141289D01*
X591785Y136723D02*
X593094Y141289D01*
X569676Y143063D02*
X574482Y141685D01*
X569676Y143063D02*
X570985Y147629D01*
X575792Y146251D01*
X574482Y141685D02*
X575792Y146251D01*
X559615Y107977D02*
X564421Y106599D01*
X563112Y102033D02*
X564421Y106599D01*
X558306Y103411D02*
X563112Y102033D01*
X558306Y103411D02*
X559615Y107977D01*
X576918Y103015D02*
X581724Y101637D01*
X580415Y97071D02*
X581724Y101637D01*
X575608Y98449D02*
X580415Y97071D01*
X575608Y98449D02*
X576918Y103015D01*
X588320Y104687D02*
X595762Y130641D01*
X555637Y114059D02*
X588320Y104687D01*
X555637Y114059D02*
X563080Y140013D01*
X595762Y130641D01*
X523562Y149479D02*
X556650Y141657D01*
X517350Y123203D02*
X523562Y149479D01*
X517350Y123203D02*
X550438Y115381D01*
X556650Y141657D01*
X538035Y108552D02*
X539127Y113174D01*
X538035Y108552D02*
X542900Y107401D01*
X543993Y112024D01*
X539127Y113174D02*
X543993Y112024D01*
X520517Y112692D02*
X521610Y117315D01*
X520517Y112692D02*
X525383Y111542D01*
X526476Y116165D01*
X521610Y117315D02*
X526476Y116165D01*
X534873Y151686D02*
X535965Y156308D01*
X531100Y157459D02*
X535965Y156308D01*
X530007Y152836D02*
X531100Y157459D01*
X530007Y152836D02*
X534873Y151686D01*
X552390Y147545D02*
X553483Y152168D01*
X548617Y153318D02*
X553483Y152168D01*
X547524Y148695D02*
X548617Y153318D01*
X547524Y148695D02*
X552390Y147545D01*
X487000Y161827D02*
X491922Y160951D01*
X487000Y161827D02*
X487833Y166504D01*
X492755Y165627D01*
X491922Y160951D02*
X492755Y165627D01*
X469279Y164984D02*
X474201Y164107D01*
X469279Y164984D02*
X470112Y169660D01*
X475034Y168783D01*
X474201Y164107D02*
X475034Y168783D01*
X462878Y129050D02*
X467800Y128173D01*
X466967Y123496D02*
X467800Y128173D01*
X462045Y124373D02*
X466967Y123496D01*
X462045Y124373D02*
X462878Y129050D01*
X480599Y125893D02*
X485521Y125016D01*
X484688Y120340D02*
X485521Y125016D01*
X479766Y121216D02*
X484688Y120340D01*
X479766Y121216D02*
X480599Y125893D01*
X491769Y128728D02*
X496504Y155309D01*
X458296Y134690D02*
X491769Y128728D01*
X458296Y134690D02*
X463031Y161272D01*
X496504Y155309D01*
X422635Y166730D02*
X456336Y162233D01*
X419064Y139967D02*
X422635Y166730D01*
X419064Y139967D02*
X452765Y135470D01*
X456336Y162233D01*
X441101Y127442D02*
X441729Y132151D01*
X441101Y127442D02*
X446057Y126781D01*
X446685Y131489D01*
X441729Y132151D02*
X446685Y131489D01*
X423259Y129823D02*
X423887Y134531D01*
X423259Y129823D02*
X428215Y129162D01*
X428843Y133870D01*
X423887Y134531D02*
X428843Y133870D01*
X433671Y170049D02*
X434299Y174758D01*
X429343Y175419D02*
X434299Y174758D01*
X428715Y170711D02*
X429343Y175419D01*
X428715Y170711D02*
X433671Y170049D01*
X451513Y167669D02*
X452141Y172377D01*
X447185Y173038D02*
X452141Y172377D01*
X446557Y168330D02*
X447185Y173038D01*
X446557Y168330D02*
X451513Y167669D01*
X385450Y175011D02*
X390436Y174636D01*
X385450Y175011D02*
X385806Y179748D01*
X390792Y179373D01*
X390436Y174636D02*
X390792Y179373D01*
X367501Y176361D02*
X372487Y175986D01*
X367501Y176361D02*
X367857Y181098D01*
X372843Y180723D01*
X372487Y175986D02*
X372843Y180723D01*
X364764Y139964D02*
X369750Y139589D01*
X369394Y134852D02*
X369750Y139589D01*
X364408Y135227D02*
X369394Y134852D01*
X364408Y135227D02*
X364764Y139964D01*
X382713Y138614D02*
X387699Y138239D01*
X387343Y133503D02*
X387699Y138239D01*
X382357Y133877D02*
X387343Y133503D01*
X382357Y133877D02*
X382713Y138614D01*
X393540Y142563D02*
X395564Y169487D01*
X359636Y145113D02*
X393540Y142563D01*
X359636Y145113D02*
X361660Y172037D01*
X395564Y169487D01*
X282456Y177835D02*
X287454Y177983D01*
X282315Y182583D02*
X282456Y177835D01*
X282315Y182583D02*
X287313Y182731D01*
X287454Y177983D01*
X264464Y177301D02*
X269461Y177449D01*
X264323Y182049D02*
X264464Y177301D01*
X264323Y182049D02*
X269321Y182197D01*
X269461Y177449D01*
X265546Y140817D02*
X270544Y140965D01*
X270685Y136217D01*
X265687Y136069D02*
X270685Y136217D01*
X265546Y140817D02*
X265687Y136069D01*
X283539Y141351D02*
X288536Y141499D01*
X288677Y136751D01*
X283680Y136603D02*
X288677Y136751D01*
X283539Y141351D02*
X283680Y136603D01*
X293092Y173398D02*
X293893Y146410D01*
X259908Y145402D02*
X293893Y146410D01*
X259107Y172390D02*
X259908Y145402D01*
X259107Y172390D02*
X293092Y173398D01*
X320808Y173398D02*
X354793Y172390D01*
X320007Y146410D02*
X320808Y173398D01*
X320007Y146410D02*
X353992Y145402D01*
X354793Y172390D01*
X343215Y136217D02*
X343356Y140965D01*
X343215Y136217D02*
X348213Y136069D01*
X348354Y140817D01*
X343356Y140965D02*
X348354Y140817D01*
X325223Y136751D02*
X325364Y141499D01*
X325223Y136751D02*
X330220Y136603D01*
X330361Y141351D01*
X325364Y141499D02*
X330361Y141351D01*
X331444Y177835D02*
X331585Y182583D01*
X326587Y182731D02*
X331585Y182583D01*
X326446Y177983D02*
X326587Y182731D01*
X326446Y177983D02*
X331444Y177835D01*
X349436Y177301D02*
X349577Y182049D01*
X344580Y182197D02*
X349577Y182049D01*
X344439Y177449D02*
X344580Y182197D01*
X344439Y177449D02*
X349436Y177301D01*
X218357Y169619D02*
X252266Y172109D01*
X218357Y169619D02*
X220334Y142691D01*
X254243Y145181D01*
X252266Y172109D02*
X254243Y145181D01*
X244119Y139675D02*
X244467Y134938D01*
X249454Y135304D01*
X249106Y140041D02*
X249454Y135304D01*
X244119Y139675D02*
X249106Y140041D01*
X226168Y138357D02*
X226515Y133619D01*
X231502Y133986D01*
X231154Y138723D02*
X231502Y133986D01*
X226168Y138357D02*
X231154Y138723D01*
X228133Y179862D02*
X228481Y175125D01*
X223146Y179496D02*
X228133Y179862D01*
X223146Y179496D02*
X223494Y174759D01*
X228481Y175125D01*
X246085Y181180D02*
X246432Y176443D01*
X241098Y180814D02*
X246085Y181180D01*
X241098Y180814D02*
X241446Y176077D01*
X246432Y176443D01*
X180029Y170049D02*
X184985Y170711D01*
X179401Y174758D02*
X180029Y170049D01*
X179401Y174758D02*
X184357Y175419D01*
X184985Y170711D01*
X162187Y167669D02*
X167143Y168330D01*
X161559Y172377D02*
X162187Y167669D01*
X161559Y172377D02*
X166515Y173038D01*
X167143Y168330D01*
X167015Y131489D02*
X171971Y132151D01*
X172599Y127442D01*
X167643Y126781D02*
X172599Y127442D01*
X167015Y131489D02*
X167643Y126781D01*
X184857Y133870D02*
X189813Y134531D01*
X190441Y129823D01*
X185485Y129162D02*
X190441Y129823D01*
X184857Y133870D02*
X185485Y129162D01*
X191065Y166730D02*
X194636Y139967D01*
X160935Y135470D02*
X194636Y139967D01*
X157364Y162233D02*
X160935Y135470D01*
X157364Y162233D02*
X191065Y166730D01*
X117378Y155276D02*
X150841Y161297D01*
X117378Y155276D02*
X122159Y128703D01*
X155622Y134724D01*
X150841Y161297D02*
X155622Y134724D01*
X146129Y128189D02*
X146970Y123515D01*
X151891Y124400D01*
X151050Y129075D02*
X151891Y124400D01*
X146129Y128189D02*
X151050Y129075D01*
X128414Y125002D02*
X129255Y120327D01*
X134176Y121212D01*
X133335Y125887D02*
X134176Y121212D01*
X128414Y125002D02*
X133335Y125887D01*
X126030Y166485D02*
X126871Y161810D01*
X121109Y165600D02*
X126030Y166485D01*
X121109Y165600D02*
X121950Y160925D01*
X126871Y161810D01*
X143745Y169673D02*
X144586Y164998D01*
X138824Y168787D02*
X143745Y169673D01*
X138824Y168787D02*
X139665Y164113D01*
X144586Y164998D01*
X18237Y130641D02*
X50920Y140013D01*
X18237Y130641D02*
X25680Y104687D01*
X58363Y114059D01*
X50920Y140013D02*
X58363Y114059D01*
X49579Y106599D02*
X50888Y102033D01*
X55694Y103411D01*
X54385Y107977D02*
X55694Y103411D01*
X49579Y106599D02*
X54385Y107977D01*
X32276Y101637D02*
X33585Y97071D01*
X38391Y98449D01*
X37082Y103015D02*
X38391Y98449D01*
X32276Y101637D02*
X37082Y103015D01*
X25712Y142667D02*
X27021Y138101D01*
X20906Y141289D02*
X25712Y142667D01*
X20906Y141289D02*
X22215Y136723D01*
X27021Y138101D01*
X43015Y147629D02*
X44324Y143063D01*
X38209Y146251D02*
X43015Y147629D01*
X38209Y146251D02*
X39518Y141685D01*
X44324Y143063D01*
X78712Y151687D02*
X83578Y152837D01*
X77620Y156309D02*
X78712Y151687D01*
X77620Y156309D02*
X82486Y157459D01*
X83578Y152837D01*
X61195Y147546D02*
X66061Y148696D01*
X60102Y152168D02*
X61195Y147546D01*
X60102Y152168D02*
X64968Y153319D01*
X66061Y148696D01*
X69592Y112025D02*
X74458Y113175D01*
X75550Y108552D01*
X70685Y107402D02*
X75550Y108552D01*
X69592Y112025D02*
X70685Y107402D01*
X87109Y116166D02*
X91975Y117316D01*
X93068Y112693D01*
X88202Y111543D02*
X93068Y112693D01*
X87109Y116166D02*
X88202Y111543D01*
X90023Y149480D02*
X96235Y123204D01*
X63147Y115382D02*
X96235Y123204D01*
X56935Y141658D02*
X63147Y115382D01*
X56935Y141658D02*
X90023Y149480D01*
M02*
