G04*
G04 #@! TF.GenerationSoftware,Altium Limited,Altium Designer,24.9.1 (31)*
G04*
G04 Layer_Color=32768*
%FSLAX44Y44*%
%MOMM*%
G71*
G04*
G04 #@! TF.SameCoordinates,7DCFF066-EA26-49B3-B75A-539F59D7DBC6*
G04*
G04*
G04 #@! TF.FilePolarity,Positive*
G04*
G01*
G75*
%ADD11C,0.1500*%
%ADD59C,0.1000*%
%ADD60C,0.0500*%
D11*
X222668Y2769D02*
X392645D01*
X222667Y55880D02*
X392647D01*
X222668Y2769D02*
Y55880D01*
X392645Y2769D02*
Y55880D01*
D59*
X422756Y91280D02*
X435256D01*
X422756Y71280D02*
Y91280D01*
Y71280D02*
X435256D01*
Y91280D01*
X179170D02*
X191670D01*
X179170Y71280D02*
Y91280D01*
Y71280D02*
X191670D01*
Y91280D01*
D60*
X578200Y122350D02*
G03*
X578200Y122350I-2500J0D01*
G01*
X539500Y132430D02*
G03*
X539500Y132430I-2500J0D01*
G01*
X479900Y145000D02*
G03*
X479900Y145000I-2500J0D01*
G01*
X440200Y151100D02*
G03*
X440200Y151100I-2500J0D01*
G01*
X380100Y157300D02*
G03*
X380100Y157300I-2500J0D01*
G01*
X279000Y159400D02*
G03*
X279000Y159400I-2500J0D01*
G01*
X339900D02*
G03*
X339900Y159400I-2500J0D01*
G01*
X238800Y157400D02*
G03*
X238800Y157400I-2500J0D01*
G01*
X178500Y151100D02*
G03*
X178500Y151100I-2500J0D01*
G01*
X139000Y145000D02*
G03*
X139000Y145000I-2500J0D01*
G01*
X40800Y122350D02*
G03*
X40800Y122350I-2500J0D01*
G01*
X79085Y132431D02*
G03*
X79085Y132431I-2500J0D01*
G01*
X549126Y71534D02*
Y91534D01*
X514626D02*
X549126D01*
X514626Y71534D02*
Y91534D01*
Y71534D02*
X549126D01*
X489436Y79916D02*
Y99916D01*
X454936D02*
X489436D01*
X454936Y79916D02*
Y99916D01*
Y79916D02*
X489436D01*
X388780Y113610D02*
X408780D01*
X388780Y79110D02*
Y113610D01*
Y79110D02*
X408780D01*
Y113610D01*
X574735Y118986D02*
X576665Y125714D01*
X572336Y123315D02*
X579064Y121385D01*
X549453Y110631D02*
X559651Y146197D01*
X549453Y110631D02*
X554403Y109211D01*
X550655Y96138D02*
X554403Y109211D01*
X550655Y96138D02*
X583049Y86849D01*
X586798Y99922D01*
X591749Y98503D01*
X601947Y134069D01*
X596996Y135489D02*
X601947Y134069D01*
X596996Y135489D02*
X600745Y148562D01*
X568351Y157851D02*
X600745Y148562D01*
X564602Y144778D02*
X568351Y157851D01*
X559651Y146197D02*
X564602Y144778D01*
X519846Y155495D02*
X524858Y154310D01*
X527986Y167545D01*
X560783Y159793D01*
X557654Y146558D02*
X560783Y159793D01*
X557654Y146558D02*
X562666Y145373D01*
X554154Y109365D02*
X562666Y145373D01*
X549142Y110550D02*
X554154Y109365D01*
X546013Y97315D02*
X549142Y110550D01*
X513217Y105067D02*
X546013Y97315D01*
X513217Y105067D02*
X516346Y118303D01*
X511334Y119487D02*
X516346Y118303D01*
X511334Y119487D02*
X519846Y155495D01*
X533594Y133235D02*
X540406Y131625D01*
X536195Y129024D02*
X537805Y135836D01*
X476786Y141554D02*
X478014Y148446D01*
X473954Y145614D02*
X480846Y144386D01*
X452497Y130645D02*
X458985Y167071D01*
X452497Y130645D02*
X457567Y129742D01*
X455182Y116352D02*
X457567Y129742D01*
X455182Y116352D02*
X488360Y110442D01*
X490745Y123832D01*
X495815Y122929D01*
X502303Y159355D01*
X497233Y160258D02*
X502303Y159355D01*
X497233Y160258D02*
X499618Y173648D01*
X466440Y179557D02*
X499618Y173648D01*
X464055Y166168D02*
X466440Y179557D01*
X458985Y167071D02*
X464055Y166168D01*
X418340Y172347D02*
X423445Y171666D01*
X425243Y185147D01*
X458647Y180690D01*
X456849Y167209D02*
X458647Y180690D01*
X456849Y167209D02*
X461954Y166528D01*
X457060Y129853D02*
X461954Y166528D01*
X451955Y130534D02*
X457060Y129853D01*
X450157Y117053D02*
X451955Y130534D01*
X416753Y121510D02*
X450157Y117053D01*
X416753Y121510D02*
X418551Y134991D01*
X413447Y135672D02*
X418551Y134991D01*
X413447Y135672D02*
X418340Y172347D01*
X434231Y151563D02*
X441169Y150637D01*
X437237Y147631D02*
X438163Y154569D01*
X377338Y153810D02*
X377862Y160790D01*
X374110Y157562D02*
X381090Y157038D01*
X354275Y140502D02*
X357049Y177397D01*
X354275Y140502D02*
X359410Y140115D01*
X358391Y126554D02*
X359410Y140115D01*
X358391Y126554D02*
X391996Y124027D01*
X393016Y137589D01*
X398151Y137203D01*
X400925Y174098D01*
X395790Y174485D02*
X400925Y174098D01*
X395790Y174485D02*
X396809Y188046D01*
X363204Y190573D02*
X396809Y188046D01*
X362184Y177011D02*
X363204Y190573D01*
X357049Y177397D02*
X362184Y177011D01*
X276396Y162899D02*
X276604Y155902D01*
X273002Y159296D02*
X279998Y159504D01*
X253961Y177239D02*
X255058Y140255D01*
X260206Y140408D01*
X260610Y126814D01*
X294295Y127814D01*
X293891Y141408D02*
X294295Y127814D01*
X293891Y141408D02*
X299039Y141561D01*
X297941Y178545D02*
X299039Y141561D01*
X292794Y178392D02*
X297941Y178545D01*
X292390Y191986D02*
X292794Y178392D01*
X258705Y190986D02*
X292390Y191986D01*
X258705Y190986D02*
X259109Y177392D01*
X253961Y177239D02*
X259109Y177392D01*
X315958Y178545D02*
X321106Y178392D01*
X321510Y191986D01*
X355195Y190986D01*
X354791Y177392D02*
X355195Y190986D01*
X354791Y177392D02*
X359939Y177239D01*
X358842Y140255D02*
X359939Y177239D01*
X353694Y140408D02*
X358842Y140255D01*
X353290Y126814D02*
X353694Y140408D01*
X319605Y127814D02*
X353290Y126814D01*
X319605Y127814D02*
X320009Y141408D01*
X314861Y141561D02*
X320009Y141408D01*
X314861Y141561D02*
X315958Y178545D01*
X333902Y159504D02*
X340899Y159296D01*
X337296Y155902D02*
X337504Y162899D01*
X213004Y174239D02*
X218140Y174616D01*
X217144Y188180D02*
X218140Y174616D01*
X217144Y188180D02*
X250754Y190648D01*
X251750Y177084D01*
X256886Y177461D01*
X259596Y140561D01*
X254460Y140184D02*
X259596Y140561D01*
X254460Y140184D02*
X255456Y126620D01*
X221846Y124152D02*
X255456Y126620D01*
X220850Y137716D02*
X221846Y124152D01*
X215714Y137338D02*
X220850Y137716D01*
X213004Y174239D02*
X215714Y137338D01*
X232809Y157144D02*
X239791Y157656D01*
X236044Y160891D02*
X236556Y153909D01*
X258151Y86730D02*
X278151D01*
Y121230D01*
X258151D02*
X278151D01*
X258151Y86730D02*
Y121230D01*
X284277D02*
X304277D01*
X284277Y86730D02*
Y121230D01*
Y86730D02*
X304277D01*
Y121230D01*
X205900Y113610D02*
X225900D01*
X205900Y79110D02*
Y113610D01*
Y79110D02*
X225900D01*
Y113610D01*
X232026D02*
X252026D01*
X232026Y79110D02*
Y113610D01*
Y79110D02*
X252026D01*
Y113610D01*
X362654D02*
X382654D01*
X362654Y79110D02*
Y113610D01*
Y79110D02*
X382654D01*
Y113610D01*
X336529Y121230D02*
X356529D01*
X336529Y86730D02*
Y121230D01*
Y86730D02*
X356529D01*
Y121230D01*
X310403Y86730D02*
X330403D01*
Y121230D01*
X310403D02*
X330403D01*
X310403Y86730D02*
Y121230D01*
X159490Y83980D02*
Y103980D01*
X124990D02*
X159490D01*
X124990Y83980D02*
Y103980D01*
Y83980D02*
X159490D01*
X175537Y154569D02*
X176463Y147631D01*
X172531Y150637D02*
X179469Y151563D01*
X151747Y166528D02*
X156640Y129853D01*
X161745Y130534D01*
X163543Y117053D01*
X196947Y121510D01*
X195149Y134991D02*
X196947Y121510D01*
X195149Y134991D02*
X200254Y135672D01*
X195360Y172347D02*
X200254Y135672D01*
X190255Y171666D02*
X195360Y172347D01*
X188456Y185147D02*
X190255Y171666D01*
X155053Y180690D02*
X188456Y185147D01*
X155053Y180690D02*
X156851Y167209D01*
X151747Y166528D02*
X156851Y167209D01*
X111572Y159312D02*
X116640Y160224D01*
X114232Y173609D02*
X116640Y160224D01*
X114232Y173609D02*
X147399Y179577D01*
X149808Y166192D01*
X154876Y167103D01*
X161428Y130688D01*
X156360Y129776D02*
X161428Y130688D01*
X156360Y129776D02*
X158768Y116391D01*
X125601Y110423D02*
X158768Y116391D01*
X123192Y123808D02*
X125601Y110423D01*
X118124Y122897D02*
X123192Y123808D01*
X111572Y159312D02*
X118124Y122897D01*
X133055Y144380D02*
X139945Y145620D01*
X135880Y148445D02*
X137120Y141555D01*
X12053Y134069D02*
X17003Y135489D01*
X13255Y148562D02*
X17003Y135489D01*
X13255Y148562D02*
X45649Y157851D01*
X49398Y144778D01*
X54349Y146197D01*
X64547Y110631D01*
X59597Y109211D02*
X64547Y110631D01*
X59597Y109211D02*
X63345Y96138D01*
X30951Y86849D02*
X63345Y96138D01*
X27202Y99922D02*
X30951Y86849D01*
X22252Y98503D02*
X27202Y99922D01*
X12053Y134069D02*
X22252Y98503D01*
X34936Y121385D02*
X41664Y123315D01*
X37335Y125714D02*
X39265Y118986D01*
X75780Y135837D02*
X77390Y129025D01*
X73179Y131626D02*
X79991Y133236D01*
X50919Y145373D02*
X59431Y109366D01*
X64443Y110551D01*
X67572Y97315D01*
X100368Y105068D01*
X97239Y118303D02*
X100368Y105068D01*
X97239Y118303D02*
X102251Y119488D01*
X93739Y155496D02*
X102251Y119488D01*
X88727Y154311D02*
X93739Y155496D01*
X85598Y167546D02*
X88727Y154311D01*
X52802Y159794D02*
X85598Y167546D01*
X52802Y159794D02*
X55931Y146558D01*
X50919Y145373D02*
X55931Y146558D01*
X63522Y71534D02*
X98022D01*
X63522D02*
Y91534D01*
X98022D01*
Y71534D02*
Y91534D01*
M02*
