G04*
G04 #@! TF.GenerationSoftware,Altium Limited,Altium Designer,24.9.1 (31)*
G04*
G04 Layer_Color=8388736*
%FSLAX44Y44*%
%MOMM*%
G71*
G04*
G04 #@! TF.SameCoordinates,7DCFF066-EA26-49B3-B75A-539F59D7DBC6*
G04*
G04*
G04 #@! TF.FilePolarity,Negative*
G04*
G01*
G75*
%ADD30R,1.1532X1.6532*%
%ADD31R,1.6532X1.1532*%
%ADD32R,1.5932X1.1632*%
G04:AMPARAMS|DCode=33|XSize=1.2032mm|YSize=0.9732mm|CornerRadius=0.2903mm|HoleSize=0mm|Usage=FLASHONLY|Rotation=74.000|XOffset=0mm|YOffset=0mm|HoleType=Round|Shape=RoundedRectangle|*
%AMROUNDEDRECTD33*
21,1,1.2032,0.3927,0,0,74.0*
21,1,0.6227,0.9732,0,0,74.0*
1,1,0.5805,0.2746,0.2452*
1,1,0.5805,0.1029,-0.3534*
1,1,0.5805,-0.2746,-0.2452*
1,1,0.5805,-0.1029,0.3534*
%
%ADD33ROUNDEDRECTD33*%
G04:AMPARAMS|DCode=34|XSize=1.2032mm|YSize=0.9732mm|CornerRadius=0.2903mm|HoleSize=0mm|Usage=FLASHONLY|Rotation=256.700|XOffset=0mm|YOffset=0mm|HoleType=Round|Shape=RoundedRectangle|*
%AMROUNDEDRECTD34*
21,1,1.2032,0.3927,0,0,256.7*
21,1,0.6227,0.9732,0,0,256.7*
1,1,0.5805,-0.2627,-0.2578*
1,1,0.5805,-0.1195,0.3482*
1,1,0.5805,0.2627,0.2578*
1,1,0.5805,0.1195,-0.3482*
%
%ADD34ROUNDEDRECTD34*%
G04:AMPARAMS|DCode=35|XSize=1.2032mm|YSize=0.9732mm|CornerRadius=0.2903mm|HoleSize=0mm|Usage=FLASHONLY|Rotation=79.900|XOffset=0mm|YOffset=0mm|HoleType=Round|Shape=RoundedRectangle|*
%AMROUNDEDRECTD35*
21,1,1.2032,0.3927,0,0,79.9*
21,1,0.6227,0.9732,0,0,79.9*
1,1,0.5805,0.2479,0.2721*
1,1,0.5805,0.1387,-0.3410*
1,1,0.5805,-0.2479,-0.2721*
1,1,0.5805,-0.1387,0.3410*
%
%ADD35ROUNDEDRECTD35*%
G04:AMPARAMS|DCode=36|XSize=1.2032mm|YSize=0.9732mm|CornerRadius=0.2903mm|HoleSize=0mm|Usage=FLASHONLY|Rotation=262.400|XOffset=0mm|YOffset=0mm|HoleType=Round|Shape=RoundedRectangle|*
%AMROUNDEDRECTD36*
21,1,1.2032,0.3927,0,0,262.4*
21,1,0.6227,0.9732,0,0,262.4*
1,1,0.5805,-0.2358,-0.2827*
1,1,0.5805,-0.1535,0.3346*
1,1,0.5805,0.2358,0.2827*
1,1,0.5805,0.1535,-0.3346*
%
%ADD36ROUNDEDRECTD36*%
G04:AMPARAMS|DCode=37|XSize=1.2032mm|YSize=0.9732mm|CornerRadius=0.2903mm|HoleSize=0mm|Usage=FLASHONLY|Rotation=85.700|XOffset=0mm|YOffset=0mm|HoleType=Round|Shape=RoundedRectangle|*
%AMROUNDEDRECTD37*
21,1,1.2032,0.3927,0,0,85.7*
21,1,0.6227,0.9732,0,0,85.7*
1,1,0.5805,0.2191,0.2958*
1,1,0.5805,0.1725,-0.3252*
1,1,0.5805,-0.2191,-0.2958*
1,1,0.5805,-0.1725,0.3252*
%
%ADD37ROUNDEDRECTD37*%
G04:AMPARAMS|DCode=38|XSize=1.2032mm|YSize=0.9732mm|CornerRadius=0.2903mm|HoleSize=0mm|Usage=FLASHONLY|Rotation=91.700|XOffset=0mm|YOffset=0mm|HoleType=Round|Shape=RoundedRectangle|*
%AMROUNDEDRECTD38*
21,1,1.2032,0.3927,0,0,91.7*
21,1,0.6227,0.9732,0,0,91.7*
1,1,0.5805,0.1870,0.3170*
1,1,0.5805,0.2055,-0.3054*
1,1,0.5805,-0.1870,-0.3170*
1,1,0.5805,-0.2055,0.3054*
%
%ADD38ROUNDEDRECTD38*%
G04:AMPARAMS|DCode=39|XSize=1.2032mm|YSize=0.9732mm|CornerRadius=0.2903mm|HoleSize=0mm|Usage=FLASHONLY|Rotation=268.300|XOffset=0mm|YOffset=0mm|HoleType=Round|Shape=RoundedRectangle|*
%AMROUNDEDRECTD39*
21,1,1.2032,0.3927,0,0,268.3*
21,1,0.6227,0.9732,0,0,268.3*
1,1,0.5805,-0.2055,-0.3054*
1,1,0.5805,-0.1870,0.3170*
1,1,0.5805,0.2055,0.3054*
1,1,0.5805,0.1870,-0.3170*
%
%ADD39ROUNDEDRECTD39*%
G04:AMPARAMS|DCode=40|XSize=1.2032mm|YSize=0.9732mm|CornerRadius=0.2903mm|HoleSize=0mm|Usage=FLASHONLY|Rotation=274.200|XOffset=0mm|YOffset=0mm|HoleType=Round|Shape=RoundedRectangle|*
%AMROUNDEDRECTD40*
21,1,1.2032,0.3927,0,0,274.2*
21,1,0.6227,0.9732,0,0,274.2*
1,1,0.5805,-0.1730,-0.3249*
1,1,0.5805,-0.2186,0.2961*
1,1,0.5805,0.1730,0.3249*
1,1,0.5805,0.2186,-0.2961*
%
%ADD40ROUNDEDRECTD40*%
G04:AMPARAMS|DCode=41|XSize=1.2032mm|YSize=0.9732mm|CornerRadius=0.2903mm|HoleSize=0mm|Usage=FLASHONLY|Rotation=97.600|XOffset=0mm|YOffset=0mm|HoleType=Round|Shape=RoundedRectangle|*
%AMROUNDEDRECTD41*
21,1,1.2032,0.3927,0,0,97.6*
21,1,0.6227,0.9732,0,0,97.6*
1,1,0.5805,0.1535,0.3346*
1,1,0.5805,0.2358,-0.2827*
1,1,0.5805,-0.1535,-0.3346*
1,1,0.5805,-0.2358,0.2827*
%
%ADD41ROUNDEDRECTD41*%
G04:AMPARAMS|DCode=42|XSize=1.2032mm|YSize=0.9732mm|CornerRadius=0.2903mm|HoleSize=0mm|Usage=FLASHONLY|Rotation=280.200|XOffset=0mm|YOffset=0mm|HoleType=Round|Shape=RoundedRectangle|*
%AMROUNDEDRECTD42*
21,1,1.2032,0.3927,0,0,280.2*
21,1,0.6227,0.9732,0,0,280.2*
1,1,0.5805,-0.1381,-0.3412*
1,1,0.5805,-0.2484,0.2717*
1,1,0.5805,0.1381,0.3412*
1,1,0.5805,0.2484,-0.2717*
%
%ADD42ROUNDEDRECTD42*%
G04:AMPARAMS|DCode=43|XSize=1.2032mm|YSize=0.9732mm|CornerRadius=0.2903mm|HoleSize=0mm|Usage=FLASHONLY|Rotation=286.000|XOffset=0mm|YOffset=0mm|HoleType=Round|Shape=RoundedRectangle|*
%AMROUNDEDRECTD43*
21,1,1.2032,0.3927,0,0,286.0*
21,1,0.6227,0.9732,0,0,286.0*
1,1,0.5805,-0.1029,-0.3534*
1,1,0.5805,-0.2746,0.2452*
1,1,0.5805,0.1029,0.3534*
1,1,0.5805,0.2746,-0.2452*
%
%ADD43ROUNDEDRECTD43*%
G04:AMPARAMS|DCode=44|XSize=1.2032mm|YSize=0.9732mm|CornerRadius=0.2903mm|HoleSize=0mm|Usage=FLASHONLY|Rotation=103.300|XOffset=0mm|YOffset=0mm|HoleType=Round|Shape=RoundedRectangle|*
%AMROUNDEDRECTD44*
21,1,1.2032,0.3927,0,0,103.3*
21,1,0.6227,0.9732,0,0,103.3*
1,1,0.5805,0.1195,0.3482*
1,1,0.5805,0.2627,-0.2578*
1,1,0.5805,-0.1195,-0.3482*
1,1,0.5805,-0.2627,0.2578*
%
%ADD44ROUNDEDRECTD44*%
G04:AMPARAMS|DCode=45|XSize=2.8042mm|YSize=3.2029mm|CornerRadius=0.7388mm|HoleSize=0mm|Usage=FLASHONLY|Rotation=0.000|XOffset=0mm|YOffset=0mm|HoleType=Round|Shape=RoundedRectangle|*
%AMROUNDEDRECTD45*
21,1,2.8042,1.7253,0,0,0.0*
21,1,1.3265,3.2029,0,0,0.0*
1,1,1.4777,0.6632,-0.8626*
1,1,1.4777,-0.6632,-0.8626*
1,1,1.4777,-0.6632,0.8626*
1,1,1.4777,0.6632,0.8626*
%
%ADD45ROUNDEDRECTD45*%
G04:AMPARAMS|DCode=46|XSize=0.8532mm|YSize=2.2352mm|CornerRadius=0.2609mm|HoleSize=0mm|Usage=FLASHONLY|Rotation=0.000|XOffset=0mm|YOffset=0mm|HoleType=Round|Shape=RoundedRectangle|*
%AMROUNDEDRECTD46*
21,1,0.8532,1.7135,0,0,0.0*
21,1,0.3315,2.2352,0,0,0.0*
1,1,0.5217,0.1658,-0.8568*
1,1,0.5217,-0.1658,-0.8568*
1,1,0.5217,-0.1658,0.8568*
1,1,0.5217,0.1658,0.8568*
%
%ADD46ROUNDEDRECTD46*%
%ADD47C,0.8032*%
%ADD48C,1.2032*%
D30*
X521876Y81534D02*
D03*
X541876D02*
D03*
X462186Y89916D02*
D03*
X482186D02*
D03*
X132240Y93980D02*
D03*
X152240D02*
D03*
X90772Y81534D02*
D03*
X70772D02*
D03*
D31*
X398780Y86360D02*
D03*
Y106360D02*
D03*
X268151Y113980D02*
D03*
Y93980D02*
D03*
X294277D02*
D03*
Y113980D02*
D03*
X215900Y86360D02*
D03*
Y106360D02*
D03*
X242026Y86360D02*
D03*
Y106360D02*
D03*
X372654Y86360D02*
D03*
Y106360D02*
D03*
X346529Y93980D02*
D03*
Y113980D02*
D03*
X320403D02*
D03*
Y93980D02*
D03*
D32*
X429006Y73380D02*
D03*
Y89180D02*
D03*
X185420Y73380D02*
D03*
Y89180D02*
D03*
D33*
X574353Y150304D02*
D03*
X591656Y145343D02*
D03*
X559744Y99357D02*
D03*
X577047Y94396D02*
D03*
D34*
X539662Y104570D02*
D03*
X522145Y108711D02*
D03*
X551855Y156149D02*
D03*
X534338Y160290D02*
D03*
D35*
X473187Y172668D02*
D03*
X490908Y169511D02*
D03*
X463892Y120489D02*
D03*
X481613Y117332D02*
D03*
D36*
X443116Y123643D02*
D03*
X425274Y126023D02*
D03*
X450126Y176177D02*
D03*
X432284Y178557D02*
D03*
D37*
X370612Y184400D02*
D03*
X388562Y183051D02*
D03*
X366638Y131549D02*
D03*
X384588Y130200D02*
D03*
D38*
X266718Y185621D02*
D03*
X284710Y186155D02*
D03*
X268290Y132645D02*
D03*
X286282Y133179D02*
D03*
D39*
X345610Y132645D02*
D03*
X327618Y133179D02*
D03*
X347182Y185621D02*
D03*
X329190Y186155D02*
D03*
D40*
X247217Y131630D02*
D03*
X229265Y130312D02*
D03*
X243335Y184488D02*
D03*
X225383Y183170D02*
D03*
D41*
X163574Y176177D02*
D03*
X181416Y178557D02*
D03*
X170584Y123643D02*
D03*
X188426Y126023D02*
D03*
D42*
X150050Y120513D02*
D03*
X132335Y117325D02*
D03*
X140665Y172675D02*
D03*
X122949Y169487D02*
D03*
D43*
X54256Y99357D02*
D03*
X36953Y94396D02*
D03*
X39647Y150304D02*
D03*
X22344Y145343D02*
D03*
D44*
X61730Y156150D02*
D03*
X79247Y160291D02*
D03*
X73923Y104571D02*
D03*
X91440Y108712D02*
D03*
D45*
X239153Y43028D02*
D03*
X376161D02*
D03*
D46*
X302657Y64770D02*
D03*
X292657D02*
D03*
X282657D02*
D03*
X272657D02*
D03*
X262657D02*
D03*
X352657D02*
D03*
X342657D02*
D03*
X332657D02*
D03*
X322657D02*
D03*
X312657D02*
D03*
D47*
X424180Y118618D02*
D03*
X520173Y102791D02*
D03*
X520382Y88532D02*
D03*
X165704Y87884D02*
D03*
X158680Y96350D02*
D03*
X121158Y115062D02*
D03*
X94488Y87884D02*
D03*
X316992Y133350D02*
D03*
X320548Y101854D02*
D03*
X184658Y87884D02*
D03*
X570738Y151130D02*
D03*
X469646Y172974D02*
D03*
X366776Y184658D02*
D03*
X262636Y185166D02*
D03*
X159512Y176022D02*
D03*
X57912Y155448D02*
D03*
X546608Y81026D02*
D03*
X185674Y73406D02*
D03*
X420878D02*
D03*
X511048Y112014D02*
D03*
X554990Y101346D02*
D03*
X456946Y96266D02*
D03*
X414782Y127000D02*
D03*
X487934Y85344D02*
D03*
X346710Y98806D02*
D03*
X272542D02*
D03*
X261677Y132645D02*
D03*
X216154Y81534D02*
D03*
X242316D02*
D03*
X356870Y66294D02*
D03*
X398780Y81280D02*
D03*
X372872Y81534D02*
D03*
X294132Y88646D02*
D03*
X458470Y121666D02*
D03*
X360680Y131826D02*
D03*
X218694Y129540D02*
D03*
X164592Y122682D02*
D03*
X26162Y91440D02*
D03*
X68072Y103378D02*
D03*
D48*
X272542Y47244D02*
D03*
X342657Y47509D02*
D03*
X429514Y93980D02*
D03*
X239153Y43028D02*
D03*
X376161D02*
D03*
M02*
