G04*
G04 #@! TF.GenerationSoftware,Altium Limited,Altium Designer,24.9.1 (31)*
G04*
G04 Layer_Color=32896*
%FSLAX44Y44*%
%MOMM*%
G71*
G04*
G04 #@! TF.SameCoordinates,7DCFF066-EA26-49B3-B75A-539F59D7DBC6*
G04*
G04*
G04 #@! TF.FilePolarity,Positive*
G04*
G01*
G75*
G36*
X290757Y46281D02*
X290865D01*
Y46226D01*
X290214D01*
Y46281D01*
X290485D01*
Y46335D01*
X290757D01*
Y46281D01*
D02*
G37*
G36*
X289888Y46118D02*
X289997D01*
Y46064D01*
X289726D01*
Y46118D01*
X289780D01*
Y46172D01*
X289888D01*
Y46118D01*
D02*
G37*
G36*
X291951Y46281D02*
X292005D01*
Y45738D01*
X291951D01*
Y45684D01*
X291897D01*
Y45629D01*
X291843D01*
Y45466D01*
X291788D01*
Y45412D01*
X291734D01*
Y45358D01*
X291680D01*
Y45249D01*
X291625D01*
Y45195D01*
X291571D01*
Y45141D01*
X291517D01*
Y45032D01*
X291463D01*
Y44978D01*
X291408D01*
Y44924D01*
X291354D01*
Y44869D01*
X291300D01*
Y44761D01*
X291245D01*
Y44707D01*
X291191D01*
Y44598D01*
X291137D01*
Y44544D01*
X291028D01*
Y44652D01*
X291083D01*
Y44707D01*
X291137D01*
Y44761D01*
X291191D01*
Y44815D01*
X291245D01*
Y44978D01*
X291354D01*
Y45141D01*
X291408D01*
Y45195D01*
X291463D01*
Y45249D01*
X291517D01*
Y45304D01*
X291571D01*
Y45412D01*
X291625D01*
Y45466D01*
X291680D01*
Y45521D01*
X291734D01*
Y45575D01*
Y45629D01*
Y45684D01*
X291843D01*
Y45738D01*
X291897D01*
Y46064D01*
X291951D01*
Y46118D01*
X291897D01*
Y46172D01*
X291843D01*
Y46226D01*
X291734D01*
Y46281D01*
X291788D01*
Y46335D01*
X291951D01*
Y46281D01*
D02*
G37*
G36*
X291028Y44381D02*
X290974D01*
Y44327D01*
X290920D01*
Y44381D01*
Y44435D01*
Y44489D01*
X291028D01*
Y44381D01*
D02*
G37*
G36*
X290811Y43838D02*
Y43784D01*
Y43729D01*
X290757D01*
Y44164D01*
X290811D01*
Y43838D01*
D02*
G37*
G36*
X290974Y43241D02*
X290920D01*
Y43512D01*
X290974D01*
Y43241D01*
D02*
G37*
G36*
X291137Y43078D02*
X291191D01*
Y42915D01*
X291083D01*
Y43078D01*
X291028D01*
Y43132D01*
X291137D01*
Y43078D01*
D02*
G37*
G36*
X297271Y60231D02*
X297379D01*
Y60177D01*
X297488D01*
Y60123D01*
X297542D01*
Y60069D01*
X297597D01*
Y60014D01*
X297651D01*
Y59960D01*
X297705D01*
Y59851D01*
X297759D01*
Y59797D01*
X297814D01*
Y59689D01*
X297868D01*
Y59200D01*
X297922D01*
Y58983D01*
X297868D01*
Y57789D01*
X297814D01*
Y57409D01*
X297759D01*
Y57192D01*
X297705D01*
Y56757D01*
X297651D01*
Y56486D01*
X297597D01*
Y56323D01*
X297542D01*
Y55997D01*
X297488D01*
Y55726D01*
X297434D01*
Y55617D01*
X297379D01*
Y55346D01*
X297325D01*
Y55129D01*
X297271D01*
Y54966D01*
X297217D01*
Y54749D01*
X297162D01*
Y54478D01*
X297108D01*
Y54369D01*
X297054D01*
Y54152D01*
X296999D01*
Y53880D01*
X296945D01*
Y53717D01*
X296891D01*
Y53500D01*
X296837D01*
Y53175D01*
X296782D01*
Y53012D01*
X296728D01*
Y52849D01*
X296674D01*
Y52469D01*
X296619D01*
Y52306D01*
X296565D01*
Y52035D01*
X296511D01*
Y51600D01*
X296457D01*
Y51438D01*
X296402D01*
Y51166D01*
X296348D01*
Y50569D01*
X296294D01*
Y50352D01*
X296239D01*
Y50135D01*
X296185D01*
Y49321D01*
X296131D01*
Y48723D01*
X296077D01*
Y45846D01*
X296131D01*
Y45304D01*
X296185D01*
Y44327D01*
X296239D01*
Y44001D01*
X296294D01*
Y43729D01*
X296348D01*
Y43241D01*
X296402D01*
Y42969D01*
X296457D01*
Y42861D01*
X296511D01*
Y42535D01*
X296565D01*
Y42318D01*
X296619D01*
Y42210D01*
X296674D01*
Y41992D01*
X296728D01*
Y41884D01*
X296891D01*
Y41992D01*
X296945D01*
Y42101D01*
X296999D01*
Y42481D01*
X297054D01*
Y42861D01*
X297108D01*
Y43024D01*
X297162D01*
Y43187D01*
X297217D01*
Y43458D01*
X297271D01*
Y43621D01*
X297325D01*
Y43729D01*
X297379D01*
Y44001D01*
X297434D01*
Y44109D01*
X297488D01*
Y44218D01*
X297542D01*
Y44435D01*
X297597D01*
Y44544D01*
X297651D01*
Y44652D01*
X297705D01*
Y44815D01*
X297759D01*
Y44978D01*
X297814D01*
Y45032D01*
X297868D01*
Y45195D01*
X297922D01*
Y45304D01*
X297977D01*
Y45358D01*
X298031D01*
Y45521D01*
X298085D01*
Y45629D01*
X298139D01*
Y45684D01*
X298194D01*
Y45846D01*
X298248D01*
Y45955D01*
X298302D01*
Y46009D01*
X298357D01*
Y46118D01*
X298411D01*
Y46226D01*
X298465D01*
Y46281D01*
X298519D01*
Y46389D01*
X298574D01*
Y46444D01*
X298628D01*
Y46498D01*
X298682D01*
Y46606D01*
X298737D01*
Y46715D01*
X298791D01*
Y46769D01*
X298845D01*
Y46878D01*
X298899D01*
Y46932D01*
X298954D01*
Y46986D01*
X299008D01*
Y47095D01*
X299062D01*
Y47149D01*
X299116D01*
Y47203D01*
X299171D01*
Y47312D01*
X299225D01*
Y47366D01*
X299279D01*
Y47475D01*
X299334D01*
Y47529D01*
X299388D01*
Y47583D01*
X299442D01*
Y47692D01*
X299496D01*
Y47746D01*
X299551D01*
Y47801D01*
X299605D01*
Y47855D01*
X299659D01*
Y47964D01*
X299714D01*
Y48018D01*
X299768D01*
Y48126D01*
X299822D01*
Y48181D01*
X299876D01*
Y48235D01*
X299931D01*
Y48289D01*
X299985D01*
Y48398D01*
X300039D01*
Y48452D01*
X300094D01*
Y48506D01*
X300148D01*
Y48561D01*
X300202D01*
Y48615D01*
X300257D01*
Y48723D01*
X300311D01*
Y48778D01*
X300365D01*
Y48832D01*
X300419D01*
Y48886D01*
X300474D01*
Y48995D01*
X300528D01*
Y49049D01*
X300582D01*
Y49103D01*
X300637D01*
Y49158D01*
X300691D01*
Y49212D01*
X300745D01*
Y49266D01*
X300799D01*
Y49321D01*
X300854D01*
Y49429D01*
X300908D01*
Y49483D01*
X300962D01*
Y49538D01*
X301016D01*
Y49592D01*
X301071D01*
Y49646D01*
X301125D01*
Y49700D01*
X301179D01*
Y49755D01*
X301234D01*
Y49809D01*
X301288D01*
Y49863D01*
X301342D01*
Y49918D01*
X301396D01*
Y49972D01*
X301451D01*
Y50026D01*
X301505D01*
Y50080D01*
X301614D01*
Y50135D01*
X301668D01*
Y50189D01*
X301776D01*
Y50243D01*
X301885D01*
Y50298D01*
X302048D01*
Y50352D01*
X302374D01*
Y50406D01*
X302754D01*
Y50461D01*
X303079D01*
Y50515D01*
X303351D01*
Y50569D01*
X303459D01*
Y50623D01*
X303568D01*
Y50678D01*
X303731D01*
Y50732D01*
X303839D01*
Y50786D01*
X304002D01*
Y50841D01*
X304219D01*
Y50895D01*
X304382D01*
Y50949D01*
X304545D01*
Y51003D01*
X304816D01*
Y51058D01*
X304979D01*
Y51112D01*
X305088D01*
Y51166D01*
X305359D01*
Y51220D01*
X305576D01*
Y51275D01*
X305739D01*
Y51329D01*
X306065D01*
Y51383D01*
X306336D01*
Y51438D01*
X306553D01*
Y51492D01*
X307150D01*
Y51546D01*
X308073D01*
Y51600D01*
X308888D01*
Y51655D01*
X309213D01*
Y51709D01*
X309268D01*
Y51763D01*
X309322D01*
Y51818D01*
X309376D01*
Y51872D01*
X309430D01*
Y51980D01*
X309485D01*
Y52035D01*
X309593D01*
Y52089D01*
X309648D01*
Y52143D01*
X310407D01*
Y52089D01*
X310625D01*
Y52035D01*
X310842D01*
Y52143D01*
X310787D01*
Y52198D01*
X310733D01*
Y52306D01*
X310679D01*
Y52360D01*
X310570D01*
Y52415D01*
X310462D01*
Y52469D01*
X310353D01*
Y52523D01*
X310299D01*
Y52578D01*
X310245D01*
Y52632D01*
X310190D01*
Y52686D01*
X310136D01*
Y52740D01*
X310082D01*
Y52958D01*
X310136D01*
Y53012D01*
X310787D01*
Y52958D01*
X310896D01*
Y52903D01*
X311005D01*
Y52849D01*
X311167D01*
Y52795D01*
X311222D01*
Y52740D01*
X311330D01*
Y52686D01*
X311385D01*
Y52632D01*
X311493D01*
Y52578D01*
X311547D01*
Y52523D01*
X311656D01*
Y52469D01*
X311710D01*
Y52415D01*
X311765D01*
Y52360D01*
X311819D01*
Y52306D01*
X311873D01*
Y52252D01*
X311927D01*
Y52198D01*
X311982D01*
Y52143D01*
X312036D01*
Y52089D01*
X312145D01*
Y52035D01*
X312199D01*
Y51980D01*
X312253D01*
Y51926D01*
X312307D01*
Y51872D01*
X312362D01*
Y51818D01*
X312470D01*
Y51763D01*
X312525D01*
Y51709D01*
X312579D01*
Y51655D01*
X312742D01*
Y51709D01*
X312850D01*
Y51818D01*
X312796D01*
Y51872D01*
X312742D01*
Y52306D01*
X312687D01*
Y52360D01*
X312525D01*
Y52306D01*
X312307D01*
Y52360D01*
X312253D01*
Y53012D01*
X312416D01*
Y52958D01*
X312525D01*
Y52849D01*
X312579D01*
Y52740D01*
X312633D01*
Y52686D01*
X312687D01*
Y52578D01*
X312742D01*
Y52469D01*
X312850D01*
Y52360D01*
X312904D01*
Y52252D01*
X312959D01*
Y52198D01*
X313013D01*
Y52089D01*
X313067D01*
Y52035D01*
X313122D01*
Y51926D01*
X313176D01*
Y51818D01*
X313230D01*
Y51763D01*
X313284D01*
Y51655D01*
X313339D01*
Y51600D01*
X313393D01*
Y51492D01*
X313447D01*
Y51438D01*
X313502D01*
Y51383D01*
X313556D01*
Y51275D01*
X313610D01*
Y51220D01*
X313664D01*
Y51166D01*
X313719D01*
Y51058D01*
X313773D01*
Y51003D01*
X313827D01*
Y50949D01*
X313882D01*
Y50895D01*
X313936D01*
Y50841D01*
X313990D01*
Y50786D01*
X314044D01*
Y50732D01*
X314099D01*
Y50623D01*
X314153D01*
Y50569D01*
X314207D01*
Y50515D01*
X314262D01*
Y50461D01*
X314316D01*
Y50352D01*
X314370D01*
Y50298D01*
X314424D01*
Y50243D01*
X314479D01*
Y50135D01*
X314533D01*
Y50080D01*
X314587D01*
Y50026D01*
X314641D01*
Y49972D01*
X314696D01*
Y49918D01*
X314750D01*
Y49863D01*
X314804D01*
Y49809D01*
X314913D01*
Y49755D01*
X315021D01*
Y49700D01*
X315564D01*
Y49646D01*
X315781D01*
Y49592D01*
X315890D01*
Y49538D01*
X315999D01*
Y49483D01*
X316107D01*
Y49429D01*
X316161D01*
Y49375D01*
X316270D01*
Y49321D01*
X316324D01*
Y49266D01*
X316379D01*
Y49212D01*
X316433D01*
Y49158D01*
X316487D01*
Y49103D01*
X316541D01*
Y49049D01*
X316650D01*
Y48995D01*
X316704D01*
Y48886D01*
X316759D01*
Y48832D01*
X316813D01*
Y48723D01*
X316867D01*
Y48669D01*
X316921D01*
Y48615D01*
X316976D01*
Y48506D01*
X317030D01*
Y48452D01*
X317084D01*
Y48344D01*
X317139D01*
Y48235D01*
X317193D01*
Y48126D01*
X317247D01*
Y48018D01*
X317301D01*
Y47964D01*
X317356D01*
Y47909D01*
X317410D01*
Y47801D01*
X317464D01*
Y47692D01*
X317519D01*
Y47583D01*
X317573D01*
Y47529D01*
X317627D01*
Y47421D01*
X317681D01*
Y47312D01*
X317736D01*
Y47203D01*
X317790D01*
Y47149D01*
X317844D01*
Y47041D01*
X317899D01*
Y46932D01*
X317953D01*
Y46824D01*
X318007D01*
Y46769D01*
X318061D01*
Y46661D01*
X318116D01*
Y46552D01*
X318170D01*
Y46498D01*
X318224D01*
Y46389D01*
X318279D01*
Y46335D01*
X318333D01*
Y46226D01*
X318387D01*
Y46118D01*
X318441D01*
Y46064D01*
X318496D01*
Y45955D01*
X318550D01*
Y45846D01*
X318604D01*
Y45738D01*
X318659D01*
Y45684D01*
X318713D01*
Y45521D01*
X318767D01*
Y45466D01*
X318821D01*
Y45358D01*
X318876D01*
Y45195D01*
X318930D01*
Y45141D01*
X318984D01*
Y45032D01*
X319039D01*
Y44815D01*
X319093D01*
Y44707D01*
X319147D01*
Y44598D01*
X319201D01*
Y44489D01*
X319256D01*
Y44327D01*
X319310D01*
Y44218D01*
X319364D01*
Y44055D01*
X319418D01*
Y43838D01*
X319473D01*
Y43729D01*
X319527D01*
Y43566D01*
X319581D01*
Y43349D01*
X319636D01*
Y43241D01*
X319690D01*
Y43024D01*
X319744D01*
Y42752D01*
X319798D01*
Y42644D01*
X319853D01*
Y42481D01*
X319907D01*
Y42047D01*
X319961D01*
Y41830D01*
X320016D01*
Y41504D01*
X320070D01*
Y40798D01*
X320124D01*
Y40364D01*
X320178D01*
Y39984D01*
X320233D01*
Y38790D01*
X320287D01*
Y38572D01*
X320341D01*
Y38627D01*
X320450D01*
Y38681D01*
X320504D01*
Y38735D01*
X320558D01*
Y38844D01*
X320613D01*
Y39061D01*
X320667D01*
Y39224D01*
X320721D01*
Y39332D01*
X320775D01*
Y39550D01*
X320830D01*
Y39658D01*
X320884D01*
Y39821D01*
X320938D01*
Y40038D01*
X320993D01*
Y40147D01*
X321047D01*
Y40255D01*
X321101D01*
Y40527D01*
X321156D01*
Y40581D01*
X321210D01*
Y40690D01*
X321264D01*
Y40961D01*
X321318D01*
Y41069D01*
X321373D01*
Y41178D01*
X321427D01*
Y41449D01*
X321481D01*
Y41558D01*
X321535D01*
Y41667D01*
X321590D01*
Y41938D01*
X321644D01*
Y42047D01*
X321698D01*
Y42155D01*
X321753D01*
Y42427D01*
X321807D01*
Y42589D01*
X321861D01*
Y42698D01*
X321916D01*
Y42915D01*
X321970D01*
Y43132D01*
X322024D01*
Y43241D01*
X322078D01*
Y43458D01*
X322133D01*
Y43729D01*
X322187D01*
Y43838D01*
X322241D01*
Y44109D01*
X322295D01*
Y44327D01*
X322350D01*
Y44435D01*
X322404D01*
Y44761D01*
X322458D01*
Y45032D01*
X322513D01*
Y45195D01*
X322567D01*
Y45521D01*
X322621D01*
Y45901D01*
X322675D01*
Y46118D01*
X322730D01*
Y46389D01*
X322784D01*
Y46824D01*
X322838D01*
Y46986D01*
X322893D01*
Y47312D01*
X322947D01*
Y47855D01*
X323001D01*
Y48344D01*
X323055D01*
Y49321D01*
X323110D01*
Y52903D01*
X323164D01*
Y53772D01*
X323218D01*
Y54206D01*
X323273D01*
Y54749D01*
X323327D01*
Y54857D01*
X323381D01*
Y55020D01*
X323435D01*
Y55292D01*
X323490D01*
Y55400D01*
X323544D01*
Y55509D01*
X323598D01*
Y55726D01*
X323652D01*
Y55834D01*
X323707D01*
Y55943D01*
X323761D01*
Y56106D01*
X323815D01*
Y56160D01*
X323870D01*
Y56269D01*
X323924D01*
Y56432D01*
X323978D01*
Y56486D01*
X324033D01*
Y56540D01*
X324087D01*
Y56649D01*
X324141D01*
Y56703D01*
X324195D01*
Y56757D01*
X324250D01*
Y56812D01*
X324304D01*
Y56920D01*
X324358D01*
Y56975D01*
X324467D01*
Y57029D01*
X324575D01*
Y57083D01*
X324684D01*
Y57137D01*
X324955D01*
Y57083D01*
X325118D01*
Y57029D01*
X325335D01*
Y56975D01*
X325444D01*
Y56920D01*
X325498D01*
Y56866D01*
X325607D01*
Y56812D01*
X325715D01*
Y56757D01*
X325824D01*
Y56703D01*
X325878D01*
Y56649D01*
X325987D01*
Y56595D01*
X326041D01*
Y56540D01*
X326095D01*
Y56486D01*
X326204D01*
Y56432D01*
X326258D01*
Y56377D01*
X326312D01*
Y56323D01*
X326367D01*
Y56269D01*
X326421D01*
Y56214D01*
X326475D01*
Y56160D01*
X326530D01*
Y56106D01*
X326584D01*
Y56052D01*
X326638D01*
Y55997D01*
X326692D01*
Y55943D01*
X326747D01*
Y55889D01*
X326855D01*
Y55834D01*
X326909D01*
Y55780D01*
X326964D01*
Y55672D01*
X327018D01*
Y55617D01*
X327072D01*
Y55563D01*
X327127D01*
Y55509D01*
X327181D01*
Y55455D01*
X327235D01*
Y55400D01*
X327290D01*
Y55346D01*
X327344D01*
Y55292D01*
X327398D01*
Y55237D01*
X327452D01*
Y55183D01*
X327507D01*
Y55129D01*
X327561D01*
Y55020D01*
X327615D01*
Y54966D01*
X327669D01*
Y54912D01*
X327724D01*
Y54803D01*
X327778D01*
Y54749D01*
X327832D01*
Y54695D01*
X327887D01*
Y54586D01*
X327941D01*
Y54532D01*
X327995D01*
Y54478D01*
X328050D01*
Y54423D01*
X328104D01*
Y54315D01*
X328158D01*
Y54260D01*
X328212D01*
Y54152D01*
X328267D01*
Y54043D01*
X328321D01*
Y53989D01*
X328375D01*
Y53935D01*
X328429D01*
Y53772D01*
X328484D01*
Y53717D01*
X328538D01*
Y53663D01*
X328592D01*
Y53500D01*
X328647D01*
Y53392D01*
X328701D01*
Y53229D01*
X328755D01*
Y53012D01*
X328701D01*
Y52958D01*
X328647D01*
Y52903D01*
X328592D01*
Y52849D01*
X328484D01*
Y52795D01*
X328429D01*
Y52740D01*
X328321D01*
Y52686D01*
X328212D01*
Y52632D01*
X328158D01*
Y52578D01*
X328050D01*
Y52523D01*
X327941D01*
Y52469D01*
X327832D01*
Y52415D01*
X327724D01*
Y52360D01*
X327669D01*
Y52306D01*
X327561D01*
Y52252D01*
X327452D01*
Y52198D01*
X327398D01*
Y52143D01*
X327290D01*
Y52089D01*
X327235D01*
Y52035D01*
X327181D01*
Y51980D01*
X327127D01*
Y51926D01*
X327018D01*
Y51872D01*
X326964D01*
Y51818D01*
X326909D01*
Y51763D01*
X326855D01*
Y51709D01*
X326801D01*
Y51655D01*
X326747D01*
Y51600D01*
X326692D01*
Y51492D01*
X326638D01*
Y51438D01*
X326584D01*
Y51383D01*
X326530D01*
Y51329D01*
X326475D01*
Y51166D01*
X326421D01*
Y51058D01*
X326475D01*
Y51003D01*
X327127D01*
Y50949D01*
X327887D01*
Y50895D01*
X327941D01*
Y50841D01*
X329081D01*
Y50786D01*
X329135D01*
Y50732D01*
X329189D01*
Y50678D01*
X329244D01*
Y50461D01*
X329298D01*
Y50352D01*
X329352D01*
Y50243D01*
X329407D01*
Y50026D01*
X329461D01*
Y49863D01*
X329515D01*
Y49700D01*
X329569D01*
Y49321D01*
X329624D01*
Y48886D01*
X329678D01*
Y48778D01*
X329786D01*
Y46715D01*
X329732D01*
Y46661D01*
X329678D01*
Y46552D01*
X329624D01*
Y46118D01*
X329569D01*
Y45575D01*
X329515D01*
Y45412D01*
X329461D01*
Y45195D01*
X329407D01*
Y44815D01*
X329352D01*
Y44707D01*
X329298D01*
Y44544D01*
X329244D01*
Y44218D01*
X329189D01*
Y44109D01*
X329135D01*
Y43946D01*
X329081D01*
Y43675D01*
X329027D01*
Y43566D01*
X328972D01*
Y43458D01*
X328918D01*
Y43241D01*
X328864D01*
Y43132D01*
X328809D01*
Y43024D01*
X328755D01*
Y42861D01*
X328701D01*
Y42698D01*
X328647D01*
Y42644D01*
X328592D01*
Y42481D01*
X328538D01*
Y42372D01*
X328484D01*
Y42264D01*
X328429D01*
Y42101D01*
X328375D01*
Y42047D01*
X328321D01*
Y41992D01*
X328267D01*
Y41884D01*
X328212D01*
Y41721D01*
X328158D01*
Y41667D01*
X328104D01*
Y41558D01*
X328050D01*
Y41449D01*
X327995D01*
Y41395D01*
X327941D01*
Y41287D01*
X327887D01*
Y41178D01*
X327832D01*
Y41124D01*
X327778D01*
Y41015D01*
X327724D01*
Y40961D01*
X327669D01*
Y40907D01*
X327615D01*
Y40798D01*
X327561D01*
Y40744D01*
X327507D01*
Y40635D01*
X327452D01*
Y40581D01*
X327398D01*
Y40527D01*
X327344D01*
Y40418D01*
X327290D01*
Y40364D01*
X327235D01*
Y40310D01*
X327181D01*
Y40201D01*
X327127D01*
Y40147D01*
X327072D01*
Y40092D01*
X327018D01*
Y40038D01*
X326964D01*
Y39984D01*
X326909D01*
Y39875D01*
X326855D01*
Y39821D01*
X326801D01*
Y39767D01*
X326747D01*
Y39712D01*
X326692D01*
Y39658D01*
X326638D01*
Y39604D01*
X326584D01*
Y39550D01*
X326530D01*
Y39495D01*
X326475D01*
Y39441D01*
X326421D01*
Y39387D01*
X326367D01*
Y39332D01*
X326312D01*
Y39278D01*
X326258D01*
Y39224D01*
X326204D01*
Y39170D01*
X326150D01*
Y39115D01*
X326095D01*
Y39061D01*
X326041D01*
Y39007D01*
X325987D01*
Y38953D01*
X325932D01*
Y38898D01*
X325878D01*
Y38844D01*
X325824D01*
Y38790D01*
X325770D01*
Y38735D01*
X325715D01*
Y38681D01*
X325661D01*
Y38627D01*
X325552D01*
Y38572D01*
X325498D01*
Y38518D01*
X325444D01*
Y38464D01*
X325390D01*
Y38410D01*
X325335D01*
Y38355D01*
X325281D01*
Y38301D01*
X325227D01*
Y38247D01*
X325118D01*
Y38193D01*
X325064D01*
Y38138D01*
X324955D01*
Y38084D01*
X324901D01*
Y38030D01*
X324793D01*
Y37975D01*
X324738D01*
Y37921D01*
X324684D01*
Y37867D01*
X324575D01*
Y37812D01*
X324467D01*
Y37758D01*
X324412D01*
Y37704D01*
X324358D01*
Y37650D01*
X324250D01*
Y37595D01*
X324141D01*
Y37541D01*
X324087D01*
Y37487D01*
X323978D01*
Y37432D01*
X323924D01*
Y37378D01*
X323761D01*
Y37324D01*
X323652D01*
Y37270D01*
X323598D01*
Y37215D01*
X323490D01*
Y37161D01*
X323381D01*
Y37107D01*
X323273D01*
Y37053D01*
X323164D01*
Y36998D01*
X323055D01*
Y36944D01*
X322947D01*
Y36890D01*
X322838D01*
Y36835D01*
X322730D01*
Y36781D01*
X322621D01*
Y36727D01*
X322513D01*
Y36673D01*
X322295D01*
Y36618D01*
X322241D01*
Y36564D01*
X322078D01*
Y36510D01*
X321861D01*
Y36456D01*
X321753D01*
Y36401D01*
X321644D01*
Y36347D01*
X321427D01*
Y36293D01*
X321264D01*
Y36238D01*
X321156D01*
Y36184D01*
X320884D01*
Y36130D01*
X320721D01*
Y36075D01*
X320558D01*
Y36021D01*
X320287D01*
Y35967D01*
X320178D01*
Y35913D01*
X320070D01*
Y35858D01*
X319961D01*
Y35804D01*
X319853D01*
Y35750D01*
X319798D01*
Y35696D01*
X319744D01*
Y35641D01*
X319690D01*
Y35587D01*
X319636D01*
Y35533D01*
X319581D01*
Y35424D01*
X319527D01*
Y35315D01*
X319473D01*
Y35207D01*
X319418D01*
Y35098D01*
X319364D01*
Y34990D01*
X319310D01*
Y34881D01*
X319256D01*
Y34773D01*
X319201D01*
Y34718D01*
X319147D01*
Y34610D01*
X319093D01*
Y34555D01*
X319039D01*
Y34501D01*
X318984D01*
Y34393D01*
X318930D01*
Y34338D01*
X318876D01*
Y34230D01*
X318821D01*
Y34176D01*
X318767D01*
Y34121D01*
X318713D01*
Y34067D01*
X318659D01*
Y34013D01*
X318604D01*
Y33958D01*
X318550D01*
Y33904D01*
X318441D01*
Y33850D01*
X318333D01*
Y33796D01*
X318279D01*
Y33741D01*
X318170D01*
Y33687D01*
X317790D01*
Y33633D01*
X317193D01*
Y33687D01*
X316704D01*
Y33741D01*
X316596D01*
Y33796D01*
X316433D01*
Y33850D01*
X316216D01*
Y33904D01*
X316107D01*
Y33958D01*
X315944D01*
Y34013D01*
X315510D01*
Y33958D01*
X315401D01*
Y33904D01*
X315293D01*
Y33850D01*
X315076D01*
Y33796D01*
X314967D01*
Y33741D01*
X314859D01*
Y33687D01*
X314641D01*
Y33633D01*
X314533D01*
Y33578D01*
X314424D01*
Y33524D01*
X314316D01*
Y33470D01*
X314262D01*
Y33416D01*
X314207D01*
Y33144D01*
X314262D01*
Y33090D01*
X314316D01*
Y32981D01*
X314370D01*
Y32873D01*
X314424D01*
Y32764D01*
X314479D01*
Y32656D01*
X314533D01*
Y32547D01*
X314587D01*
Y32384D01*
X314641D01*
Y32221D01*
X314696D01*
Y30159D01*
X314641D01*
Y29996D01*
X314587D01*
Y29833D01*
X314533D01*
Y29724D01*
X314479D01*
Y29616D01*
X314424D01*
Y29562D01*
X314370D01*
Y29399D01*
X314316D01*
Y29290D01*
X314262D01*
Y28964D01*
X314316D01*
Y28802D01*
X314370D01*
Y28639D01*
X314424D01*
Y28530D01*
X314479D01*
Y28421D01*
X314533D01*
Y28367D01*
X314587D01*
Y28204D01*
X314641D01*
Y28096D01*
X314696D01*
Y27987D01*
X314750D01*
Y27879D01*
X314804D01*
Y27824D01*
X314859D01*
Y27716D01*
X314913D01*
Y27607D01*
X314967D01*
Y27499D01*
X315021D01*
Y27390D01*
X315076D01*
Y27282D01*
X315130D01*
Y27227D01*
X315184D01*
Y27119D01*
X315239D01*
Y27010D01*
X315293D01*
Y26902D01*
X315347D01*
Y26847D01*
X315401D01*
Y26739D01*
X315456D01*
Y26630D01*
X315510D01*
Y26522D01*
X315564D01*
Y26413D01*
X315619D01*
Y26359D01*
X315673D01*
Y26250D01*
X315727D01*
Y26142D01*
X315781D01*
Y26087D01*
X315836D01*
Y25979D01*
X315890D01*
Y25870D01*
X315944D01*
Y25762D01*
X315999D01*
Y25707D01*
X316053D01*
Y25545D01*
X316107D01*
Y25490D01*
X316161D01*
Y25382D01*
X316216D01*
Y25219D01*
X316270D01*
Y25164D01*
X316324D01*
Y25056D01*
X316379D01*
Y24947D01*
X316433D01*
Y24839D01*
X316487D01*
Y24785D01*
X316541D01*
Y24622D01*
X316596D01*
Y24513D01*
X316650D01*
Y24459D01*
X316704D01*
Y24405D01*
X316759D01*
Y24350D01*
X316813D01*
Y24296D01*
X316921D01*
Y24242D01*
X317084D01*
Y24188D01*
X317736D01*
Y24133D01*
X318116D01*
Y24079D01*
X318279D01*
Y24025D01*
X318441D01*
Y23970D01*
X318604D01*
Y23916D01*
X318713D01*
Y23862D01*
X318821D01*
Y23807D01*
X318984D01*
Y23753D01*
X319039D01*
Y23699D01*
X319147D01*
Y23645D01*
X319201D01*
Y23590D01*
X319310D01*
Y23536D01*
X319364D01*
Y23482D01*
X319473D01*
Y23428D01*
X319527D01*
Y23373D01*
X319581D01*
Y23319D01*
X319636D01*
Y23265D01*
X319690D01*
Y23210D01*
X319744D01*
Y23156D01*
X319798D01*
Y23102D01*
X319853D01*
Y23047D01*
X319907D01*
Y22939D01*
X319961D01*
Y22885D01*
X320016D01*
Y22830D01*
X320070D01*
Y22776D01*
X320124D01*
Y22722D01*
X320178D01*
Y22668D01*
X320341D01*
Y22613D01*
X320613D01*
Y22559D01*
X320884D01*
Y22505D01*
X321101D01*
Y22450D01*
X321264D01*
Y22396D01*
X321373D01*
Y22342D01*
X321481D01*
Y22287D01*
X321644D01*
Y22233D01*
X321753D01*
Y22179D01*
X321807D01*
Y22125D01*
X322024D01*
Y22070D01*
X322187D01*
Y22016D01*
X322513D01*
Y21962D01*
X322893D01*
Y22016D01*
X323110D01*
Y22070D01*
X323707D01*
Y22016D01*
X323761D01*
Y21962D01*
X324033D01*
Y21908D01*
X324087D01*
Y21853D01*
X323707D01*
Y21799D01*
X323598D01*
Y21636D01*
X323652D01*
Y21582D01*
X323707D01*
Y21473D01*
X323761D01*
Y21419D01*
X323815D01*
Y21365D01*
X323870D01*
Y21310D01*
X323924D01*
Y21256D01*
X323978D01*
Y21202D01*
X324087D01*
Y21148D01*
X324141D01*
Y21093D01*
X324195D01*
Y21039D01*
X324304D01*
Y20985D01*
X324521D01*
Y21039D01*
X324575D01*
Y21093D01*
X324630D01*
Y21310D01*
X324684D01*
Y21256D01*
X324738D01*
Y21148D01*
X324793D01*
Y21093D01*
X324847D01*
Y20985D01*
X324901D01*
Y20713D01*
X324955D01*
Y20496D01*
X325010D01*
Y20388D01*
X325064D01*
Y20279D01*
X325118D01*
Y20171D01*
X325173D01*
Y20116D01*
X325227D01*
Y20062D01*
X325281D01*
Y20008D01*
X325335D01*
Y19953D01*
X325390D01*
Y19845D01*
X325444D01*
Y19791D01*
X325498D01*
Y19736D01*
X325552D01*
Y19682D01*
X325607D01*
Y19628D01*
X325661D01*
Y19573D01*
X325715D01*
Y19519D01*
X325770D01*
Y19411D01*
X325824D01*
Y19302D01*
X325878D01*
Y18759D01*
X325824D01*
Y18705D01*
X325770D01*
Y18596D01*
X325715D01*
Y18488D01*
X325661D01*
Y18433D01*
X325607D01*
Y18379D01*
X325552D01*
Y18325D01*
X325498D01*
Y18216D01*
X325444D01*
Y18162D01*
X325390D01*
Y18108D01*
X325281D01*
Y18053D01*
X325227D01*
Y17999D01*
X325173D01*
Y17945D01*
X325118D01*
Y17891D01*
X325064D01*
Y17836D01*
X324955D01*
Y17782D01*
X324901D01*
Y17728D01*
X324847D01*
Y17673D01*
X324793D01*
Y17565D01*
X324738D01*
Y17456D01*
X324684D01*
Y17348D01*
X324630D01*
Y17239D01*
X324575D01*
Y17131D01*
X324521D01*
Y17022D01*
X324467D01*
Y16913D01*
X324412D01*
Y16805D01*
X324358D01*
Y16696D01*
X324304D01*
Y16588D01*
X324250D01*
Y16479D01*
X324195D01*
Y16371D01*
X324141D01*
Y16316D01*
X324087D01*
Y16208D01*
X324033D01*
Y16154D01*
X323978D01*
Y16045D01*
X323924D01*
Y15936D01*
X323870D01*
Y15882D01*
X323815D01*
Y15828D01*
X323761D01*
Y15719D01*
X323707D01*
Y15665D01*
X323652D01*
Y15611D01*
X323598D01*
Y15556D01*
X323544D01*
Y15502D01*
X323490D01*
Y15448D01*
X323435D01*
Y15394D01*
X323381D01*
Y15339D01*
X323327D01*
Y15285D01*
X323273D01*
Y15231D01*
X323218D01*
Y15176D01*
X323164D01*
Y15122D01*
X323110D01*
Y15068D01*
X323055D01*
Y15014D01*
X323001D01*
Y14959D01*
X322893D01*
Y14905D01*
X322838D01*
Y14851D01*
X322730D01*
Y14797D01*
X322621D01*
Y14742D01*
X322567D01*
Y14688D01*
X322513D01*
Y14634D01*
X322404D01*
Y14579D01*
X322295D01*
Y14525D01*
X322187D01*
Y14471D01*
X322024D01*
Y14417D01*
X321861D01*
Y14362D01*
X321753D01*
Y14308D01*
X320124D01*
Y14362D01*
X319473D01*
Y14308D01*
X319418D01*
Y13548D01*
X319364D01*
Y13494D01*
X319201D01*
Y13548D01*
X319147D01*
Y13494D01*
X318713D01*
Y13602D01*
X319201D01*
Y13657D01*
X319256D01*
Y13711D01*
X319201D01*
Y14037D01*
X319147D01*
Y14254D01*
X319093D01*
Y14579D01*
X319039D01*
Y14634D01*
X318930D01*
Y14688D01*
X318821D01*
Y14742D01*
X318659D01*
Y14797D01*
X318387D01*
Y14851D01*
X318061D01*
Y14905D01*
X317953D01*
Y14959D01*
X317464D01*
Y14905D01*
X317410D01*
Y14851D01*
X317356D01*
Y14742D01*
X317301D01*
Y14634D01*
X317356D01*
Y14471D01*
X317410D01*
Y14417D01*
X317464D01*
Y14362D01*
X317573D01*
Y14308D01*
X317627D01*
Y14254D01*
X317681D01*
Y14199D01*
X317736D01*
Y14145D01*
X317844D01*
Y14091D01*
X317953D01*
Y14037D01*
X318061D01*
Y13982D01*
X318116D01*
Y13928D01*
X318279D01*
Y13874D01*
X318333D01*
Y13819D01*
X318441D01*
Y13765D01*
X318659D01*
Y13602D01*
X318550D01*
Y13657D01*
X318333D01*
Y13711D01*
X318279D01*
Y13765D01*
X318116D01*
Y13819D01*
X317953D01*
Y13765D01*
X317899D01*
Y13385D01*
X317844D01*
Y13222D01*
X317790D01*
Y13168D01*
X317356D01*
Y13222D01*
X317301D01*
Y13276D01*
X317736D01*
Y13331D01*
X317790D01*
Y13439D01*
X317736D01*
Y13548D01*
X317681D01*
Y13657D01*
X317627D01*
Y13765D01*
X317573D01*
Y13874D01*
X317519D01*
Y13928D01*
X317464D01*
Y13982D01*
X317410D01*
Y14091D01*
X317301D01*
Y14145D01*
X317247D01*
Y14199D01*
X317193D01*
Y14254D01*
X317084D01*
Y14308D01*
X316921D01*
Y14362D01*
X316813D01*
Y14417D01*
X316650D01*
Y14471D01*
X316324D01*
Y14525D01*
X315890D01*
Y14471D01*
X315781D01*
Y14417D01*
X315727D01*
Y14145D01*
X315836D01*
Y14091D01*
X315944D01*
Y14037D01*
X316053D01*
Y13982D01*
X316161D01*
Y13928D01*
X316270D01*
Y13874D01*
X316324D01*
Y13819D01*
X316433D01*
Y13765D01*
X316541D01*
Y13711D01*
X316650D01*
Y13657D01*
X316704D01*
Y13602D01*
X316921D01*
Y13548D01*
X316976D01*
Y13494D01*
X317030D01*
Y13439D01*
X317247D01*
Y13385D01*
X317301D01*
Y13331D01*
X317247D01*
Y13276D01*
X317193D01*
Y13331D01*
X316976D01*
Y13385D01*
X316921D01*
Y13439D01*
X316813D01*
Y13494D01*
X316596D01*
Y13548D01*
X316487D01*
Y13602D01*
X315619D01*
Y13657D01*
X314804D01*
Y13711D01*
X314696D01*
Y13765D01*
X314533D01*
Y13819D01*
X314207D01*
Y13874D01*
X314099D01*
Y13928D01*
X313936D01*
Y13982D01*
X313502D01*
Y14037D01*
X313176D01*
Y14091D01*
X312796D01*
Y14037D01*
X312470D01*
Y13982D01*
X312199D01*
Y13928D01*
X312145D01*
Y13874D01*
X312036D01*
Y13819D01*
X311765D01*
Y13765D01*
X311113D01*
Y13711D01*
X310896D01*
Y13657D01*
X310733D01*
Y13602D01*
X310625D01*
Y13548D01*
X310570D01*
Y13494D01*
X310462D01*
Y13439D01*
X310407D01*
Y13385D01*
X310353D01*
Y13331D01*
X310299D01*
Y13276D01*
X310190D01*
Y13222D01*
X310136D01*
Y13168D01*
X310027D01*
Y13114D01*
X309919D01*
Y13059D01*
X309865D01*
Y13005D01*
X309810D01*
Y12951D01*
X309702D01*
Y12896D01*
X309648D01*
Y12842D01*
X309485D01*
Y12896D01*
X309430D01*
Y13005D01*
X309376D01*
Y13548D01*
X309430D01*
Y13765D01*
X309539D01*
Y13928D01*
X309593D01*
Y13982D01*
X309648D01*
Y14037D01*
X309702D01*
Y14091D01*
X309756D01*
Y14145D01*
X309810D01*
Y14199D01*
X309865D01*
Y14254D01*
X309919D01*
Y14308D01*
X309973D01*
Y14362D01*
X310027D01*
Y14471D01*
X310082D01*
Y14525D01*
X310136D01*
Y14634D01*
X310190D01*
Y14797D01*
X310136D01*
Y14851D01*
X310082D01*
Y14905D01*
X310027D01*
Y14959D01*
X309539D01*
Y14905D01*
X309376D01*
Y14851D01*
X309159D01*
Y14797D01*
X308888D01*
Y14742D01*
X308670D01*
Y14688D01*
X308562D01*
Y14634D01*
X308399D01*
Y14417D01*
X308453D01*
Y14362D01*
X308507D01*
Y14308D01*
X308562D01*
Y14254D01*
X308670D01*
Y14091D01*
X308616D01*
Y14145D01*
X308399D01*
Y14199D01*
X308236D01*
Y14254D01*
X308073D01*
Y14308D01*
X307585D01*
Y14254D01*
X307530D01*
Y13982D01*
X307639D01*
Y13928D01*
X307693D01*
Y13874D01*
X307748D01*
Y13819D01*
X307802D01*
Y13765D01*
X307856D01*
Y13711D01*
X307910D01*
Y13657D01*
X307965D01*
Y13602D01*
X308073D01*
Y13548D01*
X308128D01*
Y13494D01*
X308182D01*
Y13439D01*
X308345D01*
Y13385D01*
X308399D01*
Y13331D01*
X308453D01*
Y13276D01*
X308888D01*
Y13385D01*
X308942D01*
Y13548D01*
X308996D01*
Y13168D01*
X308942D01*
Y13059D01*
X308888D01*
Y13005D01*
X308725D01*
Y13059D01*
X308670D01*
Y13114D01*
X308562D01*
Y13168D01*
X308399D01*
Y13276D01*
X308345D01*
Y13331D01*
X308128D01*
Y13385D01*
X308073D01*
Y13439D01*
X307368D01*
Y13602D01*
X307422D01*
Y13657D01*
X307476D01*
Y13711D01*
X307530D01*
Y13765D01*
X307368D01*
Y13819D01*
X307042D01*
Y13874D01*
X306988D01*
Y13928D01*
X306879D01*
Y13982D01*
X306825D01*
Y14037D01*
X306770D01*
Y14091D01*
X306716D01*
Y14145D01*
X306553D01*
Y14199D01*
X306499D01*
Y14254D01*
X306336D01*
Y14199D01*
X306390D01*
Y14145D01*
X306499D01*
Y14037D01*
X306553D01*
Y13982D01*
X306608D01*
Y13928D01*
X306716D01*
Y13819D01*
X306770D01*
Y13765D01*
X306825D01*
Y13711D01*
X306879D01*
Y13602D01*
X306988D01*
Y13548D01*
X307096D01*
Y13494D01*
X307259D01*
Y13439D01*
X307313D01*
Y13331D01*
X306988D01*
Y13385D01*
X306933D01*
Y13439D01*
X306825D01*
Y13494D01*
X306716D01*
Y13548D01*
X306662D01*
Y13602D01*
X306608D01*
Y13657D01*
X306499D01*
Y13711D01*
X306445D01*
Y13765D01*
X306390D01*
Y13819D01*
X306282D01*
Y13874D01*
X306173D01*
Y13928D01*
X305956D01*
Y13874D01*
X305739D01*
Y13819D01*
X305468D01*
Y13765D01*
X305305D01*
Y13711D01*
X305196D01*
Y13657D01*
X305033D01*
Y13602D01*
X304925D01*
Y13548D01*
X304871D01*
Y13494D01*
X304708D01*
Y13439D01*
X304653D01*
Y13385D01*
X304545D01*
Y13331D01*
X304491D01*
Y13276D01*
X304382D01*
Y13222D01*
X304328D01*
Y13168D01*
X304219D01*
Y13114D01*
X304165D01*
Y13059D01*
X304111D01*
Y13005D01*
X304056D01*
Y12951D01*
X303948D01*
Y12896D01*
X303893D01*
Y12842D01*
X303839D01*
Y12788D01*
X303731D01*
Y12734D01*
X303676D01*
Y12679D01*
X303568D01*
Y12625D01*
X303459D01*
Y12571D01*
X303296D01*
Y12517D01*
X303134D01*
Y12462D01*
X303025D01*
Y12408D01*
X302916D01*
Y12354D01*
X302862D01*
Y12299D01*
X302808D01*
Y12245D01*
X302754D01*
Y12191D01*
X302699D01*
Y12137D01*
X302645D01*
Y12028D01*
X302591D01*
Y11974D01*
X302536D01*
Y11919D01*
X302482D01*
Y11811D01*
X302374D01*
Y11757D01*
X302319D01*
Y11648D01*
X302102D01*
Y11865D01*
X302048D01*
Y11974D01*
X301994D01*
Y12028D01*
X301939D01*
Y12137D01*
X301885D01*
Y12679D01*
X301939D01*
Y12788D01*
X301994D01*
Y13005D01*
X301939D01*
Y13059D01*
X301831D01*
Y13114D01*
X301505D01*
Y13059D01*
X301288D01*
Y13005D01*
X301071D01*
Y12951D01*
X300908D01*
Y12896D01*
X300854D01*
Y12842D01*
X300691D01*
Y12788D01*
X300637D01*
Y12734D01*
X300582D01*
Y12679D01*
X300528D01*
Y12625D01*
X300474D01*
Y12571D01*
X300419D01*
Y12517D01*
X300311D01*
Y12462D01*
X300257D01*
Y12408D01*
X300148D01*
Y12354D01*
X300094D01*
Y12299D01*
X299768D01*
Y12354D01*
X299714D01*
Y12462D01*
X299659D01*
Y13005D01*
X299714D01*
Y13439D01*
X299605D01*
Y13494D01*
X299116D01*
Y13548D01*
X299171D01*
Y13602D01*
X299605D01*
Y13657D01*
X299714D01*
Y13711D01*
X299822D01*
Y13765D01*
X299876D01*
Y13928D01*
X299931D01*
Y13982D01*
X299876D01*
Y14199D01*
X299822D01*
Y14254D01*
X299659D01*
Y14199D01*
X299496D01*
Y14145D01*
X299225D01*
Y14091D01*
X299171D01*
Y14037D01*
X299116D01*
Y13982D01*
X298954D01*
Y13928D01*
X298899D01*
Y13874D01*
X298845D01*
Y13819D01*
X298791D01*
Y13765D01*
X298737D01*
Y13711D01*
X298682D01*
Y13439D01*
X299008D01*
Y13385D01*
X298899D01*
Y13331D01*
X298519D01*
Y13385D01*
X298465D01*
Y13602D01*
X298519D01*
Y13711D01*
X298574D01*
Y13819D01*
X298628D01*
Y13874D01*
X298682D01*
Y13928D01*
X298737D01*
Y13982D01*
X298791D01*
Y14037D01*
X298899D01*
Y14091D01*
X298954D01*
Y14145D01*
X299062D01*
Y14199D01*
X299116D01*
Y14254D01*
X299171D01*
Y14308D01*
X299225D01*
Y14362D01*
X299279D01*
Y14417D01*
X299334D01*
Y14471D01*
X299388D01*
Y14634D01*
X299442D01*
Y15014D01*
X299388D01*
Y15068D01*
X299334D01*
Y15122D01*
X298845D01*
Y15068D01*
X298737D01*
Y15014D01*
X298628D01*
Y14959D01*
X298411D01*
Y14905D01*
X298357D01*
Y14851D01*
X298248D01*
Y14797D01*
X298085D01*
Y14742D01*
X298031D01*
Y14688D01*
X297977D01*
Y14634D01*
X297814D01*
Y14579D01*
X297759D01*
Y14525D01*
X297705D01*
Y14471D01*
X297597D01*
Y14417D01*
X297542D01*
Y14362D01*
X297434D01*
Y14308D01*
X297379D01*
Y14254D01*
X297271D01*
Y14199D01*
X297217D01*
Y14145D01*
X297108D01*
Y14091D01*
X297054D01*
Y14037D01*
X296945D01*
Y13982D01*
X296891D01*
Y13928D01*
X296782D01*
Y13874D01*
X296728D01*
Y13819D01*
X296619D01*
Y13765D01*
X296565D01*
Y13711D01*
X296511D01*
Y13657D01*
X296348D01*
Y13602D01*
X296294D01*
Y13548D01*
X296239D01*
Y13494D01*
X296131D01*
Y13439D01*
X296022D01*
Y13385D01*
X295914D01*
Y13331D01*
X295805D01*
Y13276D01*
X295751D01*
Y13222D01*
X295642D01*
Y13168D01*
X295534D01*
Y13114D01*
X295425D01*
Y13059D01*
X295317D01*
Y13005D01*
X295208D01*
Y12951D01*
X295100D01*
Y12896D01*
X294991D01*
Y12842D01*
X294828D01*
Y12788D01*
X294611D01*
Y12734D01*
X294503D01*
Y12679D01*
X294285D01*
Y12625D01*
X293851D01*
Y12571D01*
X293471D01*
Y12517D01*
X293200D01*
Y12571D01*
X292928D01*
Y12625D01*
X292657D01*
Y12679D01*
X292440D01*
Y12734D01*
X292331D01*
Y12788D01*
X292223D01*
Y12842D01*
X292114D01*
Y12896D01*
X292005D01*
Y12951D01*
X291897D01*
Y13005D01*
X291788D01*
Y13059D01*
X291734D01*
Y13114D01*
X291680D01*
Y13168D01*
X291571D01*
Y13222D01*
X291463D01*
Y13276D01*
X291408D01*
Y13331D01*
X291300D01*
Y13385D01*
X291245D01*
Y13439D01*
X291191D01*
Y13494D01*
X291137D01*
Y13548D01*
X291028D01*
Y13602D01*
X290974D01*
Y13657D01*
X290920D01*
Y13711D01*
X290865D01*
Y13819D01*
X290757D01*
Y13874D01*
X290703D01*
Y13982D01*
X290648D01*
Y14037D01*
X290594D01*
Y14145D01*
X290540D01*
Y14254D01*
X290648D01*
Y14091D01*
X290757D01*
Y14037D01*
X290811D01*
Y13982D01*
X290865D01*
Y13928D01*
X290920D01*
Y13874D01*
X290974D01*
Y13819D01*
X291028D01*
Y13765D01*
X291191D01*
Y13711D01*
X291245D01*
Y13657D01*
X291300D01*
Y13711D01*
X291354D01*
Y13765D01*
X291300D01*
Y13819D01*
X291245D01*
Y13928D01*
X291191D01*
Y13982D01*
X291137D01*
Y14091D01*
X291083D01*
Y14145D01*
X291028D01*
Y14199D01*
X290974D01*
Y14254D01*
X290920D01*
Y14362D01*
X290865D01*
Y14417D01*
X290811D01*
Y14471D01*
X290757D01*
Y14525D01*
X290703D01*
Y14634D01*
X290648D01*
Y14688D01*
X290594D01*
Y14742D01*
X290540D01*
Y14797D01*
X290485D01*
Y14905D01*
X290431D01*
Y15014D01*
X290377D01*
Y15122D01*
X290323D01*
Y15176D01*
X290268D01*
Y15231D01*
X290214D01*
Y15394D01*
X290160D01*
Y15502D01*
X290105D01*
Y15611D01*
X290051D01*
Y15828D01*
X289997D01*
Y15936D01*
X289943D01*
Y16045D01*
X289888D01*
Y16262D01*
X289834D01*
Y16316D01*
X289671D01*
Y15936D01*
X289726D01*
Y15828D01*
X289780D01*
Y15774D01*
X289834D01*
Y15556D01*
X289888D01*
Y15448D01*
X289943D01*
Y15394D01*
X289997D01*
Y15176D01*
X290051D01*
Y15068D01*
X290160D01*
Y14851D01*
X290214D01*
Y14797D01*
X290268D01*
Y14742D01*
X290323D01*
Y14579D01*
X290377D01*
Y14471D01*
X290485D01*
Y14362D01*
X290540D01*
Y14308D01*
X290485D01*
Y14254D01*
X290431D01*
Y14308D01*
X290377D01*
Y14362D01*
Y14471D01*
X290268D01*
Y14525D01*
X290214D01*
Y14688D01*
X290160D01*
Y14742D01*
X290105D01*
Y14797D01*
X290051D01*
Y14959D01*
X289997D01*
Y15014D01*
X289943D01*
Y15068D01*
X289888D01*
Y15231D01*
X289834D01*
Y15285D01*
X289780D01*
Y15394D01*
X289726D01*
Y15448D01*
X289671D01*
Y15502D01*
X289617D01*
Y15556D01*
X289563D01*
Y15611D01*
X289508D01*
Y15665D01*
X289454D01*
Y15719D01*
X289346D01*
Y15774D01*
X289237D01*
Y15828D01*
X289128D01*
Y15882D01*
X289074D01*
Y15991D01*
X288966D01*
Y16045D01*
X288911D01*
Y16099D01*
X288857D01*
Y16154D01*
X288803D01*
Y16208D01*
X288748D01*
Y16262D01*
X288694D01*
Y16316D01*
X288640D01*
Y16371D01*
X288586D01*
Y16425D01*
X288531D01*
Y16533D01*
X288477D01*
Y16588D01*
X288423D01*
Y16696D01*
X288368D01*
Y16751D01*
X288314D01*
Y16805D01*
X288260D01*
Y16913D01*
X288206D01*
Y16968D01*
X288151D01*
Y17076D01*
X288097D01*
Y17131D01*
X288043D01*
Y17293D01*
X288097D01*
Y17348D01*
X288151D01*
Y17402D01*
X288206D01*
Y17456D01*
X288260D01*
Y17565D01*
X288314D01*
Y17619D01*
X288368D01*
Y17673D01*
X288423D01*
Y17728D01*
X288477D01*
Y17782D01*
X288531D01*
Y17836D01*
X288586D01*
Y17891D01*
X288694D01*
Y17945D01*
X288748D01*
Y17999D01*
X288803D01*
Y18053D01*
X288857D01*
Y18108D01*
X288966D01*
Y18162D01*
X289020D01*
Y18216D01*
X289074D01*
Y18271D01*
X289128D01*
Y18325D01*
X289183D01*
Y18379D01*
X289237D01*
Y18433D01*
X289291D01*
Y18488D01*
X289346D01*
Y18596D01*
X289400D01*
Y18868D01*
X289346D01*
Y19030D01*
X289291D01*
Y19139D01*
X289237D01*
Y20008D01*
X289291D01*
Y19899D01*
X289346D01*
Y19845D01*
X289400D01*
Y19791D01*
X289454D01*
Y19736D01*
X289508D01*
Y19791D01*
X289780D01*
Y19845D01*
X289834D01*
Y19899D01*
X289943D01*
Y19953D01*
X289997D01*
Y20008D01*
X290051D01*
Y20062D01*
X290105D01*
Y20116D01*
X290160D01*
Y20171D01*
X290214D01*
Y20225D01*
X290268D01*
Y20279D01*
X290323D01*
Y20333D01*
X290377D01*
Y20605D01*
X290323D01*
Y20659D01*
X290214D01*
Y20713D01*
X289943D01*
Y20659D01*
X289726D01*
Y20605D01*
X289671D01*
Y20496D01*
X289508D01*
Y20550D01*
X289563D01*
Y20605D01*
X289617D01*
Y20659D01*
X289671D01*
Y20713D01*
X289726D01*
Y20768D01*
X289780D01*
Y20822D01*
X289888D01*
Y20768D01*
X290160D01*
Y20822D01*
X290214D01*
Y20876D01*
X290431D01*
Y20931D01*
X291191D01*
Y20985D01*
X291788D01*
Y21039D01*
X291843D01*
Y21093D01*
X292005D01*
Y21148D01*
X292168D01*
Y21202D01*
X292223D01*
Y21256D01*
X292277D01*
Y21310D01*
X292331D01*
Y21365D01*
X292440D01*
Y21419D01*
X292494D01*
Y21473D01*
X292548D01*
Y21528D01*
X292603D01*
Y21582D01*
X292657D01*
Y21636D01*
X292711D01*
Y21690D01*
X292765D01*
Y21745D01*
X292820D01*
Y21799D01*
X292874D01*
Y21908D01*
X292928D01*
Y21962D01*
X293037D01*
Y22016D01*
X293091D01*
Y22070D01*
X293145D01*
Y22125D01*
X293200D01*
Y22179D01*
X293254D01*
Y22233D01*
X293308D01*
Y22287D01*
X293363D01*
Y22342D01*
X293417D01*
Y22396D01*
X293471D01*
Y22450D01*
X293525D01*
Y22505D01*
X293580D01*
Y22559D01*
X293634D01*
Y22613D01*
X293743D01*
Y22668D01*
X293851D01*
Y22722D01*
X293905D01*
Y22776D01*
X294068D01*
Y22830D01*
X294231D01*
Y22885D01*
X294340D01*
Y22939D01*
X294665D01*
Y22993D01*
X295154D01*
Y22939D01*
X295262D01*
Y22885D01*
X295100D01*
Y22830D01*
X294720D01*
Y22776D01*
X294503D01*
Y22722D01*
X294394D01*
Y22668D01*
X294231D01*
Y22613D01*
X294177D01*
Y22559D01*
X294123D01*
Y22342D01*
X294394D01*
Y22396D01*
X294503D01*
Y22450D01*
X294611D01*
Y22505D01*
X294828D01*
Y22559D01*
X294937D01*
Y22613D01*
X295805D01*
Y22668D01*
X295914D01*
Y22722D01*
X295968D01*
Y22776D01*
X295914D01*
Y22830D01*
X295860D01*
Y22885D01*
X295697D01*
Y22939D01*
X295588D01*
Y22993D01*
X295534D01*
Y23102D01*
X295697D01*
Y23156D01*
X295751D01*
Y23210D01*
X295805D01*
Y23265D01*
X295860D01*
Y23373D01*
X295914D01*
Y23482D01*
X295968D01*
Y23536D01*
X296022D01*
Y23645D01*
X296077D01*
Y23753D01*
X296131D01*
Y23807D01*
X296185D01*
Y23970D01*
X296239D01*
Y24079D01*
X296294D01*
Y24133D01*
X296348D01*
Y24242D01*
X296402D01*
Y24405D01*
X296457D01*
Y24459D01*
X296511D01*
Y24567D01*
X296565D01*
Y24676D01*
X296619D01*
Y24730D01*
X296674D01*
Y24839D01*
X296728D01*
Y24893D01*
X296782D01*
Y25002D01*
X296837D01*
Y25056D01*
X296891D01*
Y25164D01*
X296945D01*
Y25219D01*
X296999D01*
Y25273D01*
X297054D01*
Y25327D01*
X297108D01*
Y25382D01*
X297162D01*
Y25436D01*
X297217D01*
Y25545D01*
X297271D01*
Y25599D01*
X297325D01*
Y25653D01*
X297434D01*
Y25707D01*
X297488D01*
Y25762D01*
X297542D01*
Y25816D01*
X297597D01*
Y25870D01*
X297651D01*
Y25924D01*
X297705D01*
Y25979D01*
X297759D01*
Y26033D01*
X297814D01*
Y26087D01*
X297868D01*
Y26142D01*
X297922D01*
Y26196D01*
X297977D01*
Y26250D01*
X298085D01*
Y26305D01*
X298139D01*
Y26359D01*
X298194D01*
Y26413D01*
X298248D01*
Y26467D01*
X298302D01*
Y26522D01*
X298357D01*
Y26576D01*
X298411D01*
Y26630D01*
X298465D01*
Y26685D01*
X298519D01*
Y26739D01*
X298628D01*
Y26793D01*
X298682D01*
Y26847D01*
X298737D01*
Y26902D01*
X298791D01*
Y26956D01*
X298845D01*
Y27010D01*
X298899D01*
Y27064D01*
X298954D01*
Y27119D01*
X299008D01*
Y27173D01*
X299062D01*
Y27227D01*
X299116D01*
Y27282D01*
X299171D01*
Y27336D01*
X299225D01*
Y27390D01*
X299279D01*
Y27499D01*
X299334D01*
Y27553D01*
X299388D01*
Y27716D01*
X299442D01*
Y27824D01*
X299496D01*
Y27933D01*
X299551D01*
Y28096D01*
X299605D01*
Y28204D01*
X299659D01*
Y28313D01*
X299714D01*
Y28639D01*
X299768D01*
Y28747D01*
X299822D01*
Y28910D01*
X299876D01*
Y30159D01*
X299822D01*
Y30484D01*
X299768D01*
Y30810D01*
X299714D01*
Y32167D01*
X299768D01*
Y32221D01*
X299822D01*
Y32330D01*
X299876D01*
Y32547D01*
X299931D01*
Y32601D01*
X299985D01*
Y32656D01*
X300039D01*
Y32764D01*
X300094D01*
Y32873D01*
X300148D01*
Y32981D01*
X300202D01*
Y33036D01*
X300257D01*
Y33090D01*
X300311D01*
Y33144D01*
X300365D01*
Y33198D01*
X300419D01*
Y33253D01*
X300474D01*
Y33307D01*
X300528D01*
Y33361D01*
X300582D01*
Y33416D01*
X300637D01*
Y33470D01*
X300691D01*
Y33524D01*
X300799D01*
Y33578D01*
X300854D01*
Y33633D01*
X300962D01*
Y33687D01*
X301016D01*
Y33741D01*
X301071D01*
Y33796D01*
X301125D01*
Y33850D01*
X301179D01*
Y33904D01*
X301288D01*
Y33958D01*
X301342D01*
Y34013D01*
X301396D01*
Y34176D01*
X301342D01*
Y34284D01*
X301288D01*
Y34338D01*
X301179D01*
Y34393D01*
X301125D01*
Y34447D01*
X301016D01*
Y34501D01*
X300908D01*
Y34555D01*
X300745D01*
Y34610D01*
X300691D01*
Y34664D01*
X300528D01*
Y34718D01*
X300365D01*
Y34773D01*
X300257D01*
Y34827D01*
X300039D01*
Y34881D01*
X299876D01*
Y34936D01*
X299822D01*
Y34990D01*
X299659D01*
Y35044D01*
X299442D01*
Y35098D01*
X299334D01*
Y35153D01*
X299171D01*
Y35207D01*
X298954D01*
Y35261D01*
X298845D01*
Y35315D01*
X298737D01*
Y35370D01*
X298519D01*
Y35424D01*
X298411D01*
Y35478D01*
X298302D01*
Y35533D01*
X298085D01*
Y35587D01*
X298031D01*
Y35641D01*
X297868D01*
Y35696D01*
X297759D01*
Y35750D01*
X297705D01*
Y35804D01*
X297597D01*
Y35858D01*
X297488D01*
Y35913D01*
X297434D01*
Y35967D01*
X297325D01*
Y36021D01*
X297271D01*
Y36075D01*
X297217D01*
Y36130D01*
X297162D01*
Y36184D01*
X297108D01*
Y36238D01*
X297054D01*
Y36347D01*
X296999D01*
Y36456D01*
X296945D01*
Y36618D01*
X296891D01*
Y37161D01*
X296837D01*
Y37595D01*
X296782D01*
Y37704D01*
X296728D01*
Y37867D01*
X296674D01*
Y37921D01*
X296619D01*
Y37975D01*
X296565D01*
Y38030D01*
X296402D01*
Y38138D01*
X296294D01*
Y38193D01*
X296131D01*
Y38247D01*
X296077D01*
Y38301D01*
X296022D01*
Y38355D01*
X295914D01*
Y38410D01*
X295805D01*
Y38464D01*
X295751D01*
Y38518D01*
X295642D01*
Y38572D01*
X295588D01*
Y38627D01*
X295534D01*
Y38681D01*
X295371D01*
Y38735D01*
X295317D01*
Y38790D01*
X295262D01*
Y38844D01*
X295100D01*
Y38898D01*
X295045D01*
Y38953D01*
X294991D01*
Y39007D01*
X294882D01*
Y39061D01*
X294828D01*
Y39115D01*
X294774D01*
Y39170D01*
X294665D01*
Y39224D01*
X294611D01*
Y39278D01*
X294503D01*
Y39332D01*
X294448D01*
Y39387D01*
X294394D01*
Y39441D01*
X294340D01*
Y39495D01*
X294285D01*
Y39550D01*
X294177D01*
Y39604D01*
X294123D01*
Y39658D01*
X294068D01*
Y39712D01*
X293960D01*
Y39767D01*
X293905D01*
Y39821D01*
X293851D01*
Y39875D01*
X293797D01*
Y39930D01*
X293743D01*
Y39984D01*
X293634D01*
Y40038D01*
X293580D01*
Y40092D01*
X293525D01*
Y40147D01*
X293471D01*
Y40201D01*
X293417D01*
Y40255D01*
X293363D01*
Y40310D01*
X293308D01*
Y40364D01*
X293254D01*
Y40418D01*
X293200D01*
Y40472D01*
X293145D01*
Y40527D01*
X293091D01*
Y40581D01*
X293037D01*
Y40635D01*
X292983D01*
Y40690D01*
X292928D01*
Y40744D01*
X292874D01*
Y40798D01*
X292820D01*
Y40852D01*
X292765D01*
Y40907D01*
X292711D01*
Y40961D01*
X292657D01*
Y41015D01*
X292603D01*
Y41069D01*
X292548D01*
Y41124D01*
X292494D01*
Y41178D01*
X292440D01*
Y41232D01*
X292385D01*
Y41287D01*
X292331D01*
Y41341D01*
X292277D01*
Y41449D01*
X292223D01*
Y41504D01*
X292168D01*
Y41558D01*
X292114D01*
Y41612D01*
X292060D01*
Y41667D01*
X292005D01*
Y41721D01*
X291951D01*
Y41775D01*
X291897D01*
Y41884D01*
X291843D01*
Y41938D01*
X291788D01*
Y41992D01*
X291734D01*
Y42047D01*
X291680D01*
Y42101D01*
X291625D01*
Y42210D01*
X291571D01*
Y42264D01*
X291517D01*
Y42318D01*
X291463D01*
Y42372D01*
X291408D01*
Y42481D01*
X291354D01*
Y42589D01*
X291300D01*
Y42644D01*
X291245D01*
Y42752D01*
X291191D01*
Y42807D01*
X291245D01*
Y42861D01*
X291300D01*
Y42807D01*
X291354D01*
Y42698D01*
X291408D01*
Y42644D01*
X291517D01*
Y42589D01*
X291571D01*
Y42535D01*
X291625D01*
Y42481D01*
X291680D01*
Y42427D01*
X291734D01*
Y42372D01*
X291788D01*
Y42318D01*
X291897D01*
Y42264D01*
X292005D01*
Y42210D01*
X292114D01*
Y42155D01*
X292223D01*
Y42101D01*
X292331D01*
Y42047D01*
X292440D01*
Y41992D01*
X292657D01*
Y41938D01*
X292765D01*
Y41884D01*
X292874D01*
Y41830D01*
X293145D01*
Y41775D01*
X293308D01*
Y41721D01*
X293417D01*
Y41667D01*
X294068D01*
Y41721D01*
X294123D01*
Y41830D01*
X294068D01*
Y41938D01*
X294014D01*
Y42047D01*
X293960D01*
Y42155D01*
X293905D01*
Y42318D01*
X293851D01*
Y42481D01*
X293797D01*
Y42589D01*
X293743D01*
Y42752D01*
X293688D01*
Y43078D01*
X293634D01*
Y43187D01*
X293580D01*
Y43566D01*
X293525D01*
Y44381D01*
X293471D01*
Y44761D01*
X293525D01*
Y45521D01*
X293580D01*
Y45846D01*
X293634D01*
Y46064D01*
X293688D01*
Y46389D01*
X293743D01*
Y46661D01*
X293797D01*
Y46769D01*
X293851D01*
Y46986D01*
X293905D01*
Y47203D01*
X293960D01*
Y47312D01*
X294014D01*
Y47529D01*
X294068D01*
Y47746D01*
X294123D01*
Y47801D01*
X294177D01*
Y47964D01*
X294231D01*
Y48181D01*
X294285D01*
Y48289D01*
X294340D01*
Y48398D01*
X294394D01*
Y48615D01*
X294448D01*
Y48723D01*
X294503D01*
Y48832D01*
X294557D01*
Y49049D01*
X294611D01*
Y49158D01*
X294665D01*
Y49266D01*
X294720D01*
Y49483D01*
X294774D01*
Y49592D01*
X294828D01*
Y49700D01*
X294882D01*
Y49918D01*
X294937D01*
Y50026D01*
X294991D01*
Y50080D01*
X295045D01*
Y50298D01*
X295100D01*
Y50406D01*
X295154D01*
Y50515D01*
X295208D01*
Y50678D01*
X295262D01*
Y50786D01*
X295317D01*
Y50895D01*
X295371D01*
Y51058D01*
X295425D01*
Y51166D01*
X295480D01*
Y51275D01*
X295534D01*
Y51438D01*
X295588D01*
Y51600D01*
X295642D01*
Y51655D01*
X295697D01*
Y51818D01*
X295751D01*
Y51980D01*
X295805D01*
Y52089D01*
X295860D01*
Y52198D01*
X295914D01*
Y52360D01*
X295968D01*
Y52469D01*
X296022D01*
Y52578D01*
X296077D01*
Y52795D01*
X296131D01*
Y52849D01*
X296185D01*
Y52958D01*
X296239D01*
Y53175D01*
X296294D01*
Y53229D01*
X296348D01*
Y53392D01*
X296402D01*
Y53555D01*
X296457D01*
Y53663D01*
X296511D01*
Y53772D01*
X296565D01*
Y53989D01*
X296619D01*
Y54097D01*
X296674D01*
Y54206D01*
X296728D01*
Y54423D01*
X296782D01*
Y54532D01*
X296837D01*
Y54695D01*
X296891D01*
Y54912D01*
X296945D01*
Y55020D01*
X296999D01*
Y55183D01*
X297054D01*
Y55400D01*
X297108D01*
Y55563D01*
X297162D01*
Y55672D01*
X297217D01*
Y55943D01*
X297271D01*
Y56160D01*
X297325D01*
Y56269D01*
X297379D01*
Y56649D01*
X297434D01*
Y56920D01*
X297488D01*
Y57083D01*
X297542D01*
Y57572D01*
X297597D01*
Y57952D01*
X297651D01*
Y58223D01*
X297705D01*
Y59526D01*
X297651D01*
Y59634D01*
X297597D01*
Y59797D01*
X297542D01*
Y59906D01*
X297488D01*
Y59960D01*
X297379D01*
Y60014D01*
X297325D01*
Y60069D01*
X297108D01*
Y60123D01*
X296728D01*
Y60069D01*
X296348D01*
Y60014D01*
X296131D01*
Y59960D01*
X296077D01*
Y59906D01*
X295860D01*
Y59851D01*
X295751D01*
Y59797D01*
X295697D01*
Y59743D01*
X295534D01*
Y59689D01*
X295371D01*
Y59580D01*
X295262D01*
Y59526D01*
X295100D01*
Y59472D01*
X295045D01*
Y59417D01*
X294937D01*
Y59363D01*
X294828D01*
Y59309D01*
X294720D01*
Y59254D01*
X294611D01*
Y59200D01*
X294503D01*
Y59092D01*
X294394D01*
Y59037D01*
X294231D01*
Y58983D01*
X294177D01*
Y58929D01*
X294123D01*
Y58874D01*
X294014D01*
Y58820D01*
X293960D01*
Y58766D01*
X293851D01*
Y58712D01*
X293743D01*
Y58657D01*
X293688D01*
Y58603D01*
X293634D01*
Y58549D01*
X293525D01*
Y58494D01*
X293471D01*
Y58386D01*
X293308D01*
Y58277D01*
X293254D01*
Y58223D01*
X293145D01*
Y58169D01*
X293091D01*
Y58114D01*
X293037D01*
Y58060D01*
X292983D01*
Y58006D01*
X292874D01*
Y57952D01*
X292820D01*
Y57897D01*
X292765D01*
Y57843D01*
X292711D01*
Y57789D01*
X292657D01*
Y57734D01*
X292603D01*
Y57680D01*
X292548D01*
Y57626D01*
X292494D01*
Y57572D01*
X292440D01*
Y57517D01*
X292385D01*
Y57463D01*
X292331D01*
Y57409D01*
X292277D01*
Y57354D01*
X292223D01*
Y57300D01*
X292168D01*
Y57246D01*
X292114D01*
Y57192D01*
X292060D01*
Y57137D01*
X292005D01*
Y57029D01*
X291951D01*
Y56975D01*
X291897D01*
Y56920D01*
X291843D01*
Y56866D01*
X291788D01*
Y56812D01*
X291734D01*
Y56757D01*
X291680D01*
Y56703D01*
X291625D01*
Y56595D01*
X291571D01*
Y56540D01*
X291517D01*
Y56486D01*
X291463D01*
Y56377D01*
X291408D01*
Y56323D01*
X291354D01*
Y56269D01*
X291300D01*
Y56214D01*
X291245D01*
Y56160D01*
X291191D01*
Y56052D01*
X291137D01*
Y55997D01*
X291083D01*
Y55943D01*
X291028D01*
Y55834D01*
X290974D01*
Y55726D01*
X290920D01*
Y55672D01*
X290865D01*
Y55563D01*
X290811D01*
Y55455D01*
X290757D01*
Y55400D01*
X290703D01*
Y55292D01*
X290648D01*
Y55183D01*
X290594D01*
Y55129D01*
X290540D01*
Y55020D01*
X290485D01*
Y54857D01*
X290431D01*
Y54803D01*
X290377D01*
Y54695D01*
X290323D01*
Y54586D01*
X290268D01*
Y54478D01*
X290214D01*
Y54423D01*
X290160D01*
Y54260D01*
X290105D01*
Y54152D01*
X290051D01*
Y54043D01*
X289997D01*
Y53880D01*
X289943D01*
Y53772D01*
X289888D01*
Y53663D01*
X289834D01*
Y53446D01*
X289780D01*
Y53337D01*
X289726D01*
Y53229D01*
X289671D01*
Y53012D01*
X289617D01*
Y52903D01*
X289563D01*
Y52740D01*
X289508D01*
Y52469D01*
X289454D01*
Y52306D01*
X289400D01*
Y52143D01*
X289346D01*
Y51818D01*
X289291D01*
Y51492D01*
X289237D01*
Y51220D01*
X289183D01*
Y49972D01*
X289128D01*
Y47964D01*
X289183D01*
Y47041D01*
X289237D01*
Y46986D01*
X289291D01*
Y46878D01*
X289346D01*
Y46661D01*
X289400D01*
Y46552D01*
X289454D01*
Y46498D01*
X289508D01*
Y46335D01*
X289563D01*
Y46281D01*
X289671D01*
Y46226D01*
X289454D01*
Y46281D01*
X289400D01*
Y46389D01*
X289346D01*
Y46444D01*
X289291D01*
Y46552D01*
X289237D01*
Y46661D01*
X289183D01*
Y46878D01*
X289128D01*
Y46986D01*
X289074D01*
Y51926D01*
X289128D01*
Y52143D01*
X289183D01*
Y52469D01*
X289237D01*
Y52632D01*
X289291D01*
Y52795D01*
X289346D01*
Y52958D01*
X289400D01*
Y53120D01*
X289454D01*
Y53283D01*
X289508D01*
Y53446D01*
X289563D01*
Y53555D01*
X289617D01*
Y53663D01*
X289671D01*
Y53772D01*
X289726D01*
Y53989D01*
X289780D01*
Y54043D01*
X289834D01*
Y54206D01*
X289888D01*
Y54369D01*
X289943D01*
Y54423D01*
X289997D01*
Y54532D01*
X290051D01*
Y54640D01*
X290105D01*
Y54749D01*
X290160D01*
Y54803D01*
X290214D01*
Y54966D01*
X290268D01*
Y55020D01*
X290323D01*
Y55129D01*
X290377D01*
Y55237D01*
X290431D01*
Y55346D01*
X290485D01*
Y55400D01*
X290540D01*
Y55509D01*
X290594D01*
Y55617D01*
X290648D01*
Y55672D01*
X290703D01*
Y55780D01*
X290757D01*
Y55834D01*
X290811D01*
Y55943D01*
X290865D01*
Y55997D01*
X290920D01*
Y56052D01*
X290974D01*
Y56160D01*
X291028D01*
Y56214D01*
X291083D01*
Y56323D01*
X291137D01*
Y56377D01*
X291191D01*
Y56432D01*
X291245D01*
Y56486D01*
X291300D01*
Y56540D01*
X291354D01*
Y56595D01*
X291408D01*
Y56703D01*
X291463D01*
Y56757D01*
X291517D01*
Y56812D01*
X291571D01*
Y56866D01*
X291625D01*
Y56920D01*
X291680D01*
Y56975D01*
X291734D01*
Y57029D01*
X291788D01*
Y57083D01*
X291843D01*
Y57192D01*
X291897D01*
Y57246D01*
X291951D01*
Y57300D01*
X292005D01*
Y57354D01*
X292060D01*
Y57409D01*
X292114D01*
Y57463D01*
X292168D01*
Y57517D01*
X292223D01*
Y57572D01*
X292277D01*
Y57626D01*
X292331D01*
Y57680D01*
X292385D01*
Y57734D01*
X292440D01*
Y57789D01*
X292494D01*
Y57843D01*
X292548D01*
Y57897D01*
X292603D01*
Y57952D01*
X292711D01*
Y58006D01*
X292765D01*
Y58060D01*
X292820D01*
Y58114D01*
X292874D01*
Y58169D01*
X292983D01*
Y58223D01*
X293037D01*
Y58277D01*
X293091D01*
Y58332D01*
X293145D01*
Y58386D01*
X293200D01*
Y58440D01*
X293254D01*
Y58494D01*
X293363D01*
Y58549D01*
X293417D01*
Y58603D01*
X293471D01*
Y58657D01*
X293580D01*
Y58712D01*
X293634D01*
Y58766D01*
X293688D01*
Y58820D01*
X293743D01*
Y58874D01*
X293851D01*
Y58929D01*
X293905D01*
Y58983D01*
X294014D01*
Y59037D01*
X294068D01*
Y59092D01*
X294177D01*
Y59146D01*
X294231D01*
Y59200D01*
X294285D01*
Y59254D01*
X294394D01*
Y59309D01*
X294503D01*
Y59363D01*
X294557D01*
Y59417D01*
X294665D01*
Y59472D01*
X294774D01*
Y59526D01*
X294882D01*
Y59580D01*
X294937D01*
Y59634D01*
X295045D01*
Y59689D01*
X295208D01*
Y59743D01*
X295262D01*
Y59797D01*
X295371D01*
Y59851D01*
X295534D01*
Y59906D01*
X295588D01*
Y59960D01*
X295697D01*
Y60014D01*
X295860D01*
Y60069D01*
X295968D01*
Y60123D01*
X296077D01*
Y60177D01*
X296294D01*
Y60231D01*
X296511D01*
Y60340D01*
X297271D01*
Y60231D01*
D02*
G37*
G36*
X289508Y20333D02*
X289400D01*
Y20388D01*
Y20442D01*
X289508D01*
Y20333D01*
D02*
G37*
G36*
X318061Y14525D02*
X318116D01*
Y14471D01*
X318170D01*
Y14417D01*
X318224D01*
Y14362D01*
X318279D01*
Y14308D01*
X318333D01*
Y14254D01*
X318387D01*
Y14199D01*
X318441D01*
Y14145D01*
X318659D01*
Y14199D01*
X318713D01*
Y14254D01*
X318659D01*
Y14308D01*
X318550D01*
Y14417D01*
X318713D01*
Y14362D01*
X318767D01*
Y14308D01*
X318821D01*
Y14254D01*
X318876D01*
Y14145D01*
X318930D01*
Y13982D01*
X318876D01*
Y13928D01*
X318713D01*
Y13982D01*
X318441D01*
Y14037D01*
X318387D01*
Y14091D01*
X318333D01*
Y14145D01*
X318224D01*
Y14199D01*
X318170D01*
Y14254D01*
X318116D01*
Y14308D01*
X318061D01*
Y14362D01*
X318007D01*
Y14417D01*
X317953D01*
Y14471D01*
X317899D01*
Y14525D01*
X317844D01*
Y14579D01*
X318061D01*
Y14525D01*
D02*
G37*
G36*
X308833Y13819D02*
X308779D01*
Y13874D01*
Y13928D01*
Y14037D01*
X308833D01*
Y13819D01*
D02*
G37*
%LPC*%
G36*
X310733Y52849D02*
X310407D01*
Y52740D01*
X310462D01*
Y52686D01*
X310516D01*
Y52632D01*
X310625D01*
Y52578D01*
X310679D01*
Y52523D01*
X310733D01*
Y52469D01*
X310842D01*
Y52415D01*
X310896D01*
Y52360D01*
X310950D01*
Y52306D01*
X311059D01*
Y52252D01*
X311113D01*
Y52198D01*
X311167D01*
Y52143D01*
X311276D01*
Y52089D01*
X311330D01*
Y52035D01*
X311385D01*
Y51980D01*
X311493D01*
Y51926D01*
X311547D01*
Y51818D01*
X311602D01*
Y51763D01*
X311656D01*
Y51709D01*
X311710D01*
Y51655D01*
X311873D01*
Y51709D01*
X311927D01*
Y51818D01*
X311873D01*
Y51872D01*
X311819D01*
Y51926D01*
X311765D01*
Y51980D01*
X311710D01*
Y52035D01*
X311656D01*
Y52089D01*
X311602D01*
Y52198D01*
X311547D01*
Y52306D01*
X311493D01*
Y52360D01*
X311385D01*
Y52415D01*
X311330D01*
Y52469D01*
X311276D01*
Y52523D01*
X311167D01*
Y52578D01*
X311059D01*
Y52632D01*
X311005D01*
Y52686D01*
X310896D01*
Y52740D01*
X310787D01*
Y52795D01*
X310733D01*
Y52849D01*
D02*
G37*
G36*
X310625Y51872D02*
X309865D01*
Y51818D01*
X309756D01*
Y51763D01*
X309810D01*
Y51709D01*
X309973D01*
Y51655D01*
X310299D01*
Y51600D01*
X310407D01*
Y51546D01*
X310679D01*
Y51492D01*
X311113D01*
Y51438D01*
X311276D01*
Y51383D01*
X311656D01*
Y51438D01*
X311710D01*
Y51492D01*
X311547D01*
Y51546D01*
X311439D01*
Y51600D01*
X311385D01*
Y51655D01*
X311276D01*
Y51709D01*
X310950D01*
Y51763D01*
X310787D01*
Y51818D01*
X310625D01*
Y51872D01*
D02*
G37*
G36*
X307693Y51329D02*
X307205D01*
Y51275D01*
X307042D01*
Y51220D01*
X306825D01*
Y51166D01*
X306445D01*
Y51112D01*
X306390D01*
Y51058D01*
X307042D01*
Y51112D01*
X307150D01*
Y51166D01*
X307259D01*
Y51220D01*
X307693D01*
Y51329D01*
D02*
G37*
G36*
X325064Y56866D02*
X324630D01*
Y56812D01*
X324521D01*
Y56757D01*
X324467D01*
Y56703D01*
X324412D01*
Y56649D01*
X324358D01*
Y56540D01*
X324304D01*
Y56486D01*
X324250D01*
Y56432D01*
X324195D01*
Y56323D01*
X324141D01*
Y56214D01*
X324087D01*
Y56052D01*
X324033D01*
Y55997D01*
X323978D01*
Y55889D01*
X323924D01*
Y55672D01*
X323870D01*
Y55509D01*
X323815D01*
Y55400D01*
X323761D01*
Y55183D01*
X323707D01*
Y54912D01*
X323652D01*
Y54695D01*
X323598D01*
Y54532D01*
X323544D01*
Y54097D01*
X323490D01*
Y53826D01*
X323435D01*
Y53283D01*
X323381D01*
Y52469D01*
X323327D01*
Y51709D01*
X323273D01*
Y51112D01*
X323327D01*
Y50298D01*
X323381D01*
Y49212D01*
X323435D01*
Y48235D01*
X323490D01*
Y47855D01*
X323544D01*
Y46932D01*
X323598D01*
Y46118D01*
X323652D01*
Y45684D01*
X323707D01*
Y44978D01*
X323761D01*
Y44001D01*
X323815D01*
Y43566D01*
X323870D01*
Y42698D01*
X323924D01*
Y41504D01*
X323978D01*
Y41015D01*
X324033D01*
Y40364D01*
X324087D01*
Y39550D01*
X324141D01*
Y39495D01*
X324412D01*
Y39550D01*
X324521D01*
Y39604D01*
X324575D01*
Y39658D01*
X324738D01*
Y39712D01*
X324793D01*
Y39767D01*
X324901D01*
Y39821D01*
X325010D01*
Y39875D01*
X325118D01*
Y39930D01*
X325173D01*
Y39984D01*
X325281D01*
Y40038D01*
X325390D01*
Y40092D01*
X325444D01*
Y40147D01*
X325552D01*
Y40201D01*
X325607D01*
Y40255D01*
X325715D01*
Y40310D01*
X325824D01*
Y40364D01*
X325932D01*
Y40472D01*
X326041D01*
Y40527D01*
X326150D01*
Y40635D01*
X326312D01*
Y40690D01*
X326367D01*
Y40744D01*
X326421D01*
Y40798D01*
X326475D01*
Y40852D01*
X326530D01*
Y40907D01*
X326638D01*
Y40961D01*
X326692D01*
Y41015D01*
X326747D01*
Y41124D01*
X326801D01*
Y41178D01*
X326855D01*
Y41232D01*
X326909D01*
Y41341D01*
X326964D01*
Y41992D01*
X327072D01*
Y41721D01*
Y41667D01*
Y41395D01*
X327127D01*
Y41341D01*
X327235D01*
Y41395D01*
X327290D01*
Y41449D01*
X327344D01*
Y41504D01*
X327398D01*
Y41721D01*
X327344D01*
Y41884D01*
X327290D01*
Y41992D01*
X327235D01*
Y42047D01*
X327127D01*
Y42264D01*
X327235D01*
Y42155D01*
X327452D01*
Y41884D01*
X327615D01*
Y41938D01*
X327669D01*
Y41992D01*
X327724D01*
Y42047D01*
X327778D01*
Y42101D01*
X327832D01*
Y42155D01*
X327887D01*
Y42210D01*
X327941D01*
Y42264D01*
X327995D01*
Y42318D01*
X328050D01*
Y42427D01*
X328104D01*
Y42535D01*
X328158D01*
Y42589D01*
X328212D01*
Y42644D01*
X328267D01*
Y42807D01*
X328321D01*
Y42861D01*
X328375D01*
Y42915D01*
X328429D01*
Y43024D01*
X328484D01*
Y43132D01*
X328538D01*
Y43241D01*
X328592D01*
Y43349D01*
X328647D01*
Y43404D01*
X328701D01*
Y43512D01*
X328755D01*
Y43675D01*
X328809D01*
Y43784D01*
X328864D01*
Y43892D01*
X328918D01*
Y44109D01*
X328972D01*
Y44327D01*
X329027D01*
Y44489D01*
X329081D01*
Y44761D01*
X329135D01*
Y45086D01*
X329189D01*
Y45195D01*
X329244D01*
Y45521D01*
X329298D01*
Y45955D01*
X329352D01*
Y46118D01*
X329407D01*
Y46769D01*
X329461D01*
Y48452D01*
X329407D01*
Y49049D01*
X329352D01*
Y49321D01*
X329298D01*
Y49700D01*
X329244D01*
Y49918D01*
X329189D01*
Y50026D01*
X329135D01*
Y50189D01*
X329081D01*
Y50352D01*
X329027D01*
Y50406D01*
X328972D01*
Y50461D01*
X328918D01*
Y50569D01*
X328864D01*
Y50623D01*
X328809D01*
Y50678D01*
X328647D01*
Y50732D01*
X327941D01*
Y50786D01*
X326747D01*
Y50841D01*
X325987D01*
Y50786D01*
X325878D01*
Y50732D01*
X325824D01*
Y50786D01*
X325770D01*
Y51275D01*
X325878D01*
Y51166D01*
X325932D01*
Y51058D01*
X325987D01*
Y51003D01*
X326041D01*
Y51058D01*
X326095D01*
Y51112D01*
X326150D01*
Y51166D01*
X326204D01*
Y51220D01*
X326258D01*
Y51383D01*
X326312D01*
Y51655D01*
X326367D01*
Y51709D01*
X326312D01*
Y51818D01*
X326475D01*
Y51872D01*
X326584D01*
Y51926D01*
X326692D01*
Y51980D01*
X326801D01*
Y52035D01*
X326909D01*
Y52089D01*
X326964D01*
Y52143D01*
X327072D01*
Y52198D01*
X327181D01*
Y52252D01*
X327235D01*
Y52306D01*
X327290D01*
Y52360D01*
X327452D01*
Y52469D01*
X327561D01*
Y52523D01*
X327669D01*
Y52578D01*
X327724D01*
Y52632D01*
X327778D01*
Y52686D01*
X327887D01*
Y52740D01*
X327941D01*
Y52795D01*
X327995D01*
Y52849D01*
X328104D01*
Y52903D01*
X328158D01*
Y52958D01*
X328267D01*
Y53012D01*
X328321D01*
Y53066D01*
X328375D01*
Y53120D01*
X328429D01*
Y53337D01*
X328375D01*
Y53392D01*
X328321D01*
Y53500D01*
X328267D01*
Y53663D01*
X328212D01*
Y53717D01*
X328158D01*
Y53826D01*
X328104D01*
Y53935D01*
X328050D01*
Y54043D01*
X327995D01*
Y54097D01*
X327941D01*
Y54152D01*
X327887D01*
Y54260D01*
X327832D01*
Y54315D01*
X327778D01*
Y54369D01*
X327561D01*
Y54315D01*
X327507D01*
Y54097D01*
X327561D01*
Y53989D01*
X327615D01*
Y53935D01*
X327669D01*
Y53880D01*
X327724D01*
Y53826D01*
X327778D01*
Y53717D01*
X327832D01*
Y53663D01*
X327887D01*
Y53609D01*
X327941D01*
Y53500D01*
X328050D01*
Y53337D01*
X327941D01*
Y53392D01*
X327887D01*
Y53446D01*
X327832D01*
Y53500D01*
X327778D01*
Y53555D01*
X327724D01*
Y53609D01*
X327669D01*
Y53663D01*
X327615D01*
Y53717D01*
X327561D01*
Y53772D01*
X327507D01*
Y53826D01*
X327398D01*
Y53880D01*
X327290D01*
Y53826D01*
X327235D01*
Y53772D01*
X327181D01*
Y53717D01*
X327072D01*
Y53663D01*
X326964D01*
Y53826D01*
X327018D01*
Y53880D01*
X327072D01*
Y53935D01*
X327127D01*
Y53989D01*
X327181D01*
Y54097D01*
X327235D01*
Y54152D01*
X327290D01*
Y54478D01*
X327507D01*
Y54695D01*
X327452D01*
Y54803D01*
X327398D01*
Y54857D01*
X327344D01*
Y54912D01*
X327290D01*
Y54966D01*
X327235D01*
Y55020D01*
X327181D01*
Y55129D01*
X327127D01*
Y55183D01*
X327072D01*
Y55237D01*
X327018D01*
Y55292D01*
X326964D01*
Y55400D01*
X326909D01*
Y55455D01*
X326855D01*
Y55509D01*
X326801D01*
Y55563D01*
X326747D01*
Y55617D01*
X326692D01*
Y55672D01*
X326638D01*
Y55726D01*
X326584D01*
Y55780D01*
X326530D01*
Y55834D01*
X326475D01*
Y55889D01*
X326421D01*
Y55943D01*
X326367D01*
Y55997D01*
X326312D01*
Y56052D01*
X326204D01*
Y56106D01*
X326150D01*
Y56160D01*
X326095D01*
Y56214D01*
X326041D01*
Y56269D01*
X325987D01*
Y56323D01*
X325878D01*
Y56377D01*
X325824D01*
Y56432D01*
X325770D01*
Y56486D01*
X325715D01*
Y56540D01*
X325607D01*
Y56595D01*
X325498D01*
Y56649D01*
X325390D01*
Y56703D01*
X325281D01*
Y56757D01*
X325173D01*
Y56812D01*
X325064D01*
Y56866D01*
D02*
G37*
G36*
X313013Y51655D02*
X312904D01*
Y51546D01*
X312959D01*
Y51492D01*
X313013D01*
Y51438D01*
X313067D01*
Y51383D01*
X313122D01*
Y51329D01*
X313176D01*
Y51220D01*
X313230D01*
Y51112D01*
X313284D01*
Y51058D01*
X313393D01*
Y51003D01*
X313447D01*
Y50895D01*
X313502D01*
Y51112D01*
X313447D01*
Y51166D01*
X313393D01*
Y51275D01*
X313339D01*
Y51329D01*
X313284D01*
Y51383D01*
X313230D01*
Y51492D01*
X313122D01*
Y51546D01*
X313067D01*
Y51600D01*
X313013D01*
Y51655D01*
D02*
G37*
G36*
X315619Y49375D02*
X315076D01*
Y49321D01*
X315021D01*
Y49266D01*
X315076D01*
Y49212D01*
X315239D01*
Y49158D01*
X315510D01*
Y49103D01*
X315673D01*
Y49049D01*
X316053D01*
Y49158D01*
X315890D01*
Y49212D01*
X315781D01*
Y49266D01*
X315727D01*
Y49321D01*
X315619D01*
Y49375D01*
D02*
G37*
G36*
X309430Y49863D02*
X308942D01*
Y49809D01*
X308888D01*
Y49592D01*
X308942D01*
Y49538D01*
X309105D01*
Y49592D01*
X309376D01*
Y49538D01*
X309485D01*
Y49483D01*
X309593D01*
Y49429D01*
X309648D01*
Y49375D01*
X309756D01*
Y49321D01*
X309865D01*
Y49266D01*
X309973D01*
Y49212D01*
X310082D01*
Y49158D01*
X310299D01*
Y49103D01*
X310407D01*
Y49049D01*
X310516D01*
Y49212D01*
X310462D01*
Y49321D01*
X310407D01*
Y49375D01*
X310299D01*
Y49429D01*
X310190D01*
Y49483D01*
X310136D01*
Y49538D01*
X310027D01*
Y49592D01*
X309919D01*
Y49646D01*
X309810D01*
Y49700D01*
X309593D01*
Y49755D01*
X309539D01*
Y49809D01*
X309430D01*
Y49863D01*
D02*
G37*
G36*
X302482Y50135D02*
X302428D01*
Y50080D01*
X302156D01*
Y50026D01*
X301994D01*
Y49972D01*
X301939D01*
Y49863D01*
X302156D01*
Y49809D01*
X302482D01*
Y49755D01*
X302591D01*
Y49700D01*
X302699D01*
Y49646D01*
X302808D01*
Y49592D01*
X302862D01*
Y49538D01*
X302916D01*
Y49483D01*
X302971D01*
Y49429D01*
X303025D01*
Y49375D01*
X303079D01*
Y49321D01*
X303134D01*
Y49266D01*
X303188D01*
Y49212D01*
X303242D01*
Y49158D01*
X303296D01*
Y49103D01*
X303405D01*
Y49049D01*
X303459D01*
Y48995D01*
X303514D01*
Y49375D01*
X303568D01*
Y49646D01*
X303514D01*
Y49700D01*
X303405D01*
Y49755D01*
X303351D01*
Y49809D01*
X303242D01*
Y49863D01*
X303134D01*
Y49918D01*
X303025D01*
Y49972D01*
X302971D01*
Y50026D01*
X302754D01*
Y50080D01*
X302482D01*
Y50135D01*
D02*
G37*
G36*
X309810Y48995D02*
X309593D01*
Y48886D01*
X309756D01*
Y48778D01*
X309810D01*
Y48723D01*
X309919D01*
Y48669D01*
X310082D01*
Y48615D01*
X310190D01*
Y48561D01*
X310245D01*
Y48506D01*
X310516D01*
Y48561D01*
X310570D01*
Y48615D01*
X310516D01*
Y48669D01*
X310353D01*
Y48723D01*
X310245D01*
Y48778D01*
X310190D01*
Y48832D01*
X310082D01*
Y48886D01*
X309865D01*
Y48941D01*
X309810D01*
Y48995D01*
D02*
G37*
G36*
X309268Y49103D02*
X308616D01*
Y49049D01*
X308779D01*
Y48995D01*
X308833D01*
Y48941D01*
X308888D01*
Y48886D01*
X309050D01*
Y48832D01*
X309159D01*
Y48778D01*
X309213D01*
Y48669D01*
X309268D01*
Y48615D01*
X309322D01*
Y48561D01*
X309376D01*
Y48506D01*
X309485D01*
Y48452D01*
X309593D01*
Y48398D01*
X309756D01*
Y48561D01*
X309702D01*
Y48669D01*
X309485D01*
Y48723D01*
X309376D01*
Y48778D01*
Y48832D01*
Y48995D01*
X309322D01*
Y49049D01*
X309268D01*
Y49103D01*
D02*
G37*
G36*
X296294Y52252D02*
X296239D01*
Y52143D01*
X296131D01*
Y52089D01*
X296077D01*
Y51980D01*
X296022D01*
Y51763D01*
X295968D01*
Y51655D01*
X295914D01*
Y51546D01*
X295860D01*
Y51383D01*
X295805D01*
Y51275D01*
X295751D01*
Y51166D01*
X295697D01*
Y51003D01*
X295642D01*
Y50895D01*
X295588D01*
Y50841D01*
X295534D01*
Y50678D01*
X295480D01*
Y50515D01*
X295425D01*
Y50461D01*
X295371D01*
Y50243D01*
X295317D01*
Y50135D01*
X295262D01*
Y50026D01*
X295208D01*
Y49918D01*
X295154D01*
Y49700D01*
X295100D01*
Y49592D01*
X295045D01*
Y49483D01*
X294991D01*
Y49321D01*
X294937D01*
Y49212D01*
X294882D01*
Y49049D01*
X294828D01*
Y48832D01*
X294774D01*
Y48778D01*
X294720D01*
Y48615D01*
X294665D01*
Y48398D01*
X294611D01*
Y48289D01*
X294557D01*
Y48126D01*
X294503D01*
Y47909D01*
X294448D01*
Y47801D01*
X294394D01*
Y47529D01*
X294503D01*
Y47638D01*
X294557D01*
Y47855D01*
X294665D01*
Y47964D01*
X294720D01*
Y48126D01*
X294774D01*
Y48181D01*
X294828D01*
Y48235D01*
X294882D01*
Y48289D01*
X294937D01*
Y48344D01*
X294991D01*
Y48398D01*
X295045D01*
Y48941D01*
X295100D01*
Y49049D01*
X295154D01*
Y49158D01*
X295208D01*
Y49375D01*
X295262D01*
Y49538D01*
X295317D01*
Y49646D01*
X295371D01*
Y49863D01*
X295425D01*
Y49918D01*
X295480D01*
Y50026D01*
X295534D01*
Y50189D01*
X295588D01*
Y50298D01*
X295642D01*
Y50243D01*
X295697D01*
Y49538D01*
X295642D01*
Y48941D01*
X295588D01*
Y47855D01*
X295642D01*
Y47746D01*
X295697D01*
Y47638D01*
X295751D01*
Y47583D01*
X295805D01*
Y48181D01*
X295860D01*
Y49809D01*
X295914D01*
Y50298D01*
X295968D01*
Y50515D01*
X296022D01*
Y50895D01*
X296077D01*
Y51275D01*
X296131D01*
Y51329D01*
Y51383D01*
Y51438D01*
X296185D01*
Y51763D01*
X296239D01*
Y52089D01*
X296294D01*
Y52252D01*
D02*
G37*
G36*
X302428Y49375D02*
X301668D01*
Y49321D01*
X301559D01*
Y49266D01*
X301505D01*
Y49212D01*
X301342D01*
Y49158D01*
X301234D01*
Y49103D01*
X301179D01*
Y49049D01*
X301071D01*
Y48995D01*
X300962D01*
Y48941D01*
X300908D01*
Y48886D01*
X300854D01*
Y48832D01*
X300799D01*
Y48778D01*
X300691D01*
Y48723D01*
X300637D01*
Y48669D01*
X300582D01*
Y48615D01*
X300528D01*
Y48561D01*
X300474D01*
Y48506D01*
X300419D01*
Y48452D01*
X300365D01*
Y48398D01*
X300311D01*
Y48344D01*
X300257D01*
Y48289D01*
X300202D01*
Y48181D01*
X300148D01*
Y48126D01*
X300094D01*
Y48072D01*
X300039D01*
Y47909D01*
X299985D01*
Y47855D01*
X299876D01*
Y47746D01*
X299822D01*
Y47692D01*
X299768D01*
Y47583D01*
X299714D01*
Y47529D01*
X299659D01*
Y47421D01*
X299605D01*
Y47366D01*
X299551D01*
Y47312D01*
X299496D01*
Y47203D01*
X299442D01*
Y47149D01*
X299388D01*
Y47041D01*
X299334D01*
Y46932D01*
X299279D01*
Y46878D01*
X299225D01*
Y46824D01*
X299171D01*
Y46661D01*
X299116D01*
Y46498D01*
X299062D01*
Y46335D01*
X299116D01*
Y46226D01*
X299062D01*
Y46281D01*
X298899D01*
Y46226D01*
X298845D01*
Y46172D01*
X298737D01*
Y46064D01*
X298682D01*
Y45901D01*
X298628D01*
Y45629D01*
X298574D01*
Y45575D01*
X298519D01*
Y45521D01*
X298411D01*
Y45412D01*
X298357D01*
Y44815D01*
X298302D01*
Y44707D01*
X298248D01*
Y44869D01*
X298194D01*
Y44978D01*
X298085D01*
Y44924D01*
X298031D01*
Y44761D01*
X297977D01*
Y44707D01*
X297922D01*
Y44598D01*
X297868D01*
Y44435D01*
X297814D01*
Y44327D01*
X297759D01*
Y44218D01*
X297705D01*
Y43946D01*
X297651D01*
Y43838D01*
X297597D01*
Y43784D01*
X297542D01*
Y43458D01*
X297488D01*
Y43295D01*
X297434D01*
Y43187D01*
X297379D01*
Y42861D01*
X297325D01*
Y42644D01*
X297271D01*
Y42589D01*
X297217D01*
Y42155D01*
X297162D01*
Y41884D01*
X297108D01*
Y41775D01*
X297054D01*
Y40907D01*
X297162D01*
Y41124D01*
X297217D01*
Y41721D01*
X297271D01*
Y41775D01*
X297325D01*
Y41938D01*
X297379D01*
Y42318D01*
X297434D01*
Y42535D01*
X297488D01*
Y42644D01*
X297542D01*
Y43078D01*
X297597D01*
Y43187D01*
X297651D01*
Y43295D01*
X297705D01*
Y43566D01*
X297759D01*
Y43675D01*
X297814D01*
Y43784D01*
X297868D01*
Y44001D01*
X297922D01*
Y44164D01*
X298031D01*
Y44381D01*
X298085D01*
Y44544D01*
X298194D01*
Y44218D01*
X298139D01*
Y44109D01*
X298085D01*
Y43132D01*
X298139D01*
Y42698D01*
X298194D01*
Y41884D01*
X298248D01*
Y41721D01*
X298302D01*
Y41558D01*
X298357D01*
Y41287D01*
X298411D01*
Y41178D01*
X298465D01*
Y41124D01*
X298519D01*
Y40961D01*
X298574D01*
Y40907D01*
X298628D01*
Y40852D01*
X298682D01*
Y40798D01*
X298737D01*
Y40690D01*
X298791D01*
Y40635D01*
X298845D01*
Y40581D01*
X298899D01*
Y40527D01*
X298954D01*
Y40472D01*
X299008D01*
Y40418D01*
X299062D01*
Y40364D01*
X299116D01*
Y40310D01*
X299171D01*
Y40255D01*
X299279D01*
Y40201D01*
X299334D01*
Y40147D01*
X299442D01*
Y40092D01*
X299551D01*
Y40038D01*
X299659D01*
Y39984D01*
X299768D01*
Y39930D01*
X299876D01*
Y39875D01*
X299985D01*
Y39821D01*
X300257D01*
Y39767D01*
X300637D01*
Y39821D01*
X300854D01*
Y39875D01*
X300908D01*
Y39930D01*
X300962D01*
Y39984D01*
X301016D01*
Y40038D01*
X301071D01*
Y40092D01*
X301125D01*
Y40147D01*
X301614D01*
Y40201D01*
X301722D01*
Y40255D01*
X301831D01*
Y40310D01*
X301939D01*
Y40364D01*
X302048D01*
Y40418D01*
X302102D01*
Y40472D01*
X302211D01*
Y40527D01*
X302265D01*
Y40581D01*
X302319D01*
Y40635D01*
X302428D01*
Y40690D01*
X302482D01*
Y40744D01*
X302591D01*
Y40852D01*
X302754D01*
Y40907D01*
X302808D01*
Y40961D01*
X302862D01*
Y41015D01*
X302916D01*
Y41069D01*
X302971D01*
Y41124D01*
X303025D01*
Y41178D01*
X303134D01*
Y41232D01*
X303188D01*
Y41449D01*
X303242D01*
Y41504D01*
X303568D01*
Y41558D01*
X303622D01*
Y41612D01*
X303676D01*
Y41667D01*
X303731D01*
Y41721D01*
X303785D01*
Y41775D01*
X303839D01*
Y41884D01*
X303893D01*
Y41938D01*
X304002D01*
Y41992D01*
X304056D01*
Y42047D01*
X304111D01*
Y42155D01*
X304165D01*
Y42210D01*
X304219D01*
Y42372D01*
X304273D01*
Y42644D01*
X304328D01*
Y42915D01*
X304382D01*
Y43838D01*
X304328D01*
Y44109D01*
X304273D01*
Y44544D01*
X304219D01*
Y45195D01*
X304165D01*
Y45412D01*
X304111D01*
Y45738D01*
X304056D01*
Y46335D01*
X304002D01*
Y46498D01*
X303948D01*
Y46715D01*
X303893D01*
Y47041D01*
X303839D01*
Y47149D01*
X303785D01*
Y47203D01*
X303731D01*
Y47312D01*
X303676D01*
Y47421D01*
X303622D01*
Y47529D01*
X303568D01*
Y48181D01*
X303514D01*
Y48289D01*
X303459D01*
Y48398D01*
X303405D01*
Y48506D01*
X303351D01*
Y48561D01*
X303296D01*
Y48615D01*
X303242D01*
Y48669D01*
X303188D01*
Y48723D01*
X303134D01*
Y48778D01*
X303079D01*
Y48832D01*
X303025D01*
Y48886D01*
X302971D01*
Y48941D01*
X302916D01*
Y48995D01*
X302862D01*
Y49049D01*
X302808D01*
Y49103D01*
X302754D01*
Y49158D01*
X302699D01*
Y49212D01*
X302591D01*
Y49266D01*
X302536D01*
Y49321D01*
X302428D01*
Y49375D01*
D02*
G37*
G36*
X315890Y48506D02*
X315130D01*
Y48452D01*
X315076D01*
Y48398D01*
X314967D01*
Y48344D01*
X314913D01*
Y48289D01*
X314859D01*
Y48235D01*
X314750D01*
Y48181D01*
X314696D01*
Y48126D01*
X314641D01*
Y48072D01*
X314587D01*
Y48018D01*
X314533D01*
Y47964D01*
X314479D01*
Y47909D01*
X314424D01*
Y47855D01*
X314370D01*
Y47801D01*
X314316D01*
Y47746D01*
X314262D01*
Y47692D01*
X314207D01*
Y47583D01*
X314153D01*
Y47529D01*
X314099D01*
Y47475D01*
X314044D01*
Y47258D01*
X313990D01*
Y46986D01*
X314044D01*
Y46932D01*
X313990D01*
Y46878D01*
X313936D01*
Y46824D01*
X313827D01*
Y46769D01*
X313773D01*
Y46715D01*
X313719D01*
Y46606D01*
X313664D01*
Y46498D01*
X313610D01*
Y46389D01*
X313556D01*
Y46172D01*
X313502D01*
Y46064D01*
X313447D01*
Y45955D01*
X313393D01*
Y45575D01*
X313339D01*
Y45521D01*
X313284D01*
Y45575D01*
X313230D01*
Y45629D01*
X313176D01*
Y45684D01*
X313122D01*
Y45792D01*
X313067D01*
Y45846D01*
X313013D01*
Y45901D01*
X312959D01*
Y45955D01*
X312904D01*
Y46064D01*
X312850D01*
Y46118D01*
X312796D01*
Y46172D01*
X312742D01*
Y46281D01*
X312687D01*
Y46335D01*
X312633D01*
Y46389D01*
X312579D01*
Y46498D01*
X312525D01*
Y46552D01*
X312470D01*
Y46606D01*
X312416D01*
Y46661D01*
X312362D01*
Y46824D01*
X312253D01*
Y46932D01*
X312199D01*
Y46986D01*
X312145D01*
Y47041D01*
X312090D01*
Y47095D01*
X312036D01*
Y47149D01*
X311982D01*
Y47203D01*
X311927D01*
Y47258D01*
X311873D01*
Y47366D01*
X311765D01*
Y47421D01*
X311710D01*
Y47475D01*
X311656D01*
Y47529D01*
X311602D01*
Y47583D01*
X311493D01*
Y47638D01*
X311439D01*
Y47692D01*
X311385D01*
Y47746D01*
X311276D01*
Y47801D01*
X311222D01*
Y47855D01*
X311113D01*
Y47909D01*
X311059D01*
Y47964D01*
X311005D01*
Y48018D01*
X310896D01*
Y48072D01*
X310787D01*
Y48126D01*
X310733D01*
Y48181D01*
X310625D01*
Y48235D01*
X310516D01*
Y48289D01*
X310462D01*
Y48344D01*
X310190D01*
Y48235D01*
X310245D01*
Y48181D01*
X310353D01*
Y48126D01*
X310407D01*
Y48072D01*
X310462D01*
Y48018D01*
X310570D01*
Y47964D01*
X310679D01*
Y47909D01*
X310787D01*
Y47855D01*
X310842D01*
Y47801D01*
X310896D01*
Y47746D01*
X311005D01*
Y47692D01*
X311059D01*
Y47638D01*
X311167D01*
Y47583D01*
X311222D01*
Y47529D01*
X311276D01*
Y47475D01*
X311385D01*
Y47421D01*
X311439D01*
Y47366D01*
X311493D01*
Y47312D01*
X311547D01*
Y47258D01*
X311602D01*
Y47203D01*
X311656D01*
Y47149D01*
X311710D01*
Y47095D01*
X311819D01*
Y47041D01*
X311873D01*
Y46986D01*
X311927D01*
Y46932D01*
X311982D01*
Y46878D01*
X312036D01*
Y46824D01*
X312090D01*
Y46769D01*
X312145D01*
Y46715D01*
X312199D01*
Y46661D01*
X312253D01*
Y46606D01*
X312307D01*
Y46552D01*
X312416D01*
Y46389D01*
X312470D01*
Y46335D01*
X312579D01*
Y46172D01*
X312633D01*
Y46064D01*
X312687D01*
Y46009D01*
X312742D01*
Y45846D01*
X312796D01*
Y45792D01*
X312850D01*
Y45684D01*
X312904D01*
Y45521D01*
X312959D01*
Y45466D01*
X313013D01*
Y45358D01*
X313067D01*
Y45249D01*
X313122D01*
Y45195D01*
X313284D01*
Y45141D01*
X313339D01*
Y45195D01*
X313393D01*
Y45249D01*
X313447D01*
Y45358D01*
X313502D01*
Y45466D01*
X313556D01*
Y45575D01*
X313610D01*
Y45684D01*
X313664D01*
Y45738D01*
X313719D01*
Y45846D01*
X313773D01*
Y45955D01*
X313827D01*
Y46009D01*
X313882D01*
Y46118D01*
X313936D01*
Y46172D01*
X313990D01*
Y46226D01*
X314044D01*
Y46281D01*
X314099D01*
Y46389D01*
X314153D01*
Y46498D01*
X314262D01*
Y46606D01*
X314316D01*
Y46661D01*
X314370D01*
Y46715D01*
X314424D01*
Y46769D01*
X314479D01*
Y46824D01*
X314533D01*
Y46878D01*
X314587D01*
Y46932D01*
X314696D01*
Y46986D01*
X314967D01*
Y46932D01*
X315021D01*
Y46986D01*
X315076D01*
Y47095D01*
X315130D01*
Y47149D01*
X316107D01*
Y47095D01*
X316270D01*
Y47041D01*
X316379D01*
Y46986D01*
X316433D01*
Y47041D01*
X316487D01*
Y47095D01*
X316541D01*
Y47149D01*
X316596D01*
Y47312D01*
X316650D01*
Y47366D01*
X316704D01*
Y47203D01*
X316759D01*
Y47095D01*
X316813D01*
Y47041D01*
X316867D01*
Y47095D01*
X317030D01*
Y46878D01*
X317084D01*
Y46824D01*
X317139D01*
Y46769D01*
X317193D01*
Y46552D01*
X317139D01*
Y46606D01*
X317084D01*
Y46661D01*
X317030D01*
Y46715D01*
X316976D01*
Y46769D01*
X316921D01*
Y46824D01*
X316867D01*
Y46878D01*
X316813D01*
Y46824D01*
X316704D01*
Y46715D01*
X316759D01*
Y46661D01*
X316813D01*
Y46552D01*
X316867D01*
Y46444D01*
X316921D01*
Y46335D01*
X316976D01*
Y46226D01*
X317030D01*
Y46172D01*
X317084D01*
Y46118D01*
X317139D01*
Y46064D01*
X317193D01*
Y46118D01*
X317247D01*
Y46172D01*
X317301D01*
Y46226D01*
X317464D01*
Y46172D01*
X317410D01*
Y45304D01*
X317464D01*
Y45249D01*
X317519D01*
Y45086D01*
X317573D01*
Y44652D01*
X317627D01*
Y44489D01*
X317681D01*
Y44381D01*
X317736D01*
Y42427D01*
X317681D01*
Y42210D01*
X317627D01*
Y42101D01*
X317573D01*
Y41775D01*
X317519D01*
Y41667D01*
X317464D01*
Y41612D01*
X317410D01*
Y41395D01*
X317356D01*
Y41232D01*
X317301D01*
Y41124D01*
X317247D01*
Y40907D01*
X317193D01*
Y40852D01*
X317084D01*
Y40798D01*
X317030D01*
Y40527D01*
X316596D01*
Y40472D01*
X316487D01*
Y40418D01*
X316433D01*
Y40364D01*
X316107D01*
Y40310D01*
X315890D01*
Y40255D01*
X315836D01*
Y40201D01*
X315076D01*
Y40255D01*
X314859D01*
Y40310D01*
X314750D01*
Y40364D01*
X314479D01*
Y40418D01*
X313990D01*
Y40527D01*
X313936D01*
Y40581D01*
X313827D01*
Y40635D01*
X313719D01*
Y40690D01*
X313393D01*
Y40907D01*
X313339D01*
Y40961D01*
X313230D01*
Y41015D01*
X313176D01*
Y41069D01*
X313122D01*
Y41124D01*
X313013D01*
Y41178D01*
X312959D01*
Y41232D01*
X312904D01*
Y41287D01*
X312850D01*
Y41341D01*
X312796D01*
Y41449D01*
X312742D01*
Y41558D01*
X312687D01*
Y41667D01*
X312633D01*
Y41830D01*
X312579D01*
Y42155D01*
X312633D01*
Y42807D01*
X312687D01*
Y43024D01*
X312633D01*
Y42969D01*
X312579D01*
Y42915D01*
X312525D01*
Y42807D01*
X312470D01*
Y42698D01*
X312416D01*
Y42535D01*
X312362D01*
Y41449D01*
X312416D01*
Y41232D01*
X312470D01*
Y41178D01*
X312525D01*
Y41069D01*
X312579D01*
Y40961D01*
X312633D01*
Y40907D01*
X312687D01*
Y40798D01*
X312742D01*
Y40744D01*
X312796D01*
Y40690D01*
X312850D01*
Y40635D01*
X312904D01*
Y40527D01*
X312959D01*
Y40472D01*
X313013D01*
Y40418D01*
X313067D01*
Y40310D01*
X313122D01*
Y40255D01*
X313176D01*
Y40038D01*
X313230D01*
Y39984D01*
X313284D01*
Y39930D01*
X313339D01*
Y39984D01*
X313556D01*
Y39930D01*
X313664D01*
Y39875D01*
X313719D01*
Y39821D01*
X313773D01*
Y39767D01*
X313827D01*
Y39712D01*
X313882D01*
Y39658D01*
X314044D01*
Y39604D01*
X314099D01*
Y39550D01*
X314153D01*
Y39495D01*
X314316D01*
Y39441D01*
X314370D01*
Y39387D01*
X314424D01*
Y39332D01*
X314587D01*
Y39278D01*
X314696D01*
Y39224D01*
X314804D01*
Y39170D01*
X314967D01*
Y39115D01*
X315076D01*
Y39061D01*
X315130D01*
Y39007D01*
X315347D01*
Y38953D01*
X315456D01*
Y38898D01*
X315564D01*
Y38844D01*
X315890D01*
Y38790D01*
X315999D01*
Y38735D01*
X316053D01*
Y38681D01*
X316161D01*
Y38627D01*
X316379D01*
Y38572D01*
X316759D01*
Y38518D01*
X316867D01*
Y38572D01*
X317139D01*
Y38627D01*
X317356D01*
Y38681D01*
X317519D01*
Y38735D01*
X317627D01*
Y38790D01*
X317681D01*
Y38844D01*
X317736D01*
Y38898D01*
X317790D01*
Y38953D01*
X317844D01*
Y39007D01*
X317899D01*
Y39061D01*
X317953D01*
Y39115D01*
X318007D01*
Y39170D01*
X318061D01*
Y39278D01*
X318116D01*
Y39387D01*
X318170D01*
Y39441D01*
X318224D01*
Y39550D01*
X318279D01*
Y39658D01*
X318333D01*
Y39767D01*
X318387D01*
Y39875D01*
X318441D01*
Y39984D01*
X318496D01*
Y40092D01*
X318550D01*
Y40201D01*
X318604D01*
Y40581D01*
X318659D01*
Y40852D01*
X318713D01*
Y41558D01*
X318767D01*
Y43187D01*
X318713D01*
Y43838D01*
X318659D01*
Y44001D01*
X318604D01*
Y44055D01*
X318550D01*
Y44109D01*
X318496D01*
Y44164D01*
X318441D01*
Y44652D01*
X318496D01*
Y44707D01*
X318550D01*
Y44978D01*
X318496D01*
Y45032D01*
X318387D01*
Y45086D01*
X318333D01*
Y45195D01*
X318279D01*
Y45412D01*
X318224D01*
Y45521D01*
X318170D01*
Y45629D01*
X318116D01*
Y45792D01*
X318061D01*
Y45955D01*
X318007D01*
Y46009D01*
X317953D01*
Y46118D01*
X317899D01*
Y46281D01*
X317844D01*
Y46335D01*
X317790D01*
Y46444D01*
X317736D01*
Y46552D01*
X317681D01*
Y46661D01*
X317627D01*
Y46769D01*
X317573D01*
Y46878D01*
X317519D01*
Y46932D01*
X317464D01*
Y47041D01*
X317410D01*
Y47095D01*
X317356D01*
Y47203D01*
X317301D01*
Y47258D01*
X317247D01*
Y47312D01*
X317193D01*
Y47366D01*
X317139D01*
Y47475D01*
X317084D01*
Y47529D01*
X317030D01*
Y47583D01*
X316976D01*
Y47638D01*
X316921D01*
Y47692D01*
X316867D01*
Y47746D01*
X316813D01*
Y47801D01*
X316759D01*
Y47855D01*
X316704D01*
Y47909D01*
X316650D01*
Y47964D01*
X316596D01*
Y48018D01*
X316541D01*
Y48072D01*
X316487D01*
Y48126D01*
X316379D01*
Y48181D01*
X316324D01*
Y48235D01*
X316270D01*
Y48289D01*
X316216D01*
Y48344D01*
X316107D01*
Y48398D01*
X315999D01*
Y48452D01*
X315890D01*
Y48506D01*
D02*
G37*
G36*
X295805Y45466D02*
X295751D01*
Y45358D01*
X295697D01*
Y44707D01*
X295751D01*
Y44652D01*
X295805D01*
Y44707D01*
X295860D01*
Y44761D01*
X295914D01*
Y44869D01*
X295860D01*
Y45358D01*
X295805D01*
Y45412D01*
Y45466D01*
D02*
G37*
G36*
X316433Y45412D02*
X316161D01*
Y45358D01*
X316107D01*
Y45304D01*
X316053D01*
Y44978D01*
X315999D01*
Y44815D01*
X316053D01*
Y44598D01*
X316107D01*
Y44381D01*
X316161D01*
Y43729D01*
X316216D01*
Y43621D01*
X316270D01*
Y43566D01*
Y43512D01*
Y43404D01*
X316379D01*
Y43349D01*
X316596D01*
Y43404D01*
X316650D01*
Y43512D01*
X316704D01*
Y44652D01*
X316650D01*
Y44924D01*
X316596D01*
Y45141D01*
X316541D01*
Y45249D01*
X316487D01*
Y45358D01*
X316433D01*
Y45412D01*
D02*
G37*
G36*
X308942Y48344D02*
X307965D01*
Y48289D01*
X307748D01*
Y48235D01*
X307476D01*
Y48181D01*
X307259D01*
Y48126D01*
X307150D01*
Y48072D01*
X307042D01*
Y48018D01*
X306933D01*
Y47964D01*
X306825D01*
Y47909D01*
X306716D01*
Y47855D01*
X306608D01*
Y47801D01*
X306553D01*
Y47746D01*
X306445D01*
Y47692D01*
X306390D01*
Y47638D01*
X306282D01*
Y47583D01*
X306228D01*
Y47529D01*
X306173D01*
Y47475D01*
X306065D01*
Y47421D01*
X306010D01*
Y47366D01*
X305956D01*
Y47312D01*
X305902D01*
Y47258D01*
X305848D01*
Y47203D01*
X305793D01*
Y47149D01*
X305685D01*
Y47095D01*
X305630D01*
Y47041D01*
X305576D01*
Y46986D01*
X305522D01*
Y46932D01*
X305468D01*
Y46878D01*
X305413D01*
Y46824D01*
X305359D01*
Y46769D01*
X305305D01*
Y46715D01*
X305250D01*
Y46661D01*
X305196D01*
Y46552D01*
X305142D01*
Y46498D01*
X305088D01*
Y46444D01*
X305033D01*
Y46389D01*
X304979D01*
Y46335D01*
X304925D01*
Y46226D01*
X304871D01*
Y46172D01*
X304816D01*
Y46064D01*
X304762D01*
Y46009D01*
X304708D01*
Y45792D01*
X304653D01*
Y45629D01*
X304599D01*
Y45466D01*
X304545D01*
Y44489D01*
X304599D01*
Y44272D01*
X304653D01*
Y44218D01*
X304708D01*
Y44164D01*
X304762D01*
Y44109D01*
X304816D01*
Y44164D01*
X304871D01*
Y44218D01*
X304925D01*
Y44272D01*
X304979D01*
Y44381D01*
X305033D01*
Y44435D01*
X305088D01*
Y44489D01*
X305142D01*
Y44544D01*
X305196D01*
Y44598D01*
X305305D01*
Y44652D01*
X305793D01*
Y44598D01*
X305848D01*
Y44489D01*
X305902D01*
Y44435D01*
X305956D01*
Y44381D01*
X306010D01*
Y44272D01*
X306065D01*
Y44055D01*
X306119D01*
Y43946D01*
X306173D01*
Y43784D01*
X306228D01*
Y43675D01*
Y43621D01*
Y43566D01*
X306282D01*
Y43458D01*
X306336D01*
Y43295D01*
X306390D01*
Y43024D01*
X306445D01*
Y42915D01*
X306499D01*
Y42752D01*
X306553D01*
Y42481D01*
X306608D01*
Y42372D01*
X306662D01*
Y42210D01*
X306716D01*
Y41992D01*
X306770D01*
Y41884D01*
X306825D01*
Y41775D01*
X306879D01*
Y41612D01*
X306933D01*
Y41504D01*
X306988D01*
Y41395D01*
X307042D01*
Y41341D01*
X307096D01*
Y41287D01*
X307150D01*
Y41178D01*
X307259D01*
Y41124D01*
X307313D01*
Y41069D01*
X307422D01*
Y41015D01*
X307530D01*
Y40961D01*
X307856D01*
Y40907D01*
X308779D01*
Y40961D01*
X309159D01*
Y41015D01*
X309268D01*
Y41124D01*
X309322D01*
Y41178D01*
X309376D01*
Y41232D01*
X309430D01*
Y41287D01*
X309485D01*
Y41341D01*
X309539D01*
Y41449D01*
X309593D01*
Y41504D01*
X309648D01*
Y41612D01*
X309702D01*
Y41721D01*
X309756D01*
Y41830D01*
X309810D01*
Y41884D01*
X309865D01*
Y41938D01*
X309919D01*
Y42047D01*
X309973D01*
Y42155D01*
X310027D01*
Y42210D01*
X310082D01*
Y42318D01*
X310136D01*
Y42372D01*
X310190D01*
Y42481D01*
X310245D01*
Y42589D01*
X310299D01*
Y42644D01*
X310353D01*
Y42752D01*
X310407D01*
Y42807D01*
X310462D01*
Y42915D01*
X310516D01*
Y42969D01*
X310570D01*
Y43078D01*
X310625D01*
Y43132D01*
X310679D01*
Y43241D01*
X310733D01*
Y43295D01*
X310787D01*
Y43349D01*
X310842D01*
Y43458D01*
X310896D01*
Y43512D01*
X310950D01*
Y43621D01*
X311005D01*
Y43675D01*
X311059D01*
Y43729D01*
X311113D01*
Y43784D01*
X311167D01*
Y43838D01*
X311222D01*
Y43892D01*
X311276D01*
Y43946D01*
X311330D01*
Y44001D01*
X311385D01*
Y44055D01*
X311439D01*
Y44109D01*
X311493D01*
Y44164D01*
X311602D01*
Y44218D01*
X311819D01*
Y44164D01*
X311873D01*
Y44109D01*
X311927D01*
Y44055D01*
X311982D01*
Y44001D01*
X312036D01*
Y43892D01*
X312090D01*
Y43784D01*
X312145D01*
Y43729D01*
X312199D01*
Y43404D01*
X312253D01*
Y43241D01*
X312307D01*
Y43187D01*
X312362D01*
Y43295D01*
X312416D01*
Y43404D01*
X312470D01*
Y43512D01*
X312525D01*
Y43566D01*
X312579D01*
Y43784D01*
X312633D01*
Y43892D01*
X312687D01*
Y43946D01*
X312742D01*
Y44109D01*
X312796D01*
Y44272D01*
X312850D01*
Y44544D01*
X312904D01*
Y44707D01*
X312850D01*
Y44815D01*
X312796D01*
Y44978D01*
X312742D01*
Y45141D01*
X312687D01*
Y45249D01*
X312633D01*
Y45358D01*
X312579D01*
Y45466D01*
X312525D01*
Y45575D01*
X312470D01*
Y45684D01*
X312416D01*
Y45792D01*
X312362D01*
Y45846D01*
X312307D01*
Y45901D01*
X312253D01*
Y46064D01*
X312199D01*
Y46118D01*
X312145D01*
Y46172D01*
X312090D01*
Y46226D01*
X312036D01*
Y46335D01*
X311982D01*
Y46389D01*
X311927D01*
Y46444D01*
X311873D01*
Y46552D01*
X311819D01*
Y46606D01*
X311765D01*
Y46661D01*
X311710D01*
Y46715D01*
X311656D01*
Y46769D01*
X311602D01*
Y46824D01*
X311547D01*
Y46878D01*
X311493D01*
Y46932D01*
X311439D01*
Y46986D01*
X311385D01*
Y47041D01*
X311330D01*
Y47095D01*
X311222D01*
Y47149D01*
X311167D01*
Y47203D01*
X311113D01*
Y47258D01*
X311059D01*
Y47312D01*
X311005D01*
Y47366D01*
X310896D01*
Y47421D01*
X310842D01*
Y47475D01*
X310733D01*
Y47529D01*
X310679D01*
Y47583D01*
X310625D01*
Y47638D01*
X310516D01*
Y47692D01*
X310407D01*
Y47746D01*
X310353D01*
Y47801D01*
X310245D01*
Y47855D01*
X310136D01*
Y47909D01*
X310027D01*
Y47964D01*
X309919D01*
Y48018D01*
X309810D01*
Y48072D01*
X309702D01*
Y48126D01*
X309593D01*
Y48181D01*
X309376D01*
Y48235D01*
X309159D01*
Y48289D01*
X308942D01*
Y48344D01*
D02*
G37*
G36*
X327724Y41449D02*
X327615D01*
Y41395D01*
X327724D01*
Y41449D01*
D02*
G37*
G36*
X312036Y42210D02*
X311927D01*
Y42155D01*
X311819D01*
Y42101D01*
X311765D01*
Y42047D01*
X311710D01*
Y41992D01*
X311602D01*
Y41938D01*
X311547D01*
Y41884D01*
X311493D01*
Y41830D01*
X311439D01*
Y41775D01*
X311330D01*
Y41721D01*
X311276D01*
Y41667D01*
X311222D01*
Y41612D01*
X311167D01*
Y41558D01*
X311113D01*
Y41504D01*
X311005D01*
Y41449D01*
X310896D01*
Y41395D01*
X310950D01*
Y41341D01*
X311167D01*
Y41395D01*
X311222D01*
Y41449D01*
X311276D01*
Y41504D01*
X311385D01*
Y41558D01*
X311493D01*
Y41612D01*
X311547D01*
Y41667D01*
X311656D01*
Y41721D01*
X311710D01*
Y41775D01*
X311765D01*
Y41830D01*
X311819D01*
Y41884D01*
X311927D01*
Y41938D01*
X311982D01*
Y41992D01*
X312036D01*
Y42047D01*
X312090D01*
Y42155D01*
X312036D01*
Y42210D01*
D02*
G37*
G36*
X304491Y41124D02*
X304436D01*
Y41069D01*
X304491D01*
Y41124D01*
D02*
G37*
G36*
X312362Y40798D02*
X312307D01*
Y40744D01*
X312362D01*
Y40798D01*
D02*
G37*
G36*
X296185Y43132D02*
X296022D01*
Y42698D01*
X296077D01*
Y42589D01*
X296131D01*
Y42481D01*
X296185D01*
Y42101D01*
X296239D01*
Y41938D01*
X296294D01*
Y41884D01*
Y41830D01*
X296348D01*
Y41449D01*
X296402D01*
Y41232D01*
X296457D01*
Y41124D01*
X296511D01*
Y41015D01*
X296565D01*
Y40690D01*
X296674D01*
Y41232D01*
X296619D01*
Y41395D01*
X296565D01*
Y41830D01*
X296511D01*
Y41992D01*
X296457D01*
Y42101D01*
X296402D01*
Y42427D01*
X296348D01*
Y42589D01*
X296294D01*
Y42644D01*
X296239D01*
Y42861D01*
X296185D01*
Y43132D01*
D02*
G37*
G36*
X327615Y41341D02*
X327507D01*
Y41287D01*
X327452D01*
Y41232D01*
X327398D01*
Y41178D01*
X327344D01*
Y41124D01*
X327290D01*
Y41069D01*
X327235D01*
Y41015D01*
X327181D01*
Y40961D01*
X327127D01*
Y40907D01*
X327072D01*
Y40852D01*
X327018D01*
Y40798D01*
X326964D01*
Y40744D01*
X326909D01*
Y40690D01*
X326801D01*
Y40635D01*
X326747D01*
Y40527D01*
X326801D01*
Y40472D01*
X326909D01*
Y40527D01*
X327018D01*
Y40581D01*
X327072D01*
Y40635D01*
X327181D01*
Y40690D01*
X327235D01*
Y40744D01*
X327290D01*
Y40798D01*
X327344D01*
Y40852D01*
X327398D01*
Y40907D01*
X327452D01*
Y41015D01*
X327507D01*
Y41069D01*
X327561D01*
Y41178D01*
X327615D01*
Y41341D01*
D02*
G37*
G36*
X308779Y40635D02*
X308399D01*
Y40581D01*
X308290D01*
Y40527D01*
X308236D01*
Y40364D01*
X308345D01*
Y40310D01*
X308779D01*
Y40364D01*
X308942D01*
Y40418D01*
X308996D01*
Y40472D01*
X308942D01*
Y40527D01*
X308888D01*
Y40581D01*
X308779D01*
Y40635D01*
D02*
G37*
G36*
X304382Y41015D02*
X304219D01*
Y40961D01*
X304165D01*
Y40907D01*
X304111D01*
Y40852D01*
X304056D01*
Y40798D01*
X304002D01*
Y40744D01*
X303948D01*
Y40690D01*
X303893D01*
Y40635D01*
X303839D01*
Y40581D01*
X303785D01*
Y40527D01*
X303731D01*
Y40472D01*
X303622D01*
Y40418D01*
X303568D01*
Y40364D01*
X303459D01*
Y40310D01*
X303405D01*
Y40201D01*
X303676D01*
Y40255D01*
X303731D01*
Y40310D01*
X303839D01*
Y40364D01*
X303893D01*
Y40418D01*
X303948D01*
Y40472D01*
X304002D01*
Y40527D01*
X304056D01*
Y40581D01*
X304111D01*
Y40635D01*
X304165D01*
Y40690D01*
X304219D01*
Y40798D01*
X304273D01*
Y40852D01*
X304328D01*
Y40907D01*
X304382D01*
Y41015D01*
D02*
G37*
G36*
X309593Y40310D02*
X309322D01*
Y40201D01*
X309539D01*
Y40147D01*
X309593D01*
Y40038D01*
X309756D01*
Y39984D01*
X310027D01*
Y40038D01*
X310082D01*
Y40092D01*
X310027D01*
Y40147D01*
X309865D01*
Y40201D01*
X309648D01*
Y40255D01*
X309593D01*
Y40310D01*
D02*
G37*
G36*
X294340Y47203D02*
X294231D01*
Y47149D01*
X294177D01*
Y47041D01*
X294123D01*
Y46932D01*
X294068D01*
Y46769D01*
X294014D01*
Y46389D01*
X293960D01*
Y46172D01*
X293905D01*
Y46009D01*
X293851D01*
Y45358D01*
X293797D01*
Y45141D01*
X293743D01*
Y43621D01*
X293797D01*
Y43458D01*
X293851D01*
Y43024D01*
X293905D01*
Y42915D01*
X293960D01*
Y42752D01*
X294014D01*
Y42535D01*
X294068D01*
Y42427D01*
X294123D01*
Y42318D01*
X294177D01*
Y42101D01*
X294231D01*
Y42047D01*
X294285D01*
Y41938D01*
X294340D01*
Y41775D01*
X294394D01*
Y41721D01*
X294448D01*
Y41612D01*
X294503D01*
Y41504D01*
X294557D01*
Y41395D01*
X294611D01*
Y41341D01*
X294665D01*
Y41232D01*
X294720D01*
Y41178D01*
X294774D01*
Y41124D01*
X294828D01*
Y41015D01*
X294882D01*
Y40961D01*
X294937D01*
Y40907D01*
X294991D01*
Y40852D01*
X295045D01*
Y40744D01*
X295100D01*
Y40690D01*
X295154D01*
Y40635D01*
X295208D01*
Y40581D01*
X295262D01*
Y40527D01*
X295317D01*
Y40472D01*
X295371D01*
Y40418D01*
X295425D01*
Y40364D01*
X295480D01*
Y40310D01*
X295534D01*
Y40255D01*
X295588D01*
Y40201D01*
X295642D01*
Y40147D01*
X295697D01*
Y40092D01*
X295751D01*
Y40038D01*
X295805D01*
Y39984D01*
X295968D01*
Y40147D01*
X295914D01*
Y40255D01*
X295860D01*
Y40310D01*
X295805D01*
Y40364D01*
X295751D01*
Y40418D01*
X295697D01*
Y40472D01*
X295642D01*
Y40527D01*
X295588D01*
Y40581D01*
X295534D01*
Y40635D01*
X295480D01*
Y40690D01*
X295425D01*
Y40744D01*
X295371D01*
Y40798D01*
X295317D01*
Y40852D01*
X295262D01*
Y40907D01*
X295208D01*
Y40961D01*
X295154D01*
Y41069D01*
X295100D01*
Y41124D01*
X295045D01*
Y41395D01*
X294991D01*
Y41449D01*
X294937D01*
Y41504D01*
X294828D01*
Y41558D01*
X294774D01*
Y41612D01*
X294720D01*
Y41721D01*
X294665D01*
Y41775D01*
X294611D01*
Y41830D01*
X294557D01*
Y41992D01*
X294503D01*
Y42101D01*
X294448D01*
Y42210D01*
X294394D01*
Y42427D01*
X294340D01*
Y42589D01*
X294285D01*
Y42698D01*
X294231D01*
Y43024D01*
X294177D01*
Y43187D01*
X294123D01*
Y43349D01*
X294068D01*
Y43675D01*
X294014D01*
Y44272D01*
X293960D01*
Y44761D01*
X294014D01*
Y45358D01*
X294068D01*
Y45846D01*
X294123D01*
Y45955D01*
X294177D01*
Y46226D01*
X294231D01*
Y46552D01*
X294285D01*
Y46715D01*
X294340D01*
Y46878D01*
X294394D01*
Y47149D01*
X294340D01*
Y47203D01*
D02*
G37*
G36*
X312525Y40690D02*
X312416D01*
Y40581D01*
X312362D01*
Y40527D01*
X312416D01*
Y40364D01*
X312470D01*
Y40255D01*
X312525D01*
Y40147D01*
X312579D01*
Y40092D01*
X312633D01*
Y40038D01*
X312687D01*
Y39930D01*
X312742D01*
Y39875D01*
Y39821D01*
X312796D01*
Y39767D01*
X312850D01*
Y39658D01*
X312904D01*
Y39550D01*
X313067D01*
Y39767D01*
X313013D01*
Y39821D01*
X312959D01*
Y39930D01*
X312904D01*
Y40092D01*
X312850D01*
Y40147D01*
X312796D01*
Y40201D01*
X312742D01*
Y40364D01*
X312687D01*
Y40418D01*
X312633D01*
Y40472D01*
X312579D01*
Y40581D01*
X312525D01*
Y40690D01*
D02*
G37*
G36*
X311222Y39821D02*
X310842D01*
Y39767D01*
Y39712D01*
X310896D01*
Y39658D01*
X311167D01*
Y39604D01*
X311276D01*
Y39550D01*
X311330D01*
Y39495D01*
X311602D01*
Y39550D01*
X311656D01*
Y39658D01*
X311439D01*
Y39712D01*
X311276D01*
Y39767D01*
X311222D01*
Y39821D01*
D02*
G37*
G36*
X304382Y39875D02*
X303839D01*
Y39821D01*
X303514D01*
Y39767D01*
X303351D01*
Y39712D01*
X303025D01*
Y39658D01*
X302754D01*
Y39604D01*
X302645D01*
Y39550D01*
X302428D01*
Y39495D01*
X302156D01*
Y39441D01*
X302048D01*
Y39387D01*
X301939D01*
Y39332D01*
X301831D01*
Y38898D01*
X301776D01*
Y39007D01*
X301722D01*
Y39115D01*
X301614D01*
Y39170D01*
X301125D01*
Y39115D01*
X301016D01*
Y39061D01*
X300908D01*
Y39007D01*
X300691D01*
Y38953D01*
X300637D01*
Y38898D01*
X300528D01*
Y38844D01*
X300311D01*
Y38790D01*
X300202D01*
Y38735D01*
X300094D01*
Y38681D01*
X299931D01*
Y38627D01*
X299822D01*
Y38572D01*
X299714D01*
Y38518D01*
X299551D01*
Y38464D01*
X299442D01*
Y38410D01*
X299388D01*
Y38355D01*
X299279D01*
Y38301D01*
X299225D01*
Y38247D01*
X299171D01*
Y38193D01*
X299116D01*
Y38138D01*
X299062D01*
Y38084D01*
X299008D01*
Y38030D01*
X298954D01*
Y37975D01*
X298899D01*
Y37867D01*
X298845D01*
Y37758D01*
X298791D01*
Y37650D01*
X298737D01*
Y37595D01*
X298682D01*
Y37432D01*
X298628D01*
Y37324D01*
X298574D01*
Y37053D01*
X298519D01*
Y36944D01*
X298574D01*
Y36781D01*
X298628D01*
Y36727D01*
X298682D01*
Y36673D01*
X298791D01*
Y36618D01*
X298845D01*
Y36564D01*
X298954D01*
Y36510D01*
X299116D01*
Y36456D01*
X299388D01*
Y36401D01*
X299551D01*
Y36347D01*
X299876D01*
Y36401D01*
X299985D01*
Y36456D01*
X300039D01*
Y36510D01*
X300094D01*
Y36564D01*
X300148D01*
Y36781D01*
X300094D01*
Y36835D01*
X299985D01*
Y36890D01*
X299931D01*
Y36944D01*
X299876D01*
Y36998D01*
X299768D01*
Y37053D01*
X299442D01*
Y37107D01*
X300148D01*
Y37161D01*
X300311D01*
Y37215D01*
X300365D01*
Y37270D01*
X300419D01*
Y37324D01*
X300474D01*
Y37432D01*
X300528D01*
Y37650D01*
X300474D01*
Y37704D01*
X300419D01*
Y37867D01*
X300257D01*
Y37975D01*
X300365D01*
Y37921D01*
X300419D01*
Y37867D01*
X300474D01*
Y37812D01*
X300637D01*
Y37758D01*
X300745D01*
Y37704D01*
X300799D01*
Y37650D01*
X300962D01*
Y37595D01*
X301071D01*
Y37487D01*
X301179D01*
Y37541D01*
X301396D01*
Y37595D01*
X301505D01*
Y37650D01*
X301614D01*
Y37704D01*
X301668D01*
Y37758D01*
X301722D01*
Y37867D01*
X301776D01*
Y37921D01*
X301831D01*
Y37975D01*
X301885D01*
Y38193D01*
X301939D01*
Y38790D01*
X301994D01*
Y38627D01*
X302048D01*
Y38572D01*
X302102D01*
Y38464D01*
X302156D01*
Y38410D01*
X302211D01*
Y38355D01*
X302265D01*
Y38301D01*
X302319D01*
Y38247D01*
X302374D01*
Y38193D01*
X302428D01*
Y38138D01*
X302482D01*
Y38084D01*
X302536D01*
Y38030D01*
X302591D01*
Y37975D01*
X302645D01*
Y37921D01*
X302699D01*
Y37867D01*
X302754D01*
Y37812D01*
X303079D01*
Y37867D01*
X303188D01*
Y37921D01*
X303242D01*
Y37975D01*
X303405D01*
Y38030D01*
X303459D01*
Y38084D01*
X303568D01*
Y38138D01*
X303622D01*
Y38193D01*
X303731D01*
Y38247D01*
X303785D01*
Y38301D01*
X303893D01*
Y38355D01*
X303948D01*
Y38410D01*
X304002D01*
Y38464D01*
X304056D01*
Y38518D01*
X304111D01*
Y38572D01*
X304165D01*
Y38681D01*
X304219D01*
Y38790D01*
X304273D01*
Y38953D01*
X304328D01*
Y39007D01*
X304382D01*
Y39278D01*
X304436D01*
Y39604D01*
X304491D01*
Y39767D01*
X304436D01*
Y39821D01*
X304382D01*
Y39875D01*
D02*
G37*
G36*
X312742Y39332D02*
X312470D01*
Y39278D01*
X312416D01*
Y39224D01*
X312470D01*
Y39170D01*
X312579D01*
Y39115D01*
X312687D01*
Y39061D01*
X312742D01*
Y39007D01*
X312850D01*
Y38953D01*
X313013D01*
Y38898D01*
X313067D01*
Y38844D01*
X313393D01*
Y38953D01*
X313339D01*
Y39007D01*
X313230D01*
Y39061D01*
X313122D01*
Y39115D01*
X313067D01*
Y39170D01*
X312904D01*
Y39224D01*
X312796D01*
Y39278D01*
X312742D01*
Y39332D01*
D02*
G37*
G36*
X306336Y40201D02*
X305088D01*
Y40147D01*
X304925D01*
Y40092D01*
X304816D01*
Y39984D01*
X304762D01*
Y39767D01*
X304816D01*
Y39604D01*
X304871D01*
Y39441D01*
X304925D01*
Y39332D01*
X304979D01*
Y39224D01*
X305033D01*
Y39115D01*
X305088D01*
Y39061D01*
X305142D01*
Y38953D01*
X305196D01*
Y38898D01*
X305250D01*
Y38844D01*
X305413D01*
Y38898D01*
X305630D01*
Y38953D01*
X305902D01*
Y39007D01*
X306119D01*
Y39061D01*
X306173D01*
Y39115D01*
X306228D01*
Y39170D01*
X306282D01*
Y39224D01*
X306336D01*
Y39278D01*
X306390D01*
Y39550D01*
X306445D01*
Y39712D01*
X306499D01*
Y39875D01*
X306553D01*
Y39984D01*
X306499D01*
Y40092D01*
X306445D01*
Y40147D01*
X306336D01*
Y40201D01*
D02*
G37*
G36*
X301342Y39658D02*
X300962D01*
Y39604D01*
X300854D01*
Y39550D01*
X300691D01*
Y39495D01*
X300528D01*
Y39441D01*
X300474D01*
Y39387D01*
X300365D01*
Y39332D01*
X300202D01*
Y39278D01*
X300148D01*
Y39224D01*
X300094D01*
Y39170D01*
X299876D01*
Y39115D01*
X299768D01*
Y39061D01*
X299605D01*
Y39007D01*
X299334D01*
Y38953D01*
X299225D01*
Y38735D01*
X299496D01*
Y38790D01*
X299659D01*
Y38844D01*
X299822D01*
Y38898D01*
X299876D01*
Y38953D01*
X299931D01*
Y39007D01*
X300148D01*
Y39061D01*
X300202D01*
Y39115D01*
X300311D01*
Y39170D01*
X300528D01*
Y39224D01*
X300582D01*
Y39278D01*
X300637D01*
Y39332D01*
X300908D01*
Y39387D01*
X301016D01*
Y39441D01*
X301179D01*
Y39495D01*
X301288D01*
Y39550D01*
X301342D01*
Y39658D01*
D02*
G37*
G36*
X309539Y39712D02*
X309159D01*
Y39658D01*
X309105D01*
Y39170D01*
X309159D01*
Y39061D01*
X309213D01*
Y38953D01*
X309268D01*
Y38898D01*
X309322D01*
Y38844D01*
X309430D01*
Y38790D01*
X309539D01*
Y38735D01*
X309648D01*
Y38681D01*
X309810D01*
Y38627D01*
X310027D01*
Y38572D01*
X310190D01*
Y38518D01*
X310407D01*
Y38464D01*
X310679D01*
Y38572D01*
X310733D01*
Y38627D01*
X310787D01*
Y38681D01*
X310842D01*
Y38790D01*
X310896D01*
Y39007D01*
X310950D01*
Y39170D01*
X310896D01*
Y39224D01*
X310842D01*
Y39278D01*
X310787D01*
Y39332D01*
X310625D01*
Y39387D01*
X310462D01*
Y39441D01*
X310407D01*
Y39495D01*
X310136D01*
Y39550D01*
X309919D01*
Y39604D01*
X309810D01*
Y39658D01*
X309539D01*
Y39712D01*
D02*
G37*
G36*
X292711Y41667D02*
X292548D01*
Y41612D01*
X292494D01*
Y41504D01*
X292548D01*
Y41449D01*
X292603D01*
Y41341D01*
X292657D01*
Y41287D01*
X292711D01*
Y41232D01*
X292765D01*
Y41178D01*
X292820D01*
Y41124D01*
X292874D01*
Y41069D01*
X292928D01*
Y41015D01*
X292983D01*
Y40961D01*
X293091D01*
Y40907D01*
X293145D01*
Y40852D01*
X293200D01*
Y40798D01*
X293308D01*
Y40744D01*
X293363D01*
Y40690D01*
X293580D01*
Y40635D01*
X293688D01*
Y40472D01*
X293743D01*
Y40364D01*
X293851D01*
Y40255D01*
X293905D01*
Y40201D01*
X293960D01*
Y40147D01*
X294014D01*
Y40092D01*
X294068D01*
Y40038D01*
X294123D01*
Y39984D01*
X294177D01*
Y39930D01*
X294231D01*
Y39875D01*
X294285D01*
Y39821D01*
X294340D01*
Y39767D01*
X294394D01*
Y39712D01*
X294448D01*
Y39658D01*
X294503D01*
Y39604D01*
X294611D01*
Y39550D01*
X294665D01*
Y39495D01*
X294774D01*
Y39441D01*
X294828D01*
Y39387D01*
X294882D01*
Y39332D01*
X294937D01*
Y39278D01*
X294991D01*
Y39224D01*
X295045D01*
Y39170D01*
X295100D01*
Y39115D01*
X295208D01*
Y39061D01*
X295262D01*
Y39007D01*
X295371D01*
Y38953D01*
X295425D01*
Y38898D01*
X295480D01*
Y38844D01*
X295534D01*
Y38790D01*
X295642D01*
Y38735D01*
X295697D01*
Y38681D01*
X295805D01*
Y38627D01*
X295914D01*
Y38572D01*
X295968D01*
Y38518D01*
X296022D01*
Y38464D01*
X296131D01*
Y38410D01*
X296185D01*
Y38355D01*
X296239D01*
Y38301D01*
X296348D01*
Y38247D01*
X296402D01*
Y38193D01*
X296619D01*
Y38355D01*
X296565D01*
Y38464D01*
X296511D01*
Y38572D01*
X296457D01*
Y38790D01*
X296402D01*
Y38844D01*
X296348D01*
Y38953D01*
X296294D01*
Y39007D01*
X296239D01*
Y39061D01*
X296185D01*
Y39170D01*
X296239D01*
Y39332D01*
X296131D01*
Y39387D01*
X296077D01*
Y39441D01*
X296022D01*
Y39495D01*
X295968D01*
Y39550D01*
X295914D01*
Y39604D01*
X295860D01*
Y39658D01*
X295805D01*
Y39712D01*
X295751D01*
Y39767D01*
X295697D01*
Y39821D01*
X295642D01*
Y39875D01*
X295588D01*
Y39930D01*
X295534D01*
Y39984D01*
X295480D01*
Y40038D01*
X295425D01*
Y40092D01*
X295371D01*
Y40147D01*
X295317D01*
Y40201D01*
X295262D01*
Y40255D01*
X295208D01*
Y40310D01*
X295154D01*
Y40364D01*
X295100D01*
Y40418D01*
X295045D01*
Y40472D01*
X294991D01*
Y40527D01*
X294937D01*
Y40581D01*
X294882D01*
Y40635D01*
X294828D01*
Y40744D01*
X294774D01*
Y40798D01*
X294720D01*
Y40852D01*
X294665D01*
Y40907D01*
X294611D01*
Y40961D01*
X294557D01*
Y41015D01*
X294503D01*
Y41069D01*
X294285D01*
Y41178D01*
X294231D01*
Y41287D01*
X294177D01*
Y41341D01*
X293743D01*
Y41287D01*
X293688D01*
Y41178D01*
X293797D01*
Y41124D01*
X293851D01*
Y41069D01*
X293797D01*
Y41015D01*
X293688D01*
Y40961D01*
X293634D01*
Y40852D01*
X293580D01*
Y40907D01*
X293417D01*
Y40961D01*
X293363D01*
Y41015D01*
X293254D01*
Y41069D01*
X293200D01*
Y41178D01*
X293145D01*
Y41287D01*
X293200D01*
Y41341D01*
X293254D01*
Y41395D01*
X293308D01*
Y41449D01*
X293254D01*
Y41504D01*
X293091D01*
Y41558D01*
X292820D01*
Y41612D01*
X292711D01*
Y41667D01*
D02*
G37*
G36*
X323490Y37595D02*
X323435D01*
Y37541D01*
X323490D01*
Y37595D01*
D02*
G37*
G36*
X302319Y38030D02*
X302048D01*
Y37975D01*
X301994D01*
Y37921D01*
X301939D01*
Y37867D01*
X301885D01*
Y37704D01*
X301831D01*
Y37595D01*
X301776D01*
Y37487D01*
X301722D01*
Y37324D01*
X301776D01*
Y37270D01*
X301831D01*
Y37324D01*
X302048D01*
Y37378D01*
X302211D01*
Y37432D01*
X302265D01*
Y37487D01*
X302374D01*
Y37541D01*
X302428D01*
Y37595D01*
X302482D01*
Y37650D01*
X302536D01*
Y37812D01*
X302482D01*
Y37867D01*
X302428D01*
Y37921D01*
X302374D01*
Y37975D01*
X302319D01*
Y38030D01*
D02*
G37*
G36*
X312145Y38898D02*
X311765D01*
Y38790D01*
X311710D01*
Y38681D01*
X311656D01*
Y38518D01*
X311602D01*
Y38138D01*
X311656D01*
Y38030D01*
X311710D01*
Y37975D01*
X311765D01*
Y37921D01*
X311819D01*
Y37867D01*
X311927D01*
Y37812D01*
X311982D01*
Y37758D01*
X312036D01*
Y37704D01*
X312145D01*
Y37650D01*
X312199D01*
Y37595D01*
X312253D01*
Y37541D01*
X312362D01*
Y37487D01*
X312470D01*
Y37432D01*
X312579D01*
Y37378D01*
X312633D01*
Y37324D01*
X312742D01*
Y37270D01*
X312850D01*
Y37215D01*
X312904D01*
Y37161D01*
X313284D01*
Y37215D01*
X313339D01*
Y37270D01*
X313393D01*
Y37324D01*
X313447D01*
Y37378D01*
X313556D01*
Y37432D01*
X313610D01*
Y37487D01*
X313664D01*
Y37541D01*
X313719D01*
Y37595D01*
X313773D01*
Y37650D01*
X313882D01*
Y37053D01*
X313773D01*
Y37161D01*
X313719D01*
Y37215D01*
X313502D01*
Y37161D01*
X313393D01*
Y36890D01*
X313447D01*
Y36835D01*
X313502D01*
Y36781D01*
X313556D01*
Y36727D01*
X313610D01*
Y36673D01*
X313719D01*
Y36618D01*
X313882D01*
Y36727D01*
X313936D01*
Y36998D01*
X313990D01*
Y36944D01*
X314044D01*
Y36835D01*
X314099D01*
Y36727D01*
X314153D01*
Y36673D01*
X314262D01*
Y36618D01*
X314316D01*
Y36564D01*
X314424D01*
Y36510D01*
X314587D01*
Y36456D01*
X314859D01*
Y36510D01*
X314967D01*
Y36564D01*
X315021D01*
Y36618D01*
X315239D01*
Y36673D01*
X315401D01*
Y36727D01*
X315456D01*
Y36781D01*
X315727D01*
Y36727D01*
X315619D01*
Y36673D01*
X315510D01*
Y36564D01*
X315401D01*
Y36510D01*
X315347D01*
Y36456D01*
X315293D01*
Y36401D01*
X315239D01*
Y36075D01*
X315293D01*
Y35967D01*
X315347D01*
Y35858D01*
X315401D01*
Y35750D01*
X315456D01*
Y35696D01*
X315564D01*
Y35641D01*
X316161D01*
Y35750D01*
X316270D01*
Y35804D01*
X316487D01*
Y35858D01*
X316650D01*
Y35913D01*
X316704D01*
Y35967D01*
X316976D01*
Y35858D01*
X316921D01*
Y35804D01*
X316867D01*
Y35750D01*
X316813D01*
Y35696D01*
X316759D01*
Y35044D01*
X316813D01*
Y34990D01*
X316921D01*
Y34936D01*
X316976D01*
Y34881D01*
X317084D01*
Y34936D01*
X317247D01*
Y34990D01*
X317410D01*
Y35044D01*
X317464D01*
Y35098D01*
X317519D01*
Y35153D01*
X317627D01*
Y35207D01*
X317681D01*
Y35261D01*
X317736D01*
Y35315D01*
X317790D01*
Y35370D01*
X317844D01*
Y35478D01*
X317899D01*
Y35533D01*
X317953D01*
Y35587D01*
X318007D01*
Y35696D01*
X318061D01*
Y35858D01*
X318007D01*
Y35913D01*
X317953D01*
Y36021D01*
X317899D01*
Y36075D01*
X317844D01*
Y36130D01*
X317790D01*
Y36184D01*
X317301D01*
Y36347D01*
X317356D01*
Y36456D01*
X317301D01*
Y36510D01*
X317247D01*
Y36564D01*
X317193D01*
Y36618D01*
X317139D01*
Y36673D01*
X317030D01*
Y36727D01*
X316976D01*
Y36781D01*
X316921D01*
Y36835D01*
X316813D01*
Y36890D01*
X316650D01*
Y36944D01*
X316596D01*
Y36998D01*
X316487D01*
Y37053D01*
X315999D01*
Y37107D01*
X316053D01*
Y37324D01*
X315944D01*
Y37378D01*
X315890D01*
Y37432D01*
X315781D01*
Y37487D01*
X315673D01*
Y37541D01*
X315564D01*
Y37595D01*
X315456D01*
Y37650D01*
X315293D01*
Y37704D01*
X315130D01*
Y37758D01*
X315021D01*
Y37812D01*
X314913D01*
Y37867D01*
X314750D01*
Y37921D01*
X314587D01*
Y37975D01*
X314316D01*
Y37921D01*
X314207D01*
Y37867D01*
X314044D01*
Y38138D01*
X313936D01*
Y38193D01*
X313827D01*
Y38247D01*
X313719D01*
Y38301D01*
X313664D01*
Y38355D01*
X313447D01*
Y38410D01*
X313339D01*
Y38464D01*
X313284D01*
Y38518D01*
X313067D01*
Y38572D01*
X312959D01*
Y38627D01*
X312850D01*
Y38681D01*
X312633D01*
Y38735D01*
X312525D01*
Y38790D01*
X312362D01*
Y38844D01*
X312145D01*
Y38898D01*
D02*
G37*
G36*
X323327Y37487D02*
X322784D01*
Y37432D01*
X322730D01*
Y37378D01*
X322675D01*
Y37324D01*
X322350D01*
Y37270D01*
X322295D01*
Y37215D01*
X322241D01*
Y36998D01*
X322621D01*
Y37053D01*
X322675D01*
Y37107D01*
X322784D01*
Y37161D01*
X322947D01*
Y37215D01*
X323055D01*
Y37270D01*
X323164D01*
Y37324D01*
X323273D01*
Y37378D01*
X323327D01*
Y37487D01*
D02*
G37*
G36*
X322078Y36998D02*
X321318D01*
Y36944D01*
X321264D01*
Y36890D01*
X321318D01*
Y36835D01*
X321373D01*
Y36781D01*
X321481D01*
Y36727D01*
X321753D01*
Y36835D01*
X321916D01*
Y36890D01*
X322133D01*
Y36944D01*
X322078D01*
Y36998D01*
D02*
G37*
G36*
X301071Y37487D02*
X300854D01*
Y37432D01*
X300745D01*
Y37378D01*
X300691D01*
Y37324D01*
X300637D01*
Y37270D01*
X300582D01*
Y37215D01*
X300528D01*
Y37107D01*
X300474D01*
Y36998D01*
X300365D01*
Y36564D01*
X300528D01*
Y36618D01*
X300691D01*
Y36673D01*
X300745D01*
Y36727D01*
X300854D01*
Y36781D01*
X300962D01*
Y36835D01*
X301071D01*
Y36890D01*
X301179D01*
Y36944D01*
X301234D01*
Y36998D01*
X301342D01*
Y37053D01*
X301396D01*
Y37270D01*
X301342D01*
Y37324D01*
X301234D01*
Y37378D01*
X301071D01*
Y37487D01*
D02*
G37*
G36*
X297162Y38138D02*
X297054D01*
Y38084D01*
X296999D01*
Y37215D01*
X297054D01*
Y36835D01*
X297108D01*
Y36727D01*
X297162D01*
Y36618D01*
X297217D01*
Y36456D01*
X297271D01*
Y36401D01*
X297325D01*
Y36347D01*
X297379D01*
Y36293D01*
X297488D01*
Y36238D01*
X297542D01*
Y36184D01*
X297759D01*
Y36238D01*
X297705D01*
Y36293D01*
X297651D01*
Y36347D01*
X297542D01*
Y36401D01*
Y36456D01*
X297488D01*
Y36510D01*
X297434D01*
Y36564D01*
X297379D01*
Y36781D01*
X297325D01*
Y36890D01*
X297271D01*
Y37324D01*
X297217D01*
Y38030D01*
X297162D01*
Y38138D01*
D02*
G37*
G36*
X298302Y37595D02*
X298248D01*
Y37432D01*
X298194D01*
Y37324D01*
X298139D01*
Y37270D01*
X298085D01*
Y37161D01*
X298031D01*
Y36727D01*
Y36673D01*
X298085D01*
Y36618D01*
X298139D01*
Y36564D01*
X298194D01*
Y36510D01*
X298248D01*
Y36456D01*
X298302D01*
Y36347D01*
X298357D01*
Y36293D01*
X298465D01*
Y36238D01*
X298519D01*
Y36184D01*
X298628D01*
Y36130D01*
X298954D01*
Y36075D01*
X299008D01*
Y36184D01*
X299062D01*
Y36238D01*
X299008D01*
Y36293D01*
X298899D01*
Y36347D01*
X298737D01*
Y36401D01*
X298682D01*
Y36456D01*
X298574D01*
Y36510D01*
X298465D01*
Y36564D01*
X298411D01*
Y36618D01*
X298357D01*
Y36673D01*
X298302D01*
Y36727D01*
X298248D01*
Y37107D01*
X298302D01*
Y37215D01*
X298357D01*
Y37541D01*
X298302D01*
Y37595D01*
D02*
G37*
G36*
X314913Y36401D02*
X314587D01*
Y36347D01*
X314424D01*
Y36293D01*
X314370D01*
Y36238D01*
X314424D01*
Y36184D01*
Y36130D01*
X314479D01*
Y36075D01*
X314587D01*
Y36021D01*
X314641D01*
Y35967D01*
X314696D01*
Y35913D01*
X314750D01*
Y35858D01*
X314804D01*
Y35804D01*
X315021D01*
Y35858D01*
X315076D01*
Y35967D01*
X315130D01*
Y36184D01*
X315076D01*
Y36347D01*
X314913D01*
Y36401D01*
D02*
G37*
G36*
X319364Y35804D02*
X319310D01*
Y35696D01*
X319364D01*
Y35750D01*
Y35804D01*
D02*
G37*
G36*
X298031Y36456D02*
X297922D01*
Y36401D01*
Y36347D01*
X297977D01*
Y36184D01*
X297814D01*
Y36130D01*
X297759D01*
Y36075D01*
X297868D01*
Y36021D01*
X297977D01*
Y35967D01*
X298085D01*
Y35913D01*
X298139D01*
Y35858D01*
X298248D01*
Y35804D01*
X298465D01*
Y35750D01*
X298519D01*
Y35696D01*
X298845D01*
Y35858D01*
X298791D01*
Y35913D01*
X298737D01*
Y35967D01*
X298682D01*
Y36021D01*
X298465D01*
Y36130D01*
X298411D01*
Y36184D01*
X298248D01*
Y36238D01*
X298194D01*
Y36347D01*
X298031D01*
Y36456D01*
D02*
G37*
G36*
X319201Y35587D02*
X319147D01*
Y35533D01*
X319093D01*
Y35370D01*
X319201D01*
Y35478D01*
X319256D01*
Y35533D01*
X319201D01*
Y35587D01*
D02*
G37*
G36*
X316379Y35641D02*
X316216D01*
Y35587D01*
X316107D01*
Y35533D01*
X315781D01*
Y35478D01*
X315673D01*
Y35370D01*
X315727D01*
Y35315D01*
X315781D01*
Y35261D01*
X315890D01*
Y35207D01*
X315944D01*
Y35153D01*
X316107D01*
Y35098D01*
X316216D01*
Y35044D01*
X316270D01*
Y34990D01*
X316541D01*
Y35044D01*
X316596D01*
Y35478D01*
X316541D01*
Y35587D01*
X316379D01*
Y35641D01*
D02*
G37*
G36*
X307585Y38735D02*
X306445D01*
Y38681D01*
X305793D01*
Y38627D01*
X305630D01*
Y38572D01*
X305468D01*
Y38518D01*
X305142D01*
Y38464D01*
X305033D01*
Y38410D01*
X304925D01*
Y38355D01*
X304762D01*
Y38301D01*
X304653D01*
Y38247D01*
X304599D01*
Y38193D01*
X304382D01*
Y38138D01*
X304273D01*
Y38084D01*
X304165D01*
Y38030D01*
X304002D01*
Y37975D01*
X303893D01*
Y37921D01*
X303785D01*
Y37867D01*
X303622D01*
Y37812D01*
X303514D01*
Y37758D01*
X303459D01*
Y37704D01*
X303296D01*
Y37650D01*
X303188D01*
Y37595D01*
X303079D01*
Y37541D01*
X302971D01*
Y37487D01*
X302862D01*
Y37432D01*
X302754D01*
Y37378D01*
X302591D01*
Y37324D01*
X302482D01*
Y37270D01*
X302428D01*
Y37215D01*
X302265D01*
Y37161D01*
X302156D01*
Y37107D01*
X302102D01*
Y37053D01*
X301939D01*
Y36998D01*
X301831D01*
Y36944D01*
X301776D01*
Y36890D01*
X301668D01*
Y36835D01*
X301559D01*
Y36781D01*
X301451D01*
Y36727D01*
X301342D01*
Y36673D01*
X301234D01*
Y36618D01*
X301179D01*
Y36564D01*
X301125D01*
Y36510D01*
X300962D01*
Y36456D01*
X300908D01*
Y36401D01*
X300854D01*
Y36347D01*
X300745D01*
Y36293D01*
X300691D01*
Y36184D01*
X300637D01*
Y36130D01*
X300582D01*
Y36021D01*
X300854D01*
Y36075D01*
X300908D01*
Y36130D01*
X301016D01*
Y36021D01*
X300962D01*
Y35967D01*
X300908D01*
Y35913D01*
X300962D01*
Y35804D01*
X301016D01*
Y35750D01*
X301071D01*
Y35696D01*
X301125D01*
Y35641D01*
X301179D01*
Y35587D01*
X301234D01*
Y35533D01*
X301342D01*
Y35478D01*
X301451D01*
Y35424D01*
X301505D01*
Y35370D01*
X301559D01*
Y35315D01*
X301668D01*
Y35261D01*
X301776D01*
Y35207D01*
X301831D01*
Y35153D01*
X301939D01*
Y35098D01*
X302048D01*
Y34990D01*
X302211D01*
Y34936D01*
X302265D01*
Y34881D01*
X302374D01*
Y34827D01*
X302428D01*
Y34773D01*
X302482D01*
Y34718D01*
X302591D01*
Y34664D01*
X302645D01*
Y34610D01*
X302699D01*
Y34555D01*
X302754D01*
Y34501D01*
X302808D01*
Y34447D01*
X302916D01*
Y34393D01*
X302971D01*
Y34338D01*
X303025D01*
Y34284D01*
X303134D01*
Y34230D01*
X303188D01*
Y34176D01*
X303242D01*
Y34121D01*
X303351D01*
Y34067D01*
X303459D01*
Y34013D01*
X303514D01*
Y33958D01*
X303622D01*
Y33904D01*
X303676D01*
Y33850D01*
X303785D01*
Y33796D01*
X303839D01*
Y33741D01*
X303893D01*
Y33687D01*
X303948D01*
Y33633D01*
X304056D01*
Y33578D01*
X304111D01*
Y33524D01*
X304165D01*
Y33470D01*
X304273D01*
Y33416D01*
X304328D01*
Y33361D01*
X304382D01*
Y33307D01*
X304436D01*
Y33253D01*
X304491D01*
Y33198D01*
X304545D01*
Y33144D01*
X304599D01*
Y33090D01*
X304653D01*
Y33036D01*
X304708D01*
Y32981D01*
X304762D01*
Y32927D01*
X304816D01*
Y32873D01*
X304871D01*
Y32819D01*
X304925D01*
Y32710D01*
X304979D01*
Y32656D01*
X305033D01*
Y32493D01*
X305088D01*
Y32384D01*
X305142D01*
Y32276D01*
X305196D01*
Y31950D01*
X305250D01*
Y31679D01*
X305305D01*
Y31461D01*
X305359D01*
Y31081D01*
X305305D01*
Y31027D01*
X305250D01*
Y30973D01*
X305142D01*
Y30919D01*
X305088D01*
Y30864D01*
X305033D01*
Y30756D01*
X304979D01*
Y30647D01*
X304925D01*
Y29453D01*
X304979D01*
Y29181D01*
X305033D01*
Y28639D01*
X305088D01*
Y28421D01*
X305142D01*
Y28259D01*
X305196D01*
Y27879D01*
X305250D01*
Y27770D01*
X305305D01*
Y27607D01*
X305359D01*
Y27390D01*
X305413D01*
Y27227D01*
X305468D01*
Y27119D01*
X305522D01*
Y26956D01*
X305576D01*
Y26847D01*
X305630D01*
Y26739D01*
X305685D01*
Y26576D01*
X305739D01*
Y26413D01*
X305793D01*
Y26359D01*
X305848D01*
Y26142D01*
X305902D01*
Y26033D01*
X305956D01*
Y25924D01*
X306010D01*
Y25816D01*
X306065D01*
Y25653D01*
X306119D01*
Y25545D01*
X306173D01*
Y25436D01*
X306228D01*
Y25219D01*
X306282D01*
Y25164D01*
X306336D01*
Y25002D01*
X306390D01*
Y24785D01*
X306445D01*
Y24676D01*
X306499D01*
Y24567D01*
X306553D01*
Y24405D01*
X306608D01*
Y24296D01*
X306662D01*
Y24133D01*
X306716D01*
Y23916D01*
X306770D01*
Y23807D01*
X306825D01*
Y23645D01*
X306879D01*
Y23373D01*
X306933D01*
Y23265D01*
X306988D01*
Y23156D01*
X307042D01*
Y22830D01*
X307096D01*
Y22668D01*
X307150D01*
Y22505D01*
X307205D01*
Y22179D01*
X307259D01*
Y21962D01*
X307313D01*
Y21853D01*
X307368D01*
Y21256D01*
X307422D01*
Y20279D01*
X307476D01*
Y19845D01*
X307422D01*
Y18705D01*
X307368D01*
Y17293D01*
X307313D01*
Y16913D01*
X307259D01*
Y16425D01*
X307205D01*
Y15991D01*
X307259D01*
Y15936D01*
X307313D01*
Y15882D01*
X307422D01*
Y15828D01*
X307910D01*
Y15774D01*
X308073D01*
Y15719D01*
X308182D01*
Y15665D01*
X308236D01*
Y15611D01*
X308779D01*
Y15665D01*
X308942D01*
Y15719D01*
X309105D01*
Y15774D01*
X309268D01*
Y15828D01*
X309376D01*
Y15882D01*
X309485D01*
Y15936D01*
X309648D01*
Y15991D01*
X309756D01*
Y16045D01*
X309810D01*
Y16099D01*
X309973D01*
Y16154D01*
X310027D01*
Y16208D01*
X310136D01*
Y16262D01*
X310245D01*
Y16316D01*
X310353D01*
Y16371D01*
X310462D01*
Y16425D01*
X310516D01*
Y16479D01*
X310625D01*
Y16533D01*
X310679D01*
Y16588D01*
X310733D01*
Y16642D01*
X310787D01*
Y17022D01*
X310733D01*
Y17402D01*
X310679D01*
Y17511D01*
X310625D01*
Y17673D01*
X310570D01*
Y17945D01*
X310516D01*
Y18053D01*
X310462D01*
Y18216D01*
X310407D01*
Y18488D01*
X310353D01*
Y18596D01*
X310299D01*
Y18759D01*
X310245D01*
Y19030D01*
X310190D01*
Y19248D01*
X310136D01*
Y19356D01*
X310082D01*
Y19845D01*
X310027D01*
Y20225D01*
X309973D01*
Y20605D01*
X309919D01*
Y23210D01*
X309973D01*
Y23536D01*
X310027D01*
Y23807D01*
X310082D01*
Y24242D01*
X310136D01*
Y24459D01*
X310190D01*
Y24676D01*
X310245D01*
Y25110D01*
X310299D01*
Y25382D01*
X310353D01*
Y25599D01*
X310407D01*
Y26250D01*
X310462D01*
Y26630D01*
X310516D01*
Y27119D01*
X310570D01*
Y28259D01*
X310625D01*
Y28693D01*
X310679D01*
Y28964D01*
X310733D01*
Y29562D01*
X310787D01*
Y29941D01*
X310842D01*
Y30213D01*
X310896D01*
Y30593D01*
X310842D01*
Y30756D01*
X310787D01*
Y30864D01*
X310733D01*
Y30919D01*
X310679D01*
Y30973D01*
X310407D01*
Y31298D01*
X310353D01*
Y31353D01*
X310299D01*
Y31407D01*
X310245D01*
Y31516D01*
X310190D01*
Y31570D01*
X310136D01*
Y31624D01*
X310082D01*
Y31679D01*
X310027D01*
Y31787D01*
X309973D01*
Y31841D01*
X309919D01*
Y31896D01*
X309865D01*
Y32004D01*
X309810D01*
Y32058D01*
X309756D01*
Y32276D01*
X309702D01*
Y32547D01*
X309648D01*
Y32601D01*
X309702D01*
Y32873D01*
X309756D01*
Y33036D01*
X309810D01*
Y33090D01*
X309865D01*
Y33198D01*
X309919D01*
Y33253D01*
X309973D01*
Y33307D01*
X310027D01*
Y33361D01*
X310082D01*
Y33416D01*
X310136D01*
Y33470D01*
X310245D01*
Y33524D01*
X310353D01*
Y33578D01*
X310407D01*
Y33633D01*
X310516D01*
Y33687D01*
X310625D01*
Y33741D01*
X310733D01*
Y33796D01*
X310787D01*
Y33850D01*
X310896D01*
Y33904D01*
X311005D01*
Y33958D01*
X311113D01*
Y34013D01*
X311222D01*
Y34067D01*
X311276D01*
Y34121D01*
X311385D01*
Y34176D01*
X311493D01*
Y34230D01*
X311602D01*
Y34284D01*
X311710D01*
Y34338D01*
X311819D01*
Y34393D01*
X311927D01*
Y34447D01*
X312036D01*
Y34501D01*
X312199D01*
Y34555D01*
X312253D01*
Y34610D01*
X312416D01*
Y34664D01*
X312579D01*
Y34718D01*
X312687D01*
Y34773D01*
X312850D01*
Y34827D01*
X313122D01*
Y34881D01*
X313447D01*
Y34936D01*
X313773D01*
Y34990D01*
X314207D01*
Y35044D01*
X314424D01*
Y35098D01*
X314587D01*
Y35153D01*
X315184D01*
Y35098D01*
X315239D01*
Y35044D01*
X315401D01*
Y34990D01*
X315510D01*
Y35153D01*
X315347D01*
Y35261D01*
X315293D01*
Y35315D01*
X315184D01*
Y35370D01*
X315076D01*
Y35424D01*
X315021D01*
Y35478D01*
X314967D01*
Y35533D01*
X314859D01*
Y35587D01*
X314804D01*
Y35641D01*
X314696D01*
Y35696D01*
X314587D01*
Y35750D01*
X314533D01*
Y35804D01*
X314424D01*
Y35858D01*
X314370D01*
Y35913D01*
X314316D01*
Y35967D01*
X314207D01*
Y36021D01*
X314099D01*
Y36075D01*
X314044D01*
Y36130D01*
X313936D01*
Y36184D01*
X313827D01*
Y36238D01*
X313773D01*
Y36293D01*
X313719D01*
Y36347D01*
X313610D01*
Y36401D01*
X313556D01*
Y36456D01*
X313447D01*
Y36510D01*
X313339D01*
Y36564D01*
X313284D01*
Y36618D01*
X313176D01*
Y36673D01*
X313067D01*
Y36727D01*
X312959D01*
Y36781D01*
X312904D01*
Y36835D01*
X312796D01*
Y36890D01*
X312742D01*
Y36944D01*
X312633D01*
Y36998D01*
X312525D01*
Y37053D01*
X312416D01*
Y37107D01*
X312362D01*
Y37161D01*
X312090D01*
Y37215D01*
X312036D01*
Y37270D01*
X311982D01*
Y37324D01*
X311765D01*
Y37378D01*
X311602D01*
Y37487D01*
X311656D01*
Y37595D01*
X311602D01*
Y37650D01*
X311547D01*
Y37704D01*
X311385D01*
Y37758D01*
X311276D01*
Y37812D01*
X311167D01*
Y37867D01*
X310950D01*
Y37921D01*
X310896D01*
Y37975D01*
X310733D01*
Y38030D01*
X310516D01*
Y38084D01*
X310407D01*
Y38138D01*
X310299D01*
Y38193D01*
X310027D01*
Y38247D01*
X309919D01*
Y38301D01*
X309810D01*
Y38355D01*
X309485D01*
Y38410D01*
X309376D01*
Y38464D01*
X309159D01*
Y38518D01*
X308888D01*
Y38572D01*
X308670D01*
Y38627D01*
X308453D01*
Y38681D01*
X307585D01*
Y38735D01*
D02*
G37*
G36*
X299931Y35533D02*
X299605D01*
Y35315D01*
X299822D01*
Y35261D01*
X299931D01*
Y35207D01*
X300039D01*
Y35153D01*
X300474D01*
Y35098D01*
X300528D01*
Y35044D01*
X300691D01*
Y34990D01*
X300854D01*
Y35044D01*
X300908D01*
Y35098D01*
X300854D01*
Y35153D01*
X300691D01*
Y35207D01*
X300582D01*
Y35261D01*
X300528D01*
Y35315D01*
X300257D01*
Y35370D01*
X300148D01*
Y35424D01*
X300094D01*
Y35478D01*
X299931D01*
Y35533D01*
D02*
G37*
G36*
X319093Y35315D02*
X318930D01*
Y35153D01*
X318876D01*
Y35098D01*
X318821D01*
Y35044D01*
X318767D01*
Y34936D01*
X318713D01*
Y34881D01*
X318659D01*
Y34827D01*
X318604D01*
Y34773D01*
X318550D01*
Y34718D01*
X318496D01*
Y34664D01*
X318441D01*
Y34610D01*
X318387D01*
Y34555D01*
X318333D01*
Y34447D01*
X318279D01*
Y34393D01*
X318224D01*
Y34338D01*
X318170D01*
Y34284D01*
X318116D01*
Y34230D01*
X318061D01*
Y34176D01*
X318116D01*
Y34121D01*
X318224D01*
Y34176D01*
X318279D01*
Y34230D01*
X318333D01*
Y34284D01*
X318387D01*
Y34338D01*
X318441D01*
Y34393D01*
X318496D01*
Y34447D01*
X318550D01*
Y34501D01*
X318604D01*
Y34555D01*
X318659D01*
Y34610D01*
X318713D01*
Y34664D01*
X318767D01*
Y34827D01*
X318876D01*
Y34881D01*
X318930D01*
Y34990D01*
X318984D01*
Y35044D01*
X319039D01*
Y35207D01*
X319093D01*
Y35315D01*
D02*
G37*
G36*
X318061Y34121D02*
X317953D01*
Y34067D01*
X318061D01*
Y34121D01*
D02*
G37*
G36*
X314533D02*
X314424D01*
Y34067D01*
X314533D01*
Y34121D01*
D02*
G37*
G36*
X314370Y34013D02*
X314099D01*
Y33958D01*
X313990D01*
Y33904D01*
X313936D01*
Y33850D01*
X313773D01*
Y33796D01*
X313719D01*
Y33741D01*
X313610D01*
Y33687D01*
X313502D01*
Y33633D01*
X313447D01*
Y33578D01*
X313393D01*
Y33470D01*
X313284D01*
Y33361D01*
X313393D01*
Y33416D01*
X313447D01*
Y33470D01*
X313664D01*
Y33524D01*
X313773D01*
Y33578D01*
X313827D01*
Y33633D01*
X313990D01*
Y33687D01*
X314099D01*
Y33741D01*
X314153D01*
Y33796D01*
X314262D01*
Y33850D01*
X314370D01*
Y34013D01*
D02*
G37*
G36*
X301885Y33796D02*
X301668D01*
Y33741D01*
X301614D01*
Y33687D01*
X301396D01*
Y33633D01*
X301342D01*
Y33578D01*
X301288D01*
Y33524D01*
X301234D01*
Y33470D01*
X301071D01*
Y33361D01*
X300962D01*
Y33307D01*
X300908D01*
Y33253D01*
X300854D01*
Y33198D01*
X300799D01*
Y33144D01*
X300745D01*
Y33090D01*
X300691D01*
Y33036D01*
X300637D01*
Y32981D01*
X300582D01*
Y32927D01*
X300528D01*
Y32873D01*
X300474D01*
Y32819D01*
X300419D01*
Y32764D01*
X300365D01*
Y32656D01*
X300311D01*
Y32601D01*
X300257D01*
Y32493D01*
X300202D01*
Y32276D01*
X300311D01*
Y32330D01*
X300365D01*
Y32493D01*
X300419D01*
Y32547D01*
X300474D01*
Y32601D01*
X300582D01*
Y32656D01*
X300691D01*
Y32764D01*
X300745D01*
Y32927D01*
X300799D01*
Y33036D01*
X300854D01*
Y33090D01*
X300908D01*
Y33144D01*
X300962D01*
Y33198D01*
X301016D01*
Y33253D01*
X301125D01*
Y33307D01*
X301234D01*
Y33361D01*
X301342D01*
Y33416D01*
X301396D01*
Y33470D01*
X301559D01*
Y33524D01*
X301614D01*
Y33633D01*
X301722D01*
Y33687D01*
X301885D01*
Y33796D01*
D02*
G37*
G36*
X313990Y32927D02*
X313936D01*
Y32601D01*
X313990D01*
Y32547D01*
X314044D01*
Y32330D01*
X314099D01*
Y32167D01*
X314153D01*
Y32004D01*
X314207D01*
Y31896D01*
X314262D01*
Y31787D01*
X314370D01*
Y31896D01*
X314424D01*
Y32004D01*
X314370D01*
Y32221D01*
X314316D01*
Y32276D01*
X314262D01*
Y32438D01*
X314207D01*
Y32601D01*
X314153D01*
Y32656D01*
X314099D01*
Y32764D01*
X314044D01*
Y32873D01*
X313990D01*
Y32927D01*
D02*
G37*
G36*
X300202Y32276D02*
X300148D01*
Y32221D01*
X300094D01*
Y32167D01*
X300039D01*
Y31516D01*
X300094D01*
Y31298D01*
X300148D01*
Y31461D01*
X300202D01*
Y32276D01*
D02*
G37*
G36*
X301016Y28476D02*
X300908D01*
Y28421D01*
Y28367D01*
Y28150D01*
X300962D01*
Y28204D01*
X301016D01*
Y28476D01*
D02*
G37*
G36*
X300148Y28910D02*
X300094D01*
Y28639D01*
X300148D01*
Y28584D01*
X300202D01*
Y28367D01*
X300257D01*
Y28313D01*
X300311D01*
Y28259D01*
X300365D01*
Y28150D01*
X300419D01*
Y28096D01*
X300528D01*
Y28313D01*
X300474D01*
Y28367D01*
X300419D01*
Y28530D01*
X300365D01*
Y28639D01*
X300311D01*
Y28693D01*
X300257D01*
Y28747D01*
X300202D01*
Y28856D01*
X300148D01*
Y28910D01*
D02*
G37*
G36*
X311005Y28693D02*
X310950D01*
Y28476D01*
X310896D01*
Y27607D01*
X310950D01*
Y27499D01*
X311005D01*
Y27553D01*
X311059D01*
Y28313D01*
X311113D01*
Y28421D01*
X311059D01*
Y28639D01*
X311005D01*
Y28693D01*
D02*
G37*
G36*
X300148Y28096D02*
X300094D01*
Y27987D01*
X300039D01*
Y27933D01*
X299931D01*
Y27879D01*
X299876D01*
Y27662D01*
X299822D01*
Y27553D01*
X299768D01*
Y27499D01*
X299714D01*
Y27227D01*
X299822D01*
Y27282D01*
X299876D01*
Y27444D01*
X299931D01*
Y27499D01*
X299985D01*
Y27553D01*
X300039D01*
Y27824D01*
X300094D01*
Y27933D01*
X300148D01*
Y28096D01*
D02*
G37*
G36*
X298899Y26467D02*
X298737D01*
Y26413D01*
X298628D01*
Y26359D01*
X298574D01*
Y26305D01*
X298519D01*
Y26250D01*
X298465D01*
Y26196D01*
X298411D01*
Y26142D01*
X298357D01*
Y26087D01*
X298302D01*
Y26033D01*
X298248D01*
Y25979D01*
X298194D01*
Y25924D01*
X298139D01*
Y25870D01*
X298085D01*
Y25816D01*
X298031D01*
Y25707D01*
X298085D01*
Y25653D01*
X298139D01*
Y25707D01*
X298194D01*
Y25762D01*
X298248D01*
Y25816D01*
X298411D01*
Y25870D01*
X298628D01*
Y25924D01*
X298682D01*
Y26033D01*
X298737D01*
Y26196D01*
X298791D01*
Y26305D01*
X298845D01*
Y26359D01*
X298899D01*
Y26467D01*
D02*
G37*
G36*
X311005Y26522D02*
X310950D01*
Y26413D01*
X310896D01*
Y26087D01*
X310842D01*
Y25924D01*
X310787D01*
Y25816D01*
X310733D01*
Y25545D01*
Y25490D01*
X310787D01*
Y25382D01*
X310842D01*
Y25490D01*
X310896D01*
Y25707D01*
X310950D01*
Y25816D01*
X311005D01*
Y25924D01*
X311059D01*
Y26467D01*
X311005D01*
Y26522D01*
D02*
G37*
G36*
X297651Y25490D02*
X297597D01*
Y25436D01*
X297488D01*
Y25382D01*
X297434D01*
Y25327D01*
X297379D01*
Y25273D01*
X297325D01*
Y25219D01*
X297271D01*
Y25164D01*
X297217D01*
Y25110D01*
X297162D01*
Y25056D01*
X297217D01*
Y24893D01*
X297271D01*
Y24839D01*
X297325D01*
Y24893D01*
X297379D01*
Y25056D01*
X297434D01*
Y25110D01*
X297759D01*
Y25164D01*
X297868D01*
Y25219D01*
Y25273D01*
X297814D01*
Y25327D01*
X297759D01*
Y25382D01*
X297705D01*
Y25436D01*
X297651D01*
Y25490D01*
D02*
G37*
G36*
X305848Y25436D02*
X305739D01*
Y25164D01*
Y25110D01*
X305793D01*
Y25056D01*
X305848D01*
Y24947D01*
X305902D01*
Y24676D01*
X305956D01*
Y24622D01*
X306010D01*
Y24676D01*
X306065D01*
Y24947D01*
X306010D01*
Y25056D01*
X305956D01*
Y25110D01*
X305902D01*
Y25327D01*
X305848D01*
Y25436D01*
D02*
G37*
G36*
X300528Y25599D02*
X300419D01*
Y25545D01*
Y25490D01*
X300365D01*
Y25164D01*
X300311D01*
Y25110D01*
X300257D01*
Y24893D01*
X300202D01*
Y24676D01*
X300257D01*
Y24567D01*
X300365D01*
Y24947D01*
X300419D01*
Y25056D01*
X300474D01*
Y25110D01*
X300528D01*
Y25599D01*
D02*
G37*
G36*
X310679Y24947D02*
X310625D01*
Y24839D01*
X310570D01*
Y24350D01*
X310516D01*
Y24133D01*
X310462D01*
Y23862D01*
X310407D01*
Y23428D01*
X310462D01*
Y23373D01*
X310516D01*
Y23590D01*
X310570D01*
Y23970D01*
X310625D01*
Y24025D01*
X310679D01*
Y24350D01*
X310733D01*
Y24785D01*
X310679D01*
Y24839D01*
Y24947D01*
D02*
G37*
G36*
X296999Y24676D02*
X296945D01*
Y24622D01*
X296891D01*
Y24567D01*
X296837D01*
Y24513D01*
X296782D01*
Y24459D01*
X296728D01*
Y24405D01*
X296674D01*
Y24296D01*
X296565D01*
Y24188D01*
X296511D01*
Y24025D01*
X296457D01*
Y23970D01*
X296402D01*
Y23916D01*
X296348D01*
Y23699D01*
X296294D01*
Y23645D01*
X296239D01*
Y23590D01*
X296185D01*
Y23210D01*
X296239D01*
Y23156D01*
X296457D01*
Y23102D01*
X296782D01*
Y23047D01*
X296891D01*
Y22993D01*
X297108D01*
Y22939D01*
X297325D01*
Y22885D01*
X297434D01*
Y22830D01*
X297868D01*
Y22939D01*
X297759D01*
Y22993D01*
X297488D01*
Y23047D01*
X297434D01*
Y23102D01*
X297325D01*
Y23156D01*
X297108D01*
Y23210D01*
X296999D01*
Y23265D01*
X296891D01*
Y23319D01*
X296674D01*
Y23373D01*
X296565D01*
Y23428D01*
X296511D01*
Y23482D01*
X296457D01*
Y23536D01*
X296402D01*
Y23645D01*
X296511D01*
Y23753D01*
X296565D01*
Y23916D01*
X296674D01*
Y24025D01*
X296728D01*
Y24133D01*
X296782D01*
Y24188D01*
X296837D01*
Y24296D01*
X296891D01*
Y24405D01*
X296945D01*
Y24459D01*
X296999D01*
Y24567D01*
X297054D01*
Y24622D01*
X296999D01*
Y24676D01*
D02*
G37*
G36*
X297325Y22613D02*
X296945D01*
Y22505D01*
X297271D01*
Y22450D01*
X297325D01*
Y22505D01*
X297379D01*
Y22559D01*
X297325D01*
Y22613D01*
D02*
G37*
G36*
X297488Y22505D02*
X297434D01*
Y22450D01*
X297379D01*
Y22396D01*
X297434D01*
Y22342D01*
X297488D01*
Y22287D01*
X297542D01*
Y22233D01*
X297597D01*
Y22179D01*
X297705D01*
Y22233D01*
X297759D01*
Y22287D01*
X297705D01*
Y22396D01*
X297651D01*
Y22450D01*
X297488D01*
Y22505D01*
D02*
G37*
G36*
X317519Y22885D02*
X317464D01*
Y22776D01*
X317410D01*
Y22505D01*
X317464D01*
Y22396D01*
X317519D01*
Y22342D01*
X317573D01*
Y22070D01*
X317627D01*
Y22016D01*
X317736D01*
Y22342D01*
X317681D01*
Y22396D01*
X317627D01*
Y22505D01*
X317573D01*
Y22830D01*
X317519D01*
Y22885D01*
D02*
G37*
G36*
X294991Y22450D02*
X294828D01*
Y22396D01*
X294774D01*
Y22342D01*
X294720D01*
Y22287D01*
X294665D01*
Y22233D01*
X294611D01*
Y22179D01*
X294557D01*
Y22125D01*
X294503D01*
Y22070D01*
X294448D01*
Y22016D01*
X294340D01*
Y21962D01*
X294285D01*
Y22016D01*
X294231D01*
Y22070D01*
X294177D01*
Y22125D01*
X294123D01*
Y22179D01*
X293960D01*
Y22233D01*
X293634D01*
Y22287D01*
X293580D01*
Y22233D01*
X293525D01*
Y22179D01*
X293471D01*
Y22125D01*
X293417D01*
Y22016D01*
X293471D01*
Y21962D01*
X293580D01*
Y21908D01*
X293797D01*
Y21853D01*
X293905D01*
Y21799D01*
X294123D01*
Y21745D01*
X294177D01*
Y21690D01*
X294231D01*
Y21636D01*
X294285D01*
Y21582D01*
X294340D01*
Y21528D01*
X294394D01*
Y21473D01*
X294448D01*
Y21419D01*
X294503D01*
Y21365D01*
X294557D01*
Y21310D01*
X294611D01*
Y21256D01*
X294665D01*
Y21148D01*
X294720D01*
Y20931D01*
X294774D01*
Y20876D01*
X294828D01*
Y20768D01*
X294882D01*
Y20713D01*
X294937D01*
Y20659D01*
X295045D01*
Y20605D01*
X295534D01*
Y20550D01*
X295751D01*
Y20496D01*
X295968D01*
Y20442D01*
X296185D01*
Y20388D01*
X296239D01*
Y20333D01*
X296348D01*
Y20279D01*
X296402D01*
Y20225D01*
X296457D01*
Y20171D01*
X296511D01*
Y20116D01*
X296565D01*
Y20062D01*
X296619D01*
Y20008D01*
X296674D01*
Y19953D01*
X296728D01*
Y19845D01*
X296782D01*
Y19791D01*
X296837D01*
Y19682D01*
X296891D01*
Y19628D01*
X296945D01*
Y19519D01*
X296999D01*
Y19411D01*
X297054D01*
Y19302D01*
X297108D01*
Y19193D01*
X297162D01*
Y19085D01*
X297217D01*
Y18922D01*
X297271D01*
Y18868D01*
X297325D01*
Y18922D01*
X297379D01*
Y19573D01*
X297325D01*
Y19736D01*
X297271D01*
Y19791D01*
X297217D01*
Y19845D01*
X297162D01*
Y19899D01*
X297108D01*
Y19953D01*
X297054D01*
Y20008D01*
X296999D01*
Y20062D01*
X296945D01*
Y20116D01*
X296891D01*
Y20171D01*
X296837D01*
Y20225D01*
X296728D01*
Y20279D01*
X296674D01*
Y20333D01*
X296619D01*
Y20388D01*
X296565D01*
Y20442D01*
X296511D01*
Y20496D01*
X296457D01*
Y20550D01*
X296402D01*
Y20605D01*
X296348D01*
Y20659D01*
X296239D01*
Y20713D01*
X296077D01*
Y20768D01*
X295642D01*
Y20822D01*
X295100D01*
Y20876D01*
X295045D01*
Y20985D01*
X294991D01*
Y21039D01*
X294937D01*
Y21093D01*
X294882D01*
Y21256D01*
X294828D01*
Y21365D01*
X294774D01*
Y21419D01*
X294720D01*
Y21636D01*
X294665D01*
Y21908D01*
X294720D01*
Y21962D01*
X294774D01*
Y22016D01*
X294828D01*
Y22070D01*
X295045D01*
Y21962D01*
X295100D01*
Y22016D01*
X295208D01*
Y22125D01*
X295154D01*
Y22233D01*
X295100D01*
Y22287D01*
X295045D01*
Y22396D01*
X294991D01*
Y22450D01*
D02*
G37*
G36*
X310353Y21799D02*
X310299D01*
Y21636D01*
X310353D01*
Y21745D01*
Y21799D01*
D02*
G37*
G36*
X299008Y22396D02*
X298954D01*
Y22342D01*
X298899D01*
Y21962D01*
X298845D01*
Y21799D01*
X298791D01*
Y21745D01*
X298737D01*
Y21256D01*
X298845D01*
Y21419D01*
X298899D01*
Y21690D01*
X298954D01*
Y21799D01*
X299008D01*
Y21908D01*
Y21962D01*
Y22396D01*
D02*
G37*
G36*
X320884Y22016D02*
X320178D01*
Y21962D01*
X320070D01*
Y21908D01*
X320016D01*
Y21853D01*
X319961D01*
Y21799D01*
X319907D01*
Y21690D01*
X319853D01*
Y21528D01*
Y21473D01*
Y21365D01*
X319907D01*
Y21256D01*
X319961D01*
Y21202D01*
X320070D01*
Y21148D01*
X320613D01*
Y21202D01*
X320721D01*
Y21256D01*
X320830D01*
Y21310D01*
X320938D01*
Y21365D01*
X320993D01*
Y21473D01*
X321047D01*
Y21528D01*
X321101D01*
Y21853D01*
X321047D01*
Y21908D01*
X320993D01*
Y21962D01*
X320884D01*
Y22016D01*
D02*
G37*
G36*
X319744Y22613D02*
X319636D01*
Y22559D01*
X319581D01*
Y22505D01*
X319527D01*
Y22450D01*
X319473D01*
Y22396D01*
X319418D01*
Y22287D01*
X319364D01*
Y22233D01*
X319310D01*
Y22125D01*
X319256D01*
Y22070D01*
X319201D01*
Y22016D01*
X319147D01*
Y21962D01*
X319093D01*
Y21799D01*
X319039D01*
Y21745D01*
X318984D01*
Y21690D01*
X318930D01*
Y21582D01*
X318876D01*
Y21473D01*
X318821D01*
Y21365D01*
X318767D01*
Y21202D01*
X318821D01*
Y21148D01*
X318984D01*
Y21202D01*
X319039D01*
Y21256D01*
X319093D01*
Y21636D01*
X319147D01*
Y21690D01*
X319201D01*
Y21799D01*
X319256D01*
Y21908D01*
X319310D01*
Y21962D01*
X319364D01*
Y22016D01*
X319418D01*
Y22070D01*
X319473D01*
Y22125D01*
X319527D01*
Y22179D01*
X319581D01*
Y22287D01*
X319636D01*
Y22342D01*
X319690D01*
Y22396D01*
X319744D01*
Y22505D01*
X319798D01*
Y22559D01*
X319744D01*
Y22613D01*
D02*
G37*
G36*
X299822Y22993D02*
X299768D01*
Y22885D01*
X299714D01*
Y22559D01*
X299605D01*
Y22450D01*
X299551D01*
Y22179D01*
X299496D01*
Y21853D01*
X299442D01*
Y21745D01*
X299388D01*
Y21148D01*
X299496D01*
Y21256D01*
X299551D01*
Y21690D01*
X299605D01*
Y21799D01*
X299659D01*
Y21908D01*
X299714D01*
Y21962D01*
Y22016D01*
Y22505D01*
X299768D01*
Y22559D01*
X299822D01*
Y22993D01*
D02*
G37*
G36*
X293525Y21745D02*
X293145D01*
Y21690D01*
X293037D01*
Y21636D01*
X292928D01*
Y21582D01*
X292874D01*
Y21365D01*
X292928D01*
Y21310D01*
X293037D01*
Y21256D01*
X293254D01*
Y21202D01*
X293417D01*
Y21148D01*
X294123D01*
Y21202D01*
X294177D01*
Y21256D01*
X294123D01*
Y21310D01*
Y21473D01*
X294014D01*
Y21528D01*
X293960D01*
Y21582D01*
X293851D01*
Y21636D01*
X293743D01*
Y21690D01*
X293525D01*
Y21745D01*
D02*
G37*
G36*
X292711Y21202D02*
X292603D01*
Y21148D01*
X292548D01*
Y20550D01*
X292603D01*
Y20333D01*
X292765D01*
Y20279D01*
X292820D01*
Y20333D01*
X292983D01*
Y20442D01*
X293037D01*
Y20605D01*
X293091D01*
Y20659D01*
X293200D01*
Y20605D01*
X294177D01*
Y20550D01*
X294231D01*
Y20496D01*
X294340D01*
Y20550D01*
X294394D01*
Y20659D01*
X294448D01*
Y20931D01*
X294340D01*
Y20985D01*
X294177D01*
Y20931D01*
X294014D01*
Y20876D01*
X293851D01*
Y20822D01*
X293308D01*
Y20876D01*
X293200D01*
Y20931D01*
X293091D01*
Y20985D01*
X292983D01*
Y21039D01*
X292928D01*
Y21093D01*
X292874D01*
Y21148D01*
X292711D01*
Y21202D01*
D02*
G37*
G36*
X291843Y20876D02*
X291625D01*
Y20822D01*
X291463D01*
Y20768D01*
X291408D01*
Y20659D01*
X291354D01*
Y20116D01*
X291408D01*
Y20062D01*
X291463D01*
Y20116D01*
X291517D01*
Y20333D01*
X291571D01*
Y20496D01*
X291625D01*
Y20550D01*
X291680D01*
Y20605D01*
X291897D01*
Y20496D01*
X291843D01*
Y20442D01*
X291788D01*
Y20333D01*
X291897D01*
Y20279D01*
X292005D01*
Y20333D01*
X292060D01*
Y20388D01*
X292168D01*
Y20442D01*
X292277D01*
Y20496D01*
X292331D01*
Y20659D01*
X292277D01*
Y20713D01*
X292223D01*
Y20768D01*
X292168D01*
Y20822D01*
X291843D01*
Y20876D01*
D02*
G37*
G36*
X295805Y20279D02*
X295317D01*
Y20225D01*
X295262D01*
Y20171D01*
X295208D01*
Y20116D01*
X295154D01*
Y20062D01*
X295100D01*
Y20008D01*
X295045D01*
Y19845D01*
X294991D01*
Y19682D01*
X294937D01*
Y19465D01*
X294991D01*
Y19411D01*
X295154D01*
Y19465D01*
X295262D01*
Y19519D01*
X295317D01*
Y19573D01*
X295371D01*
Y19682D01*
X295425D01*
Y19845D01*
X295480D01*
Y19899D01*
X295534D01*
Y19953D01*
X295588D01*
Y20008D01*
X295860D01*
Y19953D01*
X296131D01*
Y20008D01*
X296185D01*
Y20062D01*
X296131D01*
Y20116D01*
X296022D01*
Y20171D01*
X295860D01*
Y20225D01*
X295805D01*
Y20279D01*
D02*
G37*
G36*
X318441Y20333D02*
X318061D01*
Y20279D01*
X318007D01*
Y20171D01*
X318116D01*
Y20116D01*
X318333D01*
Y20062D01*
X318387D01*
Y20008D01*
X318441D01*
Y19953D01*
X318550D01*
Y19899D01*
X318659D01*
Y19845D01*
X318713D01*
Y19791D01*
X318876D01*
Y20008D01*
X318767D01*
Y20062D01*
X318713D01*
Y20116D01*
X318659D01*
Y20171D01*
X318604D01*
Y20225D01*
X318550D01*
Y20279D01*
X318441D01*
Y20333D01*
D02*
G37*
G36*
X317356Y20605D02*
X317301D01*
Y20442D01*
X317247D01*
Y19628D01*
X317301D01*
Y19465D01*
X317356D01*
Y19573D01*
X317410D01*
Y20388D01*
X317356D01*
Y20442D01*
Y20605D01*
D02*
G37*
G36*
X290920Y20822D02*
X290703D01*
Y20333D01*
X290648D01*
Y20171D01*
X290594D01*
Y20116D01*
X290540D01*
Y20062D01*
X290485D01*
Y20008D01*
X290431D01*
Y19899D01*
X290377D01*
Y19845D01*
X290323D01*
Y19791D01*
X290214D01*
Y19736D01*
X290160D01*
Y19682D01*
X290105D01*
Y19628D01*
X290051D01*
Y19573D01*
X289997D01*
Y19465D01*
X290160D01*
Y19519D01*
X290214D01*
Y19573D01*
X290268D01*
Y19628D01*
X290323D01*
Y19682D01*
X290431D01*
Y19736D01*
X290485D01*
Y19791D01*
X290594D01*
Y19845D01*
X290648D01*
Y19899D01*
X290703D01*
Y19953D01*
X290757D01*
Y20008D01*
X290811D01*
Y20062D01*
X290865D01*
Y20116D01*
X290920D01*
Y20171D01*
X290974D01*
Y20225D01*
X291028D01*
Y20333D01*
X291083D01*
Y20605D01*
X291028D01*
Y20713D01*
X290974D01*
Y20768D01*
X290920D01*
Y20822D01*
D02*
G37*
G36*
X318170Y19899D02*
X318007D01*
Y19845D01*
X317953D01*
Y19736D01*
X317899D01*
Y19030D01*
X317953D01*
Y18813D01*
X318116D01*
Y18868D01*
X318224D01*
Y19030D01*
X318279D01*
Y19248D01*
X318333D01*
Y19628D01*
X318279D01*
Y19791D01*
X318224D01*
Y19845D01*
X318170D01*
Y19899D01*
D02*
G37*
G36*
X296077Y19791D02*
X295805D01*
Y19736D01*
X295751D01*
Y19682D01*
X295697D01*
Y19248D01*
X295751D01*
Y19193D01*
X295805D01*
Y19085D01*
X295860D01*
Y18922D01*
X295914D01*
Y18813D01*
X295968D01*
Y18759D01*
X296022D01*
Y18705D01*
X296077D01*
Y18651D01*
X296131D01*
Y18596D01*
X296185D01*
Y18542D01*
X296239D01*
Y18488D01*
X296457D01*
Y18542D01*
X296511D01*
Y18596D01*
X296565D01*
Y19193D01*
X296511D01*
Y19302D01*
X296457D01*
Y19356D01*
X296402D01*
Y19465D01*
X296348D01*
Y19519D01*
X296294D01*
Y19573D01*
X296239D01*
Y19628D01*
X296185D01*
Y19682D01*
X296131D01*
Y19736D01*
X296077D01*
Y19791D01*
D02*
G37*
G36*
X298682Y20225D02*
X298574D01*
Y19356D01*
X298628D01*
Y19248D01*
X298682D01*
Y18542D01*
X298737D01*
Y18433D01*
X298791D01*
Y18325D01*
X298845D01*
Y18053D01*
X298899D01*
Y17945D01*
X298954D01*
Y17891D01*
X299116D01*
Y17999D01*
X299062D01*
Y18379D01*
X299008D01*
Y18488D01*
X298954D01*
Y18651D01*
X298899D01*
Y19030D01*
X298845D01*
Y19248D01*
X298791D01*
Y19356D01*
X298737D01*
Y19628D01*
X298682D01*
Y20171D01*
Y20225D01*
D02*
G37*
G36*
X295480Y19302D02*
X295371D01*
Y19248D01*
X295262D01*
Y18976D01*
X295317D01*
Y18922D01*
Y18868D01*
Y18813D01*
X295371D01*
Y18705D01*
X295425D01*
Y18651D01*
X295480D01*
Y18596D01*
X295534D01*
Y18488D01*
X295588D01*
Y18433D01*
X295642D01*
Y18379D01*
X295697D01*
Y18325D01*
X295751D01*
Y18271D01*
X295805D01*
Y18216D01*
X295860D01*
Y18162D01*
X295914D01*
Y18108D01*
X296022D01*
Y18053D01*
X296077D01*
Y17999D01*
X296131D01*
Y17945D01*
X296348D01*
Y17891D01*
X296402D01*
Y17836D01*
X296511D01*
Y17891D01*
X296565D01*
Y17945D01*
X296619D01*
Y17999D01*
X296728D01*
Y18053D01*
X296837D01*
Y18162D01*
X296891D01*
Y18325D01*
X296837D01*
Y18433D01*
X296728D01*
Y18325D01*
X296674D01*
Y18271D01*
X296619D01*
Y18216D01*
X296294D01*
Y18271D01*
X296131D01*
Y18325D01*
X295968D01*
Y18379D01*
X295914D01*
Y18433D01*
X295860D01*
Y18488D01*
X295805D01*
Y18542D01*
X295751D01*
Y18651D01*
X295697D01*
Y18759D01*
X295642D01*
Y18868D01*
X295588D01*
Y18922D01*
X295534D01*
Y19248D01*
X295480D01*
Y19302D01*
D02*
G37*
G36*
X310842Y18651D02*
X310787D01*
Y18325D01*
X310842D01*
Y18216D01*
X310896D01*
Y17891D01*
X310950D01*
Y17782D01*
X311005D01*
Y17836D01*
X311059D01*
Y17999D01*
Y18053D01*
Y18271D01*
X311005D01*
Y18325D01*
X310950D01*
Y18379D01*
X310896D01*
Y18542D01*
X310842D01*
Y18651D01*
D02*
G37*
G36*
X299334Y19953D02*
X299225D01*
Y19736D01*
X299171D01*
Y19356D01*
X299225D01*
Y18976D01*
X299279D01*
Y18868D01*
X299334D01*
Y18651D01*
X299388D01*
Y18433D01*
X299442D01*
Y18379D01*
X299496D01*
Y18216D01*
X299551D01*
Y18053D01*
X299605D01*
Y17945D01*
X299659D01*
Y17891D01*
X299714D01*
Y17673D01*
X299768D01*
Y17619D01*
X299822D01*
Y17511D01*
X299876D01*
Y17348D01*
X299931D01*
Y17293D01*
X299985D01*
Y17239D01*
X300039D01*
Y17076D01*
X300094D01*
Y17022D01*
X300148D01*
Y16968D01*
X300202D01*
Y16913D01*
X300257D01*
Y16859D01*
X300365D01*
Y16968D01*
X300311D01*
Y17022D01*
X300257D01*
Y17076D01*
X300202D01*
Y17293D01*
X300148D01*
Y17348D01*
X300094D01*
Y17456D01*
X300039D01*
Y17511D01*
Y17619D01*
X299985D01*
Y17673D01*
X299931D01*
Y17728D01*
X299876D01*
Y17945D01*
X299822D01*
Y18053D01*
X299768D01*
Y18108D01*
X299714D01*
Y18325D01*
X299659D01*
Y18433D01*
X299605D01*
Y18488D01*
X299551D01*
Y18922D01*
X299496D01*
Y19030D01*
X299442D01*
Y19193D01*
X299388D01*
Y19736D01*
X299334D01*
Y19953D01*
D02*
G37*
G36*
X297488Y18433D02*
X297379D01*
Y18379D01*
X297325D01*
Y18325D01*
X297271D01*
Y18271D01*
X297217D01*
Y18108D01*
X297162D01*
Y17402D01*
X297217D01*
Y17131D01*
X297271D01*
Y17076D01*
X297325D01*
Y17022D01*
X297379D01*
Y16751D01*
X297434D01*
Y16696D01*
X297488D01*
Y16751D01*
X297542D01*
Y17022D01*
X297488D01*
Y17076D01*
X297434D01*
Y17185D01*
X297379D01*
Y17456D01*
Y17511D01*
Y18108D01*
X297434D01*
Y18162D01*
X297488D01*
Y18433D01*
D02*
G37*
G36*
X317736Y16479D02*
X317193D01*
Y16371D01*
X317247D01*
Y16316D01*
X317410D01*
Y16262D01*
X317627D01*
Y16208D01*
X317736D01*
Y16154D01*
X317899D01*
Y16099D01*
X318333D01*
Y16045D01*
X318496D01*
Y16099D01*
X318387D01*
Y16208D01*
X318333D01*
Y16262D01*
X318224D01*
Y16316D01*
X317953D01*
Y16371D01*
X317844D01*
Y16425D01*
X317736D01*
Y16479D01*
D02*
G37*
G36*
X289183Y18053D02*
X289020D01*
Y17999D01*
X288911D01*
Y17891D01*
X288857D01*
Y16642D01*
Y16588D01*
Y16479D01*
X288911D01*
Y16425D01*
X288966D01*
Y16316D01*
X289020D01*
Y16154D01*
X289074D01*
Y16099D01*
X289183D01*
Y16045D01*
X289291D01*
Y16099D01*
X289346D01*
Y16262D01*
X289291D01*
Y16316D01*
X289237D01*
Y16371D01*
X289183D01*
Y16425D01*
X289128D01*
Y16479D01*
X289074D01*
Y16533D01*
X289020D01*
Y16968D01*
X288966D01*
Y17348D01*
X289020D01*
Y17673D01*
X289074D01*
Y17728D01*
X289128D01*
Y17836D01*
X289183D01*
Y18053D01*
D02*
G37*
G36*
X322133Y19628D02*
X321535D01*
Y19573D01*
X321373D01*
Y19519D01*
X321156D01*
Y19465D01*
X320993D01*
Y19411D01*
X320938D01*
Y19356D01*
X320830D01*
Y19302D01*
X320775D01*
Y19248D01*
X320721D01*
Y19193D01*
X320613D01*
Y19139D01*
X320558D01*
Y19085D01*
X320504D01*
Y19030D01*
X320450D01*
Y18976D01*
X320396D01*
Y18922D01*
X320287D01*
Y18868D01*
X320233D01*
Y18813D01*
X320178D01*
Y18759D01*
X320070D01*
Y18705D01*
X320016D01*
Y18651D01*
X319907D01*
Y18596D01*
X319853D01*
Y18542D01*
X319798D01*
Y18488D01*
X319744D01*
Y18379D01*
X319690D01*
Y18325D01*
X319636D01*
Y18216D01*
X319581D01*
Y18108D01*
X319527D01*
Y18053D01*
X319473D01*
Y17945D01*
X319418D01*
Y17836D01*
X319364D01*
Y17728D01*
X319310D01*
Y17619D01*
X319256D01*
Y17511D01*
X319201D01*
Y17293D01*
X319147D01*
Y17185D01*
X319093D01*
Y16913D01*
Y16859D01*
X319039D01*
Y16805D01*
X318984D01*
Y16751D01*
X318930D01*
Y16696D01*
X318984D01*
Y16642D01*
X319093D01*
Y16588D01*
X319201D01*
Y16533D01*
X319310D01*
Y16479D01*
X319364D01*
Y16425D01*
X319473D01*
Y16371D01*
X319527D01*
Y16262D01*
X319581D01*
Y16099D01*
X319690D01*
Y15936D01*
X319744D01*
Y15719D01*
X319798D01*
Y15665D01*
X319853D01*
Y15556D01*
X319907D01*
Y15502D01*
X319961D01*
Y15448D01*
X320016D01*
Y15394D01*
X320070D01*
Y15339D01*
X320124D01*
Y15285D01*
X320233D01*
Y15231D01*
X320341D01*
Y15176D01*
X320396D01*
Y15122D01*
X320938D01*
Y15176D01*
X321047D01*
Y15231D01*
X321590D01*
Y15285D01*
X321861D01*
Y15339D01*
X321916D01*
Y15394D01*
X321970D01*
Y15448D01*
X322078D01*
Y15556D01*
X322133D01*
Y15665D01*
X322241D01*
Y15611D01*
X322567D01*
Y15665D01*
X322621D01*
Y15719D01*
X322730D01*
Y15774D01*
X322784D01*
Y15828D01*
X322838D01*
Y15882D01*
X322947D01*
Y15936D01*
X323001D01*
Y15991D01*
X323055D01*
Y16045D01*
X323110D01*
Y16099D01*
X323164D01*
Y16154D01*
X323218D01*
Y16208D01*
X323273D01*
Y16262D01*
X323327D01*
Y16316D01*
X323381D01*
Y16371D01*
X323435D01*
Y16533D01*
X323490D01*
Y16696D01*
X323544D01*
Y16913D01*
X323598D01*
Y17293D01*
X323652D01*
Y17402D01*
X323707D01*
Y17565D01*
X323761D01*
Y17619D01*
X323707D01*
Y17836D01*
X323652D01*
Y18053D01*
X323598D01*
Y18379D01*
X323544D01*
Y18488D01*
X323490D01*
Y18596D01*
X323435D01*
Y18759D01*
X323381D01*
Y18813D01*
X323327D01*
Y18922D01*
X323273D01*
Y18976D01*
X323218D01*
Y19030D01*
X323164D01*
Y19085D01*
X323055D01*
Y19139D01*
X323001D01*
Y19193D01*
X322947D01*
Y19248D01*
X322893D01*
Y19302D01*
X322730D01*
Y19356D01*
X322675D01*
Y19411D01*
X322567D01*
Y19465D01*
X322404D01*
Y19519D01*
X322241D01*
Y19573D01*
X322133D01*
Y19628D01*
D02*
G37*
G36*
X299496Y17402D02*
X299388D01*
Y17185D01*
X299442D01*
Y17131D01*
X299496D01*
Y17076D01*
X299551D01*
Y16859D01*
X299605D01*
Y16805D01*
X299659D01*
Y16751D01*
X299714D01*
Y16533D01*
X299768D01*
Y16479D01*
X299822D01*
Y16425D01*
X299876D01*
Y16208D01*
X299931D01*
Y16099D01*
X299985D01*
Y16045D01*
X300039D01*
Y15882D01*
X299985D01*
Y15828D01*
X299931D01*
Y15774D01*
X299876D01*
Y15665D01*
X299768D01*
Y15611D01*
X299496D01*
Y15556D01*
X299334D01*
Y15502D01*
X298791D01*
Y15448D01*
X298682D01*
Y15285D01*
X298737D01*
Y15231D01*
X298845D01*
Y15285D01*
X299388D01*
Y15339D01*
X299496D01*
Y15394D01*
X299551D01*
Y15448D01*
X299822D01*
Y15502D01*
X299876D01*
Y15556D01*
X299985D01*
Y15611D01*
X300039D01*
Y15665D01*
X300148D01*
Y15719D01*
X300202D01*
Y16154D01*
X300148D01*
Y16208D01*
X300094D01*
Y16316D01*
X300039D01*
Y16479D01*
X299985D01*
Y16533D01*
X299931D01*
Y16642D01*
X299876D01*
Y16805D01*
X299822D01*
Y16859D01*
X299768D01*
Y16913D01*
X299714D01*
Y17076D01*
X299659D01*
Y17131D01*
X299605D01*
Y17185D01*
X299551D01*
Y17348D01*
X299496D01*
Y17402D01*
D02*
G37*
G36*
X307856Y15502D02*
X307639D01*
Y15339D01*
X307693D01*
Y15285D01*
X307856D01*
Y15231D01*
X307910D01*
Y15176D01*
X308019D01*
Y15394D01*
X307965D01*
Y15448D01*
X307856D01*
Y15502D01*
D02*
G37*
G36*
X315564Y15882D02*
X315456D01*
Y15828D01*
X315293D01*
Y15774D01*
X315239D01*
Y15665D01*
X315347D01*
Y15611D01*
X315944D01*
Y15556D01*
X315999D01*
Y15502D01*
X316053D01*
Y15394D01*
X316107D01*
Y15339D01*
X316161D01*
Y15285D01*
X316216D01*
Y14905D01*
X316270D01*
Y14851D01*
X316379D01*
Y14959D01*
X316433D01*
Y15339D01*
X316379D01*
Y15448D01*
X316324D01*
Y15502D01*
X316270D01*
Y15556D01*
X316216D01*
Y15611D01*
X316107D01*
Y15665D01*
X316053D01*
Y15719D01*
X315999D01*
Y15774D01*
X315836D01*
Y15828D01*
X315564D01*
Y15882D01*
D02*
G37*
G36*
X310516Y15502D02*
X310462D01*
Y15448D01*
X310407D01*
Y14851D01*
X310462D01*
Y14797D01*
X310570D01*
Y14742D01*
X310625D01*
Y14688D01*
X310787D01*
Y14742D01*
X310733D01*
Y14959D01*
X310679D01*
Y15014D01*
X310625D01*
Y15448D01*
X310516D01*
Y15502D01*
D02*
G37*
G36*
X301179Y14905D02*
X300637D01*
Y14851D01*
X300691D01*
Y14797D01*
X300799D01*
Y14742D01*
X300908D01*
Y14688D01*
X301451D01*
Y14742D01*
X301396D01*
Y14797D01*
X301288D01*
Y14851D01*
X301179D01*
Y14905D01*
D02*
G37*
G36*
X300637Y15502D02*
X300582D01*
Y15448D01*
X300419D01*
Y15394D01*
X300311D01*
Y15339D01*
X300202D01*
Y15285D01*
X300094D01*
Y15231D01*
X300039D01*
Y15176D01*
X299985D01*
Y15122D01*
X299931D01*
Y15068D01*
X299876D01*
Y15014D01*
X299822D01*
Y14959D01*
X299768D01*
Y14905D01*
X299714D01*
Y14579D01*
X299876D01*
Y14688D01*
X299931D01*
Y14742D01*
X299985D01*
Y14797D01*
X300039D01*
Y14851D01*
X300094D01*
Y14905D01*
X300148D01*
Y14959D01*
X300202D01*
Y15014D01*
X300257D01*
Y15068D01*
X300311D01*
Y15122D01*
X300419D01*
Y15176D01*
X300474D01*
Y15231D01*
X300582D01*
Y15285D01*
X300691D01*
Y15339D01*
X300745D01*
Y15448D01*
X300637D01*
Y15502D01*
D02*
G37*
G36*
X319798Y15122D02*
X319310D01*
Y15068D01*
X319256D01*
Y15014D01*
X319201D01*
Y14959D01*
X319147D01*
Y14851D01*
X319201D01*
Y14797D01*
X319256D01*
Y14742D01*
X319310D01*
Y14688D01*
X319364D01*
Y14634D01*
X319527D01*
Y14579D01*
X319744D01*
Y14471D01*
X319798D01*
Y14417D01*
X320233D01*
Y14471D01*
X320396D01*
Y14579D01*
X320450D01*
Y14742D01*
X320396D01*
Y14797D01*
X320341D01*
Y14851D01*
X320233D01*
Y14905D01*
X320178D01*
Y14959D01*
X320070D01*
Y15014D01*
X319907D01*
Y15068D01*
X319798D01*
Y15122D01*
D02*
G37*
G36*
X302971D02*
X302916D01*
Y15068D01*
X302862D01*
Y15014D01*
X302754D01*
Y14959D01*
X302591D01*
Y14851D01*
X302536D01*
Y14797D01*
X302428D01*
Y14742D01*
X302374D01*
Y14688D01*
X302319D01*
Y14634D01*
X302211D01*
Y14579D01*
X302102D01*
Y14525D01*
X302048D01*
Y14471D01*
X301885D01*
Y14417D01*
X301451D01*
Y14471D01*
X301288D01*
Y14417D01*
X301234D01*
Y14308D01*
X301396D01*
Y14254D01*
X301505D01*
Y14199D01*
X301559D01*
Y14145D01*
X301614D01*
Y14091D01*
X301885D01*
Y14145D01*
X301939D01*
Y14199D01*
X301994D01*
Y14254D01*
X302048D01*
Y14308D01*
X302102D01*
Y14362D01*
X302156D01*
Y14417D01*
X302211D01*
Y14471D01*
X302319D01*
Y14525D01*
X302374D01*
Y14579D01*
X302428D01*
Y14634D01*
X302536D01*
Y14688D01*
X302591D01*
Y14742D01*
X302645D01*
Y14797D01*
X302808D01*
Y14851D01*
X302862D01*
Y14959D01*
X302971D01*
Y15014D01*
X303025D01*
Y15068D01*
X302971D01*
Y15122D01*
D02*
G37*
G36*
X303351Y14742D02*
X303242D01*
Y14688D01*
X303188D01*
Y14634D01*
X302971D01*
Y14579D01*
X302862D01*
Y14525D01*
X302754D01*
Y14471D01*
X302699D01*
Y14417D01*
X302645D01*
Y14362D01*
X302536D01*
Y14308D01*
X302428D01*
Y14254D01*
X302374D01*
Y14145D01*
X302428D01*
Y14091D01*
X302536D01*
Y14145D01*
X302699D01*
Y14199D01*
X302754D01*
Y14254D01*
X302862D01*
Y14308D01*
X302971D01*
Y14362D01*
X303025D01*
Y14417D01*
X303079D01*
Y14471D01*
X303188D01*
Y14525D01*
X303242D01*
Y14634D01*
X303296D01*
Y14688D01*
X303351D01*
Y14742D01*
D02*
G37*
G36*
X298574Y15285D02*
X298139D01*
Y15231D01*
X298085D01*
Y15176D01*
X298031D01*
Y15122D01*
X297814D01*
Y15068D01*
X297705D01*
Y15014D01*
X297651D01*
Y14959D01*
X297488D01*
Y14905D01*
X297434D01*
Y14851D01*
X297379D01*
Y14797D01*
X297217D01*
Y14742D01*
X297162D01*
Y14688D01*
X297108D01*
Y14634D01*
X296999D01*
Y14579D01*
X296891D01*
Y14525D01*
X296837D01*
Y14471D01*
X296782D01*
Y14417D01*
X296728D01*
Y14362D01*
X296674D01*
Y14308D01*
X296619D01*
Y14254D01*
X296511D01*
Y14037D01*
X296565D01*
Y13982D01*
X296674D01*
Y14037D01*
X296728D01*
Y14091D01*
X296782D01*
Y14145D01*
X296837D01*
Y14199D01*
X296891D01*
Y14254D01*
X296945D01*
Y14308D01*
X296999D01*
Y14362D01*
X297054D01*
Y14417D01*
X297162D01*
Y14471D01*
X297217D01*
Y14525D01*
X297271D01*
Y14579D01*
X297325D01*
Y14634D01*
X297488D01*
Y14742D01*
X297542D01*
Y14797D01*
X297705D01*
Y14851D01*
X297759D01*
Y14905D01*
X297814D01*
Y14959D01*
X298031D01*
Y15014D01*
X298139D01*
Y15122D01*
X298411D01*
Y15176D01*
X298574D01*
Y15285D01*
D02*
G37*
G36*
X292820Y18542D02*
X292277D01*
Y18488D01*
X291843D01*
Y18433D01*
X291734D01*
Y18379D01*
X291680D01*
Y18325D01*
X291571D01*
Y18271D01*
X291517D01*
Y18216D01*
X291463D01*
Y18162D01*
X291408D01*
Y18108D01*
X291354D01*
Y18053D01*
X291300D01*
Y17999D01*
X291245D01*
Y17945D01*
X291191D01*
Y17836D01*
X291137D01*
Y17782D01*
X291083D01*
Y17673D01*
X291028D01*
Y17565D01*
X290974D01*
Y17511D01*
X290920D01*
Y17402D01*
X290865D01*
Y17239D01*
X290811D01*
Y17022D01*
X290757D01*
Y16805D01*
X290703D01*
Y16533D01*
X290757D01*
Y16316D01*
X290811D01*
Y16045D01*
X290865D01*
Y15774D01*
X290920D01*
Y15719D01*
X290974D01*
Y15556D01*
X291028D01*
Y15394D01*
X291083D01*
Y15339D01*
X291137D01*
Y15231D01*
X291191D01*
Y15068D01*
X291245D01*
Y14959D01*
X291300D01*
Y14905D01*
X291354D01*
Y14797D01*
X291408D01*
Y14688D01*
X291463D01*
Y14634D01*
X291517D01*
Y14525D01*
X291571D01*
Y14471D01*
X291625D01*
Y14417D01*
X291680D01*
Y14362D01*
X291734D01*
Y14308D01*
X291788D01*
Y14254D01*
X291843D01*
Y14145D01*
X291897D01*
Y14091D01*
X292005D01*
Y14037D01*
X292060D01*
Y13982D01*
X292114D01*
Y13928D01*
X292168D01*
Y13874D01*
X292277D01*
Y13819D01*
X292385D01*
Y13765D01*
X292548D01*
Y13711D01*
X292711D01*
Y13657D01*
X292874D01*
Y13602D01*
X294068D01*
Y13657D01*
X294177D01*
Y13711D01*
X294231D01*
Y13765D01*
X294340D01*
Y13819D01*
X294448D01*
Y13874D01*
X294557D01*
Y13928D01*
X294611D01*
Y13982D01*
X294720D01*
Y14037D01*
X294774D01*
Y14091D01*
X294828D01*
Y14145D01*
X294882D01*
Y14199D01*
X294937D01*
Y14254D01*
X294991D01*
Y14308D01*
X295045D01*
Y14417D01*
X295100D01*
Y14471D01*
X295154D01*
Y14525D01*
X295208D01*
Y14634D01*
X295262D01*
Y14742D01*
X295317D01*
Y14797D01*
X295371D01*
Y15014D01*
X295425D01*
Y15231D01*
X295480D01*
Y15448D01*
X295534D01*
Y15882D01*
X295480D01*
Y16099D01*
X295425D01*
Y16262D01*
X295371D01*
Y16479D01*
X295317D01*
Y16533D01*
X295262D01*
Y16642D01*
X295208D01*
Y16805D01*
X295154D01*
Y16913D01*
X295100D01*
Y16968D01*
X295045D01*
Y17076D01*
X294991D01*
Y17131D01*
X294937D01*
Y17185D01*
X294882D01*
Y17239D01*
X294828D01*
Y17293D01*
X294774D01*
Y17402D01*
X294720D01*
Y17456D01*
X294665D01*
Y17511D01*
X294611D01*
Y17565D01*
X294557D01*
Y17619D01*
X294503D01*
Y17673D01*
X294448D01*
Y17728D01*
X294394D01*
Y17782D01*
X294340D01*
Y17836D01*
X294285D01*
Y17891D01*
X294177D01*
Y17945D01*
X294123D01*
Y17999D01*
X294068D01*
Y18053D01*
X294014D01*
Y18108D01*
X293960D01*
Y18162D01*
X293851D01*
Y18216D01*
X293743D01*
Y18271D01*
X293688D01*
Y18325D01*
X293580D01*
Y18379D01*
X293471D01*
Y18433D01*
X293363D01*
Y18488D01*
X292820D01*
Y18542D01*
D02*
G37*
G36*
X310733Y14362D02*
X310299D01*
Y14308D01*
X310136D01*
Y14254D01*
X310027D01*
Y14199D01*
X309973D01*
Y14145D01*
X309865D01*
Y14037D01*
X309810D01*
Y13982D01*
X309756D01*
Y13928D01*
X309702D01*
Y13819D01*
X309648D01*
Y13711D01*
X309593D01*
Y13548D01*
X309539D01*
Y13276D01*
X309593D01*
Y13222D01*
X309648D01*
Y13168D01*
X309702D01*
Y13222D01*
X309810D01*
Y13276D01*
X309919D01*
Y13331D01*
X309973D01*
Y13385D01*
X310082D01*
Y13439D01*
X310190D01*
Y13494D01*
X310245D01*
Y13548D01*
X310299D01*
Y13602D01*
X310353D01*
Y13657D01*
X310462D01*
Y13711D01*
X310516D01*
Y13765D01*
X310570D01*
Y13819D01*
X310679D01*
Y13874D01*
X310733D01*
Y13928D01*
X310787D01*
Y13982D01*
X310842D01*
Y14254D01*
X310787D01*
Y14308D01*
X310733D01*
Y14362D01*
D02*
G37*
G36*
X296185Y13928D02*
X296077D01*
Y13874D01*
X296022D01*
Y13819D01*
X295860D01*
Y13765D01*
X295751D01*
Y13711D01*
X295697D01*
Y13657D01*
X295262D01*
Y13602D01*
X295208D01*
Y13548D01*
X295154D01*
Y13494D01*
X295100D01*
Y13439D01*
X295045D01*
Y13385D01*
X294937D01*
Y13331D01*
X294828D01*
Y13276D01*
X294665D01*
Y13222D01*
X294557D01*
Y13168D01*
X294394D01*
Y13222D01*
X294231D01*
Y13276D01*
X294014D01*
Y13005D01*
X293091D01*
Y13059D01*
X292983D01*
Y13114D01*
X292711D01*
Y13168D01*
X292440D01*
Y13222D01*
X292385D01*
Y13276D01*
X292005D01*
Y13331D01*
X291951D01*
Y13276D01*
X291897D01*
Y13168D01*
X292005D01*
Y13114D01*
X292223D01*
Y13059D01*
X292331D01*
Y13005D01*
X292385D01*
Y12951D01*
X292820D01*
Y12896D01*
X292928D01*
Y12842D01*
X293091D01*
Y12788D01*
X294123D01*
Y12842D01*
X294231D01*
Y12896D01*
X294394D01*
Y12951D01*
X294665D01*
Y13005D01*
X294720D01*
Y13059D01*
X294828D01*
Y13114D01*
X295045D01*
Y13168D01*
X295100D01*
Y13222D01*
X295208D01*
Y13276D01*
X295371D01*
Y13331D01*
X295425D01*
Y13385D01*
X295534D01*
Y13439D01*
X295642D01*
Y13494D01*
X295751D01*
Y13548D01*
X295805D01*
Y13602D01*
X295968D01*
Y13657D01*
X296022D01*
Y13711D01*
X296077D01*
Y13765D01*
X296131D01*
Y13819D01*
X296185D01*
Y13928D01*
D02*
G37*
G36*
X301342Y14037D02*
X300962D01*
Y13982D01*
X300691D01*
Y13928D01*
X300582D01*
Y13874D01*
X300474D01*
Y13819D01*
X300365D01*
Y13765D01*
X300257D01*
Y13711D01*
X300202D01*
Y13657D01*
X300148D01*
Y13548D01*
X300094D01*
Y13494D01*
X300039D01*
Y13385D01*
X299985D01*
Y13222D01*
X299931D01*
Y13059D01*
X299876D01*
Y12625D01*
X299931D01*
Y12571D01*
X300148D01*
Y12625D01*
X300257D01*
Y12679D01*
X300311D01*
Y12734D01*
X300419D01*
Y12788D01*
X300474D01*
Y12842D01*
X300528D01*
Y12896D01*
X300582D01*
Y12951D01*
X300637D01*
Y13005D01*
X300691D01*
Y13059D01*
X300745D01*
Y13114D01*
X300799D01*
Y13168D01*
X300854D01*
Y13222D01*
X300908D01*
Y13276D01*
X300962D01*
Y13331D01*
X301016D01*
Y13385D01*
X301071D01*
Y13439D01*
X301125D01*
Y13494D01*
X301179D01*
Y13548D01*
X301234D01*
Y13602D01*
X301288D01*
Y13657D01*
X301342D01*
Y13765D01*
X301396D01*
Y13982D01*
X301342D01*
Y14037D01*
D02*
G37*
G36*
X303188Y13494D02*
X302808D01*
Y13439D01*
X302699D01*
Y13385D01*
X302645D01*
Y13331D01*
X302591D01*
Y13276D01*
X302536D01*
Y13222D01*
X302482D01*
Y13168D01*
X302428D01*
Y13114D01*
X302374D01*
Y13059D01*
X302319D01*
Y13005D01*
X302265D01*
Y12951D01*
X302211D01*
Y12842D01*
X302156D01*
Y12734D01*
X302102D01*
Y12625D01*
X302048D01*
Y12028D01*
X302102D01*
Y11974D01*
X302265D01*
Y11919D01*
X302319D01*
Y11974D01*
X302374D01*
Y12028D01*
X302428D01*
Y12082D01*
X302482D01*
Y12137D01*
X302536D01*
Y12191D01*
X302591D01*
Y12299D01*
X302699D01*
Y12354D01*
X302754D01*
Y12462D01*
X302808D01*
Y12517D01*
X302862D01*
Y12625D01*
X302916D01*
Y12679D01*
X302971D01*
Y12788D01*
X303025D01*
Y12842D01*
X303079D01*
Y13114D01*
X303134D01*
Y13222D01*
X303188D01*
Y13276D01*
X303242D01*
Y13439D01*
X303188D01*
Y13494D01*
D02*
G37*
%LPD*%
G36*
X325770Y56052D02*
X325878D01*
Y55997D01*
X325932D01*
Y55943D01*
X325987D01*
Y55834D01*
X326041D01*
Y55780D01*
X326095D01*
Y55726D01*
X325770D01*
Y55943D01*
X325715D01*
Y55997D01*
X325661D01*
Y56052D01*
X325552D01*
Y56160D01*
X325770D01*
Y56052D01*
D02*
G37*
G36*
X326204Y55617D02*
X326258D01*
Y55563D01*
X326204D01*
Y55455D01*
X326150D01*
Y55509D01*
X326095D01*
Y55563D01*
Y55617D01*
Y55672D01*
X326204D01*
Y55617D01*
D02*
G37*
G36*
X327072Y54586D02*
X327127D01*
Y54423D01*
X327072D01*
Y54369D01*
X326964D01*
Y54423D01*
X326909D01*
Y54586D01*
X326964D01*
Y54640D01*
X327072D01*
Y54586D01*
D02*
G37*
G36*
X326312Y53989D02*
X326367D01*
Y53555D01*
Y53500D01*
Y53337D01*
X326312D01*
Y53283D01*
X326150D01*
Y54043D01*
X326312D01*
Y53989D01*
D02*
G37*
G36*
X327561Y53283D02*
X327615D01*
Y53229D01*
X327724D01*
Y53120D01*
X327778D01*
Y53066D01*
X327669D01*
Y53012D01*
X327507D01*
Y53175D01*
X327452D01*
Y53229D01*
X327398D01*
Y53283D01*
X327452D01*
Y53337D01*
X327561D01*
Y53283D01*
D02*
G37*
G36*
X327507Y52903D02*
X327452D01*
Y52849D01*
X327398D01*
Y52795D01*
X327290D01*
Y52849D01*
X327235D01*
Y52958D01*
Y53012D01*
X327507D01*
Y52903D01*
D02*
G37*
G36*
X326855Y52740D02*
X326801D01*
Y52795D01*
X326855D01*
Y52740D01*
D02*
G37*
G36*
X326747Y52578D02*
X326692D01*
Y52523D01*
X326584D01*
Y52415D01*
X326475D01*
Y52360D01*
X326312D01*
Y52306D01*
X326204D01*
Y52252D01*
X326150D01*
Y52469D01*
X326204D01*
Y52523D01*
X326258D01*
Y52578D01*
X326312D01*
Y52632D01*
X326530D01*
Y52686D01*
X326747D01*
Y52578D01*
D02*
G37*
G36*
X328321Y50298D02*
X328375D01*
Y50243D01*
X328429D01*
Y50080D01*
Y50026D01*
X328375D01*
Y49972D01*
X328321D01*
Y50026D01*
X328267D01*
Y50080D01*
X328212D01*
Y50135D01*
X328158D01*
Y50189D01*
X327995D01*
Y50243D01*
X327887D01*
Y50352D01*
X328321D01*
Y50298D01*
D02*
G37*
G36*
X328864Y50080D02*
X328918D01*
Y49755D01*
X328864D01*
Y49700D01*
X328755D01*
Y49755D01*
X328701D01*
Y49863D01*
X328755D01*
Y50135D01*
X328864D01*
Y50080D01*
D02*
G37*
G36*
X328592Y49809D02*
X328647D01*
Y49592D01*
X328592D01*
Y49538D01*
X328538D01*
Y49483D01*
X328484D01*
Y49375D01*
X328429D01*
Y48669D01*
X328375D01*
Y48506D01*
X328321D01*
Y48561D01*
X328267D01*
Y48669D01*
X328212D01*
Y48886D01*
X328158D01*
Y48941D01*
Y49266D01*
X328212D01*
Y49483D01*
X328267D01*
Y49538D01*
X328321D01*
Y49592D01*
X328375D01*
Y49646D01*
X328429D01*
Y49809D01*
X328484D01*
Y49863D01*
X328592D01*
Y49809D01*
D02*
G37*
G36*
X329027Y47095D02*
X329081D01*
Y46986D01*
X329135D01*
Y46281D01*
X329081D01*
Y45955D01*
X329027D01*
Y45901D01*
X328972D01*
Y47149D01*
X329027D01*
Y47095D01*
D02*
G37*
G36*
X324033Y45955D02*
X324087D01*
Y45412D01*
Y45358D01*
Y44815D01*
X323978D01*
Y45901D01*
X323924D01*
Y46064D01*
X323978D01*
Y46118D01*
X324033D01*
Y45955D01*
D02*
G37*
G36*
X328375Y44489D02*
X328429D01*
Y44218D01*
X328538D01*
Y44164D01*
X328647D01*
Y43946D01*
X328592D01*
Y43838D01*
X328538D01*
Y43729D01*
X328429D01*
Y43784D01*
X328375D01*
Y43892D01*
X328321D01*
Y43404D01*
X328267D01*
Y43295D01*
X328212D01*
Y43187D01*
X328158D01*
Y43241D01*
X328104D01*
Y44164D01*
X328158D01*
Y44272D01*
X328267D01*
Y44381D01*
X328321D01*
Y44544D01*
X328375D01*
Y44489D01*
D02*
G37*
G36*
X324195Y44109D02*
X324250D01*
Y43892D01*
X324304D01*
Y43838D01*
X324358D01*
Y43784D01*
X324412D01*
Y43729D01*
X324358D01*
Y43675D01*
X324304D01*
Y43566D01*
X324250D01*
Y43024D01*
X324195D01*
Y42861D01*
X324141D01*
Y43404D01*
Y43458D01*
Y43512D01*
X324087D01*
Y44381D01*
X324141D01*
Y44761D01*
X324195D01*
Y44109D01*
D02*
G37*
G36*
X327561Y42372D02*
Y42210D01*
X327507D01*
Y42155D01*
X327452D01*
Y42427D01*
X327561D01*
Y42372D01*
D02*
G37*
G36*
X325878Y41124D02*
X326041D01*
Y41069D01*
X325987D01*
Y40961D01*
X325932D01*
Y40852D01*
X325878D01*
Y40798D01*
X325824D01*
Y40852D01*
X325770D01*
Y40907D01*
X325715D01*
Y40961D01*
X325661D01*
Y41015D01*
X325552D01*
Y41124D01*
X325661D01*
Y41178D01*
X325878D01*
Y41124D01*
D02*
G37*
G36*
X324358Y41938D02*
X324412D01*
Y41341D01*
Y41287D01*
Y41069D01*
X324467D01*
Y40364D01*
X324412D01*
Y40092D01*
X324358D01*
Y39930D01*
X324304D01*
Y40744D01*
X324250D01*
Y42264D01*
X324304D01*
Y42372D01*
X324358D01*
Y41938D01*
D02*
G37*
G36*
X302102Y49103D02*
X302156D01*
Y49049D01*
X302211D01*
Y48995D01*
X302482D01*
Y48941D01*
X302536D01*
Y48886D01*
X302156D01*
Y48832D01*
X302048D01*
Y48778D01*
X301668D01*
Y48832D01*
X301559D01*
Y48886D01*
X301505D01*
Y48995D01*
X301614D01*
Y49049D01*
X301722D01*
Y49103D01*
X301776D01*
Y49158D01*
X302102D01*
Y49103D01*
D02*
G37*
G36*
X302971Y48506D02*
X303025D01*
Y48452D01*
X303079D01*
Y48398D01*
X303025D01*
Y48344D01*
X302916D01*
Y48452D01*
Y48506D01*
Y48561D01*
X302971D01*
Y48506D01*
D02*
G37*
G36*
X303296Y47964D02*
Y47909D01*
X303079D01*
Y48018D01*
X303134D01*
Y48072D01*
X303296D01*
Y47964D01*
D02*
G37*
G36*
X302482Y48181D02*
X302645D01*
Y48126D01*
X302699D01*
Y48018D01*
X302754D01*
Y47909D01*
X302808D01*
Y47855D01*
X302862D01*
Y47801D01*
X302916D01*
Y47746D01*
X302971D01*
Y47692D01*
X303025D01*
Y47638D01*
X303079D01*
Y47583D01*
X303134D01*
Y47529D01*
X303188D01*
Y47366D01*
X303242D01*
Y47312D01*
X303351D01*
Y46986D01*
X303405D01*
Y46824D01*
X303459D01*
Y46661D01*
X303514D01*
Y46444D01*
X303568D01*
Y46118D01*
X303622D01*
Y45792D01*
X303676D01*
Y45358D01*
X303731D01*
Y44978D01*
X303785D01*
Y44869D01*
X303839D01*
Y44435D01*
X303893D01*
Y43946D01*
X303948D01*
Y43621D01*
X304002D01*
Y43458D01*
X304056D01*
Y42644D01*
X304002D01*
Y42427D01*
X303948D01*
Y42372D01*
X303893D01*
Y42318D01*
X303839D01*
Y42264D01*
X303785D01*
Y42210D01*
X303676D01*
Y42101D01*
X303622D01*
Y41992D01*
X303568D01*
Y41938D01*
X303514D01*
Y41884D01*
X303459D01*
Y41830D01*
X303351D01*
Y41775D01*
X303242D01*
Y41721D01*
X303188D01*
Y41558D01*
X303025D01*
Y41612D01*
X302916D01*
Y41558D01*
X302754D01*
Y41449D01*
X302699D01*
Y41341D01*
X302645D01*
Y41287D01*
X302591D01*
Y41341D01*
X302482D01*
Y41395D01*
X302319D01*
Y41341D01*
X302102D01*
Y41287D01*
X301994D01*
Y41341D01*
X301559D01*
Y41395D01*
X301342D01*
Y41449D01*
X301179D01*
Y41504D01*
X300799D01*
Y41558D01*
X300637D01*
Y41667D01*
X300419D01*
Y41721D01*
X300311D01*
Y41775D01*
X300257D01*
Y41830D01*
X300202D01*
Y41884D01*
X300148D01*
Y41938D01*
X300039D01*
Y41992D01*
X299985D01*
Y42047D01*
X299931D01*
Y42101D01*
X299876D01*
Y42155D01*
X299822D01*
Y42210D01*
X299768D01*
Y42264D01*
X299714D01*
Y42372D01*
X299659D01*
Y42427D01*
X299605D01*
Y42535D01*
X299551D01*
Y42698D01*
X299496D01*
Y42861D01*
X299442D01*
Y43024D01*
X299388D01*
Y43349D01*
X299334D01*
Y43946D01*
X299388D01*
Y45629D01*
X299551D01*
Y45684D01*
X299659D01*
Y45738D01*
X299714D01*
Y45955D01*
X299659D01*
Y46009D01*
X299605D01*
Y46118D01*
X299551D01*
Y46172D01*
X299442D01*
Y46226D01*
X299388D01*
Y46389D01*
X299334D01*
Y46498D01*
X299388D01*
Y46661D01*
X299442D01*
Y46715D01*
X299659D01*
Y46661D01*
X299714D01*
Y46606D01*
X299768D01*
Y46552D01*
X299985D01*
Y46606D01*
X300039D01*
Y46661D01*
X300094D01*
Y46715D01*
X300202D01*
Y46824D01*
X300257D01*
Y46932D01*
X300311D01*
Y47041D01*
X300365D01*
Y47149D01*
X300419D01*
Y47475D01*
X300311D01*
Y47529D01*
X300148D01*
Y47801D01*
X300202D01*
Y47855D01*
X300257D01*
Y47909D01*
X300311D01*
Y47964D01*
X300419D01*
Y48018D01*
X300691D01*
Y47909D01*
X300637D01*
Y47855D01*
X300582D01*
Y47801D01*
X300528D01*
Y47583D01*
X300691D01*
Y47638D01*
X300854D01*
Y47692D01*
X300908D01*
Y47746D01*
X300962D01*
Y47801D01*
X301071D01*
Y47855D01*
X301125D01*
Y47909D01*
X301179D01*
Y47964D01*
X301288D01*
Y48018D01*
X301342D01*
Y48072D01*
X301451D01*
Y48126D01*
X301614D01*
Y48181D01*
X302156D01*
Y48235D01*
X302211D01*
Y48289D01*
X302319D01*
Y48344D01*
X302428D01*
Y48452D01*
X302482D01*
Y48181D01*
D02*
G37*
G36*
X299822Y46986D02*
X299876D01*
Y46932D01*
X299822D01*
Y46878D01*
X299605D01*
Y46932D01*
X299659D01*
Y46986D01*
X299714D01*
Y47041D01*
X299768D01*
Y47095D01*
X299822D01*
Y46986D01*
D02*
G37*
G36*
X299334Y45792D02*
Y45738D01*
Y45629D01*
X299279D01*
Y45738D01*
X299225D01*
Y45792D01*
X299279D01*
Y45846D01*
X299334D01*
Y45792D01*
D02*
G37*
%LPC*%
G36*
X302374Y46661D02*
X302156D01*
Y46606D01*
X302102D01*
Y46552D01*
X302048D01*
Y46281D01*
X302102D01*
Y45955D01*
X302156D01*
Y45738D01*
X302211D01*
Y45521D01*
X302265D01*
Y45304D01*
X302319D01*
Y45141D01*
X302374D01*
Y45032D01*
X302428D01*
Y44924D01*
X302482D01*
Y44869D01*
X302754D01*
Y44924D01*
X302808D01*
Y44978D01*
X302862D01*
Y45412D01*
Y45466D01*
Y45684D01*
X302808D01*
Y45901D01*
X302754D01*
Y46118D01*
X302699D01*
Y46281D01*
X302645D01*
Y46389D01*
X302591D01*
Y46444D01*
X302536D01*
Y46552D01*
X302482D01*
Y46606D01*
X302374D01*
Y46661D01*
D02*
G37*
%LPD*%
G36*
X317519Y46226D02*
X317464D01*
Y46281D01*
X317519D01*
Y46226D01*
D02*
G37*
G36*
X313393Y40472D02*
X313502D01*
Y40418D01*
X313556D01*
Y40364D01*
X313447D01*
Y40418D01*
X313339D01*
Y40472D01*
X313284D01*
Y40635D01*
X313393D01*
Y40472D01*
D02*
G37*
G36*
X307585Y47746D02*
X307150D01*
Y47801D01*
X307585D01*
Y47746D01*
D02*
G37*
G36*
X308236Y47909D02*
X308290D01*
Y47855D01*
X308345D01*
Y47746D01*
Y47692D01*
X308182D01*
Y47638D01*
X308128D01*
Y47692D01*
X308073D01*
Y47746D01*
X308019D01*
Y47801D01*
X307965D01*
Y47855D01*
X307802D01*
Y47964D01*
X308236D01*
Y47909D01*
D02*
G37*
G36*
X306825Y47475D02*
X306879D01*
Y47258D01*
X306770D01*
Y47312D01*
X306716D01*
Y47366D01*
X306662D01*
Y47475D01*
X306716D01*
Y47529D01*
X306825D01*
Y47475D01*
D02*
G37*
G36*
X306445Y47258D02*
X306390D01*
Y47203D01*
X306336D01*
Y47149D01*
X306282D01*
Y47095D01*
X306228D01*
Y47041D01*
X306173D01*
Y46986D01*
X306119D01*
Y46932D01*
X306065D01*
Y46878D01*
X306010D01*
Y46824D01*
X305902D01*
Y46986D01*
X306010D01*
Y47041D01*
X306065D01*
Y47095D01*
X306119D01*
Y47149D01*
X306228D01*
Y47258D01*
X306282D01*
Y47312D01*
X306445D01*
Y47258D01*
D02*
G37*
G36*
X305902Y46715D02*
X305739D01*
Y46824D01*
X305902D01*
Y46715D01*
D02*
G37*
G36*
X305468Y46389D02*
X305522D01*
Y46335D01*
X305576D01*
Y46118D01*
X305522D01*
Y46064D01*
X305468D01*
Y46009D01*
X305413D01*
Y45955D01*
X305305D01*
Y45901D01*
X305250D01*
Y45846D01*
X305088D01*
Y46064D01*
X305142D01*
Y46118D01*
X305196D01*
Y46226D01*
X305250D01*
Y46281D01*
X305305D01*
Y46335D01*
X305359D01*
Y46389D01*
X305413D01*
Y46444D01*
X305468D01*
Y46389D01*
D02*
G37*
G36*
X304979Y45412D02*
X304925D01*
Y45521D01*
Y45575D01*
Y45629D01*
X304979D01*
Y45412D01*
D02*
G37*
G36*
X304871Y45195D02*
X304925D01*
Y45086D01*
X304979D01*
Y44978D01*
X305033D01*
Y44869D01*
X304979D01*
Y44815D01*
X304925D01*
Y44761D01*
X304762D01*
Y45304D01*
X304871D01*
Y45195D01*
D02*
G37*
G36*
X307368Y41395D02*
X307313D01*
Y41449D01*
X307368D01*
Y41395D01*
D02*
G37*
G36*
X307802Y41232D02*
X307530D01*
Y41287D01*
X307802D01*
Y41232D01*
D02*
G37*
G36*
X300148Y38084D02*
Y38030D01*
X300094D01*
Y38138D01*
X300148D01*
Y38084D01*
D02*
G37*
G36*
X294177Y40961D02*
X294231D01*
Y40852D01*
X294285D01*
Y40798D01*
X294340D01*
Y40744D01*
X294394D01*
Y40690D01*
X294503D01*
Y40635D01*
X294557D01*
Y40581D01*
X294611D01*
Y40527D01*
X294665D01*
Y40472D01*
X294720D01*
Y40418D01*
X294828D01*
Y40364D01*
X294882D01*
Y40310D01*
X294937D01*
Y40255D01*
X294991D01*
Y40201D01*
X295045D01*
Y40147D01*
X295100D01*
Y40092D01*
X295154D01*
Y40038D01*
X295208D01*
Y39984D01*
X295262D01*
Y39712D01*
X295317D01*
Y39604D01*
X295371D01*
Y39550D01*
X295642D01*
Y39495D01*
X295697D01*
Y39332D01*
X295751D01*
Y39224D01*
X295968D01*
Y39170D01*
X296022D01*
Y39061D01*
X296077D01*
Y38898D01*
X296131D01*
Y38844D01*
X296185D01*
Y38735D01*
X296022D01*
Y38844D01*
X295860D01*
Y38898D01*
X295805D01*
Y38953D01*
X295751D01*
Y39007D01*
X295642D01*
Y39061D01*
X295588D01*
Y39115D01*
X295534D01*
Y39170D01*
X295425D01*
Y39224D01*
X295371D01*
Y39278D01*
X295317D01*
Y39332D01*
X295208D01*
Y39387D01*
X295154D01*
Y39441D01*
X295100D01*
Y39495D01*
X294991D01*
Y39550D01*
X294882D01*
Y39604D01*
X294828D01*
Y39658D01*
X294774D01*
Y39712D01*
X294720D01*
Y39984D01*
X294503D01*
Y40038D01*
X294231D01*
Y40092D01*
X294177D01*
Y40147D01*
X294123D01*
Y40201D01*
X294068D01*
Y40310D01*
X294014D01*
Y40418D01*
X293960D01*
Y40527D01*
X293905D01*
Y40744D01*
X293960D01*
Y40852D01*
X294014D01*
Y40907D01*
X294068D01*
Y41015D01*
X294177D01*
Y40961D01*
D02*
G37*
G36*
X314044Y37704D02*
X313936D01*
Y37812D01*
X314044D01*
Y37704D01*
D02*
G37*
G36*
X315944Y36890D02*
X315890D01*
Y36835D01*
X315836D01*
Y36890D01*
X315781D01*
Y36944D01*
X315944D01*
Y36890D01*
D02*
G37*
G36*
X317247Y36021D02*
X317084D01*
Y36130D01*
X317247D01*
Y36021D01*
D02*
G37*
G36*
X308236Y38301D02*
X308616D01*
Y38247D01*
X308562D01*
Y38193D01*
X308182D01*
Y38138D01*
X308019D01*
Y38084D01*
X307802D01*
Y38138D01*
X307910D01*
Y38247D01*
X307965D01*
Y38301D01*
X308128D01*
Y38355D01*
X308236D01*
Y38301D01*
D02*
G37*
G36*
X307639Y37487D02*
X307693D01*
Y37432D01*
X307748D01*
Y37324D01*
X307693D01*
Y37270D01*
X307639D01*
Y37215D01*
X307259D01*
Y37270D01*
X307096D01*
Y37324D01*
X306933D01*
Y37378D01*
X306716D01*
Y37432D01*
X307096D01*
Y37487D01*
X307422D01*
Y37541D01*
X307639D01*
Y37487D01*
D02*
G37*
G36*
X311982Y36998D02*
X312090D01*
Y36944D01*
X312145D01*
Y36890D01*
X312036D01*
Y36835D01*
X311873D01*
Y36781D01*
X311819D01*
Y36727D01*
X311765D01*
Y36781D01*
X311602D01*
Y36890D01*
X311547D01*
Y36944D01*
X311602D01*
Y36998D01*
X311873D01*
Y37053D01*
X311982D01*
Y36998D01*
D02*
G37*
G36*
X306445Y37053D02*
X306825D01*
Y36998D01*
X307150D01*
Y36944D01*
X307368D01*
Y36890D01*
X307422D01*
Y36835D01*
X307585D01*
Y36781D01*
X307748D01*
Y36727D01*
X307802D01*
Y36673D01*
X307910D01*
Y36618D01*
X308019D01*
Y36564D01*
X308128D01*
Y36510D01*
X308236D01*
Y36456D01*
X308345D01*
Y36401D01*
X308399D01*
Y36347D01*
X308507D01*
Y36293D01*
X308616D01*
Y36238D01*
X308670D01*
Y36184D01*
X308725D01*
Y36130D01*
X308833D01*
Y36075D01*
X308888D01*
Y36021D01*
X308616D01*
Y36075D01*
X308507D01*
Y36130D01*
X308399D01*
Y36184D01*
X308236D01*
Y36238D01*
X308128D01*
Y36293D01*
X308073D01*
Y36347D01*
X307910D01*
Y36401D01*
X307802D01*
Y36456D01*
X307693D01*
Y36510D01*
X307476D01*
Y36564D01*
X307368D01*
Y36618D01*
X307259D01*
Y36673D01*
X306988D01*
Y36727D01*
X306716D01*
Y36781D01*
X306608D01*
Y36835D01*
X306228D01*
Y36890D01*
X306065D01*
Y36998D01*
X306119D01*
Y37053D01*
X306282D01*
Y37107D01*
X306445D01*
Y37053D01*
D02*
G37*
G36*
X307910Y36075D02*
Y36021D01*
X307585D01*
Y36075D01*
X307530D01*
Y36130D01*
X307910D01*
Y36075D01*
D02*
G37*
G36*
X309050Y35858D02*
X308996D01*
Y35913D01*
X308888D01*
Y35967D01*
X309050D01*
Y35858D01*
D02*
G37*
G36*
X308182Y35913D02*
X308236D01*
Y35858D01*
Y35804D01*
X308182D01*
Y35696D01*
X308128D01*
Y35750D01*
X308073D01*
Y35967D01*
X308182D01*
Y35913D01*
D02*
G37*
G36*
X308833Y32873D02*
X308616D01*
Y32819D01*
X308399D01*
Y32764D01*
X308345D01*
Y32710D01*
X308236D01*
Y32873D01*
X308290D01*
Y32927D01*
X308399D01*
Y32981D01*
X308562D01*
Y33036D01*
X308725D01*
Y33090D01*
X308833D01*
Y32873D01*
D02*
G37*
G36*
X308670Y32167D02*
X308833D01*
Y32058D01*
X308888D01*
Y32004D01*
X308833D01*
Y31950D01*
X308779D01*
Y31896D01*
X308725D01*
Y31679D01*
X308779D01*
Y31624D01*
X308833D01*
Y31570D01*
X308888D01*
Y31461D01*
X308942D01*
Y31407D01*
X308996D01*
Y31353D01*
X309050D01*
Y31298D01*
X309105D01*
Y31190D01*
X309159D01*
Y31136D01*
X309213D01*
Y31081D01*
X309268D01*
Y31027D01*
X309322D01*
Y30973D01*
X309376D01*
Y30919D01*
X309430D01*
Y30864D01*
X309485D01*
Y30810D01*
X309539D01*
Y30756D01*
X309648D01*
Y30701D01*
X309702D01*
Y30756D01*
X309810D01*
Y30701D01*
X309865D01*
Y30484D01*
X309919D01*
Y30322D01*
X309973D01*
Y30267D01*
X310027D01*
Y30213D01*
X309973D01*
Y30159D01*
X309756D01*
Y30104D01*
X309430D01*
Y30050D01*
X309376D01*
Y29996D01*
X309322D01*
Y29941D01*
X309268D01*
Y29887D01*
X309322D01*
Y29724D01*
X309376D01*
Y29507D01*
X309430D01*
Y29344D01*
X309485D01*
Y29236D01*
X309539D01*
Y28910D01*
X309593D01*
Y28313D01*
X309539D01*
Y28204D01*
X309485D01*
Y28150D01*
X309430D01*
Y28096D01*
X309213D01*
Y28150D01*
X309159D01*
Y28204D01*
X309105D01*
Y28259D01*
X309050D01*
Y28313D01*
X308996D01*
Y28367D01*
X308942D01*
Y28421D01*
X308888D01*
Y28476D01*
X308833D01*
Y28530D01*
X308779D01*
Y28476D01*
X308725D01*
Y27879D01*
X308670D01*
Y27499D01*
X308616D01*
Y27444D01*
X308507D01*
Y27390D01*
X308290D01*
Y27499D01*
X308236D01*
Y27607D01*
X308182D01*
Y27770D01*
X308128D01*
Y27987D01*
X308073D01*
Y28259D01*
X308019D01*
Y28313D01*
X307965D01*
Y28476D01*
X307910D01*
Y28639D01*
X307856D01*
Y28747D01*
X307802D01*
Y28856D01*
X307748D01*
Y29019D01*
X307693D01*
Y29073D01*
X307639D01*
Y29181D01*
X307585D01*
Y29236D01*
X307530D01*
Y29290D01*
X307476D01*
Y29344D01*
X307422D01*
Y29399D01*
X307368D01*
Y29453D01*
X307313D01*
Y29507D01*
X307259D01*
Y29562D01*
X307313D01*
Y29616D01*
X307422D01*
Y29670D01*
X307476D01*
Y29616D01*
X307530D01*
Y29562D01*
X307585D01*
Y29507D01*
X307693D01*
Y29453D01*
X307802D01*
Y29399D01*
X307856D01*
Y29181D01*
X307910D01*
Y29073D01*
X307965D01*
Y29019D01*
X308019D01*
Y28910D01*
X308073D01*
Y28802D01*
X308128D01*
Y28693D01*
X308182D01*
Y28584D01*
X308236D01*
Y28367D01*
X308345D01*
Y28476D01*
X308399D01*
Y29127D01*
X308345D01*
Y29344D01*
X308290D01*
Y29453D01*
X308236D01*
Y29779D01*
X308345D01*
Y29724D01*
X308399D01*
Y29670D01*
X308453D01*
Y29562D01*
X308507D01*
Y29507D01*
X308562D01*
Y29399D01*
X308616D01*
Y29344D01*
X308670D01*
Y29290D01*
X308725D01*
Y29181D01*
X308779D01*
Y29127D01*
X308833D01*
Y29073D01*
X308888D01*
Y28964D01*
X308942D01*
Y28910D01*
X308996D01*
Y28856D01*
X309050D01*
Y28747D01*
X309105D01*
Y28693D01*
X309159D01*
Y28639D01*
X309268D01*
Y28584D01*
X309376D01*
Y28910D01*
X309322D01*
Y29019D01*
X309268D01*
Y29290D01*
X309213D01*
Y29453D01*
X309159D01*
Y29507D01*
X309105D01*
Y29670D01*
X309050D01*
Y29833D01*
X308996D01*
Y29887D01*
X308942D01*
Y29941D01*
X308888D01*
Y30104D01*
X308833D01*
Y30159D01*
X308779D01*
Y30267D01*
X308725D01*
Y30322D01*
X308670D01*
Y30376D01*
X308616D01*
Y30484D01*
X308562D01*
Y30539D01*
X308507D01*
Y30593D01*
X308725D01*
Y30539D01*
X308888D01*
Y30484D01*
X309159D01*
Y30430D01*
X309376D01*
Y30647D01*
X309322D01*
Y30701D01*
X309268D01*
Y30756D01*
X309213D01*
Y30810D01*
X309159D01*
Y30864D01*
X309105D01*
Y30919D01*
X309050D01*
Y30973D01*
X308996D01*
Y31027D01*
X308942D01*
Y31081D01*
X308888D01*
Y31136D01*
X308833D01*
Y31190D01*
X308779D01*
Y31244D01*
X308725D01*
Y31298D01*
X308670D01*
Y31353D01*
X308616D01*
Y31407D01*
X308507D01*
Y31461D01*
X308399D01*
Y31516D01*
X308290D01*
Y31624D01*
X308345D01*
Y31679D01*
X308399D01*
Y31841D01*
X308345D01*
Y31950D01*
X308290D01*
Y32058D01*
X308236D01*
Y32167D01*
X308182D01*
Y32276D01*
X308345D01*
Y32221D01*
X308399D01*
Y32167D01*
X308453D01*
Y32113D01*
X308507D01*
Y32167D01*
X308616D01*
Y32276D01*
X308670D01*
Y32167D01*
D02*
G37*
G36*
X310353Y30756D02*
X310299D01*
Y30864D01*
X310353D01*
Y30756D01*
D02*
G37*
G36*
X308345Y30213D02*
X308290D01*
Y30267D01*
X308345D01*
Y30213D01*
D02*
G37*
G36*
X308507Y30050D02*
Y29996D01*
X308453D01*
Y30159D01*
X308507D01*
Y30050D01*
D02*
G37*
G36*
X308670Y29887D02*
X308616D01*
Y29941D01*
X308670D01*
Y29887D01*
D02*
G37*
G36*
X307205Y29290D02*
X307096D01*
Y29399D01*
X307150D01*
Y29453D01*
X307205D01*
Y29290D01*
D02*
G37*
G36*
X305305Y29779D02*
X305359D01*
Y29181D01*
X305250D01*
Y29833D01*
X305305D01*
Y29779D01*
D02*
G37*
G36*
X307368Y29019D02*
Y28964D01*
X307259D01*
Y29127D01*
X307368D01*
Y29019D01*
D02*
G37*
G36*
X307476Y28802D02*
X307530D01*
Y28476D01*
X307476D01*
Y28530D01*
X307422D01*
Y28802D01*
Y28856D01*
X307476D01*
Y28802D01*
D02*
G37*
G36*
X307693Y28204D02*
X307748D01*
Y28096D01*
X307693D01*
Y28042D01*
X307639D01*
Y28096D01*
X307585D01*
Y28421D01*
X307693D01*
Y28204D01*
D02*
G37*
G36*
X307856Y27770D02*
Y27716D01*
X307802D01*
Y27933D01*
X307856D01*
Y27770D01*
D02*
G37*
G36*
X306010Y27064D02*
X306065D01*
Y26739D01*
Y26685D01*
X306173D01*
Y26359D01*
X306119D01*
Y26467D01*
Y26522D01*
X306065D01*
Y26685D01*
X305956D01*
Y26793D01*
X305902D01*
Y27119D01*
X305956D01*
Y27173D01*
X306010D01*
Y27064D01*
D02*
G37*
G36*
X306336Y25924D02*
X306282D01*
Y26087D01*
X306228D01*
Y26196D01*
X306282D01*
Y26250D01*
X306336D01*
Y25924D01*
D02*
G37*
G36*
X309376Y25979D02*
X309322D01*
Y25924D01*
X309268D01*
Y25816D01*
X309213D01*
Y25762D01*
X309159D01*
Y25707D01*
X309105D01*
Y25653D01*
X309050D01*
Y25599D01*
X308996D01*
Y25545D01*
X308942D01*
Y25490D01*
X308888D01*
Y25436D01*
X308833D01*
Y25382D01*
X308779D01*
Y25327D01*
X308725D01*
Y25273D01*
X308616D01*
Y25219D01*
X308562D01*
Y25164D01*
X308453D01*
Y25110D01*
X308399D01*
Y25056D01*
X308345D01*
Y25002D01*
X308182D01*
Y24947D01*
X307965D01*
Y24893D01*
X307693D01*
Y24947D01*
X307802D01*
Y25002D01*
X307856D01*
Y25056D01*
X307910D01*
Y25110D01*
X308073D01*
Y25164D01*
X308182D01*
Y25219D01*
X308236D01*
Y25273D01*
X308345D01*
Y25327D01*
X308399D01*
Y25382D01*
X308507D01*
Y25436D01*
X308562D01*
Y25490D01*
X308670D01*
Y25545D01*
X308725D01*
Y25599D01*
X308779D01*
Y25707D01*
X308833D01*
Y25762D01*
X308779D01*
Y25870D01*
X308616D01*
Y25924D01*
X308833D01*
Y25870D01*
X309050D01*
Y25924D01*
X309159D01*
Y25979D01*
X309268D01*
Y26087D01*
X309376D01*
Y25979D01*
D02*
G37*
G36*
X307748Y25707D02*
X307422D01*
Y25762D01*
X307748D01*
Y25707D01*
D02*
G37*
G36*
X308345Y25653D02*
Y25599D01*
X308290D01*
Y25545D01*
X308019D01*
Y25599D01*
X308073D01*
Y25653D01*
X308182D01*
Y25707D01*
X308236D01*
Y25762D01*
X308345D01*
Y25653D01*
D02*
G37*
G36*
X307313Y25545D02*
X307205D01*
Y25436D01*
X307150D01*
Y25382D01*
X307096D01*
Y25436D01*
Y25490D01*
Y25599D01*
X307313D01*
Y25545D01*
D02*
G37*
G36*
X307910Y25382D02*
X307856D01*
Y25327D01*
X307639D01*
Y25382D01*
X307693D01*
Y25436D01*
X307910D01*
Y25382D01*
D02*
G37*
G36*
X306879Y25762D02*
Y25707D01*
Y25653D01*
X306825D01*
Y25545D01*
X306770D01*
Y25490D01*
X306716D01*
Y25382D01*
X306662D01*
Y25327D01*
X306608D01*
Y25653D01*
X306662D01*
Y25762D01*
X306716D01*
Y25870D01*
X306770D01*
Y25979D01*
X306879D01*
Y25762D01*
D02*
G37*
G36*
X307530Y25110D02*
X307476D01*
Y25273D01*
X307530D01*
Y25110D01*
D02*
G37*
G36*
X306879Y24567D02*
X307042D01*
Y24513D01*
X307096D01*
Y24350D01*
X306933D01*
Y24405D01*
X306879D01*
Y24567D01*
X306770D01*
Y24893D01*
X306879D01*
Y24567D01*
D02*
G37*
G36*
X307530Y22668D02*
X307422D01*
Y22939D01*
X307368D01*
Y23210D01*
X307422D01*
Y23265D01*
X307530D01*
Y22668D01*
D02*
G37*
G36*
X307856D02*
Y22613D01*
X307910D01*
Y22559D01*
X307856D01*
Y22450D01*
X307802D01*
Y22396D01*
X307748D01*
Y22342D01*
X307693D01*
Y22287D01*
X307639D01*
Y22342D01*
X307585D01*
Y22450D01*
X307530D01*
Y22613D01*
X307748D01*
Y22668D01*
X307802D01*
Y22722D01*
X307856D01*
Y22668D01*
D02*
G37*
G36*
X320667Y21745D02*
X320721D01*
Y21690D01*
Y21528D01*
X320613D01*
Y21636D01*
X320558D01*
Y21690D01*
X320396D01*
Y21582D01*
X320341D01*
Y21473D01*
X320124D01*
Y21528D01*
X320070D01*
Y21582D01*
X320124D01*
Y21636D01*
X320233D01*
Y21690D01*
X320287D01*
Y21745D01*
X320450D01*
Y21799D01*
X320667D01*
Y21745D01*
D02*
G37*
G36*
X322784Y18813D02*
X322838D01*
Y18651D01*
X322893D01*
Y18596D01*
X322838D01*
Y18542D01*
Y18216D01*
X322784D01*
Y18162D01*
X322730D01*
Y18108D01*
X322621D01*
Y18922D01*
X322784D01*
Y18813D01*
D02*
G37*
G36*
X321210Y17565D02*
X321264D01*
Y17511D01*
X321318D01*
Y17402D01*
X321373D01*
Y17076D01*
X321318D01*
Y17022D01*
X321264D01*
Y16859D01*
X321210D01*
Y16696D01*
X321101D01*
Y17076D01*
Y17131D01*
Y17673D01*
X321210D01*
Y17565D01*
D02*
G37*
G36*
X321698Y18542D02*
X321753D01*
Y18379D01*
X321807D01*
Y18325D01*
X321861D01*
Y18271D01*
X321916D01*
Y18216D01*
Y18053D01*
X321970D01*
Y17565D01*
X321916D01*
Y17131D01*
X321861D01*
Y16913D01*
X321807D01*
Y16805D01*
X321753D01*
Y16642D01*
X321698D01*
Y16479D01*
X321644D01*
Y16425D01*
X321590D01*
Y16316D01*
X321535D01*
Y16208D01*
X321481D01*
Y16154D01*
X321427D01*
Y16045D01*
X321373D01*
Y15991D01*
X321318D01*
Y15936D01*
X321264D01*
Y15882D01*
X321210D01*
Y15828D01*
X321156D01*
Y15774D01*
X321101D01*
Y15719D01*
X321047D01*
Y15665D01*
X320993D01*
Y15611D01*
X320938D01*
Y15556D01*
X320884D01*
Y15502D01*
X320721D01*
Y15448D01*
X320396D01*
Y15502D01*
X320233D01*
Y15611D01*
X320178D01*
Y15665D01*
X320124D01*
Y15882D01*
X320178D01*
Y15936D01*
X320233D01*
Y16045D01*
X320287D01*
Y16099D01*
X320396D01*
Y16154D01*
X320504D01*
Y16208D01*
X320613D01*
Y16262D01*
X320721D01*
Y16154D01*
X320667D01*
Y16045D01*
X320613D01*
Y15991D01*
X320558D01*
Y15936D01*
X320504D01*
Y15882D01*
X320450D01*
Y15828D01*
X320396D01*
Y15665D01*
X320450D01*
Y15611D01*
X320558D01*
Y15665D01*
X320667D01*
Y15719D01*
X320721D01*
Y15774D01*
X320830D01*
Y15828D01*
X320884D01*
Y15882D01*
X320938D01*
Y15936D01*
X320993D01*
Y15991D01*
X321047D01*
Y16045D01*
X321101D01*
Y16154D01*
X321156D01*
Y16208D01*
X321210D01*
Y16316D01*
X321264D01*
Y16425D01*
X321318D01*
Y16533D01*
X321373D01*
Y16588D01*
X321427D01*
Y16805D01*
X321481D01*
Y16913D01*
X321535D01*
Y17022D01*
X321590D01*
Y17293D01*
X321644D01*
Y17511D01*
X321698D01*
Y17728D01*
X321753D01*
Y18162D01*
X321698D01*
Y18271D01*
X321535D01*
Y18325D01*
X321481D01*
Y18379D01*
X321535D01*
Y18433D01*
X321590D01*
Y18596D01*
X321644D01*
Y18651D01*
X321698D01*
Y18542D01*
D02*
G37*
G36*
X292494Y16533D02*
X292548D01*
Y16371D01*
X292603D01*
Y16316D01*
X292657D01*
Y16099D01*
X292711D01*
Y15991D01*
X292765D01*
Y15882D01*
X292820D01*
Y15774D01*
X292874D01*
Y15611D01*
X292928D01*
Y15502D01*
X292983D01*
Y15394D01*
X293037D01*
Y15285D01*
X293091D01*
Y15231D01*
X293145D01*
Y15122D01*
X293200D01*
Y15014D01*
X293254D01*
Y14959D01*
X293308D01*
Y14851D01*
X293363D01*
Y14797D01*
X293417D01*
Y14688D01*
X293471D01*
Y14579D01*
X293525D01*
Y14525D01*
X293471D01*
Y14471D01*
X293417D01*
Y14525D01*
X293363D01*
Y14579D01*
X293308D01*
Y14634D01*
X293254D01*
Y14688D01*
X293200D01*
Y14742D01*
X293145D01*
Y14797D01*
X293091D01*
Y14905D01*
X293037D01*
Y15014D01*
X292983D01*
Y15068D01*
X292928D01*
Y15176D01*
X292874D01*
Y15285D01*
X292820D01*
Y15339D01*
X292765D01*
Y15448D01*
X292711D01*
Y15611D01*
X292657D01*
Y15719D01*
X292603D01*
Y15828D01*
X292548D01*
Y16045D01*
X292494D01*
Y16208D01*
X292440D01*
Y16316D01*
X292385D01*
Y16588D01*
X292440D01*
Y16642D01*
X292494D01*
Y16533D01*
D02*
G37*
G36*
X302699Y12842D02*
X302645D01*
Y12788D01*
X302591D01*
Y12842D01*
Y12896D01*
Y12951D01*
X302699D01*
Y12842D01*
D02*
G37*
G36*
X302536Y12462D02*
X302428D01*
Y12679D01*
X302536D01*
Y12462D01*
D02*
G37*
M02*
