G04*
G04 #@! TF.GenerationSoftware,Altium Limited,Altium Designer,24.9.1 (31)*
G04*
G04 Layer_Color=65535*
%FSLAX44Y44*%
%MOMM*%
G71*
G04*
G04 #@! TF.SameCoordinates,7DCFF066-EA26-49B3-B75A-539F59D7DBC6*
G04*
G04*
G04 #@! TF.FilePolarity,Positive*
G04*
G01*
G75*
%ADD10C,0.2000*%
%ADD11C,0.1500*%
%ADD12C,0.1500*%
G36*
X274164Y84277D02*
X274153Y84266D01*
X274130Y84244D01*
X274086Y84199D01*
X274042Y84133D01*
X273975Y84055D01*
X273886Y83966D01*
X273797Y83855D01*
X273697Y83722D01*
X273598Y83589D01*
X273475Y83433D01*
X273353Y83256D01*
X273231Y83078D01*
X273098Y82878D01*
X272965Y82668D01*
X272832Y82434D01*
X272698Y82201D01*
X272687Y82190D01*
X272665Y82146D01*
X272632Y82079D01*
X272576Y81979D01*
X272521Y81857D01*
X272454Y81724D01*
X272377Y81569D01*
X272299Y81391D01*
X272210Y81191D01*
X272110Y80991D01*
X272021Y80769D01*
X271933Y80536D01*
X271755Y80059D01*
X271588Y79548D01*
Y79537D01*
X271577Y79504D01*
X271566Y79448D01*
X271544Y79382D01*
X271522Y79293D01*
X271500Y79182D01*
X271466Y79060D01*
X271444Y78927D01*
X271411Y78771D01*
X271378Y78605D01*
X271322Y78250D01*
X271267Y77861D01*
X271233Y77439D01*
X270268D01*
Y77451D01*
Y77484D01*
Y77528D01*
X270279Y77595D01*
Y77684D01*
X270290Y77795D01*
X270301Y77917D01*
X270312Y78050D01*
X270334Y78205D01*
X270357Y78361D01*
X270390Y78549D01*
X270423Y78738D01*
X270456Y78938D01*
X270501Y79160D01*
X270612Y79615D01*
Y79626D01*
X270623Y79671D01*
X270645Y79737D01*
X270678Y79837D01*
X270712Y79948D01*
X270756Y80081D01*
X270800Y80237D01*
X270867Y80403D01*
X270934Y80592D01*
X271000Y80780D01*
X271167Y81202D01*
X271367Y81646D01*
X271588Y82090D01*
X271600Y82101D01*
X271622Y82146D01*
X271655Y82201D01*
X271700Y82290D01*
X271755Y82390D01*
X271833Y82512D01*
X271910Y82645D01*
X271999Y82790D01*
X272210Y83111D01*
X272432Y83444D01*
X272687Y83789D01*
X272954Y84110D01*
X269191D01*
Y85021D01*
X274164D01*
Y84277D01*
D02*
G37*
G36*
X265428Y85109D02*
X265528D01*
X265761Y85098D01*
X266005Y85065D01*
X266272Y85032D01*
X266516Y84976D01*
X266638Y84943D01*
X266738Y84910D01*
X266749D01*
X266760Y84899D01*
X266827Y84865D01*
X266927Y84821D01*
X267049Y84743D01*
X267182Y84643D01*
X267326Y84510D01*
X267459Y84355D01*
X267593Y84177D01*
Y84166D01*
X267604Y84155D01*
X267648Y84088D01*
X267693Y83977D01*
X267759Y83833D01*
X267815Y83666D01*
X267870Y83467D01*
X267903Y83256D01*
X267915Y83023D01*
Y83012D01*
Y82989D01*
Y82945D01*
X267903Y82889D01*
Y82812D01*
X267892Y82734D01*
X267848Y82545D01*
X267781Y82323D01*
X267693Y82090D01*
X267559Y81857D01*
X267470Y81746D01*
X267382Y81635D01*
X267371Y81624D01*
X267360Y81613D01*
X267326Y81580D01*
X267282Y81546D01*
X267226Y81502D01*
X267160Y81458D01*
X267071Y81402D01*
X266982Y81335D01*
X266871Y81280D01*
X266749Y81224D01*
X266616Y81158D01*
X266472Y81102D01*
X266305Y81058D01*
X266138Y81003D01*
X265950Y80969D01*
X265750Y80936D01*
X265772Y80925D01*
X265817Y80903D01*
X265883Y80858D01*
X265972Y80814D01*
X266172Y80692D01*
X266272Y80614D01*
X266360Y80547D01*
X266383Y80525D01*
X266438Y80470D01*
X266527Y80381D01*
X266638Y80270D01*
X266760Y80114D01*
X266904Y79948D01*
X267049Y79748D01*
X267204Y79526D01*
X268525Y77439D01*
X267260D01*
X266250Y79038D01*
Y79049D01*
X266227Y79071D01*
X266205Y79104D01*
X266172Y79149D01*
X266094Y79271D01*
X265994Y79426D01*
X265872Y79593D01*
X265750Y79770D01*
X265628Y79937D01*
X265517Y80092D01*
X265506Y80103D01*
X265473Y80148D01*
X265417Y80214D01*
X265339Y80292D01*
X265173Y80459D01*
X265084Y80536D01*
X264995Y80603D01*
X264984Y80614D01*
X264962Y80625D01*
X264918Y80647D01*
X264851Y80681D01*
X264784Y80714D01*
X264707Y80747D01*
X264529Y80803D01*
X264518D01*
X264496Y80814D01*
X264451D01*
X264396Y80825D01*
X264318Y80836D01*
X264229D01*
X264107Y80847D01*
X262798D01*
Y77439D01*
X261776D01*
Y85120D01*
X265339D01*
X265428Y85109D01*
D02*
G37*
G36*
X222810Y77506D02*
X222898Y77495D01*
X223009Y77484D01*
X223132Y77462D01*
X223254Y77439D01*
X223542Y77362D01*
X223831Y77251D01*
X223975Y77184D01*
X224119Y77106D01*
X224253Y77007D01*
X224375Y76896D01*
X224386Y76884D01*
X224408Y76873D01*
X224430Y76829D01*
X224475Y76785D01*
X224530Y76729D01*
X224586Y76651D01*
X224641Y76574D01*
X224708Y76474D01*
X224819Y76263D01*
X224930Y75996D01*
X224974Y75863D01*
X224996Y75708D01*
X225019Y75553D01*
X225030Y75386D01*
Y75364D01*
Y75308D01*
X225019Y75219D01*
X225007Y75097D01*
X224985Y74964D01*
X224941Y74809D01*
X224896Y74642D01*
X224830Y74476D01*
X224819Y74454D01*
X224797Y74398D01*
X224752Y74309D01*
X224685Y74187D01*
X224597Y74054D01*
X224486Y73888D01*
X224352Y73721D01*
X224197Y73532D01*
X224175Y73510D01*
X224119Y73444D01*
X224064Y73388D01*
X224008Y73333D01*
X223942Y73266D01*
X223853Y73177D01*
X223764Y73088D01*
X223653Y72989D01*
X223542Y72877D01*
X223409Y72755D01*
X223265Y72633D01*
X223109Y72489D01*
X222932Y72345D01*
X222754Y72189D01*
X222743Y72178D01*
X222721Y72156D01*
X222676Y72123D01*
X222621Y72078D01*
X222554Y72012D01*
X222477Y71945D01*
X222299Y71801D01*
X222110Y71634D01*
X221933Y71468D01*
X221777Y71323D01*
X221711Y71268D01*
X221655Y71213D01*
X221644Y71201D01*
X221611Y71168D01*
X221567Y71124D01*
X221511Y71057D01*
X221455Y70979D01*
X221389Y70902D01*
X221256Y70713D01*
X225041D01*
Y69803D01*
X219946D01*
Y69814D01*
Y69858D01*
Y69925D01*
X219957Y70014D01*
X219968Y70114D01*
X219990Y70225D01*
X220012Y70336D01*
X220057Y70458D01*
Y70469D01*
X220068Y70480D01*
X220090Y70546D01*
X220135Y70646D01*
X220201Y70780D01*
X220290Y70935D01*
X220401Y71113D01*
X220523Y71290D01*
X220679Y71479D01*
Y71490D01*
X220701Y71501D01*
X220756Y71568D01*
X220856Y71668D01*
X221000Y71812D01*
X221167Y71978D01*
X221378Y72178D01*
X221633Y72400D01*
X221911Y72633D01*
X221922Y72644D01*
X221966Y72678D01*
X222033Y72733D01*
X222110Y72800D01*
X222210Y72889D01*
X222332Y72989D01*
X222454Y73099D01*
X222599Y73222D01*
X222876Y73488D01*
X223154Y73754D01*
X223287Y73888D01*
X223409Y74021D01*
X223520Y74143D01*
X223609Y74265D01*
Y74276D01*
X223631Y74287D01*
X223653Y74321D01*
X223675Y74365D01*
X223753Y74487D01*
X223842Y74631D01*
X223920Y74809D01*
X223997Y74998D01*
X224042Y75208D01*
X224064Y75408D01*
Y75419D01*
Y75430D01*
X224053Y75497D01*
X224042Y75608D01*
X224008Y75730D01*
X223964Y75886D01*
X223886Y76041D01*
X223786Y76196D01*
X223653Y76352D01*
X223631Y76374D01*
X223575Y76418D01*
X223498Y76474D01*
X223376Y76551D01*
X223220Y76618D01*
X223043Y76685D01*
X222832Y76729D01*
X222599Y76740D01*
X222532D01*
X222488Y76729D01*
X222355Y76718D01*
X222199Y76685D01*
X222033Y76640D01*
X221844Y76563D01*
X221666Y76463D01*
X221500Y76329D01*
X221478Y76307D01*
X221433Y76252D01*
X221367Y76163D01*
X221300Y76030D01*
X221222Y75874D01*
X221156Y75675D01*
X221111Y75453D01*
X221089Y75197D01*
X220124Y75297D01*
Y75308D01*
X220135Y75342D01*
Y75397D01*
X220146Y75475D01*
X220168Y75564D01*
X220190Y75663D01*
X220223Y75786D01*
X220257Y75908D01*
X220345Y76174D01*
X220479Y76441D01*
X220556Y76574D01*
X220656Y76707D01*
X220756Y76829D01*
X220867Y76940D01*
X220878Y76951D01*
X220900Y76962D01*
X220934Y76996D01*
X220989Y77029D01*
X221056Y77073D01*
X221134Y77118D01*
X221222Y77173D01*
X221333Y77229D01*
X221455Y77284D01*
X221589Y77340D01*
X221733Y77384D01*
X221888Y77428D01*
X222055Y77462D01*
X222232Y77495D01*
X222421Y77506D01*
X222621Y77517D01*
X222732D01*
X222810Y77506D01*
D02*
G37*
G36*
X217659Y69803D02*
X216716D01*
Y75808D01*
X216705Y75797D01*
X216649Y75752D01*
X216583Y75686D01*
X216472Y75608D01*
X216350Y75508D01*
X216194Y75397D01*
X216017Y75275D01*
X215817Y75153D01*
X215806D01*
X215795Y75142D01*
X215728Y75097D01*
X215617Y75042D01*
X215484Y74975D01*
X215328Y74898D01*
X215162Y74820D01*
X214995Y74742D01*
X214829Y74676D01*
Y75586D01*
X214840D01*
X214862Y75608D01*
X214907Y75619D01*
X214962Y75652D01*
X215029Y75686D01*
X215106Y75730D01*
X215295Y75841D01*
X215517Y75963D01*
X215739Y76119D01*
X215972Y76296D01*
X216205Y76485D01*
X216216Y76496D01*
X216227Y76507D01*
X216261Y76540D01*
X216305Y76574D01*
X216405Y76685D01*
X216538Y76818D01*
X216671Y76973D01*
X216816Y77151D01*
X216938Y77329D01*
X217049Y77517D01*
X217659D01*
Y69803D01*
D02*
G37*
G36*
X210411Y77473D02*
X210511D01*
X210744Y77462D01*
X210988Y77428D01*
X211255Y77395D01*
X211499Y77340D01*
X211621Y77306D01*
X211721Y77273D01*
X211732D01*
X211743Y77262D01*
X211810Y77229D01*
X211910Y77184D01*
X212032Y77106D01*
X212165Y77007D01*
X212309Y76873D01*
X212442Y76718D01*
X212576Y76540D01*
Y76529D01*
X212587Y76518D01*
X212631Y76452D01*
X212675Y76341D01*
X212742Y76196D01*
X212798Y76030D01*
X212853Y75830D01*
X212886Y75619D01*
X212897Y75386D01*
Y75375D01*
Y75353D01*
Y75308D01*
X212886Y75253D01*
Y75175D01*
X212875Y75097D01*
X212831Y74909D01*
X212764Y74687D01*
X212675Y74454D01*
X212542Y74221D01*
X212453Y74110D01*
X212365Y73999D01*
X212354Y73987D01*
X212342Y73976D01*
X212309Y73943D01*
X212265Y73910D01*
X212209Y73865D01*
X212143Y73821D01*
X212054Y73766D01*
X211965Y73699D01*
X211854Y73643D01*
X211732Y73588D01*
X211599Y73521D01*
X211455Y73466D01*
X211288Y73421D01*
X211122Y73366D01*
X210933Y73333D01*
X210733Y73299D01*
X210755Y73288D01*
X210800Y73266D01*
X210866Y73222D01*
X210955Y73177D01*
X211155Y73055D01*
X211255Y72977D01*
X211343Y72911D01*
X211366Y72889D01*
X211421Y72833D01*
X211510Y72744D01*
X211621Y72633D01*
X211743Y72478D01*
X211887Y72311D01*
X212032Y72112D01*
X212187Y71890D01*
X213508Y69803D01*
X212243D01*
X211232Y71401D01*
Y71412D01*
X211210Y71434D01*
X211188Y71468D01*
X211155Y71512D01*
X211077Y71634D01*
X210977Y71790D01*
X210855Y71956D01*
X210733Y72134D01*
X210611Y72300D01*
X210500Y72456D01*
X210489Y72467D01*
X210456Y72511D01*
X210400Y72578D01*
X210322Y72656D01*
X210156Y72822D01*
X210067Y72900D01*
X209978Y72966D01*
X209967Y72977D01*
X209945Y72989D01*
X209901Y73011D01*
X209834Y73044D01*
X209767Y73077D01*
X209690Y73111D01*
X209512Y73166D01*
X209501D01*
X209479Y73177D01*
X209434D01*
X209379Y73188D01*
X209301Y73199D01*
X209212D01*
X209090Y73211D01*
X207780D01*
Y69803D01*
X206759D01*
Y77484D01*
X210322D01*
X210411Y77473D01*
D02*
G37*
G36*
X116132Y69549D02*
X115188D01*
Y75554D01*
X115177Y75543D01*
X115122Y75498D01*
X115055Y75432D01*
X114944Y75354D01*
X114822Y75254D01*
X114667Y75143D01*
X114489Y75021D01*
X114289Y74899D01*
X114278D01*
X114267Y74888D01*
X114200Y74843D01*
X114089Y74788D01*
X113956Y74721D01*
X113801Y74644D01*
X113634Y74566D01*
X113468Y74488D01*
X113301Y74422D01*
Y75332D01*
X113313D01*
X113335Y75354D01*
X113379Y75365D01*
X113435Y75398D01*
X113501Y75432D01*
X113579Y75476D01*
X113768Y75587D01*
X113990Y75709D01*
X114212Y75865D01*
X114445Y76042D01*
X114678Y76231D01*
X114689Y76242D01*
X114700Y76253D01*
X114733Y76286D01*
X114778Y76320D01*
X114878Y76431D01*
X115011Y76564D01*
X115144Y76719D01*
X115288Y76897D01*
X115410Y77074D01*
X115521Y77263D01*
X116132D01*
Y69549D01*
D02*
G37*
G36*
X110160D02*
X109217D01*
Y75554D01*
X109206Y75543D01*
X109150Y75498D01*
X109083Y75432D01*
X108973Y75354D01*
X108850Y75254D01*
X108695Y75143D01*
X108517Y75021D01*
X108318Y74899D01*
X108307D01*
X108295Y74888D01*
X108229Y74843D01*
X108118Y74788D01*
X107985Y74721D01*
X107829Y74644D01*
X107663Y74566D01*
X107496Y74488D01*
X107330Y74422D01*
Y75332D01*
X107341D01*
X107363Y75354D01*
X107407Y75365D01*
X107463Y75398D01*
X107529Y75432D01*
X107607Y75476D01*
X107796Y75587D01*
X108018Y75709D01*
X108240Y75865D01*
X108473Y76042D01*
X108706Y76231D01*
X108717Y76242D01*
X108728Y76253D01*
X108762Y76286D01*
X108806Y76320D01*
X108906Y76431D01*
X109039Y76564D01*
X109172Y76719D01*
X109317Y76897D01*
X109439Y77074D01*
X109550Y77263D01*
X110160D01*
Y69549D01*
D02*
G37*
G36*
X102912Y77219D02*
X103012D01*
X103245Y77208D01*
X103489Y77174D01*
X103756Y77141D01*
X104000Y77086D01*
X104122Y77052D01*
X104222Y77019D01*
X104233D01*
X104244Y77008D01*
X104311Y76975D01*
X104410Y76930D01*
X104533Y76852D01*
X104666Y76753D01*
X104810Y76619D01*
X104943Y76464D01*
X105076Y76286D01*
Y76275D01*
X105087Y76264D01*
X105132Y76198D01*
X105176Y76087D01*
X105243Y75942D01*
X105298Y75776D01*
X105354Y75576D01*
X105387Y75365D01*
X105398Y75132D01*
Y75121D01*
Y75099D01*
Y75054D01*
X105387Y74999D01*
Y74921D01*
X105376Y74843D01*
X105332Y74655D01*
X105265Y74433D01*
X105176Y74200D01*
X105043Y73967D01*
X104954Y73856D01*
X104866Y73745D01*
X104854Y73734D01*
X104843Y73722D01*
X104810Y73689D01*
X104766Y73656D01*
X104710Y73611D01*
X104644Y73567D01*
X104555Y73512D01*
X104466Y73445D01*
X104355Y73389D01*
X104233Y73334D01*
X104100Y73267D01*
X103955Y73212D01*
X103789Y73167D01*
X103622Y73112D01*
X103434Y73079D01*
X103234Y73045D01*
X103256Y73034D01*
X103301Y73012D01*
X103367Y72968D01*
X103456Y72923D01*
X103656Y72801D01*
X103756Y72723D01*
X103844Y72657D01*
X103867Y72635D01*
X103922Y72579D01*
X104011Y72490D01*
X104122Y72379D01*
X104244Y72224D01*
X104388Y72057D01*
X104533Y71858D01*
X104688Y71636D01*
X106009Y69549D01*
X104743D01*
X103733Y71147D01*
Y71158D01*
X103711Y71181D01*
X103689Y71214D01*
X103656Y71258D01*
X103578Y71380D01*
X103478Y71536D01*
X103356Y71702D01*
X103234Y71880D01*
X103112Y72046D01*
X103001Y72202D01*
X102990Y72213D01*
X102956Y72257D01*
X102901Y72324D01*
X102823Y72401D01*
X102657Y72568D01*
X102568Y72646D01*
X102479Y72712D01*
X102468Y72723D01*
X102446Y72734D01*
X102401Y72757D01*
X102335Y72790D01*
X102268Y72823D01*
X102191Y72857D01*
X102013Y72912D01*
X102002D01*
X101980Y72923D01*
X101935D01*
X101880Y72934D01*
X101802Y72945D01*
X101713D01*
X101591Y72957D01*
X100281D01*
Y69549D01*
X99260D01*
Y77230D01*
X102823D01*
X102912Y77219D01*
D02*
G37*
G36*
X244302Y69869D02*
X243358D01*
Y75874D01*
X243347Y75863D01*
X243291Y75819D01*
X243225Y75752D01*
X243114Y75675D01*
X242992Y75575D01*
X242836Y75464D01*
X242659Y75342D01*
X242459Y75219D01*
X242448D01*
X242437Y75208D01*
X242370Y75164D01*
X242259Y75108D01*
X242126Y75042D01*
X241971Y74964D01*
X241804Y74886D01*
X241638Y74809D01*
X241471Y74742D01*
Y75652D01*
X241482D01*
X241504Y75675D01*
X241549Y75686D01*
X241604Y75719D01*
X241671Y75752D01*
X241749Y75797D01*
X241937Y75908D01*
X242159Y76030D01*
X242381Y76185D01*
X242614Y76363D01*
X242847Y76551D01*
X242859Y76563D01*
X242870Y76574D01*
X242903Y76607D01*
X242947Y76640D01*
X243047Y76751D01*
X243181Y76884D01*
X243314Y77040D01*
X243458Y77217D01*
X243580Y77395D01*
X243691Y77584D01*
X244302D01*
Y69869D01*
D02*
G37*
G36*
X237053Y77539D02*
X237153D01*
X237386Y77528D01*
X237631Y77495D01*
X237897Y77462D01*
X238141Y77406D01*
X238263Y77373D01*
X238363Y77340D01*
X238374D01*
X238385Y77329D01*
X238452Y77295D01*
X238552Y77251D01*
X238674Y77173D01*
X238807Y77073D01*
X238951Y76940D01*
X239085Y76785D01*
X239218Y76607D01*
Y76596D01*
X239229Y76585D01*
X239273Y76518D01*
X239318Y76407D01*
X239384Y76263D01*
X239440Y76096D01*
X239495Y75897D01*
X239529Y75686D01*
X239540Y75453D01*
Y75441D01*
Y75419D01*
Y75375D01*
X239529Y75319D01*
Y75242D01*
X239518Y75164D01*
X239473Y74975D01*
X239407Y74753D01*
X239318Y74520D01*
X239185Y74287D01*
X239096Y74176D01*
X239007Y74065D01*
X238996Y74054D01*
X238985Y74043D01*
X238951Y74010D01*
X238907Y73976D01*
X238852Y73932D01*
X238785Y73888D01*
X238696Y73832D01*
X238607Y73766D01*
X238496Y73710D01*
X238374Y73654D01*
X238241Y73588D01*
X238097Y73532D01*
X237930Y73488D01*
X237764Y73432D01*
X237575Y73399D01*
X237375Y73366D01*
X237397Y73355D01*
X237442Y73333D01*
X237509Y73288D01*
X237597Y73244D01*
X237797Y73122D01*
X237897Y73044D01*
X237986Y72977D01*
X238008Y72955D01*
X238064Y72900D01*
X238152Y72811D01*
X238263Y72700D01*
X238385Y72544D01*
X238530Y72378D01*
X238674Y72178D01*
X238829Y71956D01*
X240150Y69869D01*
X238885D01*
X237875Y71468D01*
Y71479D01*
X237853Y71501D01*
X237830Y71534D01*
X237797Y71579D01*
X237719Y71701D01*
X237619Y71856D01*
X237497Y72023D01*
X237375Y72200D01*
X237253Y72367D01*
X237142Y72522D01*
X237131Y72533D01*
X237098Y72578D01*
X237042Y72644D01*
X236965Y72722D01*
X236798Y72889D01*
X236709Y72966D01*
X236621Y73033D01*
X236609Y73044D01*
X236587Y73055D01*
X236543Y73077D01*
X236476Y73111D01*
X236410Y73144D01*
X236332Y73177D01*
X236154Y73233D01*
X236143D01*
X236121Y73244D01*
X236077D01*
X236021Y73255D01*
X235943Y73266D01*
X235855D01*
X235732Y73277D01*
X234423D01*
Y69869D01*
X233402D01*
Y77551D01*
X236965D01*
X237053Y77539D01*
D02*
G37*
G36*
X249452Y77573D02*
X249596Y77551D01*
X249763Y77517D01*
X249940Y77473D01*
X250129Y77417D01*
X250307Y77329D01*
X250318D01*
X250329Y77317D01*
X250384Y77284D01*
X250473Y77229D01*
X250584Y77151D01*
X250706Y77040D01*
X250839Y76918D01*
X250961Y76774D01*
X251084Y76607D01*
X251095Y76585D01*
X251139Y76529D01*
X251183Y76429D01*
X251261Y76285D01*
X251328Y76119D01*
X251416Y75930D01*
X251494Y75708D01*
X251561Y75464D01*
Y75453D01*
X251572Y75430D01*
X251583Y75397D01*
X251594Y75342D01*
X251605Y75275D01*
X251616Y75197D01*
X251639Y75097D01*
X251650Y74986D01*
X251672Y74864D01*
X251683Y74731D01*
X251694Y74576D01*
X251716Y74420D01*
X251727Y74243D01*
Y74065D01*
X251738Y73865D01*
Y73654D01*
Y73643D01*
Y73599D01*
Y73521D01*
Y73432D01*
X251727Y73310D01*
Y73177D01*
X251716Y73033D01*
X251705Y72877D01*
X251672Y72522D01*
X251616Y72156D01*
X251550Y71801D01*
X251505Y71634D01*
X251450Y71468D01*
Y71457D01*
X251439Y71434D01*
X251416Y71390D01*
X251394Y71335D01*
X251372Y71257D01*
X251328Y71179D01*
X251239Y70991D01*
X251128Y70791D01*
X250984Y70569D01*
X250817Y70369D01*
X250617Y70180D01*
X250606D01*
X250595Y70158D01*
X250562Y70136D01*
X250518Y70114D01*
X250462Y70080D01*
X250406Y70036D01*
X250240Y69958D01*
X250040Y69880D01*
X249807Y69803D01*
X249530Y69758D01*
X249230Y69736D01*
X249119D01*
X249041Y69747D01*
X248952Y69758D01*
X248841Y69781D01*
X248719Y69803D01*
X248586Y69836D01*
X248453Y69880D01*
X248309Y69925D01*
X248164Y69991D01*
X248020Y70069D01*
X247876Y70158D01*
X247731Y70269D01*
X247598Y70391D01*
X247476Y70524D01*
X247465Y70535D01*
X247443Y70569D01*
X247409Y70624D01*
X247354Y70713D01*
X247299Y70813D01*
X247243Y70946D01*
X247165Y71101D01*
X247099Y71279D01*
X247032Y71479D01*
X246966Y71712D01*
X246899Y71967D01*
X246843Y72256D01*
X246788Y72567D01*
X246755Y72900D01*
X246732Y73266D01*
X246721Y73654D01*
Y73666D01*
Y73710D01*
Y73788D01*
Y73877D01*
X246732Y73999D01*
Y74132D01*
X246744Y74276D01*
X246755Y74443D01*
X246788Y74787D01*
X246843Y75153D01*
X246910Y75519D01*
X246954Y75686D01*
X246999Y75852D01*
Y75863D01*
X247010Y75886D01*
X247032Y75930D01*
X247054Y75985D01*
X247076Y76063D01*
X247121Y76141D01*
X247210Y76329D01*
X247321Y76529D01*
X247465Y76740D01*
X247631Y76951D01*
X247831Y77129D01*
X247842D01*
X247854Y77151D01*
X247887Y77173D01*
X247931Y77195D01*
X247987Y77240D01*
X248053Y77273D01*
X248220Y77362D01*
X248420Y77439D01*
X248653Y77517D01*
X248930Y77562D01*
X249230Y77584D01*
X249330D01*
X249452Y77573D01*
D02*
G37*
G36*
X145931Y83669D02*
X145986D01*
X146064Y83658D01*
X146253Y83624D01*
X146463Y83580D01*
X146697Y83502D01*
X146930Y83402D01*
X147163Y83269D01*
X147174D01*
X147185Y83247D01*
X147218Y83225D01*
X147263Y83191D01*
X147374Y83103D01*
X147518Y82980D01*
X147662Y82814D01*
X147829Y82614D01*
X147973Y82381D01*
X148106Y82115D01*
Y82104D01*
X148117Y82081D01*
X148140Y82037D01*
X148162Y81981D01*
X148184Y81904D01*
X148217Y81804D01*
X148239Y81693D01*
X148273Y81571D01*
X148306Y81426D01*
X148339Y81260D01*
X148362Y81082D01*
X148384Y80894D01*
X148406Y80683D01*
X148428Y80461D01*
X148439Y80217D01*
Y79961D01*
Y79950D01*
Y79895D01*
Y79817D01*
Y79717D01*
X148428Y79595D01*
Y79451D01*
X148417Y79284D01*
X148395Y79118D01*
X148362Y78740D01*
X148306Y78341D01*
X148228Y77963D01*
X148173Y77775D01*
X148117Y77608D01*
Y77597D01*
X148106Y77575D01*
X148084Y77530D01*
X148062Y77464D01*
X148029Y77397D01*
X147984Y77309D01*
X147873Y77120D01*
X147740Y76909D01*
X147585Y76687D01*
X147385Y76476D01*
X147163Y76287D01*
X147152D01*
X147129Y76265D01*
X147096Y76243D01*
X147052Y76221D01*
X146985Y76187D01*
X146919Y76143D01*
X146830Y76099D01*
X146741Y76065D01*
X146530Y75977D01*
X146275Y75899D01*
X145997Y75854D01*
X145687Y75832D01*
X145598D01*
X145542Y75843D01*
X145464D01*
X145376Y75854D01*
X145165Y75899D01*
X144932Y75954D01*
X144688Y76043D01*
X144443Y76165D01*
X144321Y76243D01*
X144210Y76332D01*
X144199Y76343D01*
X144188Y76354D01*
X144155Y76387D01*
X144121Y76420D01*
X144077Y76476D01*
X144022Y76543D01*
X143911Y76698D01*
X143799Y76898D01*
X143688Y77142D01*
X143600Y77420D01*
X143533Y77741D01*
X144443Y77819D01*
Y77808D01*
X144454Y77786D01*
Y77764D01*
X144466Y77719D01*
X144499Y77597D01*
X144543Y77464D01*
X144599Y77309D01*
X144676Y77153D01*
X144765Y77009D01*
X144876Y76887D01*
X144887Y76876D01*
X144932Y76842D01*
X145009Y76798D01*
X145098Y76754D01*
X145220Y76698D01*
X145365Y76654D01*
X145531Y76620D01*
X145709Y76609D01*
X145786D01*
X145864Y76620D01*
X145964Y76631D01*
X146086Y76654D01*
X146208Y76687D01*
X146341Y76731D01*
X146463Y76798D01*
X146475Y76809D01*
X146519Y76831D01*
X146586Y76876D01*
X146652Y76942D01*
X146741Y77020D01*
X146830Y77109D01*
X146919Y77209D01*
X147007Y77331D01*
X147018Y77342D01*
X147041Y77397D01*
X147085Y77475D01*
X147129Y77575D01*
X147185Y77708D01*
X147240Y77863D01*
X147296Y78041D01*
X147352Y78241D01*
Y78252D01*
X147363Y78263D01*
Y78296D01*
X147374Y78341D01*
X147396Y78452D01*
X147429Y78596D01*
X147451Y78774D01*
X147474Y78962D01*
X147485Y79173D01*
X147496Y79395D01*
Y79406D01*
Y79440D01*
Y79495D01*
Y79584D01*
X147485Y79562D01*
X147440Y79506D01*
X147374Y79429D01*
X147296Y79318D01*
X147185Y79207D01*
X147052Y79085D01*
X146896Y78962D01*
X146719Y78851D01*
X146697Y78840D01*
X146630Y78807D01*
X146530Y78763D01*
X146408Y78718D01*
X146242Y78663D01*
X146064Y78618D01*
X145864Y78585D01*
X145653Y78574D01*
X145564D01*
X145498Y78585D01*
X145409Y78596D01*
X145320Y78607D01*
X145209Y78629D01*
X145098Y78663D01*
X144843Y78740D01*
X144710Y78796D01*
X144577Y78863D01*
X144432Y78940D01*
X144299Y79040D01*
X144166Y79140D01*
X144044Y79262D01*
X144033Y79273D01*
X144010Y79295D01*
X143988Y79329D01*
X143944Y79384D01*
X143888Y79462D01*
X143833Y79540D01*
X143777Y79640D01*
X143722Y79750D01*
X143655Y79873D01*
X143600Y80006D01*
X143544Y80161D01*
X143489Y80317D01*
X143444Y80494D01*
X143422Y80683D01*
X143400Y80871D01*
X143389Y81082D01*
Y81094D01*
Y81138D01*
Y81193D01*
X143400Y81271D01*
X143411Y81371D01*
X143422Y81493D01*
X143444Y81615D01*
X143478Y81760D01*
X143555Y82048D01*
X143611Y82204D01*
X143677Y82370D01*
X143755Y82525D01*
X143855Y82670D01*
X143955Y82825D01*
X144077Y82958D01*
X144088Y82969D01*
X144110Y82992D01*
X144144Y83025D01*
X144199Y83069D01*
X144266Y83125D01*
X144354Y83191D01*
X144443Y83247D01*
X144554Y83325D01*
X144665Y83391D01*
X144798Y83447D01*
X145098Y83569D01*
X145254Y83613D01*
X145431Y83646D01*
X145609Y83669D01*
X145798Y83680D01*
X145875D01*
X145931Y83669D01*
D02*
G37*
G36*
X139693Y83635D02*
X139792D01*
X140026Y83624D01*
X140270Y83591D01*
X140536Y83558D01*
X140780Y83502D01*
X140903Y83469D01*
X141002Y83436D01*
X141013D01*
X141025Y83425D01*
X141091Y83391D01*
X141191Y83347D01*
X141313Y83269D01*
X141446Y83169D01*
X141591Y83036D01*
X141724Y82881D01*
X141857Y82703D01*
Y82692D01*
X141868Y82681D01*
X141913Y82614D01*
X141957Y82503D01*
X142024Y82359D01*
X142079Y82192D01*
X142135Y81993D01*
X142168Y81782D01*
X142179Y81549D01*
Y81538D01*
Y81515D01*
Y81471D01*
X142168Y81415D01*
Y81338D01*
X142157Y81260D01*
X142112Y81071D01*
X142046Y80849D01*
X141957Y80616D01*
X141824Y80383D01*
X141735Y80272D01*
X141646Y80161D01*
X141635Y80150D01*
X141624Y80139D01*
X141591Y80106D01*
X141546Y80072D01*
X141491Y80028D01*
X141424Y79984D01*
X141335Y79928D01*
X141247Y79861D01*
X141136Y79806D01*
X141013Y79750D01*
X140880Y79684D01*
X140736Y79628D01*
X140569Y79584D01*
X140403Y79528D01*
X140214Y79495D01*
X140014Y79462D01*
X140037Y79451D01*
X140081Y79429D01*
X140148Y79384D01*
X140237Y79340D01*
X140436Y79218D01*
X140536Y79140D01*
X140625Y79073D01*
X140647Y79051D01*
X140703Y78996D01*
X140792Y78907D01*
X140903Y78796D01*
X141025Y78640D01*
X141169Y78474D01*
X141313Y78274D01*
X141469Y78052D01*
X142789Y75965D01*
X141524D01*
X140514Y77564D01*
Y77575D01*
X140492Y77597D01*
X140470Y77630D01*
X140436Y77675D01*
X140359Y77797D01*
X140259Y77952D01*
X140137Y78119D01*
X140014Y78296D01*
X139892Y78463D01*
X139781Y78618D01*
X139770Y78629D01*
X139737Y78674D01*
X139682Y78740D01*
X139604Y78818D01*
X139437Y78985D01*
X139348Y79062D01*
X139260Y79129D01*
X139249Y79140D01*
X139226Y79151D01*
X139182Y79173D01*
X139115Y79207D01*
X139049Y79240D01*
X138971Y79273D01*
X138793Y79329D01*
X138782D01*
X138760Y79340D01*
X138716D01*
X138660Y79351D01*
X138583Y79362D01*
X138494D01*
X138372Y79373D01*
X137062D01*
Y75965D01*
X136041D01*
Y83646D01*
X139604D01*
X139693Y83635D01*
D02*
G37*
G36*
X292093Y85159D02*
X292192D01*
X292426Y85148D01*
X292670Y85115D01*
X292936Y85082D01*
X293180Y85026D01*
X293302Y84993D01*
X293402Y84960D01*
X293414D01*
X293425Y84949D01*
X293491Y84915D01*
X293591Y84871D01*
X293713Y84793D01*
X293846Y84693D01*
X293991Y84560D01*
X294124Y84405D01*
X294257Y84227D01*
Y84216D01*
X294268Y84205D01*
X294313Y84138D01*
X294357Y84027D01*
X294424Y83883D01*
X294479Y83716D01*
X294535Y83517D01*
X294568Y83306D01*
X294579Y83073D01*
Y83062D01*
Y83039D01*
Y82995D01*
X294568Y82939D01*
Y82862D01*
X294557Y82784D01*
X294512Y82595D01*
X294446Y82373D01*
X294357Y82140D01*
X294224Y81907D01*
X294135Y81796D01*
X294046Y81685D01*
X294035Y81674D01*
X294024Y81663D01*
X293991Y81630D01*
X293946Y81596D01*
X293891Y81552D01*
X293824Y81508D01*
X293735Y81452D01*
X293647Y81385D01*
X293536Y81330D01*
X293414Y81274D01*
X293280Y81208D01*
X293136Y81152D01*
X292969Y81108D01*
X292803Y81053D01*
X292614Y81019D01*
X292414Y80986D01*
X292437Y80975D01*
X292481Y80953D01*
X292548Y80908D01*
X292637Y80864D01*
X292836Y80742D01*
X292936Y80664D01*
X293025Y80597D01*
X293047Y80575D01*
X293103Y80520D01*
X293192Y80431D01*
X293302Y80320D01*
X293425Y80164D01*
X293569Y79998D01*
X293713Y79798D01*
X293869Y79576D01*
X295189Y77489D01*
X293924D01*
X292914Y79088D01*
Y79099D01*
X292892Y79121D01*
X292870Y79154D01*
X292836Y79199D01*
X292759Y79321D01*
X292659Y79476D01*
X292537Y79643D01*
X292414Y79820D01*
X292292Y79987D01*
X292181Y80142D01*
X292170Y80153D01*
X292137Y80198D01*
X292082Y80264D01*
X292004Y80342D01*
X291837Y80509D01*
X291749Y80586D01*
X291660Y80653D01*
X291649Y80664D01*
X291626Y80675D01*
X291582Y80697D01*
X291515Y80731D01*
X291449Y80764D01*
X291371Y80797D01*
X291194Y80853D01*
X291182D01*
X291160Y80864D01*
X291116D01*
X291060Y80875D01*
X290983Y80886D01*
X290894D01*
X290772Y80897D01*
X289462D01*
Y77489D01*
X288441D01*
Y85170D01*
X292004D01*
X292093Y85159D01*
D02*
G37*
G36*
X298453Y85193D02*
X298542Y85182D01*
X298641Y85170D01*
X298752Y85159D01*
X298864Y85126D01*
X299130Y85059D01*
X299396Y84960D01*
X299529Y84893D01*
X299663Y84815D01*
X299785Y84715D01*
X299907Y84615D01*
X299918Y84604D01*
X299929Y84593D01*
X299962Y84560D01*
X300007Y84516D01*
X300051Y84449D01*
X300107Y84382D01*
X300218Y84216D01*
X300329Y84005D01*
X300429Y83761D01*
X300506Y83483D01*
X300517Y83339D01*
X300529Y83184D01*
Y83173D01*
Y83161D01*
Y83095D01*
X300517Y82995D01*
X300495Y82873D01*
X300462Y82717D01*
X300406Y82562D01*
X300340Y82407D01*
X300240Y82251D01*
X300229Y82229D01*
X300184Y82185D01*
X300118Y82118D01*
X300029Y82029D01*
X299907Y81929D01*
X299763Y81830D01*
X299596Y81730D01*
X299396Y81641D01*
X299407D01*
X299430Y81630D01*
X299463Y81619D01*
X299507Y81596D01*
X299641Y81541D01*
X299796Y81463D01*
X299962Y81352D01*
X300140Y81230D01*
X300306Y81075D01*
X300462Y80897D01*
Y80886D01*
X300473Y80875D01*
X300517Y80808D01*
X300584Y80697D01*
X300651Y80553D01*
X300717Y80375D01*
X300784Y80164D01*
X300828Y79931D01*
X300839Y79676D01*
Y79665D01*
Y79632D01*
Y79576D01*
X300828Y79510D01*
X300817Y79432D01*
X300806Y79332D01*
X300784Y79221D01*
X300751Y79099D01*
X300673Y78844D01*
X300617Y78699D01*
X300540Y78566D01*
X300462Y78422D01*
X300373Y78289D01*
X300262Y78155D01*
X300140Y78022D01*
X300129Y78011D01*
X300107Y77989D01*
X300073Y77956D01*
X300018Y77922D01*
X299940Y77867D01*
X299862Y77811D01*
X299763Y77756D01*
X299652Y77689D01*
X299529Y77623D01*
X299385Y77567D01*
X299230Y77512D01*
X299074Y77456D01*
X298897Y77423D01*
X298708Y77389D01*
X298519Y77367D01*
X298309Y77356D01*
X298197D01*
X298120Y77367D01*
X298020Y77378D01*
X297909Y77389D01*
X297787Y77412D01*
X297654Y77445D01*
X297354Y77523D01*
X297199Y77578D01*
X297054Y77634D01*
X296899Y77711D01*
X296743Y77800D01*
X296599Y77900D01*
X296466Y78022D01*
X296455Y78033D01*
X296433Y78056D01*
X296399Y78089D01*
X296355Y78144D01*
X296311Y78211D01*
X296244Y78289D01*
X296188Y78377D01*
X296122Y78488D01*
X296055Y78599D01*
X296000Y78733D01*
X295889Y79010D01*
X295844Y79177D01*
X295811Y79343D01*
X295789Y79521D01*
X295778Y79698D01*
Y79709D01*
Y79732D01*
Y79776D01*
X295789Y79820D01*
Y79887D01*
X295800Y79965D01*
X295822Y80142D01*
X295867Y80342D01*
X295933Y80542D01*
X296033Y80753D01*
X296155Y80953D01*
Y80964D01*
X296177Y80975D01*
X296222Y81030D01*
X296311Y81119D01*
X296433Y81230D01*
X296588Y81341D01*
X296777Y81463D01*
X296988Y81563D01*
X297243Y81641D01*
X297232D01*
X297221Y81652D01*
X297187Y81663D01*
X297143Y81685D01*
X297043Y81730D01*
X296910Y81796D01*
X296766Y81885D01*
X296621Y81996D01*
X296488Y82118D01*
X296366Y82251D01*
X296355Y82273D01*
X296322Y82318D01*
X296277Y82407D01*
X296233Y82518D01*
X296177Y82662D01*
X296133Y82828D01*
X296100Y83017D01*
X296089Y83217D01*
Y83228D01*
Y83250D01*
Y83295D01*
X296100Y83361D01*
X296111Y83428D01*
X296122Y83517D01*
X296166Y83705D01*
X296233Y83927D01*
X296344Y84160D01*
X296410Y84283D01*
X296488Y84405D01*
X296588Y84516D01*
X296688Y84627D01*
X296699Y84638D01*
X296721Y84649D01*
X296754Y84682D01*
X296799Y84715D01*
X296854Y84760D01*
X296932Y84804D01*
X297021Y84860D01*
X297110Y84915D01*
X297221Y84971D01*
X297343Y85026D01*
X297476Y85071D01*
X297620Y85115D01*
X297931Y85182D01*
X298109Y85193D01*
X298286Y85204D01*
X298386D01*
X298453Y85193D01*
D02*
G37*
G36*
X350739D02*
X350817D01*
X350906Y85182D01*
X351117Y85137D01*
X351350Y85082D01*
X351594Y84993D01*
X351838Y84860D01*
X351960Y84782D01*
X352071Y84693D01*
X352082Y84682D01*
X352093Y84671D01*
X352127Y84638D01*
X352160Y84604D01*
X352215Y84549D01*
X352260Y84482D01*
X352382Y84327D01*
X352504Y84127D01*
X352615Y83883D01*
X352715Y83605D01*
X352782Y83295D01*
X351838Y83217D01*
Y83228D01*
X351827Y83239D01*
X351816Y83306D01*
X351783Y83406D01*
X351738Y83528D01*
X351694Y83661D01*
X351627Y83794D01*
X351549Y83916D01*
X351472Y84016D01*
X351450Y84038D01*
X351405Y84083D01*
X351328Y84149D01*
X351217Y84227D01*
X351072Y84294D01*
X350917Y84360D01*
X350728Y84405D01*
X350528Y84427D01*
X350451D01*
X350362Y84416D01*
X350262Y84394D01*
X350129Y84360D01*
X349995Y84316D01*
X349862Y84260D01*
X349729Y84171D01*
X349707Y84160D01*
X349651Y84116D01*
X349574Y84038D01*
X349474Y83927D01*
X349363Y83794D01*
X349241Y83639D01*
X349130Y83439D01*
X349019Y83217D01*
Y83206D01*
X349008Y83184D01*
X348997Y83150D01*
X348974Y83106D01*
X348963Y83039D01*
X348941Y82962D01*
X348919Y82873D01*
X348897Y82762D01*
X348863Y82640D01*
X348841Y82507D01*
X348819Y82362D01*
X348808Y82207D01*
X348786Y82029D01*
X348775Y81852D01*
X348764Y81652D01*
Y81452D01*
X348775Y81463D01*
X348819Y81530D01*
X348897Y81619D01*
X348997Y81730D01*
X349108Y81863D01*
X349252Y81985D01*
X349407Y82107D01*
X349585Y82218D01*
X349596D01*
X349607Y82229D01*
X349674Y82262D01*
X349773Y82296D01*
X349907Y82351D01*
X350062Y82395D01*
X350240Y82429D01*
X350428Y82462D01*
X350628Y82473D01*
X350717D01*
X350784Y82462D01*
X350872Y82451D01*
X350961Y82440D01*
X351072Y82418D01*
X351183Y82384D01*
X351438Y82307D01*
X351572Y82251D01*
X351705Y82174D01*
X351838Y82096D01*
X351982Y82007D01*
X352116Y81896D01*
X352238Y81774D01*
X352249Y81763D01*
X352271Y81741D01*
X352304Y81707D01*
X352338Y81652D01*
X352393Y81574D01*
X352449Y81496D01*
X352504Y81397D01*
X352571Y81286D01*
X352637Y81164D01*
X352693Y81030D01*
X352748Y80875D01*
X352804Y80719D01*
X352837Y80553D01*
X352870Y80364D01*
X352893Y80176D01*
X352904Y79976D01*
Y79965D01*
Y79942D01*
Y79909D01*
Y79854D01*
X352893Y79787D01*
Y79721D01*
X352859Y79543D01*
X352826Y79332D01*
X352771Y79110D01*
X352693Y78866D01*
X352582Y78633D01*
Y78622D01*
X352571Y78611D01*
X352548Y78577D01*
X352526Y78533D01*
X352460Y78422D01*
X352360Y78278D01*
X352238Y78122D01*
X352093Y77967D01*
X351916Y77811D01*
X351727Y77678D01*
X351716D01*
X351705Y77667D01*
X351672Y77645D01*
X351627Y77634D01*
X351516Y77578D01*
X351372Y77523D01*
X351183Y77456D01*
X350972Y77412D01*
X350739Y77367D01*
X350484Y77356D01*
X350428D01*
X350373Y77367D01*
X350284D01*
X350184Y77378D01*
X350073Y77401D01*
X349940Y77434D01*
X349807Y77467D01*
X349651Y77512D01*
X349496Y77567D01*
X349341Y77634D01*
X349174Y77723D01*
X349019Y77822D01*
X348863Y77933D01*
X348708Y78067D01*
X348564Y78222D01*
X348553Y78233D01*
X348530Y78266D01*
X348497Y78311D01*
X348453Y78389D01*
X348386Y78488D01*
X348331Y78599D01*
X348264Y78744D01*
X348197Y78899D01*
X348120Y79088D01*
X348053Y79299D01*
X347998Y79532D01*
X347942Y79787D01*
X347887Y80076D01*
X347853Y80386D01*
X347831Y80719D01*
X347820Y81075D01*
Y81086D01*
Y81097D01*
Y81130D01*
Y81175D01*
X347831Y81286D01*
Y81441D01*
X347842Y81619D01*
X347864Y81830D01*
X347887Y82063D01*
X347920Y82318D01*
X347964Y82573D01*
X348020Y82851D01*
X348086Y83117D01*
X348164Y83383D01*
X348264Y83639D01*
X348375Y83883D01*
X348497Y84116D01*
X348641Y84316D01*
X348652Y84327D01*
X348675Y84349D01*
X348719Y84394D01*
X348775Y84460D01*
X348841Y84527D01*
X348930Y84593D01*
X349041Y84682D01*
X349152Y84760D01*
X349285Y84838D01*
X349430Y84926D01*
X349596Y84993D01*
X349762Y85071D01*
X349951Y85126D01*
X350151Y85170D01*
X350362Y85193D01*
X350584Y85204D01*
X350673D01*
X350739Y85193D01*
D02*
G37*
G36*
X344168Y85159D02*
X344268D01*
X344501Y85148D01*
X344745Y85115D01*
X345012Y85082D01*
X345256Y85026D01*
X345378Y84993D01*
X345478Y84960D01*
X345489D01*
X345500Y84949D01*
X345567Y84915D01*
X345667Y84871D01*
X345789Y84793D01*
X345922Y84693D01*
X346066Y84560D01*
X346199Y84405D01*
X346333Y84227D01*
Y84216D01*
X346344Y84205D01*
X346388Y84138D01*
X346432Y84027D01*
X346499Y83883D01*
X346555Y83716D01*
X346610Y83517D01*
X346643Y83306D01*
X346655Y83073D01*
Y83062D01*
Y83039D01*
Y82995D01*
X346643Y82939D01*
Y82862D01*
X346632Y82784D01*
X346588Y82595D01*
X346521Y82373D01*
X346432Y82140D01*
X346299Y81907D01*
X346211Y81796D01*
X346122Y81685D01*
X346111Y81674D01*
X346100Y81663D01*
X346066Y81630D01*
X346022Y81596D01*
X345966Y81552D01*
X345900Y81508D01*
X345811Y81452D01*
X345722Y81385D01*
X345611Y81330D01*
X345489Y81274D01*
X345356Y81208D01*
X345211Y81152D01*
X345045Y81108D01*
X344879Y81053D01*
X344690Y81019D01*
X344490Y80986D01*
X344512Y80975D01*
X344557Y80953D01*
X344623Y80908D01*
X344712Y80864D01*
X344912Y80742D01*
X345012Y80664D01*
X345101Y80597D01*
X345123Y80575D01*
X345178Y80520D01*
X345267Y80431D01*
X345378Y80320D01*
X345500Y80164D01*
X345644Y79998D01*
X345789Y79798D01*
X345944Y79576D01*
X347265Y77489D01*
X346000D01*
X344990Y79088D01*
Y79099D01*
X344967Y79121D01*
X344945Y79154D01*
X344912Y79199D01*
X344834Y79321D01*
X344734Y79476D01*
X344612Y79643D01*
X344490Y79820D01*
X344368Y79987D01*
X344257Y80142D01*
X344246Y80153D01*
X344212Y80198D01*
X344157Y80264D01*
X344079Y80342D01*
X343913Y80509D01*
X343824Y80586D01*
X343735Y80653D01*
X343724Y80664D01*
X343702Y80675D01*
X343658Y80697D01*
X343591Y80731D01*
X343524Y80764D01*
X343447Y80797D01*
X343269Y80853D01*
X343258D01*
X343236Y80864D01*
X343191D01*
X343136Y80875D01*
X343058Y80886D01*
X342969D01*
X342847Y80897D01*
X341538D01*
Y77489D01*
X340516D01*
Y85170D01*
X344079D01*
X344168Y85159D01*
D02*
G37*
G36*
X325895Y84188D02*
X322821D01*
X322410Y82113D01*
X322421Y82124D01*
X322443Y82135D01*
X322476Y82157D01*
X322532Y82190D01*
X322598Y82224D01*
X322676Y82268D01*
X322854Y82357D01*
X323076Y82445D01*
X323320Y82523D01*
X323586Y82579D01*
X323720Y82601D01*
X323964D01*
X324030Y82590D01*
X324119Y82579D01*
X324219Y82568D01*
X324330Y82545D01*
X324452Y82512D01*
X324719Y82434D01*
X324863Y82379D01*
X325007Y82301D01*
X325151Y82224D01*
X325296Y82135D01*
X325429Y82024D01*
X325562Y81902D01*
X325573Y81890D01*
X325596Y81868D01*
X325629Y81835D01*
X325673Y81779D01*
X325729Y81702D01*
X325784Y81624D01*
X325851Y81524D01*
X325917Y81413D01*
X325973Y81291D01*
X326040Y81158D01*
X326095Y81003D01*
X326151Y80847D01*
X326195Y80681D01*
X326228Y80492D01*
X326250Y80303D01*
X326261Y80103D01*
Y80092D01*
Y80059D01*
Y80003D01*
X326250Y79926D01*
X326239Y79837D01*
X326228Y79737D01*
X326206Y79615D01*
X326184Y79493D01*
X326117Y79204D01*
X326006Y78905D01*
X325940Y78749D01*
X325851Y78605D01*
X325762Y78450D01*
X325651Y78305D01*
X325640Y78294D01*
X325618Y78261D01*
X325573Y78217D01*
X325518Y78161D01*
X325440Y78094D01*
X325351Y78006D01*
X325240Y77928D01*
X325118Y77839D01*
X324985Y77750D01*
X324830Y77673D01*
X324663Y77595D01*
X324486Y77517D01*
X324297Y77462D01*
X324086Y77417D01*
X323864Y77384D01*
X323631Y77373D01*
X323531D01*
X323453Y77384D01*
X323364Y77395D01*
X323265Y77406D01*
X323142Y77417D01*
X323020Y77451D01*
X322743Y77517D01*
X322465Y77617D01*
X322321Y77684D01*
X322177Y77761D01*
X322043Y77850D01*
X321910Y77950D01*
X321899Y77961D01*
X321877Y77972D01*
X321855Y78017D01*
X321810Y78061D01*
X321755Y78117D01*
X321699Y78183D01*
X321633Y78272D01*
X321577Y78372D01*
X321511Y78472D01*
X321444Y78594D01*
X321322Y78860D01*
X321222Y79171D01*
X321189Y79338D01*
X321167Y79515D01*
X322155Y79593D01*
Y79582D01*
Y79559D01*
X322166Y79526D01*
X322177Y79471D01*
X322210Y79349D01*
X322254Y79182D01*
X322321Y79016D01*
X322410Y78827D01*
X322521Y78660D01*
X322654Y78505D01*
X322676Y78494D01*
X322721Y78450D01*
X322809Y78394D01*
X322932Y78327D01*
X323065Y78261D01*
X323231Y78205D01*
X323420Y78161D01*
X323631Y78150D01*
X323697D01*
X323742Y78161D01*
X323875Y78172D01*
X324030Y78217D01*
X324219Y78272D01*
X324408Y78361D01*
X324608Y78494D01*
X324696Y78572D01*
X324785Y78660D01*
X324796Y78671D01*
X324807Y78683D01*
X324830Y78716D01*
X324863Y78749D01*
X324941Y78871D01*
X325029Y79027D01*
X325107Y79215D01*
X325185Y79448D01*
X325240Y79726D01*
X325262Y79870D01*
Y80026D01*
Y80037D01*
Y80059D01*
Y80103D01*
X325251Y80159D01*
Y80225D01*
X325240Y80303D01*
X325207Y80481D01*
X325151Y80692D01*
X325074Y80903D01*
X324963Y81102D01*
X324807Y81291D01*
Y81302D01*
X324785Y81313D01*
X324730Y81369D01*
X324630Y81447D01*
X324497Y81535D01*
X324319Y81613D01*
X324119Y81691D01*
X323886Y81746D01*
X323753Y81768D01*
X323542D01*
X323453Y81757D01*
X323342Y81746D01*
X323209Y81713D01*
X323076Y81680D01*
X322932Y81624D01*
X322787Y81558D01*
X322776Y81546D01*
X322732Y81524D01*
X322665Y81469D01*
X322576Y81413D01*
X322487Y81335D01*
X322399Y81236D01*
X322299Y81136D01*
X322221Y81014D01*
X321333Y81136D01*
X322077Y85087D01*
X325895D01*
Y84188D01*
D02*
G37*
G36*
X317470Y85176D02*
X317570D01*
X317803Y85165D01*
X318048Y85132D01*
X318314Y85098D01*
X318558Y85043D01*
X318680Y85009D01*
X318780Y84976D01*
X318791D01*
X318802Y84965D01*
X318869Y84932D01*
X318969Y84887D01*
X319091Y84810D01*
X319224Y84710D01*
X319368Y84577D01*
X319502Y84421D01*
X319635Y84244D01*
Y84233D01*
X319646Y84221D01*
X319690Y84155D01*
X319735Y84044D01*
X319801Y83900D01*
X319857Y83733D01*
X319912Y83533D01*
X319946Y83322D01*
X319957Y83089D01*
Y83078D01*
Y83056D01*
Y83012D01*
X319946Y82956D01*
Y82878D01*
X319935Y82801D01*
X319890Y82612D01*
X319824Y82390D01*
X319735Y82157D01*
X319602Y81924D01*
X319513Y81813D01*
X319424Y81702D01*
X319413Y81691D01*
X319402Y81680D01*
X319368Y81646D01*
X319324Y81613D01*
X319269Y81569D01*
X319202Y81524D01*
X319113Y81469D01*
X319024Y81402D01*
X318913Y81347D01*
X318791Y81291D01*
X318658Y81224D01*
X318514Y81169D01*
X318347Y81125D01*
X318181Y81069D01*
X317992Y81036D01*
X317792Y81003D01*
X317815Y80991D01*
X317859Y80969D01*
X317925Y80925D01*
X318014Y80880D01*
X318214Y80758D01*
X318314Y80681D01*
X318403Y80614D01*
X318425Y80592D01*
X318480Y80536D01*
X318569Y80448D01*
X318680Y80337D01*
X318802Y80181D01*
X318947Y80015D01*
X319091Y79815D01*
X319246Y79593D01*
X320567Y77506D01*
X319302D01*
X318292Y79104D01*
Y79116D01*
X318270Y79138D01*
X318247Y79171D01*
X318214Y79215D01*
X318136Y79338D01*
X318036Y79493D01*
X317914Y79659D01*
X317792Y79837D01*
X317670Y80003D01*
X317559Y80159D01*
X317548Y80170D01*
X317515Y80214D01*
X317459Y80281D01*
X317382Y80359D01*
X317215Y80525D01*
X317126Y80603D01*
X317038Y80669D01*
X317026Y80681D01*
X317004Y80692D01*
X316960Y80714D01*
X316893Y80747D01*
X316827Y80780D01*
X316749Y80814D01*
X316571Y80869D01*
X316560D01*
X316538Y80880D01*
X316494D01*
X316438Y80892D01*
X316360Y80903D01*
X316272D01*
X316150Y80914D01*
X314840D01*
Y77506D01*
X313819D01*
Y85187D01*
X317382D01*
X317470Y85176D01*
D02*
G37*
G36*
X378514Y72528D02*
X379557D01*
Y71662D01*
X378514D01*
Y69819D01*
X377570D01*
Y71662D01*
X374229D01*
Y72528D01*
X377748Y77501D01*
X378514D01*
Y72528D01*
D02*
G37*
G36*
X370855Y77489D02*
X370955D01*
X371188Y77478D01*
X371432Y77445D01*
X371698Y77412D01*
X371943Y77356D01*
X372065Y77323D01*
X372165Y77290D01*
X372176D01*
X372187Y77278D01*
X372253Y77245D01*
X372353Y77201D01*
X372475Y77123D01*
X372609Y77023D01*
X372753Y76890D01*
X372886Y76735D01*
X373019Y76557D01*
Y76546D01*
X373030Y76535D01*
X373075Y76468D01*
X373119Y76357D01*
X373186Y76213D01*
X373241Y76047D01*
X373297Y75847D01*
X373330Y75636D01*
X373341Y75403D01*
Y75392D01*
Y75369D01*
Y75325D01*
X373330Y75269D01*
Y75192D01*
X373319Y75114D01*
X373275Y74925D01*
X373208Y74703D01*
X373119Y74470D01*
X372986Y74237D01*
X372897Y74126D01*
X372808Y74015D01*
X372797Y74004D01*
X372786Y73993D01*
X372753Y73960D01*
X372709Y73926D01*
X372653Y73882D01*
X372586Y73838D01*
X372498Y73782D01*
X372409Y73716D01*
X372298Y73660D01*
X372176Y73604D01*
X372043Y73538D01*
X371898Y73482D01*
X371732Y73438D01*
X371565Y73383D01*
X371376Y73349D01*
X371177Y73316D01*
X371199Y73305D01*
X371243Y73283D01*
X371310Y73238D01*
X371399Y73194D01*
X371599Y73072D01*
X371698Y72994D01*
X371787Y72927D01*
X371809Y72905D01*
X371865Y72850D01*
X371954Y72761D01*
X372065Y72650D01*
X372187Y72495D01*
X372331Y72328D01*
X372475Y72128D01*
X372631Y71906D01*
X373952Y69819D01*
X372686D01*
X371676Y71418D01*
Y71429D01*
X371654Y71451D01*
X371632Y71484D01*
X371599Y71529D01*
X371521Y71651D01*
X371421Y71806D01*
X371299Y71973D01*
X371177Y72150D01*
X371055Y72317D01*
X370944Y72472D01*
X370933Y72483D01*
X370899Y72528D01*
X370844Y72594D01*
X370766Y72672D01*
X370600Y72839D01*
X370511Y72916D01*
X370422Y72983D01*
X370411Y72994D01*
X370389Y73005D01*
X370344Y73027D01*
X370278Y73061D01*
X370211Y73094D01*
X370133Y73127D01*
X369956Y73183D01*
X369945D01*
X369922Y73194D01*
X369878D01*
X369823Y73205D01*
X369745Y73216D01*
X369656D01*
X369534Y73227D01*
X368224D01*
Y69819D01*
X367203D01*
Y77501D01*
X370766D01*
X370855Y77489D01*
D02*
G37*
G36*
X475982Y79605D02*
X476126Y79583D01*
X476304Y79549D01*
X476504Y79494D01*
X476704Y79427D01*
X476903Y79338D01*
X476914D01*
X476926Y79327D01*
X476992Y79294D01*
X477092Y79227D01*
X477203Y79150D01*
X477336Y79039D01*
X477469Y78917D01*
X477603Y78772D01*
X477714Y78606D01*
X477725Y78583D01*
X477758Y78528D01*
X477803Y78428D01*
X477858Y78306D01*
X477914Y78162D01*
X477958Y77995D01*
X477991Y77807D01*
X478002Y77618D01*
Y77596D01*
Y77529D01*
X477991Y77440D01*
X477969Y77318D01*
X477936Y77174D01*
X477880Y77018D01*
X477814Y76863D01*
X477725Y76708D01*
X477714Y76685D01*
X477680Y76641D01*
X477614Y76563D01*
X477525Y76474D01*
X477414Y76375D01*
X477281Y76264D01*
X477125Y76164D01*
X476937Y76064D01*
X476948D01*
X476970Y76053D01*
X477003Y76042D01*
X477048Y76031D01*
X477170Y75986D01*
X477325Y75920D01*
X477503Y75831D01*
X477680Y75720D01*
X477847Y75575D01*
X478002Y75409D01*
X478013Y75387D01*
X478058Y75320D01*
X478124Y75209D01*
X478191Y75065D01*
X478258Y74887D01*
X478324Y74676D01*
X478369Y74432D01*
X478380Y74166D01*
Y74155D01*
Y74121D01*
Y74066D01*
X478369Y73999D01*
X478358Y73910D01*
X478335Y73811D01*
X478313Y73700D01*
X478291Y73577D01*
X478202Y73311D01*
X478135Y73167D01*
X478069Y73034D01*
X477980Y72889D01*
X477880Y72745D01*
X477769Y72601D01*
X477636Y72467D01*
X477625Y72456D01*
X477603Y72434D01*
X477558Y72401D01*
X477503Y72357D01*
X477436Y72301D01*
X477347Y72245D01*
X477248Y72179D01*
X477125Y72123D01*
X477003Y72057D01*
X476859Y71990D01*
X476715Y71935D01*
X476548Y71879D01*
X476371Y71835D01*
X476182Y71802D01*
X475993Y71779D01*
X475782Y71768D01*
X475682D01*
X475616Y71779D01*
X475527Y71790D01*
X475427Y71802D01*
X475316Y71824D01*
X475194Y71846D01*
X474928Y71912D01*
X474650Y72024D01*
X474506Y72090D01*
X474373Y72168D01*
X474240Y72268D01*
X474106Y72368D01*
X474095Y72379D01*
X474073Y72401D01*
X474040Y72434D01*
X474006Y72479D01*
X473951Y72534D01*
X473895Y72612D01*
X473829Y72689D01*
X473762Y72789D01*
X473696Y72900D01*
X473629Y73011D01*
X473507Y73278D01*
X473407Y73589D01*
X473374Y73755D01*
X473352Y73933D01*
X474295Y74055D01*
Y74044D01*
X474306Y74022D01*
X474317Y73977D01*
X474328Y73922D01*
X474339Y73855D01*
X474362Y73777D01*
X474417Y73611D01*
X474495Y73411D01*
X474595Y73222D01*
X474706Y73045D01*
X474839Y72889D01*
X474861Y72878D01*
X474906Y72834D01*
X474994Y72778D01*
X475105Y72723D01*
X475238Y72656D01*
X475405Y72601D01*
X475594Y72556D01*
X475793Y72545D01*
X475860D01*
X475904Y72556D01*
X476026Y72567D01*
X476182Y72601D01*
X476359Y72656D01*
X476548Y72734D01*
X476737Y72845D01*
X476914Y73000D01*
X476937Y73022D01*
X476992Y73089D01*
X477059Y73189D01*
X477148Y73322D01*
X477236Y73489D01*
X477303Y73677D01*
X477359Y73899D01*
X477381Y74144D01*
Y74155D01*
Y74177D01*
Y74210D01*
X477370Y74255D01*
X477359Y74377D01*
X477325Y74521D01*
X477281Y74699D01*
X477203Y74876D01*
X477092Y75054D01*
X476948Y75220D01*
X476926Y75243D01*
X476870Y75287D01*
X476781Y75353D01*
X476659Y75431D01*
X476504Y75509D01*
X476315Y75575D01*
X476104Y75620D01*
X475871Y75642D01*
X475771D01*
X475694Y75631D01*
X475594Y75620D01*
X475483Y75598D01*
X475349Y75575D01*
X475205Y75542D01*
X475316Y76375D01*
X475372D01*
X475416Y76364D01*
X475560D01*
X475682Y76386D01*
X475827Y76408D01*
X475993Y76441D01*
X476182Y76497D01*
X476359Y76574D01*
X476548Y76674D01*
X476559D01*
X476570Y76685D01*
X476626Y76730D01*
X476704Y76807D01*
X476792Y76907D01*
X476881Y77052D01*
X476959Y77218D01*
X477014Y77407D01*
X477037Y77518D01*
Y77640D01*
Y77651D01*
Y77662D01*
Y77729D01*
X477014Y77818D01*
X476992Y77940D01*
X476948Y78073D01*
X476892Y78217D01*
X476804Y78362D01*
X476681Y78495D01*
X476670Y78506D01*
X476615Y78550D01*
X476537Y78606D01*
X476437Y78672D01*
X476304Y78728D01*
X476149Y78783D01*
X475971Y78828D01*
X475771Y78839D01*
X475682D01*
X475583Y78817D01*
X475449Y78794D01*
X475305Y78750D01*
X475161Y78695D01*
X475005Y78606D01*
X474861Y78495D01*
X474850Y78484D01*
X474806Y78428D01*
X474739Y78350D01*
X474661Y78239D01*
X474584Y78095D01*
X474506Y77917D01*
X474439Y77707D01*
X474395Y77462D01*
X473451Y77629D01*
Y77640D01*
X473462Y77673D01*
X473474Y77718D01*
X473485Y77784D01*
X473507Y77862D01*
X473540Y77951D01*
X473607Y78162D01*
X473718Y78406D01*
X473851Y78650D01*
X474017Y78883D01*
X474228Y79094D01*
X474240Y79105D01*
X474262Y79116D01*
X474295Y79138D01*
X474339Y79172D01*
X474395Y79216D01*
X474473Y79261D01*
X474550Y79305D01*
X474650Y79360D01*
X474872Y79449D01*
X475127Y79538D01*
X475427Y79594D01*
X475583Y79616D01*
X475860D01*
X475982Y79605D01*
D02*
G37*
G36*
X469644Y79571D02*
X469744D01*
X469977Y79560D01*
X470221Y79527D01*
X470488Y79494D01*
X470732Y79438D01*
X470854Y79405D01*
X470954Y79372D01*
X470965D01*
X470976Y79360D01*
X471043Y79327D01*
X471143Y79283D01*
X471265Y79205D01*
X471398Y79105D01*
X471542Y78972D01*
X471675Y78817D01*
X471809Y78639D01*
Y78628D01*
X471820Y78617D01*
X471864Y78550D01*
X471908Y78439D01*
X471975Y78295D01*
X472031Y78128D01*
X472086Y77929D01*
X472119Y77718D01*
X472131Y77485D01*
Y77474D01*
Y77451D01*
Y77407D01*
X472119Y77351D01*
Y77274D01*
X472108Y77196D01*
X472064Y77007D01*
X471997Y76785D01*
X471908Y76552D01*
X471775Y76319D01*
X471687Y76208D01*
X471598Y76097D01*
X471587Y76086D01*
X471576Y76075D01*
X471542Y76042D01*
X471498Y76008D01*
X471442Y75964D01*
X471376Y75920D01*
X471287Y75864D01*
X471198Y75798D01*
X471087Y75742D01*
X470965Y75686D01*
X470832Y75620D01*
X470687Y75564D01*
X470521Y75520D01*
X470354Y75465D01*
X470166Y75431D01*
X469966Y75398D01*
X469988Y75387D01*
X470033Y75365D01*
X470099Y75320D01*
X470188Y75276D01*
X470388Y75154D01*
X470488Y75076D01*
X470577Y75009D01*
X470599Y74987D01*
X470654Y74932D01*
X470743Y74843D01*
X470854Y74732D01*
X470976Y74577D01*
X471120Y74410D01*
X471265Y74210D01*
X471420Y73988D01*
X472741Y71901D01*
X471476D01*
X470466Y73500D01*
Y73511D01*
X470443Y73533D01*
X470421Y73566D01*
X470388Y73611D01*
X470310Y73733D01*
X470210Y73888D01*
X470088Y74055D01*
X469966Y74232D01*
X469844Y74399D01*
X469733Y74554D01*
X469722Y74565D01*
X469688Y74610D01*
X469633Y74676D01*
X469555Y74754D01*
X469389Y74921D01*
X469300Y74998D01*
X469211Y75065D01*
X469200Y75076D01*
X469178Y75087D01*
X469134Y75109D01*
X469067Y75143D01*
X469000Y75176D01*
X468923Y75209D01*
X468745Y75265D01*
X468734D01*
X468712Y75276D01*
X468667D01*
X468612Y75287D01*
X468534Y75298D01*
X468445D01*
X468323Y75309D01*
X467014D01*
Y71901D01*
X465992D01*
Y79583D01*
X469555D01*
X469644Y79571D01*
D02*
G37*
G36*
X402704Y77506D02*
X402793Y77495D01*
X402904Y77484D01*
X403026Y77462D01*
X403148Y77439D01*
X403436Y77362D01*
X403725Y77251D01*
X403869Y77184D01*
X404014Y77106D01*
X404147Y77007D01*
X404269Y76896D01*
X404280Y76884D01*
X404302Y76873D01*
X404324Y76829D01*
X404369Y76785D01*
X404424Y76729D01*
X404480Y76651D01*
X404535Y76574D01*
X404602Y76474D01*
X404713Y76263D01*
X404824Y75996D01*
X404868Y75863D01*
X404891Y75708D01*
X404913Y75553D01*
X404924Y75386D01*
Y75364D01*
Y75308D01*
X404913Y75219D01*
X404902Y75097D01*
X404879Y74964D01*
X404835Y74809D01*
X404791Y74642D01*
X404724Y74476D01*
X404713Y74454D01*
X404691Y74398D01*
X404646Y74309D01*
X404580Y74187D01*
X404491Y74054D01*
X404380Y73888D01*
X404247Y73721D01*
X404091Y73532D01*
X404069Y73510D01*
X404014Y73444D01*
X403958Y73388D01*
X403903Y73333D01*
X403836Y73266D01*
X403747Y73177D01*
X403658Y73088D01*
X403547Y72989D01*
X403436Y72877D01*
X403303Y72755D01*
X403159Y72633D01*
X403004Y72489D01*
X402826Y72345D01*
X402648Y72189D01*
X402637Y72178D01*
X402615Y72156D01*
X402571Y72123D01*
X402515Y72078D01*
X402449Y72012D01*
X402371Y71945D01*
X402193Y71801D01*
X402005Y71634D01*
X401827Y71468D01*
X401671Y71323D01*
X401605Y71268D01*
X401549Y71213D01*
X401538Y71201D01*
X401505Y71168D01*
X401461Y71124D01*
X401405Y71057D01*
X401350Y70979D01*
X401283Y70902D01*
X401150Y70713D01*
X404935D01*
Y69803D01*
X399840D01*
Y69814D01*
Y69858D01*
Y69925D01*
X399851Y70014D01*
X399862Y70114D01*
X399884Y70225D01*
X399907Y70336D01*
X399951Y70458D01*
Y70469D01*
X399962Y70480D01*
X399984Y70546D01*
X400029Y70646D01*
X400095Y70780D01*
X400184Y70935D01*
X400295Y71113D01*
X400417Y71290D01*
X400573Y71479D01*
Y71490D01*
X400595Y71501D01*
X400650Y71568D01*
X400750Y71668D01*
X400895Y71812D01*
X401061Y71978D01*
X401272Y72178D01*
X401527Y72400D01*
X401805Y72633D01*
X401816Y72644D01*
X401860Y72678D01*
X401927Y72733D01*
X402005Y72800D01*
X402104Y72889D01*
X402226Y72989D01*
X402349Y73099D01*
X402493Y73222D01*
X402770Y73488D01*
X403048Y73754D01*
X403181Y73888D01*
X403303Y74021D01*
X403414Y74143D01*
X403503Y74265D01*
Y74276D01*
X403525Y74287D01*
X403547Y74321D01*
X403570Y74365D01*
X403647Y74487D01*
X403736Y74631D01*
X403814Y74809D01*
X403891Y74998D01*
X403936Y75208D01*
X403958Y75408D01*
Y75419D01*
Y75430D01*
X403947Y75497D01*
X403936Y75608D01*
X403903Y75730D01*
X403858Y75886D01*
X403781Y76041D01*
X403681Y76196D01*
X403547Y76352D01*
X403525Y76374D01*
X403470Y76418D01*
X403392Y76474D01*
X403270Y76551D01*
X403115Y76618D01*
X402937Y76685D01*
X402726Y76729D01*
X402493Y76740D01*
X402426D01*
X402382Y76729D01*
X402249Y76718D01*
X402093Y76685D01*
X401927Y76640D01*
X401738Y76563D01*
X401561Y76463D01*
X401394Y76329D01*
X401372Y76307D01*
X401327Y76252D01*
X401261Y76163D01*
X401194Y76030D01*
X401116Y75874D01*
X401050Y75675D01*
X401006Y75453D01*
X400983Y75197D01*
X400018Y75297D01*
Y75308D01*
X400029Y75342D01*
Y75397D01*
X400040Y75475D01*
X400062Y75564D01*
X400084Y75663D01*
X400117Y75786D01*
X400151Y75908D01*
X400240Y76174D01*
X400373Y76441D01*
X400451Y76574D01*
X400550Y76707D01*
X400650Y76829D01*
X400761Y76940D01*
X400772Y76951D01*
X400795Y76962D01*
X400828Y76996D01*
X400883Y77029D01*
X400950Y77073D01*
X401028Y77118D01*
X401116Y77173D01*
X401227Y77229D01*
X401350Y77284D01*
X401483Y77340D01*
X401627Y77384D01*
X401782Y77428D01*
X401949Y77462D01*
X402127Y77495D01*
X402315Y77506D01*
X402515Y77517D01*
X402626D01*
X402704Y77506D01*
D02*
G37*
G36*
X396277Y77473D02*
X396377D01*
X396610Y77462D01*
X396854Y77428D01*
X397121Y77395D01*
X397365Y77340D01*
X397487Y77306D01*
X397587Y77273D01*
X397598D01*
X397609Y77262D01*
X397676Y77229D01*
X397775Y77184D01*
X397898Y77106D01*
X398031Y77007D01*
X398175Y76873D01*
X398308Y76718D01*
X398442Y76540D01*
Y76529D01*
X398453Y76518D01*
X398497Y76452D01*
X398541Y76341D01*
X398608Y76196D01*
X398663Y76030D01*
X398719Y75830D01*
X398752Y75619D01*
X398763Y75386D01*
Y75375D01*
Y75353D01*
Y75308D01*
X398752Y75253D01*
Y75175D01*
X398741Y75097D01*
X398697Y74909D01*
X398630Y74687D01*
X398541Y74454D01*
X398408Y74221D01*
X398319Y74110D01*
X398231Y73999D01*
X398219Y73987D01*
X398208Y73976D01*
X398175Y73943D01*
X398131Y73910D01*
X398075Y73865D01*
X398009Y73821D01*
X397920Y73766D01*
X397831Y73699D01*
X397720Y73643D01*
X397598Y73588D01*
X397465Y73521D01*
X397320Y73466D01*
X397154Y73421D01*
X396987Y73366D01*
X396799Y73333D01*
X396599Y73299D01*
X396621Y73288D01*
X396665Y73266D01*
X396732Y73222D01*
X396821Y73177D01*
X397021Y73055D01*
X397121Y72977D01*
X397209Y72911D01*
X397232Y72889D01*
X397287Y72833D01*
X397376Y72744D01*
X397487Y72633D01*
X397609Y72478D01*
X397753Y72311D01*
X397898Y72112D01*
X398053Y71890D01*
X399374Y69803D01*
X398108D01*
X397098Y71401D01*
Y71412D01*
X397076Y71434D01*
X397054Y71468D01*
X397021Y71512D01*
X396943Y71634D01*
X396843Y71790D01*
X396721Y71956D01*
X396599Y72134D01*
X396477Y72300D01*
X396366Y72456D01*
X396355Y72467D01*
X396321Y72511D01*
X396266Y72578D01*
X396188Y72656D01*
X396022Y72822D01*
X395933Y72900D01*
X395844Y72966D01*
X395833Y72977D01*
X395811Y72989D01*
X395766Y73011D01*
X395700Y73044D01*
X395633Y73077D01*
X395555Y73111D01*
X395378Y73166D01*
X395367D01*
X395345Y73177D01*
X395300D01*
X395245Y73188D01*
X395167Y73199D01*
X395078D01*
X394956Y73211D01*
X393646D01*
Y69803D01*
X392625D01*
Y77484D01*
X396188D01*
X396277Y77473D01*
D02*
G37*
G36*
X512942Y76153D02*
X511998D01*
Y82158D01*
X511987Y82147D01*
X511932Y82102D01*
X511865Y82036D01*
X511754Y81958D01*
X511632Y81858D01*
X511477Y81747D01*
X511299Y81625D01*
X511099Y81503D01*
X511088D01*
X511077Y81492D01*
X511011Y81447D01*
X510900Y81392D01*
X510766Y81325D01*
X510611Y81248D01*
X510444Y81170D01*
X510278Y81092D01*
X510112Y81026D01*
Y81936D01*
X510123D01*
X510145Y81958D01*
X510189Y81969D01*
X510245Y82002D01*
X510311Y82036D01*
X510389Y82080D01*
X510578Y82191D01*
X510800Y82313D01*
X511022Y82469D01*
X511255Y82646D01*
X511488Y82835D01*
X511499Y82846D01*
X511510Y82857D01*
X511543Y82890D01*
X511588Y82924D01*
X511688Y83035D01*
X511821Y83168D01*
X511954Y83323D01*
X512098Y83501D01*
X512220Y83679D01*
X512332Y83867D01*
X512942D01*
Y76153D01*
D02*
G37*
G36*
X505694Y83823D02*
X505794D01*
X506027Y83812D01*
X506271Y83778D01*
X506537Y83745D01*
X506782Y83690D01*
X506904Y83656D01*
X507004Y83623D01*
X507015D01*
X507026Y83612D01*
X507092Y83579D01*
X507192Y83534D01*
X507314Y83456D01*
X507448Y83357D01*
X507592Y83223D01*
X507725Y83068D01*
X507858Y82890D01*
Y82879D01*
X507869Y82868D01*
X507914Y82802D01*
X507958Y82691D01*
X508025Y82546D01*
X508080Y82380D01*
X508136Y82180D01*
X508169Y81969D01*
X508180Y81736D01*
Y81725D01*
Y81703D01*
Y81658D01*
X508169Y81603D01*
Y81525D01*
X508158Y81447D01*
X508114Y81259D01*
X508047Y81037D01*
X507958Y80804D01*
X507825Y80571D01*
X507736Y80460D01*
X507647Y80349D01*
X507636Y80337D01*
X507625Y80326D01*
X507592Y80293D01*
X507547Y80260D01*
X507492Y80215D01*
X507425Y80171D01*
X507337Y80115D01*
X507248Y80049D01*
X507137Y79993D01*
X507015Y79938D01*
X506881Y79871D01*
X506737Y79816D01*
X506571Y79771D01*
X506404Y79716D01*
X506216Y79683D01*
X506016Y79649D01*
X506038Y79638D01*
X506082Y79616D01*
X506149Y79572D01*
X506238Y79527D01*
X506437Y79405D01*
X506537Y79327D01*
X506626Y79261D01*
X506648Y79239D01*
X506704Y79183D01*
X506793Y79094D01*
X506904Y78983D01*
X507026Y78828D01*
X507170Y78661D01*
X507314Y78462D01*
X507470Y78240D01*
X508791Y76153D01*
X507525D01*
X506515Y77751D01*
Y77762D01*
X506493Y77785D01*
X506471Y77818D01*
X506437Y77862D01*
X506360Y77984D01*
X506260Y78140D01*
X506138Y78306D01*
X506016Y78484D01*
X505894Y78650D01*
X505783Y78806D01*
X505771Y78817D01*
X505738Y78861D01*
X505683Y78928D01*
X505605Y79005D01*
X505438Y79172D01*
X505350Y79250D01*
X505261Y79316D01*
X505250Y79327D01*
X505228Y79338D01*
X505183Y79361D01*
X505117Y79394D01*
X505050Y79427D01*
X504972Y79461D01*
X504795Y79516D01*
X504784D01*
X504761Y79527D01*
X504717D01*
X504662Y79538D01*
X504584Y79549D01*
X504495D01*
X504373Y79560D01*
X503063D01*
Y76153D01*
X502042D01*
Y83834D01*
X505605D01*
X505694Y83823D01*
D02*
G37*
G36*
X208234Y42339D02*
Y42328D01*
Y42295D01*
Y42251D01*
Y42184D01*
X208223Y42095D01*
Y42006D01*
X208201Y41796D01*
X208179Y41551D01*
X208134Y41296D01*
X208068Y41063D01*
X207990Y40841D01*
Y40830D01*
X207979Y40819D01*
X207946Y40752D01*
X207890Y40663D01*
X207812Y40541D01*
X207701Y40419D01*
X207579Y40286D01*
X207424Y40153D01*
X207246Y40042D01*
X207224Y40031D01*
X207158Y39997D01*
X207058Y39953D01*
X206913Y39908D01*
X206736Y39853D01*
X206536Y39809D01*
X206314Y39775D01*
X206070Y39764D01*
X205970D01*
X205903Y39775D01*
X205814Y39786D01*
X205726Y39797D01*
X205493Y39842D01*
X205249Y39908D01*
X204993Y40008D01*
X204860Y40075D01*
X204738Y40153D01*
X204627Y40241D01*
X204516Y40341D01*
X204505Y40353D01*
X204494Y40364D01*
X204471Y40408D01*
X204438Y40452D01*
X204394Y40508D01*
X204349Y40586D01*
X204305Y40674D01*
X204249Y40774D01*
X204205Y40885D01*
X204161Y41019D01*
X204116Y41152D01*
X204072Y41307D01*
X204050Y41474D01*
X204016Y41662D01*
X204005Y41851D01*
Y42062D01*
X204927Y42195D01*
Y42184D01*
Y42162D01*
Y42117D01*
X204938Y42051D01*
X204949Y41984D01*
Y41906D01*
X204982Y41718D01*
X205015Y41518D01*
X205082Y41318D01*
X205149Y41141D01*
X205193Y41063D01*
X205249Y40996D01*
X205260Y40985D01*
X205304Y40952D01*
X205371Y40896D01*
X205459Y40841D01*
X205581Y40774D01*
X205715Y40730D01*
X205881Y40686D01*
X206059Y40674D01*
X206125D01*
X206192Y40686D01*
X206292Y40697D01*
X206392Y40719D01*
X206503Y40741D01*
X206614Y40785D01*
X206725Y40841D01*
X206736Y40852D01*
X206769Y40874D01*
X206814Y40919D01*
X206880Y40963D01*
X206936Y41041D01*
X207002Y41118D01*
X207058Y41207D01*
X207102Y41318D01*
Y41329D01*
X207124Y41374D01*
X207135Y41451D01*
X207158Y41551D01*
X207180Y41684D01*
X207191Y41851D01*
X207213Y42051D01*
Y42284D01*
Y47579D01*
X208234D01*
Y42339D01*
D02*
G37*
G36*
X213063Y39897D02*
X212119D01*
Y45902D01*
X212108Y45891D01*
X212053Y45847D01*
X211986Y45780D01*
X211875Y45703D01*
X211753Y45603D01*
X211597Y45492D01*
X211420Y45370D01*
X211220Y45248D01*
X211209D01*
X211198Y45236D01*
X211131Y45192D01*
X211020Y45136D01*
X210887Y45070D01*
X210732Y44992D01*
X210565Y44914D01*
X210399Y44837D01*
X210232Y44770D01*
Y45680D01*
X210243D01*
X210266Y45703D01*
X210310Y45714D01*
X210366Y45747D01*
X210432Y45780D01*
X210510Y45825D01*
X210699Y45936D01*
X210921Y46058D01*
X211143Y46213D01*
X211376Y46391D01*
X211609Y46579D01*
X211620Y46591D01*
X211631Y46602D01*
X211664Y46635D01*
X211709Y46668D01*
X211808Y46779D01*
X211942Y46912D01*
X212075Y47068D01*
X212219Y47245D01*
X212341Y47423D01*
X212452Y47612D01*
X213063D01*
Y39897D01*
D02*
G37*
G36*
X90456Y171603D02*
X90556Y171591D01*
X90678Y171580D01*
X90800Y171569D01*
X90944Y171536D01*
X91244Y171469D01*
X91577Y171369D01*
X91743Y171303D01*
X91899Y171225D01*
X92054Y171125D01*
X92210Y171025D01*
X92221Y171014D01*
X92243Y171003D01*
X92287Y170970D01*
X92343Y170914D01*
X92398Y170859D01*
X92476Y170781D01*
X92554Y170692D01*
X92642Y170604D01*
X92731Y170493D01*
X92820Y170359D01*
X92920Y170226D01*
X93009Y170082D01*
X93087Y169916D01*
X93175Y169749D01*
X93242Y169571D01*
X93308Y169372D01*
X92310Y169139D01*
Y169150D01*
X92298Y169172D01*
X92276Y169216D01*
X92254Y169272D01*
X92232Y169338D01*
X92198Y169427D01*
X92110Y169605D01*
X91999Y169804D01*
X91866Y170004D01*
X91699Y170193D01*
X91521Y170359D01*
X91499Y170382D01*
X91433Y170426D01*
X91322Y170481D01*
X91177Y170559D01*
X90989Y170626D01*
X90778Y170692D01*
X90522Y170737D01*
X90245Y170748D01*
X90156D01*
X90101Y170737D01*
X90023D01*
X89934Y170726D01*
X89723Y170692D01*
X89490Y170648D01*
X89246Y170570D01*
X88991Y170459D01*
X88758Y170315D01*
X88747D01*
X88735Y170293D01*
X88658Y170237D01*
X88558Y170149D01*
X88436Y170015D01*
X88291Y169849D01*
X88158Y169660D01*
X88036Y169427D01*
X87925Y169172D01*
Y169161D01*
X87914Y169139D01*
X87903Y169105D01*
X87892Y169050D01*
X87870Y168983D01*
X87847Y168905D01*
X87814Y168717D01*
X87770Y168495D01*
X87725Y168251D01*
X87703Y167984D01*
X87692Y167696D01*
Y167684D01*
Y167651D01*
Y167596D01*
Y167529D01*
X87703Y167451D01*
Y167351D01*
X87714Y167240D01*
X87725Y167118D01*
X87759Y166852D01*
X87814Y166563D01*
X87881Y166275D01*
X87970Y165986D01*
Y165975D01*
X87981Y165953D01*
X88003Y165919D01*
X88025Y165864D01*
X88092Y165731D01*
X88191Y165575D01*
X88314Y165398D01*
X88469Y165209D01*
X88647Y165043D01*
X88857Y164887D01*
X88869D01*
X88891Y164876D01*
X88924Y164854D01*
X88968Y164832D01*
X89024Y164810D01*
X89091Y164776D01*
X89246Y164710D01*
X89446Y164643D01*
X89668Y164588D01*
X89912Y164543D01*
X90167Y164532D01*
X90245D01*
X90311Y164543D01*
X90389D01*
X90467Y164554D01*
X90667Y164599D01*
X90900Y164654D01*
X91133Y164743D01*
X91377Y164865D01*
X91499Y164932D01*
X91610Y165020D01*
X91621Y165032D01*
X91632Y165043D01*
X91666Y165076D01*
X91710Y165109D01*
X91755Y165165D01*
X91810Y165231D01*
X91877Y165298D01*
X91932Y165387D01*
X91999Y165487D01*
X92076Y165598D01*
X92143Y165709D01*
X92210Y165842D01*
X92265Y165986D01*
X92321Y166141D01*
X92376Y166308D01*
X92421Y166486D01*
X93442Y166230D01*
Y166219D01*
X93431Y166175D01*
X93408Y166108D01*
X93375Y166019D01*
X93342Y165919D01*
X93297Y165797D01*
X93242Y165664D01*
X93175Y165520D01*
X93020Y165209D01*
X92820Y164898D01*
X92698Y164743D01*
X92576Y164588D01*
X92443Y164454D01*
X92287Y164321D01*
X92276Y164310D01*
X92254Y164288D01*
X92198Y164266D01*
X92143Y164221D01*
X92054Y164166D01*
X91965Y164110D01*
X91843Y164055D01*
X91721Y163999D01*
X91577Y163933D01*
X91421Y163877D01*
X91255Y163822D01*
X91077Y163766D01*
X90889Y163722D01*
X90689Y163700D01*
X90478Y163677D01*
X90256Y163666D01*
X90134D01*
X90045Y163677D01*
X89945D01*
X89823Y163689D01*
X89690Y163711D01*
X89535Y163733D01*
X89213Y163788D01*
X88880Y163877D01*
X88547Y163999D01*
X88391Y164077D01*
X88236Y164166D01*
X88225Y164177D01*
X88203Y164188D01*
X88158Y164221D01*
X88114Y164266D01*
X88047Y164310D01*
X87970Y164377D01*
X87881Y164454D01*
X87792Y164543D01*
X87703Y164643D01*
X87603Y164743D01*
X87403Y164998D01*
X87215Y165298D01*
X87048Y165631D01*
Y165642D01*
X87026Y165675D01*
X87015Y165731D01*
X86982Y165797D01*
X86959Y165886D01*
X86926Y165997D01*
X86882Y166119D01*
X86848Y166252D01*
X86815Y166397D01*
X86771Y166563D01*
X86715Y166907D01*
X86671Y167296D01*
X86649Y167696D01*
Y167707D01*
Y167751D01*
Y167818D01*
X86660Y167895D01*
Y168006D01*
X86671Y168117D01*
X86682Y168262D01*
X86704Y168406D01*
X86760Y168728D01*
X86837Y169083D01*
X86948Y169438D01*
X87104Y169782D01*
X87115Y169793D01*
X87126Y169827D01*
X87148Y169871D01*
X87192Y169927D01*
X87237Y170004D01*
X87292Y170093D01*
X87437Y170293D01*
X87625Y170515D01*
X87847Y170737D01*
X88103Y170959D01*
X88402Y171147D01*
X88413Y171159D01*
X88447Y171170D01*
X88491Y171192D01*
X88547Y171225D01*
X88636Y171259D01*
X88724Y171292D01*
X88835Y171336D01*
X88957Y171381D01*
X89091Y171425D01*
X89235Y171469D01*
X89546Y171536D01*
X89901Y171591D01*
X90267Y171614D01*
X90378D01*
X90456Y171603D01*
D02*
G37*
G36*
X103831Y163799D02*
X102888D01*
Y169804D01*
X102877Y169793D01*
X102821Y169749D01*
X102754Y169682D01*
X102643Y169605D01*
X102521Y169505D01*
X102366Y169394D01*
X102188Y169272D01*
X101988Y169150D01*
X101977D01*
X101966Y169139D01*
X101900Y169094D01*
X101789Y169039D01*
X101656Y168972D01*
X101500Y168894D01*
X101334Y168817D01*
X101167Y168739D01*
X101001Y168672D01*
Y169583D01*
X101012D01*
X101034Y169605D01*
X101078Y169616D01*
X101134Y169649D01*
X101200Y169682D01*
X101278Y169727D01*
X101467Y169838D01*
X101689Y169960D01*
X101911Y170115D01*
X102144Y170293D01*
X102377Y170481D01*
X102388Y170493D01*
X102399Y170504D01*
X102432Y170537D01*
X102477Y170570D01*
X102577Y170681D01*
X102710Y170814D01*
X102843Y170970D01*
X102987Y171147D01*
X103110Y171325D01*
X103221Y171514D01*
X103831D01*
Y163799D01*
D02*
G37*
G36*
X97859D02*
X96916D01*
Y169804D01*
X96905Y169793D01*
X96849Y169749D01*
X96783Y169682D01*
X96672Y169605D01*
X96550Y169505D01*
X96394Y169394D01*
X96217Y169272D01*
X96017Y169150D01*
X96006D01*
X95995Y169139D01*
X95928Y169094D01*
X95817Y169039D01*
X95684Y168972D01*
X95528Y168894D01*
X95362Y168817D01*
X95195Y168739D01*
X95029Y168672D01*
Y169583D01*
X95040D01*
X95062Y169605D01*
X95107Y169616D01*
X95162Y169649D01*
X95229Y169682D01*
X95306Y169727D01*
X95495Y169838D01*
X95717Y169960D01*
X95939Y170115D01*
X96172Y170293D01*
X96405Y170481D01*
X96416Y170493D01*
X96427Y170504D01*
X96461Y170537D01*
X96505Y170570D01*
X96605Y170681D01*
X96738Y170814D01*
X96872Y170970D01*
X97016Y171147D01*
X97138Y171325D01*
X97249Y171514D01*
X97859D01*
Y163799D01*
D02*
G37*
G36*
X85150D02*
X84129D01*
Y171481D01*
X85150D01*
Y163799D01*
D02*
G37*
G36*
X34084Y86548D02*
X34263Y86530D01*
X34434Y86498D01*
X34611Y86445D01*
X34787Y86392D01*
X34801Y86384D01*
X34826Y86380D01*
X34878Y86360D01*
X34946Y86322D01*
X35015Y86284D01*
X35111Y86231D01*
X35210Y86167D01*
X35320Y86106D01*
X35436Y86024D01*
X35558Y85920D01*
X35691Y85820D01*
X35816Y85705D01*
X35936Y85567D01*
X36068Y85431D01*
X36181Y85279D01*
X36300Y85105D01*
X35404Y84606D01*
X35401Y84616D01*
X35384Y84635D01*
X35350Y84671D01*
X35314Y84718D01*
X35274Y84776D01*
X35217Y84853D01*
X35083Y84999D01*
X34921Y85160D01*
X34738Y85316D01*
X34526Y85451D01*
X34309Y85562D01*
X34282Y85577D01*
X34206Y85602D01*
X34084Y85624D01*
X33924Y85659D01*
X33724Y85671D01*
X33503Y85677D01*
X33245Y85650D01*
X32975Y85584D01*
X32890Y85559D01*
X32840Y85533D01*
X32765Y85512D01*
X32683Y85477D01*
X32489Y85387D01*
X32277Y85280D01*
X32064Y85138D01*
X31849Y84961D01*
X31665Y84758D01*
X31654Y84755D01*
X31650Y84730D01*
X31590Y84655D01*
X31519Y84543D01*
X31438Y84381D01*
X31345Y84181D01*
X31269Y83963D01*
X31216Y83705D01*
X31180Y83429D01*
X31183Y83419D01*
X31178Y83394D01*
X31177Y83359D01*
X31181Y83303D01*
X31179Y83232D01*
X31179Y83152D01*
X31199Y82961D01*
X31217Y82736D01*
X31242Y82488D01*
X31294Y82226D01*
X31363Y81946D01*
X31366Y81935D01*
X31375Y81903D01*
X31390Y81850D01*
X31409Y81786D01*
X31441Y81714D01*
X31468Y81618D01*
X31509Y81515D01*
X31554Y81400D01*
X31659Y81153D01*
X31792Y80891D01*
X31936Y80632D01*
X32101Y80379D01*
X32104Y80368D01*
X32120Y80350D01*
X32151Y80324D01*
X32188Y80277D01*
X32288Y80167D01*
X32427Y80046D01*
X32594Y79908D01*
X32795Y79770D01*
X33012Y79659D01*
X33257Y79568D01*
X33268Y79571D01*
X33292Y79566D01*
X33330Y79554D01*
X33379Y79545D01*
X33439Y79539D01*
X33512Y79525D01*
X33679Y79504D01*
X33890Y79495D01*
X34119Y79503D01*
X34366Y79528D01*
X34614Y79587D01*
X34689Y79609D01*
X34750Y79638D01*
X34824Y79659D01*
X34896Y79691D01*
X35076Y79789D01*
X35285Y79907D01*
X35484Y80056D01*
X35685Y80241D01*
X35784Y80338D01*
X35866Y80454D01*
X35874Y80468D01*
X35882Y80482D01*
X35905Y80523D01*
X35938Y80567D01*
X35965Y80633D01*
X36000Y80712D01*
X36046Y80795D01*
X36075Y80895D01*
X36112Y81010D01*
X36156Y81138D01*
X36189Y81263D01*
X36216Y81409D01*
X36230Y81563D01*
X36240Y81728D01*
X36248Y81903D01*
X36242Y82086D01*
X37294Y82122D01*
X37297Y82112D01*
X37298Y82066D01*
X37295Y81996D01*
X37288Y81901D01*
X37283Y81796D01*
X37274Y81666D01*
X37257Y81523D01*
X37233Y81366D01*
X37170Y81024D01*
X37063Y80671D01*
X36989Y80487D01*
X36914Y80304D01*
X36823Y80140D01*
X36710Y79969D01*
X36702Y79955D01*
X36687Y79928D01*
X36640Y79891D01*
X36599Y79833D01*
X36529Y79755D01*
X36459Y79677D01*
X36357Y79590D01*
X36255Y79503D01*
X36134Y79400D01*
X36000Y79303D01*
X35856Y79204D01*
X35700Y79102D01*
X35531Y79007D01*
X35345Y78931D01*
X35148Y78851D01*
X34938Y78779D01*
X34821Y78746D01*
X34732Y78732D01*
X34636Y78705D01*
X34516Y78682D01*
X34382Y78666D01*
X34226Y78645D01*
X33901Y78609D01*
X33557Y78603D01*
X33203Y78628D01*
X33032Y78660D01*
X32859Y78703D01*
X32845Y78710D01*
X32820Y78715D01*
X32768Y78735D01*
X32714Y78765D01*
X32637Y78790D01*
X32544Y78832D01*
X32438Y78882D01*
X32328Y78943D01*
X32215Y79015D01*
X32091Y79083D01*
X31829Y79274D01*
X31565Y79510D01*
X31313Y79784D01*
X31310Y79795D01*
X31279Y79820D01*
X31253Y79871D01*
X31203Y79925D01*
X31157Y80005D01*
X31095Y80102D01*
X31018Y80207D01*
X30949Y80326D01*
X30878Y80456D01*
X30789Y80604D01*
X30641Y80919D01*
X30491Y81280D01*
X30360Y81658D01*
X30357Y81669D01*
X30345Y81712D01*
X30326Y81776D01*
X30315Y81853D01*
X30285Y81960D01*
X30265Y82070D01*
X30236Y82212D01*
X30217Y82356D01*
X30182Y82681D01*
X30159Y83044D01*
X30168Y83416D01*
X30222Y83790D01*
X30230Y83803D01*
X30231Y83838D01*
X30240Y83887D01*
X30268Y83953D01*
X30289Y84040D01*
X30318Y84140D01*
X30401Y84372D01*
X30522Y84638D01*
X30674Y84912D01*
X30858Y85196D01*
X31094Y85460D01*
X31102Y85474D01*
X31131Y85494D01*
X31167Y85527D01*
X31211Y85574D01*
X31288Y85631D01*
X31364Y85687D01*
X31458Y85761D01*
X31563Y85837D01*
X31679Y85916D01*
X31806Y85999D01*
X32086Y86149D01*
X32412Y86300D01*
X32758Y86422D01*
X32865Y86453D01*
X32943Y86463D01*
X33042Y86480D01*
X33162Y86503D01*
X33282Y86526D01*
X33430Y86534D01*
X33737Y86553D01*
X34084Y86548D01*
D02*
G37*
G36*
X46090Y89864D02*
X46247Y89840D01*
X46407Y89805D01*
X46562Y89745D01*
X46710Y89672D01*
X46724Y89665D01*
X46748Y89660D01*
X46782Y89624D01*
X46837Y89593D01*
X46906Y89555D01*
X46980Y89496D01*
X47055Y89436D01*
X47147Y89359D01*
X47312Y89186D01*
X47492Y88961D01*
X47571Y88845D01*
X47635Y88702D01*
X47699Y88559D01*
X47756Y88402D01*
X47762Y88380D01*
X47777Y88327D01*
X47791Y88239D01*
X47814Y88118D01*
X47829Y87984D01*
X47830Y87822D01*
X47833Y87650D01*
X47815Y87472D01*
X47810Y87447D01*
X47804Y87388D01*
X47786Y87290D01*
X47756Y87155D01*
X47707Y87002D01*
X47646Y86811D01*
X47564Y86615D01*
X47467Y86390D01*
X47452Y86363D01*
X47417Y86284D01*
X47378Y86215D01*
X47340Y86146D01*
X47295Y86064D01*
X47234Y85954D01*
X47173Y85844D01*
X47094Y85718D01*
X47018Y85580D01*
X46923Y85426D01*
X46818Y85269D01*
X46709Y85088D01*
X46578Y84900D01*
X46450Y84702D01*
X46442Y84688D01*
X46427Y84660D01*
X46393Y84616D01*
X46352Y84558D01*
X46307Y84476D01*
X46250Y84390D01*
X46119Y84203D01*
X45984Y83991D01*
X45859Y83782D01*
X45750Y83600D01*
X45701Y83528D01*
X45663Y83460D01*
X45655Y83446D01*
X45632Y83405D01*
X45602Y83350D01*
X45567Y83271D01*
X45535Y83181D01*
X45492Y83088D01*
X45416Y82870D01*
X49055Y83913D01*
X49306Y83038D01*
X44408Y81634D01*
X44405Y81644D01*
X44393Y81687D01*
X44374Y81751D01*
X44361Y81839D01*
X44344Y81938D01*
X44335Y82051D01*
X44325Y82164D01*
X44334Y82294D01*
X44331Y82304D01*
X44339Y82318D01*
X44342Y82388D01*
X44357Y82497D01*
X44384Y82643D01*
X44427Y82817D01*
X44485Y83018D01*
X44553Y83222D01*
X44650Y83447D01*
X44647Y83457D01*
X44666Y83474D01*
X44701Y83553D01*
X44769Y83677D01*
X44868Y83855D01*
X44982Y84061D01*
X45130Y84312D01*
X45314Y84595D01*
X45517Y84896D01*
X45524Y84910D01*
X45558Y84954D01*
X45606Y85026D01*
X45663Y85111D01*
X45734Y85224D01*
X45824Y85354D01*
X45911Y85494D01*
X46016Y85651D01*
X46209Y85984D01*
X46403Y86316D01*
X46494Y86481D01*
X46575Y86643D01*
X46648Y86791D01*
X46699Y86932D01*
X46696Y86943D01*
X46715Y86960D01*
X46727Y86998D01*
X46736Y87047D01*
X46777Y87186D01*
X46822Y87349D01*
X46848Y87541D01*
X46871Y87744D01*
X46855Y87959D01*
X46822Y88157D01*
X46818Y88167D01*
X46816Y88178D01*
X46786Y88239D01*
X46745Y88343D01*
X46680Y88451D01*
X46594Y88588D01*
X46476Y88716D01*
X46338Y88838D01*
X46167Y88951D01*
X46139Y88966D01*
X46074Y88993D01*
X45984Y89025D01*
X45845Y89066D01*
X45677Y89087D01*
X45488Y89102D01*
X45273Y89087D01*
X45046Y89033D01*
X44982Y89015D01*
X44942Y88992D01*
X44817Y88945D01*
X44677Y88870D01*
X44529Y88781D01*
X44369Y88655D01*
X44226Y88510D01*
X44103Y88336D01*
X44088Y88308D01*
X44060Y88243D01*
X44021Y88139D01*
X43994Y87993D01*
X43962Y87822D01*
X43953Y87611D01*
X43971Y87386D01*
X44020Y87134D01*
X43064Y86964D01*
X43061Y86975D01*
X43063Y87010D01*
X43047Y87063D01*
X43037Y87141D01*
X43034Y87232D01*
X43027Y87334D01*
X43026Y87461D01*
X43024Y87588D01*
X43036Y87868D01*
X43091Y88161D01*
X43129Y88310D01*
X43188Y88466D01*
X43250Y88611D01*
X43327Y88748D01*
X43334Y88762D01*
X43352Y88779D01*
X43375Y88820D01*
X43419Y88867D01*
X43471Y88928D01*
X43534Y88992D01*
X43604Y89070D01*
X43695Y89154D01*
X43797Y89241D01*
X43910Y89331D01*
X44036Y89414D01*
X44173Y89499D01*
X44324Y89577D01*
X44486Y89658D01*
X44664Y89721D01*
X44853Y89786D01*
X44960Y89817D01*
X45038Y89828D01*
X45126Y89842D01*
X45236Y89861D01*
X45359Y89874D01*
X45483Y89886D01*
X45782Y89891D01*
X46090Y89864D01*
D02*
G37*
G36*
X42210Y81003D02*
X41303Y80743D01*
X39648Y86516D01*
X39640Y86502D01*
X39599Y86444D01*
X39554Y86362D01*
X39468Y86256D01*
X39378Y86126D01*
X39260Y85977D01*
X39123Y85811D01*
X38964Y85638D01*
X38954Y85635D01*
X38946Y85621D01*
X38894Y85560D01*
X38803Y85477D01*
X38693Y85376D01*
X38565Y85258D01*
X38426Y85138D01*
X38288Y85017D01*
X38146Y84907D01*
X37895Y85782D01*
X37906Y85785D01*
X37921Y85813D01*
X37961Y85836D01*
X38005Y85883D01*
X38060Y85933D01*
X38122Y85997D01*
X38273Y86156D01*
X38453Y86334D01*
X38623Y86545D01*
X38798Y86780D01*
X38971Y87026D01*
X38978Y87039D01*
X38986Y87053D01*
X39009Y87094D01*
X39042Y87139D01*
X39108Y87273D01*
X39199Y87438D01*
X39284Y87624D01*
X39374Y87834D01*
X39442Y88039D01*
X39497Y88251D01*
X40084Y88419D01*
X42210Y81003D01*
D02*
G37*
G36*
X29993Y77500D02*
X29012Y77219D01*
X26894Y84602D01*
X27876Y84884D01*
X29993Y77500D01*
D02*
G37*
G36*
X202296Y187391D02*
X202487Y187383D01*
X202702Y187367D01*
X202943Y187320D01*
X203188Y187252D01*
X203436Y187151D01*
X203447Y187152D01*
X203461Y187132D01*
X203497Y187114D01*
X203546Y187087D01*
X203667Y187014D01*
X203827Y186912D01*
X203992Y186766D01*
X204183Y186590D01*
X204357Y186378D01*
X204524Y186131D01*
X204526Y186120D01*
X204540Y186100D01*
X204567Y186059D01*
X204597Y186007D01*
X204629Y185933D01*
X204675Y185838D01*
X204712Y185731D01*
X204761Y185614D01*
X204813Y185476D01*
X204868Y185315D01*
X204914Y185142D01*
X204961Y184958D01*
X205011Y184752D01*
X205062Y184535D01*
X205105Y184294D01*
X205139Y184041D01*
X205140Y184030D01*
X205148Y183975D01*
X205158Y183898D01*
X205171Y183799D01*
X205177Y183676D01*
X205196Y183533D01*
X205207Y183367D01*
Y183199D01*
X205224Y182821D01*
X205221Y182417D01*
X205194Y182033D01*
X205164Y181838D01*
X205131Y181666D01*
X205133Y181655D01*
X205125Y181632D01*
X205109Y181585D01*
X205095Y181516D01*
X205071Y181445D01*
X205039Y181351D01*
X204954Y181150D01*
X204850Y180923D01*
X204725Y180682D01*
X204555Y180447D01*
X204360Y180231D01*
X204349Y180229D01*
X204330Y180204D01*
X204300Y180178D01*
X204258Y180150D01*
X204197Y180108D01*
X204137Y180055D01*
X204055Y179999D01*
X203971Y179955D01*
X203774Y179839D01*
X203531Y179728D01*
X203262Y179647D01*
X202957Y179584D01*
X202868Y179572D01*
X202812Y179576D01*
X202735Y179566D01*
X202646Y179565D01*
X202431Y179581D01*
X202192Y179605D01*
X201938Y179661D01*
X201680Y179750D01*
X201549Y179811D01*
X201427Y179884D01*
X201415Y179894D01*
X201402Y179903D01*
X201365Y179932D01*
X201327Y179960D01*
X201276Y180009D01*
X201212Y180068D01*
X201082Y180208D01*
X200945Y180391D01*
X200803Y180618D01*
X200678Y180882D01*
X200570Y181192D01*
X201462Y181389D01*
X201463Y181378D01*
X201477Y181358D01*
X201480Y181336D01*
X201497Y181293D01*
X201546Y181176D01*
X201607Y181050D01*
X201683Y180904D01*
X201781Y180760D01*
X201888Y180629D01*
X202014Y180522D01*
X202026Y180513D01*
X202075Y180485D01*
X202158Y180452D01*
X202252Y180420D01*
X202380Y180381D01*
X202529Y180356D01*
X202698Y180345D01*
X202876Y180357D01*
X202953Y180368D01*
X203028Y180389D01*
X203126Y180413D01*
X203244Y180451D01*
X203361Y180500D01*
X203487Y180562D01*
X203599Y180644D01*
X203608Y180657D01*
X203650Y180685D01*
X203710Y180737D01*
X203767Y180812D01*
X203845Y180901D01*
X203921Y181001D01*
X203996Y181111D01*
X204068Y181244D01*
X204077Y181257D01*
X204092Y181315D01*
X204126Y181397D01*
X204156Y181502D01*
X204194Y181642D01*
X204228Y181803D01*
X204260Y181987D01*
X204288Y182192D01*
X204287Y182203D01*
X204296Y182215D01*
X204292Y182248D01*
X204297Y182294D01*
X204305Y182407D01*
X204318Y182554D01*
X204317Y182733D01*
X204314Y182923D01*
X204297Y183134D01*
X204279Y183355D01*
X204277Y183366D01*
X204273Y183399D01*
X204265Y183454D01*
X204254Y183542D01*
X204246Y183519D01*
X204209Y183458D01*
X204153Y183372D01*
X204091Y183252D01*
X203996Y183127D01*
X203880Y182988D01*
X203742Y182847D01*
X203580Y182713D01*
X203560Y182699D01*
X203498Y182658D01*
X203405Y182600D01*
X203290Y182540D01*
X203132Y182463D01*
X202962Y182396D01*
X202768Y182336D01*
X202561Y182297D01*
X202473Y182286D01*
X202405Y182288D01*
X202316Y182287D01*
X202227Y182286D01*
X202113Y182294D01*
X201999Y182312D01*
X201736Y182355D01*
X201596Y182393D01*
X201456Y182441D01*
X201302Y182499D01*
X201157Y182580D01*
X201012Y182662D01*
X200875Y182767D01*
X200862Y182776D01*
X200837Y182795D01*
X200811Y182825D01*
X200759Y182874D01*
X200694Y182944D01*
X200629Y183014D01*
X200561Y183106D01*
X200491Y183208D01*
X200409Y183320D01*
X200336Y183445D01*
X200261Y183592D01*
X200185Y183738D01*
X200117Y183909D01*
X200071Y184093D01*
X200024Y184277D01*
X199985Y184484D01*
X199983Y184495D01*
X199977Y184539D01*
X199970Y184594D01*
X199971Y184673D01*
X199968Y184773D01*
X199963Y184896D01*
X199969Y185020D01*
X199983Y185167D01*
X200022Y185464D01*
X200056Y185625D01*
X200100Y185799D01*
X200157Y185963D01*
X200237Y186119D01*
X200315Y186287D01*
X200419Y186435D01*
X200428Y186447D01*
X200447Y186472D01*
X200476Y186510D01*
X200525Y186561D01*
X200584Y186625D01*
X200663Y186702D01*
X200744Y186769D01*
X200843Y186861D01*
X200945Y186942D01*
X201069Y187014D01*
X201350Y187175D01*
X201498Y187239D01*
X201670Y187296D01*
X201843Y187341D01*
X202029Y187377D01*
X202106Y187388D01*
X202162Y187384D01*
X202217Y187391D01*
X202296Y187391D01*
D02*
G37*
G36*
X196305Y186636D02*
X196610Y186610D01*
X196954Y186555D01*
X197127Y186511D01*
X197292Y186454D01*
X197459Y186376D01*
X197626Y186297D01*
X197639Y186288D01*
X197662Y186280D01*
X197711Y186253D01*
X197773Y186205D01*
X197835Y186157D01*
X197923Y186091D01*
X198011Y186013D01*
X198111Y185937D01*
X198214Y185838D01*
X198320Y185718D01*
X198436Y185599D01*
X198543Y185468D01*
X198642Y185313D01*
X198752Y185160D01*
X198842Y184993D01*
X198934Y184803D01*
X197975Y184440D01*
X197973Y184451D01*
X197959Y184472D01*
X197932Y184513D01*
X197902Y184565D01*
X197871Y184628D01*
X197827Y184711D01*
X197715Y184876D01*
X197579Y185059D01*
X197420Y185240D01*
X197230Y185405D01*
X197032Y185546D01*
X197007Y185565D01*
X196936Y185600D01*
X196818Y185641D01*
X196665Y185699D01*
X196469Y185740D01*
X196251Y185778D01*
X195992Y185788D01*
X195716Y185763D01*
X195628Y185751D01*
X195574Y185732D01*
X195497Y185722D01*
X195410Y185699D01*
X195206Y185638D01*
X194981Y185564D01*
X194749Y185454D01*
X194511Y185310D01*
X194299Y185137D01*
X194288Y185135D01*
X194279Y185112D01*
X194210Y185046D01*
X194123Y184945D01*
X194019Y184797D01*
X193898Y184613D01*
X193791Y184408D01*
X193701Y184161D01*
X193625Y183893D01*
X193626Y183882D01*
X193618Y183859D01*
X193611Y183824D01*
X193608Y183768D01*
X193595Y183699D01*
X193583Y183619D01*
X193575Y183428D01*
X193560Y183202D01*
X193548Y182954D01*
X193562Y182687D01*
X193589Y182399D01*
X193590Y182388D01*
X193595Y182355D01*
X193602Y182300D01*
X193611Y182234D01*
X193632Y182159D01*
X193645Y182060D01*
X193671Y181951D01*
X193698Y181831D01*
X193766Y181572D01*
X193860Y181293D01*
X193964Y181016D01*
X194090Y180742D01*
X194091Y180730D01*
X194105Y180710D01*
X194132Y180680D01*
X194161Y180628D01*
X194245Y180505D01*
X194364Y180364D01*
X194509Y180204D01*
X194688Y180037D01*
X194886Y179896D01*
X195116Y179770D01*
X195126Y179771D01*
X195150Y179763D01*
X195186Y179746D01*
X195233Y179729D01*
X195291Y179715D01*
X195361Y179690D01*
X195524Y179645D01*
X195731Y179606D01*
X195958Y179580D01*
X196206Y179568D01*
X196461Y179591D01*
X196538Y179601D01*
X196602Y179621D01*
X196679Y179631D01*
X196755Y179653D01*
X196947Y179723D01*
X197171Y179809D01*
X197390Y179928D01*
X197616Y180081D01*
X197728Y180163D01*
X197826Y180266D01*
X197836Y180278D01*
X197845Y180291D01*
X197874Y180328D01*
X197914Y180367D01*
X197950Y180428D01*
X197997Y180501D01*
X198054Y180576D01*
X198097Y180672D01*
X198150Y180779D01*
X198212Y180900D01*
X198263Y181018D01*
X198312Y181159D01*
X198348Y181310D01*
X198382Y181471D01*
X198415Y181643D01*
X198436Y181825D01*
X199482Y181707D01*
X199483Y181696D01*
X199478Y181651D01*
X199465Y181582D01*
X199444Y181490D01*
X199424Y181386D01*
X199396Y181259D01*
X199359Y181120D01*
X199312Y180968D01*
X199199Y180639D01*
X199042Y180305D01*
X198941Y180135D01*
X198841Y179965D01*
X198727Y179815D01*
X198590Y179662D01*
X198580Y179650D01*
X198561Y179625D01*
X198509Y179596D01*
X198460Y179544D01*
X198380Y179477D01*
X198299Y179411D01*
X198185Y179340D01*
X198071Y179268D01*
X197937Y179183D01*
X197791Y179108D01*
X197633Y179031D01*
X197464Y178952D01*
X197283Y178883D01*
X197088Y178835D01*
X196882Y178785D01*
X196663Y178744D01*
X196542Y178728D01*
X196453Y178728D01*
X196354Y178714D01*
X196231Y178709D01*
X196096Y178714D01*
X195939Y178715D01*
X195613Y178727D01*
X195271Y178771D01*
X194925Y178848D01*
X194760Y178905D01*
X194595Y178972D01*
X194582Y178982D01*
X194559Y178990D01*
X194510Y179017D01*
X194461Y179055D01*
X194389Y179090D01*
X194303Y179146D01*
X194205Y179212D01*
X194105Y179288D01*
X194004Y179375D01*
X193891Y179461D01*
X193659Y179687D01*
X193433Y179960D01*
X193224Y180268D01*
X193222Y180279D01*
X193196Y180309D01*
X193178Y180362D01*
X193136Y180424D01*
X193102Y180509D01*
X193054Y180614D01*
X192994Y180730D01*
X192943Y180857D01*
X192891Y180996D01*
X192825Y181155D01*
X192725Y181489D01*
X192630Y181868D01*
X192555Y182261D01*
X192553Y182272D01*
X192547Y182316D01*
X192539Y182382D01*
X192539Y182461D01*
X192525Y182571D01*
X192521Y182682D01*
X192513Y182827D01*
X192516Y182973D01*
X192528Y183299D01*
X192558Y183661D01*
X192621Y184028D01*
X192730Y184390D01*
X192739Y184402D01*
X192746Y184437D01*
X192762Y184484D01*
X192799Y184545D01*
X192832Y184627D01*
X192876Y184723D01*
X192992Y184940D01*
X193150Y185185D01*
X193341Y185434D01*
X193564Y185688D01*
X193836Y185915D01*
X193846Y185927D01*
X193878Y185943D01*
X193919Y185971D01*
X193969Y186011D01*
X194053Y186056D01*
X194136Y186100D01*
X194241Y186159D01*
X194356Y186219D01*
X194482Y186281D01*
X194619Y186344D01*
X194918Y186451D01*
X195263Y186553D01*
X195623Y186624D01*
X195733Y186638D01*
X195812Y186637D01*
X195912Y186640D01*
X196035Y186645D01*
X196157Y186650D01*
X196305Y186636D01*
D02*
G37*
G36*
X191585Y178201D02*
X190572Y178066D01*
X189557Y185680D01*
X190569Y185815D01*
X191585Y178201D01*
D02*
G37*
G36*
X153081Y113657D02*
X153388Y113645D01*
X153733Y113605D01*
X153909Y113569D01*
X154076Y113520D01*
X154246Y113449D01*
X154417Y113379D01*
X154430Y113370D01*
X154454Y113363D01*
X154503Y113338D01*
X154568Y113293D01*
X154632Y113248D01*
X154722Y113186D01*
X154815Y113112D01*
X154918Y113040D01*
X155025Y112947D01*
X155136Y112831D01*
X155258Y112718D01*
X155371Y112592D01*
X155477Y112442D01*
X155594Y112293D01*
X155690Y112130D01*
X155792Y111945D01*
X154850Y111539D01*
X154848Y111550D01*
X154833Y111570D01*
X154803Y111610D01*
X154771Y111660D01*
X154738Y111722D01*
X154689Y111804D01*
X154570Y111963D01*
X154426Y112140D01*
X154259Y112313D01*
X154062Y112469D01*
X153858Y112601D01*
X153832Y112619D01*
X153758Y112651D01*
X153639Y112686D01*
X153484Y112737D01*
X153286Y112769D01*
X153067Y112797D01*
X152808Y112796D01*
X152533Y112758D01*
X152445Y112742D01*
X152393Y112721D01*
X152316Y112707D01*
X152231Y112681D01*
X152029Y112611D01*
X151807Y112526D01*
X151581Y112406D01*
X151349Y112252D01*
X151145Y112068D01*
X151134Y112066D01*
X151128Y112042D01*
X151061Y111974D01*
X150978Y111869D01*
X150882Y111716D01*
X150769Y111527D01*
X150671Y111318D01*
X150592Y111067D01*
X150528Y110796D01*
X150531Y110785D01*
X150524Y110761D01*
X150518Y110726D01*
X150517Y110669D01*
X150507Y110600D01*
X150499Y110520D01*
X150500Y110328D01*
X150496Y110102D01*
X150495Y109853D01*
X150520Y109587D01*
X150561Y109301D01*
X150562Y109291D01*
X150568Y109258D01*
X150578Y109203D01*
X150590Y109137D01*
X150615Y109063D01*
X150632Y108965D01*
X150663Y108857D01*
X150695Y108739D01*
X150775Y108483D01*
X150881Y108209D01*
X150998Y107936D01*
X151136Y107668D01*
X151138Y107657D01*
X151153Y107637D01*
X151181Y107608D01*
X151213Y107558D01*
X151302Y107438D01*
X151427Y107303D01*
X151579Y107150D01*
X151765Y106992D01*
X151970Y106860D01*
X152205Y106744D01*
X152216Y106746D01*
X152240Y106739D01*
X152276Y106723D01*
X152324Y106709D01*
X152382Y106697D01*
X152454Y106676D01*
X152619Y106638D01*
X152827Y106608D01*
X153055Y106592D01*
X153304Y106592D01*
X153557Y106626D01*
X153633Y106640D01*
X153697Y106663D01*
X153773Y106677D01*
X153848Y106701D01*
X154037Y106780D01*
X154256Y106876D01*
X154470Y107005D01*
X154689Y107168D01*
X154797Y107255D01*
X154890Y107362D01*
X154900Y107375D01*
X154909Y107388D01*
X154935Y107427D01*
X154973Y107468D01*
X155007Y107530D01*
X155050Y107605D01*
X155104Y107683D01*
X155142Y107780D01*
X155190Y107890D01*
X155247Y108013D01*
X155293Y108134D01*
X155335Y108277D01*
X155364Y108429D01*
X155391Y108592D01*
X155416Y108765D01*
X155428Y108948D01*
X156479Y108877D01*
X156481Y108867D01*
X156478Y108821D01*
X156468Y108751D01*
X156451Y108658D01*
X156435Y108554D01*
X156413Y108426D01*
X156382Y108285D01*
X156342Y108131D01*
X156244Y107798D01*
X156103Y107457D01*
X156010Y107282D01*
X155918Y107107D01*
X155810Y106953D01*
X155681Y106794D01*
X155672Y106781D01*
X155654Y106756D01*
X155603Y106724D01*
X155556Y106670D01*
X155479Y106600D01*
X155401Y106530D01*
X155291Y106453D01*
X155181Y106377D01*
X155050Y106286D01*
X154907Y106204D01*
X154753Y106120D01*
X154588Y106034D01*
X154410Y105956D01*
X154218Y105899D01*
X154014Y105840D01*
X153798Y105790D01*
X153677Y105768D01*
X153588Y105764D01*
X153490Y105746D01*
X153368Y105735D01*
X153233Y105733D01*
X153076Y105728D01*
X152749Y105725D01*
X152406Y105754D01*
X152056Y105815D01*
X151889Y105864D01*
X151721Y105924D01*
X151708Y105933D01*
X151684Y105940D01*
X151635Y105965D01*
X151583Y106000D01*
X151510Y106032D01*
X151421Y106084D01*
X151320Y106145D01*
X151217Y106217D01*
X151112Y106299D01*
X150996Y106380D01*
X150754Y106596D01*
X150515Y106857D01*
X150293Y107155D01*
X150291Y107166D01*
X150263Y107195D01*
X150242Y107248D01*
X150197Y107308D01*
X150160Y107391D01*
X150107Y107494D01*
X150042Y107607D01*
X149986Y107732D01*
X149928Y107868D01*
X149854Y108024D01*
X149739Y108353D01*
X149626Y108727D01*
X149534Y109117D01*
X149532Y109128D01*
X149524Y109171D01*
X149512Y109237D01*
X149509Y109315D01*
X149489Y109424D01*
X149481Y109536D01*
X149466Y109680D01*
X149462Y109826D01*
X149460Y110152D01*
X149474Y110516D01*
X149520Y110885D01*
X149612Y111251D01*
X149621Y111264D01*
X149626Y111299D01*
X149640Y111346D01*
X149674Y111409D01*
X149704Y111493D01*
X149743Y111590D01*
X149849Y111812D01*
X149996Y112064D01*
X150175Y112322D01*
X150387Y112586D01*
X150648Y112825D01*
X150657Y112837D01*
X150688Y112854D01*
X150728Y112884D01*
X150777Y112927D01*
X150858Y112975D01*
X150940Y113024D01*
X151041Y113087D01*
X151153Y113152D01*
X151277Y113220D01*
X151411Y113289D01*
X151705Y113410D01*
X152045Y113527D01*
X152401Y113614D01*
X152510Y113633D01*
X152589Y113636D01*
X152689Y113643D01*
X152811Y113654D01*
X152933Y113664D01*
X153081Y113657D01*
D02*
G37*
G36*
X165278Y115761D02*
X165460Y115749D01*
X165656Y115728D01*
X165846Y115672D01*
X165857Y115674D01*
X165870Y115665D01*
X165931Y115642D01*
X166028Y115603D01*
X166151Y115546D01*
X166291Y115459D01*
X166444Y115362D01*
X166589Y115242D01*
X166739Y115099D01*
X166754Y115080D01*
X166807Y115033D01*
X166869Y114942D01*
X166971Y114814D01*
X167066Y114662D01*
X167187Y114492D01*
X167302Y114287D01*
X167411Y114059D01*
X167413Y114048D01*
X167428Y114028D01*
X167445Y113997D01*
X167465Y113945D01*
X167488Y113881D01*
X167513Y113806D01*
X167552Y113712D01*
X167583Y113605D01*
X167626Y113489D01*
X167661Y113359D01*
X167699Y113208D01*
X167749Y113059D01*
X167791Y112887D01*
X167823Y112712D01*
X167869Y112517D01*
X167906Y112310D01*
X167908Y112299D01*
X167916Y112255D01*
X167930Y112178D01*
X167945Y112091D01*
X167956Y111969D01*
X167980Y111838D01*
X167994Y111694D01*
X168011Y111539D01*
X168041Y111184D01*
X168051Y110813D01*
X168049Y110452D01*
X168035Y110280D01*
X168009Y110106D01*
X168011Y110095D01*
X168004Y110072D01*
X167990Y110024D01*
X167978Y109965D01*
X167970Y109885D01*
X167940Y109801D01*
X167886Y109599D01*
X167812Y109383D01*
X167710Y109139D01*
X167581Y108913D01*
X167418Y108692D01*
X167407Y108690D01*
X167400Y108666D01*
X167371Y108638D01*
X167332Y108609D01*
X167283Y108566D01*
X167236Y108512D01*
X167086Y108406D01*
X166903Y108295D01*
X166687Y108177D01*
X166422Y108084D01*
X166131Y108009D01*
X166022Y107989D01*
X165944Y107987D01*
X165854Y107982D01*
X165741Y107984D01*
X165617Y107984D01*
X165480Y107993D01*
X165341Y108013D01*
X165191Y108032D01*
X165037Y108072D01*
X164881Y108123D01*
X164724Y108184D01*
X164562Y108268D01*
X164409Y108365D01*
X164266Y108474D01*
X164253Y108483D01*
X164225Y108512D01*
X164182Y108561D01*
X164112Y108638D01*
X164040Y108727D01*
X163962Y108848D01*
X163857Y108987D01*
X163761Y109150D01*
X163660Y109335D01*
X163553Y109553D01*
X163442Y109792D01*
X163336Y110066D01*
X163227Y110362D01*
X163135Y110684D01*
X163048Y111041D01*
X162968Y111421D01*
X162966Y111432D01*
X162959Y111476D01*
X162945Y111552D01*
X162929Y111640D01*
X162918Y111762D01*
X162895Y111893D01*
X162880Y112037D01*
X162862Y112203D01*
X162833Y112547D01*
X162823Y112917D01*
X162824Y113290D01*
X162838Y113462D01*
X162852Y113633D01*
X162850Y113644D01*
X162857Y113668D01*
X162871Y113716D01*
X162883Y113774D01*
X162892Y113855D01*
X162921Y113939D01*
X162975Y114140D01*
X163049Y114357D01*
X163154Y114590D01*
X163280Y114827D01*
X163446Y115037D01*
X163456Y115039D01*
X163463Y115063D01*
X163492Y115091D01*
X163532Y115120D01*
X163579Y115174D01*
X163639Y115218D01*
X163787Y115335D01*
X163970Y115447D01*
X164185Y115565D01*
X164450Y115658D01*
X164741Y115733D01*
X164840Y115750D01*
X164962Y115761D01*
X165108Y115765D01*
X165278Y115761D01*
D02*
G37*
G36*
X161257Y107267D02*
X160329Y107100D01*
X159265Y113010D01*
X159256Y112998D01*
X159209Y112944D01*
X159156Y112867D01*
X159060Y112771D01*
X158958Y112651D01*
X158825Y112514D01*
X158671Y112362D01*
X158496Y112207D01*
X158485Y112205D01*
X158476Y112192D01*
X158419Y112136D01*
X158319Y112062D01*
X158200Y111973D01*
X158061Y111869D01*
X157911Y111763D01*
X157761Y111657D01*
X157608Y111562D01*
X157447Y112458D01*
X157458Y112460D01*
X157476Y112486D01*
X157518Y112504D01*
X157567Y112547D01*
X157626Y112591D01*
X157695Y112649D01*
X157861Y112792D01*
X158058Y112951D01*
X158249Y113143D01*
X158447Y113359D01*
X158643Y113586D01*
X158652Y113599D01*
X158661Y113612D01*
X158688Y113651D01*
X158725Y113692D01*
X158804Y113818D01*
X158912Y113973D01*
X159015Y114150D01*
X159126Y114350D01*
X159214Y114546D01*
X159290Y114752D01*
X159891Y114860D01*
X161257Y107267D01*
D02*
G37*
G36*
X148749Y105017D02*
X147744Y104836D01*
X146383Y112396D01*
X147389Y112577D01*
X148749Y105017D01*
D02*
G37*
G36*
X301877Y136003D02*
X301977Y135995D01*
X302099Y135987D01*
X302222Y135980D01*
X302367Y135951D01*
X302669Y135893D01*
X303004Y135803D01*
X303173Y135742D01*
X303330Y135668D01*
X303489Y135573D01*
X303647Y135478D01*
X303659Y135467D01*
X303681Y135457D01*
X303726Y135425D01*
X303783Y135371D01*
X303841Y135317D01*
X303921Y135242D01*
X304001Y135155D01*
X304092Y135069D01*
X304184Y134961D01*
X304277Y134830D01*
X304381Y134700D01*
X304474Y134559D01*
X304557Y134395D01*
X304650Y134231D01*
X304722Y134055D01*
X304795Y133857D01*
X303803Y133595D01*
X303803Y133606D01*
X303791Y133628D01*
X303767Y133672D01*
X303743Y133726D01*
X303719Y133792D01*
X303683Y133880D01*
X303589Y134055D01*
X303472Y134251D01*
X303333Y134447D01*
X303161Y134631D01*
X302979Y134792D01*
X302956Y134813D01*
X302888Y134856D01*
X302776Y134908D01*
X302629Y134981D01*
X302439Y135042D01*
X302226Y135103D01*
X301969Y135139D01*
X301691Y135142D01*
X301603Y135140D01*
X301548Y135127D01*
X301470Y135125D01*
X301381Y135111D01*
X301172Y135071D01*
X300940Y135020D01*
X300698Y134935D01*
X300446Y134817D01*
X300218Y134665D01*
X300207Y134665D01*
X300196Y134643D01*
X300120Y134585D01*
X300023Y134493D01*
X299905Y134356D01*
X299765Y134186D01*
X299638Y133993D01*
X299523Y133757D01*
X299419Y133498D01*
X299420Y133487D01*
X299409Y133464D01*
X299399Y133431D01*
X299390Y133375D01*
X299370Y133308D01*
X299350Y133229D01*
X299322Y133040D01*
X299284Y132817D01*
X299247Y132571D01*
X299233Y132304D01*
X299230Y132015D01*
X299231Y132004D01*
X299232Y131971D01*
X299233Y131916D01*
X299235Y131849D01*
X299249Y131772D01*
X299252Y131672D01*
X299266Y131561D01*
X299281Y131440D01*
X299322Y131174D01*
X299386Y130887D01*
X299461Y130601D01*
X299558Y130315D01*
X299559Y130304D01*
X299570Y130282D01*
X299594Y130250D01*
X299617Y130195D01*
X299688Y130063D01*
X299792Y129911D01*
X299920Y129737D01*
X300081Y129553D01*
X300263Y129392D01*
X300478Y129243D01*
X300490Y129243D01*
X300512Y129233D01*
X300546Y129212D01*
X300591Y129191D01*
X300647Y129170D01*
X300715Y129139D01*
X300872Y129077D01*
X301074Y129016D01*
X301297Y128968D01*
X301543Y128930D01*
X301798Y128927D01*
X301876Y128929D01*
X301942Y128942D01*
X302020Y128945D01*
X302097Y128958D01*
X302296Y129008D01*
X302527Y129071D01*
X302757Y129166D01*
X302998Y129296D01*
X303118Y129366D01*
X303226Y129458D01*
X303237Y129469D01*
X303248Y129481D01*
X303280Y129515D01*
X303323Y129550D01*
X303366Y129606D01*
X303420Y129675D01*
X303484Y129743D01*
X303537Y129833D01*
X303601Y129935D01*
X303675Y130049D01*
X303738Y130162D01*
X303801Y130297D01*
X303852Y130442D01*
X303903Y130599D01*
X303953Y130768D01*
X303993Y130946D01*
X305021Y130722D01*
X305021Y130710D01*
X305011Y130666D01*
X304991Y130598D01*
X304961Y130509D01*
X304930Y130408D01*
X304890Y130285D01*
X304838Y130150D01*
X304776Y130003D01*
X304630Y129688D01*
X304439Y129372D01*
X304322Y129213D01*
X304204Y129054D01*
X304075Y128917D01*
X303924Y128779D01*
X303913Y128767D01*
X303891Y128745D01*
X303837Y128721D01*
X303782Y128675D01*
X303695Y128617D01*
X303608Y128559D01*
X303488Y128499D01*
X303367Y128440D01*
X303225Y128370D01*
X303071Y128309D01*
X302907Y128249D01*
X302731Y128188D01*
X302544Y128138D01*
X302344Y128110D01*
X302134Y128082D01*
X301913Y128064D01*
X301791Y128060D01*
X301702Y128069D01*
X301602Y128066D01*
X301479Y128073D01*
X301346Y128092D01*
X301190Y128109D01*
X300866Y128155D01*
X300531Y128234D01*
X300194Y128346D01*
X300037Y128419D01*
X299879Y128503D01*
X299867Y128514D01*
X299845Y128525D01*
X299799Y128557D01*
X299754Y128600D01*
X299686Y128642D01*
X299606Y128706D01*
X299515Y128781D01*
X299424Y128868D01*
X299332Y128965D01*
X299229Y129062D01*
X299022Y129311D01*
X298824Y129605D01*
X298648Y129933D01*
X298648Y129944D01*
X298624Y129976D01*
X298612Y130032D01*
X298577Y130097D01*
X298552Y130185D01*
X298515Y130295D01*
X298467Y130416D01*
X298430Y130548D01*
X298392Y130691D01*
X298343Y130857D01*
X298277Y131199D01*
X298221Y131586D01*
X298187Y131985D01*
X298187Y131996D01*
X298186Y132040D01*
X298184Y132107D01*
X298193Y132184D01*
X298189Y132296D01*
X298197Y132407D01*
X298204Y132551D01*
X298222Y132696D01*
X298268Y133020D01*
X298335Y133377D01*
X298435Y133735D01*
X298580Y134084D01*
X298591Y134095D01*
X298601Y134129D01*
X298622Y134174D01*
X298665Y134231D01*
X298707Y134310D01*
X298760Y134400D01*
X298898Y134604D01*
X299080Y134832D01*
X299295Y135060D01*
X299544Y135289D01*
X299838Y135487D01*
X299849Y135499D01*
X299882Y135511D01*
X299925Y135534D01*
X299980Y135569D01*
X300068Y135605D01*
X300155Y135641D01*
X300265Y135688D01*
X300386Y135737D01*
X300518Y135785D01*
X300660Y135834D01*
X300969Y135909D01*
X301323Y135975D01*
X301688Y136008D01*
X301799Y136012D01*
X301877Y136003D01*
D02*
G37*
G36*
X310793Y135301D02*
X310782Y135290D01*
X310760Y135267D01*
X310717Y135221D01*
X310675Y135154D01*
X310611Y135074D01*
X310525Y134983D01*
X310439Y134869D01*
X310343Y134733D01*
X310247Y134597D01*
X310130Y134438D01*
X310013Y134257D01*
X309896Y134075D01*
X309769Y133872D01*
X309642Y133657D01*
X309516Y133420D01*
X309390Y133183D01*
X309379Y133172D01*
X309358Y133127D01*
X309327Y133059D01*
X309274Y132958D01*
X309222Y132834D01*
X309160Y132699D01*
X309087Y132541D01*
X309014Y132361D01*
X308932Y132159D01*
X308838Y131956D01*
X308755Y131732D01*
X308674Y131496D01*
X308510Y131014D01*
X308359Y130499D01*
X308359Y130487D01*
X308349Y130454D01*
X308340Y130398D01*
X308319Y130331D01*
X308300Y130241D01*
X308281Y130130D01*
X308251Y130007D01*
X308233Y129873D01*
X308204Y129717D01*
X308176Y129549D01*
X308131Y129192D01*
X308087Y128803D01*
X308066Y128380D01*
X307101Y128351D01*
X307101Y128362D01*
X307100Y128396D01*
X307099Y128440D01*
X307108Y128507D01*
X307105Y128596D01*
X307113Y128707D01*
X307120Y128829D01*
X307127Y128963D01*
X307145Y129119D01*
X307163Y129275D01*
X307190Y129464D01*
X307218Y129654D01*
X307245Y129855D01*
X307283Y130078D01*
X307381Y130536D01*
X307380Y130547D01*
X307390Y130592D01*
X307410Y130659D01*
X307441Y130760D01*
X307471Y130872D01*
X307511Y131006D01*
X307551Y131163D01*
X307612Y131331D01*
X307673Y131522D01*
X307734Y131713D01*
X307888Y132139D01*
X308075Y132589D01*
X308284Y133039D01*
X308294Y133051D01*
X308315Y133096D01*
X308347Y133152D01*
X308389Y133242D01*
X308441Y133344D01*
X308515Y133468D01*
X308589Y133604D01*
X308673Y133750D01*
X308874Y134078D01*
X309087Y134418D01*
X309331Y134769D01*
X309588Y135099D01*
X305827Y134987D01*
X305800Y135897D01*
X310771Y136045D01*
X310793Y135301D01*
D02*
G37*
G36*
X296805Y128046D02*
X295784Y128015D01*
X295557Y135693D01*
X296577Y135723D01*
X296805Y128046D01*
D02*
G37*
G36*
X228296Y124000D02*
X228396Y123996D01*
X228519Y123994D01*
X228641Y123992D01*
X228788Y123969D01*
X229091Y123925D01*
X229431Y123849D01*
X229602Y123795D01*
X229762Y123729D01*
X229925Y123641D01*
X230087Y123553D01*
X230099Y123542D01*
X230122Y123533D01*
X230169Y123503D01*
X230228Y123451D01*
X230287Y123400D01*
X230371Y123329D01*
X230455Y123246D01*
X230550Y123163D01*
X230646Y123059D01*
X230745Y122933D01*
X230854Y122808D01*
X230953Y122670D01*
X231043Y122510D01*
X231144Y122350D01*
X231223Y122178D01*
X231304Y121984D01*
X230325Y121678D01*
X230324Y121689D01*
X230311Y121710D01*
X230286Y121753D01*
X230260Y121807D01*
X230233Y121872D01*
X230193Y121958D01*
X230091Y122128D01*
X229966Y122319D01*
X229819Y122509D01*
X229639Y122685D01*
X229449Y122838D01*
X229426Y122858D01*
X229356Y122898D01*
X229241Y122945D01*
X229092Y123012D01*
X228899Y123064D01*
X228683Y123116D01*
X228426Y123141D01*
X228148Y123132D01*
X228059Y123125D01*
X228005Y123110D01*
X227927Y123104D01*
X227840Y123087D01*
X227632Y123038D01*
X227402Y122977D01*
X227165Y122882D01*
X226918Y122752D01*
X226696Y122591D01*
X226685Y122590D01*
X226676Y122567D01*
X226602Y122506D01*
X226509Y122410D01*
X226397Y122269D01*
X226266Y122092D01*
X226146Y121894D01*
X226042Y121653D01*
X225950Y121390D01*
X225951Y121379D01*
X225941Y121356D01*
X225933Y121322D01*
X225926Y121266D01*
X225908Y121198D01*
X225892Y121119D01*
X225872Y120928D01*
X225844Y120703D01*
X225818Y120457D01*
X225815Y120189D01*
X225825Y119901D01*
X225826Y119890D01*
X225829Y119856D01*
X225833Y119801D01*
X225838Y119735D01*
X225854Y119658D01*
X225862Y119558D01*
X225881Y119448D01*
X225901Y119327D01*
X225954Y119064D01*
X226030Y118780D01*
X226118Y118497D01*
X226227Y118216D01*
X226228Y118205D01*
X226241Y118184D01*
X226265Y118152D01*
X226292Y118098D01*
X226368Y117971D01*
X226479Y117823D01*
X226614Y117655D01*
X226782Y117478D01*
X226972Y117325D01*
X227193Y117185D01*
X227204Y117186D01*
X227227Y117177D01*
X227262Y117157D01*
X227308Y117138D01*
X227365Y117120D01*
X227434Y117092D01*
X227594Y117037D01*
X227798Y116985D01*
X228023Y116946D01*
X228270Y116919D01*
X228526Y116927D01*
X228603Y116933D01*
X228669Y116949D01*
X228746Y116954D01*
X228823Y116971D01*
X229019Y117030D01*
X229247Y117102D01*
X229473Y117208D01*
X229708Y117348D01*
X229825Y117423D01*
X229929Y117520D01*
X229939Y117532D01*
X229949Y117543D01*
X229980Y117579D01*
X230022Y117616D01*
X230062Y117674D01*
X230113Y117745D01*
X230174Y117816D01*
X230223Y117909D01*
X230282Y118013D01*
X230352Y118130D01*
X230410Y118245D01*
X230467Y118383D01*
X230511Y118531D01*
X230555Y118690D01*
X230599Y118860D01*
X230630Y119040D01*
X231667Y118861D01*
X231668Y118849D01*
X231660Y118804D01*
X231643Y118736D01*
X231616Y118645D01*
X231590Y118543D01*
X231555Y118418D01*
X231509Y118281D01*
X231453Y118132D01*
X231321Y117811D01*
X231145Y117487D01*
X231034Y117323D01*
X230924Y117159D01*
X230801Y117016D01*
X230655Y116872D01*
X230645Y116860D01*
X230625Y116836D01*
X230571Y116810D01*
X230519Y116762D01*
X230434Y116700D01*
X230350Y116638D01*
X230232Y116574D01*
X230114Y116509D01*
X229975Y116432D01*
X229825Y116366D01*
X229663Y116298D01*
X229489Y116230D01*
X229305Y116172D01*
X229107Y116135D01*
X228898Y116097D01*
X228678Y116070D01*
X228556Y116061D01*
X228466Y116066D01*
X228367Y116058D01*
X228244Y116060D01*
X228110Y116073D01*
X227953Y116084D01*
X227628Y116115D01*
X227290Y116180D01*
X226949Y116277D01*
X226788Y116343D01*
X226626Y116420D01*
X226614Y116431D01*
X226591Y116440D01*
X226545Y116470D01*
X226497Y116511D01*
X226428Y116550D01*
X226345Y116611D01*
X226251Y116682D01*
X226156Y116764D01*
X226060Y116857D01*
X225953Y116950D01*
X225735Y117190D01*
X225525Y117475D01*
X225335Y117795D01*
X225334Y117806D01*
X225309Y117837D01*
X225294Y117892D01*
X225256Y117956D01*
X225227Y118043D01*
X225186Y118151D01*
X225133Y118269D01*
X225090Y118400D01*
X225046Y118541D01*
X224989Y118704D01*
X224909Y119043D01*
X224836Y119427D01*
X224785Y119824D01*
X224784Y119835D01*
X224781Y119880D01*
X224776Y119946D01*
X224781Y120024D01*
X224773Y120135D01*
X224776Y120246D01*
X224777Y120391D01*
X224788Y120537D01*
X224820Y120862D01*
X224871Y121222D01*
X224956Y121584D01*
X225086Y121939D01*
X225096Y121951D01*
X225105Y121985D01*
X225124Y122030D01*
X225164Y122089D01*
X225202Y122170D01*
X225251Y122262D01*
X225380Y122472D01*
X225553Y122708D01*
X225758Y122945D01*
X225996Y123185D01*
X226281Y123395D01*
X226291Y123407D01*
X226324Y123421D01*
X226366Y123446D01*
X226419Y123483D01*
X226505Y123523D01*
X226591Y123563D01*
X226699Y123615D01*
X226817Y123669D01*
X226947Y123723D01*
X227088Y123777D01*
X227393Y123867D01*
X227743Y123948D01*
X228107Y123997D01*
X228217Y124005D01*
X228296Y124000D01*
D02*
G37*
G36*
X234801Y124377D02*
X234890Y124373D01*
X234991Y124369D01*
X235102Y124366D01*
X235215Y124341D01*
X235486Y124294D01*
X235759Y124214D01*
X235897Y124157D01*
X236035Y124089D01*
X236164Y123999D01*
X236294Y123908D01*
X236305Y123898D01*
X236317Y123888D01*
X236353Y123857D01*
X236401Y123816D01*
X236450Y123753D01*
X236510Y123690D01*
X236633Y123532D01*
X236759Y123330D01*
X236876Y123094D01*
X236974Y122823D01*
X236996Y122680D01*
X237018Y122526D01*
X237019Y122514D01*
X237020Y122503D01*
X237025Y122437D01*
X237021Y122337D01*
X237008Y122213D01*
X236986Y122056D01*
X236942Y121897D01*
X236887Y121737D01*
X236799Y121575D01*
X236789Y121552D01*
X236748Y121504D01*
X236687Y121433D01*
X236605Y121338D01*
X236490Y121229D01*
X236354Y121119D01*
X236195Y121007D01*
X236002Y120904D01*
X236013Y120905D01*
X236036Y120895D01*
X236070Y120887D01*
X236116Y120868D01*
X236253Y120822D01*
X236414Y120756D01*
X236588Y120658D01*
X236774Y120549D01*
X236951Y120406D01*
X237119Y120240D01*
X237120Y120229D01*
X237132Y120219D01*
X237181Y120156D01*
X237256Y120050D01*
X237333Y119911D01*
X237412Y119739D01*
X237494Y119533D01*
X237555Y119304D01*
X237585Y119050D01*
X237586Y119039D01*
X237588Y119006D01*
X237593Y118951D01*
X237586Y118883D01*
X237581Y118805D01*
X237577Y118705D01*
X237563Y118592D01*
X237539Y118468D01*
X237480Y118208D01*
X237435Y118060D01*
X237367Y117921D01*
X237301Y117772D01*
X237222Y117632D01*
X237121Y117491D01*
X237009Y117350D01*
X236999Y117338D01*
X236978Y117314D01*
X236947Y117278D01*
X236894Y117241D01*
X236821Y117180D01*
X236748Y117119D01*
X236652Y117056D01*
X236546Y116982D01*
X236429Y116906D01*
X236289Y116840D01*
X236138Y116774D01*
X235988Y116707D01*
X235813Y116661D01*
X235627Y116614D01*
X235441Y116578D01*
X235231Y116551D01*
X235120Y116543D01*
X235042Y116549D01*
X234942Y116552D01*
X234830Y116555D01*
X234707Y116568D01*
X234571Y116592D01*
X234267Y116647D01*
X234108Y116691D01*
X233960Y116736D01*
X233799Y116802D01*
X233638Y116879D01*
X233486Y116968D01*
X233345Y117080D01*
X233333Y117091D01*
X233309Y117111D01*
X233273Y117142D01*
X233225Y117194D01*
X233176Y117257D01*
X233104Y117330D01*
X233042Y117414D01*
X232967Y117520D01*
X232893Y117626D01*
X232828Y117755D01*
X232697Y118024D01*
X232640Y118186D01*
X232595Y118350D01*
X232560Y118525D01*
X232536Y118702D01*
X232535Y118713D01*
X232533Y118735D01*
X232530Y118779D01*
X232538Y118824D01*
X232533Y118891D01*
X232538Y118969D01*
X232547Y119148D01*
X232577Y119350D01*
X232629Y119554D01*
X232713Y119772D01*
X232820Y119980D01*
X232819Y119991D01*
X232841Y120004D01*
X232881Y120063D01*
X232963Y120158D01*
X233076Y120277D01*
X233223Y120399D01*
X233403Y120535D01*
X233606Y120650D01*
X233855Y120746D01*
X233843Y120745D01*
X233832Y120756D01*
X233798Y120764D01*
X233752Y120783D01*
X233649Y120820D01*
X233511Y120877D01*
X233361Y120955D01*
X233209Y121055D01*
X233067Y121167D01*
X232935Y121291D01*
X232923Y121312D01*
X232886Y121354D01*
X232835Y121439D01*
X232783Y121547D01*
X232717Y121687D01*
X232661Y121849D01*
X232614Y122035D01*
X232588Y122234D01*
X232587Y122245D01*
X232585Y122267D01*
X232582Y122311D01*
X232588Y122378D01*
X232595Y122446D01*
X232599Y122535D01*
X232630Y122726D01*
X232680Y122953D01*
X232773Y123193D01*
X232831Y123320D01*
X232899Y123447D01*
X232991Y123565D01*
X233082Y123683D01*
X233093Y123695D01*
X233114Y123708D01*
X233145Y123744D01*
X233187Y123780D01*
X233239Y123828D01*
X233313Y123878D01*
X233397Y123940D01*
X233482Y124002D01*
X233589Y124066D01*
X233706Y124130D01*
X233836Y124184D01*
X233976Y124239D01*
X234282Y124328D01*
X234458Y124352D01*
X234634Y124376D01*
X234734Y124383D01*
X234801Y124377D01*
D02*
G37*
G36*
X223576Y115829D02*
X222557Y115754D01*
X221995Y123415D01*
X223013Y123489D01*
X223576Y115829D01*
D02*
G37*
G36*
X391070Y122819D02*
X391003Y121922D01*
X387937Y122153D01*
X387372Y120114D01*
X387384Y120124D01*
X387407Y120134D01*
X387441Y120153D01*
X387499Y120182D01*
X387568Y120211D01*
X387649Y120249D01*
X387833Y120324D01*
X388061Y120396D01*
X388310Y120455D01*
X388580Y120491D01*
X388714Y120503D01*
X388958Y120484D01*
X389024Y120468D01*
X389111Y120451D01*
X389210Y120432D01*
X389319Y120402D01*
X389438Y120359D01*
X389698Y120262D01*
X389838Y120196D01*
X389976Y120107D01*
X390114Y120019D01*
X390251Y119920D01*
X390376Y119799D01*
X390499Y119667D01*
X390510Y119655D01*
X390530Y119632D01*
X390561Y119596D01*
X390601Y119537D01*
X390650Y119455D01*
X390700Y119374D01*
X390759Y119269D01*
X390817Y119154D01*
X390863Y119028D01*
X390920Y118890D01*
X390963Y118731D01*
X391007Y118572D01*
X391039Y118402D01*
X391058Y118212D01*
X391066Y118022D01*
X391062Y117822D01*
X391061Y117811D01*
X391059Y117777D01*
X391054Y117722D01*
X391038Y117646D01*
X391020Y117558D01*
X391001Y117459D01*
X390970Y117339D01*
X390939Y117219D01*
X390851Y116936D01*
X390718Y116645D01*
X390639Y116496D01*
X390540Y116358D01*
X390440Y116210D01*
X390318Y116074D01*
X390307Y116064D01*
X390282Y116033D01*
X390234Y115992D01*
X390175Y115941D01*
X390092Y115880D01*
X389997Y115798D01*
X389880Y115729D01*
X389752Y115649D01*
X389613Y115571D01*
X389452Y115505D01*
X389280Y115440D01*
X389097Y115376D01*
X388905Y115335D01*
X388691Y115306D01*
X388467Y115290D01*
X388234Y115296D01*
X388134Y115304D01*
X388058Y115321D01*
X387970Y115338D01*
X387871Y115357D01*
X387750Y115377D01*
X387631Y115419D01*
X387359Y115507D01*
X387090Y115627D01*
X386951Y115704D01*
X386813Y115793D01*
X386687Y115891D01*
X386562Y116001D01*
X386551Y116013D01*
X386530Y116025D01*
X386511Y116071D01*
X386470Y116119D01*
X386419Y116178D01*
X386369Y116249D01*
X386309Y116342D01*
X386261Y116446D01*
X386202Y116551D01*
X386145Y116678D01*
X386043Y116952D01*
X385967Y117270D01*
X385946Y117438D01*
X385937Y117617D01*
X386928Y117620D01*
X386927Y117609D01*
X386926Y117587D01*
X386934Y117553D01*
X386941Y117497D01*
X386965Y117373D01*
X386997Y117204D01*
X387051Y117032D01*
X387125Y116838D01*
X387224Y116663D01*
X387345Y116498D01*
X387366Y116486D01*
X387407Y116438D01*
X387491Y116376D01*
X387608Y116300D01*
X387736Y116224D01*
X387898Y116156D01*
X388083Y116098D01*
X388292Y116071D01*
X388359Y116066D01*
X388404Y116074D01*
X388537Y116075D01*
X388696Y116107D01*
X388888Y116149D01*
X389083Y116223D01*
X389292Y116341D01*
X389386Y116412D01*
X389482Y116494D01*
X389493Y116504D01*
X389505Y116514D01*
X389530Y116545D01*
X389566Y116576D01*
X389652Y116692D01*
X389753Y116840D01*
X389844Y117023D01*
X389939Y117249D01*
X390015Y117522D01*
X390048Y117664D01*
X390060Y117819D01*
X390061Y117830D01*
X390062Y117852D01*
X390066Y117897D01*
X390059Y117953D01*
X390064Y118019D01*
X390059Y118097D01*
X390039Y118277D01*
X389999Y118492D01*
X389938Y118708D01*
X389842Y118915D01*
X389701Y119115D01*
X389702Y119126D01*
X389681Y119139D01*
X389629Y119198D01*
X389536Y119283D01*
X389409Y119382D01*
X389238Y119473D01*
X389045Y119565D01*
X388816Y119638D01*
X388685Y119670D01*
X388475Y119686D01*
X388386Y119682D01*
X388274Y119679D01*
X388139Y119656D01*
X388003Y119632D01*
X387855Y119588D01*
X387706Y119532D01*
X387695Y119522D01*
X387649Y119503D01*
X387578Y119453D01*
X387485Y119404D01*
X387391Y119333D01*
X387295Y119240D01*
X387188Y119148D01*
X387101Y119032D01*
X386225Y119221D01*
X387263Y123105D01*
X391070Y122819D01*
D02*
G37*
G36*
X382344Y123709D02*
X382454Y123701D01*
X382531Y123684D01*
X382630Y123665D01*
X382751Y123645D01*
X382872Y123625D01*
X383013Y123581D01*
X383307Y123492D01*
X383632Y123367D01*
X383792Y123288D01*
X383942Y123199D01*
X384089Y123088D01*
X384237Y122977D01*
X384247Y122965D01*
X384268Y122952D01*
X384310Y122915D01*
X384361Y122856D01*
X384412Y122796D01*
X384484Y122713D01*
X384555Y122619D01*
X384637Y122524D01*
X384717Y122406D01*
X384795Y122267D01*
X384885Y122126D01*
X384963Y121976D01*
X385028Y121804D01*
X385104Y121631D01*
X385157Y121449D01*
X385208Y121245D01*
X384195Y121088D01*
X384196Y121098D01*
X384186Y121122D01*
X384167Y121167D01*
X384149Y121224D01*
X384132Y121292D01*
X384106Y121384D01*
X384030Y121567D01*
X383935Y121775D01*
X383817Y121984D01*
X383665Y122185D01*
X383500Y122364D01*
X383480Y122388D01*
X383417Y122437D01*
X383310Y122501D01*
X383172Y122589D01*
X382989Y122670D01*
X382784Y122752D01*
X382533Y122815D01*
X382257Y122847D01*
X382168Y122854D01*
X382112Y122847D01*
X382034Y122853D01*
X381945Y122848D01*
X381732Y122831D01*
X381497Y122804D01*
X381247Y122745D01*
X380984Y122654D01*
X380741Y122527D01*
X380730Y122528D01*
X380717Y122507D01*
X380635Y122457D01*
X380529Y122376D01*
X380397Y122252D01*
X380241Y122097D01*
X380094Y121919D01*
X379955Y121696D01*
X379825Y121449D01*
X379824Y121438D01*
X379812Y121417D01*
X379798Y121385D01*
X379783Y121330D01*
X379756Y121265D01*
X379728Y121190D01*
X379680Y121004D01*
X379619Y120786D01*
X379557Y120546D01*
X379515Y120282D01*
X379482Y119995D01*
X379481Y119984D01*
X379479Y119951D01*
X379474Y119895D01*
X379469Y119829D01*
X379475Y119750D01*
X379467Y119651D01*
X379470Y119539D01*
X379472Y119417D01*
X379485Y119149D01*
X379519Y118857D01*
X379564Y118564D01*
X379631Y118269D01*
X379630Y118258D01*
X379639Y118235D01*
X379659Y118201D01*
X379677Y118144D01*
X379733Y118006D01*
X379821Y117843D01*
X379930Y117657D01*
X380070Y117457D01*
X380235Y117278D01*
X380434Y117107D01*
X380445Y117106D01*
X380466Y117093D01*
X380498Y117069D01*
X380540Y117043D01*
X380594Y117017D01*
X380658Y116979D01*
X380808Y116901D01*
X381002Y116819D01*
X381219Y116747D01*
X381459Y116685D01*
X381713Y116655D01*
X381791Y116649D01*
X381858Y116655D01*
X381935Y116649D01*
X382014Y116654D01*
X382216Y116684D01*
X382453Y116721D01*
X382692Y116792D01*
X382944Y116896D01*
X383071Y116953D01*
X383189Y117034D01*
X383200Y117044D01*
X383212Y117054D01*
X383248Y117085D01*
X383295Y117114D01*
X383343Y117167D01*
X383404Y117229D01*
X383475Y117290D01*
X383537Y117375D01*
X383611Y117469D01*
X383697Y117574D01*
X383772Y117680D01*
X383848Y117808D01*
X383914Y117947D01*
X383981Y118098D01*
X384049Y118260D01*
X384106Y118434D01*
X385106Y118103D01*
X385105Y118091D01*
X385090Y118048D01*
X385063Y117983D01*
X385023Y117897D01*
X384983Y117800D01*
X384929Y117682D01*
X384864Y117553D01*
X384787Y117414D01*
X384608Y117116D01*
X384386Y116821D01*
X384253Y116675D01*
X384119Y116529D01*
X383976Y116406D01*
X383811Y116285D01*
X383800Y116275D01*
X383776Y116255D01*
X383719Y116237D01*
X383660Y116197D01*
X383567Y116148D01*
X383475Y116099D01*
X383349Y116053D01*
X383223Y116007D01*
X383074Y115951D01*
X382915Y115907D01*
X382744Y115865D01*
X382563Y115823D01*
X382372Y115793D01*
X382171Y115785D01*
X381959Y115779D01*
X381737Y115785D01*
X381615Y115794D01*
X381527Y115812D01*
X381428Y115819D01*
X381307Y115839D01*
X381176Y115871D01*
X381022Y115905D01*
X380705Y115985D01*
X380380Y116098D01*
X380057Y116245D01*
X379908Y116334D01*
X379760Y116434D01*
X379749Y116446D01*
X379728Y116459D01*
X379686Y116495D01*
X379645Y116543D01*
X379582Y116592D01*
X379510Y116664D01*
X379427Y116749D01*
X379345Y116844D01*
X379264Y116950D01*
X379172Y117057D01*
X378992Y117327D01*
X378826Y117640D01*
X378685Y117984D01*
X378686Y117995D01*
X378666Y118030D01*
X378660Y118086D01*
X378631Y118155D01*
X378616Y118245D01*
X378591Y118359D01*
X378556Y118484D01*
X378533Y118619D01*
X378510Y118765D01*
X378478Y118935D01*
X378449Y119282D01*
X378434Y119673D01*
X378442Y120073D01*
X378442Y120084D01*
X378446Y120128D01*
X378451Y120195D01*
X378468Y120271D01*
X378476Y120382D01*
X378495Y120492D01*
X378517Y120635D01*
X378550Y120777D01*
X378630Y121094D01*
X378734Y121442D01*
X378871Y121788D01*
X379052Y122120D01*
X379064Y122130D01*
X379077Y122162D01*
X379103Y122205D01*
X379151Y122257D01*
X379201Y122331D01*
X379263Y122416D01*
X379422Y122604D01*
X379627Y122811D01*
X379865Y123016D01*
X380136Y123218D01*
X380449Y123384D01*
X380461Y123394D01*
X380495Y123403D01*
X380541Y123421D01*
X380599Y123450D01*
X380690Y123477D01*
X380781Y123504D01*
X380895Y123539D01*
X381020Y123575D01*
X381156Y123609D01*
X381303Y123642D01*
X381618Y123686D01*
X381977Y123714D01*
X382344Y123709D01*
D02*
G37*
G36*
X377231Y123960D02*
X376655Y116300D01*
X375637Y116377D01*
X376213Y124036D01*
X377231Y123960D01*
D02*
G37*
G36*
X317610Y192077D02*
X317688D01*
X317777Y192066D01*
X317988Y192021D01*
X318221Y191966D01*
X318465Y191877D01*
X318709Y191744D01*
X318831Y191666D01*
X318942Y191577D01*
X318953Y191566D01*
X318965Y191555D01*
X318998Y191522D01*
X319031Y191488D01*
X319087Y191433D01*
X319131Y191366D01*
X319253Y191211D01*
X319375Y191011D01*
X319486Y190767D01*
X319586Y190490D01*
X319653Y190179D01*
X318709Y190101D01*
Y190112D01*
X318698Y190123D01*
X318687Y190190D01*
X318654Y190290D01*
X318609Y190412D01*
X318565Y190545D01*
X318498Y190678D01*
X318421Y190800D01*
X318343Y190900D01*
X318321Y190922D01*
X318277Y190967D01*
X318199Y191033D01*
X318088Y191111D01*
X317943Y191178D01*
X317788Y191244D01*
X317599Y191289D01*
X317400Y191311D01*
X317322D01*
X317233Y191300D01*
X317133Y191278D01*
X317000Y191244D01*
X316867Y191200D01*
X316734Y191144D01*
X316600Y191056D01*
X316578Y191044D01*
X316523Y191000D01*
X316445Y190922D01*
X316345Y190811D01*
X316234Y190678D01*
X316112Y190523D01*
X316001Y190323D01*
X315890Y190101D01*
Y190090D01*
X315879Y190068D01*
X315868Y190034D01*
X315846Y189990D01*
X315835Y189923D01*
X315812Y189846D01*
X315790Y189757D01*
X315768Y189646D01*
X315735Y189524D01*
X315712Y189391D01*
X315690Y189246D01*
X315679Y189091D01*
X315657Y188913D01*
X315646Y188736D01*
X315635Y188536D01*
Y188336D01*
X315646Y188347D01*
X315690Y188414D01*
X315768Y188503D01*
X315868Y188614D01*
X315979Y188747D01*
X316123Y188869D01*
X316278Y188991D01*
X316456Y189102D01*
X316467D01*
X316478Y189113D01*
X316545Y189146D01*
X316645Y189180D01*
X316778Y189235D01*
X316933Y189280D01*
X317111Y189313D01*
X317300Y189346D01*
X317500Y189357D01*
X317588D01*
X317655Y189346D01*
X317744Y189335D01*
X317833Y189324D01*
X317943Y189302D01*
X318055Y189268D01*
X318310Y189191D01*
X318443Y189135D01*
X318576Y189058D01*
X318709Y188980D01*
X318854Y188891D01*
X318987Y188780D01*
X319109Y188658D01*
X319120Y188647D01*
X319142Y188625D01*
X319175Y188591D01*
X319209Y188536D01*
X319264Y188458D01*
X319320Y188381D01*
X319375Y188281D01*
X319442Y188170D01*
X319508Y188048D01*
X319564Y187914D01*
X319620Y187759D01*
X319675Y187603D01*
X319708Y187437D01*
X319742Y187248D01*
X319764Y187060D01*
X319775Y186860D01*
Y186849D01*
Y186826D01*
Y186793D01*
Y186738D01*
X319764Y186671D01*
Y186604D01*
X319730Y186427D01*
X319697Y186216D01*
X319642Y185994D01*
X319564Y185750D01*
X319453Y185517D01*
Y185506D01*
X319442Y185494D01*
X319420Y185461D01*
X319398Y185417D01*
X319331Y185306D01*
X319231Y185162D01*
X319109Y185006D01*
X318965Y184851D01*
X318787Y184695D01*
X318598Y184562D01*
X318587D01*
X318576Y184551D01*
X318543Y184529D01*
X318498Y184518D01*
X318388Y184462D01*
X318243Y184407D01*
X318055Y184340D01*
X317844Y184296D01*
X317610Y184251D01*
X317355Y184240D01*
X317300D01*
X317244Y184251D01*
X317155D01*
X317055Y184263D01*
X316945Y184285D01*
X316811Y184318D01*
X316678Y184351D01*
X316523Y184396D01*
X316367Y184451D01*
X316212Y184518D01*
X316045Y184607D01*
X315890Y184706D01*
X315735Y184818D01*
X315579Y184951D01*
X315435Y185106D01*
X315424Y185117D01*
X315402Y185151D01*
X315368Y185195D01*
X315324Y185273D01*
X315257Y185373D01*
X315202Y185483D01*
X315135Y185628D01*
X315069Y185783D01*
X314991Y185972D01*
X314924Y186183D01*
X314869Y186416D01*
X314813Y186671D01*
X314758Y186960D01*
X314725Y187271D01*
X314702Y187603D01*
X314691Y187959D01*
Y187970D01*
Y187981D01*
Y188014D01*
Y188059D01*
X314702Y188170D01*
Y188325D01*
X314713Y188503D01*
X314736Y188713D01*
X314758Y188947D01*
X314791Y189202D01*
X314835Y189457D01*
X314891Y189735D01*
X314958Y190001D01*
X315035Y190268D01*
X315135Y190523D01*
X315246Y190767D01*
X315368Y191000D01*
X315513Y191200D01*
X315524Y191211D01*
X315546Y191233D01*
X315590Y191278D01*
X315646Y191344D01*
X315712Y191411D01*
X315801Y191477D01*
X315912Y191566D01*
X316023Y191644D01*
X316156Y191721D01*
X316301Y191810D01*
X316467Y191877D01*
X316634Y191955D01*
X316822Y192010D01*
X317022Y192055D01*
X317233Y192077D01*
X317455Y192088D01*
X317544D01*
X317610Y192077D01*
D02*
G37*
G36*
X310884Y192177D02*
X310984Y192166D01*
X311106Y192154D01*
X311228Y192143D01*
X311372Y192110D01*
X311672Y192043D01*
X312005Y191943D01*
X312172Y191877D01*
X312327Y191799D01*
X312482Y191699D01*
X312638Y191599D01*
X312649Y191588D01*
X312671Y191577D01*
X312715Y191544D01*
X312771Y191488D01*
X312826Y191433D01*
X312904Y191355D01*
X312982Y191266D01*
X313071Y191178D01*
X313159Y191067D01*
X313248Y190933D01*
X313348Y190800D01*
X313437Y190656D01*
X313515Y190490D01*
X313603Y190323D01*
X313670Y190145D01*
X313737Y189946D01*
X312738Y189713D01*
Y189724D01*
X312727Y189746D01*
X312704Y189790D01*
X312682Y189846D01*
X312660Y189912D01*
X312627Y190001D01*
X312538Y190179D01*
X312427Y190378D01*
X312294Y190578D01*
X312127Y190767D01*
X311950Y190933D01*
X311927Y190956D01*
X311861Y191000D01*
X311750Y191056D01*
X311605Y191133D01*
X311417Y191200D01*
X311206Y191266D01*
X310951Y191311D01*
X310673Y191322D01*
X310584D01*
X310529Y191311D01*
X310451D01*
X310362Y191300D01*
X310151Y191266D01*
X309918Y191222D01*
X309674Y191144D01*
X309419Y191033D01*
X309186Y190889D01*
X309175D01*
X309163Y190867D01*
X309086Y190811D01*
X308986Y190723D01*
X308864Y190589D01*
X308720Y190423D01*
X308586Y190234D01*
X308464Y190001D01*
X308353Y189746D01*
Y189735D01*
X308342Y189713D01*
X308331Y189679D01*
X308320Y189624D01*
X308298Y189557D01*
X308276Y189479D01*
X308242Y189291D01*
X308198Y189069D01*
X308153Y188825D01*
X308131Y188558D01*
X308120Y188270D01*
Y188258D01*
Y188225D01*
Y188170D01*
Y188103D01*
X308131Y188025D01*
Y187925D01*
X308142Y187814D01*
X308153Y187692D01*
X308187Y187426D01*
X308242Y187137D01*
X308309Y186849D01*
X308398Y186560D01*
Y186549D01*
X308409Y186527D01*
X308431Y186493D01*
X308453Y186438D01*
X308520Y186305D01*
X308620Y186149D01*
X308742Y185972D01*
X308897Y185783D01*
X309075Y185617D01*
X309286Y185461D01*
X309297D01*
X309319Y185450D01*
X309352Y185428D01*
X309397Y185406D01*
X309452Y185384D01*
X309519Y185350D01*
X309674Y185284D01*
X309874Y185217D01*
X310096Y185162D01*
X310340Y185117D01*
X310595Y185106D01*
X310673D01*
X310740Y185117D01*
X310817D01*
X310895Y185128D01*
X311095Y185173D01*
X311328Y185228D01*
X311561Y185317D01*
X311805Y185439D01*
X311927Y185506D01*
X312038Y185594D01*
X312050Y185606D01*
X312061Y185617D01*
X312094Y185650D01*
X312138Y185683D01*
X312183Y185739D01*
X312238Y185805D01*
X312305Y185872D01*
X312360Y185961D01*
X312427Y186061D01*
X312505Y186172D01*
X312571Y186283D01*
X312638Y186416D01*
X312693Y186560D01*
X312749Y186716D01*
X312804Y186882D01*
X312849Y187060D01*
X313870Y186804D01*
Y186793D01*
X313859Y186749D01*
X313836Y186682D01*
X313803Y186593D01*
X313770Y186493D01*
X313725Y186371D01*
X313670Y186238D01*
X313603Y186094D01*
X313448Y185783D01*
X313248Y185472D01*
X313126Y185317D01*
X313004Y185162D01*
X312871Y185028D01*
X312715Y184895D01*
X312704Y184884D01*
X312682Y184862D01*
X312627Y184840D01*
X312571Y184795D01*
X312482Y184740D01*
X312394Y184684D01*
X312271Y184629D01*
X312149Y184573D01*
X312005Y184507D01*
X311850Y184451D01*
X311683Y184396D01*
X311506Y184340D01*
X311317Y184296D01*
X311117Y184274D01*
X310906Y184251D01*
X310684Y184240D01*
X310562D01*
X310473Y184251D01*
X310373D01*
X310251Y184263D01*
X310118Y184285D01*
X309963Y184307D01*
X309641Y184362D01*
X309308Y184451D01*
X308975Y184573D01*
X308819Y184651D01*
X308664Y184740D01*
X308653Y184751D01*
X308631Y184762D01*
X308586Y184795D01*
X308542Y184840D01*
X308475Y184884D01*
X308398Y184951D01*
X308309Y185028D01*
X308220Y185117D01*
X308131Y185217D01*
X308031Y185317D01*
X307831Y185572D01*
X307643Y185872D01*
X307476Y186205D01*
Y186216D01*
X307454Y186249D01*
X307443Y186305D01*
X307410Y186371D01*
X307388Y186460D01*
X307354Y186571D01*
X307310Y186693D01*
X307277Y186826D01*
X307243Y186971D01*
X307199Y187137D01*
X307143Y187481D01*
X307099Y187870D01*
X307077Y188270D01*
Y188281D01*
Y188325D01*
Y188392D01*
X307088Y188469D01*
Y188580D01*
X307099Y188691D01*
X307110Y188836D01*
X307132Y188980D01*
X307188Y189302D01*
X307265Y189657D01*
X307376Y190012D01*
X307532Y190356D01*
X307543Y190367D01*
X307554Y190401D01*
X307576Y190445D01*
X307621Y190501D01*
X307665Y190578D01*
X307721Y190667D01*
X307865Y190867D01*
X308053Y191089D01*
X308276Y191311D01*
X308531Y191533D01*
X308831Y191721D01*
X308842Y191733D01*
X308875Y191744D01*
X308919Y191766D01*
X308975Y191799D01*
X309064Y191833D01*
X309152Y191866D01*
X309263Y191910D01*
X309386Y191955D01*
X309519Y191999D01*
X309663Y192043D01*
X309974Y192110D01*
X310329Y192166D01*
X310695Y192188D01*
X310806D01*
X310884Y192177D01*
D02*
G37*
G36*
X305578Y184373D02*
X304557D01*
Y192055D01*
X305578D01*
Y184373D01*
D02*
G37*
G36*
X479452Y110892D02*
X479817Y110850D01*
X479926Y110831D01*
X480001Y110806D01*
X480097Y110778D01*
X480215Y110745D01*
X480334Y110713D01*
X480470Y110655D01*
X480753Y110537D01*
X481064Y110380D01*
X481216Y110285D01*
X481355Y110182D01*
X481491Y110056D01*
X481626Y109930D01*
X481635Y109917D01*
X481655Y109902D01*
X481693Y109862D01*
X481738Y109798D01*
X481783Y109733D01*
X481846Y109643D01*
X481907Y109542D01*
X481978Y109439D01*
X482046Y109314D01*
X482110Y109167D01*
X482185Y109019D01*
X482248Y108861D01*
X482295Y108684D01*
X482353Y108504D01*
X482387Y108318D01*
X482418Y108109D01*
X481394Y108055D01*
X481395Y108066D01*
X481389Y108090D01*
X481374Y108137D01*
X481362Y108196D01*
X481352Y108265D01*
X481335Y108359D01*
X481279Y108549D01*
X481204Y108765D01*
X481108Y108985D01*
X480978Y109200D01*
X480832Y109395D01*
X480814Y109421D01*
X480756Y109476D01*
X480657Y109551D01*
X480528Y109652D01*
X480354Y109751D01*
X480158Y109853D01*
X479915Y109942D01*
X479643Y110002D01*
X479556Y110017D01*
X479499Y110016D01*
X479423Y110030D01*
X479333Y110034D01*
X479120Y110038D01*
X478883Y110036D01*
X478629Y110002D01*
X478358Y109937D01*
X478103Y109836D01*
X478092Y109838D01*
X478077Y109818D01*
X477991Y109777D01*
X477877Y109707D01*
X477734Y109598D01*
X477562Y109459D01*
X477398Y109297D01*
X477237Y109089D01*
X477083Y108857D01*
X477081Y108846D01*
X477066Y108826D01*
X477049Y108795D01*
X477029Y108742D01*
X476995Y108681D01*
X476960Y108608D01*
X476894Y108428D01*
X476811Y108217D01*
X476725Y107985D01*
X476656Y107726D01*
X476595Y107444D01*
X476593Y107433D01*
X476587Y107400D01*
X476577Y107346D01*
X476565Y107280D01*
X476563Y107202D01*
X476545Y107103D01*
X476537Y106992D01*
X476526Y106870D01*
X476512Y106602D01*
X476516Y106308D01*
X476531Y106012D01*
X476568Y105713D01*
X476566Y105702D01*
X476573Y105678D01*
X476589Y105641D01*
X476601Y105583D01*
X476643Y105440D01*
X476715Y105269D01*
X476804Y105073D01*
X476923Y104860D01*
X477069Y104665D01*
X477249Y104475D01*
X477261Y104473D01*
X477280Y104458D01*
X477309Y104431D01*
X477349Y104401D01*
X477400Y104369D01*
X477459Y104325D01*
X477601Y104232D01*
X477786Y104131D01*
X477995Y104038D01*
X478227Y103951D01*
X478477Y103896D01*
X478553Y103882D01*
X478621Y103881D01*
X478697Y103868D01*
X478776Y103865D01*
X478980Y103874D01*
X479219Y103887D01*
X479464Y103934D01*
X479726Y104011D01*
X479858Y104056D01*
X479983Y104123D01*
X479996Y104132D01*
X480009Y104141D01*
X480047Y104168D01*
X480097Y104193D01*
X480150Y104240D01*
X480217Y104296D01*
X480294Y104350D01*
X480364Y104428D01*
X480447Y104514D01*
X480543Y104610D01*
X480628Y104707D01*
X480717Y104827D01*
X480797Y104959D01*
X480879Y105103D01*
X480963Y105257D01*
X481038Y105424D01*
X481998Y104993D01*
X481996Y104983D01*
X481978Y104941D01*
X481944Y104879D01*
X481896Y104797D01*
X481845Y104705D01*
X481780Y104593D01*
X481702Y104471D01*
X481611Y104341D01*
X481404Y104062D01*
X481153Y103791D01*
X481005Y103659D01*
X480858Y103528D01*
X480703Y103420D01*
X480527Y103316D01*
X480514Y103307D01*
X480488Y103289D01*
X480430Y103277D01*
X480367Y103243D01*
X480270Y103204D01*
X480173Y103165D01*
X480043Y103132D01*
X479913Y103099D01*
X479759Y103058D01*
X479597Y103031D01*
X479423Y103006D01*
X479239Y102982D01*
X479045Y102971D01*
X478844Y102985D01*
X478633Y103000D01*
X478412Y103028D01*
X478292Y103049D01*
X478207Y103076D01*
X478108Y103093D01*
X477990Y103125D01*
X477863Y103171D01*
X477714Y103220D01*
X477407Y103331D01*
X477094Y103477D01*
X476788Y103655D01*
X476648Y103759D01*
X476511Y103874D01*
X476502Y103887D01*
X476482Y103901D01*
X476444Y103942D01*
X476408Y103994D01*
X476351Y104049D01*
X476286Y104128D01*
X476212Y104220D01*
X476140Y104323D01*
X476070Y104437D01*
X475989Y104553D01*
X475838Y104839D01*
X475704Y105168D01*
X475599Y105525D01*
X475601Y105535D01*
X475585Y105572D01*
X475583Y105629D01*
X475562Y105700D01*
X475556Y105791D01*
X475543Y105906D01*
X475520Y106034D01*
X475511Y106172D01*
X475504Y106319D01*
X475489Y106491D01*
X475495Y106840D01*
X475519Y107230D01*
X475567Y107627D01*
X475569Y107638D01*
X475577Y107682D01*
X475589Y107747D01*
X475613Y107822D01*
X475633Y107931D01*
X475663Y108039D01*
X475699Y108179D01*
X475747Y108317D01*
X475858Y108624D01*
X475997Y108960D01*
X476168Y109290D01*
X476381Y109602D01*
X476394Y109611D01*
X476411Y109642D01*
X476441Y109681D01*
X476494Y109728D01*
X476551Y109797D01*
X476622Y109875D01*
X476799Y110046D01*
X477023Y110232D01*
X477281Y110411D01*
X477571Y110585D01*
X477899Y110718D01*
X477912Y110727D01*
X477947Y110732D01*
X477994Y110746D01*
X478055Y110769D01*
X478148Y110787D01*
X478242Y110804D01*
X478359Y110828D01*
X478487Y110850D01*
X478625Y110871D01*
X478775Y110889D01*
X479093Y110900D01*
X479452Y110892D01*
D02*
G37*
G36*
X485985Y109650D02*
X486258Y109601D01*
X486376Y109569D01*
X486514Y109522D01*
X486683Y109458D01*
X486870Y109368D01*
X487055Y109268D01*
X487236Y109145D01*
X487247Y109143D01*
X487256Y109130D01*
X487316Y109086D01*
X487403Y109003D01*
X487498Y108907D01*
X487610Y108774D01*
X487720Y108631D01*
X487826Y108465D01*
X487906Y108282D01*
X487913Y108258D01*
X487936Y108197D01*
X487962Y108091D01*
X487995Y107962D01*
X488024Y107810D01*
X488039Y107638D01*
X488039Y107446D01*
X488016Y107259D01*
X488013Y107237D01*
X488001Y107171D01*
X487974Y107086D01*
X487931Y106969D01*
X487873Y106833D01*
X487791Y106690D01*
X487698Y106549D01*
X487584Y106411D01*
X487569Y106391D01*
X487528Y106353D01*
X487449Y106289D01*
X487346Y106217D01*
X487219Y106138D01*
X487069Y106052D01*
X486898Y105981D01*
X486695Y105916D01*
X486706Y105914D01*
X486726Y105899D01*
X486757Y105882D01*
X486798Y105863D01*
X486911Y105798D01*
X487052Y105705D01*
X487211Y105587D01*
X487367Y105446D01*
X487505Y105275D01*
X487629Y105084D01*
X487636Y105060D01*
X487668Y104987D01*
X487714Y104866D01*
X487755Y104712D01*
X487789Y104526D01*
X487817Y104306D01*
X487818Y104058D01*
X487783Y103794D01*
X487781Y103783D01*
X487775Y103750D01*
X487765Y103696D01*
X487743Y103632D01*
X487716Y103546D01*
X487677Y103452D01*
X487635Y103347D01*
X487592Y103230D01*
X487458Y102984D01*
X487367Y102853D01*
X487278Y102734D01*
X487165Y102607D01*
X487042Y102483D01*
X486907Y102360D01*
X486753Y102252D01*
X486740Y102243D01*
X486714Y102225D01*
X486665Y102200D01*
X486602Y102167D01*
X486527Y102123D01*
X486430Y102084D01*
X486320Y102036D01*
X486190Y102003D01*
X486058Y101959D01*
X485904Y101919D01*
X485752Y101889D01*
X485579Y101864D01*
X485396Y101851D01*
X485204Y101852D01*
X485015Y101863D01*
X484805Y101889D01*
X484707Y101906D01*
X484643Y101929D01*
X484558Y101956D01*
X484461Y101984D01*
X484356Y102025D01*
X484240Y102069D01*
X483989Y102181D01*
X483735Y102339D01*
X483605Y102430D01*
X483487Y102530D01*
X483374Y102651D01*
X483260Y102773D01*
X483251Y102786D01*
X483233Y102812D01*
X483206Y102850D01*
X483181Y102900D01*
X483136Y102964D01*
X483095Y103050D01*
X483043Y103139D01*
X482995Y103249D01*
X482949Y103370D01*
X482903Y103490D01*
X482830Y103774D01*
X482786Y104098D01*
X482782Y104268D01*
X482791Y104446D01*
X483742Y104401D01*
X483740Y104390D01*
X483747Y104366D01*
X483750Y104321D01*
X483751Y104264D01*
X483750Y104197D01*
X483759Y104116D01*
X483784Y103942D01*
X483825Y103732D01*
X483891Y103529D01*
X483969Y103335D01*
X484073Y103158D01*
X484093Y103143D01*
X484129Y103092D01*
X484206Y103022D01*
X484306Y102948D01*
X484425Y102859D01*
X484580Y102775D01*
X484757Y102698D01*
X484952Y102652D01*
X485018Y102640D01*
X485064Y102643D01*
X485186Y102633D01*
X485344Y102639D01*
X485529Y102662D01*
X485728Y102705D01*
X485934Y102782D01*
X486136Y102903D01*
X486161Y102921D01*
X486228Y102977D01*
X486311Y103064D01*
X486422Y103180D01*
X486538Y103328D01*
X486637Y103502D01*
X486730Y103711D01*
X486795Y103947D01*
X486797Y103958D01*
X486801Y103980D01*
X486807Y104013D01*
X486804Y104059D01*
X486814Y104181D01*
X486807Y104328D01*
X486794Y104511D01*
X486749Y104700D01*
X486671Y104894D01*
X486558Y105083D01*
X486540Y105109D01*
X486493Y105162D01*
X486417Y105244D01*
X486311Y105341D01*
X486171Y105445D01*
X485997Y105544D01*
X485797Y105625D01*
X485572Y105687D01*
X485474Y105705D01*
X485395Y105707D01*
X485295Y105714D01*
X485182Y105712D01*
X485047Y105713D01*
X484899Y105706D01*
X485154Y106506D01*
X485209Y106496D01*
X485250Y106477D01*
X485392Y106452D01*
X485517Y106453D01*
X485662Y106449D01*
X485832Y106453D01*
X486028Y106474D01*
X486216Y106519D01*
X486419Y106585D01*
X486430Y106583D01*
X486443Y106592D01*
X486506Y106626D01*
X486596Y106689D01*
X486701Y106771D01*
X486814Y106898D01*
X486919Y107048D01*
X487007Y107224D01*
X487048Y107330D01*
X487070Y107450D01*
X487072Y107461D01*
X487074Y107472D01*
X487085Y107537D01*
X487079Y107629D01*
X487079Y107753D01*
X487058Y107892D01*
X487029Y108043D01*
X486967Y108201D01*
X486870Y108354D01*
X486861Y108366D01*
X486814Y108420D01*
X486747Y108488D01*
X486660Y108571D01*
X486539Y108649D01*
X486396Y108731D01*
X486229Y108806D01*
X486034Y108852D01*
X485947Y108868D01*
X485844Y108863D01*
X485709Y108865D01*
X485560Y108846D01*
X485408Y108817D01*
X485239Y108757D01*
X485078Y108673D01*
X485065Y108664D01*
X485011Y108617D01*
X484932Y108552D01*
X484836Y108456D01*
X484734Y108328D01*
X484627Y108167D01*
X484524Y107971D01*
X484438Y107738D01*
X483538Y108068D01*
X483540Y108079D01*
X483557Y108109D01*
X483575Y108151D01*
X483598Y108215D01*
X483633Y108287D01*
X483682Y108369D01*
X483784Y108565D01*
X483937Y108786D01*
X484110Y109003D01*
X484315Y109203D01*
X484560Y109374D01*
X484573Y109383D01*
X484597Y109390D01*
X484633Y109406D01*
X484683Y109431D01*
X484745Y109465D01*
X484829Y109495D01*
X484914Y109525D01*
X485022Y109562D01*
X485256Y109611D01*
X485523Y109653D01*
X485828Y109655D01*
X485985Y109650D01*
D02*
G37*
G36*
X474756Y111616D02*
X473409Y104054D01*
X472403Y104233D01*
X473750Y111795D01*
X474756Y111616D01*
D02*
G37*
G36*
X414628Y187011D02*
X414738Y186996D01*
X414814Y186975D01*
X414911Y186951D01*
X415031Y186924D01*
X415150Y186897D01*
X415289Y186845D01*
X415577Y186739D01*
X415894Y186596D01*
X416050Y186508D01*
X416194Y186410D01*
X416335Y186291D01*
X416476Y186171D01*
X416485Y186159D01*
X416506Y186145D01*
X416545Y186106D01*
X416593Y186043D01*
X416641Y185981D01*
X416708Y185894D01*
X416773Y185795D01*
X416849Y185696D01*
X416922Y185574D01*
X416993Y185430D01*
X417074Y185285D01*
X417143Y185130D01*
X417198Y184955D01*
X417264Y184778D01*
X417307Y184593D01*
X417346Y184386D01*
X416325Y184287D01*
X416327Y184298D01*
X416319Y184322D01*
X416303Y184369D01*
X416288Y184427D01*
X416275Y184496D01*
X416253Y184588D01*
X416189Y184776D01*
X416105Y184989D01*
X416000Y185204D01*
X415860Y185413D01*
X415706Y185602D01*
X415686Y185627D01*
X415626Y185680D01*
X415524Y185749D01*
X415391Y185846D01*
X415213Y185937D01*
X415013Y186030D01*
X414765Y186108D01*
X414492Y186156D01*
X414404Y186168D01*
X414347Y186164D01*
X414270Y186174D01*
X414181Y186175D01*
X413967Y186170D01*
X413730Y186157D01*
X413478Y186112D01*
X413210Y186036D01*
X412960Y185924D01*
X412949Y185925D01*
X412935Y185905D01*
X412851Y185860D01*
X412740Y185785D01*
X412602Y185669D01*
X412436Y185523D01*
X412279Y185354D01*
X412128Y185139D01*
X411984Y184900D01*
X411982Y184889D01*
X411968Y184869D01*
X411953Y184837D01*
X411935Y184784D01*
X411904Y184721D01*
X411871Y184647D01*
X411814Y184464D01*
X411740Y184250D01*
X411664Y184014D01*
X411607Y183752D01*
X411558Y183468D01*
X411556Y183457D01*
X411552Y183424D01*
X411544Y183369D01*
X411535Y183303D01*
X411536Y183224D01*
X411523Y183125D01*
X411519Y183014D01*
X411514Y182891D01*
X411512Y182623D01*
X411529Y182330D01*
X411557Y182035D01*
X411606Y181737D01*
X411605Y181726D01*
X411613Y181702D01*
X411631Y181666D01*
X411645Y181609D01*
X411694Y181468D01*
X411772Y181300D01*
X411870Y181108D01*
X411999Y180901D01*
X412153Y180712D01*
X412341Y180530D01*
X412352Y180529D01*
X412373Y180515D01*
X412403Y180488D01*
X412444Y180460D01*
X412496Y180431D01*
X412558Y180389D01*
X412703Y180303D01*
X412892Y180210D01*
X413105Y180126D01*
X413341Y180050D01*
X413593Y180005D01*
X413670Y179995D01*
X413737Y179997D01*
X413814Y179986D01*
X413893Y179987D01*
X414096Y180005D01*
X414335Y180029D01*
X414578Y180086D01*
X414836Y180175D01*
X414966Y180225D01*
X415088Y180298D01*
X415100Y180308D01*
X415112Y180317D01*
X415150Y180346D01*
X415198Y180373D01*
X415250Y180422D01*
X415313Y180481D01*
X415388Y180538D01*
X415455Y180619D01*
X415534Y180709D01*
X415626Y180809D01*
X415707Y180910D01*
X415790Y181033D01*
X415864Y181169D01*
X415940Y181315D01*
X416017Y181473D01*
X416085Y181643D01*
X417063Y181255D01*
X417061Y181244D01*
X417045Y181202D01*
X417014Y181139D01*
X416969Y181055D01*
X416923Y180960D01*
X416863Y180845D01*
X416790Y180721D01*
X416705Y180586D01*
X416510Y180299D01*
X416271Y180017D01*
X416129Y179879D01*
X415988Y179741D01*
X415838Y179627D01*
X415666Y179515D01*
X415654Y179506D01*
X415629Y179487D01*
X415571Y179472D01*
X415510Y179436D01*
X415415Y179392D01*
X415319Y179349D01*
X415191Y179310D01*
X415062Y179271D01*
X414911Y179224D01*
X414749Y179190D01*
X414577Y179157D01*
X414394Y179125D01*
X414201Y179106D01*
X414000Y179111D01*
X413788Y179117D01*
X413566Y179135D01*
X413445Y179151D01*
X413359Y179174D01*
X413260Y179187D01*
X413140Y179214D01*
X413011Y179254D01*
X412860Y179296D01*
X412548Y179394D01*
X412230Y179526D01*
X411916Y179691D01*
X411772Y179789D01*
X411630Y179897D01*
X411620Y179910D01*
X411600Y179924D01*
X411560Y179963D01*
X411522Y180012D01*
X411462Y180065D01*
X411394Y180142D01*
X411316Y180230D01*
X411240Y180330D01*
X411165Y180441D01*
X411079Y180553D01*
X410915Y180833D01*
X410767Y181154D01*
X410646Y181507D01*
X410648Y181518D01*
X410630Y181554D01*
X410626Y181610D01*
X410602Y181681D01*
X410592Y181771D01*
X410574Y181886D01*
X410546Y182013D01*
X410531Y182149D01*
X410517Y182297D01*
X410495Y182467D01*
X410485Y182816D01*
X410492Y183207D01*
X410523Y183606D01*
X410525Y183617D01*
X410531Y183661D01*
X410539Y183727D01*
X410561Y183803D01*
X410575Y183913D01*
X410601Y184021D01*
X410631Y184163D01*
X410672Y184303D01*
X410770Y184614D01*
X410894Y184956D01*
X411051Y185294D01*
X411250Y185614D01*
X411263Y185624D01*
X411278Y185655D01*
X411306Y185696D01*
X411357Y185745D01*
X411412Y185817D01*
X411479Y185897D01*
X411648Y186076D01*
X411864Y186271D01*
X412114Y186462D01*
X412396Y186648D01*
X412718Y186796D01*
X412731Y186805D01*
X412765Y186812D01*
X412812Y186828D01*
X412872Y186854D01*
X412964Y186875D01*
X413056Y186896D01*
X413172Y186926D01*
X413299Y186953D01*
X413437Y186980D01*
X413586Y187005D01*
X413903Y187029D01*
X414262Y187038D01*
X414628Y187011D01*
D02*
G37*
G36*
X409539Y187556D02*
X408523Y179942D01*
X407510Y180077D01*
X408526Y187691D01*
X409539Y187556D01*
D02*
G37*
G36*
X422543Y185821D02*
X421886Y180892D01*
X422920Y180754D01*
X422805Y179895D01*
X421771Y180033D01*
X421527Y178207D01*
X420592Y178332D01*
X420836Y180158D01*
X417524Y180600D01*
X417639Y181458D01*
X421784Y185922D01*
X422543Y185821D01*
D02*
G37*
G36*
X574483Y87964D02*
X574840Y87920D01*
X575198Y87840D01*
X575305Y87810D01*
X575377Y87778D01*
X575470Y87739D01*
X575584Y87695D01*
X575698Y87651D01*
X575828Y87579D01*
X576098Y87432D01*
X576390Y87244D01*
X576532Y87135D01*
X576660Y87017D01*
X576782Y86878D01*
X576903Y86739D01*
X576911Y86726D01*
X576929Y86709D01*
X576963Y86664D01*
X577001Y86596D01*
X577039Y86527D01*
X577092Y86431D01*
X577142Y86324D01*
X577203Y86215D01*
X577258Y86083D01*
X577307Y85931D01*
X577366Y85775D01*
X577412Y85612D01*
X577440Y85431D01*
X577480Y85246D01*
X577495Y85057D01*
X577504Y84847D01*
X576479Y84898D01*
X576483Y84909D01*
X576478Y84933D01*
X576469Y84982D01*
X576463Y85041D01*
X576460Y85111D01*
X576452Y85206D01*
X576416Y85401D01*
X576364Y85624D01*
X576291Y85852D01*
X576183Y86080D01*
X576058Y86289D01*
X576043Y86316D01*
X575991Y86377D01*
X575900Y86461D01*
X575783Y86576D01*
X575620Y86692D01*
X575435Y86814D01*
X575202Y86927D01*
X574938Y87014D01*
X574853Y87038D01*
X574797Y87043D01*
X574722Y87065D01*
X574634Y87078D01*
X574422Y87105D01*
X574185Y87126D01*
X573929Y87119D01*
X573653Y87082D01*
X573389Y87008D01*
X573379Y87011D01*
X573362Y86993D01*
X573272Y86961D01*
X573151Y86903D01*
X572997Y86809D01*
X572813Y86688D01*
X572633Y86544D01*
X572451Y86353D01*
X572274Y86138D01*
X572271Y86128D01*
X572254Y86110D01*
X572234Y86081D01*
X572208Y86030D01*
X572169Y85972D01*
X572126Y85904D01*
X572042Y85731D01*
X571938Y85530D01*
X571828Y85308D01*
X571733Y85058D01*
X571643Y84783D01*
X571640Y84773D01*
X571631Y84741D01*
X571615Y84688D01*
X571597Y84623D01*
X571586Y84546D01*
X571559Y84450D01*
X571539Y84340D01*
X571516Y84220D01*
X571474Y83954D01*
X571448Y83662D01*
X571433Y83366D01*
X571439Y83064D01*
X571436Y83053D01*
X571440Y83029D01*
X571452Y82991D01*
X571458Y82931D01*
X571486Y82785D01*
X571539Y82608D01*
X571607Y82404D01*
X571705Y82179D01*
X571829Y81970D01*
X571989Y81763D01*
X572000Y81760D01*
X572018Y81743D01*
X572044Y81713D01*
X572081Y81679D01*
X572128Y81642D01*
X572183Y81592D01*
X572314Y81485D01*
X572487Y81366D01*
X572686Y81251D01*
X572908Y81141D01*
X573150Y81060D01*
X573225Y81039D01*
X573292Y81031D01*
X573367Y81010D01*
X573445Y80999D01*
X573649Y80987D01*
X573888Y80976D01*
X574137Y80997D01*
X574405Y81047D01*
X574541Y81077D01*
X574672Y81132D01*
X574686Y81140D01*
X574700Y81147D01*
X574741Y81170D01*
X574793Y81190D01*
X574851Y81231D01*
X574922Y81280D01*
X575005Y81325D01*
X575083Y81396D01*
X575174Y81473D01*
X575279Y81559D01*
X575374Y81647D01*
X575475Y81756D01*
X575568Y81880D01*
X575664Y82014D01*
X575763Y82159D01*
X575855Y82317D01*
X576766Y81790D01*
X576763Y81780D01*
X576740Y81740D01*
X576701Y81682D01*
X576644Y81606D01*
X576584Y81519D01*
X576508Y81414D01*
X576418Y81301D01*
X576314Y81181D01*
X576079Y80925D01*
X575802Y80681D01*
X575641Y80566D01*
X575481Y80450D01*
X575316Y80358D01*
X575130Y80273D01*
X575117Y80266D01*
X575089Y80251D01*
X575030Y80244D01*
X574964Y80217D01*
X574863Y80188D01*
X574763Y80159D01*
X574630Y80140D01*
X574497Y80120D01*
X574340Y80096D01*
X574176Y80085D01*
X574000Y80078D01*
X573814Y80073D01*
X573621Y80083D01*
X573422Y80116D01*
X573214Y80153D01*
X572997Y80204D01*
X572880Y80237D01*
X572798Y80273D01*
X572701Y80300D01*
X572587Y80344D01*
X572465Y80402D01*
X572322Y80467D01*
X572028Y80609D01*
X571732Y80786D01*
X571446Y80995D01*
X571318Y81112D01*
X571193Y81241D01*
X571185Y81254D01*
X571167Y81271D01*
X571133Y81315D01*
X571103Y81370D01*
X571051Y81431D01*
X570995Y81517D01*
X570931Y81616D01*
X570870Y81726D01*
X570812Y81846D01*
X570744Y81970D01*
X570622Y82270D01*
X570523Y82611D01*
X570455Y82976D01*
X570458Y82987D01*
X570446Y83025D01*
X570451Y83082D01*
X570437Y83155D01*
X570440Y83246D01*
X570439Y83362D01*
X570430Y83492D01*
X570434Y83629D01*
X570442Y83777D01*
X570445Y83949D01*
X570487Y84295D01*
X570551Y84681D01*
X570640Y85071D01*
X570643Y85082D01*
X570655Y85125D01*
X570674Y85189D01*
X570706Y85260D01*
X570736Y85367D01*
X570778Y85471D01*
X570828Y85606D01*
X570889Y85739D01*
X571031Y86033D01*
X571204Y86353D01*
X571409Y86664D01*
X571653Y86952D01*
X571666Y86959D01*
X571686Y86988D01*
X571720Y87025D01*
X571778Y87066D01*
X571842Y87128D01*
X571920Y87198D01*
X572114Y87351D01*
X572356Y87512D01*
X572631Y87664D01*
X572937Y87807D01*
X573277Y87906D01*
X573291Y87914D01*
X573326Y87915D01*
X573375Y87924D01*
X573438Y87941D01*
X573532Y87949D01*
X573627Y87956D01*
X573745Y87968D01*
X573875Y87977D01*
X574015Y87983D01*
X574166Y87986D01*
X574483Y87964D01*
D02*
G37*
G36*
X582469Y85651D02*
X580343Y78236D01*
X579436Y78496D01*
X581091Y84268D01*
X581077Y84261D01*
X581012Y84233D01*
X580929Y84188D01*
X580801Y84144D01*
X580656Y84081D01*
X580476Y84017D01*
X580272Y83949D01*
X580046Y83887D01*
X580036Y83890D01*
X580022Y83882D01*
X579945Y83858D01*
X579823Y83835D01*
X579677Y83808D01*
X579506Y83776D01*
X579325Y83747D01*
X579143Y83718D01*
X578965Y83700D01*
X579216Y84575D01*
X579227Y84572D01*
X579254Y84587D01*
X579300Y84586D01*
X579362Y84602D01*
X579436Y84616D01*
X579522Y84637D01*
X579734Y84692D01*
X579981Y84748D01*
X580238Y84836D01*
X580511Y84943D01*
X580787Y85060D01*
X580801Y85068D01*
X580814Y85075D01*
X580855Y85098D01*
X580907Y85118D01*
X581034Y85197D01*
X581199Y85288D01*
X581370Y85401D01*
X581557Y85532D01*
X581724Y85669D01*
X581882Y85820D01*
X582469Y85651D01*
D02*
G37*
G36*
X570243Y89123D02*
X568126Y81739D01*
X567144Y82021D01*
X569261Y89404D01*
X570243Y89123D01*
D02*
G37*
G36*
X517215Y170149D02*
X517573Y170121D01*
X517935Y170058D01*
X518043Y170033D01*
X518116Y170004D01*
X518210Y169971D01*
X518327Y169932D01*
X518443Y169893D01*
X518576Y169827D01*
X518852Y169693D01*
X519153Y169520D01*
X519300Y169417D01*
X519433Y169305D01*
X519562Y169172D01*
X519690Y169039D01*
X519698Y169026D01*
X519717Y169010D01*
X519753Y168967D01*
X519794Y168901D01*
X519835Y168834D01*
X519893Y168740D01*
X519948Y168636D01*
X520014Y168529D01*
X520075Y168401D01*
X520131Y168251D01*
X520197Y168098D01*
X520250Y167937D01*
X520288Y167757D01*
X520336Y167575D01*
X520360Y167387D01*
X520379Y167177D01*
X519353Y167180D01*
X519355Y167191D01*
X519350Y167215D01*
X519338Y167263D01*
X519329Y167322D01*
X519323Y167392D01*
X519311Y167486D01*
X519266Y167680D01*
X519204Y167899D01*
X519120Y168125D01*
X519001Y168347D01*
X518867Y168549D01*
X518850Y168576D01*
X518796Y168635D01*
X518700Y168714D01*
X518578Y168823D01*
X518410Y168931D01*
X518220Y169044D01*
X517981Y169146D01*
X517714Y169221D01*
X517627Y169242D01*
X517571Y169244D01*
X517495Y169261D01*
X517406Y169271D01*
X517193Y169287D01*
X516956Y169298D01*
X516701Y169278D01*
X516427Y169229D01*
X516167Y169142D01*
X516156Y169144D01*
X516140Y169125D01*
X516052Y169089D01*
X515934Y169026D01*
X515785Y168924D01*
X515606Y168796D01*
X515433Y168643D01*
X515260Y168444D01*
X515094Y168221D01*
X515091Y168210D01*
X515075Y168191D01*
X515057Y168161D01*
X515033Y168110D01*
X514996Y168050D01*
X514957Y167980D01*
X514881Y167803D01*
X514787Y167598D01*
X514687Y167370D01*
X514604Y167116D01*
X514527Y166838D01*
X514525Y166827D01*
X514517Y166795D01*
X514504Y166741D01*
X514489Y166676D01*
X514482Y166598D01*
X514459Y166500D01*
X514444Y166390D01*
X514427Y166269D01*
X514398Y166001D01*
X514386Y165708D01*
X514384Y165412D01*
X514404Y165110D01*
X514402Y165100D01*
X514407Y165075D01*
X514421Y165038D01*
X514430Y164979D01*
X514464Y164834D01*
X514526Y164660D01*
X514604Y164459D01*
X514711Y164239D01*
X514846Y164037D01*
X515015Y163837D01*
X515026Y163834D01*
X515045Y163818D01*
X515073Y163789D01*
X515111Y163757D01*
X515160Y163723D01*
X515217Y163675D01*
X515353Y163575D01*
X515532Y163464D01*
X515735Y163359D01*
X515962Y163259D01*
X516208Y163190D01*
X516284Y163172D01*
X516351Y163167D01*
X516427Y163150D01*
X516505Y163142D01*
X516710Y163140D01*
X516949Y163140D01*
X517197Y163173D01*
X517462Y163235D01*
X517597Y163272D01*
X517725Y163333D01*
X517738Y163341D01*
X517752Y163350D01*
X517792Y163374D01*
X517843Y163397D01*
X517899Y163440D01*
X517968Y163492D01*
X518048Y163542D01*
X518122Y163615D01*
X518210Y163697D01*
X518311Y163788D01*
X518402Y163880D01*
X518497Y163995D01*
X518584Y164122D01*
X518674Y164261D01*
X518767Y164410D01*
X518851Y164573D01*
X519786Y164089D01*
X519783Y164078D01*
X519762Y164038D01*
X519725Y163978D01*
X519672Y163899D01*
X519617Y163810D01*
X519546Y163701D01*
X519461Y163584D01*
X519363Y163459D01*
X519140Y163193D01*
X518874Y162936D01*
X518720Y162813D01*
X518565Y162690D01*
X518405Y162591D01*
X518223Y162497D01*
X518210Y162489D01*
X518183Y162472D01*
X518124Y162463D01*
X518060Y162433D01*
X517960Y162399D01*
X517861Y162366D01*
X517730Y162340D01*
X517598Y162314D01*
X517442Y162282D01*
X517278Y162264D01*
X517104Y162248D01*
X516918Y162235D01*
X516724Y162235D01*
X516525Y162260D01*
X516314Y162286D01*
X516096Y162327D01*
X515977Y162355D01*
X515893Y162386D01*
X515796Y162409D01*
X515679Y162448D01*
X515555Y162500D01*
X515409Y162558D01*
X515108Y162686D01*
X514805Y162849D01*
X514509Y163044D01*
X514375Y163155D01*
X514244Y163278D01*
X514236Y163291D01*
X514217Y163307D01*
X514182Y163349D01*
X514149Y163403D01*
X514094Y163461D01*
X514034Y163544D01*
X513965Y163640D01*
X513899Y163747D01*
X513836Y163865D01*
X513762Y163985D01*
X513626Y164279D01*
X513511Y164614D01*
X513426Y164977D01*
X513428Y164988D01*
X513414Y165025D01*
X513416Y165082D01*
X513399Y165154D01*
X513398Y165246D01*
X513391Y165361D01*
X513376Y165490D01*
X513374Y165628D01*
X513375Y165776D01*
X513370Y165948D01*
X513395Y166296D01*
X513442Y166684D01*
X513512Y167078D01*
X513514Y167089D01*
X513525Y167132D01*
X513540Y167197D01*
X513569Y167270D01*
X513594Y167378D01*
X513630Y167483D01*
X513675Y167621D01*
X513729Y167756D01*
X513857Y168057D01*
X514015Y168385D01*
X514204Y168705D01*
X514435Y169004D01*
X514448Y169012D01*
X514467Y169042D01*
X514498Y169080D01*
X514554Y169124D01*
X514616Y169189D01*
X514690Y169263D01*
X514876Y169424D01*
X515111Y169597D01*
X515378Y169762D01*
X515678Y169919D01*
X516013Y170034D01*
X516026Y170042D01*
X516061Y170045D01*
X516109Y170057D01*
X516171Y170076D01*
X516265Y170088D01*
X516359Y170100D01*
X516477Y170118D01*
X516606Y170133D01*
X516746Y170146D01*
X516897Y170156D01*
X517215Y170149D01*
D02*
G37*
G36*
X512924Y171106D02*
X511157Y163631D01*
X510163Y163866D01*
X511931Y171341D01*
X512924Y171106D01*
D02*
G37*
G36*
X523754Y168523D02*
X523934Y168515D01*
X524120Y168482D01*
X524317Y168447D01*
X524425Y168422D01*
X524498Y168393D01*
X524582Y168362D01*
X524688Y168325D01*
X524801Y168276D01*
X524915Y168226D01*
X525178Y168084D01*
X525434Y167910D01*
X525559Y167812D01*
X525681Y167703D01*
X525788Y167575D01*
X525881Y167439D01*
X525889Y167425D01*
X525908Y167409D01*
X525920Y167361D01*
X525953Y167308D01*
X525994Y167241D01*
X526030Y167153D01*
X526066Y167064D01*
X526108Y166952D01*
X526168Y166721D01*
X526214Y166436D01*
X526227Y166296D01*
X526213Y166140D01*
X526199Y165984D01*
X526171Y165819D01*
X526166Y165797D01*
X526153Y165743D01*
X526122Y165660D01*
X526083Y165543D01*
X526031Y165419D01*
X525952Y165278D01*
X525870Y165126D01*
X525767Y164979D01*
X525751Y164960D01*
X525717Y164911D01*
X525653Y164835D01*
X525560Y164732D01*
X525443Y164622D01*
X525297Y164486D01*
X525129Y164354D01*
X524935Y164207D01*
X524908Y164190D01*
X524838Y164138D01*
X524772Y164097D01*
X524705Y164056D01*
X524625Y164006D01*
X524518Y163940D01*
X524411Y163874D01*
X524280Y163802D01*
X524147Y163720D01*
X523989Y163632D01*
X523820Y163546D01*
X523636Y163441D01*
X523430Y163342D01*
X523221Y163231D01*
X523208Y163223D01*
X523181Y163207D01*
X523130Y163185D01*
X523066Y163154D01*
X522986Y163105D01*
X522895Y163058D01*
X522689Y162958D01*
X522467Y162840D01*
X522256Y162718D01*
X522071Y162614D01*
X521994Y162575D01*
X521927Y162534D01*
X521914Y162525D01*
X521874Y162501D01*
X521820Y162468D01*
X521751Y162416D01*
X521679Y162353D01*
X521596Y162292D01*
X521423Y162139D01*
X525107Y161269D01*
X524897Y160383D01*
X519939Y161555D01*
X519942Y161566D01*
X519952Y161609D01*
X519967Y161674D01*
X519999Y161758D01*
X520033Y161852D01*
X520080Y161955D01*
X520127Y162058D01*
X520198Y162167D01*
X520201Y162178D01*
X520214Y162186D01*
X520251Y162246D01*
X520317Y162333D01*
X520412Y162447D01*
X520535Y162578D01*
X520684Y162725D01*
X520843Y162870D01*
X521038Y163018D01*
X521040Y163028D01*
X521065Y163034D01*
X521134Y163086D01*
X521254Y163160D01*
X521428Y163268D01*
X521628Y163391D01*
X521879Y163537D01*
X522179Y163695D01*
X522503Y163858D01*
X522516Y163866D01*
X522567Y163888D01*
X522644Y163927D01*
X522735Y163974D01*
X522853Y164037D01*
X522995Y164106D01*
X523139Y164186D01*
X523307Y164272D01*
X523639Y164467D01*
X523970Y164663D01*
X524131Y164762D01*
X524280Y164863D01*
X524416Y164956D01*
X524531Y165055D01*
X524533Y165066D01*
X524557Y165071D01*
X524586Y165099D01*
X524618Y165137D01*
X524722Y165238D01*
X524842Y165358D01*
X524958Y165513D01*
X525077Y165678D01*
X525169Y165873D01*
X525237Y166063D01*
X525239Y166074D01*
X525242Y166084D01*
X525246Y166152D01*
X525261Y166262D01*
X525257Y166389D01*
X525249Y166550D01*
X525209Y166719D01*
X525148Y166894D01*
X525054Y167075D01*
X525037Y167102D01*
X524994Y167158D01*
X524931Y167230D01*
X524830Y167334D01*
X524694Y167434D01*
X524536Y167540D01*
X524341Y167632D01*
X524117Y167696D01*
X524052Y167711D01*
X524006Y167711D01*
X523874Y167731D01*
X523715Y167734D01*
X523543Y167729D01*
X523342Y167697D01*
X523146Y167640D01*
X522953Y167549D01*
X522926Y167533D01*
X522870Y167489D01*
X522785Y167418D01*
X522690Y167304D01*
X522578Y167170D01*
X522468Y166991D01*
X522373Y166785D01*
X522293Y166542D01*
X521376Y166861D01*
X521379Y166872D01*
X521397Y166902D01*
X521410Y166956D01*
X521439Y167029D01*
X521481Y167110D01*
X521525Y167202D01*
X521586Y167313D01*
X521646Y167425D01*
X521794Y167663D01*
X521985Y167892D01*
X522091Y168004D01*
X522219Y168111D01*
X522344Y168206D01*
X522478Y168289D01*
X522491Y168297D01*
X522515Y168303D01*
X522555Y168328D01*
X522617Y168347D01*
X522692Y168375D01*
X522778Y168400D01*
X522877Y168434D01*
X522998Y168463D01*
X523130Y168488D01*
X523272Y168512D01*
X523423Y168522D01*
X523584Y168529D01*
X523754Y168523D01*
D02*
G37*
G36*
X182409Y103785D02*
X182509Y103773D01*
X182631Y103762D01*
X182753Y103751D01*
X182897Y103718D01*
X183197Y103651D01*
X183530Y103552D01*
X183697Y103485D01*
X183852Y103407D01*
X184007Y103307D01*
X184163Y103207D01*
X184174Y103196D01*
X184196Y103185D01*
X184240Y103152D01*
X184296Y103096D01*
X184352Y103041D01*
X184429Y102963D01*
X184507Y102874D01*
X184596Y102786D01*
X184685Y102675D01*
X184773Y102542D01*
X184873Y102408D01*
X184962Y102264D01*
X185040Y102098D01*
X185128Y101931D01*
X185195Y101753D01*
X185262Y101554D01*
X184263Y101320D01*
Y101332D01*
X184252Y101354D01*
X184229Y101398D01*
X184207Y101454D01*
X184185Y101520D01*
X184152Y101609D01*
X184063Y101787D01*
X183952Y101987D01*
X183819Y102186D01*
X183652Y102375D01*
X183475Y102542D01*
X183452Y102564D01*
X183386Y102608D01*
X183275Y102663D01*
X183130Y102741D01*
X182942Y102808D01*
X182731Y102874D01*
X182476Y102919D01*
X182198Y102930D01*
X182109D01*
X182054Y102919D01*
X181976D01*
X181887Y102908D01*
X181676Y102874D01*
X181443Y102830D01*
X181199Y102752D01*
X180944Y102641D01*
X180711Y102497D01*
X180700D01*
X180688Y102475D01*
X180611Y102419D01*
X180511Y102331D01*
X180389Y102197D01*
X180245Y102031D01*
X180111Y101842D01*
X179989Y101609D01*
X179878Y101354D01*
Y101343D01*
X179867Y101320D01*
X179856Y101287D01*
X179845Y101232D01*
X179823Y101165D01*
X179801Y101087D01*
X179767Y100899D01*
X179723Y100677D01*
X179678Y100433D01*
X179656Y100166D01*
X179645Y99878D01*
Y99866D01*
Y99833D01*
Y99778D01*
Y99711D01*
X179656Y99633D01*
Y99533D01*
X179667Y99422D01*
X179678Y99300D01*
X179712Y99034D01*
X179767Y98745D01*
X179834Y98457D01*
X179923Y98168D01*
Y98157D01*
X179934Y98135D01*
X179956Y98102D01*
X179978Y98046D01*
X180045Y97913D01*
X180145Y97757D01*
X180267Y97580D01*
X180422Y97391D01*
X180600Y97225D01*
X180811Y97069D01*
X180822D01*
X180844Y97058D01*
X180877Y97036D01*
X180922Y97014D01*
X180977Y96992D01*
X181044Y96958D01*
X181199Y96892D01*
X181399Y96825D01*
X181621Y96770D01*
X181865Y96725D01*
X182120Y96714D01*
X182198D01*
X182265Y96725D01*
X182342D01*
X182420Y96736D01*
X182620Y96781D01*
X182853Y96836D01*
X183086Y96925D01*
X183330Y97047D01*
X183452Y97114D01*
X183563Y97202D01*
X183575Y97213D01*
X183586Y97225D01*
X183619Y97258D01*
X183663Y97291D01*
X183708Y97347D01*
X183763Y97413D01*
X183830Y97480D01*
X183885Y97569D01*
X183952Y97669D01*
X184030Y97780D01*
X184096Y97891D01*
X184163Y98024D01*
X184218Y98168D01*
X184274Y98323D01*
X184329Y98490D01*
X184374Y98668D01*
X185395Y98412D01*
Y98401D01*
X185384Y98357D01*
X185362Y98290D01*
X185328Y98201D01*
X185295Y98102D01*
X185251Y97979D01*
X185195Y97846D01*
X185128Y97702D01*
X184973Y97391D01*
X184773Y97080D01*
X184651Y96925D01*
X184529Y96770D01*
X184396Y96636D01*
X184240Y96503D01*
X184229Y96492D01*
X184207Y96470D01*
X184152Y96448D01*
X184096Y96403D01*
X184007Y96348D01*
X183919Y96292D01*
X183797Y96237D01*
X183674Y96181D01*
X183530Y96115D01*
X183375Y96059D01*
X183208Y96004D01*
X183031Y95948D01*
X182842Y95904D01*
X182642Y95882D01*
X182431Y95859D01*
X182209Y95848D01*
X182087D01*
X181998Y95859D01*
X181898D01*
X181776Y95871D01*
X181643Y95893D01*
X181488Y95915D01*
X181166Y95970D01*
X180833Y96059D01*
X180500Y96181D01*
X180344Y96259D01*
X180189Y96348D01*
X180178Y96359D01*
X180156Y96370D01*
X180111Y96403D01*
X180067Y96448D01*
X180000Y96492D01*
X179923Y96559D01*
X179834Y96636D01*
X179745Y96725D01*
X179656Y96825D01*
X179556Y96925D01*
X179357Y97180D01*
X179168Y97480D01*
X179001Y97813D01*
Y97824D01*
X178979Y97857D01*
X178968Y97913D01*
X178935Y97979D01*
X178913Y98068D01*
X178879Y98179D01*
X178835Y98301D01*
X178802Y98434D01*
X178768Y98579D01*
X178724Y98745D01*
X178668Y99089D01*
X178624Y99478D01*
X178602Y99878D01*
Y99889D01*
Y99933D01*
Y100000D01*
X178613Y100077D01*
Y100188D01*
X178624Y100299D01*
X178635Y100444D01*
X178657Y100588D01*
X178713Y100910D01*
X178790Y101265D01*
X178902Y101620D01*
X179057Y101964D01*
X179068Y101975D01*
X179079Y102009D01*
X179101Y102053D01*
X179146Y102109D01*
X179190Y102186D01*
X179246Y102275D01*
X179390Y102475D01*
X179579Y102697D01*
X179801Y102919D01*
X180056Y103141D01*
X180355Y103329D01*
X180367Y103341D01*
X180400Y103352D01*
X180444Y103374D01*
X180500Y103407D01*
X180589Y103441D01*
X180677Y103474D01*
X180788Y103518D01*
X180910Y103563D01*
X181044Y103607D01*
X181188Y103651D01*
X181499Y103718D01*
X181854Y103773D01*
X182220Y103796D01*
X182331D01*
X182409Y103785D01*
D02*
G37*
G36*
X188991Y103685D02*
X189080Y103674D01*
X189191Y103663D01*
X189313Y103640D01*
X189435Y103618D01*
X189724Y103540D01*
X190012Y103429D01*
X190157Y103363D01*
X190301Y103285D01*
X190434Y103185D01*
X190556Y103074D01*
X190567Y103063D01*
X190590Y103052D01*
X190612Y103008D01*
X190656Y102963D01*
X190712Y102908D01*
X190767Y102830D01*
X190823Y102752D01*
X190889Y102652D01*
X191000Y102442D01*
X191111Y102175D01*
X191156Y102042D01*
X191178Y101887D01*
X191200Y101731D01*
X191211Y101565D01*
Y101543D01*
Y101487D01*
X191200Y101398D01*
X191189Y101276D01*
X191167Y101143D01*
X191122Y100988D01*
X191078Y100821D01*
X191011Y100654D01*
X191000Y100632D01*
X190978Y100577D01*
X190934Y100488D01*
X190867Y100366D01*
X190778Y100233D01*
X190667Y100066D01*
X190534Y99900D01*
X190379Y99711D01*
X190357Y99689D01*
X190301Y99622D01*
X190245Y99567D01*
X190190Y99511D01*
X190123Y99445D01*
X190035Y99356D01*
X189946Y99267D01*
X189835Y99167D01*
X189724Y99056D01*
X189591Y98934D01*
X189446Y98812D01*
X189291Y98668D01*
X189113Y98523D01*
X188936Y98368D01*
X188925Y98357D01*
X188902Y98335D01*
X188858Y98301D01*
X188803Y98257D01*
X188736Y98190D01*
X188658Y98124D01*
X188481Y97979D01*
X188292Y97813D01*
X188114Y97646D01*
X187959Y97502D01*
X187892Y97447D01*
X187837Y97391D01*
X187826Y97380D01*
X187792Y97347D01*
X187748Y97302D01*
X187693Y97236D01*
X187637Y97158D01*
X187570Y97080D01*
X187437Y96892D01*
X191222D01*
Y95982D01*
X186127D01*
Y95993D01*
Y96037D01*
Y96104D01*
X186138Y96192D01*
X186150Y96292D01*
X186172Y96403D01*
X186194Y96514D01*
X186238Y96636D01*
Y96648D01*
X186250Y96659D01*
X186272Y96725D01*
X186316Y96825D01*
X186383Y96958D01*
X186472Y97114D01*
X186583Y97291D01*
X186705Y97469D01*
X186860Y97657D01*
Y97669D01*
X186882Y97680D01*
X186938Y97746D01*
X187038Y97846D01*
X187182Y97991D01*
X187348Y98157D01*
X187559Y98357D01*
X187815Y98579D01*
X188092Y98812D01*
X188103Y98823D01*
X188148Y98856D01*
X188214Y98912D01*
X188292Y98978D01*
X188392Y99067D01*
X188514Y99167D01*
X188636Y99278D01*
X188780Y99400D01*
X189058Y99667D01*
X189335Y99933D01*
X189468Y100066D01*
X189591Y100199D01*
X189702Y100322D01*
X189790Y100444D01*
Y100455D01*
X189813Y100466D01*
X189835Y100499D01*
X189857Y100543D01*
X189935Y100666D01*
X190023Y100810D01*
X190101Y100988D01*
X190179Y101176D01*
X190223Y101387D01*
X190245Y101587D01*
Y101598D01*
Y101609D01*
X190234Y101676D01*
X190223Y101787D01*
X190190Y101909D01*
X190146Y102064D01*
X190068Y102220D01*
X189968Y102375D01*
X189835Y102530D01*
X189813Y102553D01*
X189757Y102597D01*
X189679Y102652D01*
X189557Y102730D01*
X189402Y102797D01*
X189224Y102863D01*
X189013Y102908D01*
X188780Y102919D01*
X188714D01*
X188669Y102908D01*
X188536Y102897D01*
X188381Y102863D01*
X188214Y102819D01*
X188025Y102741D01*
X187848Y102641D01*
X187681Y102508D01*
X187659Y102486D01*
X187615Y102430D01*
X187548Y102342D01*
X187482Y102208D01*
X187404Y102053D01*
X187337Y101853D01*
X187293Y101631D01*
X187271Y101376D01*
X186305Y101476D01*
Y101487D01*
X186316Y101520D01*
Y101576D01*
X186327Y101653D01*
X186349Y101742D01*
X186372Y101842D01*
X186405Y101964D01*
X186438Y102086D01*
X186527Y102353D01*
X186660Y102619D01*
X186738Y102752D01*
X186838Y102886D01*
X186938Y103008D01*
X187049Y103119D01*
X187060Y103130D01*
X187082Y103141D01*
X187115Y103174D01*
X187171Y103207D01*
X187237Y103252D01*
X187315Y103296D01*
X187404Y103352D01*
X187515Y103407D01*
X187637Y103463D01*
X187770Y103518D01*
X187915Y103563D01*
X188070Y103607D01*
X188236Y103640D01*
X188414Y103674D01*
X188603Y103685D01*
X188803Y103696D01*
X188913D01*
X188991Y103685D01*
D02*
G37*
G36*
X426700Y103785D02*
X426800Y103773D01*
X426922Y103762D01*
X427044Y103751D01*
X427188Y103718D01*
X427488Y103651D01*
X427821Y103552D01*
X427987Y103485D01*
X428143Y103407D01*
X428298Y103307D01*
X428454Y103207D01*
X428465Y103196D01*
X428487Y103185D01*
X428531Y103152D01*
X428587Y103096D01*
X428642Y103041D01*
X428720Y102963D01*
X428798Y102874D01*
X428886Y102786D01*
X428975Y102675D01*
X429064Y102542D01*
X429164Y102408D01*
X429253Y102264D01*
X429330Y102098D01*
X429419Y101931D01*
X429486Y101753D01*
X429552Y101554D01*
X428554Y101320D01*
Y101332D01*
X428542Y101354D01*
X428520Y101398D01*
X428498Y101454D01*
X428476Y101520D01*
X428442Y101609D01*
X428354Y101787D01*
X428243Y101987D01*
X428110Y102186D01*
X427943Y102375D01*
X427765Y102542D01*
X427743Y102564D01*
X427677Y102608D01*
X427566Y102663D01*
X427421Y102741D01*
X427233Y102808D01*
X427022Y102874D01*
X426766Y102919D01*
X426489Y102930D01*
X426400D01*
X426345Y102919D01*
X426267D01*
X426178Y102908D01*
X425967Y102874D01*
X425734Y102830D01*
X425490Y102752D01*
X425235Y102641D01*
X425002Y102497D01*
X424991D01*
X424979Y102475D01*
X424902Y102419D01*
X424802Y102331D01*
X424680Y102197D01*
X424535Y102031D01*
X424402Y101842D01*
X424280Y101609D01*
X424169Y101354D01*
Y101343D01*
X424158Y101320D01*
X424147Y101287D01*
X424136Y101232D01*
X424114Y101165D01*
X424091Y101087D01*
X424058Y100899D01*
X424014Y100677D01*
X423969Y100433D01*
X423947Y100166D01*
X423936Y99878D01*
Y99866D01*
Y99833D01*
Y99778D01*
Y99711D01*
X423947Y99633D01*
Y99533D01*
X423958Y99422D01*
X423969Y99300D01*
X424003Y99034D01*
X424058Y98745D01*
X424125Y98457D01*
X424213Y98168D01*
Y98157D01*
X424225Y98135D01*
X424247Y98102D01*
X424269Y98046D01*
X424336Y97913D01*
X424436Y97757D01*
X424558Y97580D01*
X424713Y97391D01*
X424891Y97225D01*
X425102Y97069D01*
X425113D01*
X425135Y97058D01*
X425168Y97036D01*
X425213Y97014D01*
X425268Y96992D01*
X425335Y96958D01*
X425490Y96892D01*
X425690Y96825D01*
X425912Y96770D01*
X426156Y96725D01*
X426411Y96714D01*
X426489D01*
X426555Y96725D01*
X426633D01*
X426711Y96736D01*
X426911Y96781D01*
X427144Y96836D01*
X427377Y96925D01*
X427621Y97047D01*
X427743Y97114D01*
X427854Y97202D01*
X427865Y97213D01*
X427876Y97225D01*
X427910Y97258D01*
X427954Y97291D01*
X427999Y97347D01*
X428054Y97413D01*
X428121Y97480D01*
X428176Y97569D01*
X428243Y97669D01*
X428320Y97780D01*
X428387Y97891D01*
X428454Y98024D01*
X428509Y98168D01*
X428565Y98323D01*
X428620Y98490D01*
X428665Y98668D01*
X429686Y98412D01*
Y98401D01*
X429675Y98357D01*
X429652Y98290D01*
X429619Y98201D01*
X429586Y98102D01*
X429541Y97979D01*
X429486Y97846D01*
X429419Y97702D01*
X429264Y97391D01*
X429064Y97080D01*
X428942Y96925D01*
X428820Y96770D01*
X428687Y96636D01*
X428531Y96503D01*
X428520Y96492D01*
X428498Y96470D01*
X428442Y96448D01*
X428387Y96403D01*
X428298Y96348D01*
X428209Y96292D01*
X428087Y96237D01*
X427965Y96181D01*
X427821Y96115D01*
X427665Y96059D01*
X427499Y96004D01*
X427321Y95948D01*
X427133Y95904D01*
X426933Y95882D01*
X426722Y95859D01*
X426500Y95848D01*
X426378D01*
X426289Y95859D01*
X426189D01*
X426067Y95871D01*
X425934Y95893D01*
X425779Y95915D01*
X425457Y95970D01*
X425124Y96059D01*
X424791Y96181D01*
X424635Y96259D01*
X424480Y96348D01*
X424469Y96359D01*
X424447Y96370D01*
X424402Y96403D01*
X424358Y96448D01*
X424291Y96492D01*
X424213Y96559D01*
X424125Y96636D01*
X424036Y96725D01*
X423947Y96825D01*
X423847Y96925D01*
X423647Y97180D01*
X423459Y97480D01*
X423292Y97813D01*
Y97824D01*
X423270Y97857D01*
X423259Y97913D01*
X423226Y97979D01*
X423203Y98068D01*
X423170Y98179D01*
X423126Y98301D01*
X423092Y98434D01*
X423059Y98579D01*
X423015Y98745D01*
X422959Y99089D01*
X422915Y99478D01*
X422893Y99878D01*
Y99889D01*
Y99933D01*
Y100000D01*
X422904Y100077D01*
Y100188D01*
X422915Y100299D01*
X422926Y100444D01*
X422948Y100588D01*
X423004Y100910D01*
X423081Y101265D01*
X423192Y101620D01*
X423348Y101964D01*
X423359Y101975D01*
X423370Y102009D01*
X423392Y102053D01*
X423437Y102109D01*
X423481Y102186D01*
X423536Y102275D01*
X423681Y102475D01*
X423869Y102697D01*
X424091Y102919D01*
X424347Y103141D01*
X424646Y103329D01*
X424658Y103341D01*
X424691Y103352D01*
X424735Y103374D01*
X424791Y103407D01*
X424879Y103441D01*
X424968Y103474D01*
X425079Y103518D01*
X425201Y103563D01*
X425335Y103607D01*
X425479Y103651D01*
X425790Y103718D01*
X426145Y103773D01*
X426511Y103796D01*
X426622D01*
X426700Y103785D01*
D02*
G37*
G36*
X434103Y95982D02*
X433160D01*
Y101987D01*
X433149Y101975D01*
X433093Y101931D01*
X433027Y101864D01*
X432916Y101787D01*
X432794Y101687D01*
X432638Y101576D01*
X432461Y101454D01*
X432261Y101332D01*
X432250D01*
X432239Y101320D01*
X432172Y101276D01*
X432061Y101221D01*
X431928Y101154D01*
X431772Y101076D01*
X431606Y100999D01*
X431439Y100921D01*
X431273Y100854D01*
Y101764D01*
X431284D01*
X431306Y101787D01*
X431351Y101798D01*
X431406Y101831D01*
X431473Y101864D01*
X431550Y101909D01*
X431739Y102020D01*
X431961Y102142D01*
X432183Y102297D01*
X432416Y102475D01*
X432649Y102663D01*
X432660Y102675D01*
X432672Y102686D01*
X432705Y102719D01*
X432749Y102752D01*
X432849Y102863D01*
X432982Y102997D01*
X433116Y103152D01*
X433260Y103329D01*
X433382Y103507D01*
X433493Y103696D01*
X434103D01*
Y95982D01*
D02*
G37*
%LPC*%
G36*
X265217Y84266D02*
X262798D01*
Y81724D01*
X265084D01*
X265217Y81735D01*
X265373Y81746D01*
X265550Y81757D01*
X265728Y81779D01*
X265905Y81813D01*
X266061Y81857D01*
X266083Y81868D01*
X266127Y81890D01*
X266194Y81924D01*
X266283Y81968D01*
X266383Y82035D01*
X266483Y82113D01*
X266583Y82212D01*
X266660Y82323D01*
X266671Y82334D01*
X266693Y82379D01*
X266727Y82445D01*
X266771Y82534D01*
X266805Y82634D01*
X266838Y82745D01*
X266860Y82878D01*
X266871Y83012D01*
Y83023D01*
Y83034D01*
X266860Y83100D01*
X266849Y83200D01*
X266827Y83334D01*
X266771Y83467D01*
X266705Y83622D01*
X266605Y83766D01*
X266472Y83911D01*
X266449Y83922D01*
X266394Y83966D01*
X266305Y84022D01*
X266161Y84088D01*
X265994Y84155D01*
X265772Y84210D01*
X265517Y84255D01*
X265217Y84266D01*
D02*
G37*
G36*
X210200Y76629D02*
X207780D01*
Y74087D01*
X210067D01*
X210200Y74099D01*
X210356Y74110D01*
X210533Y74121D01*
X210711Y74143D01*
X210889Y74176D01*
X211044Y74221D01*
X211066Y74232D01*
X211110Y74254D01*
X211177Y74287D01*
X211266Y74332D01*
X211366Y74398D01*
X211466Y74476D01*
X211565Y74576D01*
X211643Y74687D01*
X211654Y74698D01*
X211677Y74742D01*
X211710Y74809D01*
X211754Y74898D01*
X211787Y74998D01*
X211821Y75108D01*
X211843Y75242D01*
X211854Y75375D01*
Y75386D01*
Y75397D01*
X211843Y75464D01*
X211832Y75564D01*
X211810Y75697D01*
X211754Y75830D01*
X211688Y75985D01*
X211588Y76130D01*
X211455Y76274D01*
X211432Y76285D01*
X211377Y76329D01*
X211288Y76385D01*
X211144Y76452D01*
X210977Y76518D01*
X210755Y76574D01*
X210500Y76618D01*
X210200Y76629D01*
D02*
G37*
G36*
X102701Y76375D02*
X100281D01*
Y73833D01*
X102568D01*
X102701Y73844D01*
X102857Y73856D01*
X103034Y73867D01*
X103212Y73889D01*
X103389Y73922D01*
X103545Y73967D01*
X103567Y73978D01*
X103611Y74000D01*
X103678Y74033D01*
X103767Y74078D01*
X103867Y74144D01*
X103967Y74222D01*
X104066Y74322D01*
X104144Y74433D01*
X104155Y74444D01*
X104177Y74488D01*
X104211Y74555D01*
X104255Y74644D01*
X104288Y74743D01*
X104322Y74854D01*
X104344Y74988D01*
X104355Y75121D01*
Y75132D01*
Y75143D01*
X104344Y75210D01*
X104333Y75310D01*
X104311Y75443D01*
X104255Y75576D01*
X104188Y75731D01*
X104089Y75876D01*
X103955Y76020D01*
X103933Y76031D01*
X103878Y76076D01*
X103789Y76131D01*
X103645Y76198D01*
X103478Y76264D01*
X103256Y76320D01*
X103001Y76364D01*
X102701Y76375D01*
D02*
G37*
G36*
X236842Y76696D02*
X234423D01*
Y74154D01*
X236709D01*
X236842Y74165D01*
X236998Y74176D01*
X237176Y74187D01*
X237353Y74209D01*
X237531Y74243D01*
X237686Y74287D01*
X237708Y74298D01*
X237753Y74321D01*
X237819Y74354D01*
X237908Y74398D01*
X238008Y74465D01*
X238108Y74542D01*
X238208Y74642D01*
X238286Y74753D01*
X238297Y74764D01*
X238319Y74809D01*
X238352Y74875D01*
X238396Y74964D01*
X238430Y75064D01*
X238463Y75175D01*
X238485Y75308D01*
X238496Y75441D01*
Y75453D01*
Y75464D01*
X238485Y75530D01*
X238474Y75630D01*
X238452Y75763D01*
X238396Y75897D01*
X238330Y76052D01*
X238230Y76196D01*
X238097Y76341D01*
X238075Y76352D01*
X238019Y76396D01*
X237930Y76452D01*
X237786Y76518D01*
X237619Y76585D01*
X237397Y76640D01*
X237142Y76685D01*
X236842Y76696D01*
D02*
G37*
G36*
X249219Y76807D02*
X249152D01*
X249108Y76796D01*
X248986Y76774D01*
X248841Y76740D01*
X248675Y76674D01*
X248497Y76574D01*
X248409Y76507D01*
X248320Y76441D01*
X248242Y76352D01*
X248164Y76252D01*
Y76241D01*
X248142Y76219D01*
X248120Y76174D01*
X248087Y76119D01*
X248053Y76030D01*
X248009Y75930D01*
X247976Y75808D01*
X247931Y75663D01*
X247887Y75497D01*
X247842Y75308D01*
X247798Y75097D01*
X247765Y74864D01*
X247731Y74598D01*
X247709Y74309D01*
X247698Y73999D01*
X247687Y73654D01*
Y73632D01*
Y73577D01*
Y73477D01*
X247698Y73344D01*
Y73199D01*
X247709Y73022D01*
X247720Y72833D01*
X247743Y72633D01*
X247798Y72200D01*
X247831Y71989D01*
X247876Y71790D01*
X247920Y71601D01*
X247987Y71423D01*
X248053Y71268D01*
X248131Y71135D01*
Y71124D01*
X248153Y71113D01*
X248209Y71035D01*
X248309Y70935D01*
X248431Y70824D01*
X248597Y70713D01*
X248786Y70613D01*
X248997Y70535D01*
X249108Y70524D01*
X249230Y70513D01*
X249296D01*
X249341Y70524D01*
X249452Y70546D01*
X249607Y70591D01*
X249774Y70669D01*
X249963Y70780D01*
X250051Y70846D01*
X250140Y70935D01*
X250229Y71024D01*
X250318Y71135D01*
Y71146D01*
X250340Y71168D01*
X250362Y71201D01*
X250384Y71257D01*
X250429Y71335D01*
X250462Y71434D01*
X250506Y71546D01*
X250551Y71679D01*
X250584Y71845D01*
X250629Y72023D01*
X250673Y72234D01*
X250706Y72456D01*
X250728Y72722D01*
X250751Y73000D01*
X250773Y73310D01*
Y73654D01*
Y73666D01*
Y73677D01*
Y73732D01*
Y73832D01*
X250762Y73965D01*
Y74110D01*
X250751Y74287D01*
X250739Y74476D01*
X250717Y74687D01*
X250662Y75108D01*
X250629Y75319D01*
X250584Y75519D01*
X250540Y75708D01*
X250473Y75886D01*
X250406Y76041D01*
X250329Y76174D01*
Y76185D01*
X250307Y76196D01*
X250284Y76230D01*
X250251Y76274D01*
X250151Y76374D01*
X250029Y76496D01*
X249863Y76607D01*
X249674Y76707D01*
X249574Y76751D01*
X249463Y76785D01*
X249341Y76796D01*
X249219Y76807D01*
D02*
G37*
G36*
X146031Y82903D02*
X145853D01*
X145809Y82892D01*
X145687Y82881D01*
X145542Y82836D01*
X145365Y82781D01*
X145176Y82681D01*
X144987Y82559D01*
X144898Y82470D01*
X144810Y82381D01*
Y82370D01*
X144787Y82359D01*
X144765Y82326D01*
X144743Y82292D01*
X144665Y82181D01*
X144588Y82026D01*
X144499Y81837D01*
X144421Y81604D01*
X144377Y81338D01*
X144354Y81049D01*
Y81038D01*
Y81016D01*
Y80983D01*
X144366Y80927D01*
Y80860D01*
X144377Y80794D01*
X144410Y80627D01*
X144466Y80439D01*
X144532Y80239D01*
X144643Y80039D01*
X144787Y79861D01*
X144810Y79839D01*
X144865Y79795D01*
X144965Y79717D01*
X145087Y79640D01*
X145254Y79551D01*
X145442Y79473D01*
X145653Y79429D01*
X145886Y79406D01*
X145953D01*
X145997Y79418D01*
X146119Y79429D01*
X146264Y79462D01*
X146441Y79517D01*
X146619Y79595D01*
X146797Y79706D01*
X146963Y79861D01*
X146985Y79884D01*
X147030Y79950D01*
X147096Y80050D01*
X147185Y80195D01*
X147263Y80372D01*
X147329Y80583D01*
X147374Y80838D01*
X147396Y81127D01*
Y81138D01*
Y81160D01*
Y81205D01*
X147385Y81260D01*
Y81338D01*
X147374Y81415D01*
X147340Y81593D01*
X147296Y81804D01*
X147218Y82026D01*
X147107Y82237D01*
X146963Y82425D01*
Y82437D01*
X146941Y82448D01*
X146885Y82503D01*
X146797Y82581D01*
X146674Y82670D01*
X146519Y82747D01*
X146341Y82825D01*
X146142Y82881D01*
X146031Y82903D01*
D02*
G37*
G36*
X139482Y82792D02*
X137062D01*
Y80250D01*
X139348D01*
X139482Y80261D01*
X139637Y80272D01*
X139815Y80283D01*
X139992Y80306D01*
X140170Y80339D01*
X140325Y80383D01*
X140347Y80394D01*
X140392Y80416D01*
X140458Y80450D01*
X140547Y80494D01*
X140647Y80561D01*
X140747Y80638D01*
X140847Y80738D01*
X140925Y80849D01*
X140936Y80860D01*
X140958Y80905D01*
X140991Y80971D01*
X141036Y81060D01*
X141069Y81160D01*
X141102Y81271D01*
X141124Y81404D01*
X141136Y81538D01*
Y81549D01*
Y81560D01*
X141124Y81626D01*
X141113Y81726D01*
X141091Y81859D01*
X141036Y81993D01*
X140969Y82148D01*
X140869Y82292D01*
X140736Y82437D01*
X140714Y82448D01*
X140658Y82492D01*
X140569Y82548D01*
X140425Y82614D01*
X140259Y82681D01*
X140037Y82736D01*
X139781Y82781D01*
X139482Y82792D01*
D02*
G37*
G36*
X291882Y84316D02*
X289462D01*
Y81774D01*
X291749D01*
X291882Y81785D01*
X292037Y81796D01*
X292215Y81807D01*
X292392Y81830D01*
X292570Y81863D01*
X292725Y81907D01*
X292747Y81918D01*
X292792Y81940D01*
X292859Y81974D01*
X292947Y82018D01*
X293047Y82085D01*
X293147Y82162D01*
X293247Y82262D01*
X293325Y82373D01*
X293336Y82384D01*
X293358Y82429D01*
X293391Y82495D01*
X293436Y82584D01*
X293469Y82684D01*
X293502Y82795D01*
X293524Y82928D01*
X293536Y83062D01*
Y83073D01*
Y83084D01*
X293524Y83150D01*
X293513Y83250D01*
X293491Y83383D01*
X293436Y83517D01*
X293369Y83672D01*
X293269Y83816D01*
X293136Y83961D01*
X293114Y83972D01*
X293058Y84016D01*
X292969Y84072D01*
X292825Y84138D01*
X292659Y84205D01*
X292437Y84260D01*
X292181Y84305D01*
X291882Y84316D01*
D02*
G37*
G36*
X298309Y84427D02*
X298220D01*
X298120Y84405D01*
X297987Y84382D01*
X297842Y84338D01*
X297687Y84283D01*
X297543Y84194D01*
X297398Y84072D01*
X297387Y84060D01*
X297343Y84016D01*
X297287Y83938D01*
X297232Y83839D01*
X297165Y83716D01*
X297110Y83572D01*
X297065Y83417D01*
X297054Y83239D01*
Y83228D01*
Y83217D01*
X297065Y83150D01*
X297076Y83050D01*
X297099Y82928D01*
X297143Y82784D01*
X297199Y82640D01*
X297287Y82484D01*
X297398Y82351D01*
X297409Y82340D01*
X297465Y82296D01*
X297543Y82240D01*
X297642Y82185D01*
X297776Y82118D01*
X297931Y82063D01*
X298109Y82018D01*
X298309Y82007D01*
X298331D01*
X298397Y82018D01*
X298497Y82029D01*
X298630Y82051D01*
X298775Y82096D01*
X298919Y82151D01*
X299074Y82240D01*
X299208Y82351D01*
X299219Y82362D01*
X299263Y82418D01*
X299319Y82484D01*
X299385Y82584D01*
X299452Y82706D01*
X299507Y82851D01*
X299552Y83017D01*
X299563Y83195D01*
Y83206D01*
Y83217D01*
Y83284D01*
X299541Y83383D01*
X299518Y83505D01*
X299474Y83639D01*
X299407Y83783D01*
X299319Y83927D01*
X299196Y84072D01*
X299185Y84083D01*
X299130Y84127D01*
X299052Y84183D01*
X298952Y84249D01*
X298819Y84316D01*
X298675Y84371D01*
X298497Y84416D01*
X298309Y84427D01*
D02*
G37*
G36*
X298275Y81241D02*
X298209D01*
X298164Y81230D01*
X298042Y81219D01*
X297887Y81186D01*
X297709Y81130D01*
X297532Y81053D01*
X297343Y80941D01*
X297176Y80797D01*
X297154Y80775D01*
X297110Y80719D01*
X297043Y80620D01*
X296965Y80498D01*
X296877Y80331D01*
X296810Y80142D01*
X296766Y79931D01*
X296743Y79698D01*
Y79676D01*
Y79632D01*
X296754Y79554D01*
X296766Y79454D01*
X296788Y79332D01*
X296821Y79199D01*
X296866Y79066D01*
X296921Y78921D01*
X296932Y78910D01*
X296954Y78855D01*
X296999Y78788D01*
X297065Y78710D01*
X297143Y78611D01*
X297243Y78511D01*
X297354Y78422D01*
X297487Y78333D01*
X297509Y78322D01*
X297554Y78300D01*
X297631Y78266D01*
X297731Y78233D01*
X297853Y78200D01*
X297998Y78166D01*
X298153Y78144D01*
X298309Y78133D01*
X298375D01*
X298419Y78144D01*
X298553Y78155D01*
X298708Y78189D01*
X298886Y78244D01*
X299074Y78311D01*
X299252Y78422D01*
X299430Y78566D01*
X299452Y78588D01*
X299496Y78644D01*
X299574Y78744D01*
X299652Y78866D01*
X299729Y79021D01*
X299807Y79210D01*
X299851Y79432D01*
X299874Y79665D01*
Y79676D01*
Y79698D01*
Y79732D01*
X299862Y79776D01*
X299851Y79898D01*
X299818Y80065D01*
X299763Y80231D01*
X299685Y80420D01*
X299574Y80609D01*
X299419Y80786D01*
X299396Y80808D01*
X299341Y80853D01*
X299241Y80930D01*
X299108Y81019D01*
X298941Y81097D01*
X298741Y81175D01*
X298519Y81219D01*
X298275Y81241D01*
D02*
G37*
G36*
X350439Y81641D02*
X350373D01*
X350328Y81630D01*
X350218Y81619D01*
X350062Y81585D01*
X349896Y81530D01*
X349707Y81441D01*
X349529Y81330D01*
X349352Y81175D01*
X349330Y81152D01*
X349285Y81097D01*
X349207Y80997D01*
X349130Y80853D01*
X349052Y80686D01*
X348974Y80475D01*
X348930Y80242D01*
X348908Y79976D01*
Y79954D01*
Y79898D01*
X348919Y79798D01*
X348930Y79676D01*
X348952Y79532D01*
X348997Y79376D01*
X349041Y79210D01*
X349108Y79043D01*
X349119Y79021D01*
X349152Y78966D01*
X349196Y78888D01*
X349263Y78788D01*
X349341Y78688D01*
X349441Y78566D01*
X349552Y78466D01*
X349685Y78366D01*
X349707Y78355D01*
X349751Y78333D01*
X349829Y78289D01*
X349929Y78255D01*
X350040Y78211D01*
X350173Y78166D01*
X350317Y78144D01*
X350473Y78133D01*
X350528D01*
X350573Y78144D01*
X350684Y78155D01*
X350828Y78189D01*
X350983Y78255D01*
X351161Y78333D01*
X351339Y78455D01*
X351427Y78522D01*
X351505Y78611D01*
Y78622D01*
X351527Y78633D01*
X351572Y78699D01*
X351638Y78810D01*
X351727Y78955D01*
X351805Y79143D01*
X351871Y79365D01*
X351916Y79621D01*
X351938Y79920D01*
Y79931D01*
Y79954D01*
Y79998D01*
X351927Y80054D01*
Y80120D01*
X351916Y80198D01*
X351883Y80375D01*
X351838Y80575D01*
X351760Y80786D01*
X351649Y80986D01*
X351505Y81175D01*
X351483Y81197D01*
X351427Y81252D01*
X351339Y81319D01*
X351217Y81408D01*
X351061Y81496D01*
X350883Y81563D01*
X350673Y81619D01*
X350439Y81641D01*
D02*
G37*
G36*
X343957Y84316D02*
X341538D01*
Y81774D01*
X343824D01*
X343957Y81785D01*
X344113Y81796D01*
X344290Y81807D01*
X344468Y81830D01*
X344645Y81863D01*
X344801Y81907D01*
X344823Y81918D01*
X344867Y81940D01*
X344934Y81974D01*
X345023Y82018D01*
X345123Y82085D01*
X345223Y82162D01*
X345322Y82262D01*
X345400Y82373D01*
X345411Y82384D01*
X345434Y82429D01*
X345467Y82495D01*
X345511Y82584D01*
X345545Y82684D01*
X345578Y82795D01*
X345600Y82928D01*
X345611Y83062D01*
Y83073D01*
Y83084D01*
X345600Y83150D01*
X345589Y83250D01*
X345567Y83383D01*
X345511Y83517D01*
X345445Y83672D01*
X345345Y83816D01*
X345211Y83961D01*
X345189Y83972D01*
X345134Y84016D01*
X345045Y84072D01*
X344901Y84138D01*
X344734Y84205D01*
X344512Y84260D01*
X344257Y84305D01*
X343957Y84316D01*
D02*
G37*
G36*
X317260Y84332D02*
X314840D01*
Y81791D01*
X317126D01*
X317260Y81802D01*
X317415Y81813D01*
X317593Y81824D01*
X317770Y81846D01*
X317948Y81879D01*
X318103Y81924D01*
X318125Y81935D01*
X318170Y81957D01*
X318236Y81990D01*
X318325Y82035D01*
X318425Y82101D01*
X318525Y82179D01*
X318625Y82279D01*
X318703Y82390D01*
X318714Y82401D01*
X318736Y82445D01*
X318769Y82512D01*
X318813Y82601D01*
X318847Y82701D01*
X318880Y82812D01*
X318902Y82945D01*
X318913Y83078D01*
Y83089D01*
Y83100D01*
X318902Y83167D01*
X318891Y83267D01*
X318869Y83400D01*
X318813Y83533D01*
X318747Y83689D01*
X318647Y83833D01*
X318514Y83977D01*
X318492Y83988D01*
X318436Y84033D01*
X318347Y84088D01*
X318203Y84155D01*
X318036Y84221D01*
X317815Y84277D01*
X317559Y84321D01*
X317260Y84332D01*
D02*
G37*
G36*
X377570Y75969D02*
X375150Y72528D01*
X377570D01*
Y75969D01*
D02*
G37*
G36*
X370644Y76646D02*
X368224D01*
Y74104D01*
X370511D01*
X370644Y74115D01*
X370799Y74126D01*
X370977Y74137D01*
X371155Y74159D01*
X371332Y74193D01*
X371488Y74237D01*
X371510Y74248D01*
X371554Y74271D01*
X371621Y74304D01*
X371710Y74348D01*
X371809Y74415D01*
X371909Y74493D01*
X372009Y74592D01*
X372087Y74703D01*
X372098Y74714D01*
X372120Y74759D01*
X372154Y74826D01*
X372198Y74914D01*
X372231Y75014D01*
X372265Y75125D01*
X372287Y75258D01*
X372298Y75392D01*
Y75403D01*
Y75414D01*
X372287Y75480D01*
X372276Y75580D01*
X372253Y75714D01*
X372198Y75847D01*
X372131Y76002D01*
X372031Y76146D01*
X371898Y76291D01*
X371876Y76302D01*
X371820Y76346D01*
X371732Y76402D01*
X371587Y76468D01*
X371421Y76535D01*
X371199Y76590D01*
X370944Y76635D01*
X370644Y76646D01*
D02*
G37*
G36*
X469433Y78728D02*
X467014D01*
Y76186D01*
X469300D01*
X469433Y76197D01*
X469589Y76208D01*
X469766Y76219D01*
X469944Y76241D01*
X470121Y76275D01*
X470277Y76319D01*
X470299Y76330D01*
X470343Y76353D01*
X470410Y76386D01*
X470499Y76430D01*
X470599Y76497D01*
X470699Y76574D01*
X470798Y76674D01*
X470876Y76785D01*
X470887Y76796D01*
X470910Y76841D01*
X470943Y76907D01*
X470987Y76996D01*
X471021Y77096D01*
X471054Y77207D01*
X471076Y77340D01*
X471087Y77474D01*
Y77485D01*
Y77496D01*
X471076Y77562D01*
X471065Y77662D01*
X471043Y77795D01*
X470987Y77929D01*
X470921Y78084D01*
X470821Y78228D01*
X470687Y78373D01*
X470665Y78384D01*
X470610Y78428D01*
X470521Y78484D01*
X470377Y78550D01*
X470210Y78617D01*
X469988Y78672D01*
X469733Y78717D01*
X469433Y78728D01*
D02*
G37*
G36*
X396066Y76629D02*
X393646D01*
Y74087D01*
X395933D01*
X396066Y74099D01*
X396222Y74110D01*
X396399Y74121D01*
X396577Y74143D01*
X396754Y74176D01*
X396910Y74221D01*
X396932Y74232D01*
X396976Y74254D01*
X397043Y74287D01*
X397132Y74332D01*
X397232Y74398D01*
X397332Y74476D01*
X397431Y74576D01*
X397509Y74687D01*
X397520Y74698D01*
X397542Y74742D01*
X397576Y74809D01*
X397620Y74898D01*
X397653Y74998D01*
X397687Y75108D01*
X397709Y75242D01*
X397720Y75375D01*
Y75386D01*
Y75397D01*
X397709Y75464D01*
X397698Y75564D01*
X397676Y75697D01*
X397620Y75830D01*
X397553Y75985D01*
X397454Y76130D01*
X397320Y76274D01*
X397298Y76285D01*
X397243Y76329D01*
X397154Y76385D01*
X397010Y76452D01*
X396843Y76518D01*
X396621Y76574D01*
X396366Y76618D01*
X396066Y76629D01*
D02*
G37*
G36*
X505483Y82979D02*
X503063D01*
Y80437D01*
X505350D01*
X505483Y80449D01*
X505638Y80460D01*
X505816Y80471D01*
X505993Y80493D01*
X506171Y80526D01*
X506326Y80571D01*
X506349Y80582D01*
X506393Y80604D01*
X506460Y80637D01*
X506549Y80682D01*
X506648Y80748D01*
X506748Y80826D01*
X506848Y80926D01*
X506926Y81037D01*
X506937Y81048D01*
X506959Y81092D01*
X506992Y81159D01*
X507037Y81248D01*
X507070Y81348D01*
X507104Y81459D01*
X507126Y81592D01*
X507137Y81725D01*
Y81736D01*
Y81747D01*
X507126Y81814D01*
X507115Y81914D01*
X507092Y82047D01*
X507037Y82180D01*
X506970Y82335D01*
X506870Y82480D01*
X506737Y82624D01*
X506715Y82635D01*
X506660Y82680D01*
X506571Y82735D01*
X506426Y82802D01*
X506260Y82868D01*
X506038Y82924D01*
X505783Y82968D01*
X505483Y82979D01*
D02*
G37*
G36*
X202362Y186638D02*
X202187Y186615D01*
X202144Y186598D01*
X202024Y186571D01*
X201887Y186507D01*
X201719Y186429D01*
X201545Y186305D01*
X201374Y186159D01*
X201297Y186059D01*
X201221Y185959D01*
X201223Y185949D01*
X201202Y185935D01*
X201185Y185899D01*
X201167Y185863D01*
X201105Y185742D01*
X201048Y185578D01*
X200985Y185379D01*
X200939Y185138D01*
X200930Y184868D01*
X200946Y184579D01*
X200948Y184568D01*
X200951Y184546D01*
X200955Y184513D01*
X200973Y184459D01*
X200982Y184394D01*
X201002Y184329D01*
X201057Y184168D01*
X201137Y183989D01*
X201229Y183799D01*
X201366Y183616D01*
X201532Y183459D01*
X201557Y183440D01*
X201618Y183403D01*
X201728Y183340D01*
X201859Y183279D01*
X202036Y183213D01*
X202233Y183161D01*
X202448Y183144D01*
X202682Y183153D01*
X202748Y183162D01*
X202791Y183179D01*
X202910Y183206D01*
X203049Y183258D01*
X203217Y183337D01*
X203383Y183437D01*
X203544Y183571D01*
X203689Y183747D01*
X203708Y183772D01*
X203743Y183844D01*
X203796Y183951D01*
X203865Y184106D01*
X203918Y184293D01*
X203957Y184510D01*
X203967Y184769D01*
X203951Y185058D01*
X203949Y185069D01*
X203946Y185091D01*
X203940Y185135D01*
X203922Y185189D01*
X203912Y185266D01*
X203890Y185341D01*
X203834Y185513D01*
X203762Y185716D01*
X203656Y185926D01*
X203518Y186120D01*
X203350Y186288D01*
X203348Y186299D01*
X203325Y186307D01*
X203263Y186355D01*
X203164Y186420D01*
X203032Y186492D01*
X202867Y186549D01*
X202681Y186602D01*
X202475Y186631D01*
X202362Y186638D01*
D02*
G37*
G36*
X165112Y114987D02*
X164990Y114977D01*
X164868Y114966D01*
X164803Y114954D01*
X164761Y114935D01*
X164645Y114892D01*
X164508Y114833D01*
X164356Y114739D01*
X164199Y114609D01*
X164124Y114528D01*
X164048Y114446D01*
X163987Y114345D01*
X163929Y114233D01*
X163931Y114222D01*
X163913Y114196D01*
X163899Y114149D01*
X163876Y114088D01*
X163859Y113995D01*
X163833Y113889D01*
X163822Y113763D01*
X163803Y113613D01*
X163789Y113441D01*
X163779Y113247D01*
X163773Y113032D01*
X163781Y112797D01*
X163796Y112529D01*
X163825Y112241D01*
X163869Y111933D01*
X163919Y111592D01*
X163923Y111570D01*
X163933Y111516D01*
X163950Y111417D01*
X163985Y111288D01*
X164010Y111146D01*
X164053Y110973D01*
X164097Y110790D01*
X164154Y110597D01*
X164286Y110181D01*
X164356Y109979D01*
X164435Y109790D01*
X164512Y109612D01*
X164609Y109449D01*
X164702Y109308D01*
X164802Y109191D01*
X164804Y109180D01*
X164828Y109173D01*
X164896Y109106D01*
X165012Y109026D01*
X165152Y108938D01*
X165336Y108858D01*
X165539Y108793D01*
X165760Y108754D01*
X165871Y108763D01*
X165994Y108774D01*
X166059Y108786D01*
X166101Y108804D01*
X166206Y108846D01*
X166351Y108917D01*
X166501Y109023D01*
X166667Y109166D01*
X166743Y109247D01*
X166815Y109350D01*
X166886Y109453D01*
X166954Y109578D01*
X166952Y109589D01*
X166970Y109615D01*
X166986Y109652D01*
X166998Y109710D01*
X167028Y109794D01*
X167043Y109899D01*
X167067Y110016D01*
X167087Y110155D01*
X167090Y110324D01*
X167103Y110507D01*
X167109Y110723D01*
X167103Y110947D01*
X167077Y111213D01*
X167050Y111490D01*
X167017Y111800D01*
X166956Y112139D01*
X166954Y112149D01*
X166952Y112160D01*
X166942Y112215D01*
X166924Y112313D01*
X166890Y112443D01*
X166864Y112584D01*
X166822Y112757D01*
X166778Y112941D01*
X166718Y113145D01*
X166589Y113550D01*
X166519Y113752D01*
X166440Y113940D01*
X166363Y114118D01*
X166266Y114281D01*
X166173Y114423D01*
X166073Y114540D01*
X166071Y114551D01*
X166047Y114558D01*
X166019Y114586D01*
X165979Y114624D01*
X165863Y114705D01*
X165721Y114803D01*
X165537Y114883D01*
X165334Y114948D01*
X165228Y114974D01*
X165112Y114987D01*
D02*
G37*
G36*
X234902Y123606D02*
X234713Y123603D01*
X234625Y123596D01*
X234527Y123567D01*
X234396Y123535D01*
X234255Y123480D01*
X234104Y123413D01*
X233967Y123314D01*
X233832Y123182D01*
X233821Y123170D01*
X233780Y123123D01*
X233731Y123041D01*
X233682Y122937D01*
X233625Y122811D01*
X233580Y122663D01*
X233547Y122505D01*
X233549Y122326D01*
X233550Y122316D01*
X233551Y122304D01*
X233567Y122239D01*
X233585Y122140D01*
X233616Y122020D01*
X233671Y121879D01*
X233737Y121739D01*
X233837Y121591D01*
X233958Y121466D01*
X233969Y121456D01*
X234028Y121416D01*
X234110Y121366D01*
X234213Y121318D01*
X234351Y121261D01*
X234510Y121217D01*
X234690Y121186D01*
X234890Y121190D01*
X234913Y121191D01*
X234978Y121207D01*
X235077Y121226D01*
X235208Y121257D01*
X235349Y121312D01*
X235489Y121378D01*
X235637Y121478D01*
X235762Y121599D01*
X235772Y121610D01*
X235812Y121669D01*
X235863Y121740D01*
X235922Y121844D01*
X235979Y121971D01*
X236024Y122119D01*
X236056Y122288D01*
X236054Y122466D01*
X236054Y122477D01*
X236053Y122488D01*
X236048Y122555D01*
X236018Y122653D01*
X235987Y122773D01*
X235933Y122902D01*
X235856Y123041D01*
X235757Y123179D01*
X235625Y123314D01*
X235613Y123324D01*
X235554Y123364D01*
X235473Y123414D01*
X235368Y123473D01*
X235231Y123530D01*
X235083Y123574D01*
X234902Y123606D01*
D02*
G37*
G36*
X234913Y120423D02*
X234847Y120419D01*
X234804Y120404D01*
X234683Y120384D01*
X234530Y120339D01*
X234357Y120271D01*
X234186Y120181D01*
X234005Y120056D01*
X233850Y119900D01*
X233829Y119876D01*
X233789Y119818D01*
X233730Y119713D01*
X233662Y119586D01*
X233585Y119413D01*
X233533Y119220D01*
X233504Y119007D01*
X233499Y118772D01*
X233500Y118750D01*
X233504Y118706D01*
X233520Y118629D01*
X233539Y118531D01*
X233570Y118410D01*
X233613Y118280D01*
X233667Y118150D01*
X233733Y118011D01*
X233745Y118000D01*
X233771Y117947D01*
X233820Y117883D01*
X233892Y117811D01*
X233977Y117717D01*
X234084Y117625D01*
X234201Y117544D01*
X234340Y117465D01*
X234363Y117456D01*
X234409Y117437D01*
X234489Y117409D01*
X234591Y117383D01*
X234715Y117359D01*
X234862Y117337D01*
X235018Y117326D01*
X235174Y117326D01*
X235241Y117331D01*
X235284Y117345D01*
X235416Y117366D01*
X235569Y117411D01*
X235742Y117479D01*
X235925Y117559D01*
X236094Y117683D01*
X236261Y117840D01*
X236281Y117864D01*
X236321Y117922D01*
X236391Y118028D01*
X236460Y118155D01*
X236526Y118316D01*
X236590Y118510D01*
X236618Y118734D01*
X236623Y118968D01*
X236622Y118980D01*
X236620Y119002D01*
X236618Y119035D01*
X236604Y119078D01*
X236584Y119199D01*
X236538Y119363D01*
X236471Y119525D01*
X236379Y119707D01*
X236255Y119888D01*
X236087Y120053D01*
X236063Y120074D01*
X236005Y120114D01*
X235899Y120184D01*
X235760Y120263D01*
X235588Y120328D01*
X235383Y120391D01*
X235159Y120419D01*
X234913Y120423D01*
D02*
G37*
G36*
X317311Y188525D02*
X317244D01*
X317200Y188514D01*
X317089Y188503D01*
X316933Y188469D01*
X316767Y188414D01*
X316578Y188325D01*
X316401Y188214D01*
X316223Y188059D01*
X316201Y188036D01*
X316156Y187981D01*
X316079Y187881D01*
X316001Y187737D01*
X315923Y187570D01*
X315846Y187359D01*
X315801Y187126D01*
X315779Y186860D01*
Y186838D01*
Y186782D01*
X315790Y186682D01*
X315801Y186560D01*
X315823Y186416D01*
X315868Y186260D01*
X315912Y186094D01*
X315979Y185927D01*
X315990Y185905D01*
X316023Y185850D01*
X316068Y185772D01*
X316134Y185672D01*
X316212Y185572D01*
X316312Y185450D01*
X316423Y185350D01*
X316556Y185250D01*
X316578Y185239D01*
X316623Y185217D01*
X316700Y185173D01*
X316800Y185139D01*
X316911Y185095D01*
X317044Y185051D01*
X317189Y185028D01*
X317344Y185017D01*
X317400D01*
X317444Y185028D01*
X317555Y185040D01*
X317699Y185073D01*
X317855Y185139D01*
X318032Y185217D01*
X318210Y185339D01*
X318299Y185406D01*
X318376Y185494D01*
Y185506D01*
X318399Y185517D01*
X318443Y185583D01*
X318510Y185694D01*
X318598Y185839D01*
X318676Y186027D01*
X318743Y186249D01*
X318787Y186505D01*
X318809Y186804D01*
Y186815D01*
Y186838D01*
Y186882D01*
X318798Y186938D01*
Y187004D01*
X318787Y187082D01*
X318754Y187259D01*
X318709Y187459D01*
X318632Y187670D01*
X318521Y187870D01*
X318376Y188059D01*
X318354Y188081D01*
X318299Y188136D01*
X318210Y188203D01*
X318088Y188292D01*
X317932Y188381D01*
X317755Y188447D01*
X317544Y188503D01*
X317311Y188525D01*
D02*
G37*
G36*
X421405Y184427D02*
X418552Y181336D01*
X420950Y181016D01*
X421405Y184427D01*
D02*
G37*
%LPD*%
D10*
X531876Y76284D02*
Y86784D01*
X472186Y84666D02*
Y95166D01*
X393530Y96360D02*
X404030D01*
X262901Y103980D02*
X273401D01*
X289027D02*
X299527D01*
X210650Y96360D02*
X221150D01*
X236776D02*
X247276D01*
X367404D02*
X377904D01*
X341278Y103980D02*
X351778D01*
X315153D02*
X325653D01*
X142240Y88730D02*
Y99230D01*
X80772Y76284D02*
Y86784D01*
D11*
X554160Y113442D02*
X557188Y112574D01*
X554160Y113442D02*
X562154Y141319D01*
X550604Y100258D02*
X551293Y102661D01*
X562154Y141319D02*
X565182Y140450D01*
X594212Y132126D02*
X596999Y131327D01*
X589006Y103450D02*
X596999Y131327D01*
X586218Y104250D02*
X589006Y103450D01*
X548359Y114845D02*
X551181Y114178D01*
X557853Y142400D01*
X555031Y143067D02*
X557853Y142400D01*
X522575Y150739D02*
X525641Y150015D01*
X512973Y109180D02*
X513548Y111613D01*
X515904Y122517D02*
X522575Y150739D01*
X515904Y122517D02*
X518969Y121793D01*
X456890Y133925D02*
X459991Y133373D01*
X456890Y133925D02*
X461976Y162476D01*
X454708Y120445D02*
X455147Y122906D01*
X461976Y162476D02*
X465077Y161923D01*
X494809Y156627D02*
X497664Y156119D01*
X492578Y127568D02*
X497664Y156119D01*
X489723Y128077D02*
X492578Y127568D01*
X450750Y134730D02*
X453624Y134347D01*
X457460Y163092D01*
X454585Y163475D02*
X457460Y163092D01*
X421528Y167886D02*
X424650Y167470D01*
X416101Y125578D02*
X416432Y128056D01*
X417693Y139141D02*
X421528Y167886D01*
X417693Y139141D02*
X420815Y138724D01*
X358314Y144209D02*
X361455Y143973D01*
X358314Y144209D02*
X360489Y173127D01*
X357506Y130577D02*
X357693Y133070D01*
X360489Y173127D02*
X363630Y172891D01*
X393745Y170627D02*
X396637Y170410D01*
X394462Y141491D02*
X396637Y170410D01*
X391570Y141709D02*
X394462Y141491D01*
X258688Y144365D02*
X261837Y144458D01*
X257828Y173352D02*
X258688Y144365D01*
X259235Y133222D02*
X259309Y130723D01*
X257828Y173352D02*
X260977Y173446D01*
X291163Y174342D02*
X294062Y174428D01*
X294922Y145440D01*
X292024Y145354D02*
X294922Y145440D01*
X352063Y144458D02*
X354962Y144372D01*
X355822Y173360D01*
X352924Y173446D02*
X355822Y173360D01*
X319588Y174435D02*
X322737Y174342D01*
X318539Y131793D02*
X318613Y134292D01*
X318728Y145448D02*
X319588Y174435D01*
X318728Y145448D02*
X321876Y145354D01*
X252421Y144045D02*
X255314Y144257D01*
X253190Y173179D02*
X255314Y144257D01*
X250298Y172967D02*
X253190Y173179D01*
X217037Y170524D02*
X220179Y170755D01*
X220193Y130494D02*
X220376Y128001D01*
X217037Y170524D02*
X219161Y141602D01*
X222302Y141833D01*
X159828Y134314D02*
X162950Y134730D01*
X155993Y163059D02*
X159828Y134314D01*
X161517Y123286D02*
X161848Y120808D01*
X155993Y163059D02*
X159115Y163475D01*
X189050Y167470D02*
X191924Y167853D01*
X195760Y139108D01*
X192885Y138724D02*
X195760Y139108D01*
X153929Y133403D02*
X156783Y133917D01*
X151648Y162458D02*
X156783Y133917D01*
X148794Y161945D02*
X151648Y162458D01*
X115971Y156039D02*
X119071Y156597D01*
X123294Y116558D02*
X123737Y114097D01*
X115971Y156039D02*
X121106Y127497D01*
X124206Y128055D01*
X56812Y112574D02*
X59599Y113373D01*
X51606Y141250D02*
X59599Y113373D01*
X48818Y140450D02*
X51606Y141250D01*
X16760Y131258D02*
X19788Y132126D01*
X28036Y92719D02*
X28725Y90316D01*
X16760Y131258D02*
X24754Y103381D01*
X27782Y104250D01*
X62160Y114121D02*
X65226Y114846D01*
X55489Y142344D02*
X62160Y114121D01*
X64936Y103316D02*
X65512Y100883D01*
X55489Y142344D02*
X58554Y143068D01*
X87944Y150016D02*
X90766Y150683D01*
X97438Y122461D01*
X94616Y121793D02*
X97438Y122461D01*
X222668Y2769D02*
X392645D01*
Y55880D01*
X222668Y2769D02*
Y55880D01*
D12*
X253457D02*
X257157D01*
X358157D02*
X361857D01*
X390207D02*
X392645D01*
X222668D02*
X225107D01*
M02*
