G04*
G04 #@! TF.GenerationSoftware,Altium Limited,Altium Designer,24.9.1 (31)*
G04*
G04 Layer_Color=255*
%FSLAX44Y44*%
%MOMM*%
G71*
G04*
G04 #@! TF.SameCoordinates,7DCFF066-EA26-49B3-B75A-539F59D7DBC6*
G04*
G04*
G04 #@! TF.FilePolarity,Positive*
G04*
G01*
G75*
%ADD13R,0.9500X1.4500*%
%ADD14R,1.4500X0.9500*%
%ADD15R,1.3900X0.9600*%
G04:AMPARAMS|DCode=16|XSize=1mm|YSize=0.77mm|CornerRadius=0.1887mm|HoleSize=0mm|Usage=FLASHONLY|Rotation=74.000|XOffset=0mm|YOffset=0mm|HoleType=Round|Shape=RoundedRectangle|*
%AMROUNDEDRECTD16*
21,1,1.0000,0.3927,0,0,74.0*
21,1,0.6227,0.7700,0,0,74.0*
1,1,0.3773,0.2746,0.2452*
1,1,0.3773,0.1029,-0.3534*
1,1,0.3773,-0.2746,-0.2452*
1,1,0.3773,-0.1029,0.3534*
%
%ADD16ROUNDEDRECTD16*%
G04:AMPARAMS|DCode=17|XSize=1mm|YSize=0.77mm|CornerRadius=0.1887mm|HoleSize=0mm|Usage=FLASHONLY|Rotation=256.700|XOffset=0mm|YOffset=0mm|HoleType=Round|Shape=RoundedRectangle|*
%AMROUNDEDRECTD17*
21,1,1.0000,0.3927,0,0,256.7*
21,1,0.6227,0.7700,0,0,256.7*
1,1,0.3773,-0.2627,-0.2578*
1,1,0.3773,-0.1195,0.3482*
1,1,0.3773,0.2627,0.2578*
1,1,0.3773,0.1195,-0.3482*
%
%ADD17ROUNDEDRECTD17*%
G04:AMPARAMS|DCode=18|XSize=1mm|YSize=0.77mm|CornerRadius=0.1887mm|HoleSize=0mm|Usage=FLASHONLY|Rotation=79.900|XOffset=0mm|YOffset=0mm|HoleType=Round|Shape=RoundedRectangle|*
%AMROUNDEDRECTD18*
21,1,1.0000,0.3927,0,0,79.9*
21,1,0.6227,0.7700,0,0,79.9*
1,1,0.3773,0.2479,0.2721*
1,1,0.3773,0.1387,-0.3410*
1,1,0.3773,-0.2479,-0.2721*
1,1,0.3773,-0.1387,0.3410*
%
%ADD18ROUNDEDRECTD18*%
G04:AMPARAMS|DCode=19|XSize=1mm|YSize=0.77mm|CornerRadius=0.1887mm|HoleSize=0mm|Usage=FLASHONLY|Rotation=262.400|XOffset=0mm|YOffset=0mm|HoleType=Round|Shape=RoundedRectangle|*
%AMROUNDEDRECTD19*
21,1,1.0000,0.3927,0,0,262.4*
21,1,0.6227,0.7700,0,0,262.4*
1,1,0.3773,-0.2358,-0.2827*
1,1,0.3773,-0.1535,0.3346*
1,1,0.3773,0.2358,0.2827*
1,1,0.3773,0.1535,-0.3346*
%
%ADD19ROUNDEDRECTD19*%
G04:AMPARAMS|DCode=20|XSize=1mm|YSize=0.77mm|CornerRadius=0.1887mm|HoleSize=0mm|Usage=FLASHONLY|Rotation=85.700|XOffset=0mm|YOffset=0mm|HoleType=Round|Shape=RoundedRectangle|*
%AMROUNDEDRECTD20*
21,1,1.0000,0.3927,0,0,85.7*
21,1,0.6227,0.7700,0,0,85.7*
1,1,0.3773,0.2191,0.2958*
1,1,0.3773,0.1725,-0.3252*
1,1,0.3773,-0.2191,-0.2958*
1,1,0.3773,-0.1725,0.3252*
%
%ADD20ROUNDEDRECTD20*%
G04:AMPARAMS|DCode=21|XSize=1mm|YSize=0.77mm|CornerRadius=0.1887mm|HoleSize=0mm|Usage=FLASHONLY|Rotation=91.700|XOffset=0mm|YOffset=0mm|HoleType=Round|Shape=RoundedRectangle|*
%AMROUNDEDRECTD21*
21,1,1.0000,0.3927,0,0,91.7*
21,1,0.6227,0.7700,0,0,91.7*
1,1,0.3773,0.1870,0.3170*
1,1,0.3773,0.2055,-0.3054*
1,1,0.3773,-0.1870,-0.3170*
1,1,0.3773,-0.2055,0.3054*
%
%ADD21ROUNDEDRECTD21*%
G04:AMPARAMS|DCode=22|XSize=1mm|YSize=0.77mm|CornerRadius=0.1887mm|HoleSize=0mm|Usage=FLASHONLY|Rotation=268.300|XOffset=0mm|YOffset=0mm|HoleType=Round|Shape=RoundedRectangle|*
%AMROUNDEDRECTD22*
21,1,1.0000,0.3927,0,0,268.3*
21,1,0.6227,0.7700,0,0,268.3*
1,1,0.3773,-0.2055,-0.3054*
1,1,0.3773,-0.1870,0.3170*
1,1,0.3773,0.2055,0.3054*
1,1,0.3773,0.1870,-0.3170*
%
%ADD22ROUNDEDRECTD22*%
G04:AMPARAMS|DCode=23|XSize=1mm|YSize=0.77mm|CornerRadius=0.1887mm|HoleSize=0mm|Usage=FLASHONLY|Rotation=274.200|XOffset=0mm|YOffset=0mm|HoleType=Round|Shape=RoundedRectangle|*
%AMROUNDEDRECTD23*
21,1,1.0000,0.3927,0,0,274.2*
21,1,0.6227,0.7700,0,0,274.2*
1,1,0.3773,-0.1730,-0.3249*
1,1,0.3773,-0.2186,0.2961*
1,1,0.3773,0.1730,0.3249*
1,1,0.3773,0.2186,-0.2961*
%
%ADD23ROUNDEDRECTD23*%
G04:AMPARAMS|DCode=24|XSize=1mm|YSize=0.77mm|CornerRadius=0.1887mm|HoleSize=0mm|Usage=FLASHONLY|Rotation=97.600|XOffset=0mm|YOffset=0mm|HoleType=Round|Shape=RoundedRectangle|*
%AMROUNDEDRECTD24*
21,1,1.0000,0.3927,0,0,97.6*
21,1,0.6227,0.7700,0,0,97.6*
1,1,0.3773,0.1535,0.3346*
1,1,0.3773,0.2358,-0.2827*
1,1,0.3773,-0.1535,-0.3346*
1,1,0.3773,-0.2358,0.2827*
%
%ADD24ROUNDEDRECTD24*%
G04:AMPARAMS|DCode=25|XSize=1mm|YSize=0.77mm|CornerRadius=0.1887mm|HoleSize=0mm|Usage=FLASHONLY|Rotation=280.200|XOffset=0mm|YOffset=0mm|HoleType=Round|Shape=RoundedRectangle|*
%AMROUNDEDRECTD25*
21,1,1.0000,0.3927,0,0,280.2*
21,1,0.6227,0.7700,0,0,280.2*
1,1,0.3773,-0.1381,-0.3412*
1,1,0.3773,-0.2484,0.2717*
1,1,0.3773,0.1381,0.3412*
1,1,0.3773,0.2484,-0.2717*
%
%ADD25ROUNDEDRECTD25*%
G04:AMPARAMS|DCode=26|XSize=1mm|YSize=0.77mm|CornerRadius=0.1887mm|HoleSize=0mm|Usage=FLASHONLY|Rotation=286.000|XOffset=0mm|YOffset=0mm|HoleType=Round|Shape=RoundedRectangle|*
%AMROUNDEDRECTD26*
21,1,1.0000,0.3927,0,0,286.0*
21,1,0.6227,0.7700,0,0,286.0*
1,1,0.3773,-0.1029,-0.3534*
1,1,0.3773,-0.2746,0.2452*
1,1,0.3773,0.1029,0.3534*
1,1,0.3773,0.2746,-0.2452*
%
%ADD26ROUNDEDRECTD26*%
G04:AMPARAMS|DCode=27|XSize=1mm|YSize=0.77mm|CornerRadius=0.1887mm|HoleSize=0mm|Usage=FLASHONLY|Rotation=103.300|XOffset=0mm|YOffset=0mm|HoleType=Round|Shape=RoundedRectangle|*
%AMROUNDEDRECTD27*
21,1,1.0000,0.3927,0,0,103.3*
21,1,0.6227,0.7700,0,0,103.3*
1,1,0.3773,0.1195,0.3482*
1,1,0.3773,0.2627,-0.2578*
1,1,0.3773,-0.1195,-0.3482*
1,1,0.3773,-0.2627,0.2578*
%
%ADD27ROUNDEDRECTD27*%
G04:AMPARAMS|DCode=28|XSize=2.601mm|YSize=2.9997mm|CornerRadius=0.6372mm|HoleSize=0mm|Usage=FLASHONLY|Rotation=0.000|XOffset=0mm|YOffset=0mm|HoleType=Round|Shape=RoundedRectangle|*
%AMROUNDEDRECTD28*
21,1,2.6010,1.7253,0,0,0.0*
21,1,1.3265,2.9997,0,0,0.0*
1,1,1.2745,0.6632,-0.8626*
1,1,1.2745,-0.6632,-0.8626*
1,1,1.2745,-0.6632,0.8626*
1,1,1.2745,0.6632,0.8626*
%
%ADD28ROUNDEDRECTD28*%
G04:AMPARAMS|DCode=29|XSize=0.65mm|YSize=2.032mm|CornerRadius=0.1593mm|HoleSize=0mm|Usage=FLASHONLY|Rotation=0.000|XOffset=0mm|YOffset=0mm|HoleType=Round|Shape=RoundedRectangle|*
%AMROUNDEDRECTD29*
21,1,0.6500,1.7135,0,0,0.0*
21,1,0.3315,2.0320,0,0,0.0*
1,1,0.3185,0.1658,-0.8568*
1,1,0.3185,-0.1658,-0.8568*
1,1,0.3185,-0.1658,0.8568*
1,1,0.3185,0.1658,0.8568*
%
%ADD29ROUNDEDRECTD29*%
D13*
X521876Y81534D02*
D03*
X541876D02*
D03*
X462186Y89916D02*
D03*
X482186D02*
D03*
X132240Y93980D02*
D03*
X152240D02*
D03*
X90772Y81534D02*
D03*
X70772D02*
D03*
D14*
X398780Y86360D02*
D03*
Y106360D02*
D03*
X268151Y113980D02*
D03*
Y93980D02*
D03*
X294277D02*
D03*
Y113980D02*
D03*
X215900Y86360D02*
D03*
Y106360D02*
D03*
X242026Y86360D02*
D03*
Y106360D02*
D03*
X372654Y86360D02*
D03*
Y106360D02*
D03*
X346529Y93980D02*
D03*
Y113980D02*
D03*
X320403D02*
D03*
Y93980D02*
D03*
D15*
X429006Y73380D02*
D03*
Y89180D02*
D03*
X185420Y73380D02*
D03*
Y89180D02*
D03*
D16*
X574353Y150304D02*
D03*
X591656Y145343D02*
D03*
X559744Y99357D02*
D03*
X577047Y94396D02*
D03*
D17*
X539662Y104570D02*
D03*
X522145Y108711D02*
D03*
X551855Y156149D02*
D03*
X534338Y160290D02*
D03*
D18*
X473187Y172668D02*
D03*
X490908Y169511D02*
D03*
X463892Y120489D02*
D03*
X481613Y117332D02*
D03*
D19*
X443116Y123643D02*
D03*
X425274Y126023D02*
D03*
X450126Y176177D02*
D03*
X432284Y178557D02*
D03*
D20*
X370612Y184400D02*
D03*
X388562Y183051D02*
D03*
X366638Y131549D02*
D03*
X384588Y130200D02*
D03*
D21*
X266718Y185621D02*
D03*
X284710Y186155D02*
D03*
X268290Y132645D02*
D03*
X286282Y133179D02*
D03*
D22*
X345610Y132645D02*
D03*
X327618Y133179D02*
D03*
X347182Y185621D02*
D03*
X329190Y186155D02*
D03*
D23*
X247217Y131630D02*
D03*
X229265Y130312D02*
D03*
X243335Y184488D02*
D03*
X225383Y183170D02*
D03*
D24*
X163574Y176177D02*
D03*
X181416Y178557D02*
D03*
X170584Y123643D02*
D03*
X188426Y126023D02*
D03*
D25*
X150050Y120513D02*
D03*
X132335Y117325D02*
D03*
X140665Y172675D02*
D03*
X122949Y169487D02*
D03*
D26*
X54256Y99357D02*
D03*
X36953Y94396D02*
D03*
X39647Y150304D02*
D03*
X22344Y145343D02*
D03*
D27*
X61730Y156150D02*
D03*
X79247Y160291D02*
D03*
X73923Y104571D02*
D03*
X91440Y108712D02*
D03*
D28*
X239153Y43028D02*
D03*
X376161D02*
D03*
D29*
X302657Y64770D02*
D03*
X292657D02*
D03*
X282657D02*
D03*
X272657D02*
D03*
X262657D02*
D03*
X352657D02*
D03*
X342657D02*
D03*
X332657D02*
D03*
X322657D02*
D03*
X312657D02*
D03*
M02*
